<svg width="24" height="24" viewBox="0 0 24 24" fill="none" xmlns="http://www.w3.org/2000/svg">
<path d="M12.0016 3.60002C10.4103 3.60002 8.88414 4.23217 7.75892 5.35738C6.6337 6.4826 6.00156 8.00873 6.00156 9.60002C6.00156 10.9536 6.80556 12.5328 7.93356 14.052C9.04476 15.5472 10.39 16.884 11.3152 17.7324C11.501 17.9072 11.7465 18.0045 12.0016 18.0045C12.2566 18.0045 12.5021 17.9072 12.688 17.7324C13.612 16.8828 14.9584 15.5484 16.0696 14.052C17.1976 12.5328 18.0016 10.9536 18.0016 9.60002C18.0016 8.00873 17.3694 6.4826 16.2442 5.35738C15.119 4.23217 13.5929 3.60002 12.0016 3.60002ZM4.80156 9.60002C4.80156 7.69047 5.56013 5.85912 6.91039 4.50886C8.26066 3.15859 10.092 2.40002 12.0016 2.40002C13.9111 2.40002 15.7425 3.15859 17.0927 4.50886C18.443 5.85912 19.2016 7.69047 19.2016 9.60002C19.2016 11.3616 18.19 13.2084 17.0332 14.7672C15.8572 16.35 14.4508 17.7432 13.4992 18.6156C13.092 18.9934 12.557 19.2033 12.0016 19.2033C11.4461 19.2033 10.9112 18.9934 10.504 18.6156C9.55236 17.7432 8.14476 16.35 6.96996 14.7672C5.81316 13.2084 4.80156 11.3616 4.80156 9.60002ZM12.0016 7.80002C11.5242 7.80002 11.0663 7.98967 10.7288 8.32723C10.3912 8.6648 10.2016 9.12263 10.2016 9.60002C10.2016 10.0774 10.3912 10.5353 10.7288 10.8728C11.0663 11.2104 11.5242 11.4 12.0016 11.4C12.479 11.4 12.9368 11.2104 13.2744 10.8728C13.6119 10.5353 13.8016 10.0774 13.8016 9.60002C13.8016 9.12263 13.6119 8.6648 13.2744 8.32723C12.9368 7.98967 12.479 7.80002 12.0016 7.80002ZM9.00156 9.60002C9.00156 8.80438 9.31763 8.04131 9.88024 7.4787C10.4429 6.9161 11.2059 6.60002 12.0016 6.60002C12.7972 6.60002 13.5603 6.9161 14.1229 7.4787C14.6855 8.04131 15.0016 8.80438 15.0016 9.60002C15.0016 10.3957 14.6855 11.1587 14.1229 11.7213C13.5603 12.284 12.7972 12.6 12.0016 12.6C11.2059 12.6 10.4429 12.284 9.88024 11.7213C9.31763 11.1587 9.00156 10.3957 9.00156 9.60002ZM17.3056 16.3656C17.0275 16.7028 16.7414 17.0333 16.4476 17.3568C16.7532 17.4432 17.038 17.5372 17.302 17.6388C17.9668 17.8944 18.4648 18.1848 18.7852 18.4764C19.1056 18.768 19.2016 19.0128 19.2016 19.2C19.2016 19.3872 19.1056 19.632 18.7852 19.9236C18.4648 20.2152 17.9668 20.5056 17.302 20.7612C15.9748 21.2724 14.1016 21.6012 12.0016 21.6012C9.90156 21.6012 8.02836 21.2724 6.70116 20.7612C6.03636 20.5056 5.53836 20.2152 5.21796 19.9236C4.89756 19.632 4.80156 19.3872 4.80156 19.2C4.80156 19.0128 4.89756 18.768 5.21796 18.4764C5.53836 18.1848 6.03636 17.8944 6.70116 17.6388C6.9814 17.5315 7.26651 17.4374 7.55556 17.3568C7.2614 17.0336 6.97531 16.7031 6.69756 16.3656C6.5541 16.4138 6.41167 16.465 6.27036 16.5192C5.52516 16.806 4.87956 17.1624 4.41036 17.5884C3.94236 18.0144 3.60156 18.5592 3.60156 19.2C3.60156 19.842 3.94236 20.3856 4.41036 20.8116C4.87836 21.2376 5.52516 21.594 6.27036 21.882C7.76676 22.458 9.79356 22.8 12.0016 22.8C14.2096 22.8 16.2364 22.4568 17.7328 21.882C18.478 21.594 19.1236 21.2376 19.5928 20.8116C20.0608 20.3856 20.4016 19.842 20.4016 19.2C20.4016 18.558 20.0608 18.0144 19.5928 17.5884C19.1248 17.1624 18.478 16.806 17.7328 16.5192C17.5915 16.465 17.449 16.4138 17.3056 16.3656Z" fill="#F3776D"/>
</svg>
