<svg width="24" height="24" viewBox="0 0 24 24" fill="none" xmlns="http://www.w3.org/2000/svg">
<path d="M18.5391 12.4805C18.8594 13.043 19.0977 13.6289 19.2539 14.2383C19.4102 14.8477 19.4922 15.4766 19.5 16.125V17.332L12.4483 20.8689C12.1662 21.0104 11.8338 21.0104 11.5517 20.8689L4.5 17.332C4.5 16.8633 4.50391 16.4258 4.51172 16.0195C4.51953 15.6133 4.55469 15.2188 4.61719 14.8359C4.67969 14.4531 4.77344 14.0703 4.89844 13.6875C5.02344 13.3047 5.21094 12.9023 5.46094 12.4805L3 11.25V18.1289C3.22656 18.207 3.42969 18.3164 3.60938 18.457C3.78906 18.5977 3.94922 18.7617 4.08984 18.9492C4.23047 19.1367 4.33203 19.3398 4.39453 19.5586C4.45703 19.7773 4.49219 20.0078 4.5 20.25V23C4.5 23.5523 4.05228 24 3.5 24H1C0.447715 24 0 23.5523 0 23V20.25C0 20.0156 0.0351562 19.7891 0.105469 19.5703C0.175781 19.3516 0.277344 19.1445 0.410156 18.9492C0.542969 18.7539 0.699219 18.5898 0.878906 18.457C1.05859 18.3242 1.26562 18.2148 1.5 18.1289V10.5C0.881966 10.191 0.881966 9.30902 1.5 9L11.5528 3.97361C11.8343 3.83284 12.1657 3.83284 12.4472 3.97361L22.2111 8.85557C22.9482 9.2241 22.9482 10.2759 22.2111 10.6444L18.5391 12.4805ZM3 20.25C3 20.0469 2.92578 19.8711 2.77734 19.7227C2.62891 19.5742 2.45312 19.5 2.25 19.5C2.04688 19.5 1.87109 19.5742 1.72266 19.7227C1.57422 19.8711 1.5 20.0469 1.5 20.25V22.5H3V20.25ZM3.35156 9.75L11.5528 13.8506C11.8343 13.9914 12.1657 13.9914 12.4472 13.8506L20.6484 9.75L12.4472 5.64939C12.1657 5.50862 11.8343 5.50862 11.5528 5.64939L3.35156 9.75ZM18 16.4062C18 15.8047 17.9414 15.2461 17.8242 14.7305C17.707 14.2148 17.5 13.6875 17.2031 13.1484L12.4472 15.5264C12.1657 15.6672 11.8343 15.6672 11.5528 15.5264L6.79688 13.1484C6.53906 13.6016 6.34375 14.0781 6.21094 14.5781C6.07812 15.0781 6.00781 15.5938 6 16.125V16.4062L11.5528 19.1826C11.8343 19.3234 12.1657 19.3234 12.4472 19.1826L18 16.4062Z" fill="#F3776D"/>
</svg>
