<svg width="24" height="24" viewBox="0 0 24 24" fill="none" xmlns="http://www.w3.org/2000/svg">
<g clip-path="url(#clip0_3179_11645)">
<path d="M20.2447 18.4476C20.1846 18.2887 20.0481 18.1709 19.8821 18.1351C19.8604 18.1305 19.8387 18.1273 19.8169 18.1255L14.118 16.7262C13.8948 16.6713 13.6634 16.7747 13.556 16.9774L12.8184 18.486C11.1309 17.9203 9.58086 16.9591 8.31401 15.689C7.04497 14.4231 6.08379 12.873 5.51787 11.1855L6.7332 10.6034L7.02666 10.4479C7.22954 10.3405 7.33305 10.1088 7.27788 9.88599L5.87822 4.18567C5.87651 4.16443 5.87334 4.14307 5.8687 4.12183C5.83281 3.95581 5.71513 3.81934 5.5562 3.7594C5.37505 3.69116 5.17558 3.64648 4.97368 3.62805C4.59575 3.58484 4.16728 3.53565 3.50176 3.73377C1.68437 4.27344 0.45073 6.00464 0.501511 7.94312C0.603806 12.0516 2.26347 15.9177 5.1751 18.829C8.08623 21.7404 11.9522 23.4001 16.0601 23.5026C16.0987 23.5035 16.137 23.504 16.1756 23.504C18.0677 23.5039 19.7413 22.2833 20.2701 20.5026C20.4686 19.8364 20.4192 19.4081 20.377 19.0411C20.3575 18.8285 20.3128 18.6289 20.2447 18.4476ZM19.3116 20.2175C18.9087 21.5745 17.627 22.5042 16.1749 22.504C16.1453 22.504 16.1155 22.5037 16.0857 22.5028C12.2349 22.4069 8.61113 20.8511 5.88213 18.122C3.15288 15.3928 1.59697 11.769 1.50102 7.9176C1.4622 6.42981 2.4019 5.10352 3.78691 4.69238C4.0479 4.61462 4.25029 4.58997 4.43584 4.58997C4.58428 4.58997 4.72221 4.60571 4.87065 4.62268C4.90044 4.62537 4.92973 4.62891 4.95805 4.63318L6.21269 9.74439L4.69975 10.4696C4.54424 10.5446 4.43657 10.7106 4.41802 10.8823C4.41094 10.948 4.41679 11.0143 4.43559 11.0775C5.02617 13.0767 6.12309 14.9161 7.60698 16.3961C9.08818 17.881 10.9275 18.978 12.9266 19.5684C12.9895 19.5869 13.0716 19.5917 13.1375 19.5842C13.3094 19.5658 13.4595 19.4598 13.5345 19.3041L14.2591 17.7913L19.3707 19.0459C19.3753 19.0773 19.3792 19.11 19.3824 19.1442C19.4195 19.4677 19.4517 19.7471 19.3116 20.2175ZM21.0589 5.61096C20.9375 5.51611 20.7789 5.48242 20.6299 5.5199L19.2379 5.86791C19.1725 5.37935 18.7576 5 18.2513 5H12.2513C11.6998 5 11.2513 5.44861 11.2513 6V10C11.2513 10.5514 11.6998 11 12.2513 11H18.2513C18.7419 11 19.149 10.6443 19.2333 10.1776L20.6307 10.5253C20.6705 10.5352 20.711 10.54 20.7513 10.54C20.8616 10.54 20.9703 10.5034 21.0591 10.434C21.1805 10.3392 21.2513 10.1938 21.2513 10.04V6.00501C21.2513 5.85107 21.1802 5.70569 21.0589 5.61096ZM12.2513 10V6H18.2513L18.252 10H12.2513ZM20.2513 9.40039L19.2513 9.15163V6.89543L20.2513 6.64539V9.40039ZM16.0064 0.5C11.8709 0.5 8.50639 3.8645 8.50639 8C8.50639 9.54822 8.97099 11.0258 9.85234 12.2871L9.38896 14.9131C9.35552 15.1024 9.43364 15.2939 9.58965 15.4061C9.67632 15.4684 9.77861 15.5 9.88139 15.5C9.96367 15.5 10.0459 15.4797 10.1209 15.4388L12.0613 14.3796C13.2454 15.1136 14.6028 15.5 16.0064 15.5C20.1419 15.5 23.5064 12.1355 23.5064 8C23.5064 3.8645 20.1419 0.5 16.0064 0.5ZM16.0064 14.5C14.7002 14.5 13.4407 14.1141 12.3638 13.3842C12.2793 13.3269 12.1814 13.298 12.0833 13.298C12.001 13.298 11.9185 13.3182 11.8438 13.3591L10.5545 14.0629L10.8738 12.2532C10.8978 12.1178 10.8648 11.9786 10.783 11.8683C9.9478 10.7428 9.50639 9.40515 9.50639 8C9.50639 4.41589 12.4222 1.5 16.0064 1.5C19.5906 1.5 22.5064 4.41589 22.5064 8C22.5064 11.5841 19.5906 14.5 16.0064 14.5Z" fill="#F3776D"/>
</g>
<defs>
<clipPath id="clip0_3179_11645">
<rect width="24" height="24" fill="white"/>
</clipPath>
</defs>
</svg>
