<svg width="584" height="185" viewBox="0 0 584 185" fill="none" xmlns="http://www.w3.org/2000/svg">
<path d="M3.08615 161.35C21.9128 150.675 41.7566 141.012 62.3557 132.522C68.1456 130.122 74.0955 127.74 80.1033 125.557C83.3182 124.394 85.6709 128.563 82.456 129.726C61.7848 137.441 41.8688 146.329 22.8102 156.21C17.4562 159.044 12.015 161.931 6.80637 164.91C3.85286 166.614 0.219945 163 3.08615 161.35Z" fill="white"/>
<path d="M72.8257 142.727C74.5432 140.308 76.1893 137.819 77.9069 135.401C78.7657 134.191 79.6245 132.982 80.4118 131.702C81.1703 130.668 82.0148 129.582 82.5445 128.46C82.5589 128.337 82.6591 128.161 82.6735 128.038C82.9454 127.758 82.5161 128.021 82.8308 128.057C83.503 128.445 83.7175 128.656 83.3313 128.55C83.1739 128.532 83.0166 128.514 82.8592 128.496C82.3872 128.442 81.9152 128.388 81.3573 128.386C79.5406 128.24 77.6524 128.024 75.9215 127.826C72.2167 127.465 68.5976 127.051 64.8928 126.689C61.2738 126.275 61.7762 121.974 65.3952 122.388C69.7294 122.822 74.0637 123.256 78.3121 123.742C80.3577 123.976 82.8324 123.947 84.8349 124.55C86.9947 125.171 88.2529 126.684 88.2093 128.423C88.1086 129.968 87.164 131.229 86.2193 132.491C85.1745 133.928 84.287 135.383 83.2422 136.82C81.3098 139.712 79.2201 142.586 77.2878 145.479C76.615 146.46 74.5408 146.472 73.4109 145.907C72.2383 145.025 72.1529 143.708 72.8257 142.727Z" fill="white"/>
<path d="M580.434 164.254C561.608 153.579 541.764 143.916 521.165 135.427C515.375 133.027 509.425 130.645 503.417 128.462C500.202 127.298 497.85 131.468 501.064 132.631C521.736 140.345 541.652 149.233 560.71 159.115C566.064 161.949 571.506 164.836 576.714 167.814C579.668 169.519 583.301 165.905 580.434 164.254Z" fill="white"/>
<path d="M510.695 145.631C508.977 143.213 507.331 140.724 505.614 138.305C504.755 137.096 503.896 135.887 503.109 134.607C502.35 133.573 501.506 132.487 500.976 131.364C500.962 131.242 500.861 131.066 500.847 130.943C500.575 130.663 501.004 130.925 500.69 130.961C500.018 131.35 499.803 131.561 500.189 131.454C500.347 131.436 500.504 131.418 500.661 131.4C501.133 131.346 501.605 131.292 502.163 131.291C503.98 131.145 505.868 130.929 507.599 130.731C511.304 130.37 514.923 129.956 518.628 129.594C522.247 129.18 521.744 124.879 518.125 125.293C513.791 125.727 509.457 126.16 505.208 126.646C503.163 126.88 500.688 126.852 498.686 127.455C496.526 128.075 495.268 129.589 495.311 131.328C495.412 132.873 496.357 134.134 497.301 135.396C498.346 136.833 499.234 138.288 500.278 139.725C502.211 142.617 504.3 145.491 506.233 148.383C506.905 149.365 508.98 149.377 510.11 148.811C511.282 147.93 511.368 146.613 510.695 145.631Z" fill="white"/>
<path d="M3.08615 20.1923C21.9128 30.8673 41.7566 40.5304 62.3557 49.02C68.1456 51.4201 74.0955 53.8018 80.1033 55.9851C83.3182 57.1483 85.6709 52.979 82.456 51.8158C61.7848 44.1013 41.8688 35.2134 22.8102 25.332C17.4562 22.4982 12.015 19.6106 6.80637 16.6323C3.85286 14.9277 0.219945 18.5416 3.08615 20.1923Z" fill="white"/>
<path d="M72.8257 38.8154C74.5432 41.2339 76.1893 43.7229 77.9069 46.1414C78.7657 47.3507 79.6245 48.56 80.4118 49.8397C81.1703 50.8736 82.0148 51.96 82.5445 53.0824C82.5589 53.2053 82.6591 53.3806 82.6735 53.5035C82.9454 53.7837 82.5161 53.5215 82.8308 53.4855C83.503 53.0973 83.7175 52.8859 83.3313 52.9924C83.1739 53.0104 83.0166 53.0284 82.8592 53.0464C82.3872 53.1004 81.9152 53.1544 81.3573 53.156C79.5406 53.3015 77.6524 53.5175 75.9215 53.7155C72.2167 54.0771 68.5976 54.4911 64.8928 54.8526C61.2738 55.2666 61.7762 59.5675 65.3952 59.1535C69.7294 58.72 74.0637 58.2864 78.3121 57.8004C80.3577 57.5664 82.8324 57.5946 84.8349 56.992C86.9947 56.3713 88.2529 54.8576 88.2093 53.1192C88.1086 51.5742 87.164 50.3125 86.2193 49.0508C85.1745 47.6138 84.287 46.1587 83.2422 44.7217C81.3098 41.8296 79.2201 38.9555 77.2878 36.0635C76.615 35.082 74.5408 35.0702 73.4109 35.6353C72.2383 36.5166 72.1529 37.8339 72.8257 38.8154Z" fill="white"/>
<path d="M580.434 20.1923C561.608 30.8673 541.764 40.5304 521.165 49.02C515.375 51.4201 509.425 53.8018 503.417 55.9851C500.202 57.1483 497.85 52.979 501.064 51.8158C521.736 44.1013 541.652 35.2134 560.71 25.332C566.064 22.4982 571.506 19.6106 576.714 16.6323C579.668 14.9277 583.301 18.5416 580.434 20.1923Z" fill="white"/>
<path d="M510.695 38.8154C508.977 41.2339 507.331 43.7229 505.614 46.1414C504.755 47.3507 503.896 48.56 503.109 49.8397C502.35 50.8736 501.506 51.96 500.976 53.0824C500.962 53.2053 500.861 53.3806 500.847 53.5035C500.575 53.7837 501.004 53.5215 500.69 53.4855C500.018 53.0973 499.803 52.8859 500.189 52.9924C500.347 53.0104 500.504 53.0284 500.661 53.0464C501.133 53.1004 501.605 53.1544 502.163 53.156C503.98 53.3015 505.868 53.5175 507.599 53.7155C511.304 54.0771 514.923 54.4911 518.628 54.8526C522.247 55.2666 521.744 59.5675 518.125 59.1535C513.791 58.72 509.457 58.2864 505.208 57.8004C503.163 57.5664 500.688 57.5946 498.686 56.992C496.526 56.3713 495.268 54.8576 495.311 53.1192C495.412 51.5742 496.357 50.3125 497.301 49.0508C498.346 47.6138 499.234 46.1587 500.278 44.7217C502.211 41.8296 504.3 38.9555 506.233 36.0635C506.905 35.082 508.98 35.0702 510.11 35.6353C511.282 36.5166 511.368 37.8339 510.695 38.8154Z" fill="white"/>
</svg>
