<svg width="405" height="623" viewBox="0 0 405 623" fill="none" xmlns="http://www.w3.org/2000/svg">
<path d="M271.987 287.791C220.948 298.328 217.655 328.622 217.655 328.622C154.104 251.57 262.108 231.813 261.449 231.813L371.43 205.8C434.323 190.323 435.969 173.201 435.969 173.201C456.055 247.289 386.248 258.485 386.248 258.485L271.987 287.791Z" fill="white"/>
<path d="M36.5497 100.102C52.6845 69.1492 89.2348 77.3813 89.2348 77.3813C128.09 84.9548 136.981 55.3194 136.981 55.3194C138.298 82.3205 114.919 90.5526 114.919 90.5526C116.565 89.894 127.432 103.724 128.749 105.37C132.7 110.639 135.993 116.237 138.627 122.164C146.859 140.933 150.152 161.678 149.493 182.093C149.164 188.679 149.164 195.264 148.176 201.521C153.774 192.301 160.03 182.093 167.933 174.849C177.812 165.629 197.898 157.068 212.386 153.775L217.655 152.458L386.577 102.407C451.116 76.3935 477.129 0 477.129 0C521.911 118.871 433.664 149.165 433.664 149.165L233.79 208.436L230.497 209.753C230.497 209.753 145.871 229.51 138.298 346.734C138.298 345.417 131.054 340.148 127.761 337.185C57.2945 283.512 82.3199 175.507 82.3199 175.507C85.2834 133.03 57.953 126.774 57.953 126.774C12.5121 114.59 -0.000518799 133.359 -0.000518799 133.359C1.64587 108.992 36.5497 100.102 36.5497 100.102Z" fill="white"/>
<path d="M204.485 351.342C206.79 354.306 209.095 357.269 211.07 360.233C213.705 363.855 216.668 367.477 219.302 371.099C222.266 375.051 224.9 378.673 227.864 382.624C230.827 386.575 233.462 390.197 236.425 394.149C239.389 398.1 242.352 402.052 245.316 406.003C248.279 409.954 250.913 413.577 253.877 417.528C256.511 421.15 259.475 424.772 262.109 428.723C264.743 432.346 267.378 435.968 270.341 439.59C272.646 442.883 275.28 446.175 277.585 449.468C279.89 452.432 281.866 455.395 284.171 458.359C286.147 460.993 288.122 463.957 290.427 466.92C306.562 487.336 307.55 505.117 307.55 505.117C309.196 516.313 309.855 528.167 307.879 539.362C306.562 546.277 304.257 552.863 301.294 559.119C298.33 565.046 294.708 570.644 290.757 575.913C286.805 580.852 282.854 585.791 278.244 590.072C273.963 594.352 269.683 598.304 265.402 601.926C261.451 605.219 257.17 608.512 252.889 611.475C249.596 613.78 246.304 615.756 243.011 617.731C241.035 619.049 238.73 620.036 236.754 621.354C236.096 621.683 233.791 622.341 233.132 623C292.403 540.35 216.997 464.615 216.997 464.615L173.203 406.662L172.874 406.003C169.91 401.722 167.276 397.442 165.3 393.49L164.971 392.832C164.971 392.832 164.971 392.832 164.971 392.502C136.653 336.525 179.789 285.156 179.789 285.156C180.776 309.523 193.289 334.22 204.485 351.342Z" fill="white"/>
</svg>
