<svg width="32" height="32" viewBox="0 0 32 32" fill="none" xmlns="http://www.w3.org/2000/svg">
<path fill-rule="evenodd" clip-rule="evenodd" d="M15.996 27.792C17.5295 26.4005 18.9487 24.8881 20.24 23.2693C22.96 19.852 24.6147 16.4827 24.7267 13.4867C24.771 12.2691 24.5694 11.055 24.1341 9.91704C23.6987 8.77907 23.0384 7.74053 22.1927 6.86345C21.3469 5.98637 20.3331 5.28876 19.2117 4.81227C18.0903 4.33578 16.8844 4.09021 15.666 4.09021C14.4476 4.09021 13.2417 4.33578 12.1203 4.81227C10.9989 5.28876 9.98507 5.98637 9.13934 6.86345C8.29361 7.74053 7.63333 8.77907 7.19795 9.91704C6.76257 11.055 6.56101 12.2691 6.60533 13.4867C6.71867 16.4827 8.37467 19.852 11.0933 23.2693C12.3846 24.8881 13.8038 26.4005 15.3373 27.792C15.4849 27.9253 15.5947 28.0222 15.6667 28.0827L15.996 27.792ZM14.6827 29.3453C14.6827 29.3453 5 21.1907 5 13.1667C5 10.3377 6.12381 7.62458 8.12419 5.62419C10.1246 3.62381 12.8377 2.5 15.6667 2.5C18.4956 2.5 21.2088 3.62381 23.2091 5.62419C25.2095 7.62458 26.3333 10.3377 26.3333 13.1667C26.3333 21.1907 16.6507 29.3453 16.6507 29.3453C16.112 29.8413 15.2253 29.836 14.6827 29.3453ZM15.6667 16.9C16.6568 16.9 17.6064 16.5067 18.3065 15.8065C19.0067 15.1064 19.4 14.1568 19.4 13.1667C19.4 12.1765 19.0067 11.2269 18.3065 10.5268C17.6064 9.82667 16.6568 9.43333 15.6667 9.43333C14.6765 9.43333 13.7269 9.82667 13.0268 10.5268C12.3267 11.2269 11.9333 12.1765 11.9333 13.1667C11.9333 14.1568 12.3267 15.1064 13.0268 15.8065C13.7269 16.5067 14.6765 16.9 15.6667 16.9ZM15.6667 18.5C14.2522 18.5 12.8956 17.9381 11.8954 16.9379C10.8952 15.9377 10.3333 14.5812 10.3333 13.1667C10.3333 11.7522 10.8952 10.3956 11.8954 9.39543C12.8956 8.39524 14.2522 7.83333 15.6667 7.83333C17.0812 7.83333 18.4377 8.39524 19.4379 9.39543C20.4381 10.3956 21 11.7522 21 13.1667C21 14.5812 20.4381 15.9377 19.4379 16.9379C18.4377 17.9381 17.0812 18.5 15.6667 18.5Z" fill="white"/>
</svg>
