<svg width="32" height="32" viewBox="0 0 32 32" fill="none" xmlns="http://www.w3.org/2000/svg">
<path d="M16.0373 22.9733C16.3324 22.9733 16.5813 22.872 16.784 22.6693C16.9867 22.4667 17.088 22.2178 17.088 21.9227C17.088 21.6276 16.9858 21.3787 16.7813 21.176C16.5787 20.9733 16.3298 20.872 16.0347 20.872C15.7396 20.872 15.4907 20.9738 15.288 21.1773C15.0853 21.3809 14.9844 21.6298 14.9853 21.924C14.9853 22.2191 15.0867 22.468 15.2893 22.6707C15.4938 22.8733 15.7431 22.9747 16.0373 22.9747M15.348 18.5587H16.636C16.6698 17.9791 16.7787 17.508 16.9627 17.1453C17.1467 16.7836 17.5249 16.3213 18.0973 15.7587C18.6929 15.164 19.1356 14.6311 19.4253 14.16C19.7151 13.6889 19.8604 13.144 19.8613 12.5253C19.8613 11.4747 19.4924 10.6373 18.7547 10.0133C18.016 9.38933 17.1422 9.07733 16.1333 9.07733C15.1742 9.07733 14.36 9.33778 13.6907 9.85867C13.0213 10.3804 12.5311 10.9796 12.22 11.656L13.4467 12.164C13.66 11.6787 13.9653 11.2498 14.3627 10.8773C14.76 10.504 15.3333 10.3173 16.0827 10.3173C16.9467 10.3173 17.5778 10.5547 17.976 11.0293C18.3751 11.504 18.5747 12.0258 18.5747 12.5947C18.5747 13.0569 18.4498 13.4693 18.2 13.832C17.9511 14.1956 17.6267 14.5609 17.2267 14.928C16.4533 15.6409 15.9467 16.2453 15.7067 16.7413C15.4667 17.2373 15.3471 17.8431 15.348 18.5587ZM16.004 28C14.3453 28 12.7853 27.6853 11.324 27.056C9.86356 26.4258 8.59289 25.5707 7.512 24.4907C6.43111 23.4107 5.57556 22.1413 4.94533 20.6827C4.31511 19.224 4 17.6644 4 16.004C4 14.3436 4.31511 12.7836 4.94533 11.324C5.57467 9.86356 6.42844 8.59289 7.50667 7.512C8.58489 6.43111 9.85467 5.57556 11.316 4.94533C12.7773 4.31511 14.3373 4 15.996 4C17.6547 4 19.2147 4.31511 20.676 4.94533C22.1364 5.57467 23.4071 6.42889 24.488 7.508C25.5689 8.58711 26.4244 9.85689 27.0547 11.3173C27.6849 12.7778 28 14.3373 28 15.996C28 17.6547 27.6853 19.2147 27.056 20.676C26.4267 22.1373 25.5716 23.408 24.4907 24.488C23.4098 25.568 22.1404 26.4236 20.6827 27.0547C19.2249 27.6858 17.6653 28.0009 16.004 28ZM16 26.6667C18.9778 26.6667 21.5 25.6333 23.5667 23.5667C25.6333 21.5 26.6667 18.9778 26.6667 16C26.6667 13.0222 25.6333 10.5 23.5667 8.43333C21.5 6.36667 18.9778 5.33333 16 5.33333C13.0222 5.33333 10.5 6.36667 8.43333 8.43333C6.36667 10.5 5.33333 13.0222 5.33333 16C5.33333 18.9778 6.36667 21.5 8.43333 23.5667C10.5 25.6333 13.0222 26.6667 16 26.6667Z" fill="white"/>
</svg>
