<svg width="40" height="40" viewBox="0 0 40 40" fill="none" xmlns="http://www.w3.org/2000/svg">
<g clip-path="url(#clip0_3080_13686)">
<path fill-rule="evenodd" clip-rule="evenodd" d="M25.8509 30.5984L28.2076 32.955C28.5328 33.2802 29.0607 33.2802 29.3859 32.955L34.0992 28.2417C34.4244 27.9165 34.4244 27.3886 34.0992 27.0634C33.774 26.7381 33.2461 26.7381 32.9209 27.0634L28.7967 31.1875L27.0292 29.42C26.704 29.0948 26.1761 29.0948 25.8509 29.42C25.5257 29.7452 25.5257 30.2731 25.8509 30.5984Z" fill="#F3776D"/>
<path fill-rule="evenodd" clip-rule="evenodd" d="M10.832 16C10.832 15.5142 10.6387 15.0475 10.2954 14.7034C9.9512 14.36 9.48453 14.1667 8.9987 14.1667H7.66536C7.17953 14.1667 6.71286 14.36 6.3687 14.7034C6.02536 15.0475 5.83203 15.5142 5.83203 16V17.3334C5.83203 17.8192 6.02536 18.2859 6.3687 18.63C6.71286 18.9734 7.17953 19.1667 7.66536 19.1667H8.9987C9.48453 19.1667 9.9512 18.9734 10.2954 18.63C10.6387 18.2859 10.832 17.8192 10.832 17.3334V16ZM9.16536 16V17.3334C9.16536 17.3775 9.14786 17.42 9.11619 17.4509C9.08536 17.4825 9.04287 17.5 8.9987 17.5H7.66536C7.6212 17.5 7.5787 17.4825 7.54787 17.4509C7.5162 17.42 7.4987 17.3775 7.4987 17.3334V16C7.4987 15.9559 7.5162 15.9134 7.54787 15.8825C7.5787 15.8509 7.6212 15.8334 7.66536 15.8334H8.9987C9.04287 15.8334 9.08536 15.8509 9.11619 15.8825C9.14786 15.9134 9.16536 15.9559 9.16536 16Z" fill="#F3776D"/>
<path fill-rule="evenodd" clip-rule="evenodd" d="M10.832 22.6667C10.832 22.1808 10.6387 21.7142 10.2954 21.37C9.9512 21.0267 9.48453 20.8333 8.9987 20.8333H7.66536C7.17953 20.8333 6.71286 21.0267 6.3687 21.37C6.02536 21.7142 5.83203 22.1808 5.83203 22.6667V24C5.83203 24.4858 6.02536 24.9525 6.3687 25.2967C6.71286 25.64 7.17953 25.8333 7.66536 25.8333H8.9987C9.48453 25.8333 9.9512 25.64 10.2954 25.2967C10.6387 24.9525 10.832 24.4858 10.832 24V22.6667ZM9.16536 22.6667V24C9.16536 24.0442 9.14786 24.0867 9.11619 24.1175C9.08536 24.1492 9.04287 24.1667 8.9987 24.1667H7.66536C7.6212 24.1667 7.5787 24.1492 7.54787 24.1175C7.5162 24.0867 7.4987 24.0442 7.4987 24V22.6667C7.4987 22.6225 7.5162 22.58 7.54787 22.5492C7.5787 22.5175 7.6212 22.5 7.66536 22.5H8.9987C9.04287 22.5 9.08536 22.5175 9.11619 22.5492C9.14786 22.58 9.16536 22.6225 9.16536 22.6667Z" fill="#F3776D"/>
<path fill-rule="evenodd" clip-rule="evenodd" d="M10.832 29.3333C10.832 28.8475 10.6387 28.3808 10.2954 28.0367C9.9512 27.6933 9.48453 27.5 8.9987 27.5H7.66536C7.17953 27.5 6.71286 27.6933 6.3687 28.0367C6.02536 28.3808 5.83203 28.8475 5.83203 29.3333V30.6667C5.83203 31.1525 6.02536 31.6192 6.3687 31.9633C6.71286 32.3067 7.17953 32.5 7.66536 32.5H8.9987C9.48453 32.5 9.9512 32.3067 10.2954 31.9633C10.6387 31.6192 10.832 31.1525 10.832 30.6667V29.3333ZM9.16536 29.3333V30.6667C9.16536 30.7108 9.14786 30.7533 9.11619 30.7842C9.08536 30.8158 9.04287 30.8333 8.9987 30.8333H7.66536C7.6212 30.8333 7.5787 30.8158 7.54787 30.7842C7.5162 30.7533 7.4987 30.7108 7.4987 30.6667V29.3333C7.4987 29.2892 7.5162 29.2467 7.54787 29.2158C7.5787 29.1842 7.6212 29.1667 7.66536 29.1667H8.9987C9.04287 29.1667 9.08536 29.1842 9.11619 29.2158C9.14786 29.2467 9.16536 29.2892 9.16536 29.3333Z" fill="#F3776D"/>
<path fill-rule="evenodd" clip-rule="evenodd" d="M17.5 16C17.5 15.5142 17.3067 15.0475 16.9633 14.7034C16.6192 14.36 16.1525 14.1667 15.6667 14.1667H14.3333C13.8475 14.1667 13.3808 14.36 13.0367 14.7034C12.6933 15.0475 12.5 15.5142 12.5 16V17.3334C12.5 17.8192 12.6933 18.2859 13.0367 18.63C13.3808 18.9734 13.8475 19.1667 14.3333 19.1667H15.6667C16.1525 19.1667 16.6192 18.9734 16.9633 18.63C17.3067 18.2859 17.5 17.8192 17.5 17.3334V16ZM15.8333 16V17.3334C15.8333 17.3775 15.8158 17.42 15.7842 17.4509C15.7533 17.4825 15.7108 17.5 15.6667 17.5H14.3333C14.2892 17.5 14.2467 17.4825 14.2158 17.4509C14.1842 17.42 14.1667 17.3775 14.1667 17.3334V16C14.1667 15.9559 14.1842 15.9134 14.2158 15.8825C14.2467 15.8509 14.2892 15.8334 14.3333 15.8334H15.6667C15.7108 15.8334 15.7533 15.8509 15.7842 15.8825C15.8158 15.9134 15.8333 15.9559 15.8333 16Z" fill="#F3776D"/>
<path fill-rule="evenodd" clip-rule="evenodd" d="M17.5 22.6667C17.5 22.1808 17.3067 21.7142 16.9633 21.37C16.6192 21.0267 16.1525 20.8333 15.6667 20.8333H14.3333C13.8475 20.8333 13.3808 21.0267 13.0367 21.37C12.6933 21.7142 12.5 22.1808 12.5 22.6667V24C12.5 24.4858 12.6933 24.9525 13.0367 25.2967C13.3808 25.64 13.8475 25.8333 14.3333 25.8333H15.6667C16.1525 25.8333 16.6192 25.64 16.9633 25.2967C17.3067 24.9525 17.5 24.4858 17.5 24V22.6667ZM15.8333 22.6667V24C15.8333 24.0442 15.8158 24.0867 15.7842 24.1175C15.7533 24.1492 15.7108 24.1667 15.6667 24.1667H14.3333C14.2892 24.1667 14.2467 24.1492 14.2158 24.1175C14.1842 24.0867 14.1667 24.0442 14.1667 24V22.6667C14.1667 22.6225 14.1842 22.58 14.2158 22.5492C14.2467 22.5175 14.2892 22.5 14.3333 22.5H15.6667C15.7108 22.5 15.7533 22.5175 15.7842 22.5492C15.8158 22.58 15.8333 22.6225 15.8333 22.6667Z" fill="#F3776D"/>
<path fill-rule="evenodd" clip-rule="evenodd" d="M17.5 29.3333C17.5 28.8475 17.3067 28.3808 16.9633 28.0367C16.6192 27.6933 16.1525 27.5 15.6667 27.5H14.3333C13.8475 27.5 13.3808 27.6933 13.0367 28.0367C12.6933 28.3808 12.5 28.8475 12.5 29.3333V30.6667C12.5 31.1525 12.6933 31.6192 13.0367 31.9633C13.3808 32.3067 13.8475 32.5 14.3333 32.5H15.6667C16.1525 32.5 16.6192 32.3067 16.9633 31.9633C17.3067 31.6192 17.5 31.1525 17.5 30.6667V29.3333ZM15.8333 29.3333V30.6667C15.8333 30.7108 15.8158 30.7533 15.7842 30.7842C15.7533 30.8158 15.7108 30.8333 15.6667 30.8333H14.3333C14.2892 30.8333 14.2467 30.8158 14.2158 30.7842C14.1842 30.7533 14.1667 30.7108 14.1667 30.6667V29.3333C14.1667 29.2892 14.1842 29.2467 14.2158 29.2158C14.2467 29.1842 14.2892 29.1667 14.3333 29.1667H15.6667C15.7108 29.1667 15.7533 29.1842 15.7842 29.2158C15.8158 29.2467 15.8333 29.2892 15.8333 29.3333Z" fill="#F3776D"/>
<path fill-rule="evenodd" clip-rule="evenodd" d="M24.1641 16C24.1641 15.5142 23.9707 15.0475 23.6274 14.7034C23.2832 14.36 22.8166 14.1667 22.3307 14.1667H20.9974C20.5116 14.1667 20.0449 14.36 19.7007 14.7034C19.3574 15.0475 19.1641 15.5142 19.1641 16V17.3334C19.1641 17.8192 19.3574 18.2859 19.7007 18.63C20.0449 18.9734 20.5116 19.1667 20.9974 19.1667H22.3307C22.8166 19.1667 23.2832 18.9734 23.6274 18.63C23.9707 18.2859 24.1641 17.8192 24.1641 17.3334V16ZM22.4974 16V17.3334C22.4974 17.3775 22.4799 17.42 22.4482 17.4509C22.4174 17.4825 22.3749 17.5 22.3307 17.5H20.9974C20.9532 17.5 20.9107 17.4825 20.8799 17.4509C20.8482 17.42 20.8307 17.3775 20.8307 17.3334V16C20.8307 15.9559 20.8482 15.9134 20.8799 15.8825C20.9107 15.8509 20.9532 15.8334 20.9974 15.8334H22.3307C22.3749 15.8334 22.4174 15.8509 22.4482 15.8825C22.4799 15.9134 22.4974 15.9559 22.4974 16Z" fill="#F3776D"/>
<path fill-rule="evenodd" clip-rule="evenodd" d="M30.832 16C30.832 15.5142 30.6387 15.0475 30.2954 14.7034C29.9512 14.36 29.4845 14.1667 28.9987 14.1667H27.6654C27.1795 14.1667 26.7129 14.36 26.3687 14.7034C26.0254 15.0475 25.832 15.5142 25.832 16V17.3334C25.832 17.8192 26.0254 18.2859 26.3687 18.63C26.7129 18.9734 27.1795 19.1667 27.6654 19.1667H28.9987C29.4845 19.1667 29.9512 18.9734 30.2954 18.63C30.6387 18.2859 30.832 17.8192 30.832 17.3334V16ZM29.1654 16V17.3334C29.1654 17.3775 29.1479 17.42 29.1162 17.4509C29.0854 17.4825 29.0429 17.5 28.9987 17.5H27.6654C27.6212 17.5 27.5787 17.4825 27.5479 17.4509C27.5162 17.42 27.4987 17.3775 27.4987 17.3334V16C27.4987 15.9559 27.5162 15.9134 27.5479 15.8825C27.5787 15.8509 27.6212 15.8334 27.6654 15.8334H28.9987C29.0429 15.8334 29.0854 15.8509 29.1162 15.8825C29.1479 15.9134 29.1654 15.9559 29.1654 16Z" fill="#F3776D"/>
<path fill-rule="evenodd" clip-rule="evenodd" d="M22.9295 35.8333H4.9987C3.8937 35.8333 2.8337 35.3942 2.05204 34.6133C1.2712 33.8317 0.832031 32.7717 0.832031 31.6667V8.33334C0.832031 6.03251 2.69786 4.16668 4.9987 4.16668H7.4987V3.33334C7.4987 1.95251 8.61787 0.833344 9.9987 0.833344C11.3795 0.833344 12.4987 1.95251 12.4987 3.33334V4.16668H24.1654V3.33334C24.1654 1.95251 25.2845 0.833344 26.6654 0.833344C28.0462 0.833344 29.1654 1.95251 29.1654 3.33334V4.16668H31.6654C33.9662 4.16668 35.832 6.03251 35.832 8.33334V22.9308C37.8679 24.6133 39.1654 27.1558 39.1654 30C39.1654 35.0592 35.0579 39.1667 29.9987 39.1667C27.1545 39.1667 24.612 37.8692 22.9295 35.8333ZM29.9987 22.5C34.1379 22.5 37.4987 25.8608 37.4987 30C37.4987 34.1392 34.1379 37.5 29.9987 37.5C25.8595 37.5 22.4987 34.1392 22.4987 30C22.4987 25.8608 25.8595 22.5 29.9987 22.5ZM34.1654 21.8342V12.5H2.4987V31.6667C2.4987 32.33 2.76203 32.9658 3.2312 33.4342C3.69953 33.9033 4.33536 34.1667 4.9987 34.1667H21.8329C21.1929 32.9167 20.832 31.5 20.832 30C20.832 24.9408 24.9395 20.8333 29.9987 20.8333C31.4987 20.8333 32.9154 21.1942 34.1654 21.8342ZM29.1654 5.83334V6.66668C29.1654 8.04751 28.0462 9.16668 26.6654 9.16668C25.2845 9.16668 24.1654 8.04751 24.1654 6.66668V5.83334H12.4987V6.66668C12.4987 8.04751 11.3795 9.16668 9.9987 9.16668C8.61787 9.16668 7.4987 8.04751 7.4987 6.66668V5.83334H4.9987C3.61786 5.83334 2.4987 6.95251 2.4987 8.33334V10.8333H34.1654V8.33334C34.1654 6.95251 33.0462 5.83334 31.6654 5.83334H29.1654ZM27.4987 3.33334V6.66668C27.4987 7.12668 27.1254 7.50001 26.6654 7.50001C26.2054 7.50001 25.832 7.12668 25.832 6.66668V3.33334C25.832 2.87334 26.2054 2.50001 26.6654 2.50001C27.1254 2.50001 27.4987 2.87334 27.4987 3.33334ZM10.832 3.33334V6.66668C10.832 7.12668 10.4587 7.50001 9.9987 7.50001C9.5387 7.50001 9.16537 7.12668 9.16537 6.66668V3.33334C9.16537 2.87334 9.5387 2.50001 9.9987 2.50001C10.4587 2.50001 10.832 2.87334 10.832 3.33334Z" fill="#F3776D"/>
</g>
<defs>
<clipPath id="clip0_3080_13686">
<rect width="40" height="40" fill="white"/>
</clipPath>
</defs>
</svg>
