<svg width="40" height="40" viewBox="0 0 40 40" fill="none" xmlns="http://www.w3.org/2000/svg">
<path d="M20.0014 20.5455C21.9093 20.5455 23.456 18.9988 23.456 17.0909C23.456 15.183 21.9093 13.6364 20.0014 13.6364C18.0935 13.6364 16.5469 15.183 16.5469 17.0909C16.5469 18.9988 18.0935 20.5455 20.0014 20.5455Z" stroke="#F3776D" stroke-width="1.5" stroke-miterlimit="10" stroke-linecap="round" stroke-linejoin="round"/>
<path d="M23.9386 38.2424V26.9091L29.6961 23.5151C30.8477 22.8485 31.0901 21.2727 30.2416 20.2424L25.2719 14.4848C24.7871 13.8788 23.878 13.8182 23.2719 14.303C23.0295 14.4848 22.9083 14.7273 22.8477 14.9697" stroke="#F3776D" stroke-width="1.5" stroke-miterlimit="10" stroke-linecap="round" stroke-linejoin="round"/>
<path d="M23.4551 16.8485L27.5157 21.6364L24.7884 23.2121C24.243 23.5151 23.6369 23.697 22.9702 23.697H16.3036C15.5157 23.697 14.7278 23.8788 14.0611 24.2424L7.87933 27.5151C6.66721 28.2424 6.36418 29.8788 7.33388 30.9697L11.6369 35.9394C12.1824 36.5455 13.0915 36.6061 13.6975 36.1212C14.3642 35.5758 14.4854 34.6061 13.9399 33.9394L10.1824 29.5151L14.9096 27.2121V38.2424" stroke="#F3776D" stroke-width="1.5" stroke-miterlimit="10" stroke-linecap="round" stroke-linejoin="round"/>
<path d="M8.00012 13.4546C11.3808 13.4546 14.1213 10.714 14.1213 7.33334C14.1213 3.95269 11.3808 1.21213 8.00012 1.21213C4.61947 1.21213 1.87891 3.95269 1.87891 7.33334C1.87891 10.714 4.61947 13.4546 8.00012 13.4546Z" stroke="#F3776D" stroke-width="1.5" stroke-miterlimit="10" stroke-linecap="round" stroke-linejoin="round"/>
<path d="M32.0001 13.4546C35.3808 13.4546 38.1213 10.714 38.1213 7.33334C38.1213 3.95269 35.3808 1.21213 32.0001 1.21213C28.6195 1.21213 25.8789 3.95269 25.8789 7.33334C25.8789 10.714 28.6195 13.4546 32.0001 13.4546Z" stroke="#F3776D" stroke-width="1.5" stroke-miterlimit="10" stroke-linecap="round" stroke-linejoin="round"/>
<path d="M28.0625 8.18181L29.7595 9.81818L34.7292 4.84848" stroke="#F3776D" stroke-width="1.5" stroke-miterlimit="10" stroke-linecap="round" stroke-linejoin="round"/>
<path d="M5.33203 4.66669L10.6654 10" stroke="#F3776D" stroke-width="1.5" stroke-miterlimit="10" stroke-linecap="round" stroke-linejoin="round"/>
<path d="M5.33203 10L10.6654 4.66669" stroke="#F3776D" stroke-width="1.5" stroke-miterlimit="10" stroke-linecap="round" stroke-linejoin="round"/>
</svg>
