<svg width="21" height="20" viewBox="0 0 21 20" fill="none" xmlns="http://www.w3.org/2000/svg">
<g clip-path="url(#clip0_3080_13634)">
<path d="M16.3333 8.35445V4.16668C16.3333 3.2475 15.5859 2.5 14.6666 2.5H2.16664C1.24746 2.5 0.5 3.24746 0.5 4.16668V12.5C0.5 13.4192 1.24746 14.1667 2.16668 14.1667H11.511C12.057 16.0875 13.8232 17.5 15.9167 17.5C16.7223 17.5 17.5146 17.288 18.2087 16.8864C18.4077 16.7712 18.4761 16.5165 18.3605 16.3171C18.2454 16.1178 17.9902 16.049 17.7913 16.1654C17.224 16.4934 16.5758 16.6667 15.9166 16.6667C13.8487 16.6667 12.1666 14.9845 12.1666 12.9167C12.1666 10.8488 13.8488 9.16668 15.9166 9.16668C17.9845 9.16668 19.6666 10.8488 19.6666 12.9167V13.3334C19.6666 13.7927 19.2927 14.1667 18.8333 14.1667C18.3739 14.1667 18 13.7927 18 13.3334V11.6667C18 11.4364 17.8136 11.25 17.5833 11.25C17.4713 11.25 17.3705 11.2954 17.2957 11.3672C16.9275 11.039 16.4475 10.8333 15.9166 10.8333C14.768 10.8333 13.8333 11.768 13.8333 12.9166C13.8333 14.0653 14.768 15 15.9167 15C16.5376 15 17.0897 14.7214 17.4718 14.289C17.7736 14.7178 18.2702 15 18.8334 15C19.7525 15 20.5 14.2525 20.5 13.3333V12.9166C20.5 10.53 18.6658 8.56594 16.3333 8.35445ZM2.16668 3.33332H14.6667C14.684 3.33332 14.6986 3.34219 14.7157 3.34324L8.7593 8.23242C8.54731 8.3659 8.24008 8.3382 8.10215 8.25359L2.1182 3.34316C2.13512 3.34215 2.14949 3.33332 2.16668 3.33332ZM15.5 8.35445C13.1675 8.56594 11.3333 10.53 11.3333 12.9167C11.3333 13.0573 11.342 13.1959 11.3544 13.3334H2.16668C1.7073 13.3334 1.33336 12.9594 1.33336 12.5V4.16668C1.33336 4.04867 1.35941 3.93723 1.40387 3.83543L7.61023 8.925C7.85273 9.08328 8.13148 9.16672 8.41672 9.16672C8.69098 9.16672 8.9591 9.08941 9.19512 8.94293C9.21871 8.93031 9.24109 8.91527 9.26227 8.89777L15.4295 3.83535C15.4739 3.93723 15.5 4.04867 15.5 4.16672V8.35445H15.5ZM15.9167 14.1667C15.2274 14.1667 14.6667 13.606 14.6667 12.9167C14.6667 12.2274 15.2274 11.6667 15.9167 11.6667C16.606 11.6667 17.1667 12.2274 17.1667 12.9167C17.1667 13.606 16.606 14.1667 15.9167 14.1667Z" fill="#0E4271"/>
</g>
<defs>
<clipPath id="clip0_3080_13634">
<rect width="20" height="20" fill="white" transform="translate(0.5)"/>
</clipPath>
</defs>
</svg>
