<svg width="20" height="20" viewBox="0 0 20 20" fill="none" xmlns="http://www.w3.org/2000/svg">
<path d="M16.2912 9.33486V4.73783C16.2912 3.64526 15.3965 2.74284 14.3038 2.74284H14.0563V2.43122C14.0563 1.65168 13.4243 1.01973 12.6448 1.01973C11.8653 1.01973 11.2333 1.65168 11.2333 2.43122V2.74284H6.05784V2.43122C6.05784 1.64086 5.41711 1.00012 4.62675 1.00012C3.83639 1.00012 3.19565 1.64086 3.19565 2.43122V2.74284H2.98177C1.88916 2.74284 1 3.64526 1 4.73783V15.2936C1 16.3862 1.88916 17.289 2.98177 17.289H9.19994C10.2251 18.5153 11.7404 19.2249 13.3388 19.2273C16.3068 19.2273 18.7246 16.8091 18.7246 13.8409C18.7247 11.9597 17.7419 10.2976 16.2912 9.33486ZM12.0175 2.43122C12.0114 2.08972 12.2833 1.80797 12.6248 1.80193C12.6303 1.80185 12.6358 1.80181 12.6413 1.80185C12.986 1.7982 13.2685 2.0747 13.2721 2.41946C13.2722 2.42338 13.2722 2.4273 13.2721 2.43122V3.95829H12.0175V2.43122ZM3.97982 2.43122C3.98354 2.07987 4.27141 1.79809 4.62275 1.80181C4.62338 1.80181 4.62397 1.80181 4.62455 1.80185C4.97719 1.80185 5.27368 2.07862 5.27368 2.43122V3.95829H3.97982V2.43122ZM1.78416 4.73783C1.78416 4.07761 2.32155 3.52701 2.98177 3.52701H3.19565V4.36669C3.19565 4.58319 3.37648 4.74246 3.59303 4.74246H5.65616C5.87266 4.74246 6.05784 4.58319 6.05784 4.36669V3.52701H11.2333V4.36669C11.2275 4.56841 11.3863 4.73665 11.5881 4.74246C11.5953 4.74265 11.6025 4.74265 11.6097 4.74246H13.6728C13.8777 4.74928 14.0493 4.58872 14.0561 4.38386C14.0563 4.37814 14.0564 4.37241 14.0563 4.36669V3.52701H14.3038C14.9685 3.53371 15.5045 4.07314 15.507 4.73783V5.99712H1.78416V4.73783ZM2.98177 16.5049C2.32155 16.5049 1.78416 15.9538 1.78416 15.2936V6.78128H15.507V8.90847C14.8245 8.60881 14.0872 8.45425 13.3418 8.45452C10.3737 8.45452 7.95744 10.8763 7.95744 13.8444C7.95595 14.7769 8.19696 15.6937 8.65687 16.5049H2.98177ZM13.3388 18.4362C10.799 18.4362 8.74003 16.3772 8.74003 13.8374C8.74003 11.2976 10.799 9.23865 13.3388 9.23865C15.8786 9.23865 17.9375 11.2976 17.9375 13.8374V13.8374C17.9347 16.376 15.8774 18.4333 13.3388 18.4362Z" fill="white"/>
<path d="M15.1855 13.8387H13.4678V11.4795C13.4678 11.263 13.2922 11.0875 13.0757 11.0875C12.8591 11.0875 12.6836 11.263 12.6836 11.4795V14.2304C12.687 14.4484 12.865 14.6232 13.083 14.6229H15.1855C15.402 14.6229 15.5775 14.4473 15.5775 14.2308C15.5775 14.0142 15.402 13.8387 15.1855 13.8387Z" fill="white"/>
</svg>
