<svg width="128" height="128" viewBox="0 0 128 128" fill="none" xmlns="http://www.w3.org/2000/svg">
<path d="M99.1627 122.009H27.8565C27.258 122.009 26.7375 121.592 26.5813 120.994C25.9047 118.157 25.5664 115.216 25.5664 112.276C25.5664 103.896 28.2469 95.9585 33.2956 89.3223C38.1881 82.8944 45.1366 78.1059 52.8657 75.8678C53.5424 75.6596 54.271 76.076 54.4792 76.7527C54.6874 77.4293 54.271 78.158 53.5944 78.3662C38.6305 82.7382 28.1688 96.6611 28.1688 112.276C28.1688 114.67 28.403 117.064 28.8975 119.406H98.0957C98.5641 117.064 98.8244 114.696 98.8244 112.276C98.8244 96.6611 88.3627 82.7122 73.3988 78.3662C72.7222 78.158 72.3058 77.4553 72.514 76.7527C72.7222 76.076 73.4248 75.6596 74.1275 75.8678C81.8566 78.1059 88.8051 82.8944 93.6976 89.3223C98.7723 95.9585 101.427 103.896 101.427 112.276C101.427 115.216 101.088 118.157 100.412 120.994C100.308 121.592 99.7873 122.009 99.1627 122.009Z" fill="#C7E3F8"/>
<path d="M63.5357 79.9536C43.419 79.9536 27.0498 63.5845 27.0498 43.4678C27.0498 23.3511 43.419 6.98193 63.5357 6.98193C83.6523 6.98193 100.022 23.3511 100.022 43.4678C100.022 63.5845 83.6523 79.9536 63.5357 79.9536ZM63.5357 9.58435C44.8503 9.58435 29.6522 24.7824 29.6522 43.4678C29.6522 62.1531 44.8503 77.3512 63.5357 77.3512C82.221 77.3512 97.4191 62.1531 97.4191 43.4678C97.4191 24.7824 82.195 9.58435 63.5357 9.58435Z" fill="#C7E3F8"/>
<path d="M57.367 22.8571C56.6383 22.8571 55.9097 22.7009 55.2851 22.4146C53.6976 21.66 52.7607 20.0985 52.7607 18.0946C52.7607 15.3881 54.9728 13.1761 57.6793 13.1761C59.0065 13.1761 60.2817 13.7226 61.2186 14.6855C61.713 15.206 61.713 16.0387 61.1926 16.5332C60.6721 17.0277 59.8653 17.0277 59.3449 16.5072C58.9024 16.0648 58.3039 15.8045 57.6793 15.8045C56.4041 15.8045 55.3632 16.8455 55.3632 18.1207C55.3632 19.1096 55.7015 19.7862 56.3781 20.0985C57.4191 20.5669 59.0065 20.1766 60.2817 19.1096C61.4788 18.1207 64.0292 15.1019 62.2856 8.69993C62.1034 7.99727 62.4938 7.29462 63.1964 7.11245C63.8991 6.93028 64.6017 7.32065 64.7839 8.0233C66.2673 13.4623 65.2003 18.3549 61.9473 21.1134C60.542 22.2325 58.9024 22.8571 57.367 22.8571Z" fill="#C7E3F8"/>
<path d="M28.091 48.178C22.8861 48.178 18.6182 43.9361 18.6182 38.7052C18.6182 33.4744 22.8601 29.2324 28.091 29.2324C29.1059 29.2324 30.0948 29.3886 31.0317 29.7009C31.7083 29.9351 32.0987 30.6638 31.8645 31.3404C31.6302 32.017 30.9016 32.4074 30.2249 32.1732C29.5223 31.9389 28.8196 31.8348 28.091 31.8348C24.3175 31.8348 21.2206 34.9057 21.2206 38.7052C21.2206 42.4787 24.2914 45.5756 28.091 45.5756H28.4293C29.1579 45.5496 29.7565 46.0961 29.7825 46.8247C29.8085 47.5534 29.262 48.152 28.5334 48.178C28.4032 48.178 28.2471 48.178 28.091 48.178Z" fill="#C7E3F8"/>
<path d="M98.9556 48.1781C98.7995 48.1781 98.6433 48.1781 98.4872 48.1521C97.7585 48.1261 97.212 47.5015 97.238 46.7989C97.2641 46.0702 97.8886 45.5237 98.5913 45.5497H98.9296C102.703 45.5497 105.8 42.4789 105.8 38.6793C105.8 34.9058 102.729 31.809 98.9296 31.809C98.2009 31.809 97.4723 31.9131 96.7956 32.1473C96.119 32.3815 95.3643 31.9911 95.1561 31.3145C94.9479 30.6379 95.3123 29.9092 95.9889 29.675C96.9258 29.3627 97.9407 29.2065 98.9296 29.2065C104.134 29.2065 108.402 33.4485 108.402 38.6793C108.402 43.9102 104.186 48.1781 98.9556 48.1781Z" fill="#C7E3F8"/>
<path d="M48.8325 44.4566C44.981 44.4566 41.832 41.3076 41.832 37.4561C41.832 33.6045 44.981 30.4556 48.8325 30.4556C52.6841 30.4556 55.833 33.6045 55.833 37.4561C55.833 41.3076 52.6841 44.4566 48.8325 44.4566ZM48.8325 33.058C46.4123 33.058 44.4344 35.0358 44.4344 37.4561C44.4344 39.8763 46.4123 41.8541 48.8325 41.8541C51.2528 41.8541 53.2306 39.8763 53.2306 37.4561C53.2306 35.0358 51.2528 33.058 48.8325 33.058Z" fill="#C7E3F8"/>
<path d="M78.2378 44.4566C74.3862 44.4566 71.2373 41.3076 71.2373 37.4561C71.2373 33.6045 74.3862 30.4556 78.2378 30.4556C82.0894 30.4556 85.2383 33.6045 85.2383 37.4561C85.2383 41.3076 82.0894 44.4566 78.2378 44.4566ZM78.2378 33.058C75.8176 33.058 73.8397 35.0358 73.8397 37.4561C73.8397 39.8763 75.8176 41.8541 78.2378 41.8541C80.658 41.8541 82.6359 39.8763 82.6359 37.4561C82.6359 35.0358 80.658 33.058 78.2378 33.058Z" fill="#C7E3F8"/>
<path d="M47.9995 65.6667C47.7653 65.6667 47.5571 65.6146 47.3489 65.4845C46.7243 65.1202 46.5161 64.3395 46.8804 63.7149C50.2896 57.7814 56.6655 54.0859 63.5099 54.0859C70.3542 54.0859 76.7301 57.7814 80.1393 63.7149C80.5037 64.3395 80.2694 65.1202 79.6709 65.4845C79.0463 65.8489 78.2395 65.6407 77.9012 65.0161C74.9605 59.8893 69.4434 56.6884 63.5099 56.6884C57.5764 56.6884 52.0853 59.8893 49.1185 65.0161C48.9103 65.4325 48.4679 65.6667 47.9995 65.6667Z" fill="#C7E3F8"/>
<path d="M42.2748 122.008C41.5462 122.008 40.9736 121.436 40.9736 120.707V103.401C40.9736 102.672 41.5462 102.1 42.2748 102.1C43.0035 102.1 43.576 102.672 43.576 103.401V120.707C43.576 121.436 43.0035 122.008 42.2748 122.008Z" fill="#C7E3F8"/>
<path d="M84.7729 122.008C84.0442 122.008 83.4717 121.436 83.4717 120.707V103.401C83.4717 102.672 84.0442 102.1 84.7729 102.1C85.5016 102.1 86.0741 102.672 86.0741 103.401V120.707C86.0741 121.436 85.4755 122.008 84.7729 122.008Z" fill="#C7E3F8"/>
</svg>
