<svg width="128" height="128" viewBox="0 0 128 128" fill="none" xmlns="http://www.w3.org/2000/svg">
<mask id="mask0_4007_5779" style="mask-type:luminance" maskUnits="userSpaceOnUse" x="0" y="0" width="128" height="128">
<path d="M0 7.62939e-06H128V128H0V7.62939e-06Z" fill="white"/>
</mask>
<g mask="url(#mask0_4007_5779)">
<path d="M65.963 41.5V45.4847C65.963 47.1629 64.6024 48.5234 62.924 48.5234H62.4512" stroke="#C7E3F8" stroke-width="2.79807" stroke-miterlimit="10" stroke-linecap="round" stroke-linejoin="round"/>
<path d="M41.6777 101.111V122.181" stroke="#C7E3F8" stroke-width="2.79807" stroke-miterlimit="10" stroke-linecap="round" stroke-linejoin="round"/>
<path d="M86.7422 101.111V122.181" stroke="#C7E3F8" stroke-width="2.79807" stroke-miterlimit="10" stroke-linecap="round" stroke-linejoin="round"/>
<path d="M71.9766 21.4603C71.6385 20.9527 70.8702 21.0103 70.6156 21.5743C68.7978 25.604 65.3841 28.6999 61.5459 30.8929L49.0339 38.0426C46.6168 39.4237 45.197 42.0606 45.3742 44.8387L45.6109 48.5447C46.2367 58.3566 54.3775 65.9946 64.2094 65.9946C74.0414 65.9946 82.1821 58.3568 82.808 48.5449L83.2822 41.113C83.3841 39.5179 82.9591 37.9335 82.0723 36.6037L71.9766 21.4603Z" stroke="#C7E3F8" stroke-width="2.79807" stroke-miterlimit="10" stroke-linecap="round" stroke-linejoin="round"/>
<path d="M47.3066 80.0378L51.9514 89.6895" stroke="#C7E3F8" stroke-width="2.79807" stroke-miterlimit="10" stroke-linecap="round" stroke-linejoin="round"/>
<path d="M81.1053 80.0375L76.4609 89.688" stroke="#C7E3F8" stroke-width="2.79807" stroke-miterlimit="10" stroke-linecap="round" stroke-linejoin="round"/>
<path d="M46.916 31.3423L58.1377 24.9296C60.2453 23.7252 63.0345 21.6754 64.3545 18.7498C65.0608 17.1836 66.2598 15.9345 67.719 15.1524" stroke="#C7E3F8" stroke-width="2.79807" stroke-miterlimit="10" stroke-linecap="round" stroke-linejoin="round"/>
<path d="M60.9922 55.9126C62.7699 54.1347 65.6521 54.1347 67.4301 55.9126" stroke="#C7E3F8" stroke-width="2.79807" stroke-miterlimit="10" stroke-linecap="round" stroke-linejoin="round"/>
<path d="M58.252 97.2991V97.3623C58.252 97.8851 58.152 98.403 57.9571 98.8882L54.5243 107.44C54.1188 108.449 53.5739 109.398 52.9049 110.256L43.6172 122.177" stroke="#C7E3F8" stroke-width="2.79807" stroke-miterlimit="10" stroke-linecap="round" stroke-linejoin="round"/>
<path d="M56.0312 122.177L60.0304 118.178C62.7063 115.502 64.2093 111.873 64.2093 108.089V82.6457C64.2093 79.5895 61.7318 77.112 58.6759 77.112H58.4187C58.3271 77.112 58.2525 77.1864 58.2525 77.2783V89.1381" stroke="#C7E3F8" stroke-width="2.79807" stroke-miterlimit="10" stroke-linecap="round" stroke-linejoin="round"/>
<path d="M53.9141 115.313V111.99C53.9141 109.99 54.2972 108.008 55.0422 106.152L57.9582 98.8886" stroke="#C7E3F8" stroke-width="2.79807" stroke-miterlimit="10" stroke-linecap="round" stroke-linejoin="round"/>
<path d="M84.8007 122.177L75.5129 110.256C74.8444 109.397 74.2993 108.449 73.894 107.44L70.4608 98.8882C70.2661 98.403 70.1658 97.8849 70.1658 97.3621V77.2783C70.1658 77.1864 70.0915 77.112 69.9996 77.112H69.7429C66.6864 77.112 64.209 79.5895 64.209 82.6457" stroke="#C7E3F8" stroke-width="2.79807" stroke-miterlimit="10" stroke-linecap="round" stroke-linejoin="round"/>
<path d="M64.209 108.089C64.209 111.873 65.7122 115.502 68.3881 118.178L72.3873 122.177" stroke="#C7E3F8" stroke-width="2.79807" stroke-miterlimit="10" stroke-linecap="round" stroke-linejoin="round"/>
<path d="M74.5051 115.313V111.99C74.5051 109.99 74.1222 108.008 73.377 106.152L70.4609 98.8886" stroke="#C7E3F8" stroke-width="2.79807" stroke-miterlimit="10" stroke-linecap="round" stroke-linejoin="round"/>
<path d="M94.9154 82.7279C92.3419 79.488 88.7776 77.0271 84.5882 75.8302L78.6472 74.1327C77.9015 73.9198 77.2304 73.5552 76.6638 73.0788L70.166 87.6982" stroke="#C7E3F8" stroke-width="2.79807" stroke-miterlimit="10" stroke-linecap="round" stroke-linejoin="round"/>
<path d="M58.2533 87.7113L51.751 73.0811C51.1849 73.5568 50.5145 73.9203 49.7695 74.1332L43.8295 75.8305C35.106 78.3228 29.0918 86.2962 29.0918 95.3684V121.925C29.0918 122.067 29.207 122.182 29.3485 122.182H99.0692C99.2109 122.182 99.3259 122.067 99.3259 121.925V95.3677C99.3259 93.5576 99.0864 91.7916 98.6341 90.1039" stroke="#C7E3F8" stroke-width="2.79807" stroke-miterlimit="10" stroke-linecap="round" stroke-linejoin="round"/>
<path d="M39.6289 43.4265V77.5576" stroke="#C7E3F8" stroke-width="2.79807" stroke-miterlimit="10" stroke-linecap="round" stroke-linejoin="round"/>
<path d="M88.7907 77.5562V30.8762C88.7907 17.3004 77.7857 6.29518 64.2099 6.29518C50.6342 6.29518 39.6289 17.3004 39.6289 30.8762V35.2657" stroke="#C7E3F8" stroke-width="2.79807" stroke-miterlimit="10" stroke-linecap="round" stroke-linejoin="round"/>
<path d="M53.6766 62.7319V68.9572C53.6766 70.5861 52.9447 72.081 51.7539 73.0811" stroke="#C7E3F8" stroke-width="2.79807" stroke-miterlimit="10" stroke-linecap="round" stroke-linejoin="round"/>
<path d="M76.6665 73.0791C75.4766 72.079 74.7461 70.5851 74.7461 68.9571V62.7318" stroke="#C7E3F8" stroke-width="2.79807" stroke-miterlimit="10" stroke-linecap="round" stroke-linejoin="round"/>
<path d="M74.7765 77.3245C73.3878 78.5702 71.8236 79.5255 70.166 80.1914" stroke="#C7E3F8" stroke-width="2.79807" stroke-miterlimit="10" stroke-linecap="round" stroke-linejoin="round"/>
<path d="M58.2511 80.1934C56.5914 79.5277 55.0252 78.5712 53.6348 77.3242" stroke="#C7E3F8" stroke-width="2.79807" stroke-miterlimit="10" stroke-linecap="round" stroke-linejoin="round"/>
</g>
</svg>
