<svg width="128" height="128" viewBox="0 0 128 128" fill="none" xmlns="http://www.w3.org/2000/svg">
<path d="M24.9551 28.2831C24.9551 37.4619 32.4227 44.9294 41.6014 44.9294C50.7802 44.9294 58.2478 37.4619 58.2478 28.2831C58.2478 19.1043 50.7802 11.6367 41.6014 11.6367C32.4227 11.6367 24.9551 19.1043 24.9551 28.2831ZM54.9185 28.2831C54.9185 35.6258 48.9442 41.6002 41.6014 41.6002C34.2587 41.6002 28.2843 35.6258 28.2843 28.2831C28.2843 20.9404 34.2587 14.966 41.6014 14.966C48.9442 14.966 54.9185 20.9404 54.9185 28.2831Z" fill="#C7E3F8"/>
<path d="M83.2188 57.4144C83.2188 66.5932 90.6863 74.0608 99.8651 74.0608C109.044 74.0608 116.512 66.5932 116.512 57.4144C116.512 48.2356 109.044 40.7681 99.8651 40.7681C90.6864 40.7681 83.2188 48.2356 83.2188 57.4144ZM113.182 57.4144C113.182 64.7571 107.208 70.7315 99.8651 70.7315C92.5224 70.7315 86.548 64.7571 86.548 57.4144C86.548 50.0717 92.5224 44.0973 99.8651 44.0973C107.208 44.0973 113.182 50.0717 113.182 57.4144Z" fill="#C7E3F8"/>
<path d="M94.108 112.276C95.6945 113.862 97.7786 114.655 99.8627 114.655C101.947 114.655 104.031 113.862 105.617 112.276C108.79 109.103 108.79 103.939 105.617 100.766L97.6512 92.8004C96.3936 91.5427 95.7011 89.8706 95.7011 88.0919V82.3839C95.7011 81.465 94.9554 80.7193 94.0365 80.7193C93.1176 80.7193 92.3718 81.465 92.3718 82.3839V88.0919C92.3718 90.7595 93.4105 93.2673 95.2974 95.1542L103.264 103.12C105.139 104.996 105.139 108.047 103.264 109.922C101.388 111.797 98.337 111.797 96.4618 109.922L84.3341 97.7943C83.0765 96.5366 82.384 94.8645 82.384 93.0858V82.3839C82.384 81.465 81.6382 80.7192 80.7193 80.7192C79.8005 80.7192 79.0547 81.465 79.0547 82.3839V93.0858C79.0547 95.7534 80.0934 98.2612 81.9803 100.148L94.108 112.276Z" fill="#C7E3F8"/>
<path d="M70.7328 114.844V94.1519C70.7328 86.2382 73.0533 78.5751 77.4429 71.9914L82.1064 64.9966C82.6166 64.2317 82.4094 63.198 81.6444 62.6886C80.8795 62.1792 79.8458 62.3856 79.3364 63.1505L74.6729 70.1453C69.9179 77.2783 67.4043 85.5799 67.4043 94.1527V114.844C67.4043 115.763 68.1501 116.509 69.0689 116.509C69.9879 116.509 70.7328 115.763 70.7328 114.844Z" fill="#C7E3F8"/>
<path d="M103.195 91.5391V79.0543C103.195 78.1354 102.449 77.3896 101.53 77.3896C100.611 77.3896 99.8652 78.1354 99.8652 79.0543V91.5391C99.8652 92.458 100.611 93.2037 101.53 93.2037C102.449 93.2037 103.195 92.458 103.195 91.5391Z" fill="#C7E3F8"/>
<path d="M16.8143 88.0353L14.1476 109.647C14.0352 110.56 14.6836 111.39 15.5958 111.503C15.6649 111.511 15.734 111.515 15.8023 111.515C16.6312 111.515 17.3479 110.897 17.4519 110.054L19.601 92.6389L24.7696 101.179C26.4476 103.951 29.4098 105.488 32.4411 105.488C34.0059 105.488 35.5898 105.079 37.0239 104.218C39.078 102.985 40.5263 101.026 41.1031 98.7007C41.6799 96.3752 41.3137 93.9665 40.0735 91.9173L32.2114 78.9265L38.3947 74.5926C39.1479 74.0649 39.3302 73.027 38.8025 72.2737C38.2748 71.5205 37.2369 71.3382 36.4837 71.8659L29.0261 77.0929C28.3087 77.5956 28.1039 78.5677 28.5575 79.3177L37.2253 93.6402C38.0043 94.927 38.2332 96.4393 37.8711 97.8992C37.5091 99.3591 36.5993 100.589 35.3101 101.363C32.665 102.951 29.2142 102.094 27.617 99.4556L15.863 80.0352C14.23 77.3368 14.88 73.8477 17.3761 71.9192L30.1339 62.0612C30.8613 61.4994 30.9954 60.454 30.4335 59.7266C29.8717 58.9991 28.8255 58.8651 28.0989 59.4269L23.2456 63.1765C24.2502 56.0785 30.3428 50.7559 37.5366 50.7559C41.6724 50.7559 45.6159 52.5329 48.355 55.6307C51.095 58.7286 52.376 62.8603 51.8699 66.9644L46.608 109.647C46.4957 110.559 47.1441 111.389 48.0563 111.502C48.1254 111.51 48.1945 111.514 48.2619 111.514C49.0909 111.514 49.8083 110.897 49.9115 110.054L54.4352 73.3599L70.3408 66.0214C72.4716 65.0384 74.1944 63.328 75.1941 61.2056L79.7776 51.4658C80.1247 50.7275 80.7173 50.1208 81.4465 49.7562C82.8714 49.0437 84.0192 47.8527 84.6784 46.4028L85.1528 45.3582C87.1462 40.9719 85.3784 35.7616 81.1269 33.4944C76.8213 31.198 71.4811 32.677 68.9709 36.8611L68.3974 37.8166C67.7473 38.9011 67.4036 40.1421 67.4036 41.4064V42.55C67.4036 43.2449 67.2063 43.9216 66.8334 44.5084L63.3011 50.0591C62.5354 51.2627 61.4275 52.1724 60.0983 52.6901L52.5167 55.6398C52.0223 54.8641 51.4672 54.1233 50.8496 53.425C47.4779 49.613 42.6255 47.4265 37.5367 47.4265C28.5751 47.4265 20.9927 54.1333 19.8982 63.0266L19.5261 66.0504L15.3412 69.284C11.5051 72.2487 10.5054 77.6113 13.0157 81.758L16.8143 88.0353ZM61.3051 55.793C63.2994 55.0165 64.9615 53.6523 66.1101 51.847L69.6425 46.2962C70.3558 45.1751 70.7336 43.88 70.7336 42.5508V41.4072C70.7336 40.7463 70.9134 40.0971 71.2538 39.5303L71.8273 38.5748C73.4254 35.9114 76.8229 34.9709 79.5629 36.4324C82.268 37.8748 83.3932 41.1908 82.1239 43.9816L81.6495 45.0261C81.3049 45.7843 80.7049 46.4069 79.9599 46.779C78.565 47.4764 77.4313 48.6375 76.7671 50.0491L72.1844 59.7889C71.5185 61.2039 70.3691 62.3442 68.9492 62.9992L54.9179 69.4729L55.1768 67.3722C55.5463 64.3741 55.136 61.3678 54.0407 58.6195L61.3051 55.793Z" fill="#C7E3F8"/>
<path d="M88.8354 26.1506C88.118 26.7241 88.0014 27.7719 88.5757 28.4902L95.2343 36.8134C95.5631 37.2246 96.0466 37.4377 96.5344 37.4377C96.8989 37.4377 97.2668 37.3178 97.5739 37.0731C98.2914 36.4996 98.4079 35.4517 97.8336 34.7334L91.175 26.4102C90.6008 25.6928 89.5537 25.5771 88.8354 26.1506Z" fill="#C7E3F8"/>
<path d="M102.154 37.0741C102.461 37.3188 102.828 37.4387 103.193 37.4387C103.681 37.4387 104.166 37.2247 104.493 36.8144L111.152 28.4912C111.726 27.7729 111.61 26.725 110.892 26.1516C110.174 25.5781 109.127 25.6938 108.553 26.4113L101.894 34.7345C101.32 35.4519 101.436 36.4998 102.154 37.0741Z" fill="#C7E3F8"/>
</svg>
