<svg width="80" height="80" viewBox="0 0 80 80" fill="none" xmlns="http://www.w3.org/2000/svg">
<path d="M68.6159 67.8077L64.2347 56.1646C63.6244 54.5427 62.6339 53.0588 61.3704 51.8725C61.0565 51.5789 60.5632 51.5925 60.2688 51.9056C59.9744 52.2187 59.988 52.7107 60.3019 53.0044C61.3938 54.0293 62.2479 55.3108 62.7743 56.711L67.1555 68.3561C67.3466 68.8637 67.4441 69.3946 67.4441 69.9372C67.4441 72.4148 65.4221 74.4295 62.9381 74.4295H17.0691C16.5251 74.4295 15.9928 74.3323 15.4839 74.1417C13.1578 73.2704 11.9762 70.6742 12.8497 68.3542L17.2329 56.7091C18.354 53.7298 20.8634 51.4661 23.948 50.6532L30.55 48.9146C31.3631 50.3479 33.9115 53.685 40.0026 53.685C46.0938 53.685 48.6422 50.3459 49.4552 48.9146L55.1467 50.414C55.213 50.4315 55.2812 50.4393 55.3456 50.4393C55.6907 50.4393 56.0065 50.2079 56.0982 49.8597C56.2074 49.4436 55.9598 49.0196 55.5425 48.9088L45.2983 46.2095V42.4348C48.6402 40.6864 50.6544 38.0338 51.8593 35.6165C52.3097 35.8032 52.7738 35.8985 53.2378 35.8985C54.123 35.8985 55.0141 35.5601 55.8408 34.8853C58.0207 33.1078 59.1496 29.5587 58.2118 27.4389C57.6463 26.1612 56.7923 25.7003 56.1762 25.5389C55.9539 25.4806 55.7316 25.4534 55.5132 25.4456C57.0555 23.3453 58.8377 19.6561 57.0789 15.1677C55.6946 11.6341 53.5401 9.03592 50.4906 7.22149C47.4294 5.39927 43.4382 4.36078 38.2887 4.04185C32.7825 3.70152 30.0119 5.50234 28.6587 7.07174C27.5083 8.40388 27.1574 9.79437 27.0521 10.4206C23.521 13.643 21.8383 16.916 22.0469 20.152C22.1932 22.4215 23.2461 24.2204 24.2697 25.4592C24.1118 25.4728 23.9538 25.4961 23.7959 25.5389C23.1798 25.7003 22.3258 26.1612 21.7603 27.4389C20.8225 29.5587 21.9514 33.1078 24.1313 34.8853C24.958 35.5601 25.849 35.8985 26.7343 35.8985C27.2061 35.8985 27.678 35.8013 28.1342 35.6087C29.3411 38.0299 31.3572 40.6903 34.7128 42.4406V46.2056L23.5483 49.148C19.9743 50.0892 17.0672 52.7107 15.7705 56.1607L11.3874 67.8057C10.2117 70.929 11.8027 74.4237 14.9341 75.5963C15.6185 75.853 16.336 75.9833 17.0672 75.9833H62.9342C66.2781 75.9833 68.9981 73.2704 69 69.9352C69 69.206 68.8694 68.4903 68.612 67.8077H68.6159ZM55.7862 27.0461C56.2054 27.1569 56.533 27.4934 56.7884 28.069C57.4397 29.5373 56.4648 32.3708 54.8581 33.6835C54.0626 34.3311 53.2729 34.5022 52.5008 34.1969C53.6941 31.1981 53.9261 28.4696 53.969 27.4506C54.4331 27.19 55.1818 26.8847 55.7862 27.0461ZM23.6068 20.0412C23.4313 17.2446 25.0145 14.3334 28.3116 11.389C28.4618 11.2549 28.5554 11.0623 28.569 10.862C28.5866 10.6248 29.1091 5.03755 38.1952 5.59763C47.7355 6.18689 53.1131 9.31402 55.6283 15.7375C57.2427 19.8584 55.4021 23.1547 54.0295 24.868L54.0919 22.2679C54.0977 22.0617 54.0197 21.8614 53.8754 21.7117C53.7331 21.5619 53.5362 21.4764 53.3275 21.4705C36.9375 21.1205 32.804 14.6523 32.7669 14.592C32.5914 14.2964 32.2444 14.1506 31.911 14.2322C31.5775 14.3139 31.3358 14.6017 31.3163 14.944C31.1076 18.6604 28.0406 20.8755 26.4496 21.5289C26.1532 21.6495 25.9621 21.9392 25.966 22.2582L26.0011 25.0527C25.0126 24.022 23.7452 22.2834 23.6048 20.0412H23.6068ZM25.1237 33.6835C23.5171 32.3727 22.5422 29.5392 23.1934 28.069C23.4488 27.4914 23.7764 27.1569 24.1956 27.0461C24.8137 26.8808 25.578 27.2036 26.0421 27.4662C26.0889 28.4988 26.3248 31.2098 27.5064 34.1891C26.7265 34.508 25.927 34.3388 25.1257 33.6835H25.1237ZM29.2066 34.2163V34.2124C29.1929 34.1852 29.1793 34.156 29.1676 34.1288C27.5961 30.5077 27.5883 27.0733 27.5883 27.0247L27.5356 22.7463C29.3021 21.8731 31.7628 19.8973 32.5992 16.774C34.7538 18.8627 40.2834 22.5965 52.5145 23.0049L52.4228 26.8283C52.3877 26.9547 52.3819 27.0889 52.415 27.2192C52.3916 27.964 52.2142 30.92 50.8708 34.0549C50.8649 34.0627 50.8571 34.0685 50.8513 34.0763C50.783 34.1716 50.7421 34.2785 50.7226 34.3855C48.6519 38.9595 45.0467 41.7074 40.0026 42.5573C38.4896 42.3025 37.1072 41.8766 35.8554 41.2815C35.8301 41.2679 35.8047 41.2543 35.7774 41.2446C32.843 39.8288 30.6397 37.4776 29.2046 34.2144L29.2066 34.2163ZM35.6975 47.5611C35.717 47.5552 35.7365 47.5455 35.756 47.5397C35.7774 47.5319 35.7989 47.5261 35.8203 47.5163C35.8476 47.5047 35.8749 47.4891 35.9002 47.4736C35.9178 47.4638 35.9334 47.4541 35.9509 47.4424C35.9763 47.4249 35.9997 47.4035 36.0231 47.3822C36.0367 47.3705 36.0504 47.3569 36.064 47.3452C36.0855 47.3219 36.105 47.2985 36.1225 47.2733C36.1342 47.2577 36.1459 47.2421 36.1557 47.2266C36.1713 47.2013 36.1849 47.1741 36.1986 47.1468C36.2064 47.1293 36.2161 47.1118 36.2239 47.0924C36.2356 47.0632 36.2434 47.034 36.2512 47.0029C36.2551 46.9835 36.261 46.966 36.2649 46.9465C36.2707 46.9135 36.2727 46.8804 36.2746 46.8474C36.2746 46.8337 36.2785 46.8221 36.2785 46.8085V43.1504C37.3528 43.5685 38.5403 43.8972 39.8583 44.1111C39.9051 44.1208 39.9539 44.1247 40.0046 44.1247H40.0065C40.0553 44.1247 40.104 44.1208 40.1528 44.1111C41.4747 43.8972 42.668 43.5646 43.7443 43.1446V46.6937C43.6858 47.0807 43.9237 47.458 44.3136 47.5591L47.8876 48.5004C47.0492 49.7722 44.842 52.1293 40.0065 52.1293C35.171 52.1293 32.9639 49.7703 32.1254 48.5004L35.6994 47.5591L35.6975 47.5611Z" fill="#0E4271"/>
<path d="M43.5955 36.8767C43.7418 36.9992 43.9192 37.0595 44.0966 37.0595C44.3189 37.0595 44.5392 36.9662 44.6933 36.7834C44.9702 36.4547 44.9292 35.9646 44.5997 35.6865C41.0394 32.6955 36.9038 34.3661 35.2153 35.6651C34.8741 35.9277 34.8117 36.4139 35.0749 36.7542C35.3362 37.0945 35.8256 37.1587 36.1668 36.8981C36.3267 36.7756 40.1152 33.9538 43.5955 36.8767Z" fill="#0E4271"/>
<path d="M55.6871 58.0472C55.2737 58.1717 55.0417 58.6053 55.1665 59.0176L57.4263 66.4796H53.8231V62.0942C53.8231 62.0456 53.8231 61.997 53.8231 61.9483C53.7432 58.2203 50.6332 55.2468 46.9033 55.3324C43.2415 55.4043 40.2623 58.4906 40.2623 62.2128V66.4796H39.7514V62.2128C39.7514 58.4906 36.7721 55.4043 33.1124 55.3324C33.0636 55.3324 33.0149 55.3324 32.9661 55.3324C31.1548 55.3324 29.4526 56.0364 28.1735 57.3141C26.8925 58.5917 26.1886 60.2895 26.1886 62.0942V66.4796H22.5854L24.8452 59.0176C24.97 58.6053 24.736 58.1717 24.3246 58.0472C23.9132 57.9227 23.4765 58.1561 23.3517 58.5665L20.7896 67.0319C20.7175 67.2672 20.7623 67.5239 20.9105 67.7203C21.0568 67.9187 21.2907 68.0354 21.5364 68.0354H26.9627C26.9627 68.0354 26.9685 68.0354 26.9705 68.0354C26.9724 68.0354 26.9763 68.0354 26.9783 68.0354H38.9676C38.9676 68.0354 38.9734 68.0354 38.9754 68.0354C38.9773 68.0354 38.9812 68.0354 38.9832 68.0354H41.0383C41.0383 68.0354 41.0441 68.0354 41.0461 68.0354C41.048 68.0354 41.0519 68.0354 41.0539 68.0354H53.0432C53.0432 68.0354 53.049 68.0354 53.051 68.0354C53.0529 68.0354 53.0568 68.0354 53.0588 68.0354H58.4851C58.7327 68.0354 58.9647 67.9187 59.1109 67.7203C59.2572 67.5219 59.302 67.2672 59.2318 67.0319L56.6698 58.5665C56.545 58.1542 56.1102 57.9227 55.6968 58.0472H55.6871ZM38.1896 66.4796H27.7465V62.0942C27.7465 60.7037 28.2886 59.3969 29.2752 58.4128C30.2598 57.4288 31.572 56.8882 32.9642 56.8882C33.0012 56.8882 33.0383 56.8882 33.0773 56.8882C35.8967 56.9426 38.1896 59.3327 38.1896 62.2128V66.4796ZM52.2633 66.4796H41.8201V62.2128C41.8201 59.3307 44.1131 56.9426 46.9325 56.8882C46.9696 56.8882 47.0086 56.8882 47.0456 56.8882C49.8728 56.8882 52.2009 59.1499 52.2613 61.9833C52.2613 62.0203 52.2613 62.0573 52.2613 62.0942V66.4796H52.2633Z" fill="#0E4271"/>
<path d="M38.6321 29.7961C38.9812 29.5432 39.0572 29.0571 38.8037 28.709C38.5502 28.3608 38.0628 28.285 37.7138 28.5378C35.0738 30.4514 32.1861 28.602 32.0613 28.5184C31.7026 28.2811 31.221 28.3783 30.9811 28.7342C30.7413 29.0921 30.8388 29.5744 31.1976 29.8136C31.3009 29.8836 32.9582 30.9629 35.0874 30.9629C36.1929 30.9629 37.4252 30.6712 38.6321 29.7961Z" fill="#0E4271"/>
<path d="M41.3724 29.7961C42.5793 30.6712 43.8116 30.9629 44.9171 30.9629C47.0444 30.9629 48.7036 29.8836 48.807 29.8136C49.1657 29.5744 49.2613 29.0921 49.0215 28.7343C48.7816 28.3764 48.2981 28.2811 47.9393 28.5203C47.9101 28.5398 44.9503 30.467 42.2888 28.5378C41.9398 28.285 41.4523 28.3628 41.1989 28.709C40.9454 29.0571 41.0234 29.5433 41.3704 29.7961H41.3724Z" fill="#0E4271"/>
<path d="M57.9186 51.4176C58.3472 51.4176 58.6946 51.0711 58.6946 50.6436C58.6946 50.2162 58.3472 49.8696 57.9186 49.8696C57.49 49.8696 57.1426 50.2162 57.1426 50.6436C57.1426 51.0711 57.49 51.4176 57.9186 51.4176Z" fill="#0E4271"/>
</svg>
