<svg width="80" height="80" viewBox="0 0 80 80" fill="none" xmlns="http://www.w3.org/2000/svg">
<path d="M62.2586 55.4933C61.0616 52.2841 58.376 49.8469 55.0784 48.9737L44.7806 46.2418V42.7324C48.2654 40.8955 50.186 37.9864 51.2354 35.5348C52.6214 32.293 52.7726 29.2845 52.7888 28.5668C53.6618 27.7495 57.9638 23.3181 55.6562 17.3825C54.3782 14.0973 52.3892 11.6818 49.574 9.99499C46.748 8.30089 43.0634 7.33542 38.3096 7.03891C33.2264 6.72251 30.6686 8.39671 29.4194 9.85577C28.3574 11.0942 28.0334 12.387 27.9362 12.9691C24.6764 15.965 23.123 19.0079 23.3156 22.0164C23.5442 25.5709 26.147 27.8888 26.9894 28.5505C27.0038 29.2357 27.146 32.2659 28.5428 35.5348C29.5922 37.9901 31.5164 40.9027 35.0084 42.7379V46.2382L24.7016 48.9737C21.4022 49.8487 18.7184 52.2859 17.5214 55.4933L13.4768 66.3196C12.3914 69.2233 13.8602 72.4722 16.751 73.5625C17.3828 73.8011 18.0452 73.9222 18.7202 73.9222H22.7918C23.1896 73.9222 23.5118 73.5986 23.5118 73.1991C23.5118 72.7995 23.1896 72.4759 22.7918 72.4759H18.7202C18.218 72.4759 17.7266 72.3855 17.2568 72.2083C16.2164 71.8159 15.3902 71.0403 14.9312 70.0242C14.4722 69.0081 14.4344 67.8727 14.825 66.8277L18.8714 56.0014C19.9064 53.2315 22.223 51.127 25.0706 50.3712L31.1654 48.7549C31.916 50.0874 34.2686 53.1899 39.8918 53.1899C45.515 53.1899 47.8676 50.0856 48.6182 48.7549L54.713 50.3712C57.5606 51.127 59.879 53.2315 60.9122 56.0014L64.9568 66.8277C65.1332 67.2995 65.2232 67.7931 65.2232 68.2976C65.2232 70.601 63.3566 72.474 61.0634 72.474H57.5444C57.1466 72.474 56.8244 72.7977 56.8244 73.1972C56.8244 73.5968 57.1466 73.9204 57.5444 73.9204H61.0634C64.1504 73.9204 66.6614 71.3983 66.6632 68.2976C66.6632 67.6196 66.5426 66.9542 66.305 66.3196L62.2604 55.4951L62.2586 55.4933ZM24.752 21.9097C24.59 19.3098 26.0516 16.6032 29.0954 13.8659C29.234 13.7412 29.3204 13.5622 29.333 13.3759C29.3492 13.1554 29.8316 7.96098 38.2196 8.48169C47.027 9.02951 51.9914 11.9368 54.3134 17.9086C55.8038 21.7398 54.1046 24.8043 52.8374 26.3972L52.895 23.9799C52.9004 23.7882 52.8284 23.602 52.6952 23.4628C52.5638 23.3236 52.382 23.244 52.1894 23.2386C37.0586 22.9131 33.2426 16.8997 33.2084 16.8437C33.0464 16.5689 32.726 16.4333 32.4182 16.5092C32.1104 16.5851 31.8872 16.8527 31.8692 17.1709C31.6766 20.626 28.8452 22.6853 27.3764 23.2928C27.1028 23.4049 26.9264 23.6743 26.93 23.9708L26.9624 26.5689C26.0498 25.6107 24.8798 23.9943 24.7502 21.9097H24.752ZM29.8856 35.0069C28.4348 31.6404 28.4276 28.4474 28.4276 28.4022L28.379 24.4246C30.0098 23.6128 32.2814 21.7759 33.0536 18.8723C35.0426 20.8141 40.1474 24.2854 51.4388 24.6651L51.3488 28.395C51.3488 28.395 51.3488 28.4095 51.3488 28.4167C51.3488 28.4474 51.3488 31.5988 49.9106 34.9635C48.0206 39.3876 44.6474 42.0382 39.8882 42.8445C38.4914 42.6077 37.2152 42.2117 36.0596 41.6585C36.0362 41.6458 36.0128 41.6332 35.9876 41.6241C33.2552 40.2953 31.2086 38.0823 29.8838 35.0069H29.8856ZM39.89 51.7435C35.426 51.7435 33.3884 49.5504 32.6144 48.3698L35.9138 47.4947C35.9318 47.4893 35.9498 47.4802 35.9678 47.4748C35.9876 47.4676 36.0074 47.4622 36.0272 47.4531C36.0524 47.4423 36.0776 47.4278 36.101 47.4134C36.1172 47.4043 36.1316 47.3953 36.1478 47.3844C36.1712 47.3682 36.1928 47.3483 36.2144 47.3284C36.227 47.3175 36.2396 47.3049 36.2522 47.294C36.272 47.2723 36.29 47.2506 36.3062 47.2271C36.317 47.2127 36.3278 47.1982 36.3368 47.1837C36.3512 47.1602 36.3638 47.1349 36.3764 47.1096C36.3836 47.0933 36.3926 47.0771 36.3998 47.059C36.4106 47.0319 36.4178 47.0047 36.425 46.9758C36.4286 46.9577 36.434 46.9415 36.4376 46.9234C36.443 46.8927 36.4448 46.8619 36.4466 46.8312C36.4466 46.8185 36.4502 46.8077 36.4502 46.795V43.3942C37.442 43.7829 38.5382 44.0884 39.755 44.2873C39.7982 44.2964 39.8432 44.3 39.89 44.3H39.8918C39.9368 44.3 39.9818 44.2964 40.0268 44.2873C41.2472 44.0884 42.3488 43.7793 43.3424 43.3887V46.6884C43.2884 47.0481 43.508 47.3989 43.868 47.4929L47.1674 48.368C46.3934 49.5504 44.3558 51.7417 39.8918 51.7417L39.89 51.7435Z" fill="#0E4271"/>
<path d="M36.3497 37.5831C36.4973 37.4692 39.9947 34.8458 43.2077 37.5632C43.3427 37.6771 43.5065 37.7332 43.6703 37.7332C43.8755 37.7332 44.0789 37.6464 44.2211 37.4764C44.4767 37.1709 44.4389 36.7152 44.1347 36.4567C40.8479 33.676 37.0301 35.2291 35.4713 36.4368C35.1563 36.6809 35.0987 37.1329 35.3417 37.4493C35.5829 37.7657 36.0347 37.8254 36.3497 37.5831Z" fill="#0E4271"/>
<path d="M52.7356 55.0522C52.4728 55.007 52.2047 54.9854 51.9383 54.9854H27.6239C27.3575 54.9854 27.0893 55.0089 26.8283 55.0522C25.5737 55.2656 24.4775 55.9563 23.7413 56.9995C23.0051 58.0409 22.7171 59.3083 22.9295 60.5685L25.0823 73.3185C25.1417 73.671 25.4459 73.9205 25.7915 73.9205C25.8311 73.9205 25.8725 73.9169 25.9121 73.9097C26.3045 73.8428 26.5673 73.4703 26.5007 73.0762L24.3479 60.3262C24.2003 59.4475 24.4001 58.5634 24.9149 57.8366C25.4279 57.1097 26.1929 56.627 27.0695 56.4788C27.2513 56.448 27.4385 56.4318 27.6239 56.4318H51.9365C52.1219 56.4318 52.3091 56.448 52.4927 56.4788C53.3675 56.627 54.1325 57.1097 54.6455 57.8366C55.1603 58.5634 55.3601 59.4475 55.2125 60.3262L53.4161 70.9645C53.3495 71.3586 53.6141 71.731 54.0047 71.7979C54.0461 71.8052 54.0856 71.8088 54.1252 71.8088C54.4708 71.8088 54.775 71.5593 54.8344 71.2067L56.6309 60.5685C57.0701 57.9686 55.3204 55.4934 52.7321 55.0522H52.7356Z" fill="#0E4271"/>
<path d="M54.482 73.0741C54.4154 72.68 54.0428 72.4197 53.6504 72.4865C53.258 72.5534 52.9952 72.9313 53.0636 73.3255C53.123 73.678 53.429 73.9275 53.7728 73.9275C53.8124 73.9275 53.8538 73.9239 53.8952 73.9167C54.2876 73.8498 54.5504 73.4755 54.4838 73.0814V73.076L54.482 73.0741Z" fill="#0E4271"/>
<path d="M15.8021 40.9949C17.6759 40.787 19.0619 39.1797 19.0457 37.3265L25.3133 35.7535C25.6985 35.6559 25.9343 35.2635 25.8371 34.8766C25.7399 34.4897 25.3511 34.2529 24.9641 34.3505L16.4447 36.4894C16.0595 36.587 15.8237 36.9793 15.9209 37.3663C16.0019 37.6953 16.2953 37.9141 16.6193 37.9141C16.6769 37.9141 16.7363 37.9068 16.7939 37.8924L17.5787 37.6953C17.4293 38.659 16.6553 39.4454 15.6455 39.5575C14.4917 39.6877 13.4315 38.885 13.2335 37.7351C13.1669 37.35 12.8087 37.0878 12.4235 37.1421C10.5155 37.4133 8.74255 36.0753 8.47255 34.1571C8.20255 32.2406 9.53455 30.4597 11.4443 30.1885C11.6063 30.165 11.7701 30.1541 11.9339 30.1541C12.0005 30.1523 12.0581 30.1541 12.1175 30.1596C13.1975 30.3892 14.0525 31.1919 14.3513 32.2623C14.4413 32.5823 14.7293 32.7902 15.0443 32.7902C15.1091 32.7902 15.1739 32.7812 15.2387 32.7631C15.6221 32.6546 15.8453 32.2568 15.7373 31.8717C15.3251 30.3928 14.2001 29.2592 12.7547 28.8307C12.6179 28.3769 12.6251 27.8941 12.7889 27.4403C12.9887 26.8835 13.3919 26.4387 13.9229 26.1874C15.0209 25.6685 16.3367 26.144 16.8533 27.2469C16.9739 27.5036 17.0423 27.7784 17.0603 28.0623C17.0783 28.3696 17.2871 28.6318 17.5805 28.7168L24.9407 30.8339C25.3223 30.9442 25.7219 30.7219 25.8317 30.3386C25.9415 29.9553 25.7201 29.5539 25.3385 29.4436L18.4319 27.4566C18.3743 27.1727 18.2825 26.8979 18.1583 26.6322C17.3033 24.8061 15.1289 24.0196 13.3109 24.8802C12.4307 25.296 11.7647 26.0319 11.4353 26.9522C11.2247 27.538 11.1689 28.1545 11.2625 28.7547H11.2445C8.54995 29.1398 6.66895 31.653 7.04875 34.3595C7.39975 36.851 9.55435 38.6445 11.9879 38.6228C12.5099 40.0475 13.8761 41.0166 15.4043 41.0166C15.5375 41.0166 15.6707 41.0094 15.8057 40.9949H15.8021Z" fill="#0E4271"/>
<path d="M25.1831 31.8573H19.4231C19.0253 31.8573 18.7031 32.1809 18.7031 32.5805C18.7031 32.9801 19.0253 33.3037 19.4231 33.3037H25.1831C25.5809 33.3037 25.9031 32.9801 25.9031 32.5805C25.9031 32.1809 25.5809 31.8573 25.1831 31.8573Z" fill="#0E4271"/>
<path d="M72.0107 30.6857C71.2187 29.628 70.0631 28.9428 68.7581 28.7566H68.7419C68.8355 28.1545 68.7779 27.538 68.5691 26.9522C68.2397 26.0319 67.5737 25.2979 66.6935 24.8802C64.8755 24.0214 62.7011 24.8079 61.8461 26.6322C61.7219 26.8961 61.6301 27.1728 61.5725 27.4566L54.6659 29.4436C54.2843 29.5539 54.0629 29.9535 54.1727 30.3386C54.2825 30.7219 54.6803 30.9443 55.0637 30.834L62.4239 28.7168C62.7173 28.6318 62.9261 28.3697 62.9441 28.0623C62.9603 27.7784 63.0305 27.5054 63.1493 27.2469C63.6659 26.144 64.9799 25.6685 66.0797 26.1874C66.6125 26.4387 67.0157 26.8835 67.2137 27.4403C67.3757 27.8942 67.3847 28.3769 67.2479 28.8307C65.8025 29.2592 64.6775 30.3928 64.2653 31.8718C64.1573 32.2569 64.3805 32.6546 64.7639 32.7631C64.8287 32.7812 64.8935 32.7902 64.9583 32.7902C65.2733 32.7902 65.5613 32.5805 65.6513 32.2623C65.9501 31.1919 66.8015 30.391 67.8797 30.1596C67.9409 30.156 68.0003 30.1542 68.0687 30.1523C68.2325 30.1523 68.3963 30.1632 68.5583 30.1867C69.4835 30.3187 70.3007 30.8032 70.8623 31.5535C71.4239 32.3039 71.6597 33.2278 71.5301 34.1553C71.3987 35.0846 70.9163 35.9054 70.1711 36.4695C69.4259 37.0336 68.5061 37.2704 67.5809 37.1403C67.1939 37.086 66.8375 37.3482 66.7709 37.7333C66.5729 38.8832 65.5127 39.6841 64.3589 39.5558C63.3491 39.4437 62.5751 38.6572 62.4257 37.6935L63.2105 37.8906C63.2699 37.9051 63.3275 37.9123 63.3851 37.9123C63.7073 37.9123 64.0007 37.6935 64.0835 37.3645C64.1807 36.9775 63.9449 36.5852 63.5597 36.4876L55.0403 34.3487C54.6551 34.2511 54.2645 34.4879 54.1673 34.8748C54.0701 35.2618 54.3059 35.6541 54.6911 35.7517L60.9569 37.3247C60.9389 39.1779 62.3267 40.7852 64.2005 40.9931C64.3355 41.0076 64.4687 41.0148 64.6019 41.0148C66.1301 41.0148 67.4963 40.0457 68.0183 38.621C69.1019 38.6355 70.1567 38.2902 71.0369 37.6248C72.0899 36.8293 72.7721 35.6686 72.9575 34.3578C73.1429 33.047 72.8081 31.7416 72.0143 30.6839L72.0107 30.6857Z" fill="#0E4271"/>
<path d="M54.8157 33.3037H60.5757C60.9735 33.3037 61.2957 32.9801 61.2957 32.5805C61.2957 32.1809 60.9735 31.8573 60.5757 31.8573H54.8157C54.4179 31.8573 54.0957 32.1809 54.0957 32.5805C54.0957 32.9801 54.4179 33.3037 54.8157 33.3037Z" fill="#0E4271"/>
</svg>
