<svg width="56" height="56" viewBox="0 0 56 56" fill="none" xmlns="http://www.w3.org/2000/svg">
<path d="M14.0793 27.5692C14.52 27.5692 14.8773 27.2119 14.8773 26.7712C14.8773 26.3304 14.52 25.9731 14.0793 25.9731C13.6385 25.9731 13.2812 26.3304 13.2812 26.7712C13.2812 27.2119 13.6385 27.5692 14.0793 27.5692Z" fill="#F3776D"/>
<path d="M19.1864 38.7402H18.471C18.3444 38.7419 18.2199 38.7735 18.1077 38.8323C17.9955 38.8911 17.8987 38.9755 17.8252 39.0787C17.7517 39.1819 17.7036 39.3009 17.6848 39.4262C17.6659 39.5515 17.6768 39.6794 17.7167 39.7997C18.0814 40.8784 18.7727 41.817 19.6948 42.4852C20.6168 43.1534 21.724 43.5181 22.8627 43.5287C23.1624 43.5282 23.4615 43.5022 23.7569 43.451C23.493 42.9536 23.2549 42.443 23.0438 41.9211C22.983 41.9243 22.9235 41.9326 22.8627 41.9326C22.2593 41.9283 21.6654 41.7814 21.1296 41.504C20.5937 41.2266 20.1309 40.8265 19.779 40.3363H22.1915L19.1864 38.7402Z" fill="#F3776D"/>
<path d="M25.0402 48.8852C23.5273 49.2106 21.9607 49.1929 20.4556 48.8333C12.9626 47.1249 8.98616 41.2236 7.56198 29.696C7.44832 28.7833 7.31382 27.8551 7.18379 26.9572C6.36 21.2689 5.58224 15.8964 9.16509 11.3127C12.3795 7.19988 16.1928 4.97122 20.8236 4.4985C22.1497 4.36534 23.4856 4.36187 24.8123 4.48816C29.4829 4.9406 33.3266 7.17297 36.5626 11.3125C40.1266 15.8752 39.3722 21.2202 38.5537 26.8793C38.7262 27.3549 38.9042 27.8455 39.0926 28.3635C39.273 28.7234 39.5227 29.0442 39.8274 29.3073C39.9211 28.598 40.0219 27.8824 40.1233 27.1835C40.9578 21.4151 41.8207 15.4502 37.8209 10.3297C34.3008 5.82655 30.0961 3.39617 24.9665 2.89966C23.5344 2.76291 22.0923 2.76663 20.6608 2.91076C15.5751 3.42967 11.4029 5.85642 7.90679 10.3297C3.90427 15.4506 4.76799 21.4165 5.60348 27.1859C5.73215 28.0758 5.86549 28.9964 5.97699 29.8925C6.92027 37.5245 9.41033 47.9524 20.1004 50.3893C21.8324 50.79 23.6308 50.8094 25.371 50.4464C26.6504 50.1817 27.896 49.7738 29.0842 49.2306C28.5565 48.8996 28.0501 48.5359 27.5679 48.1415C26.7466 48.4567 25.9013 48.7053 25.0402 48.8852Z" fill="#F3776D"/>
<path d="M49.7761 23.7878C49.356 23.35 48.8083 23.0561 48.2112 22.948C47.6141 22.84 46.9982 22.9235 46.4513 23.1864C42.4459 24.8921 41.5587 29.6993 41.3685 32.0929L39.3061 30.9018C38.5871 30.428 38.0075 29.7711 37.6269 28.9987C33.2398 16.6281 33.2398 16.6283 33.2269 16.6037C33.0921 16.2452 32.885 15.9182 32.6184 15.6431C32.3519 15.368 32.0317 15.1506 31.6776 15.0044C31.3235 14.8583 30.9432 14.7864 30.5602 14.7934C30.1772 14.8004 29.7998 14.8861 29.4513 15.045C29.1056 15.1915 28.7934 15.407 28.5339 15.6783C28.2744 15.9497 28.073 16.2711 27.942 16.623C27.8111 16.9749 27.7533 17.3498 27.7723 17.7248C27.7913 18.0998 27.8866 18.4669 28.0525 18.8038L29.5575 23.2755L25.1727 16.9466C24.0487 15.3156 22.3072 15.2349 21.1686 15.9973C20.0152 16.7696 19.4353 18.4521 20.5561 20.1708C20.5594 20.1763 20.5665 20.1866 23.817 25.0459C23.817 25.0459 20.8413 22.201 20.8187 22.1833C20.2464 21.6969 19.5053 21.4559 18.7564 21.5127C18.0075 21.5695 17.3112 21.9193 16.8187 22.4864C16.3438 22.9901 16.0832 23.6586 16.092 24.3508C16.1009 25.043 16.3784 25.7046 16.8661 26.196L22.6298 31.9545C20.0858 30.7893 17.2602 29.4946 17.0883 29.4159C16.4337 29.0652 15.6696 28.9791 14.9534 29.1752C14.2372 29.3713 13.6235 29.8348 13.239 30.47C12.5897 31.5948 12.7173 33.2529 14.4659 34.4209C14.4881 34.4364 23.9152 39.4443 23.9152 39.4443C24.3965 41.4571 25.3244 43.3359 26.6302 44.9415C27.936 46.547 29.5862 47.8383 31.4587 48.7196C31.4587 48.7196 34.6556 53.5431 34.6575 53.5458C34.776 53.7203 34.9581 53.8415 35.1648 53.8835C35.3715 53.9255 35.5864 53.8849 35.7636 53.7705C35.851 53.7127 35.9262 53.6382 35.9848 53.5513C36.0435 53.4644 36.0844 53.3667 36.1053 53.264C36.1262 53.1613 36.1266 53.0554 36.1066 52.9525C36.0866 52.8496 36.0464 52.7517 35.9885 52.6643L32.6634 47.6481C32.5801 47.5218 32.4624 47.4221 32.3242 47.3607C26.4488 44.7309 25.4205 38.8481 25.4111 38.7909C25.3917 38.6689 25.3441 38.553 25.2722 38.4524C25.2002 38.3519 25.1059 38.2694 24.9967 38.2116L15.3216 33.0728C14.4021 32.4432 14.3555 31.7288 14.6218 31.2673C14.8027 30.9785 15.0904 30.7728 15.4223 30.6952C15.7542 30.6175 16.1033 30.6742 16.3936 30.8529C16.3936 30.8529 25.831 34.9714 25.8437 34.9771C25.9719 35.0398 26.1154 35.0645 26.2572 35.0483C26.399 35.032 26.5332 34.9756 26.6439 34.8855C26.722 34.8119 26.7847 34.7236 26.8283 34.6256C26.8719 34.5276 26.8955 34.4219 26.8979 34.3146C26.9002 34.2074 26.8812 34.1007 26.8419 34.0009C26.8026 33.9011 26.7438 33.8101 26.669 33.7332L18.0009 25.0734C17.9001 24.973 17.8203 24.8535 17.7662 24.7219C17.7121 24.5903 17.6848 24.4492 17.686 24.3069C17.6871 24.1647 17.7167 24.024 17.7729 23.8933C17.8291 23.7626 17.9108 23.6444 18.0132 23.5457C18.1219 23.4171 18.2553 23.3117 18.4055 23.2358C18.5557 23.1599 18.7197 23.1149 18.8876 23.1036C19.0556 23.0924 19.2241 23.115 19.3831 23.1702C19.5421 23.2253 19.6884 23.3119 19.8132 23.4248L27.4563 30.7377C27.5831 30.8597 27.7468 30.9363 27.9217 30.9555C28.0966 30.9747 28.273 30.9353 28.4232 30.8436C28.5734 30.7519 28.6889 30.613 28.7518 30.4486C28.8146 30.2843 28.8213 30.1037 28.7706 29.9352C28.7706 29.9352 21.9499 19.3837 21.8957 19.302C21.269 18.3408 21.591 17.6355 22.0573 17.3234C22.5466 16.9961 23.2928 17.0324 23.8589 17.8537C23.8589 17.8537 31.3068 28.6034 31.3141 28.6141C31.4271 28.7601 31.5823 28.8679 31.7586 28.9227C31.935 28.9775 32.1239 28.9768 32.2998 28.9206C32.3992 28.8872 32.491 28.8346 32.5701 28.7658C32.6491 28.6969 32.7138 28.6132 32.7604 28.5193C32.807 28.4254 32.8347 28.3232 32.8418 28.2187C32.8489 28.1141 32.8353 28.0091 32.8018 27.9098C32.8018 27.9098 29.5392 18.2178 29.5293 18.1957C29.4435 18.0502 29.3899 17.888 29.3722 17.72C29.3545 17.552 29.373 17.3822 29.4266 17.222C29.4802 17.0618 29.5675 16.915 29.6827 16.7914C29.7979 16.6679 29.9383 16.5705 30.0944 16.5059C30.2493 16.4339 30.4177 16.3955 30.5885 16.3931C30.7593 16.3908 30.9286 16.4246 31.0855 16.4923C31.2423 16.56 31.383 16.6602 31.4985 16.7861C31.6139 16.912 31.7014 17.0609 31.7552 17.223C31.9802 17.855 36.0874 29.4355 36.1299 29.5554C36.6026 30.7006 37.4378 31.6591 38.5075 32.2841C38.5075 32.2841 41.7159 34.1365 41.7196 34.1387C41.843 34.2073 41.9823 34.2423 42.1235 34.2402C42.2647 34.238 42.4029 34.1988 42.5242 34.1264C42.6455 34.0541 42.7456 33.9511 42.8146 33.8279C42.8836 33.7047 42.919 33.5655 42.9172 33.4242C42.9149 33.3553 42.764 26.4917 47.0773 24.6548C47.336 24.5163 47.6339 24.469 47.9229 24.5205C48.2119 24.5721 48.475 24.7195 48.6699 24.939C48.8441 25.1061 48.8991 25.6831 48.5927 26.2433C47.5886 28.0786 46.3973 30.8991 46.4231 33.9116C46.4234 33.9601 46.4283 34.0086 46.4377 34.0562C46.449 34.1153 47.5237 40.0075 43.5188 43.7479C43.3802 43.8775 43.2922 44.0523 43.2708 44.2408C43.2494 44.4294 43.2958 44.6195 43.4018 44.7769C43.4018 44.7769 45.8334 48.3877 45.8353 48.3906C45.9552 48.5642 46.1383 48.6841 46.3454 48.7246C46.5525 48.765 46.7672 48.7228 46.9435 48.607C47.0305 48.5485 47.1052 48.4734 47.1631 48.3861C47.2211 48.2987 47.2613 48.2008 47.2814 48.0979C47.3015 47.995 47.3011 47.8892 47.2802 47.7864C47.2594 47.6837 47.2185 47.5861 47.1599 47.4992L45.0944 44.4317C48.9854 40.3044 48.1543 34.6026 48.0196 33.8307C48.0159 31.0447 49.2525 28.365 49.994 27.009C50.62 25.8644 50.5283 24.5092 49.7761 23.7878Z" fill="#F3776D"/>
<path d="M14.7961 22.7788H12.4817C12.27 22.7788 12.067 22.8629 11.9173 23.0126C11.7677 23.1622 11.6836 23.3652 11.6836 23.5769C11.6836 23.7885 11.7677 23.9915 11.9173 24.1412C12.067 24.2909 12.27 24.3749 12.4817 24.3749H14.5021C14.4977 23.829 14.5975 23.2873 14.7961 22.7788Z" fill="#F3776D"/>
</svg>
