<svg width="56" height="56" viewBox="0 0 56 56" fill="none" xmlns="http://www.w3.org/2000/svg">
<path d="M50.5866 20.9271C50.5866 17.4053 49.2163 14.0951 46.7287 11.6084C44.2472 9.11727 40.9379 7.74615 37.4117 7.74615C33.9922 7.74615 30.7801 9.04727 28.3169 11.3984L28.0991 11.1779C25.4846 8.56427 22.0362 7.12402 18.3892 7.12402C14.8936 7.12402 11.6263 8.46715 9.18681 10.9075C4.05231 16.0508 4.17394 24.5339 9.45806 29.818L10.0364 30.3964C9.73894 30.9406 9.65144 31.6179 9.79844 32.3336C9.97256 33.178 10.4538 34.0224 11.1617 34.7189C12.0209 35.5642 13.0779 36.0507 14.0816 36.0839C14.0894 36.2537 14.0973 36.4234 14.1332 36.5993C14.3073 37.4436 14.7886 38.288 15.4886 38.9767C16.3469 39.8219 17.4048 40.3075 18.4084 40.3408C18.4163 40.5105 18.4242 40.6803 18.4601 40.857C18.6342 41.7014 19.1154 42.5458 19.8154 43.2344C20.6747 44.0796 21.7317 44.5653 22.7344 44.5985C22.7423 44.7683 22.7502 44.9389 22.7861 45.1148C22.9602 45.9583 23.4414 46.8026 24.1493 47.5C25.0392 48.375 26.1426 48.8764 27.1768 48.8764C27.8978 48.8764 28.5208 48.6314 28.9767 48.1676L33.3062 43.7673C33.4987 43.5713 33.6343 43.342 33.7446 43.0996C34.5749 42.9736 35.3388 42.6018 35.9312 42.0007C36.8114 41.1213 37.1702 39.9225 37.0407 38.7684C37.1894 38.785 37.3382 38.8113 37.4878 38.8113C38.4993 38.8113 39.5108 38.4263 40.2799 37.6571C41.1628 36.7743 41.5224 35.5747 41.3921 34.4205C41.5391 34.4372 41.6843 34.4634 41.8348 34.4634C42.8909 34.4634 43.8841 34.0513 44.6313 33.3049C45.1974 32.7388 45.5684 32.0309 45.7163 31.2618L46.7287 30.2503C49.2163 27.76 50.5866 24.449 50.5866 20.9271ZM37.4117 9.49615C40.4698 9.49615 43.3381 10.6844 45.4906 12.8448C47.6483 15.0025 48.8374 17.8734 48.8374 20.9271C48.8374 23.98 47.6501 26.8483 45.4949 29.006C45.2989 28.5274 45.0084 28.0864 44.6313 27.7102L35.5243 18.6049C35.5164 18.597 35.5068 18.5953 35.4989 18.5883L34.7149 17.8043L35.3449 17.4341C35.7614 17.1883 35.8997 16.6519 35.6538 16.2363C35.4079 15.8189 34.8716 15.6815 34.4551 15.9265L27.4699 20.0355C26.1881 20.7784 24.5859 20.6673 23.4484 19.8054C23.2358 19.6444 23.1921 19.4318 23.1833 19.3189C23.1754 19.2043 23.1912 18.9846 23.3819 18.7939L29.3232 12.8439C31.4836 10.6853 34.3553 9.49615 37.4117 9.49615ZM11.5117 31.9819C11.4749 31.8051 11.4154 31.3659 11.6534 31.1244L15.9838 26.724C16.1343 26.5709 16.3671 26.5385 16.5359 26.5385C17.0977 26.5385 17.7881 26.8737 18.3437 27.4214C18.7926 27.8633 19.1093 28.4032 19.2117 28.9028C19.2484 29.0804 19.3079 29.5197 19.0699 29.7612L14.7404 34.1615C14.5899 34.3146 14.3572 34.347 14.1883 34.347C13.6266 34.347 12.9371 34.0119 12.3806 33.4641C11.9317 33.0223 11.6149 32.4824 11.5117 31.9819ZM15.8464 36.2466C15.8097 36.0699 15.7502 35.6307 15.9882 35.3892L20.3177 30.9888C20.4682 30.8357 20.7009 30.8033 20.8698 30.8033C21.4316 30.8033 22.1219 31.1384 22.6697 31.6774C23.5508 32.5445 23.7801 33.6278 23.3968 34.0189L19.0673 38.4184C18.9159 38.5724 18.6832 38.6039 18.5152 38.6039C17.9534 38.6039 17.2639 38.2688 16.7153 37.7298C16.2664 37.287 15.9497 36.7471 15.8464 36.2466ZM20.3142 39.6452L24.6437 35.2457C24.7951 35.0917 25.0278 35.0602 25.1967 35.0602C25.7584 35.0602 26.4479 35.3953 26.9957 35.9343C27.8768 36.8005 28.1061 37.8846 27.7228 38.2749L23.3933 42.6753C23.2428 42.8284 23.0101 42.8608 22.8412 42.8608C22.2794 42.8608 21.5891 42.5257 21.0413 41.9867C20.1602 41.1187 19.9309 40.0354 20.3142 39.6452ZM32.0576 42.5388L27.7281 46.9391C27.5776 47.0923 27.3448 47.1246 27.1759 47.1246C26.6133 47.1246 25.9238 46.7895 25.3673 46.2418C24.9184 45.7999 24.6017 45.26 24.4993 44.7604C24.4626 44.5828 24.4031 44.1435 24.6411 43.902L28.9706 39.5016C29.1211 39.3485 29.3538 39.3162 29.5227 39.3162C30.0844 39.3162 30.7748 39.6513 31.3304 40.199C32.2116 41.0653 32.4408 42.1494 32.0576 42.5388ZM40.2747 32.065L31.1686 22.9598C30.8264 22.6176 30.2734 22.6176 29.9313 22.9598C29.5892 23.3019 29.5892 23.8549 29.9313 24.197L39.0418 33.3066C39.4574 33.7223 39.6858 34.2744 39.6858 34.8615C39.6858 35.4486 39.4566 36.0016 39.0418 36.4164C38.1869 37.2713 36.7948 37.2722 35.9373 36.4208C35.9347 36.4182 35.9329 36.4147 35.9303 36.412L26.8216 27.3033C26.4794 26.9612 25.9264 26.9612 25.5843 27.3033C25.4128 27.4748 25.3279 27.6996 25.3288 27.9245C25.3288 28.1485 25.4146 28.3725 25.5852 28.5431L34.6957 37.6536L34.6983 37.6563C35.5471 38.519 35.5462 39.9085 34.6887 40.7651C34.4638 40.9935 34.1926 41.158 33.8881 41.2665C33.7104 40.4694 33.2668 39.6478 32.5511 38.9425C31.6927 38.0981 30.6357 37.6117 29.6329 37.5775C29.5848 36.6124 29.1114 35.558 28.2251 34.6848C27.3667 33.8404 26.3097 33.3539 25.3069 33.3207C25.2588 32.3555 24.7854 31.3003 23.8991 30.427C23.0398 29.5818 21.9828 29.0961 20.9792 29.0629C20.9713 28.8931 20.9634 28.7234 20.9276 28.5466C20.7534 27.7031 20.2722 26.8588 19.5643 26.1614C18.6744 25.2864 17.5719 24.785 16.5377 24.785C15.8158 24.785 15.1937 25.03 14.7378 25.4938L11.2028 29.0865L10.6962 28.5799C6.09369 23.9774 5.97294 16.6029 10.4249 12.143C12.5337 10.0343 15.3626 8.87315 18.3901 8.87315C21.5698 8.87315 24.5789 10.1314 26.8592 12.4108L27.0701 12.6243L22.1456 17.5558C21.6486 18.0528 21.3904 18.7396 21.4386 19.4379C21.4867 20.1353 21.8349 20.7766 22.3932 21.1993C24.0819 22.4785 26.4619 22.6413 28.3528 21.5458L33.1574 18.7195L34.2818 19.8439C34.2897 19.8518 34.2993 19.8535 34.3072 19.8605L43.3932 28.9465C43.8097 29.3639 44.0389 29.9169 44.0389 30.5058C44.0389 31.0946 43.8097 31.6485 43.3932 32.0642C42.5602 32.9007 41.1077 32.8998 40.2747 32.065Z" fill="#F3776D"/>
</svg>
