<svg width="56" height="56" viewBox="0 0 56 56" fill="none" xmlns="http://www.w3.org/2000/svg">
<g clip-path="url(#clip0_1658_13523)">
<path d="M55.9536 31.1044C55.4089 28.8435 52.147 26.3114 48.0229 24.9465C45.0449 23.9623 37.3729 22.2924 30.4789 28.0454C25.8585 31.9014 24.1013 37.5798 26.2055 41.8532C26.2959 42.0368 26.396 42.2151 26.497 42.3926C25.5874 42.9107 24.6618 43.4005 23.7038 43.8372C22.96 44.1697 22.0762 44.1697 21.3413 43.8372C8.10252 37.8172 2.15253 26.0659 2.15253 19.6347C2.15253 17.1147 3.15874 14.7084 4.97876 12.8447C7.04374 10.7272 10.2112 9.73843 13.4575 10.2021C16.975 10.7097 19.9325 12.7746 21.5688 15.8634C21.7525 16.2134 22.12 16.4321 22.5225 16.4321C22.9163 16.4321 23.2837 16.2134 23.4763 15.8634C25.1125 12.7746 28.07 10.7097 31.5875 10.2021C34.8338 9.73843 38.0013 10.7272 40.0662 12.8534C41.8863 14.7084 42.8925 17.1147 42.8925 19.6347C42.8925 19.8884 42.875 20.1421 42.8662 20.4047C42.8225 20.9997 43.2688 21.5071 43.8638 21.5509C44.4412 21.5859 44.975 21.1396 45.01 20.5447C45.0362 20.2384 45.045 19.9321 45.045 19.6347C45.045 16.5459 43.82 13.6059 41.6062 11.3484C39.06 8.73216 35.2012 7.5159 31.2813 8.07591C27.685 8.59218 24.57 10.4734 22.5225 13.3171C20.4663 10.4734 17.36 8.59218 13.7637 8.07591C9.84376 7.50714 5.98503 8.73216 3.43875 11.3396C1.22502 13.6059 0 16.5547 0 19.6347C0 27.9209 7.64749 39.9784 20.4487 45.7972C21.105 46.0947 21.8137 46.2434 22.5225 46.2434C23.2312 46.2434 23.94 46.0947 24.5962 45.7972C25.6853 45.3028 26.7339 44.7477 27.7617 44.1615C29.8658 46.5584 33.0068 48.0583 36.2372 48.0615H36.2477C39.1815 48.0615 44.7168 46.7892 48.9251 38.2969C50.8873 34.3368 53.1775 33.4808 54.41 33.0203C55.0535 32.7805 56.2502 32.3325 55.9536 31.1044ZM46.9944 37.3421C44.2584 42.8669 40.4412 45.908 36.2477 45.908C36.2456 45.908 36.2414 45.908 36.2393 45.908C33.6132 45.9063 31.0687 44.6747 29.3705 42.7212C32.2364 38.5764 35.5009 35.509 39.0953 33.6238C39.621 33.3483 39.825 32.6985 39.5474 32.1706C39.2719 31.6448 38.6179 31.443 38.0942 31.7184C34.3968 33.6561 31.0412 36.7124 28.0924 40.7941C26.5386 37.4756 28.1059 32.831 31.8586 29.6995C37.9218 24.6363 44.7105 26.119 47.3456 26.9917C50.7232 28.1085 52.8516 29.8593 53.5918 31.0266C52.1659 31.5607 49.2994 32.688 46.9944 37.3421Z" fill="#F3776D"/>
</g>
<defs>
<clipPath id="clip0_1658_13523">
<rect width="56" height="56" fill="white"/>
</clipPath>
</defs>
</svg>
