<svg width="56" height="56" viewBox="0 0 56 56" fill="none" xmlns="http://www.w3.org/2000/svg">
<path fill-rule="evenodd" clip-rule="evenodd" d="M48.2233 35.1918L48.6531 36.5027L47.5351 35.6898C47.2694 35.4969 46.921 35.4968 46.6541 35.6898L45.5374 36.5027L45.9672 35.1918C46.0687 34.883 45.9577 34.5427 45.6949 34.3536L44.5751 33.5407L45.9589 33.547C46.2828 33.547 46.5708 33.339 46.6704 33.0302L47.0945 31.7131L47.5192 33.0302C47.619 33.3397 47.9085 33.5477 48.2332 33.547L49.6152 33.5407L48.4953 34.3536C48.2322 34.5428 48.1219 34.883 48.2233 35.1918ZM52.6415 32.5577C52.5417 32.2484 52.254 32.0406 51.9294 32.0409L48.776 32.0472L47.8067 29.0475C47.5854 28.362 46.6054 28.3608 46.3837 29.0475L45.4145 32.0472L42.2598 32.0409C41.5378 32.0409 41.2377 32.9739 41.8212 33.3958L44.3766 35.2486L43.3966 38.242C43.1714 38.9266 43.9663 39.5017 44.5473 39.0802L47.0945 37.2212L49.6429 39.0802C50.2305 39.5075 51.0183 38.927 50.7949 38.242L49.8136 35.2486L52.369 33.3958C52.6316 33.2067 52.7418 32.8665 52.6415 32.5577ZM10.0332 35.1918L10.463 36.509L9.34635 35.6897C9.08203 35.4969 8.73035 35.4969 8.46469 35.6897L7.34805 36.509L7.77779 35.1918C7.87994 34.883 7.76894 34.5427 7.50552 34.3536L6.3863 33.5407L7.77018 33.547C8.09408 33.547 8.38214 33.339 8.48171 33.0302L8.90586 31.7131L9.33067 33.0302C9.43058 33.34 9.71942 33.5477 10.0447 33.547L11.4266 33.5407L10.3068 34.3536C10.0433 34.5428 9.93301 34.883 10.0332 35.1918ZM13.7413 32.0409L10.5872 32.0472L9.61795 29.0475C9.39597 28.3621 8.41664 28.3608 8.19499 29.0475L7.22574 32.0472L4.07104 32.0409C3.34909 32.0409 3.04893 32.9739 3.63245 33.3958L6.18784 35.2486L5.20661 38.242C4.98238 38.9274 5.77747 39.5013 6.35797 39.0802L8.90586 37.2212L11.4543 39.0802C12.0415 39.5071 12.8299 38.9275 12.605 38.242L11.6244 35.2486L14.1793 33.3958C14.7638 32.9741 14.4635 32.0409 13.7413 32.0409ZM40.8451 19.2103C41.1707 19.2103 41.4581 19.0029 41.5579 18.6936L42.1282 16.9227L42.6998 18.6936C42.7997 19.0031 43.0876 19.2109 43.4126 19.2103L45.2691 19.2041L43.7642 20.2943C43.5014 20.4833 43.3918 20.8236 43.4926 21.1324L44.0698 22.8969L42.5694 21.8067C42.3092 21.6122 41.9488 21.6119 41.6877 21.8067L40.1878 22.8969L40.765 21.1324C40.8658 20.8236 40.755 20.4833 40.4921 20.2943L38.9873 19.2041L40.8451 19.2103ZM36.2346 19.059L39.1739 21.189L38.0465 24.6362C37.8226 25.3171 38.6154 25.8973 39.1971 25.4743L42.1282 23.3316L45.0598 25.4743C45.6314 25.8883 46.4377 25.3296 46.2111 24.6362L45.0838 21.189L48.023 19.059C48.6087 18.6366 48.3054 17.7035 47.5831 17.704L43.9551 17.7103L42.8403 14.2632C42.6182 13.5686 41.6398 13.5674 41.4173 14.2632L40.3025 17.7103L36.672 17.704C35.9507 17.7042 35.6489 18.6387 36.2346 19.059ZM12.5886 19.2103C12.9147 19.2103 13.2021 19.0037 13.302 18.6936L13.8729 16.9227L14.4432 18.6936C14.5432 19.0025 14.8311 19.2109 15.1566 19.2103L17.0138 19.2041L15.5095 20.2943C15.2461 20.4833 15.1352 20.8236 15.236 21.1324L15.8132 22.8969L14.314 21.8067C14.0506 21.6114 13.6945 21.6114 13.4323 21.8067L11.9319 22.8969L12.5091 21.1324C12.6099 20.8236 12.4997 20.4833 12.2368 20.2943L10.7319 19.2041L12.5886 19.2103ZM7.97816 19.059L10.9179 21.189L9.78998 24.6362C9.56352 25.3291 10.3701 25.8886 10.942 25.4743L13.8731 23.3316L16.8047 25.4743C17.3877 25.8986 18.1795 25.3195 17.9553 24.6362L16.8273 21.189L19.7672 19.059C20.3527 18.6363 20.0504 17.7035 19.3273 17.704L15.6988 17.7103L14.584 14.2632C14.3617 13.568 13.3841 13.5674 13.1616 14.2632L12.0468 17.7103L8.41754 17.704C7.6957 17.7042 7.39296 18.638 7.97816 19.059ZM26.611 12.0387C26.9367 12.0387 27.2241 11.8311 27.3238 11.522L28.0006 9.42343L28.6781 11.522C28.778 11.8317 29.0657 12.0392 29.3909 12.0387L31.594 12.0325L29.8093 13.3244C29.5452 13.5134 29.4356 13.8537 29.5365 14.1625L30.2215 16.2548L28.4418 14.9566C28.1863 14.7718 27.8159 14.7715 27.5601 14.9566L25.7804 16.2548L26.4654 14.1625C26.5657 13.8537 26.4554 13.5134 26.1919 13.3244L24.4072 12.0325L26.611 12.0387ZM21.6532 11.8875L24.8741 14.2193L23.6383 17.9941C23.4134 18.6799 24.2023 19.259 24.789 18.8322L28.0005 16.4879L31.2113 18.8322C31.7927 19.2541 32.5866 18.679 32.3627 17.9941L31.1276 14.2193L34.3484 11.8875C34.9329 11.4653 34.6301 10.5321 33.9073 10.5327L29.9327 10.539L28.7127 6.75783C28.492 6.0734 27.5111 6.06982 27.2891 6.75783L26.0684 10.539L22.092 10.5327C21.3703 10.5326 21.0693 11.4663 21.6532 11.8875ZM28.0005 30.7238C26.5039 30.7238 25.287 29.5075 25.287 28.0077C25.287 26.5142 26.5039 25.2979 28.0005 25.2979C29.4973 25.2979 30.7147 26.5141 30.7147 28.0077C30.7147 29.5076 29.4973 30.7238 28.0005 30.7238ZM28.0005 23.7981C25.6795 23.7981 23.7909 25.6886 23.7909 28.0077C23.7909 30.333 25.6795 32.2173 28.0005 32.2173C30.3222 32.2173 32.2101 30.333 32.2101 28.0077C32.2103 25.6886 30.3222 23.7981 28.0005 23.7981ZM28.0005 48.2683C29.3018 48.2683 30.5861 48.1234 31.8334 47.846V38.7462C31.8334 37.24 32.4869 35.8977 33.6729 34.965L39.3433 30.5159C39.5286 30.371 39.6465 30.163 39.6754 29.9236C39.7696 29.1554 38.8706 28.6348 38.2474 29.1232L31.7873 34.19C30.67 35.0659 29.4355 35.4882 28.0151 35.4882C26.5758 35.4882 25.3475 35.0787 24.2138 34.19L17.7537 29.1232C17.368 28.8207 16.8097 28.8838 16.5066 29.2744C16.2048 29.6588 16.2722 30.2134 16.6579 30.5159L22.3284 34.965C23.515 35.8978 24.1679 37.24 24.1679 38.7462V47.846C25.4156 48.1234 26.6986 48.2683 28.0005 48.2683ZM34.5955 36.1435C33.7668 36.7925 33.3288 37.6938 33.3288 38.7462V47.4427C35.7589 46.6676 38.0074 45.3631 39.9174 43.5923C40.2199 43.3087 40.6931 43.3276 40.9743 43.6301C41.2547 43.9326 41.2377 44.4053 40.9352 44.6889C33.6827 51.4496 22.3198 51.444 15.0665 44.6889C14.7635 44.4053 14.7464 43.9326 15.0269 43.6301C15.308 43.3276 15.7812 43.3087 16.0837 43.5923C17.9939 45.3631 20.2423 46.6676 22.6723 47.4427V38.7462C22.6723 37.6937 22.2344 36.7925 21.4051 36.1435L15.7346 31.6944C14.7011 30.8878 14.5196 29.3816 15.3301 28.3481C16.1417 27.3145 17.6422 27.1319 18.677 27.9448L25.1364 33.0115C25.9929 33.6795 26.8979 33.9947 27.9868 33.9947C29.0907 33.9947 29.9944 33.6924 30.8642 33.0115L37.3243 27.9448C38.3591 27.1319 39.8602 27.3145 40.6719 28.3481C41.482 29.3791 41.3011 30.8842 40.2666 31.6944L34.5955 36.1435Z" fill="#F3776D"/>
</svg>
