<svg width="56" height="56" viewBox="0 0 56 56" fill="none" xmlns="http://www.w3.org/2000/svg">
<g clip-path="url(#clip0_1658_13531)">
<path d="M5.65469 27.1031C8.30156 29.3344 11.725 30.6906 15.4547 30.6906C19.1844 30.6906 22.5969 29.3344 25.2547 27.1031H25.3203C25.3203 27.0812 25.3203 27.0703 25.3203 27.0484C28.6016 24.2484 30.7016 20.0922 30.7016 15.4547C30.6906 7.05469 23.8547 0.21875 15.4547 0.21875C7.05469 0.21875 0.21875 7.05469 0.21875 15.4547C0.21875 20.1031 2.30781 24.2594 5.6 27.0484V27.1031H5.65469ZM7.4375 26.2172C7.875 22.1812 11.2984 19.0312 15.4547 19.0312C19.6 19.0312 23.0234 22.1812 23.4719 26.2172C21.2297 27.8906 18.4625 28.8969 15.4547 28.8969C12.4469 28.8969 9.67969 27.8906 7.4375 26.2172ZM11.8672 13.6609C11.8672 11.6812 13.475 10.0734 15.4547 10.0734C17.4344 10.0734 19.0422 11.6812 19.0422 13.6609C19.0422 15.6406 17.4344 17.2484 15.4547 17.2484C13.475 17.2484 11.8672 15.6406 11.8672 13.6609ZM2.0125 15.4547C2.0125 8.03906 8.03906 2.0125 15.4547 2.0125C22.8703 2.0125 28.8969 8.03906 28.8969 15.4547C28.8969 19.1187 27.4203 22.4328 25.0469 24.8609C24.2812 21.6125 21.9188 18.9766 18.8234 17.85C20.0484 16.8656 20.8359 15.3562 20.8359 13.6609C20.8359 10.6969 18.4188 8.27969 15.4547 8.27969C12.4906 8.27969 10.0734 10.6969 10.0734 13.6609C10.0734 15.3562 10.8609 16.8656 12.0859 17.85C8.99063 18.9766 6.61719 21.6125 5.8625 24.8609C3.48906 22.4328 2.0125 19.1078 2.0125 15.4547Z" fill="#F3776D"/>
<path d="M55.7805 40.5455C55.7805 32.1455 48.9445 25.3096 40.5445 25.3096C32.1445 25.3096 25.3086 32.1455 25.3086 40.5455C25.3086 45.1939 27.3977 49.3502 30.6898 52.1393V52.1939H30.7555C33.4023 54.4252 36.8258 55.7814 40.5555 55.7814C44.2852 55.7814 47.6977 54.4252 50.3555 52.1939H50.4211C50.4211 52.1721 50.4211 52.1611 50.4211 52.1393C53.6914 49.3502 55.7805 45.1939 55.7805 40.5455ZM32.5273 51.3189C32.9648 47.283 36.3883 44.133 40.5445 44.133C44.6898 44.133 48.1133 47.283 48.5617 51.3189C46.3195 52.9924 43.5523 53.9986 40.5445 53.9986C37.5367 53.9877 34.7695 52.9814 32.5273 51.3189ZM36.957 38.7518C36.957 36.7721 38.5648 35.1643 40.5445 35.1643C42.5242 35.1643 44.132 36.7721 44.132 38.7518C44.132 40.7314 42.5242 42.3393 40.5445 42.3393C38.5648 42.3393 36.957 40.7314 36.957 38.7518ZM43.9133 42.9408C45.1383 41.9564 45.9258 40.4471 45.9258 38.7518C45.9258 35.7877 43.5086 33.3705 40.5445 33.3705C37.5805 33.3705 35.1633 35.7877 35.1633 38.7518C35.1633 40.4471 35.9508 41.9564 37.1758 42.9408C34.0805 44.0674 31.707 46.7033 30.9523 49.9518C28.568 47.5236 27.1023 44.2096 27.1023 40.5455C27.1023 33.1299 33.1289 27.1033 40.5445 27.1033C47.9602 27.1033 53.9867 33.1299 53.9867 40.5455C53.9867 44.2096 52.5102 47.5236 50.1367 49.9518C49.3711 46.7033 46.9977 44.0674 43.9133 42.9408Z" fill="#F3776D"/>
<path d="M47.7203 23.5155H49.5141C49.5141 14.1312 41.8797 6.48584 32.4844 6.48584V8.27959C40.8844 8.27959 47.7203 15.1155 47.7203 23.5155Z" fill="#F3776D"/>
<path d="M8.27891 32.4844H6.49609C6.49609 41.8688 14.1305 49.5141 23.5258 49.5141V47.7203C15.1148 47.7203 8.27891 40.8844 8.27891 32.4844Z" fill="#F3776D"/>
</g>
<defs>
<clipPath id="clip0_1658_13531">
<rect width="56" height="56" fill="white"/>
</clipPath>
</defs>
</svg>
