<svg width="24" height="24" viewBox="0 0 24 24" fill="none" xmlns="http://www.w3.org/2000/svg">
<path d="M12.0016 3.5999C10.4103 3.5999 8.88414 4.23204 7.75892 5.35726C6.6337 6.48248 6.00156 8.0086 6.00156 9.5999C6.00156 10.9535 6.80556 12.5327 7.93356 14.0519C9.04476 15.5471 10.39 16.8839 11.3152 17.7323C11.501 17.907 11.7465 18.0043 12.0016 18.0043C12.2566 18.0043 12.5021 17.907 12.688 17.7323C13.612 16.8827 14.9584 15.5483 16.0696 14.0519C17.1976 12.5327 18.0016 10.9535 18.0016 9.5999C18.0016 8.0086 17.3694 6.48248 16.2442 5.35726C15.119 4.23204 13.5929 3.5999 12.0016 3.5999ZM4.80156 9.5999C4.80156 7.69034 5.56013 5.859 6.91039 4.50873C8.26066 3.15847 10.092 2.3999 12.0016 2.3999C13.9111 2.3999 15.7425 3.15847 17.0927 4.50873C18.443 5.859 19.2016 7.69034 19.2016 9.5999C19.2016 11.3615 18.19 13.2083 17.0332 14.7671C15.8572 16.3499 14.4508 17.7431 13.4992 18.6155C13.092 18.9933 12.557 19.2032 12.0016 19.2032C11.4461 19.2032 10.9112 18.9933 10.504 18.6155C9.55236 17.7431 8.14476 16.3499 6.96996 14.7671C5.81316 13.2083 4.80156 11.3615 4.80156 9.5999ZM12.0016 7.7999C11.5242 7.7999 11.0663 7.98954 10.7288 8.32711C10.3912 8.66468 10.2016 9.12251 10.2016 9.5999C10.2016 10.0773 10.3912 10.5351 10.7288 10.8727C11.0663 11.2103 11.5242 11.3999 12.0016 11.3999C12.479 11.3999 12.9368 11.2103 13.2744 10.8727C13.6119 10.5351 13.8016 10.0773 13.8016 9.5999C13.8016 9.12251 13.6119 8.66468 13.2744 8.32711C12.9368 7.98954 12.479 7.7999 12.0016 7.7999ZM9.00156 9.5999C9.00156 8.80425 9.31763 8.04119 9.88024 7.47858C10.4429 6.91597 11.2059 6.5999 12.0016 6.5999C12.7972 6.5999 13.5603 6.91597 14.1229 7.47858C14.6855 8.04119 15.0016 8.80425 15.0016 9.5999C15.0016 10.3956 14.6855 11.1586 14.1229 11.7212C13.5603 12.2838 12.7972 12.5999 12.0016 12.5999C11.2059 12.5999 10.4429 12.2838 9.88024 11.7212C9.31763 11.1586 9.00156 10.3956 9.00156 9.5999ZM17.3056 16.3655C17.0275 16.7026 16.7414 17.0331 16.4476 17.3567C16.7532 17.4431 17.038 17.5371 17.302 17.6387C17.9668 17.8943 18.4648 18.1847 18.7852 18.4763C19.1056 18.7679 19.2016 19.0127 19.2016 19.1999C19.2016 19.3871 19.1056 19.6319 18.7852 19.9235C18.4648 20.2151 17.9668 20.5055 17.302 20.7611C15.9748 21.2723 14.1016 21.6011 12.0016 21.6011C9.90156 21.6011 8.02836 21.2723 6.70116 20.7611C6.03636 20.5055 5.53836 20.2151 5.21796 19.9235C4.89756 19.6319 4.80156 19.3871 4.80156 19.1999C4.80156 19.0127 4.89756 18.7679 5.21796 18.4763C5.53836 18.1847 6.03636 17.8943 6.70116 17.6387C6.9814 17.5314 7.26651 17.4373 7.55556 17.3567C7.2614 17.0335 6.97531 16.703 6.69756 16.3655C6.5541 16.4137 6.41167 16.4649 6.27036 16.5191C5.52516 16.8059 4.87956 17.1623 4.41036 17.5883C3.94236 18.0143 3.60156 18.5591 3.60156 19.1999C3.60156 19.8419 3.94236 20.3855 4.41036 20.8115C4.87836 21.2375 5.52516 21.5939 6.27036 21.8819C7.76676 22.4579 9.79356 22.7999 12.0016 22.7999C14.2096 22.7999 16.2364 22.4567 17.7328 21.8819C18.478 21.5939 19.1236 21.2375 19.5928 20.8115C20.0608 20.3855 20.4016 19.8419 20.4016 19.1999C20.4016 18.5579 20.0608 18.0143 19.5928 17.5883C19.1248 17.1623 18.478 16.8059 17.7328 16.5191C17.5915 16.4649 17.449 16.4137 17.3056 16.3655Z" fill="#0E4271"/>
</svg>
