<svg width="24" height="24" viewBox="0 0 24 24" fill="none" xmlns="http://www.w3.org/2000/svg">
<g clip-path="url(#clip0_4001_8985)">
<path d="M13.9313 15.5089C13.8563 15.509 13.7826 15.4894 13.7175 15.4521C13.6525 15.4148 13.5984 15.3611 13.5606 15.2963L11.8025 12.2882C11.6812 12.0807 11.6172 11.8447 11.6172 11.6044V7.06711C11.6172 6.95335 11.6624 6.84425 11.7428 6.76381C11.8233 6.68337 11.9324 6.63818 12.0461 6.63818C12.1599 6.63818 12.269 6.68337 12.3494 6.76381C12.4299 6.84425 12.475 6.95335 12.475 7.06711V11.6044C12.475 11.6926 12.4985 11.7792 12.5431 11.8553L14.3011 14.8637C14.3392 14.9288 14.3594 15.0028 14.3597 15.0782C14.36 15.1537 14.3404 15.2278 14.3029 15.2933C14.2654 15.3587 14.2113 15.4131 14.146 15.451C14.0808 15.4888 14.0067 15.5088 13.9313 15.5089Z" fill="#0E4271"/>
<path d="M19.2307 15.9536C19.9483 14.7069 20.326 13.2937 20.326 11.8552C20.326 10.4167 19.9483 9.00339 19.2307 7.75669C19.2269 7.7429 19.2223 7.72933 19.2171 7.71603C19.2061 7.70179 19.1942 7.68829 19.1814 7.67564C18.4637 6.45591 17.447 5.4392 16.2273 4.72149C16.2177 4.70827 16.2056 4.69709 16.1916 4.68861C16.1777 4.68014 16.1622 4.67453 16.1461 4.67211C14.8994 3.95457 13.4862 3.57691 12.0479 3.5769C10.6095 3.57689 9.19628 3.95453 7.94963 4.67206C7.93347 4.67447 7.91795 4.68009 7.90399 4.68858C7.89003 4.69707 7.8779 4.70825 7.86831 4.72149C6.6484 5.43929 5.63157 6.45618 4.91385 7.67614C4.90127 7.68864 4.88953 7.70197 4.87871 7.71603C4.87353 7.72909 4.86905 7.74241 4.86528 7.75595C4.14738 9.00283 3.76953 10.4164 3.76953 11.8552C3.76953 13.2939 4.14738 14.7075 4.86528 15.9544C4.86905 15.9679 4.87353 15.9812 4.87871 15.9943C4.89345 16.0178 4.91046 16.0397 4.92948 16.0599C5.64629 17.2685 6.65728 18.2761 7.86831 18.9888C7.88095 19.0016 7.89443 19.0135 7.90866 19.0244C7.92687 19.0335 7.94573 19.0413 7.96507 19.0477C9.20813 19.7591 10.6155 20.1334 12.0478 20.1334C13.48 20.1334 14.8874 19.7591 16.1305 19.0477C16.1498 19.0413 16.1687 19.0335 16.1869 19.0244C16.2011 19.0135 16.2146 19.0016 16.2273 18.9888C17.4379 18.2764 18.4486 17.2692 19.1653 16.0611C19.1848 16.0406 19.2021 16.0182 19.2171 15.9943C19.2223 15.981 19.2269 15.9674 19.2307 15.9536ZM16.1204 18.0511L15.6493 17.235C15.6211 17.1862 15.5836 17.1434 15.5389 17.1091C15.4942 17.0748 15.4432 17.0497 15.3888 17.0351C15.3344 17.0205 15.2776 17.0168 15.2218 17.0241C15.1659 17.0315 15.1121 17.0498 15.0633 17.0779C15.0145 17.1061 14.9717 17.1436 14.9374 17.1883C14.9031 17.233 14.878 17.284 14.8634 17.3384C14.8488 17.3928 14.8451 17.4496 14.8524 17.5054C14.8598 17.5613 14.878 17.6151 14.9062 17.6639L15.3761 18.4779C14.4732 18.933 13.4862 19.1972 12.4767 19.2538V18.3151C12.4767 18.2013 12.4315 18.0922 12.3511 18.0118C12.2706 17.9313 12.1615 17.8862 12.0478 17.8862C11.934 17.8862 11.8249 17.9313 11.7445 18.0118C11.664 18.0922 11.6189 18.2013 11.6189 18.3151V19.2538C10.6094 19.1972 9.62236 18.933 8.7195 18.4779L9.18937 17.6639C9.21757 17.6151 9.23588 17.5613 9.24325 17.5054C9.25062 17.4495 9.24691 17.3927 9.23234 17.3383C9.21776 17.2839 9.1926 17.2328 9.15829 17.1881C9.12399 17.1434 9.08121 17.1059 9.0324 17.0777C8.9836 17.0496 8.92972 17.0313 8.87384 17.0239C8.81797 17.0166 8.76119 17.0203 8.70676 17.0349C8.65233 17.0495 8.60131 17.0747 8.55662 17.1091C8.51193 17.1434 8.47443 17.1862 8.44629 17.235L7.97515 18.0511C7.13106 17.4943 6.40872 16.7719 5.85187 15.9278L6.66794 15.4567C6.76642 15.3997 6.83827 15.3061 6.86769 15.1962C6.89711 15.0863 6.88169 14.9693 6.82483 14.8708C6.76797 14.7723 6.67432 14.7004 6.56447 14.6709C6.45461 14.6414 6.33755 14.6568 6.23902 14.7136L5.42506 15.1835C4.96994 14.2806 4.7058 13.2936 4.64913 12.2841H5.58809C5.70185 12.2841 5.81095 12.2389 5.89139 12.1585C5.97183 12.078 6.01702 11.9689 6.01702 11.8552C6.01702 11.7414 5.97183 11.6323 5.89139 11.5519C5.81095 11.4714 5.70185 11.4262 5.58809 11.4262H4.64912C4.70579 10.4167 4.96993 9.42969 5.42505 8.52679L6.23902 8.99676C6.33755 9.05357 6.45461 9.06892 6.56447 9.03945C6.67432 9.00997 6.76797 8.93808 6.82483 8.83957C6.88169 8.74106 6.89711 8.62401 6.86769 8.51414C6.83827 8.40427 6.76642 8.31058 6.66794 8.25367L5.85187 7.78246C6.40872 6.93836 7.13106 6.21603 7.97515 5.65917L8.44629 6.4753C8.47443 6.52412 8.51193 6.56692 8.55662 6.60125C8.60131 6.63558 8.65233 6.66076 8.70676 6.67537C8.76119 6.68997 8.81797 6.69371 8.87384 6.68637C8.92972 6.67902 8.9836 6.66074 9.0324 6.63257C9.08121 6.6044 9.12399 6.56688 9.15829 6.52217C9.1926 6.47746 9.21776 6.42643 9.23234 6.37199C9.24691 6.31755 9.25062 6.26078 9.24325 6.20491C9.23588 6.14904 9.21757 6.09517 9.18937 6.04637L8.71947 5.23239C9.62235 4.77727 10.6093 4.51313 11.6189 4.45646V5.39547C11.6189 5.50923 11.664 5.61833 11.7445 5.69877C11.8249 5.77921 11.934 5.8244 12.0478 5.8244C12.1615 5.8244 12.2706 5.77921 12.3511 5.69877C12.4315 5.61833 12.4767 5.50923 12.4767 5.39547V4.45649C13.4862 4.51316 14.4732 4.7773 15.3761 5.23243L14.9062 6.04641C14.8493 6.14495 14.8339 6.26205 14.8634 6.37194C14.8928 6.48184 14.9647 6.57554 15.0633 6.63242C15.1618 6.6893 15.2789 6.7047 15.3888 6.67524C15.4987 6.64578 15.5924 6.57388 15.6493 6.47534L16.1204 5.65921C16.9645 6.21608 17.6869 6.93843 18.2438 7.78255L17.4276 8.25368C17.3291 8.31059 17.2573 8.40428 17.2279 8.51414C17.1985 8.62401 17.2139 8.74107 17.2707 8.83957C17.3276 8.93808 17.4212 9.00998 17.5311 9.03945C17.641 9.06893 17.758 9.05357 17.8566 8.99676L18.6705 8.52686C19.1257 9.42974 19.3898 10.4167 19.4465 11.4262H18.5077C18.394 11.4262 18.2849 11.4714 18.2044 11.5519C18.124 11.6323 18.0788 11.7414 18.0788 11.8552C18.0788 11.9689 18.124 12.078 18.2044 12.1585C18.2849 12.2389 18.394 12.2841 18.5077 12.2841H19.4465C19.3898 13.2936 19.1257 14.2806 18.6705 15.1835L17.8566 14.7136C17.758 14.6568 17.641 14.6414 17.5311 14.6709C17.4212 14.7004 17.3276 14.7723 17.2707 14.8708C17.2139 14.9693 17.1985 15.0863 17.2279 15.1962C17.2573 15.3061 17.3291 15.3997 17.4276 15.4567L18.2438 15.9278C17.6869 16.7719 16.9645 17.4943 16.1204 18.0511Z" fill="#0E4271"/>
<path d="M23.0808 18.9475L21.4637 19.3657C23.1221 17.2309 24.0107 14.5985 23.9852 11.8953C23.9598 9.19219 23.0218 6.57693 21.3235 4.47375C19.6252 2.37058 17.2661 0.902868 14.6289 0.308684C11.9918 -0.285499 9.23123 0.0287028 6.79506 1.20032C4.35888 2.37194 2.38999 4.33226 1.20774 6.76329C0.0254957 9.19433 -0.300757 11.9535 0.281905 14.5932C0.864567 17.2329 2.32197 19.5984 4.4177 21.3059C6.51344 23.0134 9.12458 23.9627 11.8276 24H11.8335C11.9472 24.0007 12.0566 23.9562 12.1376 23.8763C12.2185 23.7964 12.2644 23.6875 12.2651 23.5738C12.2658 23.46 12.2213 23.3506 12.1414 23.2697C12.0615 23.1887 11.9527 23.1429 11.8389 23.1421C9.32377 23.1097 6.89341 22.2282 4.94224 20.6408C2.99107 19.0534 1.63359 16.8532 1.09009 14.3973C0.5466 11.9414 0.848992 9.37385 1.9482 7.1114C3.0474 4.84895 4.8789 3.02435 7.14549 1.9337C9.41207 0.843042 11.9807 0.550347 14.4346 1.10311C16.8884 1.65587 19.0835 3.02165 20.6635 4.9788C22.2435 6.93595 23.1158 9.36962 23.1388 11.8849C23.1617 14.4001 22.334 16.8493 20.79 18.835L20.9213 17.1497C20.9301 17.0363 20.8935 16.924 20.8196 16.8376C20.7456 16.7512 20.6404 16.6977 20.527 16.6888C20.4136 16.68 20.3014 16.7166 20.2149 16.7905C20.1285 16.8645 20.075 16.9697 20.0662 17.0831L19.859 19.7415C19.851 19.849 19.8687 19.9568 19.9107 20.056C19.9526 20.1552 20.0176 20.243 20.1003 20.312C20.183 20.3811 20.2809 20.4295 20.386 20.4532C20.4911 20.4769 20.6003 20.4752 20.7046 20.4482L23.2954 19.7782C23.35 19.7641 23.4012 19.7394 23.4462 19.7055C23.4912 19.6716 23.5291 19.6292 23.5577 19.5806C23.5863 19.5321 23.6051 19.4784 23.6129 19.4226C23.6208 19.3668 23.6176 19.3101 23.6035 19.2555C23.5894 19.201 23.5647 19.1497 23.5308 19.1047C23.4969 19.0597 23.4545 19.0219 23.4059 18.9933C23.3574 18.9646 23.3037 18.9459 23.2479 18.938C23.1921 18.9302 23.1354 18.9334 23.0808 18.9475Z" fill="#0E4271"/>
</g>
<defs>
<clipPath id="clip0_4001_8985">
<rect width="24" height="24" fill="white"/>
</clipPath>
</defs>
</svg>
