<svg width="24" height="24" viewBox="0 0 24 24" fill="none" xmlns="http://www.w3.org/2000/svg">
<path d="M11.3571 17.6491H12.6429V10.0637H11.3571V17.6491ZM12 7.94767C12.2246 7.94767 12.4127 7.8685 12.5644 7.71016C12.7153 7.55183 12.7907 7.35592 12.7907 7.12244C12.7907 6.88807 12.7149 6.69171 12.5631 6.53338C12.4114 6.37504 12.2237 6.29632 12 6.29722C11.7763 6.29811 11.5886 6.37728 11.4369 6.53472C11.2851 6.69216 11.2093 6.88852 11.2093 7.12378C11.2093 7.35905 11.2851 7.55496 11.4369 7.71151C11.5886 7.86805 11.7763 7.94677 12 7.94767ZM12.5876 23.7991C12.2085 23.9392 11.7915 23.9393 11.4123 23.7994C9.08944 22.9422 7.13947 21.3756 5.56243 19.0996C3.85414 16.6342 3 13.8562 3 10.7655V4.87577C3 4.05157 3.50561 3.31177 4.27351 3.01238L11.2735 0.283242C11.7407 0.101091 12.2593 0.101091 12.7265 0.283242L19.7265 3.01238C20.4944 3.31176 21 4.05156 21 4.87576V10.7655C21 13.8553 20.1459 16.6329 18.4376 19.0983C16.8605 21.3743 14.9105 22.9405 12.5876 23.7991ZM11.6873 22.4657C11.8891 22.54 12.1109 22.54 12.3127 22.4657C14.4015 21.6961 16.1401 20.2566 17.5286 18.1469C18.9857 15.9329 19.7143 13.4729 19.7143 10.7669V5.11007C19.7143 4.69734 19.4607 4.327 19.0759 4.17775L12.3616 1.57335C12.129 1.48311 11.871 1.48311 11.6384 1.57335L4.92408 4.17775C4.53928 4.327 4.28571 4.69733 4.28571 5.11007V10.7655C4.28571 13.4715 5.01429 15.9316 6.47143 18.1456C7.85987 20.2552 9.5985 21.696 11.6873 22.4657Z" fill="#0E4271"/>
</svg>
