<svg width="24" height="24" viewBox="0 0 24 24" fill="none" xmlns="http://www.w3.org/2000/svg">
<g clip-path="url(#clip0_4001_7243)">
<path d="M22.2581 6.53438C22.2139 6.55615 22.1744 6.58642 22.1419 6.62346C22.1094 6.6605 22.0845 6.70359 22.0687 6.75026C22.0528 6.79693 22.0463 6.84627 22.0495 6.89545C22.0528 6.94463 22.0657 6.99269 22.0875 7.03688C22.8533 8.57919 23.2513 10.278 23.25 12C23.25 14.225 22.5902 16.4001 21.354 18.2502C20.1179 20.1002 18.3609 21.5422 16.3052 22.3937C14.2495 23.2451 11.9875 23.4679 9.80524 23.0338C7.62295 22.5998 5.61839 21.5283 4.04505 19.955C2.47171 18.3816 1.40025 16.3771 0.966171 14.1948C0.532087 12.0125 0.754875 9.75049 1.60636 7.69482C2.45785 5.63915 3.89979 3.88214 5.74984 2.64598C7.59989 1.40981 9.77497 0.750009 12 0.750009C13.7051 0.743435 15.389 1.12832 16.9219 1.87501C17.006 1.89878 17.0958 1.89241 17.1757 1.857C17.2557 1.82159 17.3207 1.75936 17.3596 1.68108C17.3986 1.6028 17.4089 1.51337 17.3889 1.42827C17.3689 1.34317 17.3197 1.26773 17.25 1.21501C15.6161 0.41347 13.8199 -0.0022092 12 8.82987e-06C9.62663 8.82987e-06 7.30655 0.703797 5.33316 2.02237C3.35977 3.34095 1.8217 5.21509 0.913451 7.40781C0.00519937 9.60052 -0.232441 12.0133 0.230582 14.3411C0.693605 16.6689 1.83649 18.8071 3.51472 20.4853C5.19295 22.1635 7.33115 23.3064 9.65892 23.7694C11.9867 24.2325 14.3995 23.9948 16.5922 23.0866C18.7849 22.1783 20.6591 20.6402 21.9776 18.6669C23.2962 16.6935 24 14.3734 24 12C24.0053 10.161 23.5836 8.34586 22.7681 6.69751C22.7457 6.65297 22.7147 6.61335 22.6768 6.58096C22.6388 6.54856 22.5949 6.52406 22.5474 6.50887C22.4999 6.49368 22.4499 6.48811 22.4002 6.49249C22.3505 6.49687 22.3022 6.51112 22.2581 6.53438Z" fill="#0E4271"/>
<path d="M16.2475 6.04865C16.3011 5.96507 16.3193 5.86366 16.2982 5.76665C16.2771 5.66964 16.2184 5.58495 16.135 5.53115C14.5363 4.50836 12.6157 4.11312 10.743 4.42153C8.8703 4.72994 7.17789 5.72019 5.99156 7.20165C4.80523 8.68311 4.20886 10.551 4.31724 12.4459C4.42562 14.3407 5.2311 16.1284 6.57862 17.465C7.92613 18.8015 9.72042 19.5923 11.6161 19.6851C13.5117 19.778 15.3747 19.1664 16.8464 17.9679C18.3181 16.7695 19.2944 15.0691 19.5875 13.1939C19.8806 11.3187 19.4696 9.40146 18.4338 7.81115C18.4096 7.76439 18.3759 7.72324 18.3349 7.69036C18.2938 7.65748 18.2462 7.63361 18.1953 7.62031C18.1444 7.607 18.0913 7.60456 18.0394 7.61314C17.9875 7.62172 17.9379 7.64112 17.894 7.67009C17.8501 7.69906 17.8128 7.73695 17.7845 7.7813C17.7561 7.82564 17.7375 7.87545 17.7297 7.92748C17.7219 7.97952 17.7251 8.03261 17.7391 8.08331C17.7532 8.13401 17.7778 8.18119 17.8113 8.22177C18.7442 9.65794 19.1129 11.3884 18.8465 13.0801C18.5801 14.7718 17.6974 16.3052 16.3682 17.3852C15.0391 18.4651 13.3575 19.0153 11.6471 18.9298C9.93664 18.8443 8.31828 18.1291 7.10348 16.922C5.88868 15.7149 5.1633 14.1011 5.06694 12.3913C4.97059 10.6814 5.51007 8.99634 6.58156 7.66039C7.65305 6.32443 9.18082 5.432 10.8708 5.15487C12.5608 4.87774 14.2936 5.2355 15.7356 6.15928C15.8185 6.21126 15.9184 6.22878 16.0141 6.20812C16.1097 6.18745 16.1935 6.13022 16.2475 6.04865Z" fill="#0E4271"/>
<path d="M11.9998 9.21185C12.3454 9.21113 12.6881 9.27471 13.0104 9.39935C13.1032 9.4354 13.2064 9.43313 13.2975 9.39305C13.3886 9.35296 13.46 9.27834 13.4961 9.1856C13.5321 9.09285 13.5298 8.98959 13.4898 8.89851C13.4497 8.80744 13.3751 8.73602 13.2823 8.69997C12.5236 8.40258 11.6856 8.37576 10.9094 8.62403C10.1333 8.8723 9.46638 9.38048 9.02111 10.063C8.57584 10.7455 8.37939 11.5606 8.46486 12.371C8.55033 13.1814 8.91249 13.9376 9.49034 14.5122C10.0682 15.0868 10.8264 15.4447 11.6373 15.5256C12.4482 15.6065 13.2622 15.4054 13.9421 14.9563C14.6221 14.5072 15.1265 13.8374 15.3704 13.0599C15.6143 12.2823 15.5827 11.4445 15.2811 10.6875C15.2438 10.5952 15.1714 10.5216 15.0798 10.4827C14.9882 10.4439 14.8849 10.443 14.7926 10.4803C14.7004 10.5176 14.6267 10.59 14.5879 10.6816C14.549 10.7732 14.5481 10.8765 14.5854 10.9687C14.8083 11.525 14.8467 12.1381 14.695 12.7178C14.5432 13.2975 14.2093 13.8132 13.7424 14.1889C13.2755 14.5645 12.7003 14.7804 12.1016 14.8045C11.5028 14.8287 10.9121 14.66 10.4164 14.3232C9.92078 13.9864 9.54637 13.4994 9.34834 12.9338C9.15031 12.3682 9.13914 11.754 9.31646 11.1815C9.49378 10.6091 9.85022 10.1088 10.3333 9.75417C10.8164 9.39957 11.4006 9.20946 11.9998 9.21185Z" fill="#0E4271"/>
<path d="M17.2396 2.98131L17.4383 6.03194L11.7271 11.7432C11.6567 11.8136 11.6172 11.909 11.6172 12.0085C11.6172 12.108 11.6567 12.2034 11.7271 12.2738C11.7974 12.3442 11.8929 12.3837 11.9924 12.3837C12.0919 12.3837 12.1873 12.3442 12.2577 12.2738L17.969 6.56256L21.0196 6.76131H21.044C21.1433 6.76089 21.2383 6.72111 21.3083 6.65069L23.8996 4.05944C23.9505 4.00851 23.9857 3.94399 24.001 3.87359C24.0162 3.80318 24.0109 3.72988 23.9856 3.66244C23.9602 3.595 23.916 3.53627 23.8582 3.49329C23.8004 3.45031 23.7315 3.42489 23.6596 3.42006L20.894 3.23256C20.8634 3.17577 20.8172 3.12892 20.7608 3.09756L20.5733 0.331938C20.5663 0.261611 20.5396 0.194697 20.4962 0.13891C20.4528 0.0831225 20.3945 0.0407328 20.3281 0.0166272C20.2617 -0.00747845 20.1898 -0.0123186 20.1207 0.00266464C20.0516 0.0176479 19.9882 0.0518446 19.9377 0.101313L17.3483 2.69256C17.3108 2.73022 17.2816 2.77545 17.2629 2.82523C17.2441 2.87502 17.2362 2.92822 17.2396 2.98131ZM20.8977 6.00006L18.674 5.85381L20.5583 3.96944L22.7821 4.11569L20.8977 6.00006ZM19.8758 1.21694L20.0221 3.44069L18.1433 5.32694L18.0008 3.10319L19.8758 1.21694Z" fill="#0E4271"/>
</g>
<defs>
<clipPath id="clip0_4001_7243">
<rect width="24" height="24" fill="white"/>
</clipPath>
</defs>
</svg>
