<svg width="24" height="24" viewBox="0 0 24 24" fill="none" xmlns="http://www.w3.org/2000/svg">
<path d="M12 22.5C6.21 22.5 1.5 17.79 1.5 12C1.5 6.21 6.21 1.5 12 1.5C17.79 1.5 22.5 6.21 22.5 12C22.5 17.79 17.79 22.5 12 22.5ZM12 3C7.035 3 3 7.035 3 12C3 16.965 7.035 21 12 21C16.965 21 21 16.965 21 12C21 7.035 16.965 3 12 3Z" fill="#0E4271"/>
<path d="M12 10.125C12.6213 10.125 13.125 9.62132 13.125 9C13.125 8.37868 12.6213 7.875 12 7.875C11.3787 7.875 10.875 8.37868 10.875 9C10.875 9.62132 11.3787 10.125 12 10.125Z" fill="#0E4271"/>
<path d="M12 18C11.58 18 11.25 17.67 11.25 17.25V12.75C11.25 12.33 11.58 12 12 12C12.42 12 12.75 12.33 12.75 12.75V17.25C12.75 17.67 12.42 18 12 18Z" fill="#0E4271"/>
</svg>
