<svg width="64" height="65" viewBox="0 0 64 65" fill="none" xmlns="http://www.w3.org/2000/svg">
<g clip-path="url(#clip0_835_3588)">
<path d="M62.8626 12.9735C62.0334 11.9932 60.8721 11.3945 59.5925 11.2876L14.5231 7.52438C13.2433 7.41751 11.9991 7.81538 11.0187 8.6445C10.0423 9.47038 9.44446 10.6257 9.33421 11.8991L8.42747 20.4061H4.80686C2.15637 20.4061 0 22.5624 0 25.2129V53.4256C0 56.0761 2.15637 58.2324 4.80686 58.2324H50.0333C52.6839 58.2324 54.8403 56.0761 54.8403 53.4256V48.849L56.4452 48.983C56.5805 48.9942 56.7151 48.9998 56.8486 48.9998C59.3196 48.9998 61.4261 47.0987 61.6354 44.5927L63.983 16.478C64.0897 15.1984 63.6919 13.9539 62.8626 12.9735ZM4.80686 22.9061H50.0333C51.3053 22.9061 52.3403 23.9409 52.3403 25.2129V27.7837H2.49999V25.2129C2.49999 23.9409 3.53486 22.9061 4.80686 22.9061ZM2.49999 30.2837H52.3403V35.4698H2.49999V30.2837ZM50.0333 55.7324H4.80686C3.53486 55.7324 2.49999 54.6976 2.49999 53.4256V37.9698H52.3403V53.4256C52.3403 54.6976 51.3053 55.7324 50.0333 55.7324ZM61.4916 16.2698L59.144 44.3846C59.0381 45.6522 57.9205 46.5979 56.6532 46.4916L54.8403 46.3402V25.2129C54.8403 22.5624 52.6839 20.4061 50.0333 20.4061H10.9417L11.8216 12.1511C11.8226 12.1416 11.8235 12.1322 11.8242 12.1226C11.9301 10.855 13.0471 9.9095 14.3151 10.0157L59.3846 13.779C59.9988 13.8302 60.5561 14.1176 60.954 14.5881C61.3519 15.0586 61.5429 15.6557 61.4916 16.2698Z" fill="#0E4271"/>
<path d="M47.1093 41.6863H35.0791C34.3887 41.6863 33.8291 42.2459 33.8291 42.9363V50.7849C33.8291 51.4753 34.3887 52.0349 35.0791 52.0349H47.1093C47.7997 52.0349 48.3593 51.4753 48.3593 50.7849V42.9363C48.3593 42.2459 47.7997 41.6863 47.1093 41.6863ZM45.8593 49.5349H36.3291V44.1863H45.8593V49.5349Z" fill="#0E4271"/>
</g>
<defs>
<clipPath id="clip0_835_3588">
<rect width="64" height="64" fill="white" transform="translate(0 0.869873)"/>
</clipPath>
</defs>
</svg>
