<svg width="64" height="65" viewBox="0 0 64 65" fill="none" xmlns="http://www.w3.org/2000/svg">
<path d="M58.3573 10.5324C54.6959 6.58043 49.5324 4.32393 44.5262 4.50363C40.4698 4.64762 36.1169 6.13301 32.0023 8.00924C27.1246 5.78289 23.0187 4.62937 19.4737 4.50363C14.4636 4.32491 9.30507 6.58043 5.64369 10.5319C2.24502 14.1996 0.584751 18.8869 1.08869 23.3912C1.60533 28.0077 4.48638 32.3454 7.02757 36.1728C7.50502 36.8923 7.96483 37.5904 8.40194 38.2747C6.7778 40.3796 6.91209 42.7381 8.08038 44.2476C8.82848 45.2144 10.061 45.8819 11.5699 45.8819C11.9813 45.8819 12.415 45.8265 12.8632 45.7196C12.5889 47.0756 12.9176 48.3849 13.6667 49.3524C14.4226 50.3285 15.661 51.0083 17.164 51.0078C17.6438 51.0078 18.1513 50.9349 18.6777 50.784C18.5165 52.0381 18.8658 53.2505 19.5577 54.1442C20.3156 55.1233 21.5471 55.8157 23.015 55.8157C23.1471 55.8157 23.2867 55.7909 23.4225 55.7795C23.3646 56.97 23.8273 58.1226 24.7837 58.9448C25.4214 59.4927 26.3502 59.9122 27.4254 59.9122C28.3474 59.9122 29.3777 59.6041 30.4266 58.8057C30.4332 58.8007 30.4413 58.7937 30.4478 58.7887C30.9822 59.2218 31.3224 59.4835 31.8408 59.8712C33.1387 60.8434 34.381 61.2429 35.468 61.2429C36.7396 61.2429 37.7992 60.6959 38.4897 59.8785C39.2265 59.0055 39.5953 57.7755 39.3942 56.4765C39.8784 56.6049 40.3458 56.6654 40.7896 56.6654C42.2927 56.6654 43.532 55.9857 44.2879 55.0095C45.0396 54.0382 45.3679 52.7224 45.0877 51.3606C45.5201 51.4603 45.9398 51.5127 46.3398 51.5127C47.8946 51.5127 49.176 50.8105 49.9563 49.8016C50.75 48.7763 51.0884 47.3795 50.7651 45.9389C51.1251 46.0096 51.4799 46.0465 51.8256 46.0465C53.3589 46.0465 54.7164 45.3843 55.608 44.354C56.8669 42.8979 57.2761 40.4914 55.651 38.1846C56.071 37.5303 56.5163 36.8589 56.9724 36.1728C59.5136 32.3454 62.3946 28.0077 62.9113 23.3912C63.4152 18.8869 61.7559 14.2001 58.3573 10.5324ZM9.66154 43.0233C8.83727 41.9583 9.02185 40.0651 10.9692 38.5069L12.5739 37.2148C15.0232 35.2401 19.1231 31.9347 21.2297 30.2964C22.8529 29.0361 24.3071 29.6167 25.0601 30.4976C25.7828 31.3414 26.0269 32.6481 24.9448 33.6663C23.5084 35.0193 17.686 40.1815 15.2492 42.1591C15.2221 42.1767 14.6508 42.6347 14.5818 42.6864C12.316 44.3814 10.479 44.0786 9.66154 43.0233ZM15.2479 48.1277C14.4914 47.1499 14.5043 45.4566 16.2042 43.9591C18.6147 42.0441 26.6318 34.8401 26.6832 34.7909C28.1374 33.4016 30.078 33.6526 31.1142 34.6971C32.209 35.8026 31.9492 37.4009 30.4198 38.9723C29.0435 40.387 23.5374 45.0672 20.9156 47.1655C20.8792 47.1876 20.1066 47.8016 19.9796 47.8967C17.835 49.5038 16.0575 49.1722 15.2479 48.1277ZM21.1389 52.9195C20.3893 51.9512 20.3316 50.3313 21.8573 48.969C23.5412 47.6315 26.9142 44.8089 29.3624 42.6564C29.3649 42.6541 29.3683 42.6536 29.3709 42.6513C31.0263 41.1336 32.7344 41.198 33.5655 42.0496C34.4699 42.9745 34.1398 44.5244 32.7256 45.9982C31.2607 47.5251 26.9801 51.707 25.4195 52.8761C23.4037 54.3859 21.8538 53.8439 21.1389 52.9195ZM29.2137 57.2147C27.8972 58.2192 26.735 57.9843 26.0884 57.4281C25.5716 56.9848 25.1715 56.132 25.5935 55.1238C25.9318 54.9449 26.2735 54.7355 26.6188 54.4768C28.2567 53.2495 32.3503 49.2522 33.9554 47.6034C34.8385 47.443 35.609 47.9315 35.971 48.5037C36.4739 49.2967 36.3196 50.2397 35.55 51.0903C33.3594 53.5114 30.6942 56.0867 29.2137 57.2147ZM36.9613 58.5884C36.137 59.5635 34.5978 59.4371 33.0391 58.27C32.6496 57.9786 32.3561 57.7532 32.0061 57.4743C33.0499 56.5375 34.2577 55.3631 35.4538 54.1201C35.7153 54.3331 35.9226 54.4964 36.2676 54.766C37.6883 56.1306 37.6949 57.7192 36.9613 58.5884ZM54.0952 43.0453C53.0864 44.2104 51.0276 44.5425 49.0392 42.9262C48.8676 42.7866 41.8657 36.9014 41.8327 36.8725C41.4157 36.5117 40.7838 36.5546 40.4224 36.9726C40.0601 37.3897 40.105 38.0215 40.522 38.3834C40.5554 38.4126 43.7682 41.1983 47.2088 44.0138C49.1799 45.6313 49.2039 47.5073 48.3751 48.5774C47.5186 49.6835 45.6386 50.0414 43.3728 48.343C43.303 48.2908 42.7085 47.8215 42.6691 47.7981C40.7399 46.2675 37.8623 43.7384 37.8295 43.7094C37.4164 43.3456 36.7855 43.3847 36.4183 43.7998C36.054 44.2143 36.094 44.8467 36.5091 45.2115C36.6523 45.3373 39.8203 48.1223 41.7771 49.6414C43.4483 51.1324 43.459 52.8123 42.7058 53.7848C41.8991 54.8293 40.1207 55.1619 37.973 53.5534C37.973 53.5534 37.0416 52.8326 36.825 52.6574C36.8936 52.5824 36.9647 52.5072 37.0326 52.4322C38.6782 50.6142 38.4369 48.658 37.6615 47.4338C37.1244 46.5869 36.3066 46.0073 35.396 45.7399C36.526 43.6911 36.1159 41.7967 34.9963 40.6516C34.3866 40.0277 33.549 39.6106 32.5981 39.4871C34.3813 37.0701 33.9251 34.6928 32.5352 33.2898C31.3834 32.127 29.4927 31.5458 27.6721 32.0112C27.65 30.9714 27.2379 29.966 26.5797 29.1972C25.1958 27.5784 22.5462 26.7385 20.0031 28.7172C17.8809 30.3662 13.7732 33.679 11.3189 35.6576L9.8554 36.8357C9.48062 36.2565 9.09455 35.6696 8.6937 35.0663C6.27752 31.4278 3.53905 27.3045 3.07711 23.1685C2.63762 19.2424 4.10745 15.1323 7.11059 11.8913C10.3833 8.35985 14.9695 6.33921 19.4034 6.50279C22.3097 6.60583 25.6712 7.47612 29.6251 9.14573C27.1214 10.3936 21.1858 13.6981 20.5197 14.0473C17.4248 15.6699 13.572 17.6891 11.9176 20.7001C10.9927 22.3828 11.3374 23.566 11.7906 24.2623C12.778 25.7819 15.1756 26.2986 17.1044 26.1345C19.5255 25.9304 21.9466 24.9967 24.2875 24.0943C27.1803 22.9785 30.1717 21.8202 33.0313 22.1362C34.8605 22.3359 37.5189 24.6232 39.1069 25.9895L39.48 26.3103C44.1619 30.3145 51.7923 37.1186 53.1665 38.3819C55.2057 40.259 54.941 42.0672 54.0952 43.0453ZM60.9229 23.1685C60.4609 27.3045 57.7224 31.4278 55.3063 35.0663C54.9459 35.6088 54.5923 36.1415 54.2515 36.665C52.3432 34.93 45.2314 28.5971 40.7799 24.7902L40.4117 24.4733C38.5327 22.8574 35.6946 20.4149 33.2481 20.1478C32.8448 20.1038 32.4434 20.0833 32.043 20.0833C29.1306 20.0833 26.3082 21.1713 23.5678 22.228C21.2561 23.1192 19.0723 23.961 16.9365 24.1412C15.452 24.2682 13.8962 23.8321 13.4675 23.1724C13.2419 22.8257 13.3102 22.3178 13.6696 21.663C15.035 19.1809 18.5909 17.3165 21.4485 15.8184C22.1321 15.4604 23.6273 14.6449 23.6273 14.6449C29.5643 11.3122 37.6957 6.74744 44.5965 6.50279C49.0441 6.34507 53.6186 8.36034 56.8904 11.8918C59.8935 15.1328 61.3633 19.2429 60.9229 23.1685Z" fill="#0E4271"/>
</svg>
