<svg width="32" height="32" viewBox="0 0 32 32" fill="none" xmlns="http://www.w3.org/2000/svg">
<g clip-path="url(#clip0_835_3660)">
<path d="M29.6959 15.2758C29.5906 15.1499 29.4833 15.0217 29.3753 14.89C28.7414 14.1169 28.531 13.1947 28.7666 12.2232C28.8067 12.0577 28.8477 11.8955 28.888 11.7363C29.2861 10.1627 29.6976 8.53541 28.2746 6.75109C26.8516 4.96672 25.1736 5.00584 23.5508 5.04378C23.3867 5.04759 23.2196 5.05153 23.0492 5.05384C22.0474 5.06628 21.1974 4.65697 20.5847 3.86703C20.4803 3.73241 20.3791 3.59928 20.2798 3.46859C19.2977 2.17622 18.2821 0.839844 15.9997 0.839844C13.7174 0.839844 12.7018 2.17622 11.7197 3.46859C11.6203 3.59928 11.5192 3.73241 11.4148 3.86703C10.8021 4.65703 9.9503 5.06741 8.95024 5.05391C8.77993 5.05159 8.6128 5.04766 8.44868 5.04384C6.8258 5.00597 5.1478 4.96678 3.72486 6.75116C2.30186 8.53547 2.71343 10.1627 3.11149 11.7364C3.15174 11.8956 3.19274 12.0577 3.23286 12.2232C3.46855 13.1948 3.25799 14.117 2.62418 14.8901C2.51618 15.0218 2.40893 15.15 2.30361 15.276C1.26218 16.5211 0.185365 17.8085 0.693177 20.0337C1.20099 22.2588 2.72974 22.9516 4.20824 23.6215C4.35786 23.6893 4.51018 23.7583 4.66468 23.8302C5.57118 24.2517 6.16093 24.9912 6.37024 25.9688C6.40586 26.1353 6.43924 26.2992 6.47205 26.46C6.79624 28.0505 7.13143 29.6952 9.18774 30.6855C11.244 31.6758 12.7389 30.9123 14.1846 30.1741C14.3308 30.0995 14.4797 30.0234 14.6321 29.9475C15.5268 29.5016 16.4727 29.5015 17.3675 29.9475C17.5199 30.0235 17.6689 30.0995 17.8151 30.1742C18.7671 30.6603 19.7403 31.1573 20.8812 31.1573C21.4729 31.1573 22.1097 31.0236 22.8119 30.6854C24.8682 29.6951 25.2034 28.0504 25.5276 26.4599C25.5604 26.299 25.5937 26.1353 25.6294 25.9688C25.8386 24.9912 26.4284 24.2517 27.3349 23.8301C27.4894 23.7583 27.6417 23.6892 27.7912 23.6215C29.2697 22.9515 30.7985 22.2587 31.3064 20.0337C31.8142 17.8085 30.7373 16.521 29.6959 15.2758ZM29.8439 19.6998C29.5016 21.1995 28.5749 21.6195 27.1721 22.2552C27.0181 22.3249 26.8613 22.396 26.7023 22.47C25.3716 23.0887 24.4696 24.2198 24.1625 25.6548C24.1258 25.8262 24.0914 25.9947 24.0577 26.1603C23.7501 27.6695 23.5469 28.6665 22.1609 29.334C20.7751 30.0013 19.8689 29.5386 18.4972 28.8382C18.3467 28.7614 18.1934 28.6831 18.0364 28.6049C17.3796 28.2776 16.6897 28.114 15.9996 28.114C15.3097 28.114 14.6195 28.2777 13.9629 28.6049C13.806 28.6831 13.6528 28.7613 13.5023 28.8381C12.1306 29.5386 11.2244 30.0012 9.83843 29.334C8.45249 28.6665 8.2493 27.6695 7.94168 26.1604C7.90793 25.9948 7.87355 25.8262 7.83686 25.6548C7.52968 24.2198 6.62768 23.0887 5.29705 22.47C5.13805 22.396 4.98124 22.325 4.82724 22.2551C3.42449 21.6194 2.49774 21.1995 2.15543 19.6998C1.81311 18.2 2.46593 17.4196 3.45399 16.2382C3.56243 16.1086 3.6728 15.9765 3.78393 15.841C4.71436 14.7062 5.0363 13.2957 4.69043 11.8696C4.64912 11.6992 4.60693 11.5323 4.56549 11.3685C4.18787 9.87534 3.9383 8.88897 4.89743 7.68628C5.85649 6.48353 6.87374 6.50722 8.41349 6.54328C8.58243 6.54722 8.75443 6.55122 8.92974 6.55359C10.3966 6.57234 11.7006 5.94572 12.5999 4.78616C12.7073 4.64759 12.8114 4.51059 12.9137 4.37603C13.8456 3.14978 14.4612 2.33972 15.9996 2.33972C17.5379 2.33972 18.1535 3.14978 19.0854 4.37603C19.1877 4.51059 19.2918 4.64759 19.3992 4.78616C20.2986 5.94578 21.6016 6.57341 23.0694 6.55359C23.2447 6.55122 23.4167 6.54722 23.5857 6.54328C25.1253 6.50728 26.1426 6.48359 27.1017 7.68628C28.0608 8.88891 27.8113 9.87534 27.4337 11.3685C27.3922 11.5323 27.3501 11.6992 27.3087 11.8695C26.9628 13.2957 27.2847 14.7062 28.2151 15.841C28.3262 15.9766 28.4366 16.1085 28.5451 16.2382C29.5334 17.4197 30.1862 18.2001 29.8439 19.6998ZM13.4674 12.3929C13.4674 10.799 12.1706 9.50228 10.5767 9.50228C8.98286 9.50228 7.68611 10.799 7.68611 12.3929C7.68611 13.9868 8.98286 15.2835 10.5767 15.2835C12.1706 15.2835 13.4674 13.9868 13.4674 12.3929ZM10.5768 13.7835C9.80999 13.7835 9.18618 13.1597 9.18618 12.3929C9.18618 11.6261 9.80999 11.0023 10.5768 11.0023C11.3436 11.0023 11.9674 11.6261 11.9674 12.3929C11.9674 13.1597 11.3436 13.7835 10.5768 13.7835ZM19.3916 11.9825L12.7291 21.831C12.5842 22.0453 12.3478 22.1608 12.1072 22.1608C11.9626 22.1608 11.8165 22.119 11.6877 22.0319C11.3446 21.7998 11.2546 21.3335 11.4867 20.9905L18.1492 11.142C18.3813 10.7989 18.8476 10.709 19.1907 10.941C19.5337 11.1732 19.6237 11.6394 19.3916 11.9825ZM20.3406 17.8573C18.7467 17.8573 17.4499 19.154 17.4499 20.7478C17.4499 22.3417 18.7467 23.6385 20.3406 23.6385C21.9344 23.6385 23.2312 22.3417 23.2312 20.7478C23.2312 19.154 21.9344 17.8573 20.3406 17.8573ZM20.3406 22.1385C19.5737 22.1385 18.9499 21.5147 18.9499 20.7478C18.9499 19.981 19.5737 19.3573 20.3406 19.3573C21.1074 19.3573 21.7312 19.981 21.7312 20.7478C21.7312 21.5147 21.1073 22.1385 20.3406 22.1385Z" fill="white"/>
</g>
<defs>
<clipPath id="clip0_835_3660">
<rect width="32" height="32" fill="white"/>
</clipPath>
</defs>
</svg>
