<svg width="32" height="32" viewBox="0 0 32 32" fill="none" xmlns="http://www.w3.org/2000/svg">
<g clip-path="url(#clip0_835_3665)">
<path d="M29.7528 13.9517C29.6303 10.4612 28.2168 7.19716 25.7348 4.71516C23.1333 2.11316 19.6758 0.680664 15.9998 0.680664C8.57529 0.680664 2.50879 6.59016 2.24729 13.9517C1.11429 14.4552 0.321289 15.5892 0.321289 16.9072V20.5382C0.321289 22.3212 1.77179 23.7722 3.55529 23.7722C4.70929 23.7722 5.64779 22.8337 5.64779 21.6797V15.7652C5.64779 14.6817 4.81679 13.7982 3.76029 13.6932C4.15029 7.27966 9.48929 2.18066 15.9998 2.18066C19.2758 2.18066 22.3563 3.45766 24.6748 5.77616C26.8038 7.90516 28.0498 10.6802 28.2373 13.6937C27.1818 13.7997 26.3523 14.6827 26.3523 15.7652V21.6792C26.3523 22.7717 27.1963 23.6607 28.2653 23.7532V25.2477C28.2653 26.9307 26.8958 28.2997 25.2128 28.2997H22.9523C22.8413 27.9827 22.6673 27.6897 22.4233 27.4467C21.9958 27.0172 21.4258 26.7807 20.8188 26.7807H18.4888C18.1543 26.7807 17.8333 26.8517 17.5393 26.9887C16.7373 27.3572 16.2193 28.1662 16.2193 29.0497C16.2193 29.6567 16.4558 30.2267 16.8843 30.6532C17.3128 31.0827 17.8828 31.3192 18.4888 31.3192H20.8188C21.7848 31.3192 22.6363 30.6947 22.9538 29.7997H25.2128C27.7233 29.7997 29.7653 27.7577 29.7653 25.2477V23.4862C30.8913 22.9797 31.6783 21.8497 31.6783 20.5372V16.9062C31.6783 15.5892 30.8853 14.4552 29.7528 13.9517ZM4.14729 15.7652V21.6792C4.14729 22.0057 3.88179 22.2717 3.55479 22.2717C2.59879 22.2717 1.82079 21.4937 1.82079 20.5377V16.9067C1.82079 15.9502 2.59879 15.1727 3.55479 15.1727C3.88179 15.1727 4.14729 15.4387 4.14729 15.7652ZM21.5713 29.2107C21.4968 29.5637 21.1798 29.8202 20.8183 29.8202H18.4883C18.2833 29.8202 18.0908 29.7402 17.9438 29.5932C17.7988 29.4487 17.7188 29.2557 17.7188 29.0507C17.7188 28.7512 17.8943 28.4777 18.1693 28.3512C18.2673 28.3052 18.3748 28.2817 18.4883 28.2817H20.8183C21.0233 28.2817 21.2158 28.3612 21.3623 28.5082C21.5073 28.6527 21.5873 28.8457 21.5873 29.0507C21.5878 29.1057 21.5818 29.1607 21.5713 29.2107ZM30.1783 20.5377C30.1783 21.4937 29.4003 22.2717 28.4443 22.2717C28.1178 22.2717 27.8518 22.0062 27.8518 21.6792V15.7652C27.8518 15.4387 28.1173 15.1727 28.4443 15.1727C29.4003 15.1727 30.1783 15.9507 30.1783 16.9067V20.5377Z" fill="white"/>
<path d="M20.8558 20.7963C22.6083 20.7963 24.0338 19.3703 24.0338 17.6183V11.1428C24.0338 10.2958 23.7028 9.49784 23.1018 8.89684C22.5008 8.29584 21.7033 7.96484 20.8558 7.96484H11.1428C9.39034 7.96484 7.96484 9.39034 7.96484 11.1428V17.6183C7.96484 19.3708 9.39034 20.7963 11.1428 20.7963H11.2023V22.4743C11.2023 23.1143 11.5838 23.6823 12.1738 23.9218C12.3643 23.9983 12.5623 24.0363 12.7583 24.0363C13.1668 24.0363 13.5648 23.8743 13.8563 23.5728L16.6478 20.7963H20.8558ZM15.8103 19.5143L12.7893 22.5188C12.7758 22.5328 12.7658 22.5433 12.7373 22.5308C12.7028 22.5168 12.7028 22.4943 12.7028 22.4743V20.0463C12.7028 19.6323 12.3673 19.2963 11.9528 19.2963H11.1433C10.2178 19.2963 9.46534 18.5433 9.46534 17.6183V11.1428C9.46534 10.2173 10.2178 9.46484 11.1433 9.46484H20.8563C21.3033 9.46484 21.7238 9.63984 22.0418 9.95734C22.3598 10.2753 22.5343 10.6963 22.5343 11.1428V17.6183C22.5343 18.5438 21.7813 19.2963 20.8563 19.2963H16.3393C16.1408 19.2963 15.9508 19.3748 15.8103 19.5143Z" fill="white"/>
<path d="M12.3565 13.3936C11.7465 13.3936 11.25 13.8906 11.25 14.5001C11.25 15.1096 11.747 15.6066 12.3565 15.6066C12.967 15.6066 13.464 15.1096 13.464 14.5001C13.464 13.8906 12.9675 13.3936 12.3565 13.3936Z" fill="white"/>
<path d="M15.9991 13.3936C15.3891 13.3936 14.8926 13.8906 14.8926 14.5001C14.8926 15.1096 15.3896 15.6066 15.9991 15.6066C16.6101 15.6066 17.1066 15.1096 17.1066 14.5001C17.1066 13.8906 16.6101 13.3936 15.9991 13.3936Z" fill="white"/>
<path d="M19.6426 13.3936C19.0326 13.3936 18.5361 13.8906 18.5361 14.5001C18.5361 15.1096 19.0331 15.6066 19.6426 15.6066C20.2531 15.6066 20.7501 15.1096 20.7501 14.5001C20.7501 13.8906 20.2531 13.3936 19.6426 13.3936Z" fill="white"/>
</g>
<defs>
<clipPath id="clip0_835_3665">
<rect width="32" height="32" fill="white"/>
</clipPath>
</defs>
</svg>
