<svg width="158" height="147" viewBox="0 0 158 147" fill="none" xmlns="http://www.w3.org/2000/svg">
<path d="M152.141 95.9729C153.692 89.1705 154.382 81.5432 154.194 73.2532C154.173 72.311 153.461 71.5284 152.526 71.4186C152.01 71.3586 145.116 70.6059 136.246 72.0263C135.768 66.3038 134.249 55.1577 129.614 53.2329C124.256 51.0037 113.662 59.1028 108.579 63.4063C105.215 57.5385 100.756 51.8614 95.175 46.4084C94.4838 45.7329 93.3939 45.6895 92.6492 46.3041C92.1507 46.7171 85.2421 52.5384 79.1956 62.2815C74.3197 58.6853 62.6565 50.7879 57.3197 53.2642C52.6519 55.4349 51.287 66.9242 50.892 72.848C39.6984 70.5261 32.6861 71.1317 32.2375 71.1786C31.717 71.2285 31.2408 71.4924 30.9224 71.9068C30.6031 72.3211 30.4702 72.849 30.5551 73.3649C32.1664 83.2052 35.2829 92.2529 39.8316 100.308C19.2271 101.683 10.8181 106.851 10.4545 107.081C10.0051 107.365 9.69591 107.824 9.6027 108.346C9.50949 108.87 9.63961 109.408 9.96261 109.829C30.5607 136.719 54.9636 142.546 72.2514 142.545C83.4165 142.544 91.5943 140.119 93.8755 139.36C96.457 140.161 106.565 143.014 119.395 143.014C138.662 143.013 164.047 136.573 179.218 107.07C179.633 106.262 179.416 105.273 178.7 104.715C178.178 104.307 166.441 95.3112 152.141 95.9729ZM128.163 56.7231C130.134 57.5422 131.912 65.3559 132.508 72.7365C126.853 73.9914 120.697 76.1987 115.007 79.9834C114.059 75.5048 112.521 71.1155 110.402 66.824C117.199 60.9887 125.598 55.6503 128.163 56.7231ZM58.9125 56.6917C61.4454 55.5095 70.1227 60.2307 77.2811 65.5661C75.0389 69.6705 73.0515 74.343 71.7316 79.4976C65.4496 76.8143 59.6898 74.9586 54.6254 73.7034C55.1022 65.9684 56.8407 57.6549 58.9125 56.6917ZM14.3803 109.339C17.9379 107.784 26.6367 104.775 42.0336 103.963C55.5561 125.121 76.1006 134.058 86.6996 137.432C73.1743 140.375 41.1439 142.746 14.3803 109.339ZM44.6526 101.027C44.6508 101.025 44.6489 101.022 44.6471 101.019C39.8353 93.2902 36.4789 84.5018 34.6581 74.8682C39.6014 74.7891 53.2749 75.5937 70.9035 83.247C70.4976 85.4843 70.2238 87.8003 70.1168 90.1912C69.4481 105.151 75.4319 119.791 87.8774 133.791C77.6733 130.489 57.4143 121.659 44.6526 101.027ZM93.8231 134.654C79.9305 120.39 73.2269 105.507 73.8922 90.3942C74.7994 69.7787 89.3555 54.5424 93.7898 50.3637C106.137 62.8979 112.392 76.5496 112.386 90.9627C112.379 112.526 98.2232 129.806 93.8231 134.654ZM116.166 90.9978C116.169 88.6839 116.004 86.3929 115.71 84.1206C128.589 74.7541 145.218 74.7782 150.442 75.05C150.506 83.364 149.636 90.9286 147.853 97.5593C147.846 97.587 147.838 97.6156 147.831 97.6432C138.8 131.165 109.132 135.206 98.1195 135.53C103.912 128.789 116.146 112.062 116.166 90.9978ZM106.402 138.409C120.711 136.072 143.037 127.862 151.145 99.8286C161.97 98.8716 171.689 104.532 175.091 106.794C156.625 140.964 123.97 141.211 106.402 138.409Z" fill="white"/>
</svg>
