<svg width="18" height="21" viewBox="0 0 18 21" fill="none" xmlns="http://www.w3.org/2000/svg">
<path d="M16 0.25H2C1.53604 0.250564 1.09125 0.435119 0.763186 0.763186C0.435119 1.09125 0.250564 1.53604 0.25 2V19.1953C0.249838 19.5078 0.333357 19.8146 0.491878 20.0839C0.6504 20.3532 0.87814 20.5751 1.15144 20.7266C1.42473 20.8781 1.73361 20.9536 2.04598 20.9454C2.35835 20.9371 2.66281 20.8454 2.92773 20.6797L8.86621 16.9678C8.90637 16.9434 8.9524 16.9305 8.99937 16.9303C9.04634 16.9301 9.09247 16.9427 9.13281 16.9668L15.0723 20.6797C15.3372 20.8454 15.6416 20.9371 15.954 20.9454C16.2664 20.9536 16.5753 20.8781 16.8486 20.7266C17.1218 20.5751 17.3496 20.3532 17.5081 20.0839C17.6666 19.8146 17.7502 19.5078 17.75 19.1953V2C17.7494 1.53604 17.5649 1.09125 17.2368 0.763186C16.9087 0.435119 16.464 0.250564 16 0.25ZM13.1978 7.77936L11.4285 9.1947C11.3558 9.25291 11.3021 9.33151 11.2744 9.42042C11.2467 9.50933 11.2462 9.6045 11.273 9.6937L12.0837 12.3967C12.112 12.4909 12.1099 12.5916 12.0776 12.6845C12.0453 12.7774 11.9845 12.8577 11.9038 12.914C11.8232 12.9703 11.7268 12.9997 11.6285 12.998C11.5302 12.9963 11.4349 12.9637 11.3562 12.9046L9.28027 11.3477C9.19942 11.2871 9.10107 11.2543 9 11.2543C8.89893 11.2543 8.80058 11.2871 8.71973 11.3477L6.644 12.9045C6.56532 12.9635 6.47002 12.9962 6.37168 12.9979C6.27334 12.9996 6.17699 12.9702 6.09633 12.9139C6.01568 12.8576 5.95485 12.7773 5.92251 12.6844C5.89017 12.5915 5.88797 12.4908 5.91622 12.3966L6.72701 9.69361C6.75382 9.60441 6.75333 9.50923 6.72562 9.42031C6.6979 9.33139 6.64423 9.25279 6.57149 9.19461L4.80225 7.77936C4.72668 7.71887 4.67176 7.6364 4.64509 7.54335C4.61842 7.4503 4.62132 7.35126 4.65338 7.25993C4.68544 7.16859 4.74508 7.08947 4.82406 7.03351C4.90304 6.97754 4.99745 6.94749 5.09425 6.94751H7.12086C7.21226 6.94752 7.30164 6.9207 7.37794 6.87038C7.45423 6.82006 7.51408 6.74845 7.55006 6.66443L8.5708 4.28308C8.60678 4.19907 8.66663 4.12746 8.74293 4.07714C8.81922 4.02682 8.90861 4 9 4C9.09139 4 9.18078 4.02682 9.25707 4.07714C9.33337 4.12746 9.39322 4.19907 9.4292 4.28308L10.45 6.66443C10.486 6.74845 10.5458 6.82006 10.6221 6.87038C10.6984 6.9207 10.7878 6.94752 10.8792 6.94751H12.9058C13.0026 6.9475 13.097 6.97756 13.176 7.03353C13.2549 7.0895 13.3146 7.16862 13.3466 7.25996C13.3787 7.35129 13.3816 7.45032 13.3549 7.54337C13.3282 7.63641 13.2733 7.71888 13.1978 7.77936Z" fill="#F3776D"/>
</svg>
