<svg width="60" height="56" viewBox="0 0 60 56" fill="none" xmlns="http://www.w3.org/2000/svg">
<path d="M23.9063 24.0624C23.9081 24.8592 24.0893 25.6468 24.4381 26.3742C24.787 27.1015 25.2957 27.7522 25.9313 28.2843C24.3746 28.6968 23.0089 29.5802 22.0485 30.7957C21.0881 32.0112 20.5874 33.49 20.625 34.9999V35.4374C20.625 36.2496 20.9707 37.0286 21.5861 37.6029C22.2014 38.1772 23.036 38.4999 23.9063 38.4999H36.0938C36.964 38.4999 37.7986 38.1772 38.414 37.6029C39.0293 37.0286 39.375 36.2496 39.375 35.4374V34.9999C39.4127 33.49 38.912 32.0112 37.9516 30.7957C36.9912 29.5802 35.6254 28.6968 34.0688 28.2843C34.8256 27.6507 35.4006 26.8505 35.7413 25.9565C36.0821 25.0624 36.1777 24.1031 36.0196 23.1657C35.8615 22.2284 35.4546 21.3429 34.836 20.5898C34.2174 19.8368 33.4068 19.2401 32.478 18.8543C31.5492 18.4684 30.5317 18.3056 29.5182 18.3806C28.5047 18.4556 27.5275 18.7661 26.6754 19.2838C25.8234 19.8015 25.1237 20.5099 24.64 21.3446C24.1564 22.1792 23.9041 23.1135 23.9063 24.0624ZM31.875 29.7499C32.6183 29.7344 33.3572 29.8595 34.0472 30.1179C34.7371 30.3762 35.3639 30.7623 35.8896 31.253C36.4153 31.7436 36.829 32.3286 37.1058 32.9726C37.3826 33.6166 37.5167 34.3062 37.5 34.9999V35.4374C37.5 35.7855 37.3519 36.1193 37.0881 36.3655C36.8244 36.6116 36.4667 36.7499 36.0938 36.7499H23.9063C23.5333 36.7499 23.1756 36.6116 22.9119 36.3655C22.6482 36.1193 22.5 35.7855 22.5 35.4374V34.9999C22.4834 34.3062 22.6175 33.6166 22.8943 32.9726C23.1711 32.3286 23.5848 31.7436 24.1105 31.253C24.6362 30.7623 25.2629 30.3762 25.9529 30.1179C26.6429 29.8595 27.3818 29.7344 28.125 29.7499H31.875ZM30 20.1249C30.8344 20.1249 31.6501 20.3558 32.3438 20.7885C33.0376 21.2211 33.5783 21.8361 33.8976 22.5556C34.2169 23.2751 34.3005 24.0668 34.1377 24.8306C33.9749 25.5944 33.5731 26.296 32.9831 26.8466C32.3931 27.3973 31.6414 27.7723 30.8231 27.9242C30.0047 28.0762 29.1565 27.9982 28.3856 27.7002C27.6147 27.4022 26.9558 26.8975 26.4923 26.25C26.0287 25.6024 25.7813 24.8412 25.7813 24.0624C25.7813 23.0181 26.2257 22.0166 27.0169 21.2782C27.8081 20.5397 28.8811 20.1249 30 20.1249Z" fill="#F3776D"/>
<path d="M48.75 16.45C48.7396 16.4129 48.7271 16.3764 48.7125 16.3406V16.2881C48.7125 16.2487 48.6703 16.2137 48.6469 16.1743C48.6478 16.1627 48.6478 16.151 48.6469 16.1393C48.6133 16.0902 48.574 16.0447 48.5297 16.0037L37.2797 5.50372C37.2358 5.46233 37.187 5.42564 37.1344 5.39434L37.0312 5.37684L36.9094 5.31559H36.8531L36.75 5.24997C36.6877 5.2435 36.6248 5.2435 36.5625 5.24997H12.1875C11.9389 5.24997 11.7004 5.34215 11.5246 5.50625C11.3488 5.67034 11.25 5.8929 11.25 6.12497V49.875C11.25 50.107 11.3488 50.3296 11.5246 50.4937C11.7004 50.6578 11.9389 50.75 12.1875 50.75H47.8125C48.0611 50.75 48.2996 50.6578 48.4754 50.4937C48.6512 50.3296 48.75 50.107 48.75 49.875V16.625C48.7569 16.5668 48.7569 16.5081 48.75 16.45ZM37.5 8.23809L45.5484 15.75H37.5V8.23809ZM13.125 49V6.99997H35.625V16.625C35.625 16.857 35.7238 17.0796 35.8996 17.2437C36.0754 17.4078 36.3139 17.5 36.5625 17.5H46.875V49H13.125Z" fill="#F3776D"/>
<path d="M19.6875 15.75H27.1875C27.4361 15.75 27.6746 15.6578 27.8504 15.4937C28.0262 15.3296 28.125 15.1071 28.125 14.875C28.125 14.6429 28.0262 14.4204 27.8504 14.2563C27.6746 14.0922 27.4361 14 27.1875 14H19.6875C19.4389 14 19.2004 14.0922 19.0246 14.2563C18.8488 14.4204 18.75 14.6429 18.75 14.875C18.75 15.1071 18.8488 15.3296 19.0246 15.4937C19.2004 15.6578 19.4389 15.75 19.6875 15.75Z" fill="#F3776D"/>
<path d="M25.3125 42H19.6875C19.4389 42 19.2004 42.0922 19.0246 42.2563C18.8488 42.4204 18.75 42.6429 18.75 42.875C18.75 43.1071 18.8488 43.3296 19.0246 43.4937C19.2004 43.6578 19.4389 43.75 19.6875 43.75H25.3125C25.5611 43.75 25.7996 43.6578 25.9754 43.4937C26.1512 43.3296 26.25 43.1071 26.25 42.875C26.25 42.6429 26.1512 42.4204 25.9754 42.2563C25.7996 42.0922 25.5611 42 25.3125 42Z" fill="#F3776D"/>
<path d="M40.3125 42H29.0625C28.8139 42 28.5754 42.0922 28.3996 42.2563C28.2238 42.4204 28.125 42.6429 28.125 42.875C28.125 43.1071 28.2238 43.3296 28.3996 43.4937C28.5754 43.6578 28.8139 43.75 29.0625 43.75H40.3125C40.5611 43.75 40.7996 43.6578 40.9754 43.4937C41.1512 43.3296 41.25 43.1071 41.25 42.875C41.25 42.6429 41.1512 42.4204 40.9754 42.2563C40.7996 42.0922 40.5611 42 40.3125 42Z" fill="#F3776D"/>
</svg>
