<svg width="56" height="56" viewBox="0 0 56 56" fill="none" xmlns="http://www.w3.org/2000/svg">
<path d="M44.3144 27.0593C44.0856 27.0919 43.8789 27.2137 43.7395 27.3981C43.6002 27.5825 43.5395 27.8146 43.5707 28.0437C43.6896 28.899 43.7496 29.7614 43.7501 30.6249C43.7501 34.2592 42.6724 37.8118 40.6533 40.8335C38.6342 43.8553 35.7645 46.2104 32.4069 47.6012C29.0493 48.992 25.3547 49.3559 21.7903 48.6469C18.2259 47.9378 14.9518 46.1878 12.382 43.618C9.81218 41.0482 8.06213 37.7741 7.35313 34.2097C6.64413 30.6453 7.00801 26.9507 8.39877 23.5931C9.78953 20.2355 12.1447 17.3657 15.1665 15.3467C18.1882 13.3276 21.7408 12.2499 25.3751 12.2499C26.2062 12.2504 27.0363 12.3059 27.8601 12.4162C28.0921 12.4469 28.3269 12.3842 28.5127 12.2419C28.6986 12.0995 28.8202 11.8892 28.851 11.6571C28.8817 11.425 28.819 11.1903 28.6767 11.0044C28.5343 10.8186 28.324 10.6969 28.0919 10.6662C23.9133 10.0973 19.6615 10.8554 15.9371 12.8335C12.2126 14.8116 9.20367 17.9098 7.33517 21.6904C5.46666 25.4711 4.83303 29.7432 5.52374 33.9034C6.21446 38.0636 8.19462 41.9018 11.1846 44.8758C14.1745 47.8498 18.0232 49.8093 22.1871 50.4778C26.351 51.1462 30.6196 50.4897 34.3902 48.601C38.1608 46.7123 41.2428 43.6868 43.2009 39.9518C45.1591 36.2168 45.8945 31.9611 45.3032 27.7855C45.2665 27.559 45.1423 27.356 44.9574 27.2201C44.7725 27.0843 44.5415 27.0265 44.3144 27.0593Z" fill="#F3776D"/>
<path d="M25.375 21C25.8805 20.9997 26.3851 21.0392 26.8844 21.1181C27.1164 21.1547 27.3535 21.0976 27.5435 20.9593C27.7334 20.8211 27.8606 20.613 27.8972 20.381C27.9337 20.1489 27.8766 19.9118 27.7384 19.7219C27.6001 19.5319 27.3921 19.4047 27.16 19.3681C26.569 19.2827 25.9722 19.2432 25.375 19.25C23.1252 19.25 20.926 19.9172 19.0554 21.1671C17.1848 22.417 15.7268 24.1935 14.8659 26.272C14.0049 28.3505 13.7797 30.6376 14.2186 32.8442C14.6575 35.0507 15.7408 37.0775 17.3317 38.6684C18.9225 40.2592 20.9493 41.3425 23.1559 41.7815C25.3624 42.2204 27.6495 41.9951 29.728 41.1341C31.8065 40.2732 33.5831 38.8152 34.833 36.9446C36.0829 35.074 36.75 32.8748 36.75 30.625C36.7505 29.9607 36.6934 29.2976 36.5794 28.6431C36.5385 28.4154 36.409 28.2131 36.2193 28.0806C36.0296 27.948 35.7952 27.896 35.5672 27.9359C35.3393 27.9758 35.1364 28.1044 35.0031 28.2936C34.8697 28.4827 34.8167 28.7169 34.8556 28.945C34.952 29.4998 35.0003 30.0619 35 30.625C35 32.5287 34.4355 34.3896 33.3779 35.9724C32.3203 37.5552 30.8171 38.7889 29.0583 39.5174C27.2996 40.2459 25.3643 40.4365 23.4973 40.0651C21.6302 39.6937 19.9152 38.777 18.5691 37.4309C17.223 36.0848 16.3063 34.3698 15.9349 32.5028C15.5636 30.6357 15.7542 28.7004 16.4827 26.9417C17.2112 25.183 18.4448 23.6797 20.0276 22.6221C21.6105 21.5645 23.4714 21 25.375 21Z" fill="#F3776D"/>
<path d="M52.4344 14.5381C52.3678 14.3784 52.2553 14.2421 52.1113 14.1463C51.9672 14.0505 51.798 13.9996 51.625 14H42V4.37497C42.0004 4.20197 41.9494 4.03275 41.8536 3.88869C41.7579 3.74463 41.6215 3.63219 41.4619 3.56559C41.3017 3.49968 41.1256 3.48278 40.9558 3.51705C40.786 3.55132 40.6302 3.63521 40.5081 3.75809L30.0081 14.2581C29.8438 14.4214 29.751 14.6433 29.75 14.875V25.0118L24.7581 30.0081C24.6665 30.0865 24.5921 30.1831 24.5396 30.2916C24.4871 30.4002 24.4576 30.5184 24.4529 30.6389C24.4483 30.7594 24.4686 30.8796 24.5126 30.9919C24.5566 31.1042 24.6233 31.2061 24.7086 31.2914C24.7938 31.3767 24.8958 31.4434 25.0081 31.4874C25.1204 31.5314 25.2405 31.5517 25.361 31.547C25.4815 31.5424 25.5998 31.5129 25.7083 31.4604C25.8169 31.4078 25.9134 31.3334 25.9919 31.2418L30.9881 26.25H41.125C41.3567 26.249 41.5785 26.1562 41.7419 25.9918L52.2419 15.4918C52.3648 15.3698 52.4486 15.214 52.4829 15.0442C52.5172 14.8744 52.5003 14.6983 52.4344 14.5381ZM31.5 15.2381L40.25 6.48809V14.5118L31.5 23.2618V15.2381ZM40.7619 24.5H32.7381L41.4881 15.75H49.5119L40.7619 24.5Z" fill="#F3776D"/>
</svg>
