<svg width="64" height="64" viewBox="0 0 64 64" fill="none" xmlns="http://www.w3.org/2000/svg">
<path d="M55.778 20.1774L40.0666 3.52585C38.9885 2.38323 37.7666 1.08823 36.1263 0.467353C34.665 -0.085897 33.0771 -0.017647 31.6762 0.042603L10.7942 0.939978C9.80146 0.982603 8.95346 1.58148 8.58121 2.50273C8.20896 3.42398 8.40296 4.44373 9.08733 5.1641L12.2557 8.49873L8.91171 15.3054C8.33533 16.4787 7.68183 17.8087 7.64033 19.2735C7.55896 22.1414 9.80783 24.416 11.5065 25.8775C17.4903 31.0261 24.7627 34.4706 32.5372 35.8389C33.542 36.0156 34.7376 36.1802 35.9817 36.1802C37.7238 36.1802 39.5611 35.8576 41.102 34.7945C42.4433 33.869 43.3603 32.5121 44.0313 31.1741L43.9531 44.011C43.946 45.1746 43.9388 46.3582 44.0228 47.5397C42.1193 50.6946 40.9003 52.9795 40.2982 54.5211C39.3606 56.922 39.036 59.1877 39.3336 61.2556C39.4181 61.8424 39.5782 62.593 40.0718 63.1951C40.4926 63.7084 41.102 63.9974 41.6907 63.9974C41.8998 63.9974 42.1065 63.9609 42.301 63.885C43.1677 63.547 43.4426 62.7092 43.6851 61.97C43.7905 61.649 43.89 61.3456 44.0277 61.1004C44.3525 60.5225 45.0662 60.1569 45.725 60.2311C46.42 60.3095 46.776 60.831 47.2798 61.6806C47.7517 62.4765 48.2866 63.3785 49.4071 63.5062C50.2885 63.6067 50.7276 63.2451 50.9407 62.9241C51.5251 62.0442 50.9736 60.5556 50.6003 59.8914C50.0175 58.8541 49.4035 57.814 48.8098 56.8082C48.5072 56.2956 48.2047 55.783 47.9051 55.2691C47.0597 53.819 46.1855 52.3195 45.6912 50.7146C45.3872 49.7274 45.2262 48.704 45.1422 47.6686C45.1421 47.6412 45.14 47.6141 45.1358 47.5872C45.0442 46.4004 45.0516 45.1984 45.0587 44.0176L45.1532 28.5109C45.1823 28.4339 45.2121 28.3556 45.2407 28.2795C45.8246 26.729 46.3761 25.2646 47.2836 23.9886L47.2416 23.9587C47.9147 23.9771 48.587 23.9877 49.2581 23.9877C50.977 23.9877 52.6896 23.9235 54.3966 23.7755C55.2258 23.7036 55.9248 23.1767 56.2205 22.4005C56.5141 21.6297 56.3446 20.7779 55.778 20.1774ZM43.7437 29.096C43.0988 30.7202 42.1443 32.7322 40.4741 33.8846C38.1672 35.4762 34.9488 35.1409 32.7288 34.7502C25.15 33.4165 18.0607 30.0586 12.2273 25.0396C10.7001 23.7254 8.67733 21.7012 8.74533 19.3049C8.78008 18.0805 9.37721 16.8651 9.90396 15.7929L13.0676 9.35335L20.5325 17.2099C20.8747 17.5701 21.2118 17.9544 21.5687 18.3611C22.539 19.4674 23.5425 20.6111 24.7627 21.3874C25.8757 22.0954 27.055 22.1567 28.1953 22.2161C28.35 22.2241 28.5058 22.2322 28.6628 22.242C30.0377 22.3274 31.4396 22.5054 32.7952 22.6775C33.3172 22.7437 33.839 22.81 34.3605 22.8715C37.6316 23.2567 40.8672 23.6112 44.0762 23.8132L44.0488 28.3056C43.9486 28.57 43.8472 28.8355 43.7437 29.096ZM46.95 55.826C47.2506 56.3416 47.5542 56.856 47.8577 57.3704C48.4485 58.3712 49.0593 59.4062 49.6365 60.4332C50.0208 61.1172 50.207 62.0307 50.0197 62.3129C49.9387 62.4349 49.6796 62.4249 49.5322 62.4081C48.985 62.3457 48.6811 61.8769 48.2306 61.117C47.7448 60.2979 47.1403 59.2784 45.8486 59.1327C44.7503 59.009 43.6052 59.5955 43.0637 60.559C42.873 60.8985 42.7517 61.2681 42.6345 61.6255C42.4137 62.2982 42.2542 62.7166 41.8992 62.8551C41.5661 62.985 41.1495 62.7661 40.9266 62.4942C40.6062 62.1035 40.4917 61.5429 40.4277 61.0982C40.1576 59.2216 40.4605 57.1441 41.3278 54.9232C41.8193 53.665 42.7952 51.7921 44.2346 49.3437C44.332 49.9131 44.4618 50.4795 44.6345 51.0401C45.1662 52.7666 46.073 54.3219 46.95 55.826ZM45.1715 25.4959L45.1813 23.8765C45.4567 23.8906 45.732 23.9035 46.007 23.9151C45.6917 24.4244 45.4186 24.955 45.1715 25.4959ZM55.1873 22.007C55.0417 22.3892 54.7105 22.6386 54.3011 22.6741C51.2905 22.9351 48.254 22.9302 45.1881 22.7705L45.1898 22.4849C45.1988 20.9914 45.2113 18.946 44.1001 17.4174C43.2265 16.2157 41.8198 15.5602 40.6896 15.0336L30.9052 10.4744C30.6285 10.3454 30.2996 10.4652 30.1707 10.7419C30.0417 11.0186 30.1616 11.3474 30.4382 11.4764L40.2226 16.0356C41.2903 16.5331 42.5003 17.097 43.2058 18.0674C44.0361 19.2094 44.0948 20.7405 44.0843 22.4781L44.083 22.7064C40.9182 22.5052 37.7218 22.1542 34.4898 21.7736C33.9716 21.7126 33.4532 21.6467 32.9345 21.5809C31.5615 21.4065 30.1417 21.2261 28.7312 21.1386C28.5706 21.1286 28.411 21.1204 28.2527 21.1121C27.164 21.0555 26.2236 21.0065 25.356 20.4546C24.2691 19.7632 23.3187 18.6799 22.3997 17.6321C22.0515 17.2351 21.6913 16.8245 21.3338 16.4484L9.88883 4.40273C9.50096 3.99448 9.39533 3.43898 9.60633 2.91685C9.81733 2.39473 10.2792 2.0686 10.8418 2.04435L31.7238 1.14685C33.0185 1.09123 34.4858 1.0281 35.7351 1.5011C37.1372 2.03185 38.2663 3.2286 39.2626 4.28448L54.974 20.936C55.2511 21.2299 55.331 21.6302 55.1873 22.007Z" fill="#0E4271"/>
</svg>
