<svg width="64" height="64" viewBox="0 0 64 64" fill="none" xmlns="http://www.w3.org/2000/svg">
<path d="M41.6861 13.0568C38.5236 11.2263 35.4758 11.0425 31.9468 10.8295L31.6326 10.8105C27.7371 10.5739 23.6786 12.6413 21.1788 14.6549C18.7666 16.598 16.9134 19.1393 15.9607 21.8105C14.8952 24.798 14.9678 27.8401 16.1711 30.6083C17.0373 32.6012 18.3197 34.3749 19.5598 36.0903L19.7643 36.3734C21.1383 38.2767 22.3356 40.013 23.0717 41.9914C24.3088 45.3163 24.1827 48.7698 24.0989 49.8897C23.8912 50.0458 23.6927 50.2229 23.5122 50.4263C23.0033 50.9997 22.0562 52.0669 22.7701 53.2157C22.8827 53.3969 23.0233 53.545 23.1783 53.6675C22.9732 53.8036 22.7976 53.9703 22.6649 54.1654C22.1899 54.8642 22.2737 55.8867 22.8684 56.6516C23.3558 57.2788 24.0561 57.6405 24.6741 57.9303C24.9589 58.0639 25.2469 58.1902 25.5362 58.3129C25.3016 58.4829 25.1146 58.6965 25.0026 58.95C24.6468 59.7543 24.8432 60.7675 25.5026 61.5312C26.0642 62.1817 26.8316 62.5519 27.5081 62.8284C29.4026 63.6026 31.4314 63.9978 33.4688 63.9978C34.1533 63.9978 34.8388 63.9531 35.5204 63.8634C36.2021 63.7735 36.9662 63.6004 37.4654 62.9968C37.7978 62.5949 37.9366 62.0641 37.8562 61.5024C37.7936 61.0644 37.6054 60.6474 37.3298 60.3045C37.3446 60.3035 37.3593 60.3029 37.3741 60.3018C39.0101 60.1883 40.0298 59.6419 40.4051 58.6782C40.7966 57.6725 40.2786 56.5987 39.5307 55.9853C39.6939 55.9537 39.8564 55.9124 40.0186 55.8574C40.9954 55.526 41.6873 54.7438 41.7813 53.8647C41.9002 52.7523 41.2891 51.8215 39.9662 51.0947C39.6148 47.3594 40.2881 43.6122 42.1426 38.9713C42.2261 38.7625 42.3076 38.5558 42.3883 38.351C42.9563 36.9115 43.4928 35.5519 44.3939 34.2384C44.6868 33.8115 44.9984 33.3815 45.2999 32.9657C46.1066 31.853 46.9404 30.7024 47.5618 29.4188C49.0352 26.3753 49.1581 22.6866 47.8909 19.5516C46.5408 16.2118 43.9967 14.3941 41.6861 13.0568ZM36.6137 62.2923C36.3583 62.6009 35.8448 62.7057 35.3762 62.7675C32.8557 63.0997 30.2797 62.7669 27.9264 61.8051C27.3712 61.5783 26.7484 61.2824 26.3394 60.8088C26.0267 60.4465 25.8047 59.8696 26.0137 59.3973C26.1622 59.0614 26.9107 58.848 27.5722 59.0779C27.5754 59.079 27.5788 59.0793 27.5822 59.0803C29.5397 59.7212 31.5694 60.1264 33.6222 60.285C33.7704 60.2969 33.9227 60.3074 34.0836 60.3175C34.8143 60.3631 35.7236 60.42 36.1927 60.7378C36.4872 60.9374 36.7107 61.2989 36.7621 61.6588C36.7872 61.8355 36.7819 62.0888 36.6137 62.2923ZM39.3749 58.2771C39.1684 58.8074 38.4696 59.1176 37.2976 59.199C36.2634 59.2708 35.2272 59.2761 34.1958 59.2169C34.1813 59.216 34.1667 59.215 34.1523 59.2141C34.1438 59.2136 34.1357 59.2132 34.1272 59.2127C31.0247 59.026 27.9672 58.2537 25.1434 56.9295C24.6418 56.6943 24.0784 56.407 23.7413 55.9733C23.4908 55.651 23.3489 55.1258 23.5793 54.7868C23.7199 54.5798 24.0097 54.4328 24.3543 54.3934C24.6809 54.3562 25.6961 54.4758 26.2802 54.5779C26.2804 54.5779 26.2807 54.5779 26.2809 54.578C29.5283 55.1929 32.8249 55.6413 36.1181 55.9168C36.9822 56.066 38.1789 56.3768 38.7343 56.7672C39.2084 57.1004 39.5777 57.7563 39.3749 58.2771ZM40.6822 53.7472C40.6272 54.2617 40.1309 54.6519 39.6634 54.8105C39.0946 55.0035 38.4448 54.9785 37.7156 54.9294C33.4196 54.6397 29.1036 54.0493 24.8876 53.1748C24.4204 53.0779 23.9056 52.948 23.7092 52.6322C23.4737 52.2532 23.7366 51.839 24.3392 51.16C24.7999 50.6409 25.5527 50.2379 26.4587 50.0254C27.0872 49.8779 27.7342 49.8334 28.3697 49.8334C28.6914 49.8334 29.0102 49.8448 29.3219 49.8601C29.4164 49.8648 29.5111 49.8698 29.6056 49.8753C31.9637 50.0113 34.3158 50.4055 36.5964 51.0471L36.8139 51.1078C37.4981 51.2977 38.4351 51.5578 39.2384 51.9603C40.7901 52.7374 40.7088 53.4974 40.6822 53.7472ZM33.5302 43.6137C33.4563 45.433 33.3787 47.3079 33.2724 49.175C32.0782 48.9763 30.8744 48.8409 29.6691 48.7714C29.5713 48.7658 29.4736 48.7605 29.3757 48.7558C29.0916 48.7419 28.7917 48.732 28.4837 48.73C29.8309 45.2968 30.6066 41.6469 30.7806 37.9663C31.7032 38.2101 32.7052 38.2457 33.6767 38.0507C33.7137 38.0433 33.7506 38.0355 33.7876 38.0274C33.6807 39.9054 33.6044 41.7874 33.5302 43.6137ZM46.5669 28.9371C45.9881 30.1329 45.1833 31.2433 44.4049 32.3169C44.0994 32.7385 43.7834 33.1743 43.4826 33.613C42.5106 35.0298 41.9518 36.4459 41.3601 37.9453C41.2799 38.1487 41.1989 38.3538 41.1161 38.5611C39.2946 43.1191 38.5734 46.8642 38.8156 50.5768C38.1874 50.342 37.5696 50.1702 37.1094 50.0424L36.8957 49.9829C36.0616 49.7482 35.2179 49.5473 34.3683 49.3772C34.4793 47.4553 34.5589 45.5277 34.6348 43.6585C34.7142 41.7029 34.7961 39.6829 34.9153 37.6779C35.9859 37.2467 36.9999 36.5494 37.8534 35.646C38.6443 34.8089 39.0212 34.0126 39.0056 33.2115C38.9936 32.588 38.6571 31.9658 38.1277 31.5876C37.6563 31.2509 37.0889 31.1533 36.5708 31.3196C35.2033 31.7588 34.4851 33.634 34.3549 34.0054C34.0251 34.9472 33.9226 35.9184 33.8578 36.8718C33.7253 36.9085 33.5921 36.9403 33.4589 36.967C32.5628 37.1469 31.6396 37.0919 30.8151 36.827C30.8307 35.6687 30.7866 34.5086 30.6819 33.3536C30.6283 32.7607 30.5482 32.1353 30.2184 31.5804C29.7963 30.8701 29.0073 30.4776 28.2998 30.6259C27.3286 30.8295 26.8936 31.8435 26.8163 32.65C26.6573 34.3093 27.4756 36.051 28.9011 37.0874C29.1481 37.267 29.4127 37.4254 29.6909 37.5618C29.5511 41.4045 28.7326 45.2187 27.2721 48.78C26.9167 48.814 26.5589 48.8661 26.2058 48.949C25.9163 49.0169 25.5849 49.1145 25.2428 49.253C25.3246 47.0816 25.0657 44.1806 24.1078 41.606C23.3234 39.498 22.0827 37.696 20.6607 35.7265L20.4557 35.4428C19.2501 33.775 18.0033 32.0506 17.1848 30.1676C14.7659 24.6031 17.7961 18.7994 21.8722 15.5159C24.1038 13.7183 27.9814 11.6965 31.5653 11.9142L31.8801 11.9333C35.2689 12.1378 38.1958 12.3143 41.1321 14.0138C44.1769 15.7761 45.8917 17.5563 46.8658 19.9663C48.0182 22.8163 47.9063 26.1699 46.5669 28.9371ZM35.0014 36.427C35.0652 35.7218 35.1703 35.022 35.3984 34.3707C35.6862 33.5493 36.2814 32.5735 36.9089 32.3719C36.9687 32.3527 37.0266 32.3445 37.0819 32.3445C37.2456 32.3445 37.3864 32.4163 37.4851 32.4869C37.7282 32.6607 37.8951 32.9604 37.9003 33.2328C37.9099 33.7298 37.6317 34.2708 37.0498 34.8867C36.4404 35.5317 35.7411 36.0546 35.0014 36.427ZM29.7127 36.3046C29.6578 36.2687 29.6042 36.2315 29.5512 36.1931C28.4358 35.3823 27.7943 34.0329 27.9168 32.7554C27.9614 32.2889 28.1853 31.7793 28.5266 31.7078C28.5536 31.7021 28.5813 31.6994 28.6098 31.6994C28.8394 31.6994 29.1093 31.8777 29.2682 32.145C29.4799 32.5013 29.5371 32.967 29.5811 33.4532C29.6671 34.4017 29.7108 35.3531 29.7127 36.3046ZM29.3697 15.4368C29.4847 15.7195 29.3487 16.042 29.0658 16.157C26.8531 17.057 24.3449 18.0771 22.6842 19.9558C20.3333 22.615 20.1339 26.9417 22.2302 29.8058C22.4104 30.0521 22.3569 30.398 22.1106 30.5783C22.0122 30.6503 21.8979 30.685 21.7846 30.685C21.6143 30.685 21.4463 30.6066 21.3381 30.4586C18.9471 27.1918 19.1744 22.2566 21.8559 19.2235C23.6883 17.1507 26.3239 16.0788 28.6493 15.1329C28.9321 15.018 29.2547 15.154 29.3697 15.4368ZM33.7207 5.87015L33.9602 0.529899C33.9738 0.224899 34.2328 -0.0112256 34.5371 0.00252442C34.8421 0.0161494 35.0782 0.274524 35.0644 0.579399L34.8249 5.91965C34.8116 6.21615 34.5671 6.44765 34.2732 6.44765C34.2648 6.44765 34.2564 6.44752 34.2479 6.44715C33.9432 6.4334 33.7071 6.17515 33.7207 5.87015ZM51.3498 5.08265C49.4173 6.21315 47.7761 7.81877 46.6034 9.72602C46.4991 9.89577 46.3177 9.98927 46.1321 9.98927C46.0333 9.98927 45.9334 9.96278 45.8431 9.90728C45.5831 9.7474 45.5018 9.4069 45.6617 9.1469C46.9291 7.08565 48.7031 5.35027 50.7916 4.1284C51.0551 3.97427 51.3936 4.0629 51.5477 4.3264C51.7019 4.5899 51.6133 4.92852 51.3498 5.08265ZM57.8828 15.1573L52.4223 18.4281C52.3334 18.4814 52.2354 18.5068 52.1388 18.5068C51.9509 18.5068 51.7677 18.4109 51.6641 18.238C51.5072 17.9761 51.5923 17.6367 51.8542 17.4798L57.3147 14.2089C57.5764 14.052 57.9161 14.1371 58.0729 14.399C58.2298 14.6609 58.1447 15.0004 57.8828 15.1573ZM60.6742 26.6284C60.6742 26.9336 60.4267 27.1811 60.1214 27.1811H54.0437C53.7384 27.1811 53.4909 26.9336 53.4909 26.6284C53.4909 26.3231 53.7384 26.0756 54.0437 26.0756H60.1214C60.4267 26.0756 60.6742 26.3231 60.6742 26.6284ZM16.6497 4.49002C16.7894 4.21865 17.1229 4.11202 17.3942 4.2519C19.3837 5.27727 21.0964 6.90877 22.2171 8.84615C22.3699 9.1104 22.2797 9.44852 22.0154 9.6014C21.9282 9.65177 21.8331 9.67577 21.7392 9.67577C21.5483 9.67577 21.3627 9.57677 21.2602 9.39965C20.2442 7.64327 18.6914 6.16415 16.8877 5.23452C16.6164 5.09477 16.5098 4.7614 16.6497 4.49002ZM13.2263 18.179C13.1717 18.4395 12.9419 18.6185 12.6859 18.6185C12.6483 18.6185 12.6102 18.6146 12.5719 18.6066L6.41718 17.3164C6.11843 17.2538 5.92693 16.9608 5.98955 16.662C6.05218 16.3633 6.34493 16.1718 6.64405 16.2344L12.7988 17.5246C13.0976 17.5873 13.2889 17.8803 13.2263 18.179ZM11.8646 28.0179C11.8631 28.3223 11.6159 28.568 11.3119 28.568C11.3111 28.568 11.3102 28.568 11.3093 28.568L3.8763 28.5331C3.57105 28.5317 3.32468 28.283 3.32618 27.9778C3.32768 27.6734 3.5748 27.4276 3.8788 27.4276H3.88143L11.3144 27.4625C11.6197 27.464 11.8659 27.7126 11.8646 28.0179Z" fill="#0E4271"/>
</svg>
