<svg width="64" height="64" viewBox="0 0 64 64" fill="none" xmlns="http://www.w3.org/2000/svg">
<g clip-path="url(#clip0_758_5253)">
<path d="M15.8499 15.3751C19.8999 21.5626 20.8749 21.8001 21.2374 21.8876C21.2999 21.9001 21.3749 21.9251 21.5124 21.9251C22.0874 21.9251 23.7374 21.6001 29.5749 19.3001C33.1999 17.8751 36.9624 16.2501 37.7874 15.7501C38.1374 15.5376 38.3499 15.2126 38.3999 14.8251C38.5624 13.5001 36.8249 11.4376 33.9624 8.55008C33.4624 8.05008 32.7124 7.88758 32.0499 8.13758C30.3874 8.76258 26.2749 9.93758 22.6499 10.9751C20.3874 11.6251 18.2624 12.2251 16.7999 12.6751C16.2499 12.8376 15.8374 13.2501 15.6374 13.7876C15.4624 14.3251 15.5374 14.9001 15.8499 15.3751ZM16.7249 14.1626C16.7999 13.9626 16.9499 13.8126 17.1499 13.7501C18.5999 13.3001 20.7249 12.7001 22.9749 12.0501C26.7999 10.9626 30.7499 9.82508 32.4624 9.18758C32.6999 9.10008 32.9874 9.16258 33.1624 9.33758C34.0999 10.2876 35.1749 11.3876 36.0124 12.4251C37.2499 13.9626 37.2999 14.5376 37.2749 14.6751C37.2749 14.7251 37.2624 14.7376 37.1999 14.7751C36.5249 15.1751 33.0999 16.6876 29.2749 18.2001C23.8999 20.3251 21.8624 20.8251 21.4874 20.7876C21.1249 20.6626 19.7249 19.2626 16.7749 14.7501C16.6749 14.5876 16.6499 14.3626 16.7249 14.1626ZM33.3374 34.9251C34.4624 33.9126 45.0374 30.0751 48.3249 29.3626C48.6249 29.3001 48.9374 29.4876 48.9999 29.8001C49.0624 30.1126 48.8749 30.4126 48.5624 30.4751C45.1124 31.2251 34.8999 35.0501 34.0874 35.7751C33.9749 35.8751 33.8374 35.9251 33.7124 35.9251C33.5624 35.9251 33.3999 35.8626 33.2874 35.7376C33.0874 35.5001 33.0999 35.1376 33.3374 34.9251ZM47.3624 33.6001C47.4249 33.9126 47.2124 34.2001 46.9124 34.2626C42.8124 35.0251 37.9124 37.2876 36.5499 38.2376C36.4499 38.3001 36.3374 38.3376 36.2249 38.3376C36.0499 38.3376 35.8749 38.2501 35.7624 38.1001C35.5874 37.8376 35.6499 37.4876 35.8999 37.3126C37.3749 36.2876 42.3874 33.9501 46.7124 33.1501C47.0124 33.0876 47.3124 33.2876 47.3624 33.6001ZM48.7249 32.5376L49.7124 32.3501C50.0249 32.2876 50.3124 32.5001 50.3749 32.8001C50.4374 33.1126 50.2249 33.4001 49.9249 33.4626L48.9374 33.6501C48.8999 33.6626 48.8624 33.6626 48.8374 33.6626C48.5749 33.6626 48.3374 33.4751 48.2874 33.2001C48.2124 32.9001 48.4124 32.6001 48.7249 32.5376ZM63.8499 41.1126C63.4499 40.3876 62.5249 40.1626 61.6124 39.9376C61.0749 39.8001 60.3999 39.6376 60.2249 39.4126C59.9249 39.0126 59.6874 38.4876 60.8249 37.4001L61.1874 37.0626C62.4999 36.5626 63.2624 36.1251 63.3999 35.3751C63.5999 34.2751 62.4249 33.3126 59.2999 30.7501L58.9249 30.4501C53.7249 26.1876 40.0749 8.08758 38.7249 6.03758C35.8624 1.68758 32.6999 1.60008 30.5499 2.28758C29.8249 2.52508 28.7374 2.88758 27.3624 3.36258C21.7749 5.27508 11.3874 8.82508 4.94992 9.92508C3.02492 10.2501 1.63742 11.1001 0.824919 12.4501C-0.300081 14.3251 -0.275081 17.0626 0.899919 20.6126C2.37492 25.1001 14.0874 36.9751 16.9374 39.5251C18.8874 41.2751 22.1874 46.3751 24.5874 50.1126C25.7374 51.9001 26.7374 53.4376 27.3999 54.3501C27.6999 54.7501 28.0624 55.1876 28.4874 55.3501C28.7499 55.6126 29.1374 55.7501 29.6874 55.7501C30.3874 55.7501 31.3374 55.5251 32.5874 55.0751C34.2499 54.4751 35.9749 53.6376 36.9374 53.1376C36.9499 53.2501 36.9749 53.3626 36.9874 53.4876C37.4749 56.8376 39.9749 59.7751 42.1374 61.4126L42.9749 62.0376L43.0499 60.9876C43.1249 59.8501 43.3499 58.6126 43.4999 57.8876L48.7499 59.6626L47.7374 58.2376C47.7124 58.2001 44.7374 54.0001 44.5749 51.2251C44.5499 50.8251 44.5124 50.4501 44.4499 50.1001L44.4624 50.0876C45.2499 49.5126 48.5374 48.0251 59.7374 44.2501C60.0249 44.1501 60.2499 44.0751 60.3874 44.0251C60.5124 43.9876 60.6374 43.9376 60.7749 43.9001C62.2249 43.4126 63.5874 42.9501 63.9249 42.0876C64.0499 41.7751 64.0249 41.4376 63.8499 41.1126ZM35.9499 49.6251C34.9374 50.2376 31.4249 51.3376 30.2749 51.4251C30.3124 51.0126 30.3499 50.6001 30.3999 50.1751C30.9249 50.0876 32.1374 49.7501 35.3499 48.6626C35.5624 48.9626 35.7624 49.2626 35.9499 49.6251ZM30.5874 49.0001C30.5999 48.9251 30.6124 48.8626 30.6249 48.7876C30.6999 48.4501 31.6124 47.1126 40.1874 43.9501C45.4749 42.0001 51.7499 40.0626 55.9124 38.7751C57.2124 38.3751 58.3124 38.0251 59.1249 37.7751C58.8999 38.2001 58.8249 38.6251 58.8749 39.0376C48.5999 42.8251 33.3999 48.3001 30.5874 49.0001ZM42.4999 46.1751C43.3499 45.8751 44.2499 45.5501 45.2249 45.2001C51.7374 42.8626 58.2374 40.4751 59.3124 40.0751C59.3124 40.0751 59.3124 40.0876 59.3249 40.0876C59.5124 40.3376 59.7624 40.5126 60.0749 40.6501C58.1874 41.4876 53.3999 43.2251 50.0249 44.4376C47.0374 45.5251 44.4249 46.4626 43.2499 46.9626C43.0124 46.6376 42.7624 46.3751 42.4999 46.1751ZM27.7249 4.43758C29.0874 3.97508 30.1624 3.60008 30.8874 3.37508C31.4624 3.18758 32.0124 3.10008 32.5499 3.10008C34.4749 3.10008 36.1999 4.27508 37.7749 6.66258C39.1374 8.73758 52.9249 27.0001 58.1999 31.3251L58.5749 31.6251C59.9499 32.7501 60.9374 33.5501 61.5624 34.1751C62.2999 34.9001 62.2874 35.1376 62.2749 35.1626C62.2124 35.5251 60.3624 36.1501 59.4749 36.4501C58.6874 36.7126 57.2999 37.1501 55.5499 37.6876C51.3874 38.9751 45.0874 40.9251 39.7749 42.8876C37.1999 43.8376 35.2624 44.6376 33.8124 45.3126C33.5374 44.9626 32.8999 44.1251 31.9749 42.9376C26.4124 35.7876 9.79992 14.4251 7.61242 10.5501C14.0749 9.10008 22.7749 6.12508 27.7249 4.43758ZM5.14992 11.0376C5.57492 10.9626 6.01242 10.8876 6.47492 10.7876C7.91242 13.7001 21.1874 30.9001 31.0999 43.6376C31.8874 44.6501 32.4749 45.4126 32.7999 45.8251C32.2374 46.1126 31.7749 46.3751 31.3874 46.6126C28.8124 42.8876 7.92492 15.0626 4.92492 11.0751L5.14992 11.0376ZM8.76242 18.0751C10.9124 20.9376 13.3124 24.1501 15.7374 27.3876C14.8124 28.4001 12.8624 30.6626 13.1249 34.1751C10.6624 31.6251 7.82492 28.5251 5.61242 25.7876C5.44992 23.7501 5.88742 20.8001 8.76242 18.0751ZM1.79992 13.0376C2.23742 12.3126 2.88742 11.7751 3.77492 11.4251L3.92492 11.6251C5.06242 13.1376 6.48742 15.0501 8.08742 17.1751C5.47492 19.6001 4.62492 22.2126 4.47492 24.3376C3.21242 22.6751 2.29992 21.2376 1.97492 20.2626C0.912419 17.0376 0.849919 14.6126 1.79992 13.0376ZM17.6874 38.6751C16.9499 38.0126 15.8124 36.9251 14.4874 35.5876C13.5374 31.8751 15.4124 29.4376 16.4124 28.3126C19.4499 32.3751 22.4499 36.4001 24.9124 39.7251C24.0374 40.7001 23.0874 43.1626 22.7874 45.3001C20.9499 42.5126 19.0749 39.9001 17.6874 38.6751ZM25.5499 49.4876C25.0124 48.6501 24.4499 47.7751 23.8624 46.8876C23.6999 44.8251 24.8374 41.7126 25.6249 40.6501C28.0999 44.0001 29.9124 46.4751 30.4624 47.2626C29.8249 47.7876 29.5999 48.2001 29.5249 48.5376C29.2999 49.5501 29.1999 50.7126 29.1124 51.7501C29.0374 52.6126 28.9374 53.7501 28.7749 54.1876C28.6749 54.1001 28.5249 53.9501 28.3249 53.6626C27.6749 52.7876 26.6874 51.2626 25.5499 49.4876ZM32.2874 53.9626C30.9874 54.4376 30.2374 54.5751 29.8124 54.6001C29.9999 54.1126 30.0874 53.4126 30.1749 52.5501C31.5499 52.5001 35.0249 51.4001 36.3874 50.6751C36.5124 51.0376 36.6249 51.4626 36.7374 51.9626C35.9124 52.3876 34.0624 53.3126 32.2874 53.9626ZM45.8999 57.5001L42.6624 56.4001L42.5249 57.0126C42.5124 57.0751 42.2124 58.3751 42.0249 59.8251C40.2624 58.2626 38.4999 55.9126 38.1124 53.3001C37.7249 50.6501 37.2374 49.4251 36.4624 48.2751C37.7249 47.8376 39.2499 47.3126 41.0749 46.6626L41.3249 46.7626C42.2624 47.1626 43.2749 48.7001 43.4249 51.2751C43.5624 53.3501 44.9499 55.9376 45.8999 57.5001ZM60.4124 42.8251C60.2749 42.8751 60.1499 42.9126 60.0249 42.9626C59.8874 43.0126 59.6624 43.0876 59.3874 43.1751C50.9124 46.0376 45.9249 47.9251 44.1999 48.9251C44.0874 48.5626 43.9749 48.2376 43.8374 47.9501C45.0499 47.4501 47.6624 46.5001 50.4124 45.5126C57.8249 42.8251 61.0249 41.6251 61.5874 41.1126C62.1374 41.2501 62.7249 41.4251 62.8624 41.6751C62.8624 41.6876 62.8749 41.6876 62.8749 41.7001C62.7249 42.0501 61.1624 42.5751 60.4124 42.8251Z" fill="#0E4271"/>
</g>
<defs>
<clipPath id="clip0_758_5253">
<rect width="64" height="64" fill="white"/>
</clipPath>
</defs>
</svg>
