<svg width="64" height="64" viewBox="0 0 64 64" fill="none" xmlns="http://www.w3.org/2000/svg">
<path d="M59.0749 49.1248C58.5624 47.3498 56.6499 39.8373 58.7249 32.8748C62.4374 20.3998 60.0374 14.1748 57.3499 11.1623C55.1999 8.73735 52.3999 9.62485 48.5374 10.8623C46.5249 11.5123 44.0124 12.3123 41.0124 12.8373C35.4499 13.8248 27.7124 12.4498 20.2249 11.1123C16.2499 10.4123 12.1374 9.67485 8.51239 9.33735C4.49989 8.96235 1.84989 9.61235 0.674894 11.2748C-0.625106 13.0998 0.362394 15.3498 0.412394 15.4498L0.562394 15.7873H7.12489L7.21239 15.9748L7.22489 15.9623C7.71239 16.9623 8.83739 19.6998 9.61239 24.9248C10.2999 29.5748 9.28739 35.9248 8.38739 41.5248C7.96239 44.1873 7.56239 46.6998 7.41239 48.6623C7.21239 51.4123 7.51239 52.9123 8.47489 53.8123C9.21239 54.5123 10.2499 54.7748 11.8124 54.7748C13.1374 54.7748 14.8249 54.5748 17.0249 54.2748C21.3249 53.6873 32.1999 53.8748 41.7874 54.0373C48.8124 54.1623 54.8749 54.2623 57.4124 54.0498C63.8624 53.5248 63.9874 49.8498 63.9874 49.6998L63.9999 49.1248H59.0749ZM1.58739 11.9123C1.83739 11.5623 2.18739 11.2748 2.64989 11.0498L2.96239 11.1248C4.12489 11.3998 5.63739 13.2373 6.49989 14.6498H1.31239C1.13739 14.0748 0.912394 12.8623 1.58739 11.9123ZM9.59989 52.9623H9.23739C8.57489 52.3248 8.36239 51.0623 8.53739 48.7373C8.67489 46.8248 9.07489 44.3373 9.49989 41.6998C10.4124 36.0248 11.4374 29.5748 10.7249 24.7623C9.72489 17.9873 8.13739 15.2498 7.94989 14.9373C7.57489 14.1873 6.04989 11.6623 4.31239 10.5248C5.41239 10.3373 6.77489 10.3123 8.39989 10.4623C11.9874 10.7998 15.8874 11.4998 20.0124 12.2373C27.5999 13.5998 35.4374 14.9998 41.1999 13.9623C44.2749 13.4123 46.8249 12.5998 48.8749 11.9498C53.0124 10.6248 54.9124 10.1248 56.5124 11.9248C58.9999 14.7248 61.2124 20.5873 57.6499 32.5623C55.5749 39.5248 57.2624 46.8123 57.9124 49.1373C52.3749 49.1373 18.4499 49.0873 14.4624 48.6123L13.9124 48.5498L13.8374 49.0873C13.7999 49.3373 13.7749 49.5873 13.7374 49.8248C13.4624 51.8873 13.3249 52.9249 9.59989 52.9623ZM57.3249 52.9373C54.8374 53.1373 48.5124 53.0248 41.8124 52.9123C32.1749 52.7498 21.2624 52.5623 16.8749 53.1623C15.2749 53.3748 13.8749 53.5623 12.7249 53.6248C14.4749 52.9123 14.6499 51.5248 14.8499 49.9748C14.8624 49.9123 14.8624 49.8498 14.8749 49.7873C20.8874 50.2373 53.2249 50.2748 58.0999 50.2748H62.7249C62.3749 51.1124 61.2249 52.6123 57.3249 52.9373ZM11.6124 15.8873C11.6124 15.5748 11.8624 15.3248 12.1749 15.3248H12.3749C12.6874 15.3248 12.9374 15.5748 12.9374 15.8873C12.9374 16.1998 12.6874 16.4498 12.3749 16.4498H12.1749C11.8749 16.4498 11.6124 16.1998 11.6124 15.8873ZM47.0749 31.7748C46.7624 31.7748 46.5124 31.5248 46.5124 31.2123C46.5124 30.8998 46.7624 30.6498 47.0749 30.6498H47.2749C47.5874 30.6498 47.8374 30.8998 47.8374 31.2123C47.8374 31.5248 47.5874 31.7748 47.2749 31.7748H47.0749ZM51.7999 16.8623C51.7999 16.5498 52.0499 16.2998 52.3624 16.2998H52.5624C52.8749 16.2998 53.1249 16.5498 53.1249 16.8623C53.1249 17.1748 52.8749 17.4248 52.5624 17.4248H52.3749C52.0624 17.4248 51.7999 17.1748 51.7999 16.8623ZM53.9749 46.6873C53.9749 46.9998 53.7249 47.2498 53.4124 47.2498H53.2124C52.8999 47.2498 52.6499 46.9998 52.6499 46.6873C52.6499 46.3748 52.8999 46.1248 53.2124 46.1248H53.4124C53.7249 46.1123 53.9749 46.3748 53.9749 46.6873ZM12.1999 48.6998C12.1999 49.0123 11.9499 49.2623 11.6374 49.2623H11.4374C11.1249 49.2623 10.8749 49.0123 10.8749 48.6998C10.8749 48.3873 11.1249 48.1373 11.4374 48.1373H11.6374C11.9499 48.1373 12.1999 48.3873 12.1999 48.6998ZM35.2999 21.7498C35.3624 21.4498 35.6624 21.2498 35.9624 21.3123C38.4124 21.8123 45.7999 22.2373 46.5374 22.0123C46.8249 21.8998 47.1499 22.0498 47.2624 22.3373C47.3749 22.6248 47.2249 22.9498 46.9374 23.0623C46.6874 23.1623 46.0624 23.1998 45.2499 23.1998C42.4624 23.1998 37.2999 22.7248 35.7374 22.4123C35.4374 22.3623 35.2374 22.0623 35.2999 21.7498ZM47.7624 26.1248C48.0749 26.1374 48.3249 26.3874 48.3124 26.6999C48.2999 27.0124 48.0499 27.2498 47.7499 27.2498H47.7374C40.2624 27.0873 36.6249 27.3498 36.5874 27.3498C36.5749 27.3498 36.5624 27.3498 36.5499 27.3498C36.2624 27.3498 36.0124 27.1248 35.9874 26.8249C35.9624 26.5124 36.1999 26.2374 36.5124 26.2248C36.5374 26.2248 40.2249 25.9499 47.7624 26.1248ZM35.8374 30.9248C35.8499 30.6123 36.1124 30.3748 36.4249 30.3874C36.4749 30.3874 41.4499 30.5998 44.0124 30.8748C44.3249 30.9123 44.5499 31.1873 44.5124 31.4998C44.4874 31.7873 44.2374 31.9998 43.9499 31.9998C43.9249 31.9998 43.9124 31.9998 43.8874 31.9998C41.3499 31.7373 36.4124 31.5248 36.3624 31.5248C36.0624 31.4998 35.8249 31.2373 35.8374 30.9248ZM48.1374 39.4248C48.0124 39.7123 47.6749 39.8374 47.3874 39.7124C46.5874 39.3499 44.2624 38.4374 43.0999 38.5249C42.7874 38.5499 42.5249 38.8498 42.1749 39.2998C41.7999 39.7748 41.3749 40.3248 40.6749 40.3623C40.1124 40.3873 39.5499 40.0749 38.8874 39.3748C38.5874 39.0623 37.8624 38.3623 37.3874 38.6748C37.0499 38.8998 36.9374 39.4748 37.0249 39.6748C37.1499 39.9623 37.0249 40.2873 36.7374 40.4248C36.6624 40.4623 36.5874 40.4748 36.5124 40.4748C36.2999 40.4748 36.0874 40.3498 35.9999 40.1374C35.6874 39.4499 35.9499 38.2748 36.7624 37.7373C37.2499 37.4123 38.2874 37.0873 39.6999 38.5998C40.2624 39.1998 40.5374 39.2373 40.6124 39.2248C40.7999 39.2123 41.0499 38.8873 41.2749 38.5998C41.6749 38.0873 42.1624 37.4624 42.9999 37.3874C44.6499 37.2498 47.5124 38.5248 47.8374 38.6623C48.1374 38.8123 48.2624 39.1498 48.1374 39.4248ZM14.1124 43.1123C16.1874 43.0623 17.1624 43.7998 17.2874 45.5373C17.3374 46.3248 17.9874 46.9373 18.7874 46.9748C23.6124 47.1623 44.2749 47.2248 48.3624 47.2373C49.0624 47.2373 49.6874 46.7623 49.8749 46.0748C50.1249 45.1498 50.7874 43.5498 52.5124 43.2873C53.3374 43.1623 53.9124 42.3998 53.8249 41.5623C53.5999 39.5623 53.4374 35.6499 54.8624 31.9499C56.7624 26.9874 56.9374 24.7498 55.7624 20.5873C55.5499 19.8498 54.8374 19.3623 54.0874 19.4498C52.6499 19.6248 50.7624 19.1623 50.1749 17.2998C49.9624 16.6123 49.3124 16.1498 48.5874 16.1998C46.2999 16.3373 40.2749 16.6248 33.7124 16.3498C28.0374 16.0998 21.2374 15.0873 18.5749 14.6623C18.1249 14.5873 17.6624 14.7248 17.3124 15.0123C16.9624 15.3123 16.7624 15.7373 16.7624 16.1998C16.7624 17.9248 15.6999 18.9248 13.5999 19.1873C13.0999 19.2498 12.6749 19.5373 12.4249 19.9623C12.1749 20.3873 12.1499 20.8873 12.3374 21.3373C13.5749 24.2498 14.5999 30.3624 13.3249 34.2749C12.1124 37.9499 12.2374 40.1498 12.5124 41.7998C12.6624 42.5748 13.3374 43.1373 14.1124 43.1123ZM14.4124 34.6374C15.7874 30.4623 14.6999 23.9748 13.3999 20.9123C13.3249 20.7498 13.3874 20.6123 13.4249 20.5373C13.4999 20.4123 13.6124 20.3373 13.7624 20.3123C17.5124 19.8498 17.9124 17.2873 17.9124 16.1998C17.9124 16.0248 18.0124 15.9248 18.0624 15.8748C18.1249 15.8248 18.2374 15.7498 18.4124 15.7748C21.0874 16.1998 27.9374 17.2248 33.6749 17.4748C40.2874 17.7623 46.3624 17.4623 48.6624 17.3248C48.8624 17.3123 49.0374 17.4373 49.0999 17.6373C49.8249 19.9998 52.1999 20.8123 54.2249 20.5748C54.4249 20.5498 54.6249 20.6873 54.6749 20.8998C55.7874 24.8623 55.6374 26.7623 53.7999 31.5498C52.2999 35.4748 52.4624 39.5873 52.6999 41.6873C52.7249 41.9248 52.5624 42.1373 52.3499 42.1748C49.9874 42.5373 49.1124 44.5873 48.7874 45.7873C48.7374 45.9748 48.5624 46.1123 48.3749 46.1123C44.2874 46.0998 23.6499 46.0373 18.8374 45.8498C18.6124 45.8373 18.4374 45.6749 18.4249 45.4623C18.3124 43.8624 17.4999 41.9873 14.3249 41.9873C14.2499 41.9873 14.1749 41.9873 14.0874 41.9873C13.8874 41.9873 13.6999 41.8373 13.6624 41.6248C13.3999 40.0998 13.2874 38.0874 14.4124 34.6374ZM16.3249 38.8249C16.5124 38.9123 16.7499 38.8999 16.9124 38.7624C17.6374 38.1999 18.2874 37.7123 18.7374 37.3623L18.9874 39.3374C19.0124 39.5749 19.1874 39.7624 19.4249 39.8123C19.4624 39.8249 19.4999 39.8249 19.5499 39.8249C19.7374 39.8249 19.9249 39.7248 20.0249 39.5623C20.0499 39.5124 22.8124 35.0998 24.4749 31.3874C24.5249 31.3999 24.5624 31.4123 24.6124 31.4248C25.0874 32.6998 27.7874 38.8249 28.4749 39.9373C28.5749 40.0998 28.7624 40.2124 28.9624 40.2124H28.9999C29.2124 40.1999 29.3999 40.0749 29.4749 39.8748C29.6999 39.3623 29.9499 38.8748 30.1374 38.5124L31.2624 39.4248C31.4374 39.5623 31.6874 39.5873 31.8874 39.4873C32.0874 39.3748 32.1999 39.1623 32.1874 38.9373C32.1624 38.6623 31.5499 32.1248 29.5749 29.4499C30.1124 28.6248 30.3374 27.6373 30.1999 26.6123C29.9624 24.7373 29.1874 23.2373 28.0124 22.3873C27.0874 21.7123 25.9624 21.4748 24.7624 21.6998C23.5124 21.9373 22.4249 22.6748 21.6749 23.7748C20.9499 24.8373 20.6249 26.1248 20.8249 27.1248C20.8749 27.3998 20.9749 27.7123 21.0999 28.0248C20.8124 28.4123 15.9624 34.9123 16.0249 38.3249C16.0124 38.5373 16.1374 38.7374 16.3249 38.8249ZM30.3124 37.2124C30.1874 37.1124 30.0124 37.0623 29.8499 37.0998C29.6874 37.1248 29.5499 37.2373 29.4624 37.3748C29.4499 37.3998 29.2249 37.8123 28.9249 38.3874C28.0499 36.5998 26.4999 33.1123 25.8749 31.5623C26.9124 31.4998 27.9749 31.0623 28.7874 30.3373C29.9749 32.1498 30.5999 35.7123 30.8749 37.6748L30.3124 37.2124ZM22.5874 24.4123C22.9999 23.8123 23.7374 23.0373 24.9499 22.8123C25.8499 22.6498 26.6499 22.8123 27.3249 23.2998C28.2499 23.9748 28.8624 25.1999 29.0624 26.7624C29.2249 28.0749 28.6374 28.9373 28.1124 29.4373C27.2999 30.1999 26.0874 30.5873 25.0999 30.4123C23.1999 30.0623 22.1374 28.0873 21.9124 26.9248C21.7999 26.3248 21.9624 25.3248 22.5874 24.4123ZM21.6499 29.1623C22.0874 29.8498 22.6874 30.4998 23.4499 30.9623C22.3749 33.3373 20.8499 36.0248 19.9124 37.6123L19.7374 36.2749C19.7124 36.0749 19.5874 35.8999 19.3999 35.8249C19.2124 35.7498 18.9999 35.7749 18.8374 35.8874C18.8249 35.8874 18.2374 36.3373 17.3249 37.0373C18.0249 34.5373 20.3624 30.9373 21.6499 29.1623Z" fill="#0E4271"/>
</svg>
