<svg width="48" height="48" viewBox="0 0 48 48" fill="none" xmlns="http://www.w3.org/2000/svg">
<path d="M29.5 16.6666C26.3833 16.6666 24 19.05 24 22.1666C24 25.2833 26.3833 27.6666 29.5 27.6666C32.6167 27.6666 35 25.2833 35 22.1666C35 19.05 32.6167 16.6666 29.5 16.6666ZM29.5 25.8333C27.4833 25.8333 25.8333 24.1833 25.8333 22.1666C25.8333 20.15 27.4833 18.5 29.5 18.5C31.5167 18.5 33.1667 20.15 33.1667 22.1666C33.1667 24.1833 31.5167 25.8333 29.5 25.8333Z" fill="white"/>
<path d="M14.8335 9.33337H20.3335V11.1667H14.8335V9.33337Z" fill="white"/>
<path d="M7.5 9.33337H11.1667V11.1667H7.5V9.33337Z" fill="white"/>
<path d="M7.5 14.8334H16.6667V16.6667H7.5V14.8334Z" fill="white"/>
<path d="M7.5 20.3334H14.8333V22.1667H7.5V20.3334Z" fill="white"/>
<path d="M42.3333 2H5.66667C3.65 2 2 3.65 2 5.66667V35C2 37.0167 3.65 38.6667 5.66667 38.6667H18.5V36.8333H5.66667C4.56667 36.8333 3.83333 36.1 3.83333 35V5.66667C3.83333 4.56667 4.56667 3.83333 5.66667 3.83333H42.3333C43.4333 3.83333 44.1667 4.56667 44.1667 5.66667V35C44.1667 36.1 43.4333 36.8333 42.3333 36.8333H40.5V38.6667H42.3333C44.35 38.6667 46 37.0167 46 35V5.66667C46 3.65 44.35 2 42.3333 2Z" fill="white"/>
<path d="M29.5 11.1666C23.45 11.1666 18.5 16.1166 18.5 22.1666C18.5 25.4666 19.9667 28.4 22.1667 30.4166V46L29.5 42.3333L36.8333 46V30.4166C39.0333 28.4 40.5 25.4666 40.5 22.1666C40.5 16.1166 35.55 11.1666 29.5 11.1666ZM35 43.0666L29.5 40.3166L24 43.0666V38.6666V31.7C25.65 32.6166 27.4833 33.1666 29.5 33.1666C31.5167 33.1666 33.35 32.6166 35 31.7V43.0666ZM29.5 31.3333C24.3667 31.3333 20.3333 27.3 20.3333 22.1666C20.3333 17.0333 24.3667 13 29.5 13C34.6333 13 38.6667 17.0333 38.6667 22.1666C38.6667 27.3 34.6333 31.3333 29.5 31.3333Z" fill="white"/>
</svg>
