<svg width="48" height="48" viewBox="0 0 48 48" fill="none" xmlns="http://www.w3.org/2000/svg">
<path d="M17.8808 26.3467C17.8733 26.3497 17.8696 26.3565 17.8621 26.3595C12.7418 27.7732 8.96631 32.46 8.96631 38.0235V45.75C8.96631 46.1647 9.30156 46.5 9.71631 46.5H38.2838C38.6986 46.5 39.0338 46.1647 39.0338 45.75V38.0235C39.0338 32.46 35.2583 27.7732 30.1381 26.3595C30.1306 26.3565 30.1268 26.3497 30.1193 26.3467C30.0706 26.3257 30.0196 26.3257 29.9693 26.316C29.5658 26.211 29.1541 26.127 28.7356 26.0632C31.3231 24.4657 33.0563 21.6105 33.0563 18.351C33.0563 17.4832 32.9273 16.6117 32.6791 15.7567V8.39924L35.5418 7.43474V11.931C34.6561 12.2422 34.0156 13.0777 34.0156 14.0685C34.0156 15.0592 34.6553 15.894 35.5396 16.2052V18.1335C35.5396 18.5482 35.8748 18.8835 36.2896 18.8835C36.7043 18.8835 37.0396 18.5482 37.0396 18.1335V16.2052C37.9238 15.8932 38.5636 15.0577 38.5636 14.0685C38.5636 13.0792 37.9253 12.2445 37.0418 11.9325V6.38999C37.0418 6.36974 37.0321 6.35324 37.0306 6.33299C37.0253 6.26399 37.0133 6.19724 36.9908 6.13424C36.9773 6.09674 36.9571 6.06449 36.9383 6.03074C36.9151 5.98874 36.8896 5.94899 36.8588 5.91224C36.8326 5.88074 36.8056 5.85299 36.7748 5.82674C36.7388 5.79599 36.6983 5.77124 36.6563 5.74724C36.6211 5.72774 36.5896 5.70599 36.5513 5.69249C36.5438 5.68949 36.5378 5.68424 36.5303 5.68124L24.2393 1.53974C24.0841 1.48724 23.9153 1.48724 23.7601 1.53974L11.4706 5.68049C11.1653 5.78324 10.9598 6.06974 10.9598 6.39074C10.9598 6.71174 11.1653 6.99899 11.4706 7.10174L15.3301 8.40224V15.7282C15.0766 16.5832 14.9438 17.4645 14.9438 18.3502C14.9438 21.6105 16.6778 24.465 19.2646 26.0625C18.8446 26.1262 18.4328 26.2102 18.0286 26.316C17.9791 26.3257 17.9288 26.3257 17.8808 26.346V26.3467ZM37.5338 38.0235V45H10.4663V38.0235C10.4663 33.3367 13.5241 29.3565 17.7473 27.9555L23.3093 41.0992C23.3438 41.181 23.3933 41.25 23.4503 41.3122C23.4653 41.3287 23.4833 41.3407 23.4998 41.3557C23.5523 41.403 23.6086 41.442 23.6716 41.4727C23.6851 41.4795 23.6933 41.4915 23.7076 41.4975C23.7173 41.502 23.7286 41.4997 23.7383 41.5035C23.8223 41.535 23.9093 41.5567 24.0001 41.5567C24.0908 41.5567 24.1778 41.535 24.2618 41.5035C24.2716 41.4997 24.2828 41.5012 24.2926 41.4975C24.3068 41.4915 24.3151 41.4795 24.3286 41.4727C24.3916 41.442 24.4478 41.403 24.5003 41.3557C24.5168 41.3407 24.5348 41.3287 24.5498 41.3122C24.6068 41.2507 24.6563 41.181 24.6908 41.0992L30.2528 27.9555C34.4761 29.3565 37.5338 33.336 37.5338 38.0235ZM23.9108 11.268C23.9408 11.2717 23.9701 11.283 24.0001 11.283C24.0301 11.283 24.0593 11.2717 24.0893 11.268C24.1396 11.262 24.1898 11.2597 24.2386 11.244L31.1791 8.90849V15.258H16.8293V8.90924L23.7608 11.244C23.8096 11.2597 23.8598 11.262 23.9101 11.268H23.9108ZM36.2903 14.8425C35.8636 14.8425 35.5163 14.4952 35.5163 14.0685C35.5163 13.644 35.8598 13.3005 36.2828 13.296C36.2866 13.296 36.2896 13.2982 36.2933 13.2982C36.2963 13.2982 36.2986 13.2967 36.3016 13.2967C36.7238 13.3027 37.0658 13.6455 37.0658 14.0685C37.0658 14.4952 36.7186 14.8425 36.2918 14.8425H36.2903ZM24.0001 3.04199L33.9413 6.39149L24.0001 9.74174L14.0603 6.39074L24.0001 3.04199ZM16.4438 18.351C16.4438 17.8155 16.5001 17.2822 16.6111 16.758H31.3891C31.5001 17.2875 31.5571 17.8207 31.5571 18.351C31.5571 22.4977 28.2061 25.8735 24.0728 25.9125H23.9281C19.7948 25.8735 16.4438 22.4977 16.4438 18.351ZM24.0001 27.4162C24.0248 27.4162 24.0481 27.4125 24.0721 27.4125H26.9213C27.5566 27.4125 28.1753 27.4785 28.7806 27.5857L24.0001 38.883L19.2196 27.5857C19.8241 27.4785 20.4436 27.4125 21.0788 27.4125H23.9281C23.9521 27.4125 23.9761 27.4162 24.0001 27.4162Z" fill="white"/>
</svg>
