<svg width="16" height="17" viewBox="0 0 16 17" fill="none" xmlns="http://www.w3.org/2000/svg">
<g clip-path="url(#clip0_733_3335)">
<path d="M15.8406 8.10943L11.1656 3.39693C10.95 3.18131 10.6 3.17818 10.3844 3.39381C10.1687 3.60943 10.1656 3.95943 10.3813 4.17506L14.1219 7.94693H0.553125C0.246875 7.94693 0 8.19381 0 8.50006C0 8.80631 0.246875 9.05318 0.553125 9.05318H14.1219L10.3813 12.8251C10.1656 13.0407 10.1687 13.3907 10.3844 13.6063C10.6 13.8219 10.95 13.8188 11.1656 13.6032L15.8406 8.89068C16.0531 8.67506 16.0531 8.32506 15.8406 8.10943Z" fill="black"/>
</g>
<defs>
<clipPath id="clip0_733_3335">
<rect width="16" height="16" fill="white" transform="translate(0 0.5)"/>
</clipPath>
</defs>
</svg>
