<svg width="16" height="17" viewBox="0 0 16 17" fill="none" xmlns="http://www.w3.org/2000/svg">
<g clip-path="url(#clip0_758_5176)">
<path d="M15.8406 8.10919L11.1656 3.39669C10.95 3.18106 10.6 3.17794 10.3844 3.39356C10.1687 3.60919 10.1656 3.95919 10.3813 4.17481L14.1219 7.94669H0.553125C0.246875 7.94669 0 8.19356 0 8.49981C0 8.80606 0.246875 9.05294 0.553125 9.05294H14.1219L10.3813 12.8248C10.1656 13.0404 10.1687 13.3904 10.3844 13.6061C10.6 13.8217 10.95 13.8186 11.1656 13.6029L15.8406 8.89044C16.0531 8.67481 16.0531 8.32481 15.8406 8.10919Z" fill="white"/>
</g>
<defs>
<clipPath id="clip0_758_5176">
<rect width="16" height="16" fill="white" transform="translate(0 0.5)"/>
</clipPath>
</defs>
</svg>
