<svg width="74" height="100" viewBox="0 0 74 100" fill="none" xmlns="http://www.w3.org/2000/svg">
<path fill-rule="evenodd" clip-rule="evenodd" d="M25.7736 80.9107C13.9804 78.9104 5 68.6451 5 56.2823C5 50.9958 6.64219 46.0927 9.44408 42.0554L8.35706 40.9684C7.36137 39.9727 7.36137 38.3483 8.35706 37.3526L11.0516 34.658C12.0473 33.6622 13.6718 33.6622 14.6676 34.658L15.7546 35.745C18.6287 33.7503 21.9416 32.3433 25.5192 31.6982V30.0465C24.236 29.9548 23.1298 28.8176 23.1298 27.3344V25.3441C23.1298 23.7964 24.3338 22.6258 25.6866 22.6258H34.2762C35.6289 22.6258 36.8329 23.7964 36.8329 25.3441V27.3344C36.8329 28.8176 35.7267 29.9548 34.4436 30.0465V31.6982C38.0212 32.3433 41.3341 33.7503 44.2081 35.745L45.2951 34.658C46.291 33.6622 47.9154 33.6622 48.9111 34.658L51.6057 37.3526C52.6014 38.3483 52.6014 39.9727 51.6057 40.9684L50.5187 42.0554C53.3205 46.0927 54.9627 50.9958 54.9627 56.2823C54.9627 58.6268 54.6398 60.8958 54.0358 63.0472H55.6313C56.4241 63.0472 57.0668 63.69 57.0668 64.4827V93.5626C57.0668 94.3553 56.4241 94.998 55.6313 94.998H45.6886C44.8959 94.998 44.2531 94.3553 44.2531 93.5626V76.788C42.5169 77.9987 40.6197 78.9946 38.6002 79.7369V93.5626C38.6002 94.3553 37.9575 94.998 37.1647 94.998H27.2091C26.4163 94.998 25.7736 94.3553 25.7736 93.5626V80.9107ZM11.2273 39.7786C11.9291 38.9817 12.6809 38.23 13.4778 37.5283L12.8596 36.9101L10.6093 39.1604L11.2273 39.7786ZM28.3901 31.3508C28.9162 31.3176 29.4468 31.301 29.9814 31.301C30.5159 31.301 31.0465 31.3176 31.5726 31.3508V30.0526H28.3901V31.3508ZM46.4849 37.5283C47.2818 38.23 48.0335 38.9817 48.7352 39.7786L49.3534 39.1604L47.1031 36.9101L46.4849 37.5283ZM53.0365 65.9182C51.6762 69.1692 49.6482 72.0714 47.1241 74.4534V92.1271H54.1958V65.9182H53.0365ZM35.7292 80.5991C33.8837 81.0337 31.9595 81.2635 29.9814 81.2635C29.533 81.2635 29.0872 81.2517 28.6446 81.2283V92.1271H35.7292V80.5991ZM29.9814 34.1719C17.7701 34.1719 7.87097 44.071 7.87097 56.2823C7.87097 68.4935 17.7701 78.3925 29.9814 78.3925C42.1925 78.3925 52.0918 68.4935 52.0918 56.2823C52.0918 44.071 42.1925 34.1719 29.9814 34.1719ZM29.9814 36.4382C40.9406 36.4382 49.8253 45.3229 49.8253 56.2823C49.8253 67.2415 40.9406 76.1263 29.9814 76.1263C19.022 76.1263 10.1372 67.2415 10.1372 56.2823C10.1372 45.3229 19.022 36.4382 29.9814 36.4382ZM29.9814 39.3092C20.6077 39.3092 13.0082 46.9084 13.0082 56.2823C13.0082 65.656 20.6077 73.2553 29.9814 73.2553C39.3551 73.2553 46.9543 65.656 46.9543 56.2823C46.9543 46.9084 39.3551 39.3092 29.9814 39.3092ZM33.6716 57.7178C33.0969 59.1944 31.6614 60.241 29.9814 60.241C27.7949 60.241 26.0227 58.4686 26.0227 56.2823C26.0227 54.6023 27.0691 53.1666 28.5459 52.5917V47.657C28.5459 46.8648 29.1892 46.2216 29.9814 46.2216C30.7736 46.2216 31.4169 46.8648 31.4169 47.657V52.5919C32.4484 52.9935 33.2701 53.8151 33.6716 54.8468H38.6067C39.3989 54.8468 40.0421 55.4901 40.0421 56.2823C40.0421 57.0745 39.3989 57.7178 38.6067 57.7178H33.6716ZM29.9814 55.1944C29.3806 55.1944 28.8936 55.6814 28.8936 56.2823C28.8936 56.8831 29.3806 57.3701 29.9814 57.3701C30.5821 57.3701 31.0689 56.8829 31.0689 56.2823C31.0689 55.6816 30.5821 55.1944 29.9814 55.1944ZM41.3603 65.6311C41.9205 66.1913 41.9205 67.1009 41.3603 67.6611C40.8001 68.2212 39.8903 68.2212 39.3301 67.6611L38.2067 66.5376C37.6465 65.9774 37.6465 65.0678 38.2067 64.5076C38.7669 63.9475 39.6766 63.9475 40.2368 64.5076L41.3603 65.6311ZM20.6326 67.6611C20.0724 68.2212 19.1627 68.2214 18.6025 67.6611C18.0423 67.1009 18.0423 66.1913 18.6025 65.6311L19.7259 64.5076C20.2861 63.9475 21.1957 63.9475 21.7559 64.5076C22.3162 65.0678 22.3162 65.9774 21.756 66.5376L20.6326 67.6611ZM18.6025 46.9334C18.0423 46.3732 18.0423 45.4634 18.6025 44.9032C19.1627 44.3431 20.0724 44.343 20.6326 44.9034L21.756 46.0269C22.3162 46.5871 22.3162 47.4966 21.7559 48.0568C21.1957 48.617 20.2861 48.617 19.7259 48.0568L18.6025 46.9334ZM15.3247 57.7176C14.5325 57.7176 13.8892 57.0744 13.8892 56.2821C13.8892 55.4899 14.5325 54.8467 15.3247 54.8467H16.9134C17.7056 54.8467 18.3489 55.4899 18.3489 56.2821C18.3489 57.0744 17.7056 57.7176 16.9134 57.7176H15.3247ZM31.4169 70.9388C31.4169 71.731 30.7736 72.3743 29.9814 72.3743C29.1892 72.3743 28.5459 71.731 28.5459 70.9388V69.3501C28.5459 68.5579 29.1892 67.9146 29.9814 67.9146C30.7736 67.9146 31.4169 68.5579 31.4169 69.3501V70.9388ZM39.3301 44.9032C39.8903 44.3431 40.8001 44.3431 41.3603 44.9032C41.9205 45.4636 41.9205 46.3732 41.3603 46.9334L40.2368 48.0568C39.6766 48.617 38.7669 48.617 38.2067 48.0568C37.6465 47.4966 37.6465 46.5871 38.2067 46.0269L39.3301 44.9032ZM44.638 54.8467C45.4302 54.8467 46.0735 55.4899 46.0735 56.2821C46.0735 57.0744 45.4302 57.7176 44.638 57.7176H43.0493C42.2571 57.7176 41.6138 57.0744 41.6138 56.2821C41.6138 55.4899 42.2571 54.8467 43.0493 54.8467H44.638ZM28.5459 41.6255C28.5459 40.8333 29.1892 40.19 29.9814 40.19C30.7736 40.19 31.4169 40.8333 31.4169 41.6255V43.2144C31.4169 44.0066 30.7736 44.6497 29.9814 44.6497C29.1892 44.6497 28.5459 44.0066 28.5459 43.2144V41.6255ZM26.0006 25.4968V27.1817H33.962V25.4968H26.0006ZM75.9319 9.11287C77.1377 9.45146 78.2994 9.92248 79.3975 10.5186L81.6272 9.54925C82.1626 9.31653 82.7856 9.43119 83.2032 9.8394L86.6065 13.1672C87.0383 13.5892 87.1597 14.2361 86.9105 14.7859L85.9401 16.928C86.5409 17.9924 87.0169 19.1175 87.3607 20.2869L89.6187 21.1367C90.1782 21.3471 90.5486 21.8824 90.5486 22.4801V27.1876C90.5486 27.7853 90.1782 28.3205 89.6187 28.531L87.3598 29.381C87.0155 30.5466 86.5378 31.6701 85.9394 32.7332L86.9105 34.8769C87.1597 35.4269 87.0383 36.0738 86.6065 36.4958L83.2032 39.8236C82.7862 40.2313 82.1641 40.3463 81.629 40.1145L79.3997 39.1488C78.3028 39.745 77.1385 40.2164 75.9314 40.5552L75.0654 42.7552C74.8494 43.3041 74.3195 43.665 73.7297 43.665H68.9155C68.3257 43.665 67.7958 43.3041 67.5797 42.7552L66.714 40.5553C65.5046 40.216 64.3418 39.7425 63.2431 39.1479L61.0113 40.1145C60.4762 40.3463 59.8541 40.2313 59.4371 39.8236L56.0338 36.4958C55.6015 36.0732 55.4804 35.4253 55.7305 34.8751L56.704 32.7347C56.1041 31.6733 55.6283 30.5479 55.2823 29.3817L53.0216 28.531C52.4621 28.3205 52.0918 27.7853 52.0918 27.1876V22.4801C52.0918 21.8824 52.4621 21.3471 53.0216 21.1367L55.2818 20.2861C55.6279 19.1173 56.1039 17.9929 56.7043 16.9293L55.7305 14.7879C55.4804 14.2377 55.6015 13.5898 56.0338 13.1672L59.4371 9.8394C59.8547 9.43119 60.4777 9.31653 61.0131 9.54925L63.2426 10.5187C64.3413 9.9223 65.5033 9.4511 66.7097 9.11251L67.5801 6.90653C67.7965 6.35835 68.326 5.99805 68.9155 5.99805H73.7297C74.3199 5.99805 74.8499 6.35925 75.0658 6.9085L75.9319 9.11287ZM73.5282 10.8455L72.7514 8.86901H69.8921L69.1114 10.8475C68.9382 11.2864 68.5605 11.612 68.101 11.7188C66.6772 12.0497 65.3192 12.5995 64.0711 13.3515C63.6732 13.5912 63.1839 13.6237 62.7579 13.4383L60.754 12.5672L58.7608 14.516L59.6288 16.4249C59.8288 16.8647 59.794 17.3755 59.5365 17.7843C58.7705 18.9998 58.2103 20.3222 57.869 21.713C57.7562 22.1729 57.4237 22.5476 56.9805 22.7144L54.9627 23.4736V26.194L56.9805 26.9534C57.4233 27.1199 57.7556 27.4942 57.8687 27.9536C58.21 29.3397 58.7696 30.6661 59.5353 31.8768C59.794 32.2857 59.8292 32.7976 59.6288 33.2381L58.7608 35.147L60.7549 37.0969L62.7597 36.2284C63.1841 36.0447 63.6713 36.0766 64.068 36.3144C65.3169 37.0625 66.6757 37.6176 68.1049 37.9487C68.5652 38.0553 68.9436 38.3817 69.1166 38.8215L69.893 40.794H72.752L73.5284 38.8215C73.7014 38.382 74.0794 38.0558 74.5393 37.9489C75.9624 37.6182 77.3242 37.0689 78.5673 36.3173C78.9649 36.077 79.4542 36.0438 79.8806 36.2284L81.8854 37.0967L83.8806 35.1459L83.0155 33.2364C82.817 32.798 82.8511 32.2895 83.1066 31.8818C83.8682 30.6665 84.4336 29.3444 84.7706 27.9579C84.8827 27.4966 85.2156 27.1205 85.6598 26.9534L87.6776 26.194V23.4736L85.6598 22.7144C85.2152 22.547 84.8822 22.1706 84.7704 21.7089C84.4336 20.3195 83.8737 18.9985 83.1086 17.7843C82.8515 17.3762 82.8165 16.8661 83.0155 16.4267L83.8806 14.5171L81.8863 12.5672L79.8824 13.4383C79.4564 13.6237 78.9671 13.5912 78.5693 13.3515C77.3211 12.5995 75.9632 12.0497 74.5393 11.7188C74.0791 11.6119 73.701 11.2853 73.5282 10.8455ZM71.3201 15.1853C76.7616 15.1853 81.1576 19.5108 81.1576 24.8314C81.1576 30.1519 76.7615 34.4824 71.3201 34.4824C65.8787 34.4824 61.4875 30.1522 61.4875 24.8314C61.4875 19.5106 65.8785 15.1853 71.3201 15.1853ZM71.3201 18.0563C67.4823 18.0563 64.3585 21.0789 64.3585 24.8314C64.3585 28.5843 67.4821 31.6114 71.3201 31.6114C75.1584 31.6114 78.2867 28.5845 78.2867 24.8314C78.2867 21.0787 75.1582 18.0563 71.3201 18.0563ZM75.5334 54.0372V93.5626C75.5334 94.3553 74.8907 94.998 74.0979 94.998H64.1554C63.3625 94.998 62.7199 94.3553 62.7199 93.5626V54.0372C62.7199 53.2445 63.3625 52.6017 64.1554 52.6017H74.0979C74.8907 52.6017 75.5334 53.2445 75.5334 54.0372ZM72.6624 55.4727H65.5909V92.1271H72.6624V55.4727ZM82.622 43.2137H92.5645C93.3573 43.2137 94 43.8564 94 44.6492V93.5626C94 94.3553 93.3573 94.998 92.5645 94.998H82.622C81.8291 94.998 81.1865 94.3553 81.1865 93.5626V44.6492C81.1865 43.8564 81.8291 43.2137 82.622 43.2137ZM84.0575 46.0847V92.1271H91.129V46.0847H84.0575Z" fill="#F3776D"/>
</svg>
