<svg width="74" height="100" viewBox="0 0 74 100" fill="none" xmlns="http://www.w3.org/2000/svg">
<path d="M50.1057 61.1709C48.8919 61.1709 48.0614 62.0653 47.9336 63.343C47.9336 64.6207 49.2113 65.7068 50.6168 65.3235C51.3196 65.1318 51.8945 64.5569 52.0862 63.8541C52.4695 62.4486 51.4473 61.1709 50.1057 61.1709Z" fill="#F3776D"/>
<path d="M86.4569 9.99805H13.499C11.0713 9.99805 9.09082 11.9785 9.09082 14.4062V66.5373C9.09082 69.0288 11.0713 70.9454 13.499 70.9454H36.8174V78.7395H35.5397C32.7926 78.7395 30.4927 81.1033 30.4927 83.9782V86.2781V86.4059C30.6843 88.0669 31.8982 89.3446 33.4314 89.3446H67.7383C69.3354 89.3446 70.6132 88.003 70.6132 86.2781V84.106C70.6132 81.2311 68.3772 78.8673 65.6939 78.8673H64.2884V71.0093H86.393C88.8846 71.0093 90.8012 69.0288 90.8012 66.4734V14.4062C90.8651 11.9785 88.9485 9.99805 86.4569 9.99805ZM13.499 12.5535H86.393C87.4791 12.5535 88.2457 13.384 88.2457 14.4062V55.485H11.6463V14.4062C11.6463 13.4479 12.5407 12.5535 13.499 12.5535ZM68.0577 84.106V86.4059C68.0577 86.6614 67.93 86.917 67.7383 86.917H33.4953C33.3676 86.917 33.112 86.6614 33.112 86.342V84.106C33.112 82.6366 34.1981 81.4228 35.6036 81.4228H38.159H63.0746H65.7578C66.9717 81.4228 68.0577 82.6366 68.0577 84.106ZM61.733 78.8673H39.3728V71.0093H61.733V78.8673ZM86.4569 68.4539H63.0107H38.0951H13.499C12.4129 68.4539 11.6463 67.6233 11.6463 66.6012V58.1043H88.3096V66.5373C88.3096 67.6233 87.543 68.4539 86.4569 68.4539Z" fill="#F3776D"/>
<path d="M15.9268 52.738C16.0545 53.3129 16.5656 53.7601 17.2045 53.7601H17.46C18.1628 53.6324 18.61 52.9296 18.4183 52.2269L17.3323 47.116C17.2045 46.6688 17.3323 46.2855 17.5239 45.6466L19.8877 38.8747C20.271 37.7247 20.9738 36.8942 21.8682 36.5109C22.4432 36.2553 23.082 36.3192 23.5931 36.5748L25.5736 37.6608C27.6179 38.7469 29.854 38.7469 31.8344 37.6608L33.8149 36.5748C34.5815 36.1276 35.5398 36.1276 36.2426 36.447C37.0731 36.8303 37.712 37.7886 38.0314 39.1941L39.6285 46.2216C39.8202 47.4354 40.5868 48.4576 41.7368 48.9687C42.8228 49.4798 44.0367 49.4798 45.1866 48.777L51.8947 44.7522C52.0271 44.679 52.1938 44.5334 52.278 44.4328L57.1972 37.7247C57.6444 37.1497 57.5167 36.3831 56.9417 35.9359C56.3667 35.4887 55.6001 35.6165 55.1529 36.1914L50.3614 42.7078L43.9089 46.6049C43.3339 46.9882 42.3118 46.6049 42.1201 45.7744L40.5229 38.683C39.8841 35.9359 38.4786 34.7221 37.3286 34.211C35.9231 33.5721 34.1343 33.636 32.6011 34.4026L30.6206 35.4887C29.4068 36.1914 28.129 36.1276 26.8513 35.4887L24.8708 34.4026C23.657 33.7638 22.2515 33.6999 20.9738 34.211C19.4405 34.8498 18.1628 36.2553 17.5239 38.108L15.0963 44.8161V44.88C14.8407 45.6466 14.5852 46.6049 14.8407 47.691L15.9268 52.738Z" fill="#F3776D"/>
<path d="M25.3816 43.3467C25.3178 42.644 24.6789 42.1329 23.9761 42.1968C23.2734 42.2607 22.7623 42.8995 22.8262 43.6023L23.5289 50.4381C23.5928 51.077 24.1678 51.5881 24.8067 51.5881H24.9344C25.6372 51.5242 26.1483 50.8853 26.0844 50.1826L25.3816 43.3467Z" fill="#F3776D"/>
<path d="M33.6868 42.3242C32.9841 42.2603 32.4091 42.8353 32.3452 43.538L31.9619 50.1822C31.898 50.8849 32.473 51.4599 33.1757 51.5238H33.2396C33.8785 51.5238 34.4534 51.0127 34.5173 50.31L34.9007 43.6658C34.9007 42.9631 34.3896 42.3242 33.6868 42.3242Z" fill="#F3776D"/>
<path d="M51.6391 24.5003H78.9823C79.6851 24.5003 80.26 23.9253 80.26 23.2225C80.26 22.5198 79.6851 21.9448 78.9823 21.9448H51.6391C50.9363 21.9448 50.3613 22.5198 50.3613 23.2225C50.3613 23.9253 50.9363 24.5003 51.6391 24.5003Z" fill="#F3776D"/>
<path d="M51.6391 33.572H68.505C69.2077 33.572 69.7827 32.9971 69.7827 32.2943C69.7827 31.5916 69.2077 31.0166 68.505 31.0166H51.6391C50.9363 31.0166 50.3613 31.5916 50.3613 32.2943C50.3613 32.9971 50.9363 33.572 51.6391 33.572Z" fill="#F3776D"/>
<path d="M29.0235 32.6139C33.1122 32.6139 36.4982 29.2918 36.4982 25.1392C36.4982 21.0505 33.1761 17.6646 29.0235 17.6646C24.9348 17.6646 21.5488 20.9866 21.5488 25.1392C21.5488 29.2918 24.8709 32.6139 29.0235 32.6139ZM29.0235 20.2839C31.7067 20.2839 33.9427 22.456 33.9427 25.2031C33.9427 27.9502 31.7706 30.1223 29.0235 30.1223C26.2764 30.1223 24.1043 27.9502 24.1043 25.2031C24.1043 22.456 26.2764 20.2839 29.0235 20.2839Z" fill="#F3776D"/>
</svg>
