<svg width="75" height="100" viewBox="0 0 75 100" fill="none" xmlns="http://www.w3.org/2000/svg">
<path d="M78.2795 68.0473L74.7994 65.9665C73.7386 65.3333 72.525 64.9991 71.2886 64.9984H66.0512C64.979 64.9964 63.9115 65.1342 62.8747 65.4072L47.0944 69.6346C45.369 70.11 43.9833 71.3925 43.3788 73.0737L29.4986 65.5797C28.373 64.9405 27.0553 64.7234 25.7837 64.9671C25.304 65.0517 24.8389 65.2041 24.4019 65.4199C23.4152 65.8913 22.5965 66.653 22.0548 67.6018C21.581 68.4281 21.3322 69.3636 21.3322 70.3151C21.3175 72.258 22.349 74.0585 24.033 75.0319L48.9098 89.8861C49.9906 90.554 51.2356 90.9075 52.5066 90.9075H71.759C72.619 90.9082 73.471 90.7457 74.2703 90.4301L78.2795 88.8501V90.9075H91.9435V63.6348H78.2795V68.0473ZM73.2662 87.8939C72.7878 88.0824 72.2774 88.1796 71.763 88.1802H52.5066C51.7367 88.1796 50.9821 87.9632 50.3296 87.5557L25.4187 72.6842C24.5721 72.1961 24.0537 71.2919 24.0603 70.3165C24.0623 69.8384 24.1884 69.3683 24.4266 68.9528C24.6988 68.4821 25.1085 68.1045 25.6002 67.8715C25.817 67.7663 26.0465 67.6917 26.2834 67.6504C26.4562 67.6185 26.6317 67.6018 26.8071 67.6018C27.2768 67.6005 27.7385 67.723 28.1462 67.9561L43.1973 76.0726C43.2147 76.1559 43.2147 76.2378 43.2367 76.321C43.8838 78.7014 46.0475 80.3546 48.5195 80.3573C49.2801 80.2881 50.0333 80.1536 50.7712 79.9565L64.9677 76.1652L64.2631 73.5305L50.1127 77.3051C49.4896 77.4483 48.6856 77.612 48.5195 77.626C47.2852 77.628 46.203 76.8051 45.8781 75.6172C45.834 75.4521 45.808 75.2829 45.7987 75.1125C45.7987 75.1125 45.788 74.7822 45.7987 74.6664C45.9028 73.5258 46.7034 72.5683 47.8089 72.2614L63.5826 68.0499C64.3879 67.8349 65.2179 67.7257 66.0512 67.7257H71.2886C72.0306 67.7257 72.7585 67.9268 73.3943 68.307L78.2795 71.226V85.9164L73.2662 87.8939ZM81.0123 66.362H89.2107V88.1802H81.0123V66.362Z" fill="#F3776D"/>
<path d="M66.3156 19.998L58.9859 12.6838C56.6847 10.374 53.5536 9.0796 50.2904 9.08892H33.1116C32.0514 9.09025 31.006 9.33727 30.0565 9.80869L26.9941 11.3375C26.3803 11.6457 25.6985 11.7929 25.0119 11.7656L23.6235 11.717V9.08892H9.95947V39.0889H23.6235V34.998H25.9467L26.7733 35.5433C29.0865 37.0761 31.7799 37.9417 34.5547 38.0429V55.4526H91.9437V19.998H66.3156ZM20.8907 36.3617H12.6923V11.8162H20.8907V36.3617ZM28.2858 33.2742L26.766 32.2708H23.6235V14.4456L24.9118 14.4915C26.0561 14.5321 27.1916 14.2865 28.2158 13.7771L31.2755 12.2483C31.8453 11.964 32.4744 11.8162 33.1116 11.8162H50.2904C52.8284 11.8089 55.2643 12.8156 57.0537 14.6114L62.4512 19.998H51.1758L47.8592 16.6888L45.9276 18.6164L55.5799 28.2498C56.652 29.3151 56.6554 31.0463 55.5879 32.1169C54.5197 33.1869 52.785 33.1903 51.7128 32.1249L43.6512 24.0796L42.6944 24.8979C40.053 27.1365 36.192 27.1937 33.4846 25.0338L32.6926 24.3932L30.9706 26.5119L31.7712 27.1598C32.6085 27.8276 33.5486 28.3563 34.5547 28.7252V35.3143C32.3183 35.2151 30.1506 34.51 28.2858 33.2742ZM47.723 31.9978L49.7847 34.0559C51.925 36.1599 55.361 36.1632 57.5047 34.0625C55.4991 37.162 56.2904 41.2869 59.3014 43.4275C62.3125 45.5682 66.4777 44.967 68.7575 42.0632C71.0373 39.1589 70.6257 34.9787 67.8221 32.5737C65.0193 30.1687 60.816 30.3891 58.2813 33.0738C59.2147 31.6109 59.3815 29.7878 58.729 28.1798H77.0267C77.6145 31.6109 80.3072 34.2982 83.7453 34.8848V40.5658C80.3072 41.1524 77.6145 43.8397 77.0267 47.2708H49.4718C48.884 43.8397 46.1912 41.1524 42.7532 40.5658V34.8848C44.706 34.5566 46.4721 33.5305 47.723 31.9978ZM59.15 37.7253C59.15 35.4661 60.9854 33.6344 63.2492 33.6344C65.513 33.6344 67.3484 35.4661 67.3484 37.7253C67.3484 39.9845 65.513 41.8162 63.2492 41.8162C60.9854 41.8162 59.15 39.9845 59.15 37.7253ZM89.2109 52.7253H37.2875V29.2965C39.4539 29.4589 41.6136 28.9076 43.4364 27.7284L45.7675 30.0548C44.742 31.4451 43.1168 32.2674 41.3868 32.2708H40.0203V43.1798H41.3868C44.4051 43.1798 46.8524 45.6221 46.8524 48.6344V49.998H79.646V48.6344C79.646 45.6221 82.0933 43.1798 85.1117 43.1798H86.4781V32.2708H85.1117C82.0933 32.2708 79.646 29.8285 79.646 26.8162V25.4526H56.6414L53.9086 22.7253H89.2109V52.7253Z" fill="#F3776D"/>
</svg>
