<svg width="74" height="100" viewBox="0 0 74 100" fill="none" xmlns="http://www.w3.org/2000/svg">
<path d="M53.8281 29.8633H46.1719C41.4062 29.8633 37.5 33.7695 37.5 38.5352V41.7383H62.5V38.5352C62.5 33.75 58.5938 29.8633 53.8281 29.8633ZM55.2344 27.5977C60.6641 28.3008 64.8438 32.9688 64.8438 38.5156V42.9102C64.8438 43.5547 64.3164 44.082 63.6719 44.082H36.3281C35.6836 44.082 35.1562 43.5547 35.1562 42.9102V38.5156C35.1562 32.9688 39.3359 28.2813 44.7656 27.5977C43.6133 26.6016 42.7539 25.2734 42.3438 23.7695C33.9844 26.2109 27.2656 32.5586 24.2969 40.7227C29.5898 42.0117 31.4648 48.6914 27.5 52.5195C32.0703 53.2812 35.5273 57.2656 35.5273 61.9922V65.7422C35.5273 66.3867 35 66.9141 34.3555 66.9141H28.5937C29.9023 68.5742 31.4062 70.0781 33.0664 71.3867C35.5078 67.7734 39.5312 65.3516 44.043 65.0781C38.9453 61.4063 38.3203 54.0234 42.793 49.5703C46.7773 45.5859 53.2422 45.5859 57.2461 49.5703C61.6992 54.0234 61.0938 61.4063 55.9961 65.0781C60.5273 65.3516 64.5312 67.7539 66.9922 71.3867C68.6523 70.0781 70.1562 68.5742 71.4648 66.9141H65.6836C65.0391 66.9141 64.5117 66.3867 64.5117 65.7422V61.9922C64.5117 57.2852 67.9688 53.2812 72.5391 52.5195C68.5547 48.6719 70.4492 42.0117 75.7227 40.7227C72.7734 32.5586 66.0547 26.2109 57.6758 23.7695C57.2266 25.2734 56.3867 26.6016 55.2344 27.5977ZM50 15.9766C45.0195 15.9766 42.5 22.0312 46.0156 25.5664C49.5508 29.1016 55.6055 26.582 55.6055 21.582C55.6055 18.4961 53.1055 15.9766 50 15.9766ZM44.375 15.9766C47.4805 12.8711 52.5195 12.8711 55.6445 15.9766C57.0508 17.3828 57.9297 19.2969 57.9687 21.4258C67.4414 24.0625 75 31.2695 78.125 40.5664C83.9844 41.1914 86.4844 48.4375 82.2266 52.5391C86.7969 53.3008 90.2539 57.2852 90.2539 62.0117V65.7617C90.2539 66.4063 89.7266 66.9336 89.082 66.9336H74.3555C72.6172 69.4141 70.5273 71.6211 68.125 73.4766C68.9453 75.2734 69.3945 77.2656 69.3945 79.3555V85.1953C69.3945 85.8398 68.8672 86.3672 68.2227 86.3672H31.7969C31.1523 86.3672 30.625 85.8398 30.625 85.1953V79.3555C30.625 77.2656 31.0938 75.2734 31.8945 73.4766C29.4922 71.6211 27.4023 69.4141 25.6641 66.9336H10.9375C10.293 66.9336 9.76562 66.4063 9.76562 65.7617V62.0117C9.76562 57.3047 13.2227 53.3008 17.793 52.5391C14.9805 49.8242 14.9414 45.332 17.6953 42.5781C18.7891 41.4844 20.2539 40.7422 21.875 40.5664C25 31.2695 32.5586 24.0625 42.0312 21.4258C42.0898 19.2969 42.9688 17.3633 44.375 15.9766ZM55.0977 67.4219H44.8828C38.3203 67.4219 32.9492 72.793 32.9492 79.3555V84.0234H67.0313V79.3555C67.0313 72.793 61.6602 67.4219 55.0977 67.4219ZM50 48.9453C45.6445 48.9453 42.1289 52.4805 42.1289 56.8164C42.1289 61.1719 45.6641 64.6875 50 64.6875C54.3359 64.6875 57.8711 61.1719 57.8711 56.8164C57.8711 52.4609 54.3555 48.9453 50 48.9453ZM80.6445 54.7461H74.082C70.0977 54.7461 66.8359 58.0078 66.8359 61.9922V64.5703H87.8906V61.9922C87.8906 58.0078 84.6289 54.7461 80.6445 54.7461ZM77.3633 42.8711C73.2422 42.8711 71.1719 47.8711 74.082 50.8008C76.9922 53.7109 81.9922 51.6406 81.9922 47.5195C81.9922 44.9414 79.9219 42.8711 77.3633 42.8711ZM25.918 54.7461H19.3555C15.3711 54.7461 12.1094 58.0078 12.1094 61.9922V64.5703H33.1836V61.9922C33.1836 58.0078 29.9023 54.7461 25.918 54.7461ZM22.6367 42.8711C18.5156 42.8711 16.4453 47.8711 19.3555 50.8008C22.2656 53.7109 27.2656 51.6406 27.2656 47.5195C27.2852 44.9414 25.1953 42.8711 22.6367 42.8711Z" fill="#F3776D"/>
</svg>
