<svg width="74" height="100" viewBox="0 0 74 100" fill="none" xmlns="http://www.w3.org/2000/svg">
<path d="M15.5496 45.3921H16.2864L22.6368 51.7424C22.8989 52.0045 23.2501 52.1445 23.6069 52.1445C23.7839 52.1445 23.9623 52.1102 24.1324 52.0402C24.6456 51.8275 24.979 51.3267 24.979 50.7723V45.3921H40.8247C44.3869 45.3921 47.2835 42.4955 47.2835 38.9333V34.2062H73.8663V39.6537C73.8663 40.2081 74.2011 40.7089 74.7129 40.9216C74.8831 40.9916 75.0615 41.0259 75.2385 41.0259C75.5952 41.0259 75.9465 40.8859 76.2086 40.6238L82.6262 34.2062H83.702C87.9584 34.2062 91.4204 30.7443 91.4204 26.4878V16.8073C91.4204 12.5508 87.9584 9.08887 83.702 9.08887H41.0731C36.8167 9.08887 33.3547 12.5508 33.3547 16.8073V20.2747H15.5496C11.9874 20.2747 9.09082 23.1713 9.09082 26.7335V38.932C9.09082 42.4941 11.9874 45.3907 15.5496 45.3907V45.3921ZM36.099 16.8073C36.099 14.0643 38.3302 11.8332 41.0731 11.8332H83.702C86.4449 11.8332 88.676 14.0643 88.676 16.8073V26.4851C88.676 29.228 86.4449 31.4592 83.702 31.4592H82.0581C81.6931 31.4592 81.3446 31.6033 81.088 31.8612L76.6106 36.3386V32.8313C76.6106 32.0739 75.9973 31.4592 75.2385 31.4592H47.2835V26.7321C47.2835 23.17 44.3869 20.2733 40.8247 20.2733H36.099V16.8073ZM11.8351 26.7335C11.8351 24.6848 13.5023 23.019 15.5496 23.019H40.8247C42.872 23.019 44.5392 24.6848 44.5392 26.7335V38.932C44.5392 40.9806 42.872 42.6464 40.8247 42.6464H23.6069C22.8481 42.6464 22.2347 43.2611 22.2347 44.0185V47.4585L17.8246 43.0484C17.5666 42.7905 17.2195 42.6464 16.8545 42.6464H15.5496C13.5023 42.6464 11.8351 40.9806 11.8351 38.932V26.7335Z" fill="#F3776D"/>
<path d="M43.064 57.8841C43.064 52.9196 39.0257 48.8813 34.0599 48.8813C29.094 48.8813 25.0571 52.9196 25.0571 57.8841C25.0571 62.8486 29.0954 66.8868 34.0599 66.8868C39.0243 66.8868 43.064 62.8486 43.064 57.8841ZM27.8028 57.8841C27.8028 54.4331 30.6103 51.6257 34.0612 51.6257C37.5122 51.6257 40.321 54.4331 40.321 57.8841C40.321 61.3351 37.5136 64.1425 34.0612 64.1425C30.6089 64.1425 27.8028 61.3351 27.8028 57.8841Z" fill="#F3776D"/>
<path d="M19.4028 80.8777V90.0464C19.4028 90.8039 20.0162 91.4186 20.775 91.4186H47.3468C48.1057 91.4186 48.719 90.8039 48.719 90.0464V80.8777C48.719 73.9757 43.1041 68.3608 36.2022 68.3608H31.9197C25.0177 68.3608 19.4028 73.9757 19.4028 80.8777ZM31.9197 71.1052H36.2022C41.5906 71.1052 45.9747 75.4892 45.9747 80.8777V88.6743H22.1472V80.8777C22.1472 75.4892 26.5312 71.1052 31.9197 71.1052Z" fill="#F3776D"/>
<path d="M76.3168 57.8841C76.3168 52.9196 72.2785 48.8813 67.3127 48.8813C62.3469 48.8813 58.3086 52.9196 58.3086 57.8841C58.3086 62.8486 62.3469 66.8868 67.3127 66.8868C72.2785 66.8868 76.3168 62.8486 76.3168 57.8841ZM61.0543 57.8841C61.0543 54.4331 63.8617 51.6257 67.3141 51.6257C70.7664 51.6257 73.5739 54.4331 73.5739 57.8841C73.5739 61.3351 70.7664 64.1425 67.3141 64.1425C63.8617 64.1425 61.0543 61.3351 61.0543 57.8841Z" fill="#F3776D"/>
<path d="M52.6553 80.8777V90.0464C52.6553 90.8039 53.2686 91.4186 54.0274 91.4186H80.5993C81.3581 91.4186 81.9714 90.8039 81.9714 90.0464V80.8777C81.9714 73.9757 76.3566 68.3608 69.4546 68.3608H65.1721C58.2701 68.3608 52.6553 73.9757 52.6553 80.8777ZM65.1721 71.1052H69.4546C74.8431 71.1052 79.2271 75.4892 79.2271 80.8777V88.6743H55.3996V80.8777C55.3996 75.4892 59.7836 71.1052 65.1721 71.1052Z" fill="#F3776D"/>
<path d="M20.6197 33.8151C21.3785 33.8151 21.9919 33.2004 21.9919 32.443C21.9919 31.6855 21.3785 31.0708 20.6197 31.0708H20.606C19.8486 31.0708 19.2407 31.6855 19.2407 32.443C19.2407 33.2004 19.8623 33.8151 20.6197 33.8151Z" fill="#F3776D"/>
<path d="M28.2145 33.8151C28.9733 33.8151 29.5866 33.2004 29.5866 32.443C29.5866 31.6855 28.9733 31.0708 28.2145 31.0708H28.2007C27.4433 31.0708 26.8354 31.6855 26.8354 32.443C26.8354 33.2004 27.457 33.8151 28.2145 33.8151Z" fill="#F3776D"/>
<path d="M35.8082 33.8151C36.567 33.8151 37.1804 33.2004 37.1804 32.443C37.1804 31.6855 36.567 31.0708 35.8082 31.0708H35.7945C35.0371 31.0708 34.4292 31.6855 34.4292 32.443C34.4292 33.2004 35.0508 33.8151 35.8082 33.8151Z" fill="#F3776D"/>
</svg>
