<svg width="75" height="100" viewBox="0 0 75 100" fill="none" xmlns="http://www.w3.org/2000/svg">
<path d="M83.5933 16.1213H80.9819V14.8183C80.9819 13.7815 80.5693 12.7872 79.8347 12.0541C79.1001 11.321 78.1038 10.9092 77.0649 10.9092C76.0261 10.9092 75.0298 11.321 74.2952 12.0541C73.5606 12.7872 73.1479 13.7815 73.1479 14.8183V16.1213H67.9252V14.8183C67.9252 13.7815 67.5125 12.7872 66.7779 12.0541C66.0434 11.321 65.047 10.9092 64.0082 10.9092C62.9693 10.9092 61.973 11.321 61.2384 12.0541C60.5039 12.7872 60.0912 13.7815 60.0912 14.8183V16.1213H54.8685V14.8183C54.8685 13.7815 54.4558 12.7872 53.7212 12.0541C52.9866 11.321 51.9903 10.9092 50.9515 10.9092C49.9126 10.9092 48.9163 11.321 48.1817 12.0541C47.4471 12.7872 47.0344 13.7815 47.0344 14.8183V16.1213H41.8117V14.8183C41.8117 13.7815 41.3991 12.7872 40.6645 12.0541C39.9299 11.321 38.9336 10.9092 37.8947 10.9092C36.8559 10.9092 35.8596 11.321 35.125 12.0541C34.3904 12.7872 33.9777 13.7815 33.9777 14.8183V16.1213H28.755V14.8183C28.755 13.7815 28.3423 12.7872 27.6077 12.0541C26.8732 11.321 25.8768 10.9092 24.838 10.9092C23.7991 10.9092 22.8028 11.321 22.0682 12.0541C21.3336 12.7872 20.921 13.7815 20.921 14.8183V16.1213H18.3096C16.5788 16.1234 14.9195 16.8105 13.6957 18.0318C12.4718 19.2532 11.7833 20.9092 11.7812 22.6365V82.5759C11.7833 84.3031 12.4718 85.9591 13.6957 87.1805C14.9195 88.4019 16.5788 89.0889 18.3096 89.091H83.5933C85.3241 89.0889 86.9834 88.4019 88.2073 87.1805C89.4311 85.9591 90.1196 84.3031 90.1217 82.5759V22.6365C90.1196 20.9092 89.4311 19.2532 88.2073 18.0318C86.9834 16.8105 85.3241 16.1234 83.5933 16.1213ZM75.7593 14.8183C75.7593 14.4727 75.8968 14.1413 76.1417 13.8969C76.3865 13.6525 76.7186 13.5152 77.0649 13.5152C77.4112 13.5152 77.7433 13.6525 77.9882 13.8969C78.233 14.1413 78.3706 14.4727 78.3706 14.8183V20.0304C78.3706 20.376 78.233 20.7074 77.9882 20.9518C77.7433 21.1961 77.4112 21.3334 77.0649 21.3334C76.7186 21.3334 76.3865 21.1961 76.1417 20.9518C75.8968 20.7074 75.7593 20.376 75.7593 20.0304V14.8183ZM62.7025 14.8183C62.7025 14.4727 62.8401 14.1413 63.0849 13.8969C63.3298 13.6525 63.6619 13.5152 64.0082 13.5152C64.3545 13.5152 64.6866 13.6525 64.9314 13.8969C65.1763 14.1413 65.3139 14.4727 65.3139 14.8183V20.0304C65.3139 20.376 65.1763 20.7074 64.9314 20.9518C64.6866 21.1961 64.3545 21.3334 64.0082 21.3334C63.6619 21.3334 63.3298 21.1961 63.0849 20.9518C62.8401 20.7074 62.7025 20.376 62.7025 20.0304V14.8183ZM49.6458 14.8183C49.6458 14.4727 49.7833 14.1413 50.0282 13.8969C50.2731 13.6525 50.6052 13.5152 50.9515 13.5152C51.2977 13.5152 51.6298 13.6525 51.8747 13.8969C52.1196 14.1413 52.2571 14.4727 52.2571 14.8183V20.0304C52.2571 20.376 52.1196 20.7074 51.8747 20.9518C51.6298 21.1961 51.2977 21.3334 50.9515 21.3334C50.6052 21.3334 50.2731 21.1961 50.0282 20.9518C49.7833 20.7074 49.6458 20.376 49.6458 20.0304V14.8183ZM36.589 14.8183C36.589 14.4727 36.7266 14.1413 36.9715 13.8969C37.2163 13.6525 37.5484 13.5152 37.8947 13.5152C38.241 13.5152 38.5731 13.6525 38.818 13.8969C39.0628 14.1413 39.2004 14.4727 39.2004 14.8183V20.0304C39.2004 20.376 39.0628 20.7074 38.818 20.9518C38.5731 21.1961 38.241 21.3334 37.8947 21.3334C37.5484 21.3334 37.2163 21.1961 36.9715 20.9518C36.7266 20.7074 36.589 20.376 36.589 20.0304V14.8183ZM23.5323 14.8183C23.5323 14.4727 23.6699 14.1413 23.9147 13.8969C24.1596 13.6525 24.4917 13.5152 24.838 13.5152C25.1843 13.5152 25.5164 13.6525 25.7612 13.8969C26.0061 14.1413 26.1437 14.4727 26.1437 14.8183V20.0304C26.1437 20.376 26.0061 20.7074 25.7612 20.9518C25.5164 21.1961 25.1843 21.3334 24.838 21.3334C24.4917 21.3334 24.1596 21.1961 23.9147 20.9518C23.6699 20.7074 23.5323 20.376 23.5323 20.0304V14.8183ZM87.5103 82.5759C87.5103 83.6126 87.0976 84.6069 86.363 85.34C85.6285 86.0731 84.6321 86.4849 83.5933 86.4849H18.3096C17.2708 86.4849 16.2744 86.0731 15.5399 85.34C14.8053 84.6069 14.3926 83.6126 14.3926 82.5759V29.1516H87.5103V82.5759ZM87.5103 26.5455H14.3926V22.6365C14.3926 21.5997 14.8053 20.6054 15.5399 19.8723C16.2744 19.1392 17.2708 18.7274 18.3096 18.7274H20.921V20.0304C20.921 21.0671 21.3336 22.0614 22.0682 22.7945C22.8028 23.5276 23.7991 23.9395 24.838 23.9395C25.8768 23.9395 26.8732 23.5276 27.6077 22.7945C28.3423 22.0614 28.755 21.0671 28.755 20.0304V18.7274H33.9777V20.0304C33.9777 21.0671 34.3904 22.0614 35.125 22.7945C35.8596 23.5276 36.8559 23.9395 37.8947 23.9395C38.9336 23.9395 39.9299 23.5276 40.6645 22.7945C41.3991 22.0614 41.8117 21.0671 41.8117 20.0304V18.7274H47.0344V20.0304C47.0344 21.0671 47.4471 22.0614 48.1817 22.7945C48.9163 23.5276 49.9126 23.9395 50.9515 23.9395C51.9903 23.9395 52.9866 23.5276 53.7212 22.7945C54.4558 22.0614 54.8685 21.0671 54.8685 20.0304V18.7274H60.0912V20.0304C60.0912 21.0671 60.5039 22.0614 61.2384 22.7945C61.973 23.5276 62.9693 23.9395 64.0082 23.9395C65.047 23.9395 66.0434 23.5276 66.7779 22.7945C67.5125 22.0614 67.9252 21.0671 67.9252 20.0304V18.7274H73.1479V20.0304C73.1479 21.0671 73.5606 22.0614 74.2952 22.7945C75.0298 23.5276 76.0261 23.9395 77.0649 23.9395C78.1038 23.9395 79.1001 23.5276 79.8347 22.7945C80.5693 22.0614 80.9819 21.0671 80.9819 20.0304V18.7274H83.5933C84.6321 18.7274 85.6285 19.1392 86.363 19.8723C87.0976 20.6054 87.5103 21.5997 87.5103 22.6365V26.5455Z" fill="#F3776D"/>
<path d="M35.2076 74.2746C39.7306 74.2694 44.0669 72.4764 47.2652 69.2891C50.4635 66.1018 52.2625 61.7804 52.2678 57.2729C52.2643 54.4511 53.0936 51.6907 54.6525 49.3351C56.2114 46.9795 58.431 45.1328 61.035 44.0248C63.6391 42.9168 66.5126 42.5965 69.2979 43.1036C72.0832 43.6108 74.6574 44.9231 76.7 46.8772C78.7427 48.8313 80.1635 51.3409 80.7858 54.0937C81.4081 56.8464 81.2043 59.7208 80.1998 62.359C79.1953 64.9972 77.4345 67.2828 75.1365 68.9313C72.8384 70.5797 70.1047 71.5183 67.2754 71.6301L68.9434 69.9679C69.1824 69.7212 69.3147 69.3909 69.3117 69.048C69.3087 68.7051 69.1707 68.377 68.9274 68.1346C68.6841 67.8921 68.355 67.7545 68.0109 67.7516C67.6668 67.7486 67.3353 67.8804 67.0878 68.1186L63.1508 72.0421C62.9048 72.2874 62.7666 72.6199 62.7666 72.9667C62.7666 73.3135 62.9048 73.6461 63.1508 73.8914L67.0878 77.8148C67.3353 78.0531 67.6668 78.1849 68.0109 78.1819C68.355 78.1789 68.6841 78.0414 68.9274 77.7989C69.1707 77.5564 69.3087 77.2284 69.3117 76.8855C69.3147 76.5426 69.1824 76.2122 68.9434 75.9656L67.2203 74.2484C70.5691 74.1453 73.8131 73.0614 76.5474 71.132C79.2817 69.2025 81.385 66.5131 82.5947 63.3995C83.8045 60.2859 84.0669 56.8861 83.3494 53.6247C82.6319 50.3633 80.9661 47.3849 78.5602 45.0613C76.1543 42.7377 73.1148 41.172 69.8213 40.5596C66.5278 39.9473 63.1262 40.3154 60.0414 41.6181C56.9566 42.9208 54.3253 45.1004 52.476 47.8845C50.6267 50.6686 49.6414 53.934 49.6431 57.2729C49.6466 60.0946 48.8172 62.8551 47.2584 65.2107C45.6995 67.5662 43.4799 69.413 40.8759 70.5209C38.2718 71.6289 35.3983 71.9493 32.613 71.4421C29.8276 70.9349 27.2535 69.6226 25.2108 67.6685C23.1682 65.7144 21.7473 63.2048 21.1251 60.452C20.5028 57.6993 20.7066 54.8249 21.711 52.1867C22.7155 49.5485 24.4764 47.2629 26.7744 45.6145C29.0725 43.966 31.8062 43.0274 34.6354 42.9156L32.9675 44.5778C32.8421 44.6985 32.7422 44.8428 32.6734 45.0023C32.6046 45.1619 32.5684 45.3335 32.5669 45.5072C32.5654 45.6808 32.5986 45.853 32.6646 46.0138C32.7306 46.1745 32.828 46.3205 32.9512 46.4433C33.0744 46.5661 33.221 46.6632 33.3822 46.729C33.5435 46.7947 33.7163 46.8278 33.8906 46.8263C34.0648 46.8248 34.237 46.7887 34.3971 46.7202C34.5572 46.6516 34.702 46.552 34.8231 46.4271L38.7601 42.5036C39.0061 42.2584 39.1443 41.9258 39.1443 41.579C39.1443 41.2322 39.0061 40.8996 38.7601 40.6544L34.8231 36.7309C34.5756 36.4927 34.2441 36.3608 33.9 36.3638C33.5559 36.3668 33.2268 36.5043 32.9835 36.7468C32.7402 36.9893 32.6021 37.3173 32.5991 37.6602C32.5962 38.0031 32.7284 38.3335 32.9675 38.5802L34.6906 40.2973C30.2154 40.4329 25.9733 42.3172 22.8804 45.5433C19.7874 48.7693 18.0918 53.0783 18.1597 57.5397C18.2276 62.0011 20.0535 66.2568 23.2432 69.3879C26.4329 72.5191 30.7304 74.2743 35.2076 74.2746Z" fill="#F3776D"/>
</svg>
