<svg width="20" height="21" viewBox="0 0 20 21" fill="none" xmlns="http://www.w3.org/2000/svg">
<g clip-path="url(#clip0_4001_2931)">
<path d="M9.55373 2.49205C9.73866 2.12601 10.2613 2.12601 10.4463 2.49204L12.3021 6.16515L12.7484 5.93967L12.3021 6.16515C12.5202 6.59693 12.9332 6.89699 13.4113 6.97104L17.4781 7.60097C17.8834 7.66375 18.0449 8.16084 17.7539 8.44984L14.8341 11.3499C14.4908 11.6908 14.3331 12.1763 14.4104 12.6538L15.068 16.7163C15.1335 17.1211 14.7107 17.4283 14.3459 17.2409L10.6855 15.3601C10.2553 15.139 9.74475 15.139 9.31447 15.3601L5.65409 17.2409C5.28932 17.4283 4.86647 17.1211 4.932 16.7163L5.58961 12.6538C5.66691 12.1763 5.50916 11.6908 5.16593 11.3499L2.24608 8.44984C1.95511 8.16084 2.11663 7.66375 2.52189 7.60097L6.5887 6.97104C7.06676 6.89699 7.47976 6.59693 7.69791 6.16515L9.55373 2.49205Z" fill="#FCC018" stroke="#FCC018"/>
</g>
<defs>
<clipPath id="clip0_4001_2931">
<rect width="20" height="20" fill="white" transform="translate(0 0.5)"/>
</clipPath>
</defs>
</svg>
