<svg width="56" height="56" viewBox="0 0 56 56" fill="none" xmlns="http://www.w3.org/2000/svg">
<path d="M46.5631 18.9919C46.1256 18.3982 45.7681 17.7495 45.5 17.0625C45.3071 16.3153 45.2129 15.546 45.22 14.7744C45.1675 13.4269 45.115 12.0313 44.3013 10.9113C43.4875 9.79125 42.1619 9.29688 40.8887 8.82875C40.1543 8.60382 39.4526 8.28314 38.8019 7.875C38.2238 7.39313 37.7119 6.83708 37.2794 6.22125C36.4788 5.1975 35.5688 4.03375 34.2169 3.59625C32.865 3.15875 31.5919 3.5525 30.2794 3.91563C29.5428 4.16716 28.7765 4.32158 28 4.375C27.2156 4.33093 26.4404 4.18384 25.6944 3.9375C24.4037 3.57438 23.0694 3.19813 21.7787 3.61813C20.4881 4.03813 19.5212 5.21938 18.7162 6.24313C18.2836 6.85098 17.7732 7.39959 17.1981 7.875C16.5529 8.28176 15.8572 8.6024 15.1288 8.82875C13.8556 9.29688 12.5431 9.77813 11.7163 10.9113C10.8894 12.0444 10.8413 13.4269 10.7975 14.7744C10.7989 15.5468 10.6988 16.3161 10.5 17.0625C10.2257 17.7474 9.86237 18.3932 9.41938 18.9831C8.70625 20.0769 7.875 21.3063 7.875 22.75C7.875 24.1938 8.70625 25.4231 9.43687 26.5081C9.87441 27.1018 10.2319 27.7505 10.5 28.4375C10.6929 29.1847 10.7871 29.954 10.78 30.7256C10.8325 32.0731 10.885 33.4688 11.6988 34.5888C12.5125 35.7088 13.8381 36.2031 15.1113 36.6713L15.7325 36.9031V51.625C15.7326 51.7694 15.7685 51.9116 15.8369 52.0388C15.9053 52.166 16.0041 52.2742 16.1246 52.3539C16.245 52.4337 16.3833 52.4823 16.5271 52.4956C16.6709 52.5089 16.8158 52.4863 16.9488 52.43L28 47.7794L39.0338 52.43C39.1417 52.476 39.2577 52.4998 39.375 52.5C39.6071 52.5 39.8296 52.4078 39.9937 52.2437C40.1578 52.0796 40.25 51.8571 40.25 51.625V36.8944L40.8713 36.6625C42.1444 36.1944 43.4569 35.7131 44.2838 34.58C45.1106 33.4469 45.1587 32.0644 45.2025 30.7169C45.2019 29.9474 45.3019 29.1811 45.5 28.4375C45.7743 27.7526 46.1376 27.1069 46.5806 26.5169C47.2938 25.4231 48.125 24.1938 48.125 22.75C48.125 21.3063 47.2938 20.0769 46.5631 18.9919ZM28.3412 46.0206C28.2333 45.9749 28.1172 45.9513 28 45.9513C27.8828 45.9513 27.7667 45.9749 27.6588 46.0206L17.5 50.3125V37.87C17.9433 38.3036 18.3515 38.7718 18.7206 39.27C19.5213 40.2938 20.4313 41.4575 21.7831 41.895C22.1807 42.0204 22.5956 42.0824 23.0125 42.0788C23.9257 42.0289 24.8279 41.8552 25.6944 41.5625C26.4404 41.3162 27.2156 41.1691 28 41.125C28.7844 41.1691 29.5596 41.3162 30.3056 41.5625C31.6181 41.9256 32.9306 42.3019 34.2431 41.8819C35.5556 41.4619 36.5006 40.2806 37.3056 39.2569C37.667 38.7641 38.0663 38.3004 38.5 37.87V50.3125L28.3412 46.0206ZM45.1106 25.5325C44.5663 26.2541 44.1246 27.0477 43.7981 27.8906C43.5537 28.7888 43.433 29.7161 43.4394 30.6469C43.3956 31.7844 43.3519 32.8606 42.8488 33.5519C42.3456 34.2431 41.3438 34.6238 40.25 35C39.3671 35.2795 38.5266 35.6784 37.7519 36.1856C37.0399 36.7594 36.4112 37.4293 35.8837 38.1763C35.175 39.0819 34.5013 39.9263 33.6613 40.215C32.8213 40.5038 31.85 40.18 30.765 39.8738C29.8702 39.583 28.94 39.4152 28 39.375C27.0533 39.4193 26.1171 39.593 25.2175 39.8913C24.1325 40.1975 23.1088 40.4863 22.3212 40.2325C21.5338 39.9788 20.8075 39.0994 20.0987 38.1894C19.5701 37.4447 18.9415 36.7764 18.2306 36.2031C17.4623 35.6912 16.6277 35.2864 15.75 35C14.6781 34.6063 13.6587 34.2344 13.1512 33.5344C12.6437 32.8344 12.6044 31.7844 12.5606 30.6294C12.567 29.6986 12.4463 28.7713 12.2019 27.8731C11.8754 27.0302 11.4337 26.2366 10.8894 25.515C10.2375 24.57 9.625 23.66 9.625 22.75C9.625 21.84 10.2375 20.93 10.8894 19.9675C11.4337 19.2459 11.8754 18.4523 12.2019 17.6094C12.4463 16.7112 12.567 15.7839 12.5606 14.8531C12.6044 13.7156 12.6481 12.6394 13.1512 11.9481C13.6544 11.2569 14.6562 10.8763 15.75 10.5C16.6329 10.2206 17.4734 9.82165 18.2481 9.31438C18.9601 8.74066 19.5888 8.0707 20.1163 7.32375C20.825 6.41813 21.4988 5.57375 22.3388 5.285C22.5615 5.21847 22.7931 5.18602 23.0256 5.18875C23.7705 5.24066 24.5056 5.38769 25.2131 5.62625C26.115 5.91893 27.0526 6.08674 28 6.125C28.9467 6.08068 29.8829 5.90698 30.7825 5.60875C31.8675 5.3025 32.8913 5.01375 33.6788 5.2675C34.4663 5.52125 35.1925 6.40063 35.9012 7.31063C36.4299 8.05528 37.0585 8.72363 37.7694 9.29688C38.5377 9.80883 39.3723 10.2136 40.25 10.5C41.3219 10.8938 42.3413 11.2656 42.8488 11.9656C43.3563 12.6656 43.3956 13.7156 43.4394 14.8706C43.433 15.8014 43.5537 16.7287 43.7981 17.6269C44.1246 18.4698 44.5663 19.2634 45.1106 19.985C45.7625 20.93 46.375 21.84 46.375 22.75C46.375 23.66 45.7625 24.57 45.1106 25.5325Z" fill="#F3776D"/>
<path d="M28 12.25C25.9233 12.25 23.8932 12.8658 22.1665 14.0196C20.4398 15.1733 19.094 16.8132 18.2993 18.7318C17.5045 20.6504 17.2966 22.7616 17.7018 24.7984C18.1069 26.8352 19.1069 28.7062 20.5754 30.1746C22.0438 31.6431 23.9148 32.6431 25.9516 33.0482C27.9884 33.4534 30.0996 33.2455 32.0182 32.4507C33.9368 31.656 35.5767 30.3102 36.7304 28.5835C37.8842 26.8568 38.5 24.8267 38.5 22.75C38.5 19.9652 37.3938 17.2945 35.4246 15.3254C33.4555 13.3562 30.7848 12.25 28 12.25ZM28 31.5C26.2694 31.5 24.5777 30.9868 23.1388 30.0254C21.6998 29.0639 20.5783 27.6973 19.9161 26.0985C19.2538 24.4996 19.0805 22.7403 19.4181 21.043C19.7558 19.3456 20.5891 17.7865 21.8128 16.5628C23.0365 15.3391 24.5956 14.5057 26.293 14.1681C27.9903 13.8305 29.7496 14.0038 31.3485 14.6661C32.9473 15.3283 34.3139 16.4498 35.2754 17.8888C36.2368 19.3277 36.75 21.0194 36.75 22.75C36.75 25.0706 35.8281 27.2962 34.1872 28.9372C32.5462 30.5781 30.3206 31.5 28 31.5Z" fill="#F3776D"/>
</svg>
