<svg width="24" height="24" viewBox="0 0 24 24" fill="none" xmlns="http://www.w3.org/2000/svg">
<path fill-rule="evenodd" clip-rule="evenodd" d="M19.4949 3.13284C19.7165 2.99955 19.9811 2.95727 20.2332 3.01489C20.4853 3.0725 20.7052 3.22552 20.8469 3.44184L21.8369 4.95184C21.966 5.1491 22.0212 5.38561 21.9928 5.61963C21.9645 5.85364 21.8544 6.07011 21.6819 6.23084L21.6789 6.23484L21.6649 6.24784L21.6079 6.30084L21.3829 6.51584C20.138 7.7235 18.9307 8.96943 17.7629 10.2518C15.5659 12.6678 12.9569 15.8298 11.2009 18.8978C10.7109 19.7538 9.51391 19.9378 8.80391 19.1988L2.31891 12.4608C2.22598 12.3642 2.15341 12.2499 2.10553 12.1247C2.05765 11.9995 2.03542 11.866 2.04018 11.732C2.04494 11.5981 2.07658 11.4664 2.13322 11.3449C2.18987 11.2235 2.27036 11.1146 2.36991 11.0248L4.32991 9.25684C4.50215 9.10155 4.72301 9.01095 4.95469 9.00055C5.18637 8.99015 5.41445 9.0606 5.59991 9.19984L8.90891 11.6808C14.0779 6.58384 17.0089 4.62784 19.4949 3.13284ZM19.7049 5.34884C17.4149 6.78084 14.5569 8.85784 9.70691 13.7068C9.53672 13.877 9.31085 13.9801 9.07077 13.9972C8.83068 14.0143 8.59249 13.9442 8.39991 13.7998L5.05791 11.2938L4.47691 11.8178L9.79391 17.3438C11.6399 14.2738 14.1809 11.2178 16.2839 8.90584C17.3914 7.68932 18.5335 6.50484 19.7089 5.35384L19.7049 5.34884Z" fill="white"/>
</svg>
