<svg width="53" height="52" viewBox="0 0 53 52" fill="none" xmlns="http://www.w3.org/2000/svg">
<path d="M49.6427 29.4888C49.5402 27.879 48.1508 26.6511 46.5349 26.7557L45.8433 26.8004C48.6454 25.1267 50.5263 22.0635 50.5263 18.5688C50.5263 13.2855 46.2282 8.98736 40.9439 8.98736C35.6606 8.98736 31.3625 13.2855 31.3625 18.5688C31.3625 22.4972 33.7401 25.8813 37.1313 27.358L17.1163 28.6387C17.1194 28.6133 17.1214 28.5869 17.1224 28.5595L17.1773 26.7984C17.8679 26.5983 18.5331 26.3231 19.1628 25.9767L20.4456 27.1823C20.7604 27.4788 21.2459 27.4707 21.5516 27.165L24.2278 24.4888C24.5335 24.1831 24.5416 23.6967 24.245 23.3828L23.0385 22.1001C23.3848 21.4704 23.66 20.8052 23.8601 20.1156L25.6212 20.0607C26.0528 20.0475 26.391 19.6981 26.391 19.2665V15.4813C26.391 15.0496 26.0528 14.7003 25.6212 14.6871L23.8601 14.6322C23.66 13.9416 23.3848 13.2763 23.0385 12.6467L24.244 11.3639C24.5406 11.0491 24.5324 10.5626 24.2267 10.2579L21.5506 7.58174C21.2449 7.27604 20.7594 7.26893 20.4445 7.56447L19.1618 8.77104C18.5321 8.42471 17.8659 8.14947 17.1742 7.94838L17.1214 6.18932C17.1082 5.75666 16.7599 5.41846 16.3272 5.41846H12.543C12.1103 5.41846 11.761 5.75666 11.7488 6.18932L11.696 7.94838C11.0043 8.14846 10.3381 8.42471 9.70736 8.77205L8.42564 7.56549C8.1108 7.26893 7.62431 7.27604 7.31861 7.58174L4.64346 10.2579C4.33775 10.5636 4.33064 11.0501 4.62721 11.3649L5.83377 12.6456C5.48642 13.2763 5.21119 13.9426 5.0101 14.6342L3.25103 14.6871C2.81838 14.7003 2.48017 15.0486 2.48017 15.4813V19.2655C2.48017 19.6981 2.81838 20.0475 3.25103 20.0597L5.0101 20.1125C5.21017 20.8042 5.48642 21.4714 5.83377 22.1011L4.62721 23.3818C4.33064 23.6967 4.33775 24.1831 4.64346 24.4888L7.31963 27.165C7.62533 27.4707 8.1108 27.4778 8.42666 27.1813L9.70736 25.9747C10.337 26.321 11.0023 26.5963 11.6939 26.7974L11.7488 28.5574C11.7538 28.7108 11.8016 28.853 11.8798 28.9718L4.31338 29.4563C2.7026 29.5588 1.47674 30.9533 1.58033 32.5641L1.72861 34.8767C1.74892 35.1996 2.01705 35.4474 2.33596 35.4474C2.34916 35.4474 2.36236 35.4474 2.37556 35.4464L16.9417 34.5141L10.5026 45.6677C10.3939 45.8566 10.3939 46.0881 10.5026 46.2771C10.6113 46.466 10.8124 46.5817 11.0307 46.5817H40.1954C40.4097 46.5817 40.6088 46.469 40.7185 46.2842C40.8281 46.0993 40.8332 45.8708 40.7306 45.6819L34.1017 33.4152L49.2223 32.4473C49.5585 32.426 49.8134 32.1365 49.791 31.8003L49.6427 29.4888ZM32.5813 18.5678C32.5813 13.9558 36.333 10.2051 40.9439 10.2051C45.5549 10.2051 49.3076 13.9568 49.3076 18.5678C49.3076 23.1787 45.5559 26.9304 40.9439 26.9304C36.332 26.9304 32.5813 23.1797 32.5813 18.5678ZM10.0506 24.7692C9.74291 24.5863 9.36103 24.629 9.10002 24.8738L7.89041 26.0133L5.79619 23.9191L6.93572 22.7095C7.1815 22.4485 7.22314 22.0666 7.04033 21.7589C6.62291 21.055 6.30806 20.2963 6.10697 19.5031C6.01861 19.1558 5.71799 18.9151 5.36049 18.9049L3.69892 18.8552V15.8936L5.3615 15.8438C5.719 15.8327 6.01861 15.593 6.10697 15.2456C6.30908 14.4514 6.62291 13.6928 7.04033 12.9899C7.22314 12.6822 7.1815 12.3003 6.93572 12.0393L5.79619 10.8297L7.89041 8.73447L9.10002 9.874C9.36103 10.1198 9.74291 10.1614 10.0506 9.97861C10.7545 9.56119 11.5131 9.24635 12.3063 9.04525C12.6537 8.95689 12.8944 8.65627 12.9045 8.29877L12.9543 6.63721H15.9159L15.9656 8.29877C15.9758 8.65729 16.2165 8.95689 16.5638 9.04525C17.357 9.24736 18.1147 9.56119 18.8175 9.9776C19.1253 10.1604 19.5071 10.1188 19.7681 9.87299L20.9798 8.73447L23.075 10.8297L21.9355 12.0413C21.6907 12.3024 21.6491 12.6832 21.8309 12.991C22.2473 13.6928 22.5611 14.4504 22.7632 15.2426C22.8516 15.5899 23.1512 15.8296 23.5087 15.8408L25.1723 15.8926V18.8552L23.5087 18.907C23.1512 18.9181 22.8516 19.1578 22.7632 19.5052C22.5611 20.2974 22.2473 21.055 21.8309 21.7568C21.6491 22.0646 21.6907 22.4464 21.9355 22.7064L23.075 23.9191L20.9798 26.0143L19.7681 24.8748C19.5071 24.629 19.1253 24.5874 18.8185 24.7702C18.1167 25.1866 17.3591 25.5004 16.5669 25.7025C16.2206 25.7909 15.9799 26.0895 15.9687 26.448L15.9169 28.1116H12.9543L12.9025 26.448C12.8913 26.0905 12.6506 25.7909 12.3043 25.7025C11.5111 25.5004 10.7524 25.1866 10.0506 24.7692ZM39.1706 45.364H12.0839L18.4011 34.4217L32.761 33.5025L39.1706 45.364ZM2.90471 34.1921L2.79502 32.4879C2.7351 31.5485 3.4501 30.7349 4.39056 30.675L46.6131 27.9724C47.5546 27.9146 48.3661 28.6285 48.426 29.568L48.5347 31.2722L2.90471 34.1921ZM21.6196 17.3744C21.6196 13.4124 18.397 10.1899 14.4351 10.1899C10.4731 10.1899 7.25056 13.4124 7.25056 17.3744C7.25056 21.3363 10.4731 24.5589 14.4351 24.5589C18.397 24.5589 21.6196 21.3353 21.6196 17.3744ZM9.60377 20.8671L9.9633 20.6589C10.2548 20.4903 10.3543 20.1176 10.1867 19.8261C10.0181 19.5346 9.64541 19.4351 9.35392 19.6027L8.99236 19.8119C8.73642 19.2431 8.5658 18.6287 8.49978 17.9828H8.91924C9.25541 17.9828 9.52861 17.7096 9.52861 17.3734C9.52861 17.0372 9.25541 16.764 8.91924 16.764H8.49978C8.5658 16.1181 8.73642 15.5036 8.99236 14.9349L9.35392 15.1441C9.44939 15.1989 9.55502 15.2253 9.6576 15.2253C9.86783 15.2253 10.073 15.1156 10.1857 14.9206C10.3543 14.6292 10.2538 14.2564 9.96228 14.0878L9.60174 13.8796C9.97447 13.3657 10.4264 12.9138 10.9403 12.541L11.1485 12.9016C11.2613 13.0966 11.4664 13.2063 11.6767 13.2063C11.7803 13.2063 11.8849 13.1799 11.9803 13.125C12.2718 12.9564 12.3713 12.5837 12.2038 12.2922L11.9945 11.9306C12.5633 11.6747 13.1778 11.5041 13.8237 11.4381V11.8575C13.8237 12.1937 14.0969 12.4669 14.4331 12.4669C14.7692 12.4669 15.0424 12.1937 15.0424 11.8575V11.4381C15.6884 11.5041 16.3028 11.6747 16.8716 11.9306L16.6624 12.2922C16.4938 12.5837 16.5943 12.9564 16.8858 13.125C16.9813 13.1799 17.0869 13.2063 17.1895 13.2063C17.3997 13.2063 17.6049 13.0966 17.7176 12.9016L17.9258 12.541C18.4397 12.9138 18.8917 13.3657 19.2644 13.8796L18.9038 14.0878C18.6124 14.2564 18.5128 14.6292 18.6804 14.9206C18.7931 15.1156 18.9983 15.2253 19.2085 15.2253C19.3121 15.2253 19.4167 15.1989 19.5122 15.1441L19.8738 14.9349C20.1297 15.5036 20.3003 16.1181 20.3663 16.764H19.9469C19.6107 16.764 19.3375 17.0372 19.3375 17.3734C19.3375 17.7096 19.6107 17.9828 19.9469 17.9828H20.3663C20.3003 18.6287 20.1297 19.2431 19.8738 19.8119L19.5122 19.6027C19.2207 19.4341 18.848 19.5346 18.6794 19.8261C18.5108 20.1176 18.6113 20.4903 18.9028 20.6589L19.2634 20.8671C18.8906 21.381 18.4387 21.833 17.9248 22.2057L17.7166 21.8452C17.548 21.5537 17.1753 21.4542 16.8838 21.6217C16.5923 21.7903 16.4928 22.1631 16.6603 22.4545L16.8695 22.8161C16.3008 23.0721 15.6863 23.2427 15.0404 23.3087V22.8892C15.0404 22.5531 14.7672 22.2799 14.431 22.2799C14.0949 22.2799 13.8217 22.5531 13.8217 22.8892V23.3087C13.1757 23.2427 12.5613 23.0721 11.9925 22.8161L12.2017 22.4545C12.3703 22.1631 12.2698 21.7903 11.9783 21.6217C11.6868 21.4531 11.3141 21.5537 11.1455 21.8452L10.9373 22.2047C10.4285 21.833 9.97549 21.381 9.60377 20.8671ZM13.8257 17.3744V13.9345C13.8257 13.5983 14.0989 13.3251 14.4351 13.3251C14.7713 13.3251 15.0445 13.5983 15.0445 13.9345V16.764H16.7517C17.0879 16.764 17.3611 17.0372 17.3611 17.3734C17.3611 17.7096 17.0879 17.9828 16.7517 17.9828H14.4351C14.0989 17.9838 13.8257 17.7106 13.8257 17.3744ZM47.8928 18.5678C47.8928 14.7358 44.7759 11.6188 40.9439 11.6188C37.112 11.6188 33.995 14.7358 33.995 18.5678C33.995 22.3997 37.112 25.5167 40.9439 25.5167C44.7759 25.5167 47.8928 22.3997 47.8928 18.5678ZM35.2148 18.5678C35.2148 15.4081 37.7853 12.8376 40.9449 12.8376C44.1045 12.8376 46.6751 15.4081 46.6751 18.5678C46.6751 21.7274 44.1045 24.2979 40.9449 24.2979C37.7853 24.2979 35.2148 21.7274 35.2148 18.5678ZM40.9439 23.198C40.6077 23.198 40.3345 22.9248 40.3345 22.5886V22.0046C39.6155 21.834 39.0193 21.3485 38.7695 20.6894C38.6506 20.3746 38.8091 20.0231 39.1239 19.9033C39.4388 19.7845 39.7902 19.9429 39.91 20.2578C40.0431 20.6081 40.4513 20.8529 40.9043 20.8529C41.466 20.8529 41.9413 20.4741 41.9413 20.0252C41.9413 19.8383 41.8905 19.6006 41.7483 19.5438L40.7337 19.1396L39.908 18.8562C39.193 18.6114 38.7309 17.9259 38.7309 17.1103C38.7309 16.1871 39.4083 15.4051 40.3356 15.1512V14.5469C40.3356 14.2107 40.6088 13.9375 40.9449 13.9375C41.2811 13.9375 41.5543 14.2107 41.5543 14.5469V15.1309C42.2734 15.3015 42.8695 15.787 43.1194 16.4461C43.2382 16.761 43.0798 17.1124 42.7649 17.2322C42.4501 17.351 42.0987 17.1926 41.9788 16.8778C41.8458 16.5274 41.4375 16.2826 40.9856 16.2826C40.4239 16.2826 39.9486 16.6614 39.9486 17.1103C39.9486 17.3388 40.041 17.6141 40.302 17.7035L41.142 17.9909C41.1511 17.9939 41.1603 17.998 41.1694 18.001L42.1972 18.4113C42.7985 18.651 43.158 19.2543 43.158 20.0252C43.158 20.9484 42.4806 21.7304 41.5533 21.9843V22.5886C41.5533 22.9248 41.2811 23.198 40.9439 23.198Z" fill="white"/>
</svg>
