<svg width="53" height="52" viewBox="0 0 53 52" fill="none" xmlns="http://www.w3.org/2000/svg">
<path d="M2.4873 37.375H49.6123C49.8278 37.375 50.0345 37.2894 50.1868 37.137C50.3392 36.9847 50.4248 36.778 50.4248 36.5625V15.4375C50.4248 15.222 50.3392 15.0153 50.1868 14.863C50.0345 14.7106 49.8278 14.625 49.6123 14.625H2.4873C2.27182 14.625 2.06515 14.7106 1.91278 14.863C1.76041 15.0153 1.6748 15.222 1.6748 15.4375V36.5625C1.6748 36.778 1.76041 36.9847 1.91278 37.137C2.06515 37.2894 2.27182 37.375 2.4873 37.375ZM29.2998 16.25H48.7998V35.75H29.2998V30.875H30.9248C32.2177 30.875 33.4577 30.3614 34.372 29.4471C35.2862 28.5329 35.7998 27.2929 35.7998 26C35.7998 24.7071 35.2862 23.4671 34.372 22.5529C33.4577 21.6386 32.2177 21.125 30.9248 21.125H29.2998V16.25ZM3.2998 16.25H27.6748V21.9375C27.6748 22.153 27.7604 22.3597 27.9128 22.512C28.0652 22.6644 28.2718 22.75 28.4873 22.75H30.9248C31.7868 22.75 32.6134 23.0924 33.2229 23.7019C33.8324 24.3114 34.1748 25.138 34.1748 26C34.1748 26.862 33.8324 27.6886 33.2229 28.2981C32.6134 28.9076 31.7868 29.25 30.9248 29.25H28.4873C28.2718 29.25 28.0652 29.3356 27.9128 29.488C27.7604 29.6403 27.6748 29.847 27.6748 30.0625V35.75H3.2998V16.25Z" fill="white"/>
<path d="M23.1191 24.4075C23.5353 24.0176 23.8246 23.5115 23.9495 22.955C24.0744 22.3985 24.0291 21.8173 23.8195 21.2869C23.6098 20.7565 23.2455 20.3014 22.7739 19.9807C22.3023 19.66 21.7451 19.4885 21.1748 19.4885C20.6045 19.4885 20.0473 19.66 19.5757 19.9807C19.1041 20.3014 18.7398 20.7565 18.5302 21.2869C18.3205 21.8173 18.2752 22.3985 18.4001 22.955C18.525 23.5115 18.8143 24.0176 19.2305 24.4075C18.6459 24.4835 18.1088 24.7693 17.7192 25.2117C17.3295 25.6541 17.1139 26.223 17.1123 26.8125V31.6875C17.1123 31.903 17.1979 32.1097 17.3503 32.262C17.5027 32.4144 17.7093 32.5 17.9248 32.5H24.4248C24.6403 32.5 24.847 32.4144 24.9993 32.262C25.1517 32.1097 25.2373 31.903 25.2373 31.6875V26.8125C25.2357 26.223 25.0201 25.6541 24.6304 25.2117C24.2408 24.7693 23.7037 24.4835 23.1191 24.4075ZM21.1748 21.125C21.4159 21.125 21.6515 21.1965 21.8519 21.3304C22.0523 21.4643 22.2085 21.6547 22.3008 21.8774C22.393 22.1001 22.4172 22.3451 22.3701 22.5815C22.3231 22.8179 22.207 23.0351 22.0366 23.2055C21.8661 23.376 21.649 23.4921 21.4126 23.5391C21.1762 23.5861 20.9311 23.562 20.7084 23.4697C20.4857 23.3775 20.2954 23.2213 20.1615 23.0209C20.0275 22.8204 19.9561 22.5848 19.9561 22.3438C19.9561 22.0205 20.0845 21.7105 20.313 21.482C20.5416 21.2534 20.8516 21.125 21.1748 21.125ZM23.6123 30.875H18.7373V26.8125C18.7373 26.597 18.8229 26.3903 18.9753 26.238C19.1277 26.0856 19.3343 26 19.5498 26H22.7998C23.0153 26 23.222 26.0856 23.3743 26.238C23.5267 26.3903 23.6123 26.597 23.6123 26.8125V30.875Z" fill="white"/>
<path d="M11.7441 24.4075C12.1603 24.0176 12.4496 23.5115 12.5745 22.955C12.6994 22.3985 12.6541 21.8173 12.4445 21.2869C12.2348 20.7565 11.8705 20.3014 11.3989 19.9807C10.9273 19.66 10.3701 19.4885 9.7998 19.4885C9.22948 19.4885 8.67232 19.66 8.20071 19.9807C7.72909 20.3014 7.3648 20.7565 7.15516 21.2869C6.94551 21.8173 6.90018 22.3985 7.02507 22.955C7.14996 23.5115 7.4393 24.0176 7.85549 24.4075C7.2709 24.4835 6.73382 24.7693 6.34419 25.2117C5.95455 25.6541 5.73888 26.223 5.7373 26.8125V31.6875C5.7373 31.903 5.82291 32.1097 5.97528 32.262C6.12765 32.4144 6.33432 32.5 6.5498 32.5H13.0498C13.2653 32.5 13.472 32.4144 13.6243 32.262C13.7767 32.1097 13.8623 31.903 13.8623 31.6875V26.8125C13.8607 26.223 13.6451 25.6541 13.2554 25.2117C12.8658 24.7693 12.3287 24.4835 11.7441 24.4075ZM9.7998 21.125C10.0409 21.125 10.2765 21.1965 10.4769 21.3304C10.6773 21.4643 10.8335 21.6547 10.9258 21.8774C11.018 22.1001 11.0422 22.3451 10.9951 22.5815C10.9481 22.8179 10.832 23.0351 10.6616 23.2055C10.4911 23.376 10.274 23.4921 10.0376 23.5391C9.80116 23.5861 9.55611 23.562 9.33341 23.4697C9.11071 23.3775 8.92037 23.2213 8.78645 23.0209C8.65253 22.8204 8.58105 22.5848 8.58105 22.3438C8.58105 22.0205 8.70946 21.7105 8.93802 21.482C9.16658 21.2534 9.47657 21.125 9.7998 21.125ZM12.2373 30.875H7.3623V26.8125C7.3623 26.597 7.44791 26.3903 7.60028 26.238C7.75265 26.0856 7.95932 26 8.1748 26H11.4248C11.6403 26 11.847 26.0856 11.9993 26.238C12.1517 26.3903 12.2373 26.597 12.2373 26.8125V30.875Z" fill="white"/>
<path d="M39.0498 32.5H45.5498C45.7653 32.5 45.972 32.4144 46.1243 32.262C46.2767 32.1097 46.3623 31.903 46.3623 31.6875V26.8125C46.3607 26.223 46.1451 25.6541 45.7554 25.2117C45.3658 24.7693 44.8287 24.4835 44.2441 24.4075C44.6603 24.0176 44.9496 23.5115 45.0745 22.955C45.1994 22.3985 45.1541 21.8173 44.9445 21.2869C44.7348 20.7565 44.3705 20.3014 43.8989 19.9807C43.4273 19.66 42.8701 19.4885 42.2998 19.4885C41.7295 19.4885 41.1723 19.66 40.7007 19.9807C40.2291 20.3014 39.8648 20.7565 39.6552 21.2869C39.4455 21.8173 39.4002 22.3985 39.5251 22.955C39.65 23.5115 39.9393 24.0176 40.3555 24.4075C39.7709 24.4835 39.2338 24.7693 38.8442 25.2117C38.4546 25.6541 38.2389 26.223 38.2373 26.8125V31.6875C38.2373 31.903 38.3229 32.1097 38.4753 32.262C38.6277 32.4144 38.8343 32.5 39.0498 32.5ZM42.2998 21.125C42.5409 21.125 42.7765 21.1965 42.9769 21.3304C43.1773 21.4643 43.3335 21.6547 43.4258 21.8774C43.518 22.1001 43.5422 22.3451 43.4951 22.5815C43.4481 22.8179 43.332 23.0351 43.1616 23.2055C42.9911 23.376 42.774 23.4921 42.5376 23.5391C42.3012 23.5861 42.0561 23.562 41.8334 23.4697C41.6107 23.3775 41.4204 23.2213 41.2865 23.0209C41.1525 22.8204 41.0811 22.5848 41.0811 22.3438C41.0811 22.0205 41.2095 21.7105 41.438 21.482C41.6666 21.2534 41.9766 21.125 42.2998 21.125ZM39.8623 26.8125C39.8623 26.597 39.9479 26.3903 40.1003 26.238C40.2527 26.0856 40.4593 26 40.6748 26H43.9248C44.1403 26 44.347 26.0856 44.4993 26.238C44.6517 26.3903 44.7373 26.597 44.7373 26.8125V30.875H39.8623V26.8125Z" fill="white"/>
<path d="M4.1123 7.31262C4.11228 7.44635 4.14527 7.57802 4.20835 7.69595C4.27142 7.81387 4.36262 7.9144 4.47387 7.98862L9.34887 11.2386C9.47123 11.3203 9.61346 11.3671 9.76039 11.3743C9.90731 11.3814 10.0534 11.3485 10.1831 11.2791C10.3128 11.2097 10.4212 11.1064 10.4968 10.9803C10.5724 10.8541 10.6123 10.7097 10.6123 10.5626V8.12512H18.7373V6.50012H10.6123V4.06262C10.6123 3.91552 10.5724 3.77118 10.4968 3.64499C10.4212 3.5188 10.3128 3.41549 10.1831 3.3461C10.0534 3.2767 9.90731 3.24382 9.76039 3.25096C9.61346 3.25809 9.47123 3.30498 9.34887 3.38662L4.47387 6.63662C4.36262 6.71084 4.27142 6.81137 4.20835 6.9293C4.14527 7.04722 4.11228 7.17889 4.1123 7.31262ZM8.9873 5.58118V9.04406L6.3873 7.31262L8.9873 5.58118Z" fill="white"/>
<path d="M21.9873 6.5H20.3623V8.125H21.9873V6.5Z" fill="white"/>
<path d="M41.9163 48.6542C42.046 48.7237 42.1922 48.7566 42.3391 48.7494C42.4861 48.7422 42.6284 48.6953 42.7507 48.6136L47.6257 45.3636C47.737 45.2894 47.8283 45.1889 47.8914 45.071C47.9545 44.953 47.9875 44.8214 47.9875 44.6876C47.9875 44.5539 47.9545 44.4222 47.8914 44.3043C47.8283 44.1863 47.737 44.0858 47.6257 44.0116L42.7507 40.7616C42.6284 40.68 42.4861 40.6331 42.3392 40.626C42.1923 40.6188 42.0462 40.6517 41.9165 40.7211C41.7868 40.7905 41.6784 40.8938 41.6028 41.02C41.5272 41.1462 41.4873 41.2905 41.4873 41.4376V43.8751H33.3623V45.5001H41.4873V47.9376C41.4872 48.0847 41.5271 48.2291 41.6027 48.3553C41.6782 48.4815 41.7866 48.5848 41.9163 48.6542ZM43.1123 42.9562L45.7123 44.6876L43.1123 46.4191V42.9562Z" fill="white"/>
<path d="M31.7373 43.875H30.1123V45.5H31.7373V43.875Z" fill="white"/>
</svg>
