<svg width="53" height="52" viewBox="0 0 53 52" fill="none" xmlns="http://www.w3.org/2000/svg">
<path d="M48.2958 7.57254C47.0446 5.42856 45.0306 3.66442 42.6266 2.6041C40.243 1.55395 37.6277 1.25738 35.2613 1.76926C30.4828 2.80317 27.373 6.84738 26.7128 12.8741L24.1483 16.9386C23.7005 17.6486 23.735 18.5504 24.2387 19.2918C24.7181 19.9977 25.5093 20.3562 26.3563 20.2506L26.5503 20.2262L26.984 23.9668C27.0591 24.6127 27.374 25.1601 27.895 25.5501C28.416 25.9391 29.0305 26.0864 29.6713 25.9746L32.2276 25.5298V30.4485C32.2276 30.7816 32.4948 31.0528 32.8279 31.0579L44.279 31.2224H44.2882C44.4487 31.2224 44.602 31.1594 44.7158 31.0467C44.8315 30.9319 44.8976 30.7755 44.8976 30.613V24.1039C47.5199 21.1088 49.1043 18.0812 49.607 15.1004C50.061 12.4211 49.607 9.81809 48.2958 7.57254ZM43.8342 23.4691C43.7347 23.5808 43.6798 23.725 43.6798 23.8743V29.9955L33.4474 29.8482V24.8057C33.4474 24.6259 33.3682 24.4553 33.2301 24.3395C33.0919 24.2237 32.9112 24.175 32.7334 24.2054L29.4641 24.7742C29.1533 24.829 28.8791 24.763 28.6262 24.5741C28.3733 24.3852 28.2322 24.1404 28.1956 23.8266L27.6908 19.4757C27.6726 19.3142 27.5893 19.1669 27.4613 19.0664C27.3333 18.9658 27.1708 18.9211 27.0094 18.9414L26.205 19.042C25.816 19.0907 25.4666 18.9323 25.2473 18.6083C25.0167 18.2681 24.9913 17.8872 25.1792 17.5897L27.8198 13.4053C27.8696 13.3261 27.9011 13.2357 27.9102 13.1422C28.479 7.59488 31.2526 3.88379 35.5193 2.96059C39.9088 2.01098 44.9483 4.25754 47.2426 8.18699C49.8081 12.5796 48.566 18.1503 43.8342 23.4691ZM44.9808 10.138L43.9896 9.92473C43.954 9.83231 43.9155 9.73989 43.8748 9.64848L44.4253 8.79637C44.666 8.42363 44.6152 7.94324 44.3014 7.62942L43.0684 6.39645C42.7546 6.08262 42.2752 6.03184 41.9025 6.27254L41.0504 6.82301C40.959 6.78238 40.8676 6.74379 40.7741 6.70824L40.5608 5.71699C40.4674 5.28332 40.0926 4.97965 39.6488 4.97965H37.905C37.4612 4.97965 37.0854 5.28332 36.993 5.71699L36.7797 6.70926C36.6873 6.74481 36.5948 6.7834 36.5034 6.82403L35.6513 6.27356C35.2786 6.03285 34.7992 6.08363 34.4844 6.39746L33.2504 7.63043C32.9365 7.94426 32.8858 8.42364 33.1265 8.79738L33.6769 9.64848C33.6363 9.73989 33.5977 9.83129 33.5622 9.92473L32.5709 10.138C32.1373 10.2314 31.8336 10.6062 31.8336 11.0511V12.7949C31.8336 13.2387 32.1373 13.6145 32.5709 13.7069L33.5622 13.9202C33.5977 14.0126 33.6363 14.105 33.6769 14.1964L33.1265 15.0486C32.8858 15.4213 32.9365 15.9007 33.2504 16.2155L34.4833 17.4485C34.7972 17.7623 35.2766 17.8141 35.6503 17.5724L36.5024 17.0219C36.5938 17.0625 36.6852 17.1011 36.7787 17.1367L36.9919 18.1279C37.0854 18.5616 37.4601 18.8653 37.904 18.8653H39.6478C40.0916 18.8653 40.4674 18.5616 40.5598 18.1279L40.7731 17.1367C40.8655 17.1011 40.958 17.0625 41.0494 17.0219L41.9015 17.5724C42.2742 17.8131 42.7546 17.7623 43.0674 17.4485L44.3004 16.2155C44.6142 15.9017 44.665 15.4213 44.4243 15.0486L43.8738 14.1964C43.9144 14.105 43.953 14.0136 43.9886 13.9202L44.9798 13.7069C45.4135 13.6135 45.7172 13.2387 45.7172 12.7949V11.0511C45.7182 10.6062 45.4145 10.2314 44.9808 10.138ZM44.4994 12.5643L43.5793 12.7624C43.2594 12.8314 43.0034 13.0569 42.8948 13.3657C42.8419 13.517 42.779 13.6683 42.7089 13.8136C42.5667 14.1091 42.588 14.4504 42.7658 14.7256L43.2766 15.5168L42.3697 16.4237L41.5785 15.9129C41.3033 15.7351 40.962 15.7138 40.6665 15.856C40.5202 15.9261 40.3699 15.989 40.2186 16.0418C39.9098 16.1505 39.6833 16.4064 39.6143 16.7264L39.4162 17.6465H38.1335L37.9355 16.7264C37.8664 16.4064 37.6409 16.1505 37.3322 16.0418C37.1808 15.989 37.0295 15.9261 36.8843 15.856C36.5887 15.7138 36.2475 15.7341 35.9723 15.9129L35.1811 16.4237L34.2741 15.5168L34.785 14.7256C34.9627 14.4504 34.9841 14.1091 34.8419 13.8136C34.7718 13.6673 34.7088 13.517 34.656 13.3647C34.5473 13.0559 34.2914 12.8304 33.9715 12.7614L33.0513 12.5633V11.2806L33.9705 11.0836C34.2914 11.0145 34.5473 10.789 34.656 10.4803C34.7088 10.3279 34.7718 10.1776 34.8419 10.0314C34.9841 9.73582 34.9627 9.39457 34.785 9.11934L34.2741 8.32817L35.1811 7.42121L35.9723 7.93207C36.2475 8.10981 36.5887 8.13113 36.8843 7.98895C37.0305 7.91887 37.1808 7.8559 37.3332 7.80309C37.6419 7.69442 37.8674 7.43848 37.9365 7.11856L38.1345 6.1984H39.4172L39.6153 7.11856C39.6844 7.43848 39.9098 7.69442 40.2186 7.80309C40.3699 7.8559 40.5212 7.91887 40.6665 7.98895C40.962 8.13113 41.3033 8.10981 41.5785 7.93207L42.3697 7.42121L43.2766 8.32817L42.7658 9.11934C42.588 9.39457 42.5667 9.73582 42.7089 10.0314C42.779 10.1766 42.8419 10.3279 42.8948 10.4803C43.0034 10.789 43.2594 11.0145 43.5793 11.0836L44.4994 11.2816V12.5643ZM38.7754 8.86746C37.0905 8.86746 35.7204 10.2375 35.7204 11.9225C35.7204 13.6074 37.0905 14.9775 38.7754 14.9775C40.4603 14.9775 41.8304 13.6074 41.8304 11.9225C41.8304 10.2375 40.4603 8.86746 38.7754 8.86746ZM38.7754 13.7587C37.7628 13.7587 36.9391 12.935 36.9391 11.9225C36.9391 10.9099 37.7628 10.0862 38.7754 10.0862C39.788 10.0862 40.6116 10.9099 40.6116 11.9225C40.6116 12.935 39.788 13.7587 38.7754 13.7587ZM25.3864 32.1283C24.7262 26.1016 21.6164 22.0574 16.8379 21.0235C14.4715 20.5116 11.8562 20.8082 9.47358 21.8583C7.06959 22.9186 5.05561 24.6828 3.80436 26.8268C2.49319 29.0723 2.0392 31.6754 2.49116 34.3546C2.99491 37.3354 4.57827 40.364 7.20061 43.3581V49.8672C7.20061 50.0307 7.26561 50.1872 7.38241 50.3009C7.49616 50.4136 7.65053 50.4766 7.80998 50.4766H7.81912L19.2703 50.3121C19.6034 50.307 19.8705 50.0358 19.8705 49.7027V44.784L22.4269 45.2289C23.0677 45.3406 23.6822 45.1933 24.2032 44.8043C24.7242 44.4154 25.0401 43.8679 25.1142 43.221L25.5479 39.4804L25.7419 39.5048C26.5889 39.6115 27.3801 39.2529 27.8594 38.5471C28.3632 37.8047 28.3977 36.9028 27.9498 36.1939L25.3864 32.1283ZM26.8519 37.8615C26.6315 38.1855 26.2822 38.3439 25.8942 38.2952L25.0898 38.1947C24.9283 38.1754 24.7658 38.22 24.6379 38.3196C24.5099 38.4201 24.4276 38.5674 24.4083 38.7289L23.9036 43.0798C23.867 43.3936 23.7269 43.6374 23.473 43.8273C23.2201 44.0162 22.9458 44.0822 22.6351 44.0274L19.3647 43.4586C19.187 43.4282 19.0062 43.4769 18.8681 43.5927C18.731 43.7085 18.6508 43.8791 18.6508 44.0589V49.1014L8.41834 49.2487V43.1275C8.41834 42.9782 8.3635 42.834 8.26397 42.7223C3.53319 37.4035 2.29108 31.8338 4.85553 27.4412C6.79639 24.1171 10.7005 21.9975 14.5151 21.9975C15.2108 21.9975 15.9025 22.0675 16.5799 22.2148C20.8465 23.138 23.6202 26.8491 24.189 32.3965C24.1981 32.4899 24.2296 32.5803 24.2794 32.6595L26.92 36.8439C27.1079 37.1414 27.0825 37.5223 26.8519 37.8615ZM19.5283 29.3922L18.537 29.1789C18.5015 29.0855 18.4629 28.9941 18.4223 28.9027L18.9727 28.0506C19.2134 27.6779 19.1626 27.1975 18.8488 26.8836L17.6158 25.6507C17.302 25.3368 16.8226 25.2861 16.4489 25.5268L15.5968 26.0772C15.5064 26.0366 15.414 25.998 15.3205 25.9625L15.1072 24.9712C15.0138 24.5375 14.639 24.2339 14.1952 24.2339H12.4514C12.0076 24.2339 11.6318 24.5375 11.5394 24.9712L11.3261 25.9625C11.2337 25.998 11.1412 26.0366 11.0498 26.0772L10.1977 25.5268C9.82498 25.2861 9.34459 25.3368 9.03077 25.6507L7.7978 26.8836C7.48397 27.1975 7.43319 27.6768 7.67389 28.0506L8.22436 28.9027C8.18373 28.9941 8.14514 29.0855 8.10959 29.1789L7.11834 29.3922C6.68467 29.4857 6.381 29.8604 6.381 30.3043V32.0481C6.381 32.4919 6.68467 32.8677 7.11834 32.9611L8.10959 33.1744C8.14514 33.2668 8.18373 33.3593 8.22436 33.4507L7.67389 34.3028C7.43319 34.6755 7.48397 35.1549 7.7978 35.4697L9.03077 36.7027C9.34459 37.0165 9.82397 37.0673 10.1967 36.8266L11.0488 36.2761C11.1392 36.3168 11.2316 36.3554 11.3251 36.3909L11.5383 37.3822C11.6318 37.8158 12.0065 38.1195 12.4504 38.1195H14.1942C14.638 38.1195 15.0138 37.8158 15.1062 37.3822L15.3195 36.3909C15.4119 36.3554 15.5044 36.3168 15.5958 36.2761L16.4479 36.8266C16.8206 37.0673 17.3 37.0165 17.6148 36.7027L18.8478 35.4697C19.1616 35.1559 19.2124 34.6765 18.9717 34.3028L18.4212 33.4507C18.4619 33.3593 18.5005 33.2679 18.536 33.1744L19.5273 32.9611C19.9609 32.8677 20.2646 32.4929 20.2646 32.0481V30.3043C20.2656 29.8604 19.963 29.4857 19.5283 29.3922ZM19.0469 31.8186L18.1277 32.0166C17.8068 32.0857 17.5508 32.3111 17.4422 32.6209C17.3894 32.7722 17.3264 32.9236 17.2563 33.0688C17.1141 33.3643 17.1355 33.7056 17.3132 33.9808L17.824 34.772L16.9171 35.6789L16.1259 35.1681C15.8507 34.9904 15.5094 34.969 15.2139 35.1112C15.0676 35.1813 14.9173 35.2443 14.766 35.2971C14.4572 35.4057 14.2308 35.6617 14.1617 35.9816L13.9637 36.9018H12.6809L12.4829 35.9816C12.4138 35.6617 12.1883 35.4057 11.8796 35.2971C11.7273 35.2432 11.5759 35.1813 11.4307 35.1112C11.1351 34.969 10.7939 34.9904 10.5187 35.1681L9.72748 35.6789L8.82053 34.772L9.33139 33.9808C9.50912 33.7056 9.53045 33.3643 9.38827 33.0688C9.31819 32.9225 9.25522 32.7722 9.20241 32.6199C9.09373 32.3111 8.8378 32.0847 8.51787 32.0166L7.59772 31.8186V30.5358L8.51787 30.3378C8.8378 30.2687 9.09373 30.0432 9.20241 29.7345C9.25522 29.5832 9.31819 29.4318 9.38827 29.2866C9.53045 28.9911 9.50912 28.6498 9.33139 28.3746L8.82053 27.5834L9.72748 26.6764L10.5187 27.1873C10.7939 27.365 11.1351 27.3864 11.4307 27.2442C11.5769 27.1741 11.7272 27.1111 11.8786 27.0583C12.1873 26.9497 12.4138 26.6937 12.4829 26.3738L12.6809 25.4536H13.9637L14.1617 26.3738C14.2308 26.6947 14.4562 26.9507 14.765 27.0583C14.9173 27.1122 15.0687 27.1741 15.2129 27.2442C15.5084 27.3864 15.8497 27.3661 16.1249 27.1873L16.9161 26.6764L17.823 27.5834L17.3122 28.3746C17.1344 28.6498 17.1131 28.9911 17.2553 29.2866C17.3254 29.4318 17.3883 29.5832 17.4412 29.7345C17.5498 30.0432 17.8058 30.2697 18.1257 30.3378L19.0458 30.5358V31.8186H19.0469ZM13.3238 28.1217C11.6389 28.1217 10.2688 29.4928 10.2688 31.1767C10.2688 32.8606 11.6389 34.2317 13.3238 34.2317C15.0087 34.2317 16.3788 32.8616 16.3788 31.1767C16.3788 29.4918 15.0077 28.1217 13.3238 28.1217ZM13.3238 33.0129C12.3112 33.0129 11.4876 32.1893 11.4876 31.1767C11.4876 30.1641 12.3112 29.3404 13.3238 29.3404C14.3364 29.3404 15.1601 30.1641 15.1601 31.1767C15.1601 32.1893 14.3364 33.0129 13.3238 33.0129ZM12.7967 16.8716V8.06512C12.7967 7.72895 13.0699 7.45574 13.4061 7.45574H20.6769L20.1448 6.92356C19.9071 6.6859 19.9071 6.29996 20.1448 6.06129C20.3824 5.82363 20.7683 5.82363 21.007 6.06129L22.5792 7.63348C22.693 7.74723 22.758 7.90262 22.758 8.0641C22.758 8.22559 22.694 8.38098 22.5792 8.49473L21.007 10.0669C20.8882 10.1857 20.7318 10.2457 20.5764 10.2457C20.421 10.2457 20.2646 10.1857 20.1458 10.0669C19.9081 9.82926 19.9081 9.44332 20.1458 9.20465L20.678 8.67246H14.0165V16.8696C14.0165 17.2057 13.7433 17.4789 13.4071 17.4789C13.0709 17.4789 12.7967 17.2078 12.7967 16.8716ZM38.9744 34.2012V43.0077C38.9744 43.3439 38.7012 43.6171 38.3651 43.6171H31.0302L31.5624 44.1493C31.8001 44.3869 31.8001 44.7729 31.5624 45.0105C31.4436 45.1293 31.2872 45.1893 31.1318 45.1893C30.9764 45.1893 30.82 45.1293 30.7012 45.0105L29.129 43.4383C28.8913 43.2007 28.8913 42.8147 29.129 42.5771L30.7012 41.0049C30.9388 40.7672 31.3248 40.7672 31.5634 41.0049C31.8011 41.2425 31.8011 41.6285 31.5634 41.8672L31.0312 42.3993H37.7567V34.2022C37.7567 33.8661 38.0299 33.5929 38.3661 33.5929C38.7023 33.5929 38.9744 33.865 38.9744 34.2012Z" fill="white"/>
<path d="M9.04297 7.43213L18.7947 13.8056" stroke="white" stroke-width="0.5" stroke-linecap="round"/>
</svg>
