<svg width="128" height="69" viewBox="0 0 128 69" fill="none" xmlns="http://www.w3.org/2000/svg">
<path d="M92.0996 16.3141V16.6575L93.9996 16.6665C95.6596 16.6756 96.9996 17.8864 96.9896 19.3864C96.9796 22.4044 96.9596 27.2477 96.9396 30.2568C96.9396 31.7477 95.6096 32.9495 93.9596 32.9585L92.0996 32.9676V33.3109L93.9596 33.32C95.6096 33.32 96.9396 34.5218 96.9496 36.0037C96.9696 38.3259 96.9796 41.7416 96.9996 44.5789H97.3896C97.4096 41.7506 97.4296 38.3531 97.4396 36.0308C97.4496 34.5308 98.7996 33.338 100.46 33.338L102.86 33.3471V32.9224L100.46 32.9314C98.8096 32.9405 97.4596 31.7296 97.4496 30.2387C97.4396 27.2297 97.4196 22.4225 97.4096 19.4135C97.3996 17.9045 98.7496 16.6846 100.42 16.6936L108.59 16.7208L116.33 16.6936C116.22 16.5491 116.11 16.4135 116 16.278L108.59 16.2509L100.37 16.287C98.7196 16.287 97.3796 15.0852 97.3596 13.5943C97.3296 9.92565 97.2696 6.25701 97.1996 2.58838C97.1296 6.26605 97.0796 9.94372 97.0396 13.6214C97.0196 15.1033 95.6996 16.3051 94.0596 16.3051L92.0996 16.3141Z" fill="#0E4271"/>
<path d="M127.99 49.6111L123.13 49.584C121.47 49.575 120.14 48.3641 120.14 46.8641C120.16 43.828 120.19 38.9938 120.21 35.9847C120.21 34.5028 121.55 33.301 123.19 33.301L125.28 33.292C125.25 33.1745 125.21 33.0661 125.17 32.9486L123.2 32.9396C121.55 32.9306 120.22 31.7288 120.21 30.2378C120.2 28.0782 120.19 24.9788 120.18 22.2861C120.04 22.0512 119.9 21.8253 119.75 21.5994C119.74 24.4276 119.73 27.8704 119.72 30.2198C119.71 31.7107 118.36 32.9215 116.7 32.9125L112.18 32.8944V33.3372L116.71 33.3191C118.36 33.3191 119.71 34.5119 119.72 36.0119C119.74 39.0118 119.76 43.81 119.78 46.837C119.79 48.3461 118.44 49.5659 116.77 49.5569L112.89 49.5479C112.79 49.6744 112.68 49.828 112.57 49.9906L116.82 49.9725C118.47 49.9635 119.82 51.1653 119.83 52.6562C119.87 55.6201 119.9 58.5749 119.96 61.5387C120.02 58.5658 120.06 55.602 120.09 52.6291C120.11 51.1472 121.44 49.9545 123.08 49.9454L128 49.9274C128 49.8189 128 49.7105 127.99 49.6111Z" fill="#0E4271"/>
<path d="M8.21 46.8373C8.23 43.8102 8.25 39.0121 8.27 36.0121C8.28 34.5121 9.63 33.3194 11.28 33.3194L14.03 33.3284V32.8947L11.29 32.9037C9.63 32.9127 8.28 31.7019 8.28 30.211C8.26 27.8616 8.25 24.4189 8.24 21.5906C8.09 21.8165 7.95 22.0424 7.81 22.2773C7.8 24.9701 7.79 28.0694 7.78 30.229C7.77 31.72 6.44 32.9218 4.79 32.9308L2.82 32.9398C2.78 33.0573 2.74 33.1658 2.71 33.2832L4.8 33.2923C6.44 33.2923 7.78 34.494 7.79 35.976C7.8 38.985 7.83 43.8192 7.85 46.8554C7.86 48.3553 6.52 49.5662 4.86 49.5752L0 49.6023C0 49.7108 0 49.8192 0 49.9276L4.91 49.9457C6.55 49.9547 7.88 51.1475 7.9 52.6294C7.93 55.6022 7.97 58.5661 8.03 61.5389C8.09 58.5751 8.13 55.6203 8.16 52.6565C8.18 51.1656 9.52 49.9638 11.17 49.9728L14.15 49.9818V49.5481L11.22 49.5571C9.55 49.5662 8.2 48.3463 8.21 46.8373Z" fill="#0E4271"/>
<path d="M33.9497 16.3051C32.3097 16.3051 30.9897 15.1033 30.9697 13.6214C30.9297 9.94372 30.8797 6.26605 30.8097 2.58838C30.7397 6.25701 30.6797 9.92565 30.6497 13.5943C30.6297 15.0852 29.2897 16.287 27.6397 16.287L19.4197 16.2509L12.0197 16.278C11.8997 16.4135 11.7897 16.5491 11.6797 16.6936L19.4197 16.7208L27.5897 16.6936C29.2597 16.6846 30.6097 17.9045 30.6097 19.4135C30.5897 22.4225 30.5697 27.2297 30.5597 30.2387C30.5597 31.7296 29.2097 32.9405 27.5497 32.9314H26.9297V33.3471H27.5497C29.2097 33.3471 30.5597 34.5398 30.5697 36.0398C30.5797 37.9826 30.5897 40.6753 30.6097 43.1602H31.0197C31.0397 40.6663 31.0497 37.9555 31.0597 36.0127C31.0697 34.5308 32.3997 33.329 34.0497 33.329L39.7497 33.3019L43.1197 33.2838V32.9947L39.7497 32.9766L34.0497 32.9585C32.4097 32.9495 31.0697 31.7477 31.0697 30.2568C31.0497 27.2477 31.0397 22.4044 31.0197 19.3864C31.0197 17.8864 32.3497 16.6756 34.0097 16.6665L39.7497 16.6485L43.1197 16.6304V16.3412L39.7497 16.3322L33.9497 16.3051Z" fill="#0E4271"/>
<path d="M58.5596 43.9019V45.2844H64.4096L63.6796 43.9019H58.5596Z" fill="#0E4271"/>
<path d="M50.0195 24.7262H50.3395C50.3095 22.7744 50.2595 20.8226 50.1795 18.8708C50.0995 20.8226 50.0495 22.7744 50.0195 24.7262Z" fill="#0E4271"/>
<path d="M54.2098 20.3711C54.1498 21.8259 54.1198 23.2807 54.0898 24.7355H54.3398C54.2998 23.2717 54.2698 21.8169 54.2098 20.3711Z" fill="#0E4271"/>
<path d="M48.5504 18.8708C48.5204 16.5847 48.5104 14.3076 48.3304 12.0215C48.1504 14.3076 48.1304 16.5847 48.1104 18.8708C48.1304 20.3708 48.1404 21.8798 48.2004 23.3798H48.4604C48.5204 21.8798 48.5404 20.3798 48.5504 18.8708Z" fill="#0E4271"/>
<path d="M88.3305 45.5546C88.8905 45.5365 90.1005 44.9492 90.3305 44.8227C90.4505 44.7594 90.5205 44.651 90.5205 44.5245V3.13035C90.5205 2.94059 90.3505 2.78698 90.1405 2.78698H89.4505V2.39843H94.6405V1.13339H89.4505V0.862305H88.7605V1.13339H87.5605V0.862305H86.8705V1.13339H85.6705V0.862305H85.0005V1.13339H83.8005V0.862305H83.1105V1.13339H81.9105V0.862305H81.2205V1.13339H55.4205V0.862305H54.7305V1.13339H53.5305V0.862305H52.8405V1.13339H51.6405V0.862305H50.9505V1.13339H49.7505V0.862305H49.0605V1.13339H47.8605V0.862305H47.1705V1.13339H41.9805V2.39843H47.1705V2.78698H46.4805C46.2705 2.78698 46.1005 2.94059 46.1005 3.13035V23.8319C46.1005 24.0217 46.2705 24.1753 46.4805 24.1753C46.6905 24.1753 46.8605 24.0217 46.8605 23.8319V3.47372H48.0405L48.3305 11.2538L48.6205 3.47372H49.8805L50.1805 16.6483L50.4805 3.47372H51.8005L52.0505 23.7054H52.1605L52.4105 3.47372H53.9005L54.2005 16.1423L54.5005 3.47372H55.7205V32.7415C55.7205 32.9312 55.8905 33.0848 56.1005 33.0848C56.3105 33.0848 56.4805 32.9312 56.4805 32.7415V24.4373L65.2805 23.0187L56.4805 22.3319V18.1212H67.5505V23.3801C68.0905 23.1271 68.5905 22.8109 69.0805 22.4946V18.1212H80.1505V22.5488C80.1505 22.7386 80.3205 22.8922 80.5305 22.8922C80.7405 22.8922 80.9105 22.7386 80.9105 22.5488V3.47372H82.0805L82.3805 11.4074L82.6805 3.47372H83.9305L84.2305 16.7748L84.5305 3.47372H85.8505L86.1305 25.7566C85.9805 27.8801 85.9605 30.0036 85.9405 32.127C85.9705 34.4041 85.9805 36.6722 86.1605 38.9492C86.3505 36.6722 86.3605 34.4041 86.3805 32.127C86.3605 30.0036 86.3405 27.8801 86.1905 25.7566L86.4705 3.48276H87.9605L88.2605 16.2778L88.5605 3.48276H89.7805V44.3257C89.2105 44.5968 88.5305 44.8679 88.3105 44.8769C88.2305 44.904 87.9005 44.7594 87.7005 44.6781C87.4005 44.5516 87.1205 44.4432 86.8605 44.4251C86.4905 44.4251 86.0705 44.5335 85.6105 44.6691C85.2705 44.7685 84.9105 44.8679 84.7105 44.8769C84.5605 44.8859 84.2805 44.8046 84.0205 44.7413C83.6505 44.651 83.3005 44.5606 83.0105 44.5787C82.7605 44.5968 82.4805 44.7142 82.1905 44.8317C82.0005 44.913 81.7705 45.0034 81.6605 45.0215C81.5505 45.0395 81.2405 44.9944 80.9205 44.9401V35.0186C80.9205 34.8288 80.7505 34.6752 80.5405 34.6752C80.3305 34.6752 80.1605 34.8288 80.1605 35.0186V45.2203C80.1605 45.3829 80.2805 45.5184 80.4605 45.5546C80.6505 45.5907 81.2605 45.6992 81.6205 45.6992C81.6605 45.6992 81.7005 45.6992 81.7305 45.6992C81.9605 45.6721 82.2205 45.5636 82.5005 45.4552C82.7005 45.3739 82.9505 45.2745 83.0605 45.2654C83.2205 45.2564 83.5405 45.3377 83.8105 45.41C84.1405 45.4913 84.4405 45.5546 84.7105 45.5727C85.0305 45.5727 85.4205 45.4552 85.8305 45.3377C86.1905 45.2293 86.5905 45.0937 86.8205 45.1209C86.9405 45.1209 87.1905 45.2293 87.3905 45.3106C87.7205 45.4281 88.0505 45.5546 88.3305 45.5546ZM88.7705 2.40747V2.79602H87.5705V2.40747H88.7705ZM86.8805 2.40747V2.79602H85.6805V2.40747H86.8805ZM85.0005 2.40747V2.79602H83.8005V2.40747H85.0005ZM83.1105 2.40747V2.79602H81.9105V2.40747H83.1105ZM54.7305 2.40747V2.79602H53.5305V2.40747H54.7305ZM52.8405 2.40747V2.79602H51.6405V2.40747H52.8405ZM50.9505 2.40747V2.79602H49.7505V2.40747H50.9505ZM47.8605 2.40747H49.0605V2.79602H47.8605V2.40747ZM80.1505 13.0881V13.8561L69.0805 14.0278V12.6182L80.1505 13.0881ZM69.0805 6.60923V4.72973C71.9405 4.88334 74.5505 5.86827 76.6205 7.42247L69.0805 6.60923ZM67.5505 6.44658L62.5905 5.91345C64.1005 5.23575 65.7805 4.82913 67.5505 4.73877V6.44658ZM56.4805 16.7386V12.0941L67.5505 12.564V14.064L59.7505 14.1905L67.5505 14.7778V16.7477H56.4805V16.7386ZM69.0805 16.7386V14.8862L80.1505 15.7176V16.7386H69.0805ZM80.5305 2.79602C80.3205 2.79602 80.1505 2.94963 80.1505 3.13939V8.8592C79.6905 8.26282 79.1905 7.69355 78.6205 7.1785C75.9805 4.79298 72.3405 3.32011 68.3105 3.32011C63.4305 3.32011 59.1205 5.4978 56.4805 8.8321V3.13035C56.4805 2.94059 56.3105 2.78698 56.1005 2.78698H55.4105V2.39843H81.2105V2.78698H80.5305V2.79602Z" fill="#0E4271"/>
<path d="M88.43 38.3264L88.48 32.3807L88.43 26.435C88.4 24.4561 88.34 22.4682 88.26 20.4893C88.18 22.4682 88.12 24.4561 88.09 26.435L88.04 32.3807L88.09 38.3264C88.12 40.3053 88.18 42.2932 88.26 44.2721C88.34 42.2842 88.4 40.3053 88.43 38.3264Z" fill="#0E4271"/>
<path d="M57.1703 65.5057C57.1603 65.5057 57.1603 65.5057 57.1503 65.5057C56.9903 65.5057 56.8603 65.4876 56.7303 65.4605C56.6403 63.7708 56.8503 61.7648 57.0603 59.822C57.2103 58.3853 57.3503 57.0389 57.3503 55.9636C57.3503 53.6052 55.5303 46.1234 55.1503 44.6414C55.4403 43.9005 55.1603 43.033 54.7703 41.8493C54.5303 41.1174 54.2503 40.268 54.0203 39.2289C54.7903 40.006 55.9503 40.8102 57.1303 40.2861C57.4103 40.1596 57.7503 39.8794 57.7703 39.2379C57.8103 37.3403 54.8103 33.256 53.0703 32.4066C51.2303 31.5121 50.4203 30.9428 50.4103 30.9428C50.3103 30.8705 50.1903 30.8615 50.0703 30.8976L49.9803 30.7892V30.7621C50.7303 30.4549 50.9503 29.9488 51.0003 29.5603C51.1603 28.3043 49.7103 26.741 48.8503 26.0814C48.1903 24.5543 45.7303 25.9639 45.7303 25.9639C45.7303 25.9639 44.2103 25.9459 43.7703 27.5543C43.4003 28.9187 45.2803 30.4187 46.1803 31.0512C46.2403 31.232 46.2803 31.3675 46.2903 31.4488C46.2603 31.4579 46.2303 31.4669 46.2003 31.485C46.1103 31.5482 44.0203 33.0392 44.2203 35.4608C44.3203 36.6897 44.5903 37.7831 44.8203 38.7499C45.0203 39.5722 45.2003 40.2861 45.2103 40.8644L45.2203 41.4517C45.2503 44.1625 45.3803 45.6625 45.9303 46.1324C45.8403 47.8854 46.0703 49.5571 46.6203 51.1022C46.7803 51.545 46.8503 52.0058 46.8103 52.4215C46.7103 53.5691 46.4603 56.3612 46.4503 57.4907C46.4303 59.6503 46.9103 65.9123 46.9303 66.1743C46.9403 66.2828 47.0203 66.3641 47.1203 66.4274C47.0703 66.8972 47.0703 67.4394 47.2903 67.7647C47.4103 67.9273 47.5703 68.0358 47.7703 68.0719C47.8303 68.081 47.9103 68.09 48.0003 68.09C48.8603 68.09 50.8603 67.5749 51.8303 66.7707C52.3803 66.3189 52.4503 65.8852 52.4203 65.596C52.3903 65.4153 52.2803 65.2527 52.1003 65.1533C51.8203 64.9906 51.3803 64.9816 50.9203 65.0268C50.5503 62.831 50.5803 60.2557 51.0103 57.1564C51.1103 56.5148 51.2103 55.9998 51.3203 55.5028C51.4303 54.9606 51.5403 54.4365 51.6403 53.7679L52.2703 56.0359C52.4403 56.6323 52.5103 57.2558 52.4703 57.8793C52.3203 60.2738 52.3403 62.8852 52.5303 65.6231C52.5303 65.6683 52.5603 65.7135 52.5903 65.7587C52.5003 66.2195 52.3803 66.8701 52.3203 67.087C52.2803 67.2677 52.3203 67.4484 52.4503 67.602C52.6703 67.8731 53.2003 68.1803 55.3003 68.2617C55.4303 68.2707 55.5603 68.2707 55.6903 68.2707C57.6403 68.2707 59.7703 67.7195 59.9403 66.834C59.9803 66.6171 59.9203 66.4002 59.7503 66.2195C59.2203 65.6503 57.8403 65.5057 57.1703 65.5057ZM50.2603 29.479C50.2303 29.7049 50.1203 30.0211 49.4603 30.2199C49.2903 30.2741 49.1803 30.4277 49.2103 30.5904L49.2903 31.1145C49.1103 31.2139 48.9303 31.2952 48.7503 31.3494C48.5903 31.3946 48.4303 31.4307 48.2803 31.4579C47.8903 31.5211 47.4903 31.5121 47.0703 31.4398C47.0603 31.3765 47.0503 31.3042 47.0203 31.2229C47.5103 31.0241 47.9203 30.753 48.2903 30.4187C48.2903 29.994 48.3603 29.6055 48.5103 29.2621C48.0403 29.235 47.7303 28.4669 48.0103 28.1958C48.3603 27.9157 49.0203 28.1055 49.0503 27.1928C49.7003 27.8705 50.3503 28.8193 50.2603 29.479ZM44.9903 35.3976C44.8603 33.8072 45.9403 32.6597 46.4403 32.2169C47.7003 32.5331 49.0603 32.2801 50.2103 31.6295C50.5803 31.8645 51.3703 32.3344 52.7303 33.003C54.2003 33.7169 57.0703 37.6204 57.0303 39.2198C57.0203 39.5813 56.8603 39.6536 56.8103 39.6716C55.4403 40.277 53.7603 37.756 53.7403 37.7379C53.7003 37.6747 53.6303 37.6295 53.5603 37.6024C53.0703 37.0963 51.5603 35.515 51.3403 35.0181C51.3903 35.2349 51.7703 36.7801 52.3203 37.9638C52.1003 38.1536 51.8703 38.3433 51.6703 38.5512C51.2203 39.0301 50.8303 39.5632 50.6103 40.1415C51.0603 39.4096 51.7503 38.8493 52.4903 38.3975C52.5003 38.4337 52.5103 38.4608 52.5303 38.4969C52.3603 38.7048 52.2103 38.9216 52.0803 39.1566C51.7503 39.7529 51.6003 40.4216 51.6303 41.0632C51.7203 40.4216 51.9803 39.8162 52.3803 39.3192C52.4603 39.2198 52.5503 39.1295 52.6403 39.0301C52.6503 39.0933 52.6603 39.1566 52.6603 39.2198C52.6803 40.268 52.8203 41.3523 53.0503 42.4818C53.1803 43.1234 52.7803 43.7559 52.1103 43.9999C50.2803 44.6686 48.3303 45.0933 46.2803 45.3282C46.0203 44.4698 45.9903 42.2559 45.9903 41.4427L45.9803 40.8553C45.9603 40.2047 45.7803 39.4638 45.5703 38.6054C45.3403 37.6475 45.0803 36.5723 44.9903 35.3976ZM51.8303 51.6173C51.8203 51.5992 51.8103 51.5902 51.8003 51.5721C51.8003 51.554 51.8003 51.536 51.8003 51.5179L49.4303 48.5812C49.3803 49.5209 49.5303 50.5149 49.8803 51.5721C49.9703 51.8251 50.0103 52.0872 50.0303 52.3582C49.9103 52.3131 49.8003 52.2588 49.6903 52.1956C49.2903 51.9606 48.9503 51.5721 48.7103 51.0751C48.8803 51.6263 49.1603 52.1233 49.5403 52.4667C49.6903 52.6022 49.8403 52.7106 50.0103 52.81C50.0103 52.8462 50.0103 52.8823 50.0103 52.9094C49.4203 52.8733 48.8303 52.7197 48.3403 52.3221C48.6503 52.7106 49.0503 52.9727 49.4703 53.1624C49.6303 53.2347 49.8103 53.2799 49.9803 53.3251C49.8003 54.7889 49.4903 57.31 49.4303 58.3762C49.3403 59.9575 49.4203 64.2226 49.4403 65.4786C48.8803 65.6864 48.2903 65.7948 47.6703 65.8039C47.5703 64.4846 47.2003 59.3431 47.2103 57.4817C47.2203 56.3431 47.4903 53.3522 47.5703 52.4576C47.6103 51.9426 47.5403 51.4094 47.3403 50.8763C46.8503 49.4938 46.6303 47.9848 46.6803 46.4125C47.9403 46.6384 49.5103 46.6565 51.2703 46.539C52.5803 46.4577 53.7703 47.2529 54.0303 48.4185C54.5703 50.7498 55.3403 54.4184 55.5103 56.1082C55.3403 56.1353 55.1703 56.1534 55.0003 56.2076C54.5503 56.3431 54.1203 56.56 53.7503 56.9034C54.3103 56.569 54.9203 56.4877 55.5203 56.5329C55.5203 56.56 55.5203 56.5871 55.5203 56.6142C55.3303 56.6955 55.1403 56.7859 54.9603 56.9124C54.5303 57.2106 54.1703 57.6534 53.9203 58.1865C54.2303 57.7256 54.6303 57.3823 55.0603 57.2016C55.2103 57.1383 55.3703 57.0931 55.5303 57.057C55.5003 59.0539 54.9003 61.6744 55.0603 65.4786C54.4503 65.5237 53.8403 65.4876 53.2503 65.343C53.0803 62.7135 53.0703 60.2106 53.2103 57.9064C53.2503 57.2106 53.1803 56.5148 52.9903 55.8552L51.8303 51.6173Z" fill="#0E4271"/>
<path d="M82.1601 33.4823C82.1601 33.6901 82.1601 33.898 82.1501 34.1148C82.1801 36.3919 82.1901 38.6599 82.3701 40.937C82.5601 38.6599 82.5701 36.3919 82.5901 34.1148C82.5901 33.7986 82.5801 33.4733 82.5801 33.157C83.4501 32.0727 83.3701 28.0065 83.3501 27.1842C83.4901 26.9583 83.8101 26.4161 84.0401 25.8017L84.0001 31.2594L84.0501 37.3949C84.0801 39.437 84.1401 41.4882 84.2201 43.5304C84.3001 41.4882 84.3601 39.437 84.3901 37.3949L84.4401 31.2594L84.3901 25.1239C84.3601 23.0818 84.3001 21.0306 84.2201 18.9885C84.1601 20.5517 84.1201 22.1059 84.0901 23.6691C83.9101 23.4071 83.6301 23.2264 83.2701 23.1451C82.9601 23.0728 82.7101 23.1089 82.5101 23.1722C82.5601 21.7806 82.5801 20.38 82.5901 18.9885C82.5601 16.7114 82.5501 14.4433 82.3701 12.1663C82.1901 14.4433 82.1701 16.7114 82.1501 18.9885C82.1701 20.4252 82.1801 21.871 82.2401 23.3077C82.2201 23.3167 82.2001 23.3348 82.1801 23.3439C81.7501 23.6691 81.5701 24.2926 81.5001 24.8709C81.3601 24.7354 81.1901 24.636 81.0201 24.5999C80.8801 24.5728 80.6201 24.5728 80.3701 24.8167C79.7701 25.4221 80.6601 26.6239 81.1001 27.139L80.0001 30.8709L78.1701 31.0877C78.1101 31.0245 78.0201 30.9793 77.9301 30.9703L74.9801 30.7173C75.0401 30.4371 75.0101 30.139 74.9701 29.8588C74.7301 28.0245 74.4701 26.127 73.4201 24.5456C73.0301 23.9493 72.5001 23.3981 71.7901 23.1451C70.6601 22.7384 69.3101 23.2445 68.5601 24.1029C67.8101 24.9703 67.5801 26.1179 67.5901 27.2113C67.6001 28.0245 67.7201 28.8829 67.3301 29.6149C67.0901 30.0667 66.6501 30.4823 66.6901 30.9793C66.7001 31.142 66.7701 31.2956 66.8701 31.4311C66.4701 31.6118 66.1001 31.8377 65.8001 32.0907C64.0801 33.5817 64.3101 37.8286 64.3201 38.0093C64.3301 38.0907 64.3701 38.163 64.4301 38.2172C64.4101 38.7232 64.3701 40.7021 64.5301 41.5696C64.7301 42.6448 66.2601 46.2683 66.3201 46.4219C66.3501 46.4852 66.3901 46.5213 66.4401 46.5574C66.2401 53.2441 66.6501 60.5904 66.9601 66.0663C66.9601 66.1205 66.9901 66.1747 67.0301 66.2199C66.9001 66.247 66.7501 66.2741 66.5801 66.2741C65.7901 66.2741 64.5801 66.509 64.6701 67.006C64.7601 67.503 66.3601 67.9729 68.0301 67.9096C69.7001 67.8464 70.1801 67.5843 70.1101 67.3042C70.0701 67.1596 69.9901 66.762 69.9301 66.4187C70.0201 66.4006 70.1101 66.3916 70.2101 66.3735C70.3801 66.3374 70.5001 66.2018 70.5001 66.0482C70.5701 61.982 70.8101 57.988 71.2301 54.1297C71.4801 58.0152 71.8201 62.0543 72.3601 66.0843C72.3801 66.2289 72.4901 66.3374 72.6501 66.3735C72.7101 66.3916 72.7801 66.3916 72.8401 66.4006C72.7601 66.9157 72.7101 67.6657 73.1201 67.747C73.7501 67.8644 76.9301 67.0422 76.7801 65.9127C76.7501 65.6777 76.4101 65.6325 76.0101 65.6597C75.7801 62.0543 75.9501 58.4127 76.1301 54.8887C76.3101 51.2923 76.4701 47.8948 76.1601 45.0665V43.8376C76.2101 43.8195 76.2601 43.8015 76.3201 43.7834C76.4901 43.7201 76.5901 43.5484 76.5401 43.3858C75.8301 40.8828 75.5701 38.2353 75.7601 35.5335C75.7701 35.3528 75.9201 35.1901 76.1201 35.1449L77.7601 34.7654C77.8801 34.7383 77.9601 34.657 78.0101 34.5666C80.0801 34.2323 81.4701 33.8618 82.1601 33.4823ZM80.3501 31.5124C80.5001 31.4944 80.6201 31.395 80.6601 31.2594L81.8701 27.148C81.9001 27.0396 81.8701 26.9312 81.8001 26.8498C81.1401 26.1089 80.8101 25.377 80.8601 25.2685C81.0101 25.3227 81.3201 25.8107 81.5001 26.2715C81.5601 26.4342 81.7501 26.5245 81.9301 26.4884C82.1101 26.4523 82.2401 26.2986 82.2201 26.127C82.1501 25.4312 82.2101 24.2113 82.6601 23.8679C82.7301 23.8137 82.8501 23.7505 83.0801 23.8047C83.3001 23.8589 83.4301 23.9583 83.5101 24.1119C83.5401 24.1842 83.5601 24.2655 83.5701 24.3559C83.2101 25.3047 82.6301 26.1992 82.4001 27.2113C82.3901 27.2565 82.3901 27.3197 82.3801 27.3649C82.3801 27.3378 82.3801 27.3197 82.3801 27.2926C82.3801 27.3468 82.3701 27.401 82.3701 27.4643C82.1401 28.8829 82.4501 31.6209 81.5101 32.5877C81.1501 32.9582 79.9001 33.2112 79.0501 33.3468C78.5801 33.419 78.1601 33.0847 78.1801 32.651C78.2001 32.3437 78.2501 32.0546 78.3201 31.7654L80.3501 31.5124ZM66.3301 32.5787C66.6401 32.3076 67.0501 32.0907 67.5101 31.91C68.1001 32.1721 68.6101 32.1269 69.2501 32.0636C70.0101 31.9913 70.7701 32.0636 71.5301 32.0817C72.4701 32.1088 73.4501 32.0456 74.2501 31.5938C74.3701 31.5305 74.4701 31.4492 74.5701 31.3679L77.4301 31.6118C77.2501 32.3076 77.1301 33.0305 77.1901 33.7624L75.5101 34.3678C75.0701 34.5214 74.7801 34.9009 74.7501 35.3256L74.4501 40.8015C74.3901 41.94 73.5501 42.934 72.3301 43.2503C71.6001 43.44 70.8901 43.6027 70.1901 43.7382C69.0301 43.9641 67.9101 43.2774 67.6901 42.2292C67.4601 41.1268 67.2701 39.8617 67.0401 38.5244C67.1701 38.5605 67.3001 38.5967 67.4301 38.6509C67.8601 38.8316 68.2601 39.175 68.5701 39.6358C68.3201 39.1027 67.9601 38.6599 67.5301 38.3618C67.3501 38.2353 67.1601 38.1449 66.9601 38.0636C66.9601 38.0365 66.9501 38.0093 66.9501 37.9822C67.5601 37.9371 68.1901 38.0094 68.7501 38.3527C68.3901 38.0094 67.9501 37.7925 67.5001 37.6569C67.2901 37.5937 67.0801 37.5666 66.8701 37.5395C66.7001 36.5817 66.5001 35.5967 66.2501 34.6118C66.2401 35.904 66.1901 36.9431 65.5601 37.7744C65.4101 37.7744 65.2501 37.7654 65.0601 37.7292C65.0301 36.4371 65.1901 33.5727 66.3301 32.5787ZM65.2801 41.4611C65.1501 40.7473 65.1701 39.1208 65.1901 38.434C65.5301 38.4792 65.8101 38.4521 66.0601 38.4069C66.0201 40.8286 66.1601 42.9159 66.4601 44.7774C66.0001 43.6298 65.4001 42.0665 65.2801 41.4611ZM71.7501 50.0725C71.7501 50.0183 71.7101 49.9821 71.6801 49.9369C71.6801 49.9189 71.6901 49.9008 71.6901 49.8737C70.8501 49.2231 69.9701 48.4641 69.5801 47.2894C69.5601 48.2653 69.7601 49.214 70.1401 50.1538C70.2901 50.5243 70.3801 50.9219 70.3501 51.3104C70.1501 53.6146 69.4801 56.1176 69.3701 57.3917C69.2401 58.8736 69.0901 62.5874 69.0301 64.3585C69.0101 64.9006 68.5201 65.3344 67.9201 65.3344H67.7001C67.3901 59.7772 67.0101 52.4941 67.2401 45.943C69.6201 46.196 72.0501 46.2322 74.4301 46.0605C75.1201 48.9791 74.7901 54.5272 74.7701 56.7411C74.7601 58.1778 74.5801 61.5934 74.4701 63.5543C74.4301 64.3585 73.8601 65.0452 73.0401 65.3253C72.3701 60.1296 72.0201 54.9248 71.7501 50.0725ZM75.4201 44.7774C74.4101 44.8767 73.3801 44.931 72.3601 44.9581C73.3601 44.7502 74.3801 44.4701 75.4201 44.1177V44.7774Z" fill="#0E4271"/>
<path d="M113.58 36.3201C113.25 34.9556 112.3 33.9978 110.87 33.5279C110.42 33.3382 109.94 33.2117 109.46 33.1303C107.58 32.8593 105.68 33.0581 103.89 33.8623C103.44 34.0972 102.98 34.3141 102.57 34.9014C102.47 35.046 102.39 35.2538 102.36 35.4616C102.35 35.6153 102.34 35.7689 102.35 35.8863C102.36 36.1393 102.4 36.3562 102.43 36.564C102.58 37.4044 102.78 38.1725 102.95 38.9586C103.32 40.5038 103.67 42.0399 103.74 43.5308C103.84 44.9947 103.59 46.4946 102.56 47.1091C102.25 47.3892 101.42 47.4163 100.6 47.3621C99.7699 47.3079 98.9199 47.1995 98.0499 47.091C96.3199 46.8471 94.5599 46.5669 92.7699 46.4224C92.2599 46.3862 91.7499 46.3681 91.2399 46.3681C89.4099 46.2507 87.9599 46.4856 87.4399 47.5067C86.3699 49.6031 86.9699 56.2174 87.2799 58.9554C87.3399 59.5337 87.7699 59.9945 88.3399 60.1933C88.0699 61.9915 90.3799 62.615 88.1099 64.5667C88.1299 65.1722 88.4399 65.6962 89.0999 66.1209C92.0899 64.7746 90.0599 63.374 90.4699 61.1602H104.62C105.04 63.374 103.01 64.7746 105.99 66.1209C106.66 65.7053 106.96 65.1722 106.98 64.5667C104.72 62.624 107 61.9915 106.75 60.2204C107.4 60.0487 107.88 59.5246 107.92 58.8921C108.02 57.2204 108.26 54.2024 108.66 52.7024C108.99 51.4916 109.74 49.9735 110.55 48.3561C112.34 44.7868 114.56 40.3411 113.58 36.3201ZM88.1199 47.7778C88.4099 47.1995 89.2599 46.9916 90.3899 46.9916C90.6699 46.9916 90.9899 47.0187 91.3099 47.0458C91.7499 47.1091 92.1899 47.1904 92.6299 47.2898C94.3299 47.6332 96.0199 48.094 97.7599 48.4645C98.6299 48.6543 99.5099 48.835 100.45 48.9344C100.92 48.9796 101.4 49.0247 101.93 48.9886C102.2 48.9705 102.47 48.9525 102.77 48.8711C103.06 48.8079 103.43 48.6452 103.63 48.5097C104.63 47.9495 105.21 46.9645 105.47 46.07C105.74 45.1664 105.77 44.2808 105.74 43.4224C105.62 41.7146 105.23 40.1152 104.8 38.552C104.58 37.7749 104.33 36.9978 104.16 36.2658C104.12 36.0851 104.08 35.9044 104.07 35.7598C104.06 35.6785 104.06 35.6333 104.06 35.5881C104.04 35.6152 104.07 35.5972 104.06 35.5881C104.09 35.4797 104.39 35.2267 104.69 35.055C105.88 34.4044 107.41 34.0339 108.9 34.0068C110.35 35.3713 111.36 36.9074 110.81 38.7779C109.97 41.6333 107.57 47.1452 106.73 49.9916C106.45 50.9404 106.01 52.847 105.63 54.5458C105.2 56.4614 103.34 57.8349 101.18 57.8349H87.9199C87.6399 55.0608 87.2299 49.5217 88.1199 47.7778Z" fill="#0E4271"/>
<path d="M36.7599 46.3589C36.2499 46.3589 35.7399 46.3769 35.2299 46.4131C33.4399 46.5576 31.6799 46.8378 29.9499 47.0817C29.0899 47.1992 28.2299 47.2986 27.3999 47.3528C26.5799 47.398 25.7499 47.3709 25.4399 47.0998C24.4199 46.4854 24.1599 44.9854 24.2599 43.5215C24.3199 42.0306 24.6799 40.4945 25.0499 38.9493C25.2299 38.1722 25.4199 37.3951 25.5699 36.5547C25.5999 36.3379 25.6399 36.13 25.6499 35.877C25.6599 35.7596 25.6599 35.606 25.6399 35.4523C25.6099 35.2445 25.5299 35.0367 25.4299 34.8921C25.0199 34.3048 24.5499 34.0879 24.1099 33.853C22.3199 33.0488 20.4099 32.859 18.5399 33.121C18.0599 33.2024 17.5799 33.3379 17.1299 33.5186C15.6999 33.9975 14.7499 34.9463 14.4199 36.3198C13.4399 40.3499 15.6599 44.7866 17.4399 48.3558C18.2399 49.9642 18.9999 51.4913 19.3299 52.7022C19.7299 54.2021 19.9699 57.2202 20.0699 58.8918C20.1099 59.5244 20.5899 60.0485 21.2399 60.2201C20.9899 62.0002 23.2699 62.6237 21.0099 64.5665C21.0299 65.1719 21.3399 65.696 21.9999 66.1207C24.9899 64.7743 22.9599 63.3737 23.3699 61.1599H37.5199C37.9399 63.3737 35.9099 64.7743 38.8899 66.1207C39.5599 65.705 39.8599 65.1719 39.8799 64.5665C37.6099 62.6147 39.9199 61.9912 39.6499 60.193C40.2199 60.0033 40.6399 59.5334 40.7099 58.9551C41.0199 56.2081 41.6199 49.5938 40.5499 47.5064C40.0399 46.4673 38.5999 46.2414 36.7599 46.3589ZM40.0899 57.8437H26.8499C24.6899 57.8437 22.8299 56.4702 22.3999 54.5545C22.0199 52.8558 21.5799 50.9492 21.2999 50.0004C20.4499 47.154 18.0499 41.642 17.2199 38.7866C16.6699 36.9162 17.6799 35.371 19.1299 34.0156C20.6199 34.0427 22.1499 34.4222 23.3399 35.0638C23.6399 35.2355 23.9399 35.4885 23.9699 35.5969C23.9599 35.606 23.9799 35.624 23.9699 35.5969C23.9699 35.6421 23.9699 35.6873 23.9599 35.7686C23.9399 35.9132 23.9099 36.0939 23.8699 36.2746C23.6999 37.0065 23.4499 37.7836 23.2299 38.5607C22.7899 40.124 22.3999 41.7324 22.2899 43.4312C22.2599 44.2806 22.2899 45.1661 22.5599 46.0787C22.8199 46.9643 23.3999 47.9582 24.3999 48.5185C24.5999 48.645 24.9699 48.8167 25.2599 48.8799C25.5599 48.9612 25.8399 48.9793 26.0999 48.9974C26.6299 49.0245 27.1099 48.9883 27.5799 48.9432C28.5199 48.8438 29.3999 48.6721 30.2699 48.4733C32.0099 48.1028 33.6999 47.642 35.3999 47.2986C35.9399 47.1811 36.4699 47.0998 37.0099 47.0275C38.4499 46.9462 39.5599 47.1179 39.9099 47.7865C40.7699 49.5215 40.3599 55.0606 40.0899 57.8437Z" fill="#0E4271"/>
</svg>
