<svg width="240" height="109" viewBox="0 0 240 109" fill="none" xmlns="http://www.w3.org/2000/svg">
<path d="M237.952 99.1204C213.065 108.372 195.324 109.899 170.473 100.419C148.03 91.8574 126.838 72.8306 108.265 57.9283C85.2705 39.478 36.312 14.7878 10.7771 40.7956C-9.05006 60.99 -0.871018 95.7075 29.6443 97.1106C41.4085 97.6516 51.7299 85.132 50.2658 73.5879C48.6844 61.1192 35.0132 50.8298 25.1921 44.8191C-1.18382 28.6762 -29.1013 49.1349 -56.5266 45.2634C-82.1491 41.6464 -96.5079 24.8758 -109.957 4.17363C-111.109 2.40035 -113.071 11.0081 -113.762 13.0944C-116.297 20.7426 -116.701 16.8412 -114.785 11.0584C-113.552 7.33927 -112.891 -1.21768 -108.572 2.55818C-105.457 5.28233 -97.9606 8.14959 -93.8976 9.49623" stroke="#0E4271" stroke-width="3" stroke-linecap="round"/>
</svg>
