<svg width="477" height="166" viewBox="0 0 477 166" fill="none" xmlns="http://www.w3.org/2000/svg">
<path d="M1.53019 151.889C39.7248 166.087 66.9531 168.432 105.093 153.882C139.536 140.742 172.061 111.541 200.566 88.6696C235.857 60.3531 310.996 22.4599 350.185 62.3753C380.615 93.3684 368.062 146.651 321.229 148.804C303.174 149.635 287.333 130.42 289.58 112.703C292.007 93.5668 312.989 77.7753 328.062 68.5502C368.542 43.7751 411.388 75.1739 453.479 69.2322C492.803 63.681 514.84 37.9424 535.48 6.16991C537.248 3.44838 540.259 16.659 541.321 19.861C545.211 31.5991 545.832 25.6114 542.89 16.7363C540.999 11.0284 539.984 -2.10437 533.356 3.69061C528.575 7.87148 517.07 12.272 510.834 14.3387" stroke="#0E4271" stroke-width="3" stroke-linecap="round"/>
</svg>
