<svg width="80" height="80" viewBox="0 0 80 80" fill="none" xmlns="http://www.w3.org/2000/svg">
<path d="M63.5522 33.71L57.6357 28.2162V22.3758C57.6334 20.6091 56.9306 18.9154 55.6814 17.6662C54.4321 16.417 52.7385 15.7142 50.9718 15.7119H50.9042C50.6732 14.1267 49.8797 12.6774 48.6687 11.6288C47.4577 10.5801 45.9099 10.002 44.3079 10H33.8361C31.0598 10.0033 28.3982 11.1076 26.4351 13.0707C24.4719 15.0339 23.3676 17.6955 23.3643 20.4718V28.2162L17.4478 33.71C16.9215 34.1997 16.4996 34.7907 16.2076 35.4475C15.9156 36.1044 15.7594 36.8135 15.7485 37.5323L11 68.881L12.8811 69.1666L17.641 37.7512C17.6488 37.7037 17.6526 37.6556 17.6524 37.6075C17.6531 37.1378 17.7503 36.6733 17.9379 36.2428C18.1256 35.8122 18.3998 35.4249 18.7434 35.1047L30.0853 24.5739C30.2419 24.4282 30.4377 24.3314 30.6485 24.2954C30.8594 24.2593 31.0762 24.2856 31.2723 24.3711C31.4684 24.4565 31.6353 24.5973 31.7525 24.7762C31.8697 24.9551 31.9322 25.1644 31.9322 25.3783C31.9321 25.6794 31.8274 25.9712 31.6361 26.2037L23.5795 36.0529C23.4404 36.2229 23.3644 36.4358 23.3643 36.6555V45.2233H25.2683V41.0517L27.2018 40.0826C27.2709 41.7833 27.6682 43.4545 28.3718 45.0044C26.6583 47.2754 24.3002 48.9773 21.6051 49.888L21.1595 50.0365C20.962 50.1023 20.7914 50.231 20.674 50.4029C20.5565 50.5749 20.4987 50.7806 20.5093 50.9885L21.4613 69.0762L23.3653 68.9753L22.8645 59.4697L27.5293 58.0122C29.8378 62.3504 34.929 65.2149 40.5 65.2149C46.071 65.2149 51.1622 62.3504 53.4746 58.0094L58.1393 59.4669L57.6357 68.9724L59.5396 69.0733L60.4916 50.9857C60.5023 50.7777 60.4444 50.572 60.327 50.4001C60.2096 50.2281 60.039 50.0994 59.8414 50.0337L59.3959 49.8852C56.7015 48.9764 54.3434 47.2769 52.6292 45.0082C53.3323 43.4582 53.7296 41.787 53.7992 40.0864L55.7317 41.0517V45.2233H57.6357V36.6555C57.6356 36.4358 57.5596 36.2229 57.4205 36.0529L49.3629 26.2037C49.1722 25.9709 49.068 25.6793 49.0678 25.3783C49.0678 25.1645 49.1302 24.9553 49.2473 24.7765C49.3644 24.5976 49.5311 24.4568 49.7271 24.3713C49.9231 24.2858 50.1397 24.2593 50.3505 24.2951C50.5613 24.3309 50.757 24.4275 50.9137 24.5729L62.2566 35.1047C62.6002 35.4249 62.8744 35.8122 63.062 36.2428C63.2497 36.6733 63.3469 37.1378 63.3476 37.6075C63.3475 37.655 63.3513 37.7024 63.359 37.7493L68.1189 69.1647L70 68.8791L65.2515 37.5323C65.2406 36.8135 65.0844 36.1044 64.7924 35.4475C64.5004 34.7907 64.0785 34.1997 63.5522 33.71ZM49.1459 28.9501L51.9238 32.3411V39.5114C51.9238 42.5412 50.7202 45.4469 48.5778 47.5893C46.4355 49.7316 43.5298 50.9352 40.5 50.9352C37.4702 50.9352 34.5645 49.7316 32.4222 47.5893C30.2798 45.4469 29.0762 42.5412 29.0762 39.5114V32.3411L29.4408 31.8956H36.4255C38.379 31.8891 40.2895 31.3214 41.9296 30.2599C43.5696 29.1985 44.87 27.6881 45.6759 25.9086L49.1459 28.9501ZM45.9263 55.6513L48.0207 56.3063C47.0453 57.3173 45.8763 58.1214 44.5833 58.6706C43.2904 59.2198 41.9 59.5028 40.4952 59.5028C39.0905 59.5028 37.7001 59.2198 36.4072 58.6706C35.1142 58.1214 33.9452 57.3173 32.9698 56.3063L35.0642 55.6513C35.2592 55.5922 35.4301 55.4721 35.5518 55.3086C35.6735 55.1451 35.7395 54.9469 35.7401 54.7431V51.9453C38.8015 53.1371 42.1985 53.1371 45.2599 51.9453V54.7431C45.2599 54.9457 45.3245 55.143 45.4444 55.3064C45.5642 55.4697 45.733 55.5905 45.9263 55.6513ZM25.2683 36.9953L27.1723 34.6687V37.9711L25.2683 38.9231V36.9953ZM22.4485 51.6073C25.1388 50.6532 27.5265 49.0001 29.3666 46.8179C30.5102 48.5507 32.0401 49.9946 33.8361 51.0361V54.0434L22.7589 57.5039L22.4485 51.6073ZM40.5 63.311C35.762 63.311 31.4419 60.9834 29.3837 57.4287L30.9964 56.9251C32.1519 58.3268 33.6032 59.4555 35.2463 60.2304C36.8893 61.0052 38.6834 61.4071 40.5 61.4071C42.3166 61.4071 44.1107 61.0052 45.7537 60.2304C47.3968 59.4555 48.8481 58.3268 50.0036 56.9251L51.6163 57.4287C49.5581 60.9834 45.238 63.311 40.5 63.311ZM58.5515 51.6073L58.2411 57.5096L47.1639 54.0434V51.0361C48.9593 49.995 50.4889 48.5518 51.6325 46.8198C53.4728 49.0017 55.861 50.6541 58.5515 51.6073ZM55.7317 38.9231L53.8277 37.9711V34.6687L55.7317 36.9953V38.9231ZM50.1664 22.3758C49.4811 22.377 48.8168 22.6123 48.2836 23.0427C47.7503 23.4731 47.3801 24.0728 47.2343 24.7424L45.8863 23.5629C45.7655 23.4573 45.62 23.3839 45.4632 23.3496C45.3065 23.3153 45.1436 23.3211 44.9898 23.3666C44.8359 23.4121 44.696 23.4958 44.5831 23.6098C44.4703 23.7238 44.388 23.8646 44.3441 24.0189C43.8474 25.7367 42.8072 27.2473 41.3796 28.3241C39.952 29.401 38.2137 29.986 36.4255 29.9916H30.9992L33.1107 27.4098C33.5796 26.8366 33.8359 26.1189 33.8361 25.3783C33.8361 24.794 33.6655 24.2223 33.3453 23.7335C33.0252 23.2447 32.5693 22.8599 32.0337 22.6264C31.498 22.3928 30.9059 22.3206 30.3298 22.4187C29.7538 22.5167 29.2189 22.7807 28.7906 23.1783L25.2683 26.4483V20.4718C25.2708 18.2002 26.1743 16.0224 27.7805 14.4162C29.3868 12.81 31.5646 11.9065 33.8361 11.904H44.3079C45.5699 11.9055 46.7797 12.4074 47.672 13.2998C48.5643 14.1921 49.0663 15.4019 49.0678 16.6639C49.0678 16.9164 49.1681 17.1585 49.3467 17.337C49.5252 17.5156 49.7673 17.6159 50.0198 17.6159H50.9718C52.2337 17.6174 53.4436 18.1193 54.3359 19.0117C55.2282 19.904 55.7302 21.1138 55.7317 22.3758V26.4483L52.2094 23.1773C51.6542 22.6614 50.9243 22.375 50.1664 22.3758Z" fill="#0E4271"/>
<path d="M42.424 36.867C42.465 37.0461 42.5568 37.2095 42.6886 37.3375C42.8204 37.4656 42.9864 37.5528 43.1666 37.5886L47.9265 38.5405L48.2996 36.6747L45.6284 36.1396L47.7323 34.5613L46.5899 33.0381L42.782 35.894C42.6347 36.0043 42.5225 36.1548 42.4589 36.3275C42.3954 36.5002 42.3833 36.6875 42.424 36.867Z" fill="#0E4271"/>
<path d="M34.4069 33.0381L33.2645 34.5613L35.3684 36.1396L32.6934 36.6747L33.0665 38.5405L37.8264 37.5886C38.0062 37.5519 38.1716 37.464 38.3027 37.3356C38.4337 37.2071 38.5248 37.0435 38.5651 36.8645C38.6053 36.6855 38.5929 36.4986 38.5294 36.3264C38.466 36.1542 38.3541 36.0041 38.2072 35.894L34.4069 33.0381Z" fill="#0E4271"/>
</svg>
