<svg width="80" height="81" viewBox="0 0 80 81" fill="none" xmlns="http://www.w3.org/2000/svg">
<path fill-rule="evenodd" clip-rule="evenodd" d="M48.5337 54.2833C48.3017 54.2833 48.0707 54.189 47.9029 54.0025C46.5143 52.464 45.7892 50.259 45.8049 47.6276C45.8126 46.5058 47.5121 46.5185 47.5049 47.6378C47.4734 52.5906 50.33 52.9529 49.1033 54.0637C48.9406 54.2106 48.7371 54.2837 48.5337 54.2837V54.2833Z" fill="#0E4271"/>
<path fill-rule="evenodd" clip-rule="evenodd" d="M31.2854 54.2382C30.557 54.2382 30.1607 53.3678 30.6555 52.819C33.278 49.9115 31.4358 46.8064 33.1871 46.8098C33.6561 46.8115 34.0354 47.193 34.0341 47.6619C34.0265 50.2547 33.2942 52.4312 31.9166 53.9574C31.7489 54.1439 31.5178 54.2382 31.2854 54.2382Z" fill="#0E4271"/>
<path fill-rule="evenodd" clip-rule="evenodd" d="M39.8868 50.1001C33.4859 50.1001 26.6068 46.3192 26.3366 38.0311C18.2779 33.4776 25.0394 28.0631 25.0407 28.0614C26.1145 21.8827 28.2918 19.2393 32.2842 19.2393C35.3719 19.2393 37.0247 20.2605 41.4975 19.9865C43.962 19.8361 45.1981 19.761 48.2114 18.8303C48.482 18.7479 48.7759 18.8035 48.9959 18.9815C51.8071 21.2527 54.6335 25.0633 54.8365 28.6255C58.3889 31.3584 58.617 35.1427 53.4811 38.0332C53.2041 45.9582 46.5059 50.1009 39.8868 50.1009V50.1001ZM32.2838 20.9393C26.6251 20.9393 27.4988 28.3553 26.323 29.2129C26.3005 29.2295 23.9473 30.9795 24.0994 33.0159C24.1992 34.3505 25.3673 35.6142 27.5719 36.7713C27.8514 36.9182 28.0268 37.2079 28.0268 37.5231C28.0268 52.0604 51.7896 52.02 51.7896 37.5231C51.7896 37.2075 51.9651 36.9178 52.2446 36.7713C53.7924 35.9587 55.6529 34.661 55.723 33.0928C55.8275 30.7582 53.1408 30.1109 53.1476 29.0634C53.1663 26.0989 50.6942 22.6706 48.2687 20.5888C43.8159 21.9171 39.9165 21.9999 35.5439 21.3024C34.375 21.116 33.2701 20.9397 32.2842 20.9397L32.2838 20.9393Z" fill="#0E4271"/>
<path fill-rule="evenodd" clip-rule="evenodd" d="M66.9247 77.3503H12.8495C12.3806 77.3503 12 76.9693 12 76.5008V65.0647C12 58.158 17.6188 52.5396 24.5252 52.5396H31.2837C32.4017 52.5396 32.4017 54.2386 31.2837 54.2386H24.5256C18.5559 54.2386 13.6987 59.0946 13.6987 65.0647V75.6508L66.0739 75.6504V65.0643C66.0739 59.1192 61.2375 54.2836 55.2925 54.2836H48.534C47.4155 54.2836 47.416 52.5846 48.534 52.5846H55.2925C62.1746 52.5846 67.7734 58.183 67.7734 65.0651V76.5008C67.7739 76.9697 67.3928 77.3503 66.9239 77.3503H66.9247Z" fill="#0E4271"/>
<path fill-rule="evenodd" clip-rule="evenodd" d="M51.9147 54.2831C51.2844 54.2831 50.8613 53.6065 51.165 53.0347L54.4782 46.7966C54.6507 46.4721 55.0117 46.2971 55.3749 46.3582C56.3247 46.5218 55.3396 47.3059 57.9418 47.3705C63.4604 47.5072 62.5352 42.8076 59.8647 41.2678C57.4448 39.8716 55.8511 34.5378 55.6773 33.9342C55.3677 32.8599 57.0005 32.3889 57.3097 33.4635C57.8938 35.4897 59.3359 39.0004 60.7138 39.7955C63.3763 41.3319 64.8341 45.2865 62.5522 47.5688C60.82 49.301 57.1568 49.3983 55.4577 48.5742L52.6653 53.832C52.5128 54.1192 52.2193 54.2831 51.9151 54.2831H51.9147Z" fill="#0E4271"/>
<path fill-rule="evenodd" clip-rule="evenodd" d="M27.8573 54.2387C27.5527 54.2387 27.2584 54.0752 27.1063 53.7872L24.3377 48.5735C21.7525 49.8126 15.5169 48.9796 16.1549 44.1436C16.3856 42.3944 17.5337 40.6877 19.0811 39.7953C20.4629 38.9984 21.9211 35.4244 22.5158 33.3587C22.825 32.2837 24.4583 32.7552 24.1482 33.829C23.9711 34.4432 22.3502 39.8709 19.9298 41.2671C17.2814 42.7954 16.3074 47.4849 21.8536 47.3698C24.429 47.3162 23.4826 46.5189 24.4196 46.3575C24.7794 46.2968 25.1434 46.4709 25.3163 46.7959L28.6057 52.9899C28.9094 53.5625 28.4834 54.2383 27.8569 54.2383L27.8573 54.2387Z" fill="#0E4271"/>
<path fill-rule="evenodd" clip-rule="evenodd" d="M56.2724 32.4811C55.8034 32.4811 55.4228 32.1005 55.4228 31.6316V21.5C55.4228 13.2595 48.4643 6.55534 39.912 6.55534C31.3588 6.55534 24.4002 13.2595 24.4002 21.5V31.3546C24.4002 32.473 22.7012 32.473 22.7012 31.3546V21.5C22.7012 12.3224 30.4213 4.85669 39.9115 4.85669C49.4017 4.85669 57.1228 12.3233 57.1228 21.5V31.632C57.1228 32.1014 56.7417 32.4815 56.2724 32.4815V32.4811Z" fill="#0E4271"/>
<path fill-rule="evenodd" clip-rule="evenodd" d="M39.7425 58.0285C36.264 58.0285 33.0243 56.5821 30.6537 53.9579C29.904 53.1283 31.1643 51.9887 31.9148 52.8187C36.2526 57.6164 43.3513 57.3828 47.9371 52.8289C48.731 52.0405 49.9276 53.2494 49.132 54.0365C46.5231 56.6199 43.2005 58.0285 39.7429 58.0285H39.7425Z" fill="#0E4271"/>
<path fill-rule="evenodd" clip-rule="evenodd" d="M20.9491 77.3503C20.4802 77.3503 20.0996 76.9693 20.0996 76.5008V65.458C20.0996 64.3396 21.7987 64.34 21.7987 65.458V76.5008C21.7987 76.9697 21.4181 77.3503 20.9491 77.3503Z" fill="#0E4271"/>
<path fill-rule="evenodd" clip-rule="evenodd" d="M58.8241 77.3503C58.3552 77.3503 57.9746 76.9693 57.9746 76.5008V65.458C57.9746 64.3396 59.6737 64.34 59.6737 65.458V76.5008C59.6737 76.9697 59.2931 77.3503 58.8241 77.3503Z" fill="#0E4271"/>
<path fill-rule="evenodd" clip-rule="evenodd" d="M36.2508 42.5906C35.502 42.5906 35.1129 41.6765 35.6502 41.1396C39.4604 37.3332 45.7321 40.7764 44.1677 42.3412C43.8355 42.6734 43.2973 42.6734 42.9656 42.3412C41.2814 40.6557 38.5378 40.6562 36.8519 42.3412C36.6854 42.5073 36.4683 42.5906 36.2508 42.5906Z" fill="#0E4271"/>
<path fill-rule="evenodd" clip-rule="evenodd" d="M43.9959 30.9307C43.1468 30.9307 42.8206 29.8068 43.5499 29.3574L48.3099 26.4281C49.2618 25.842 50.1529 27.2887 49.2002 27.8753C48.4725 28.323 44.5027 30.9307 43.9959 30.9307Z" fill="#0E4271"/>
<path fill-rule="evenodd" clip-rule="evenodd" d="M35.8227 30.9306C35.3159 30.9306 31.3465 28.3229 30.6188 27.8752C29.6661 27.2886 30.5568 25.8436 31.5087 26.4281L36.2687 29.3573C36.9972 29.8058 36.6731 30.9306 35.8227 30.9306Z" fill="#0E4271"/>
<path fill-rule="evenodd" clip-rule="evenodd" d="M32.7881 33.8461C31.73 33.8461 31.9385 32.5875 31.9385 31.7575C31.9385 30.6391 33.6376 30.6391 33.6376 31.7575C33.6376 32.5892 33.8462 33.8461 32.7881 33.8461Z" fill="#0E4271"/>
<path fill-rule="evenodd" clip-rule="evenodd" d="M47.0361 33.8461C45.978 33.8461 46.1866 32.5875 46.1866 31.7575C46.1866 30.6391 47.8857 30.6391 47.8857 31.7575C47.8857 32.5896 48.0942 33.8461 47.0361 33.8461Z" fill="#0E4271"/>
</svg>
