<svg width="80" height="81" viewBox="0 0 80 81" fill="none" xmlns="http://www.w3.org/2000/svg">
<path fill-rule="evenodd" clip-rule="evenodd" d="M31.7452 47.2698C31.3527 47.2698 31.0026 47.0091 30.8909 46.6317L27.1429 33.978L21.1733 43.332C21.0096 43.5885 20.7271 43.7439 20.4227 43.7439H10.1795C9.00786 43.7439 9.00786 41.9635 10.1795 41.9635H19.9353L26.6929 31.3756C27.1043 30.7291 28.0825 30.8765 28.297 31.6019L32.045 44.2564L38.9113 33.4965C39.3227 32.8521 40.2996 32.9956 40.5145 33.7227L42.3709 39.9896L46.3456 26.571C46.5794 25.7826 47.6616 25.7167 48.0046 26.4455L54.5443 40.3665H71.0069C72.1786 40.3665 71.8226 42.1469 70.6517 42.1469H53.9797C53.6346 42.1469 53.321 41.9471 53.1737 41.6352L47.3879 29.3203L43.2247 43.3774C42.9737 44.2228 41.7684 44.2228 41.5174 43.3774L39.3621 36.1001L32.4967 46.8588C32.3313 47.1174 32.0471 47.2706 31.7461 47.2706L31.7452 47.2698Z" fill="#0E4271"/>
<path fill-rule="evenodd" clip-rule="evenodd" d="M39.8482 73.5401C39.6118 73.5401 39.386 73.4461 39.2193 73.279L10.2651 44.3256C-3.12831 30.9322 6.36764 7.87956 25.3709 7.87956C30.7993 7.87956 35.9067 9.87195 39.8478 13.5079C53.3507 1.05273 75.6641 10.4714 75.6641 29.2194C75.6641 34.9413 73.4505 40.3068 69.4317 44.3264L40.4787 73.2798C40.3121 73.4469 40.0849 73.5405 39.849 73.5405L39.8482 73.5401ZM25.3717 9.65911C7.80084 9.65911 -0.646852 30.894 11.5241 43.0653L39.8482 71.392L68.1723 43.0662C80.3453 30.894 71.8943 9.65995 54.3255 9.65995C49.0788 9.65995 44.1608 11.688 40.4779 15.3709C40.1299 15.719 39.5669 15.719 39.2185 15.3709C35.536 11.6876 30.618 9.65911 25.3713 9.65911H25.3717Z" fill="#0E4271"/>
</svg>
