<svg width="80" height="80" viewBox="0 0 80 80" fill="none" xmlns="http://www.w3.org/2000/svg">
<g clip-path="url(#clip0_4002_7154)">
<path fill-rule="evenodd" clip-rule="evenodd" d="M47.7525 59.3182C47.4966 59.3182 47.2416 59.2141 47.0569 59.0083C45.3122 57.0757 45.0558 54.4591 45.1467 52.6033C45.2081 51.3574 47.0803 51.4689 47.0199 52.6961C46.7808 57.5566 49.6899 57.8965 48.3816 59.0763C48.2025 59.2376 47.978 59.3177 47.753 59.3177L47.7525 59.3182Z" fill="#0E4271"/>
<path fill-rule="evenodd" clip-rule="evenodd" d="M32.2875 59.2778C31.4836 59.2778 31.0463 58.3169 31.5923 57.7117C34.1049 54.9264 32.0602 51.8195 33.9417 51.7295C34.4705 51.7004 34.8956 52.1096 34.9177 52.6276C34.9931 54.4595 34.7189 57.047 32.9855 58.9684C32.7994 59.1728 32.5439 59.2778 32.288 59.2778H32.2875Z" fill="#0E4271"/>
<path fill-rule="evenodd" clip-rule="evenodd" d="M45.8751 38.5047C44.0372 38.5047 41.8598 37.045 42.9403 35.9654C43.3069 35.5989 43.9008 35.5989 44.2669 35.9654C45.1528 36.8519 46.5966 36.8528 47.4844 35.9654C48.3562 35.0936 49.6833 36.4178 48.8091 37.292C48.0009 38.1001 46.9378 38.5047 45.8751 38.5047Z" fill="#0E4271"/>
<path fill-rule="evenodd" clip-rule="evenodd" d="M34.1677 38.5047C32.3316 38.5047 30.1524 37.0455 31.2333 35.9655C31.5999 35.5989 32.1928 35.5989 32.5589 35.9655C33.4458 36.8523 34.8886 36.8528 35.7765 35.9655C36.6497 35.0931 37.9754 36.4192 37.1026 37.292C36.2935 38.1002 35.2304 38.5047 34.1677 38.5047Z" fill="#0E4271"/>
<path fill-rule="evenodd" clip-rule="evenodd" d="M43.3311 48.8881C43.0915 48.8881 42.8511 48.7962 42.6687 48.6129C41.2076 47.1532 38.8329 47.1532 37.3732 48.6129C36.4999 49.4862 35.1748 48.1587 36.0471 47.2868C39.6326 43.7023 45.6228 46.9793 43.9943 48.6124C43.8111 48.7971 43.5711 48.8881 43.3315 48.8881H43.3311Z" fill="#0E4271"/>
<path fill-rule="evenodd" clip-rule="evenodd" d="M39.8468 55.9878C36.4507 55.9878 34.9591 54.4653 32.5127 52.7951C29.5009 50.7396 27.7938 49.5743 27.6761 44.674C23.0064 41.9885 23.343 38.3149 26.4602 35.6004C26.5323 31.4946 27.6114 28.6544 29.7517 26.9256C29.9945 26.7297 30.3194 26.6664 30.6175 26.7588C37.2016 28.7969 42.8815 28.7842 49.4571 26.7588C49.7557 26.6669 50.0801 26.7288 50.3229 26.9256C53.1345 29.1972 53.5681 33.1211 53.591 36.0616C56.794 38.5985 56.9351 42.0588 52.3671 44.674C52.226 50.5465 49.6549 51.2004 45.7254 54.057C44.0102 55.3011 41.9229 55.9873 39.8468 55.9873V55.9878ZM30.5678 28.7036C29.0631 30.1605 28.33 32.5708 28.33 36.0485C28.33 37.0746 25.8569 37.8719 26.0219 40.0619C26.1278 41.4719 27.7225 42.5923 29.0416 43.2846C29.35 43.4468 29.5436 43.7665 29.5436 44.1148C29.5436 49.6329 31.4716 49.6048 35.7921 52.812C38.3913 54.7414 42.0396 54.4161 44.621 52.5387C48.6996 49.5724 50.4968 49.4876 50.4968 44.1152C50.4968 43.767 50.6904 43.4473 50.9988 43.2855C52.3437 42.5796 53.9604 41.4607 54.0237 40.1412C54.1193 38.1471 51.7081 37.5996 51.7146 36.5313C51.7296 34.0783 51.5079 30.6653 49.5031 28.705C42.9696 30.6428 37.1078 30.6442 30.5678 28.7041V28.7036Z" fill="#0E4271"/>
<path fill-rule="evenodd" clip-rule="evenodd" d="M64.2414 80H15.7598C15.2423 80 14.8223 79.5795 14.8223 79.0625V68.8095C14.8223 62.5202 19.9387 57.4033 26.2284 57.4033H32.2884C33.5227 57.4033 33.5227 59.2783 32.2884 59.2783H26.2284C20.9732 59.2783 16.6973 63.5533 16.6973 68.809V78.1245H63.3039V68.809C63.3039 63.5758 59.0467 59.3186 53.8135 59.3186H47.7535C46.5193 59.3186 46.5197 57.4436 47.7535 57.4436H53.8135C60.0807 57.4436 65.1793 62.5427 65.1793 68.8095V79.0625C65.1793 79.58 64.7584 80 64.2409 80H64.2414Z" fill="#0E4271"/>
<path fill-rule="evenodd" clip-rule="evenodd" d="M40.0013 64.9235C39.8068 64.9235 39.6122 64.8631 39.4472 64.7426L31.7344 59.097C30.7411 58.3699 31.8502 56.8587 32.8416 57.5829L40.0036 62.8264L47.2041 57.6199C48.2007 56.9004 49.2994 58.4187 48.3029 59.1396L40.5497 64.7454C40.3866 64.864 40.1939 64.9235 40.0013 64.9235Z" fill="#0E4271"/>
<path fill-rule="evenodd" clip-rule="evenodd" d="M40 80C39.4825 80 39.0625 79.5795 39.0625 79.0625V63.986C39.0625 62.7518 40.9375 62.7523 40.9375 63.986V79.0625C40.9375 79.58 40.5175 80 40 80Z" fill="#0E4271"/>
<path fill-rule="evenodd" clip-rule="evenodd" d="M55.9742 79.9999C55.4567 79.9999 55.0367 79.5794 55.0367 79.0624V69.1867C55.0367 67.9525 56.9117 67.953 56.9117 69.1867V79.0624C56.9122 79.5799 56.4917 79.9999 55.9742 79.9999ZM24.0273 79.9999C23.5098 79.9999 23.0898 79.5794 23.0898 79.0624V69.1867C23.0898 67.9525 24.9649 67.953 24.9649 69.1867V79.0624C24.9649 79.5799 24.5453 79.9999 24.0273 79.9999Z" fill="#0E4271"/>
<path fill-rule="evenodd" clip-rule="evenodd" d="M24.027 75.4429H15.7597C14.5254 75.4429 14.5254 73.5679 15.7597 73.5679H24.027C25.2613 73.5679 25.2613 75.4429 24.027 75.4429Z" fill="#0E4271"/>
<path fill-rule="evenodd" clip-rule="evenodd" d="M63.7467 75.4429H55.9743C54.7401 75.4429 54.7406 73.5679 55.9743 73.5679H63.7467C64.9809 73.5679 64.9809 75.4429 63.7467 75.4429Z" fill="#0E4271"/>
<path fill-rule="evenodd" clip-rule="evenodd" d="M52.6536 37.4738C51.815 37.4738 51.394 36.4444 52.0057 35.859C54.4217 33.5475 54.1568 28.1452 54.0875 27.1735C52.4745 23.6222 53.2428 21.0244 53.7964 19.852C51.2553 17.5097 45.1174 18.3605 42.8431 18.9248C41.8573 19.1695 41.2432 17.8734 42.0551 17.2645L44.0501 15.7692C33.3635 14.5068 21.1806 26.5885 28.1322 35.4708C28.8897 36.4388 27.4136 37.5938 26.6566 36.6263C18.0948 25.6885 33.7305 10.7282 46.5462 14.3583C47.291 14.5692 47.472 15.5456 46.8528 16.0106L46.1871 16.5098C49.3395 16.2426 53.6215 16.4658 55.6864 19.147C56.6154 20.3517 53.4922 21.5114 55.8575 26.5317C56.0914 27.0281 56.5437 34.1222 53.3023 37.2127C53.1195 37.3862 52.8865 37.4733 52.6536 37.4733V37.4738Z" fill="#0E4271"/>
<path fill-rule="evenodd" clip-rule="evenodd" d="M29.2821 16.1335C28.9619 16.1335 28.6497 15.9694 28.4749 15.6731L24.513 8.98733C24.1267 8.3353 24.6382 7.51826 25.3882 7.57451L29.1016 7.84592L25.9999 2.70652C25.3624 1.64949 26.9669 0.681517 27.6054 1.73761L31.6437 8.42811C32.0374 9.08061 31.5255 9.90515 30.7727 9.84796L27.0419 9.57515L30.0888 14.7174C30.4624 15.3478 29.9983 16.133 29.2821 16.133V16.1335Z" fill="#0E4271"/>
<path fill-rule="evenodd" clip-rule="evenodd" d="M53.3813 16.1335C52.665 16.1335 52.2024 15.3474 52.5755 14.7179L55.6228 9.57565L51.8921 9.84846C51.1411 9.90753 50.6264 9.08252 51.0211 8.42908L55.0594 1.73812C55.6969 0.681085 57.3024 1.64953 56.6644 2.70703L53.5627 7.84643L57.2757 7.57502C58.0252 7.51595 58.5366 8.3358 58.1513 8.98784L54.1894 15.6736C54.0127 15.969 53.701 16.1335 53.3813 16.1335Z" fill="#0E4271"/>
<path fill-rule="evenodd" clip-rule="evenodd" d="M41.4199 10.6922C40.9024 10.6922 40.4824 10.2722 40.4824 9.75475V0.937523C40.4824 -0.296232 42.3574 -0.296232 42.3574 0.937523V9.75475C42.3574 10.2732 41.9374 10.6922 41.4199 10.6922Z" fill="#0E4271"/>
<path fill-rule="evenodd" clip-rule="evenodd" d="M45.5006 10.102C44.7895 10.102 44.3254 9.32671 44.6896 8.69577L49.0978 1.05981C49.7142 -0.0080117 51.3389 0.927617 50.7211 1.99731L46.3129 9.63328C46.1395 9.93375 45.824 10.102 45.5006 10.102Z" fill="#0E4271"/>
<path fill-rule="evenodd" clip-rule="evenodd" d="M37.1635 10.1022C36.8392 10.1022 36.5242 9.93439 36.3503 9.63345L31.9421 1.99748C31.3252 0.927788 32.9495 -0.00877798 33.5654 1.05998L37.9735 8.69594C38.3373 9.32688 37.8737 10.1022 37.1631 10.1022H37.1635Z" fill="#0E4271"/>
</g>
<defs>
<clipPath id="clip0_4002_7154">
<rect width="80" height="80" fill="white"/>
</clipPath>
</defs>
</svg>
