<svg width="80" height="80" viewBox="0 0 80 80" fill="none" xmlns="http://www.w3.org/2000/svg">
<path d="M23.4348 40.6625C24.0043 41.9841 25.2454 42.9428 26.7502 43.2574C27.4153 46.0605 28.7313 50.2165 31.2242 51.6557C31.2481 51.6707 33.6639 53.1449 35.2082 54.5215C36.7236 55.8611 38.5046 56.6669 40.5278 56.6669C43.9437 56.6669 45.5956 54.5412 47.4046 53.2846C48.6281 52.3891 49.8002 51.6686 49.7992 51.6686C52.1755 50.3247 53.5454 46.4633 54.297 43.2574C57.4875 42.5917 58.9594 39.3237 57.2169 36.4745C57.1961 36.4405 57.1638 36.4203 57.139 36.3906C57.6329 35.772 57.9275 35.1744 57.9275 34.3452C57.9275 32.4344 58.2449 25.9623 58.8629 22.9825C59.6203 19.334 59.4753 16.3873 55.9363 14.8147C56.4113 13.2834 57.1458 9.94824 55.2267 8.21242C55.0051 8.01153 54.6889 7.9508 54.4107 8.05773L52.0208 8.95834C47.1902 3.49082 40.6404 5.13476 38.0004 6.1205C36.331 6.74963 34.8101 7.0533 33.2751 7.02683H33.2642C32.8261 7.02683 32.5022 7.38084 32.4996 7.81895C32.497 8.25758 32.8811 8.61575 33.3192 8.62145C34.985 8.63184 36.7026 8.3126 38.5599 7.61339C41.5229 6.50826 47.0999 5.40105 51.1566 10.4045C51.373 10.6724 51.7353 10.771 52.0572 10.6485L54.4533 9.74579C55.3596 11.1458 54.5991 13.9416 54.1896 14.987C54.024 15.4101 54.2455 15.8876 54.676 16.034C57.9166 17.1307 57.9961 19.3088 57.3015 22.658C56.6508 25.783 56.3329 32.5836 56.3329 34.3452C56.3329 34.9581 55.9645 35.2855 55.8766 35.4104C55.3928 35.8791 54.4398 35.8516 54.0022 35.3808C53.3212 34.6199 53.7105 34.3959 53.2796 26.7157C53.2121 25.1269 52.2299 23.7731 50.8549 23.1593C52.1912 21.6626 52.6851 20.3829 52.7896 20.0668C52.9536 19.6826 52.787 19.2409 52.4076 19.0509C51.9689 18.8307 51.4198 19.0691 51.2796 19.5544C50.8243 21.1731 48.6781 23.1233 48.7571 23.0152C45.5435 25.8633 41.7049 26.7571 37.5259 27.3054C33.2532 27.4967 30.7229 26.0954 30.6159 26.0762C30.5686 26.0477 30.5183 26.0243 30.4658 26.0061C30.4674 26.0061 30.4617 26.0025 30.443 25.9926C30.2006 25.8722 29.9151 25.8815 29.681 26.0191C29.2029 26.3018 28.7399 26.7781 28.6028 27.0038C27.4651 28.4339 27.7909 29.5903 26.9563 34.379C26.948 34.4397 26.9241 34.489 26.8452 34.5653C26.0602 35.3496 24.7242 34.8173 24.7242 34.3452V29.1326C24.7242 28.6924 24.3671 28.3353 23.9269 28.3353C23.4867 28.3353 23.1296 28.6924 23.1296 29.1326V34.3452C23.1296 35.0449 23.4727 35.5792 24.062 35.9922L23.5973 36.8991C22.9936 38.1195 22.9339 39.4904 23.4348 40.6625ZM28.5354 34.6017C29.3895 29.4198 29.0881 28.6134 30.1757 27.6267C33.9328 29.2556 37.5358 28.9088 37.7055 28.8896C42.0355 28.3252 46.116 27.3742 49.565 24.426C50.7262 24.5953 51.6352 25.58 51.686 26.7822L52.0016 34.4636C52.0791 36.4192 53.8715 37.8137 55.8245 37.2183C55.8378 37.2475 55.8397 37.2791 55.8569 37.3071C57.1317 39.3906 55.875 41.5388 53.5641 41.7578C53.2189 41.7905 52.9344 42.0422 52.8602 42.3812C51.9388 46.5936 50.5731 49.3992 48.9904 50.2946C47.8056 51.0153 45.8883 52.3499 44.7703 53.3266C43.3256 54.6045 41.3436 55.4391 39.3583 54.9679C36.7224 54.3728 36.4384 52.9517 32.0371 50.2842C29.9223 49.0626 28.716 44.7672 28.1845 42.3786C28.1097 42.0407 27.8258 41.7899 27.4811 41.7578C26.2991 41.6462 25.3098 40.9843 24.9002 40.0334C24.2127 38.4235 25.3663 37.1161 25.582 36.5221C26.9109 36.6253 28.3623 35.8668 28.5354 34.6017Z" fill="#0E4271"/>
<path d="M50.2029 33.0656C50.6431 33.0656 51.0002 32.7084 51.0002 32.2682C51.0002 31.8281 50.6431 31.4709 50.2029 31.4709C48.6026 31.4709 47.0723 30.9731 45.7761 30.0305L45.718 29.9884C45.3614 29.7304 44.8932 29.8327 44.6347 30.1878C44.3762 30.5438 44.4841 31.0629 44.8397 31.3214C46.4084 32.4624 48.2631 33.0656 50.2029 33.0656Z" fill="#0E4271"/>
<path d="M31.0512 33.0655C32.9916 33.0655 34.8463 32.4623 36.4123 31.3229L36.4705 31.2809L36.0033 30.6346L35.4759 30.032C34.1823 30.9731 32.6521 31.4709 31.0512 31.4709C30.611 31.4709 30.2539 31.828 30.2539 32.2682C30.2539 32.7084 30.611 33.0655 31.0512 33.0655Z" fill="#0E4271"/>
<path d="M48.5148 34.5549C48.0746 34.5549 47.7175 34.9121 47.7175 35.3522C47.7175 35.6855 47.446 35.957 47.1127 35.957C46.7795 35.957 46.508 35.6855 46.508 35.3522C46.508 34.9121 46.1509 34.5549 45.7107 34.5549C44.2246 34.5549 44.9041 37.5516 47.1127 37.5516C49.3151 37.5516 50.0118 34.5549 48.5148 34.5549Z" fill="#0E4271"/>
<path d="M35.8905 34.5549C35.4503 34.5549 35.0932 34.9121 35.0932 35.3522C35.0932 35.6855 34.8217 35.957 34.4884 35.957C34.1552 35.957 33.8837 35.6855 33.8837 35.3522C33.8837 34.9121 33.5266 34.5549 33.0864 34.5549C32.6462 34.5549 32.2891 34.9121 32.2891 35.3522C32.2891 36.5648 33.2758 37.5516 34.4884 37.5516C35.701 37.5516 36.6878 36.5648 36.6878 35.3522C36.6878 34.9121 36.3307 34.5549 35.8905 34.5549Z" fill="#0E4271"/>
<path d="M40.6291 45.8055C42.8314 45.8055 43.5281 42.8088 42.0311 42.8088C41.5909 42.8088 41.2338 43.166 41.2338 43.6062C41.2338 43.9394 40.9623 44.2109 40.6291 44.2109C40.2958 44.2109 40.0243 43.9394 40.0243 43.6062C40.0243 43.166 39.6672 42.8088 39.227 42.8088C38.7868 42.8088 38.4297 43.166 38.4297 43.6062C38.4297 44.8187 39.4165 45.8055 40.6291 45.8055Z" fill="#0E4271"/>
<path d="M23.6806 73.8297V71.4653C23.6806 71.0251 23.3234 70.668 22.8833 70.668C22.4431 70.668 22.0859 71.0251 22.0859 71.4653V73.8297C22.0859 74.2699 22.4431 74.627 22.8833 74.627C23.3234 74.627 23.6806 74.2699 23.6806 73.8297Z" fill="#0E4271"/>
<path d="M71.1597 73.8298V71.6532C71.1597 67.976 68.9407 64.7297 65.4425 63.3598C65.336 63.3242 55.7519 60.4657 53.0255 58.8734C51.4818 57.9717 50.4296 56.3838 50.2095 54.6257C50.155 54.1886 49.7542 53.8829 49.3193 53.9337C48.8827 53.9883 48.5728 54.3869 48.6273 54.824C48.9081 57.0711 50.2515 59.0997 52.2209 60.25C55.1784 61.9776 64.7916 64.8238 64.9266 64.8678C67.7447 65.9739 69.5651 68.6373 69.5651 71.6532V73.8298C69.5651 74.2699 69.9222 74.6271 70.3624 74.6271C70.8026 74.6271 71.1597 74.2699 71.1597 73.8298Z" fill="#0E4271"/>
<path d="M47.3244 62.1422C47.7345 61.9818 47.937 61.5193 47.776 61.1092C47.6156 60.6986 47.1516 60.4972 46.7431 60.6576C42.8888 62.1668 37.6883 61.9427 34.3644 60.3514C33.9658 60.1609 33.4913 60.3296 33.3008 60.7267C33.1109 61.1238 33.279 61.5998 33.6761 61.7903C37.4098 63.5769 43.0749 63.8071 47.3244 62.1422Z" fill="#0E4271"/>
<path d="M58.3442 74.6272C58.7844 74.6272 59.1415 74.27 59.1415 73.8299V71.4711C59.1415 71.031 58.7844 70.6738 58.3442 70.6738C57.904 70.6738 57.5469 71.031 57.5469 71.4711V73.8299C57.5469 74.27 57.904 74.6272 58.3442 74.6272Z" fill="#0E4271"/>
<path d="M15.957 63.3821C12.5233 64.7292 10.3047 67.976 10.3047 71.6532V73.8298C10.3047 74.2699 10.6618 74.6271 11.102 74.6271C11.5422 74.6271 11.8993 74.2699 11.8993 73.8298V71.6532C11.8993 68.6363 13.7208 65.9724 16.475 64.889C17.3764 64.5952 26.2665 61.9898 29.243 60.25C31.2119 59.1002 32.5558 57.0716 32.8366 54.824C32.8911 54.3869 32.5812 53.9883 32.1447 53.9337C31.7086 53.8829 31.3095 54.1886 31.2544 54.6257C31.0343 56.3843 29.9822 57.9722 28.4384 58.8734C25.6788 60.4857 16.064 63.3457 15.957 63.3821Z" fill="#0E4271"/>
<path d="M16.9497 15.3055C17.3898 15.3055 17.747 14.9484 17.747 14.5082C17.747 13.2648 18.8215 12.2312 20.1384 12.3784C22.1003 12.5944 22.7665 15.2254 21.0354 16.3208C19.8197 17.0922 19.0935 18.3696 19.0935 19.739C19.0935 20.1792 19.4506 20.5363 19.8908 20.5363C20.331 20.5363 20.6881 20.1792 20.6881 19.739C20.6881 18.9188 21.1371 18.1444 21.8893 17.6678C23.107 16.8965 23.7647 15.524 23.6059 14.0862C23.2786 11.1255 19.6833 9.6729 17.3971 11.7233C16.606 12.4318 16.1523 13.4472 16.1523 14.5082C16.1523 14.9484 16.5095 15.3055 16.9497 15.3055Z" fill="#0E4271"/>
<path d="M19.8924 21.4998C19.3765 21.4998 18.957 21.9192 18.957 22.4346C18.957 22.9506 19.3765 23.37 19.8924 23.37C20.4079 23.37 20.8273 22.9506 20.8273 22.4346C20.8273 21.9192 20.4079 21.4998 19.8924 21.4998ZM19.8924 23.0944C19.5285 23.0944 19.2327 22.7985 19.2327 22.4346C19.2327 22.0713 19.5285 21.7754 19.8924 21.7754C20.2558 21.7754 20.5517 22.0713 20.5517 22.4346C20.5517 22.7985 20.2558 23.0944 19.8924 23.0944Z" fill="#0E4271"/>
<path d="M38.7075 50.5265C40.6473 50.5265 42.502 49.9233 44.0686 48.7839L44.1267 48.7418L43.6595 48.0956L43.1321 47.4929C41.8381 48.434 40.3078 48.9318 38.7075 48.9318C38.2673 48.9318 37.9102 49.289 37.9102 49.7291C37.9102 50.1693 38.2673 50.5265 38.7075 50.5265Z" fill="#0E4271"/>
<path d="M11.2408 25.4174C12.818 30.8117 20.278 31.4703 22.7458 26.4182C25.9181 27.0759 29.0503 25.3834 30.3234 22.6304C32.4443 22.3953 34.2222 22.6678 35.74 23.4557C36.3797 23.7882 37.0953 23.1663 36.8612 22.4882C36.0188 20.048 34.4579 18.4367 32.2149 17.6872C32.4837 16.5482 32.1276 15.327 31.2224 14.5254C32.1537 12.2824 31.8282 9.6756 30.3244 7.70515C27.7422 4.32121 22.7328 4.08381 19.8462 7.15233C16.3618 5.44126 12.3102 7.95405 12.2815 11.8298C6.88989 12.3334 4.13011 18.5871 7.41979 22.8982C8.38737 24.1664 9.72972 25.0473 11.2408 25.4174ZM13.111 13.3969C13.5901 13.4245 14.0079 12.9809 13.925 12.4719C13.4073 9.2891 16.9038 7.04092 19.5794 8.8352C19.9287 9.06879 20.399 8.99248 20.6554 8.65871C22.7884 5.8851 26.9579 5.92101 29.0568 8.67273C30.328 10.338 30.5056 12.5918 29.51 14.4148C29.2922 14.8135 29.451 15.314 29.8593 15.5132C30.6305 15.8897 30.9828 16.9617 30.4646 17.8003C30.1746 18.2696 30.4387 18.882 30.9733 18.9984C32.5144 19.3337 33.6824 20.0879 34.5062 21.2875C33.0595 20.9122 31.4555 20.8546 29.6558 21.1069C28.7158 21.2385 29.204 22.4427 27.3168 23.8819C25.9438 24.9305 24.153 25.2414 22.5246 24.7119C22.1109 24.577 21.6687 24.7981 21.5259 25.2077C19.9976 29.5814 13.5936 29.1387 12.6755 24.5796C12.6096 24.2541 12.3495 24.0039 12.022 23.9504C10.7014 23.7355 9.51741 23.0187 8.6874 21.9307C5.96667 18.365 8.6399 13.2441 13.111 13.3969Z" fill="#0E4271"/>
<path d="M64.195 9.87605V7.16954C64.195 6.35614 63.5337 5.69482 62.7203 5.69482H60.0138C59.2004 5.69482 58.5391 6.35614 58.5391 7.16954V9.87605C58.5391 10.6895 59.2004 11.3508 60.0138 11.3508H62.7203C63.5337 11.3508 64.195 10.6895 64.195 9.87605ZM62.6004 9.75614H60.1337V7.28945H62.6004V9.75614Z" fill="#0E4271"/>
<path d="M66.8365 14.3101H63.545C62.7316 14.3101 62.0703 14.9714 62.0703 15.7848V19.0763C62.0703 19.8897 62.7316 20.551 63.545 20.551H66.8365C67.65 20.551 68.3113 19.8897 68.3113 19.0763V15.7848C68.3113 14.9714 67.65 14.3101 66.8365 14.3101ZM66.7166 18.9564H63.6649V15.9047H66.7166V18.9564Z" fill="#0E4271"/>
<path d="M68.3828 9.17516V12.8441C68.3828 13.6575 69.0441 14.3188 69.8575 14.3188H73.5264C74.3398 14.3188 75.0011 13.6575 75.0011 12.8441V9.17516C75.0011 8.36175 74.3398 7.70044 73.5264 7.70044H69.8575C69.0441 7.70044 68.3828 8.36175 68.3828 9.17516ZM69.9774 9.29507H73.4065V12.7241H69.9774V9.29507Z" fill="#0E4271"/>
</svg>
