<svg width="80" height="80" viewBox="0 0 80 80" fill="none" xmlns="http://www.w3.org/2000/svg">
<path fill-rule="evenodd" clip-rule="evenodd" d="M8.97988 43.5984C8.43872 43.5984 8 43.1597 8 42.6185C8 42.0774 8.43872 41.6387 8.97988 41.6387H10.9396C11.4808 41.6387 11.9195 42.0774 11.9195 42.6185C11.9195 43.1597 11.4808 43.5984 10.9396 43.5984H8.97988ZM57.9731 41.6388C58.5142 41.6388 58.9529 42.0775 58.9529 42.6187C58.9529 43.1598 58.5142 43.5986 57.9731 43.5986H56.0133C55.4722 43.5986 55.0334 43.1598 55.0334 42.6187C55.0334 42.0775 55.4722 41.6388 56.0133 41.6388H57.9731ZM50.1342 41.6388C50.6753 41.6388 51.1141 42.0775 51.1141 42.6187C51.1141 43.1598 50.6753 43.5986 50.1342 43.5986H48.1744C47.6333 43.5986 47.1946 43.1598 47.1946 42.6187C47.1946 42.0775 47.6333 41.6388 48.1744 41.6388H50.1342ZM42.2953 41.6388C42.8364 41.6388 43.2752 42.0775 43.2752 42.6187C43.2752 43.1598 42.8364 43.5986 42.2953 43.5986H40.3355C39.7944 43.5986 39.3557 43.1598 39.3557 42.6187C39.3557 42.0775 39.7944 41.6388 40.3355 41.6388H42.2953ZM34.4564 41.6388C34.9976 41.6388 35.4363 42.0775 35.4363 42.6187C35.4363 43.1598 34.9976 43.5986 34.4564 43.5986H32.4967C31.9555 43.5986 31.5168 43.1598 31.5168 42.6187C31.5168 42.0775 31.9555 41.6388 32.4967 41.6388H34.4564ZM26.6175 41.6388C27.1587 41.6388 27.5974 42.0775 27.5974 42.6187C27.5974 43.1598 27.1587 43.5986 26.6175 43.5986H24.6578C24.1166 43.5986 23.6779 43.1598 23.6779 42.6187C23.6779 42.0775 24.1166 41.6388 24.6578 41.6388H26.6175ZM18.7786 41.6388C19.3198 41.6388 19.7585 42.0775 19.7585 42.6187C19.7585 43.1598 19.3198 43.5986 18.7786 43.5986H16.8189C16.2777 43.5986 15.839 43.1598 15.839 42.6187C15.839 42.0775 16.2777 41.6388 16.8189 41.6388H18.7786Z" fill="#0E4271"/>
<path fill-rule="evenodd" clip-rule="evenodd" d="M18.2054 8C21.4534 8 24.0867 10.6333 24.0867 13.8812C24.0867 17.1292 21.4534 19.7624 18.2054 19.7624C14.9575 19.7624 12.3242 17.1292 12.3242 13.8812C12.3241 10.6333 14.9575 8 18.2054 8ZM20.9784 11.1083C19.447 9.57695 16.9637 9.57695 15.4324 11.1083C13.901 12.6397 13.901 15.1229 15.4324 16.6543C16.9637 18.1856 19.447 18.1856 20.9784 16.6543C22.5097 15.1229 22.5097 12.6397 20.9784 11.1083Z" fill="#0E4271"/>
<path fill-rule="evenodd" clip-rule="evenodd" d="M18.2061 30.7943H8.97988C8.43872 30.7943 8 30.3556 8 29.8144C8 24.1779 12.5696 19.6084 18.206 19.6084C23.8424 19.6084 28.412 24.1779 28.412 29.8144C28.412 30.3556 27.9733 30.7943 27.4321 30.7943H18.2061ZM10.0175 28.8347H26.3946C25.9076 24.7197 22.4065 21.5683 18.2061 21.5683C14.0057 21.5682 10.5047 24.7196 10.0175 28.8347Z" fill="#0E4271"/>
<path fill-rule="evenodd" clip-rule="evenodd" d="M38.057 8C41.305 8 43.9382 10.6334 43.9382 13.8812C43.9382 17.1291 41.3048 19.7624 38.057 19.7624C34.8092 19.7624 32.1758 17.1293 32.1758 13.8814C32.1758 10.6333 34.809 8 38.057 8ZM40.8299 11.1083C39.2986 9.57695 36.8153 9.57695 35.284 11.1083C33.7526 12.6397 33.7526 15.1229 35.284 16.6543C36.8153 18.1856 39.2986 18.1856 40.8299 16.6543C42.3614 15.1228 42.3614 12.6397 40.8299 11.1083Z" fill="#0E4271"/>
<path fill-rule="evenodd" clip-rule="evenodd" d="M38.0576 30.7943H28.8314C28.2903 30.7943 27.8516 30.3556 27.8516 29.8144C27.8516 24.178 32.4212 19.6084 38.0576 19.6084C43.6939 19.6084 48.2636 24.1779 48.2636 29.8144C48.2636 30.3556 47.8248 30.7943 47.2837 30.7943H38.0576ZM29.8691 28.8347H46.2461C45.7589 24.7197 42.2578 21.5683 38.0576 21.5683C33.8573 21.5683 30.3561 24.7197 29.8691 28.8347Z" fill="#0E4271"/>
<path fill-rule="evenodd" clip-rule="evenodd" d="M57.9008 8C61.1487 8 63.782 10.6334 63.782 13.8812C63.782 17.1291 61.1486 19.7624 57.9008 19.7624C54.6529 19.7624 52.0195 17.1292 52.0195 13.8812C52.0195 10.6333 54.6528 8 57.9008 8ZM60.6737 11.1083C59.1423 9.57695 56.6591 9.57695 55.1277 11.1083C53.5964 12.6397 53.5964 15.1229 55.1277 16.6543C56.6591 18.1856 59.1423 18.1856 60.6737 16.6543C62.2052 15.1228 62.2052 12.6397 60.6737 11.1083Z" fill="#0E4271"/>
<path fill-rule="evenodd" clip-rule="evenodd" d="M57.9013 30.7943H48.6752C48.134 30.7943 47.6953 30.3556 47.6953 29.8144C47.6953 24.178 52.2648 19.6084 57.9013 19.6084C63.5377 19.6084 68.1073 24.178 68.1073 29.8144C68.1073 30.3556 67.6686 30.7943 67.1274 30.7943H57.9013ZM49.7128 28.8347H66.0898C65.6028 24.7197 62.1017 21.5683 57.9013 21.5683C53.7009 21.5683 50.1999 24.7197 49.7128 28.8347Z" fill="#0E4271"/>
<path fill-rule="evenodd" clip-rule="evenodd" d="M59.482 33.9007V45.4497C59.482 45.9908 59.0433 46.4296 58.5022 46.4296C57.961 46.4296 57.5223 45.9908 57.5223 45.4497V35.9387C57.5223 35.1601 56.9864 34.7699 56.3368 34.7699V34.7662C55.7001 34.7662 55.1513 35.1563 55.1513 35.9387C55.1513 36.5725 55.1685 37.3673 55.1903 38.3716C55.279 42.4573 55.5021 51.5991 54.5936 52.8782L54.5931 52.8778C54.1809 53.4583 53.2884 53.4179 52.9401 52.7786L50.451 48.2112C49.7027 46.8382 47.6092 47.9668 48.3631 49.3499C49.4761 51.3926 50.8406 53.6523 51.8312 55.7174C53.2922 58.7589 55.6262 60.8497 58.1702 61.9393C61.3961 63.3211 65.2333 63.1655 67.8455 60.7832C69.2725 59.4819 70.294 57.5318 70.6061 54.9037C70.7961 51.666 70.7056 48.0551 70.617 44.5226C70.5656 42.4766 70.5149 40.4557 70.5149 38.7412C70.5149 37.9625 69.979 37.5725 69.3294 37.5725V37.5687C68.6928 37.5687 68.1439 37.9589 68.1439 38.7413V46.1293C68.1439 46.6705 67.7052 47.1092 67.164 47.1092C66.6229 47.1092 66.1841 46.6705 66.1841 46.1293V35.0898C66.1841 34.3111 65.6482 33.9211 64.9986 33.9211V33.9173C64.362 33.9173 63.8131 34.3073 63.8131 35.0899V45.4925C63.8131 46.0337 63.3744 46.4724 62.8332 46.4724C62.2921 46.4724 61.8533 46.0337 61.8533 45.4925V33.901C61.8533 33.1223 61.3174 32.7322 60.6678 32.7322V32.7284C60.031 32.7281 59.482 33.1183 59.482 33.9007ZM57.6181 33.0647C58.2853 30.3031 62.1814 30.0148 63.4427 32.3442C65.4528 31.2862 68.1439 32.4637 68.1439 35.0896V35.8291C70.156 35.0706 72.4747 36.3212 72.4747 38.7412C72.4747 44.0977 72.8608 49.9412 72.5558 55.0606C72.5548 55.0786 72.554 55.0965 72.552 55.1142C71.9582 60.1524 68.8313 64.0952 63.6182 64.7004C61.5907 64.9357 59.437 64.6086 57.4048 63.7382C54.4642 62.4788 51.7715 60.0776 50.088 56.5951L46.6484 50.2837C45.4437 48.073 47.0502 45.8892 49.1263 45.6458C50.261 45.5127 51.4494 45.9625 52.166 47.2774L53.2973 49.3533C53.4123 46.4138 53.3054 41.4894 53.2384 38.4099C53.2124 37.2096 53.1918 36.2607 53.1918 35.9387C53.1915 33.41 55.6526 32.2561 57.6181 33.0647Z" fill="#0E4271"/>
<path fill-rule="evenodd" clip-rule="evenodd" d="M26.4942 44.6816C30.4172 44.6816 33.5979 47.8622 33.5979 51.7854C33.5979 55.7084 30.4174 58.8889 26.4942 58.8889C22.5712 58.8889 19.3906 55.7083 19.3906 51.7854C19.3905 47.8623 22.571 44.6816 26.4942 44.6816ZM30.1315 48.1479C28.1228 46.1392 24.8655 46.1392 22.8568 48.1479C20.848 50.1567 20.848 53.4138 22.8568 55.4227C24.8655 57.4314 28.1226 57.4314 30.1315 55.4227C32.1403 53.4139 32.1403 50.1567 30.1315 48.1479Z" fill="#0E4271"/>
<path fill-rule="evenodd" clip-rule="evenodd" d="M26.4953 72.672H14.9682C14.427 72.672 13.9883 72.2332 13.9883 71.6921C13.9883 64.7849 19.588 59.1851 26.4952 59.1851C33.4024 59.1851 39.0022 64.7849 39.0022 71.6921C39.0022 72.2332 38.5635 72.672 38.0223 72.672H26.4953ZM15.9931 70.7122H36.9975C36.5012 65.3233 31.9671 61.1448 26.4953 61.1448C21.0235 61.1448 16.4894 65.3231 15.9931 70.7122Z" fill="#0E4271"/>
<path fill-rule="evenodd" clip-rule="evenodd" d="M25.2137 54.4726C25.2137 55.0137 24.7749 55.4524 24.2338 55.4524C23.6926 55.4524 23.2539 55.0137 23.2539 54.4726C23.2539 51.5962 26.7481 50.1458 28.7842 52.1819C29.3704 52.7681 29.7331 53.5781 29.7331 54.4726C29.7331 55.0137 29.2944 55.4524 28.7532 55.4524C28.2121 55.4524 27.7734 55.0137 27.7734 54.4726C27.7734 53.3354 26.3923 52.7637 25.5885 53.5676C25.3569 53.7991 25.2137 54.119 25.2137 54.4726Z" fill="#0E4271"/>
</svg>
