<svg width="80" height="80" viewBox="0 0 80 80" fill="none" xmlns="http://www.w3.org/2000/svg">
<path d="M69.3329 46.2571C69.5795 44.3362 67.8238 41.9235 63.8102 38.664L63.583 38.4787C63.3812 38.3075 63.0762 38.0497 63.5807 36.0914C64.0994 34.0831 60.9565 28.1291 59.3623 25.2941C60.5791 19.5577 57.2471 14.4685 50.5076 11.7105C50.6466 11.5737 50.7707 11.4212 50.8671 11.2321C51.3245 10.3427 51.0106 9.30377 50.3566 7.91581C50.0927 7.35599 49.426 7.11607 48.8647 7.37991C48.3049 7.64375 48.065 8.31194 48.3288 8.87251C48.6726 9.60274 48.7862 9.9787 48.8236 10.1618C48.5314 10.2672 47.9252 10.3778 47.4207 10.4705C47.2802 10.4959 47.1165 10.5281 46.9625 10.5565C43.5035 9.69169 39.7723 9.45774 36.1271 9.86135C35.222 9.19166 34.1061 8.78955 32.896 8.78955C30.6986 8.78955 28.8046 10.099 27.9421 11.9773C27.7919 12.0416 27.6394 12.1021 27.4899 12.1694C27.2022 10.2612 25.5676 8.78955 23.5809 8.78955C21.3917 8.78955 19.6106 10.5699 19.6106 12.7591C19.6106 14.1717 20.3573 15.4057 21.4709 16.1091C20.5382 16.9716 19.6898 17.9216 18.9417 18.9605C18.4394 18.9739 17.9483 19.015 17.5088 19.0554C17.0155 19.101 16.6478 19.1189 16.3346 19.1152C16.3077 18.8521 16.2868 18.4717 16.2659 18.0994C16.2076 17.0575 15.6814 16.4887 15.2509 16.195C13.9676 15.3198 12.0519 15.8848 11.6812 16.0067C11.093 16.2002 10.7731 16.8333 10.9667 17.4223C11.1595 18.0105 11.7903 18.3311 12.3823 18.1368C12.9765 17.941 13.8345 17.8954 13.993 18.0509C13.9997 18.0613 14.0214 18.1144 14.0274 18.2243C14.1514 20.4546 14.2949 21.3597 16.6463 21.3597C16.8765 21.3597 17.1777 21.3358 17.5051 21.3066C17.3496 21.6116 17.1987 21.9195 17.0582 22.2372C10.3455 37.4398 19.2279 49.9785 24.5361 57.4707C25.8919 59.3856 27.0639 61.0389 27.4929 62.1107C29.3944 66.8673 27.6932 69.5595 27.6058 69.6925C27.2605 70.2008 27.389 70.8937 27.8958 71.2442C28.0909 71.3787 28.3128 71.4438 28.5333 71.4438C28.8891 71.4438 29.2382 71.2748 29.4557 70.9609C29.5595 70.8114 31.9573 67.238 29.5745 61.2796C29.0468 59.9604 27.8636 58.2899 26.3658 56.1754C21.3334 49.0719 12.91 37.1826 19.1091 23.1445C19.4013 22.4838 19.7309 21.859 20.0904 21.2633C20.3423 21.3089 20.5524 21.3799 20.6832 21.4942C20.7243 21.5294 20.8192 21.6123 20.8326 21.9068C20.9163 23.7462 21.6473 25.3539 22.8365 26.3166C23.6452 26.9714 24.6221 27.3069 25.6991 27.3069C25.9958 27.3069 26.3008 27.2815 26.6117 27.23C27.2224 27.1291 27.6364 26.552 27.5348 25.9407C27.4339 25.33 26.8516 24.9159 26.2462 25.0176C25.445 25.1491 24.773 25.0004 24.2476 24.5736C23.5548 24.0131 23.1272 23.004 23.0719 21.8044C23.0353 20.9845 22.7184 20.2931 22.1563 19.8028C21.9373 19.6122 21.6877 19.4732 21.4268 19.3551C22.2512 18.3446 23.184 17.4552 24.193 16.6681C25.3344 16.4887 26.3142 15.8318 26.9152 14.8967C27.096 14.7988 27.2777 14.7032 27.4623 14.6105C27.4967 15.1292 27.6035 15.6277 27.7747 16.0971C26.7694 17.0471 26.1378 18.3879 26.1378 19.8776C26.1378 22.7492 28.4743 25.0849 31.3459 25.0849C33.2369 25.0849 34.8909 24.0684 35.8035 22.5556C36.2116 22.6042 36.6503 22.637 37.1055 22.637C39.0757 22.637 41.3292 22.0458 42.5042 19.6974C43.5573 17.5912 42.8824 16.0209 42.4787 15.0821C42.3763 14.8444 42.2366 14.5193 42.2171 14.4744C42.2261 14.4602 42.4488 14.1276 43.9923 13.6134C45.1007 13.2442 46.0522 13.0237 46.8766 12.8585C47.4364 13.0065 47.982 13.1687 48.5045 13.3488C54.717 15.4909 57.928 19.4762 57.3024 24.1446C54.7978 23.6722 48.9163 22.9943 45.6531 26.1761C43.4781 28.2973 42.9145 31.627 43.9788 36.0742C43.987 36.1071 43.996 36.1392 44.0072 36.1714L45.8145 41.5311L45.4109 41.715C42.7964 38.5422 37.415 34.4426 32.3826 37.9331C32.1823 38.0743 27.4937 41.4646 28.7673 48.1727C29.5857 52.4764 31.3078 54.481 32.4483 55.8069C33.5007 57.0327 33.6629 57.221 33.0246 58.3459C32.7189 58.8848 32.9087 59.5687 33.4469 59.8737C33.985 60.1801 34.6704 59.9902 34.9746 59.4514C36.3902 56.955 35.2504 55.6283 34.1487 54.345C33.1053 53.1304 31.6762 51.4681 30.9699 47.7534C29.9729 42.5013 33.5269 39.8719 33.6674 39.7702C38.649 36.3156 43.9392 43.4565 44.1619 43.7615C44.4751 44.192 45.0491 44.3429 45.5342 44.1217L47.6651 43.1493C48.1876 42.9109 48.4454 42.3152 48.2616 41.7711L46.1478 35.5017C45.295 31.9036 45.6545 29.3063 47.2159 27.7823C49.9761 25.0878 55.7956 26.1051 57.4466 26.4624C59.517 30.1666 61.5515 34.5801 61.4102 35.5316C60.9954 37.1385 60.6762 38.957 62.1352 40.191L62.3976 40.4055C66.9576 44.1075 67.1564 45.6024 67.1093 45.9723C67.0996 46.0441 67.0757 46.2347 66.5256 46.4866L64.7026 47.459C64.2228 47.7146 63.9963 48.2781 64.1637 48.7953C64.3827 49.4673 64.651 51.1183 64.086 51.933C63.9881 52.075 63.6884 52.507 62.6293 52.5534C62.1823 52.5728 61.7899 52.8561 61.6307 53.2739C61.4708 53.6917 61.5754 54.1641 61.8953 54.4765L64.293 56.813C64.5554 57.1201 67.2857 60.423 66.199 62.8095C65.1698 65.0682 60.7644 66.2544 53.8246 66.161C53.8186 66.161 53.8134 66.161 53.8089 66.161C53.2588 66.161 52.7894 66.5608 52.702 67.105L52.2162 70.1425C52.1183 70.7539 52.5353 71.3287 53.146 71.4266C53.2065 71.4363 53.2655 71.4408 53.3246 71.4408C53.8657 71.4408 54.3418 71.0484 54.43 70.4968L54.7634 68.4092C62.4035 68.3943 66.8156 66.8635 68.2387 63.7386C69.9936 59.8871 66.11 55.4803 65.9448 55.2942C65.9276 55.2748 65.9097 55.2568 65.8918 55.2389L64.8424 54.2157C65.3499 53.9167 65.6967 53.5452 65.9291 53.2096C66.8552 51.874 66.7274 50.1018 66.5256 49.0263L67.5174 48.4964C68.8583 47.8857 69.2447 46.9417 69.3329 46.2571ZM21.8536 12.7576C21.8536 11.8054 22.6287 11.0303 23.5817 11.0303C24.5346 11.0303 25.309 11.8054 25.309 12.7576C25.309 12.9699 25.2649 13.1709 25.1953 13.3593C24.6026 13.7068 24.0256 14.0761 23.471 14.4737C22.5704 14.4154 21.8536 13.6725 21.8536 12.7576ZM29.6874 14.2398C29.6874 14.0267 29.7105 13.819 29.7501 13.6171C31.5574 12.9475 33.4566 12.487 35.373 12.2217C35.8244 12.7748 36.1062 13.4714 36.1062 14.2398C36.1062 15.0851 35.7714 15.8497 35.2355 16.423C34.281 15.3482 32.8938 14.6665 31.3466 14.6665C30.7943 14.6665 30.2621 14.7547 29.7613 14.9154C29.715 14.6972 29.6874 14.4722 29.6874 14.2398ZM33.0276 17.4365C32.9827 17.438 32.9416 17.4499 32.8968 17.4499C32.254 17.4499 31.6576 17.2556 31.1545 16.929C31.2196 16.9252 31.2809 16.9095 31.3466 16.9095C31.9715 16.9095 32.55 17.1054 33.0276 17.4365ZM28.3816 19.8738C28.3816 19.1884 28.6245 18.5658 29.0169 18.0628C30.0058 19.0674 31.3795 19.6922 32.8975 19.6922C33.3744 19.6922 33.8341 19.6242 34.275 19.5091C34.2907 19.6302 34.3124 19.749 34.3124 19.8746C34.3124 19.9045 34.3042 19.9314 34.3034 19.9605C34.222 19.9359 34.1629 19.9172 34.1547 19.9142C33.571 19.7116 32.9312 20.0226 32.7294 20.6063C32.5306 21.1788 32.825 21.8007 33.3871 22.0167C32.8549 22.5234 32.1389 22.8396 31.3474 22.8396C29.712 22.8396 28.3816 21.5092 28.3816 19.8738ZM40.1774 13.5446C39.7693 14.4535 40.1303 15.2914 40.4196 15.9648C40.7776 16.7974 41.087 17.5172 40.4988 18.6914C39.7342 20.2214 37.9942 20.4673 36.5285 20.3649C36.5442 20.2027 36.5532 20.039 36.5532 19.8738C36.5532 19.3805 36.4792 18.9059 36.3506 18.453C37.5689 17.4522 38.3477 15.9357 38.3477 14.2398C38.3477 13.4355 38.1684 12.6746 37.8544 11.9863C39.2222 11.9115 40.5803 11.9272 41.901 12.0296C40.9809 12.4691 40.4473 12.9422 40.1774 13.5446Z" fill="#0E4271"/>
<path d="M56.1641 39.4705H58.7748C59.3937 39.4705 59.896 38.969 59.896 38.3494C59.896 37.7298 59.3937 37.2283 58.7748 37.2283H56.1641C55.5452 37.2283 55.043 37.7298 55.043 38.3494C55.043 38.969 55.5452 39.4705 56.1641 39.4705Z" fill="#0E4271"/>
</svg>
