<svg width="80" height="80" viewBox="0 0 80 80" fill="none" xmlns="http://www.w3.org/2000/svg">
<path d="M8.276 42.337C10.0132 45.454 13.0923 48.026 17.4285 49.9828C18.959 50.6721 20.536 51.2503 22.0952 51.7908C19.3226 52.8761 16.4665 53.8691 13.5306 54.755C12.4353 55.0855 11.5672 55.8836 11.15 56.9416C9.70902 60.5618 9.41333 64.6097 10.3167 68.3326C10.6385 69.7004 11.1828 70.8543 11.9377 71.7671C13.3521 73.4602 15.0427 74.0092 16.6642 74.0086C18.8856 74.0086 20.9767 72.9792 22.0456 72.4525C26.9106 70.0438 31.4457 66.9191 35.8312 63.8972C37.3684 62.838 38.9233 61.7716 40.4987 60.7274C42.0619 61.7639 43.6121 62.8261 45.1612 63.8935C49.5488 66.916 54.086 70.0417 58.9567 72.4534C60.024 72.979 62.1125 74.0085 64.3334 74.008C65.9559 74.008 67.649 73.4584 69.0651 71.7628C69.8174 70.8531 70.3623 69.6987 70.6814 68.3397C71.5862 64.6089 71.2911 60.5611 69.8512 56.9445C69.4325 55.8834 68.5639 55.0854 67.4695 54.7549C64.5074 53.8613 61.637 52.8677 58.9007 51.7915C60.4627 51.2511 62.0421 50.673 63.5717 49.9827C67.9075 48.0264 70.9865 45.4538 72.7253 42.3338C74.19 39.6859 74.3987 36.6228 73.3188 34.3894C73.3466 33.8585 73.2892 33.3106 73.0963 32.7459C72.5828 31.241 71.3873 30.3383 70.4573 29.8362C70.4283 29.6178 70.4014 29.4737 70.396 29.4488C70.3384 29.206 70.2689 28.9512 70.1963 28.7104C69.9731 27.9881 69.3691 27.4547 68.621 27.3187C68.6074 27.3162 68.5943 27.3191 68.5809 27.317C69.3505 20.4585 67.9535 15.0086 64.3719 11.141C61.1709 7.68213 57.1303 5.86868 53.013 6.00762C48.3752 6.17101 45.1727 8.66536 43.6669 10.1467C42.3931 11.4304 41.3725 12.9907 40.6387 14.7523C39.9226 13.0644 38.8714 11.5145 37.5046 10.138C36.0081 8.66576 32.8056 6.17141 28.1689 6.00802C24.0438 5.86323 20.0079 7.68239 16.809 11.1409C13.2121 15.0252 11.8178 20.4715 12.6065 27.309C12.5308 27.3144 12.4563 27.3052 12.3803 27.3191C11.6315 27.4546 11.0275 27.9879 10.8002 28.7201C10.7308 28.9515 10.6612 29.2063 10.5942 29.4927C10.5942 29.4927 10.5695 29.6262 10.5419 29.8374C9.61218 30.3396 8.418 31.2422 7.90487 32.7455C7.71226 33.3094 7.65474 33.8567 7.6821 34.3868C6.60084 36.62 6.80965 39.6842 8.276 42.337ZM67.8754 57.7281C69.155 60.9415 69.418 64.5323 68.6142 67.8458C68.3687 68.8908 67.9693 69.7532 67.4307 70.4044C65.832 72.3191 63.5785 72.3607 59.8981 70.5482C55.1664 68.2048 50.6931 65.1232 46.3667 62.1434C45.0812 61.2578 43.761 60.3562 42.4362 59.4674C45.7483 57.3554 49.1725 55.4111 52.7879 53.9637C53.7886 53.5612 54.8191 53.1949 55.8478 52.8389C59.3087 54.2979 63.0057 55.6285 66.8558 56.79C67.3243 56.9311 67.6953 57.2721 67.8754 57.7281ZM69.9732 37.2541C68.785 39.284 66.9657 41.0462 64.7113 42.3506C64.2033 42.6448 64.03 43.2949 64.3237 43.803C64.5208 44.1433 64.8779 44.3333 65.2447 44.3333C65.4253 44.3333 65.6084 44.287 65.7761 44.1906C68.3481 42.7014 70.4335 40.6746 71.8075 38.3277C71.8175 38.3106 71.8281 38.292 71.8381 38.2748C71.7132 39.3613 71.3471 40.4347 70.8672 41.3024C69.3568 44.0125 66.6083 46.281 62.6979 48.0453C60.7599 48.9196 58.6901 49.6222 56.6883 50.3014C55.143 50.8259 53.5459 51.3676 51.9966 51.9914C45.7109 54.5079 40.0752 58.3913 34.6255 62.147C30.3016 65.1264 25.8309 68.207 21.1044 70.5471C17.421 72.3606 15.1674 72.3175 13.5724 70.4086C13.0312 69.7537 12.6316 68.8919 12.3836 67.8385C11.582 64.5326 11.8455 60.942 13.1262 57.7244C13.3047 57.2719 13.6757 56.931 14.1447 56.7899C21.6016 54.5396 28.5852 51.6399 34.9011 48.1712C39.0739 45.8825 43.3885 43.5158 46.9968 40.2142C50.7292 36.8134 53.2011 32.678 54.0038 28.5077C54.0225 28.4947 54.0733 28.4641 54.1258 28.4766C54.4543 28.5534 54.7831 28.64 55.0597 28.7325C55.6087 28.9239 56.0243 29.227 56.2329 29.5907C56.4295 29.929 56.4855 30.4141 56.5297 30.9231C56.7035 32.9421 56.5982 34.9553 56.2158 36.9074C56.139 37.3002 56.289 37.7029 56.6044 37.9494C56.9189 38.1954 57.347 38.2447 57.7086 38.0744C61.708 36.2049 65.2614 33.2965 68.2019 29.4609C68.2465 29.6155 68.2885 29.7712 68.3181 29.8942C68.3233 29.9212 68.3721 30.192 68.3981 30.6004C68.4235 30.9455 68.4391 31.4711 68.3722 32.0112C68.1683 33.5673 66.5488 36.1441 63.3899 38.3929C62.9119 38.7329 62.8003 39.3965 63.1408 39.8748C63.4807 40.3528 64.1444 40.4653 64.6227 40.1239C67.7933 37.8669 70.0524 34.8716 70.4468 32.4327C70.7174 32.7066 70.9505 33.0372 71.0855 33.4324C71.4696 34.558 70.8667 35.7266 69.9732 37.2541ZM9.91624 33.432C10.0508 33.0379 10.2834 32.708 10.553 32.4347C10.9442 34.867 13.2048 37.8653 16.3774 40.124C16.8563 40.4649 17.519 40.3518 17.8593 39.875C18.1996 39.3965 18.0882 38.7334 17.6102 38.3931C14.4519 36.1442 12.8318 33.5675 12.629 32.0201C12.561 31.4675 12.577 30.9439 12.6031 30.5905C12.6275 30.2045 12.6736 29.9389 12.6721 29.9389V29.9399C12.7064 29.7957 12.7453 29.6467 12.7862 29.503C15.7843 33.334 19.3185 36.2168 23.2921 38.0744C23.6538 38.2456 24.0808 38.1963 24.3962 37.9494C24.7117 37.703 24.8616 37.3002 24.7849 36.9074C24.4024 34.9555 24.2971 32.9421 24.471 30.9226C24.5151 30.4147 24.5706 29.9305 24.7704 29.5855C24.9759 29.227 25.3915 28.924 25.927 28.7371C26.2171 28.6401 26.546 28.5534 26.8506 28.4818C26.9252 28.4652 26.9772 28.4953 27.043 28.5695C27.7995 32.678 30.2716 36.8134 34.0013 40.2117C34.5814 40.7441 35.2087 41.2765 35.8645 41.7937C36.0591 41.9473 36.2916 42.0221 36.5219 42.0221C36.8358 42.0221 37.1472 41.8835 37.3568 41.6173C37.72 41.1565 37.6412 40.4883 37.1804 40.1251C36.5655 39.64 35.9792 39.1424 35.4348 38.6432C32.044 35.5537 29.806 31.839 29.132 28.1779C29.0188 27.5864 28.679 27.0752 28.1741 26.739C27.6624 26.3982 27.0201 26.2752 26.3896 26.4075C25.9958 26.4998 25.6025 26.6051 25.2409 26.7256C24.2084 27.0857 23.3859 27.726 22.9288 28.524C22.5121 29.2432 22.4162 30.0138 22.3539 30.7408C22.2246 32.2382 22.2355 33.7342 22.386 35.2094C19.645 33.6314 17.1541 31.4756 14.9471 28.7893C14.8984 28.5287 14.8535 28.2659 14.815 28.0027C13.8566 21.3537 15.0521 16.1665 18.3694 12.5852C21.1407 9.58763 24.5913 7.9988 28.0932 8.13257C32.0118 8.27058 34.738 10.3981 36.0051 11.6448C37.1715 12.8196 38.0722 14.1448 38.6773 15.5707C39.0099 16.3827 39.7862 16.9073 40.6563 16.9073H40.6604C41.516 16.9052 42.2772 16.3874 42.5979 15.5945C43.231 14.0591 44.098 12.7303 45.1664 11.6536C46.4428 10.3979 49.1691 8.27045 53.0887 8.13243C56.5819 7.9996 60.0386 9.58843 62.812 12.585C67.7803 17.9503 66.7249 25.5058 66.3798 27.9793L66.3352 28.2667C66.3242 28.3406 66.3099 28.4138 66.2979 28.4876C64.0314 31.3149 61.4571 33.5728 58.6142 35.2094C58.7647 33.7343 58.7756 32.2383 58.6464 30.7402C58.5835 30.0123 58.4871 29.2412 58.0736 28.5288C57.6133 27.7256 56.7909 27.0853 55.7459 26.7211C55.3983 26.6054 55.0039 26.5 54.5863 26.4025C53.9803 26.2738 53.3383 26.3979 52.8257 26.7393C52.3208 27.0755 51.981 27.5866 51.8668 28.1849C51.1944 31.8394 48.9564 35.5536 45.5634 38.6451C42.1424 41.7759 37.9415 44.0798 33.8781 46.3084C31.078 47.8462 28.1364 49.2637 25.0837 50.5665L24.3364 50.3116C22.3278 49.6292 20.2512 48.9236 18.3018 48.0456C14.391 46.2809 11.6424 44.0123 10.1341 41.3058C9.65296 40.4355 9.28621 39.3598 9.16161 38.2718C9.1725 38.2902 9.18366 38.3102 9.19442 38.3285C10.5679 40.6749 12.6533 42.7017 15.2253 44.1909C15.393 44.2874 15.5762 44.3335 15.7567 44.3335C16.1236 44.3335 16.4805 44.1436 16.6777 43.8033C16.9714 43.2953 16.7981 42.6451 16.2901 42.3508C14.0355 41.0464 12.2164 39.2842 11.0287 37.2549C10.1346 35.7266 9.53168 34.558 9.91624 33.432Z" fill="#0E4271"/>
<path d="M62.0757 23.6438C62.0191 24.0283 61.9377 24.4076 61.8339 24.7713C61.6731 25.3353 62.0005 25.9237 62.565 26.0846C62.662 26.1121 62.7602 26.1256 62.8566 26.1256C63.3194 26.1256 63.745 25.8205 63.8782 25.3536C64.0069 24.9007 64.108 24.4295 64.1782 23.9531C64.2638 23.3725 63.8622 22.8328 63.2815 22.7473C62.7046 22.662 62.1614 23.0626 62.0757 23.6438Z" fill="#0E4271"/>
<path d="M54.7583 13.3444C57.2307 13.8062 59.4973 15.3576 60.821 17.4954C61.263 18.2099 61.604 18.9939 61.8344 19.8262C61.9645 20.2969 62.3921 20.6056 62.8581 20.6056C62.952 20.6056 63.0475 20.5926 63.1425 20.5667C63.7081 20.4099 64.0397 19.8247 63.8829 19.2585C63.5985 18.2321 63.1762 17.263 62.6278 16.3767C60.9948 13.7393 58.1986 11.8245 55.1486 11.2553C54.5669 11.1458 54.0164 11.5282 53.909 12.1047C53.801 12.6816 54.1813 13.2369 54.7583 13.3444Z" fill="#0E4271"/>
</svg>
