<svg width="80" height="80" viewBox="0 0 80 80" fill="none" xmlns="http://www.w3.org/2000/svg">
<path d="M58.5417 49.8126L47.025 46.2132V44.2793C50.376 42.5275 52.9088 39.5343 54.0818 35.9395H54.7871C55.9635 35.9395 57.0916 35.4722 57.9235 34.6404C58.7553 33.8086 59.2226 32.6804 59.2226 31.504C59.2226 30.3277 58.7553 29.1995 57.9235 28.3677C57.0916 27.5359 55.9635 27.0685 54.7871 27.0685V21.9422C56.8074 20.7758 58.4856 19.0987 59.6534 17.0791C60.8211 15.0595 61.4373 12.7684 61.4403 10.4355V7.10887C61.4403 6.90294 61.383 6.70108 61.2747 6.5259C61.1664 6.35073 61.0115 6.20916 60.8274 6.11707C60.6432 6.02497 60.437 5.98599 60.2319 6.00448C60.0268 6.02297 59.8309 6.09822 59.6661 6.22177C57.047 8.19143 53.7708 9.07839 50.5157 8.69899L37.2813 7.17208C35.0564 6.91601 32.8027 7.21263 30.7199 8.03565C28.637 8.85868 26.7892 10.1827 25.3403 11.8904C23.8914 13.5982 22.886 15.6369 22.4132 17.826C21.9404 20.0151 22.0148 22.287 22.6298 24.4405L23.5812 27.7727C22.7712 28.2864 22.1499 29.0494 21.8108 29.9467C21.4717 30.844 21.4332 31.8272 21.7011 32.7483C21.969 33.6694 22.5288 34.4786 23.2962 35.0541C24.0636 35.6296 24.9972 35.9403 25.9564 35.9395H26.6617C27.8348 39.5343 30.3675 42.5275 33.7185 44.2793V46.2132L22.2018 49.8126C20.3942 50.3708 18.8136 51.4948 17.6929 53.019C16.5722 54.5432 15.9705 56.387 15.9766 58.2788V73.6411C15.9766 73.9352 16.0934 74.2173 16.3014 74.4252C16.5093 74.6332 16.7914 74.75 17.0855 74.75H63.6581C63.9522 74.75 64.2342 74.6332 64.4422 74.4252C64.6501 74.2173 64.7669 73.9352 64.7669 73.6411V58.2788C64.773 56.387 64.1714 54.5432 63.0507 53.019C61.9299 51.4948 60.3494 50.3708 58.5417 49.8126ZM47.8966 48.808L46.3242 54.3091L42.2424 52.2688L46.2255 48.2868L47.8966 48.808ZM57.0048 31.504C57.0048 32.0922 56.7712 32.6563 56.3553 33.0722C55.9394 33.4881 55.3753 33.7218 54.7871 33.7218H54.5986C54.7182 32.9885 54.7813 32.247 54.7871 31.504V29.2863C55.3753 29.2863 55.9394 29.5199 56.3553 29.9359C56.7712 30.3518 57.0048 30.9159 57.0048 31.504ZM24.76 23.8306C24.2447 22.0277 24.1822 20.1254 24.5779 18.2925C24.9737 16.4595 25.8155 14.7525 27.0288 13.3228C28.2421 11.893 29.7893 10.7846 31.5334 10.0959C33.2775 9.40714 35.1646 9.15928 37.0274 9.3743L50.2618 10.9012C53.359 11.2654 56.4925 10.6508 59.2226 9.14365V10.4355C59.2193 13.3754 58.05 16.194 55.9712 18.2728C53.8924 20.3517 51.0738 21.521 48.1339 21.5242H41.3553C43.1518 20.1794 44.6541 18.4813 45.7698 16.5343L43.8448 15.4254C42.5924 17.6123 40.7854 19.4302 38.6061 20.6957C36.4267 21.9612 33.9522 22.6294 31.4321 22.6331H27.0653C26.7712 22.6331 26.4892 22.7499 26.2812 22.9578C26.0733 23.1658 25.9564 23.4478 25.9564 23.7419V27.0685C25.8655 27.0685 25.7812 27.0896 25.6925 27.0952L24.76 23.8306ZM25.9564 33.7218C25.3683 33.7218 24.8042 33.4881 24.3883 33.0722C23.9724 32.6563 23.7387 32.0922 23.7387 31.504C23.7387 30.9159 23.9724 30.3518 24.3883 29.9359C24.8042 29.5199 25.3683 29.2863 25.9564 29.2863V31.504C25.9623 32.247 26.0253 32.9885 26.145 33.7218H25.9564ZM28.1742 31.504V24.8508H31.4321C33.4543 24.8475 35.4586 24.4716 37.3446 23.7419H48.1339C49.6459 23.7388 51.1461 23.4762 52.5694 22.9657V31.504C52.5694 34.739 51.2843 37.8415 48.9968 40.129C46.7093 42.4165 43.6068 43.7016 40.3718 43.7016C37.1368 43.7016 34.0343 42.4165 31.7468 40.129C29.4593 37.8415 28.1742 34.739 28.1742 31.504ZM40.3718 45.9194C41.8781 45.9186 43.3749 45.6806 44.8073 45.2141V46.5692L40.3718 51.0046L35.9363 46.5692V45.2141C37.3686 45.6806 38.8654 45.9186 40.3718 45.9194ZM34.5169 48.2868L38.5 52.2688L34.4182 54.3091L32.8459 48.8024L34.5169 48.2868ZM18.1944 58.2788C18.1899 56.86 18.6411 55.4771 19.4815 54.3339C20.3219 53.1907 21.5071 52.3475 22.8627 51.9283L30.7246 49.4677L32.6485 56.2008C32.6931 56.3576 32.7717 56.5027 32.8788 56.6257C32.9858 56.7486 33.1187 56.8465 33.2679 56.9123C33.4171 56.978 33.5789 57.0101 33.7419 57.0061C33.9049 57.0022 34.065 56.9623 34.2109 56.8894L39.2629 54.3667V72.5323H25.9564V62.5524H23.7387V72.5323H18.1944V58.2788ZM62.5492 72.5323H57.0048V62.5524H54.7871V72.5323H41.4806V54.3667L46.5293 56.8972C46.6838 56.972 46.8534 57.0099 47.025 57.0081C47.2662 57.0081 47.5008 56.9296 47.6933 56.7843C47.8858 56.639 48.0257 56.435 48.0917 56.203L50.0189 49.4677L57.8842 51.9261C59.2395 52.3459 60.4242 53.1898 61.264 54.3334C62.1038 55.477 62.5543 56.86 62.5492 58.2788V72.5323Z" fill="#0E4271"/>
<path d="M42.5907 40.3749H44.8085C44.8085 39.1986 44.3412 38.0704 43.5093 37.2386C42.6775 36.4068 41.5493 35.9395 40.373 35.9395C39.1966 35.9395 38.0684 36.4068 37.2366 37.2386C36.4048 38.0704 35.9375 39.1986 35.9375 40.3749H38.1552C38.1552 39.7868 38.3889 39.2227 38.8048 38.8068C39.2207 38.3908 39.7848 38.1572 40.373 38.1572C40.9612 38.1572 41.5253 38.3908 41.9412 38.8068C42.3571 39.2227 42.5907 39.7868 42.5907 40.3749Z" fill="#0E4271"/>
<path d="M51.4613 60.3347H44.8081C44.514 60.3347 44.232 60.4515 44.024 60.6595C43.816 60.8675 43.6992 61.1495 43.6992 61.4436V66.9879C43.6994 67.2206 43.7727 67.4473 43.9088 67.6359C44.045 67.8246 44.237 67.9656 44.4577 68.0392L47.7843 69.148C48.0116 69.2249 48.2578 69.2249 48.4851 69.148L51.8117 68.0392C52.0324 67.9656 52.2244 67.8246 52.3606 67.6359C52.4967 67.4473 52.57 67.2206 52.5702 66.9879V61.4436C52.5702 61.1495 52.4534 60.8675 52.2454 60.6595C52.0375 60.4515 51.7554 60.3347 51.4613 60.3347ZM50.3524 66.1884L48.1347 66.9281L45.917 66.1884V62.5525H50.3524V66.1884Z" fill="#0E4271"/>
<path d="M24.9866 38.1574C22.0406 38.1572 19.1057 37.796 16.2476 37.0818L15.7109 39.233C18.7446 39.991 21.8597 40.3745 24.9866 40.3751V38.1574Z" fill="#0E4271"/>
<path d="M16.2476 45.8861C19.1057 45.1719 22.0406 44.8107 24.9866 44.8105V42.5928C21.8597 42.5934 18.7446 42.9769 15.7109 43.7349L16.2476 45.8861Z" fill="#0E4271"/>
<path d="M19.3023 47.0283H17.0846C17.088 47.5176 16.9834 48.0016 16.7783 48.4458C16.5732 48.89 16.2727 49.2835 15.8981 49.5983C15.5235 49.9131 15.0841 50.1413 14.6112 50.2668C14.1383 50.3923 13.6435 50.4119 13.1621 50.3243C12.6808 50.2366 12.2247 50.0439 11.8263 49.7598C11.428 49.4756 11.0972 49.1072 10.8576 48.6806C10.618 48.254 10.4755 47.7798 10.4401 47.2918C10.4048 46.8038 10.4775 46.314 10.6531 45.8574C10.7511 45.5982 10.7486 45.3118 10.6459 45.0544C10.5433 44.7971 10.3481 44.5875 10.0987 44.4668C9.53338 44.1998 9.0556 43.7777 8.721 43.2496C8.3864 42.7215 8.20875 42.1092 8.20875 41.484C8.20875 40.8588 8.3864 40.2465 8.721 39.7184C9.0556 39.1903 9.53338 38.7681 10.0987 38.5011C10.3481 38.3805 10.5433 38.1709 10.6459 37.9135C10.7486 37.6562 10.7511 37.3697 10.6531 37.1106C10.4775 36.6539 10.4048 36.1641 10.4401 35.6761C10.4755 35.1881 10.618 34.7139 10.8576 34.2874C11.0972 33.8608 11.428 33.4923 11.8263 33.2082C12.2247 32.9241 12.6808 32.7313 13.1621 32.6437C13.6435 32.5561 14.1383 32.5757 14.6112 32.7012C15.0841 32.8266 15.5235 33.0549 15.8981 33.3697C16.2727 33.6844 16.5732 34.0779 16.7783 34.5221C16.9834 34.9664 17.088 35.4504 17.0846 35.9396H19.3023C19.3023 34.4692 18.7182 33.0589 17.6784 32.0192C16.6386 30.9794 15.2284 30.3953 13.7579 30.3953C12.2875 30.3953 10.8773 30.9794 9.83749 32.0192C8.79772 33.0589 8.21359 34.4692 8.21359 35.9396C8.21549 36.291 8.25264 36.6413 8.32447 36.9853C7.6059 37.495 7.01987 38.1694 6.61546 38.9521C6.21104 39.7348 6 40.603 6 41.484C6 42.365 6.21104 43.2332 6.61546 44.0158C7.01987 44.7985 7.6059 45.473 8.32447 45.9827C8.25264 46.3266 8.21549 46.6769 8.21359 47.0283C8.21359 48.4988 8.79772 49.909 9.83749 50.9488C10.8773 51.9885 12.2875 52.5727 13.7579 52.5727C15.2284 52.5727 16.6386 51.9885 17.6784 50.9488C18.7182 49.909 19.3023 48.4988 19.3023 47.0283Z" fill="#0E4271"/>
<path d="M64.5007 37.0818C61.6426 37.796 58.7077 38.1572 55.7617 38.1574V40.3751C58.8887 40.3745 62.0037 39.991 65.0374 39.233L64.5007 37.0818Z" fill="#0E4271"/>
<path d="M55.7617 44.8105C58.7077 44.8107 61.6426 45.1719 64.5007 45.8861L65.0374 43.7349C62.0037 42.9769 58.8887 42.5934 55.7617 42.5928V44.8105Z" fill="#0E4271"/>
<path d="M72.4192 36.9853C72.4911 36.6413 72.5282 36.291 72.5301 35.9396C72.5301 34.4692 71.946 33.0589 70.9062 32.0192C69.8664 30.9794 68.4562 30.3953 66.9858 30.3953C65.5153 30.3953 64.1051 30.9794 63.0653 32.0192C62.0255 33.0589 61.4414 34.4692 61.4414 35.9396H63.6591C63.6557 35.4504 63.7603 34.9664 63.9654 34.5221C64.1705 34.0779 64.471 33.6844 64.8456 33.3697C65.2202 33.0549 65.6596 32.8266 66.1325 32.7012C66.6054 32.5757 67.1002 32.5561 67.5816 32.6437C68.0629 32.7313 68.519 32.9241 68.9174 33.2082C69.3157 33.4923 69.6465 33.8608 69.8861 34.2874C70.1257 34.7139 70.2682 35.1881 70.3036 35.6761C70.339 36.1641 70.2662 36.6539 70.0906 37.1106C69.9926 37.3697 69.9952 37.6562 70.0978 37.9135C70.2004 38.1709 70.3956 38.3805 70.645 38.5011C71.2103 38.7681 71.6881 39.1903 72.0227 39.7184C72.3573 40.2465 72.535 40.8588 72.535 41.484C72.535 42.1092 72.3573 42.7215 72.0227 43.2496C71.6881 43.7777 71.2103 44.1998 70.645 44.4668C70.3956 44.5875 70.2004 44.7971 70.0978 45.0544C69.9952 45.3118 69.9926 45.5982 70.0906 45.8574C70.2662 46.314 70.339 46.8038 70.3036 47.2918C70.2682 47.7798 70.1257 48.254 69.8861 48.6806C69.6465 49.1072 69.3157 49.4756 68.9174 49.7598C68.519 50.0439 68.0629 50.2366 67.5816 50.3243C67.1002 50.4119 66.6054 50.3923 66.1325 50.2668C65.6596 50.1413 65.2202 49.9131 64.8456 49.5983C64.471 49.2835 64.1705 48.89 63.9654 48.4458C63.7603 48.0016 63.6557 47.5176 63.6591 47.0283H61.4414C61.4414 48.4988 62.0255 49.909 63.0653 50.9488C64.1051 51.9885 65.5153 52.5727 66.9858 52.5727C68.4562 52.5727 69.8664 51.9885 70.9062 50.9488C71.946 49.909 72.5301 48.4988 72.5301 47.0283C72.5282 46.6769 72.4911 46.3266 72.4192 45.9827C73.1378 45.473 73.7238 44.7985 74.1282 44.0158C74.5327 43.2332 74.7437 42.365 74.7437 41.484C74.7437 40.603 74.5327 39.7348 74.1282 38.9521C73.7238 38.1694 73.1378 37.495 72.4192 36.9853Z" fill="#0E4271"/>
<path d="M47.6385 27.1861L43.2031 29.4038L44.1949 31.3874L48.6303 29.1697L47.6385 27.1861Z" fill="#0E4271"/>
<path d="M33.1051 27.1858L32.1133 29.1694L36.5486 31.3871L37.5404 29.4035L33.1051 27.1858Z" fill="#0E4271"/>
</svg>
