<svg width="80" height="80" viewBox="0 0 80 80" fill="none" xmlns="http://www.w3.org/2000/svg">
<path d="M12.4404 36.3153H13.0299L18.1102 41.3956C18.3199 41.6052 18.6009 41.7172 18.8863 41.7172C19.0279 41.7172 19.1706 41.6897 19.3067 41.6338C19.7173 41.4636 19.984 41.0629 19.984 40.6195V36.3153H32.6606C35.5103 36.3153 37.8276 33.998 37.8276 31.1483V27.3666H59.0938V31.7246C59.0938 32.1681 59.3617 32.5687 59.7711 32.7389C59.9073 32.7949 60.05 32.8223 60.1916 32.8223C60.477 32.8223 60.758 32.7103 60.9677 32.5007L66.1017 27.3666H66.9624C70.3675 27.3666 73.1371 24.597 73.1371 21.1919V13.4474C73.1371 10.0423 70.3675 7.27271 66.9624 7.27271H32.8593C29.4541 7.27271 26.6845 10.0423 26.6845 13.4474V16.2214H12.4404C9.59074 16.2214 7.27344 18.5387 7.27344 21.3884V31.1472C7.27344 33.9969 9.59074 36.3142 12.4404 36.3142V36.3153ZM28.88 13.4474C28.88 11.2531 30.6649 9.46816 32.8593 9.46816H66.9624C69.1567 9.46816 70.9416 11.2531 70.9416 13.4474V21.1897C70.9416 23.384 69.1567 25.169 66.9624 25.169H65.6473C65.3553 25.169 65.0765 25.2842 64.8712 25.4906L61.2893 29.0725V26.2667C61.2893 25.6607 60.7986 25.169 60.1916 25.169H37.8276V21.3873C37.8276 18.5376 35.5103 16.2203 32.6606 16.2203H28.88V13.4474ZM9.46889 21.3884C9.46889 19.7495 10.8026 18.4168 12.4404 18.4168H32.6606C34.2984 18.4168 35.6321 19.7495 35.6321 21.3884V31.1472C35.6321 32.7861 34.2984 34.1187 32.6606 34.1187H18.8863C18.2793 34.1187 17.7886 34.6105 17.7886 35.2164V37.9684L14.2605 34.4404C14.0541 34.234 13.7764 34.1187 13.4844 34.1187H12.4404C10.8026 34.1187 9.46889 32.7861 9.46889 31.1472V21.3884Z" fill="#0E4271"/>
<path d="M34.4524 46.3089C34.4524 42.3373 31.2217 39.1067 27.2491 39.1067C23.2764 39.1067 20.0469 42.3373 20.0469 46.3089C20.0469 50.2805 23.2775 53.5111 27.2491 53.5111C31.2206 53.5111 34.4524 50.2805 34.4524 46.3089ZM22.2434 46.3089C22.2434 43.5481 24.4894 41.3021 27.2502 41.3021C30.0109 41.3021 32.258 43.5481 32.258 46.3089C32.258 49.0697 30.012 51.3156 27.2502 51.3156C24.4883 51.3156 22.2434 49.0697 22.2434 46.3089Z" fill="#0E4271"/>
<path d="M15.5234 64.7037V72.0387C15.5234 72.6446 16.0141 73.1364 16.6212 73.1364H37.8786C38.4857 73.1364 38.9764 72.6446 38.9764 72.0387V64.7037C38.9764 59.1821 34.4845 54.6902 28.9629 54.6902H25.5369C20.0153 54.6902 15.5234 59.1821 15.5234 64.7037ZM25.5369 56.8856H28.9629C33.2737 56.8856 36.7809 60.3929 36.7809 64.7037V70.9409H17.7189V64.7037C17.7189 60.3929 21.2261 56.8856 25.5369 56.8856Z" fill="#0E4271"/>
<path d="M61.055 46.3089C61.055 42.3373 57.8244 39.1067 53.8517 39.1067C49.879 39.1067 46.6484 42.3373 46.6484 46.3089C46.6484 50.2805 49.879 53.5111 53.8517 53.5111C57.8244 53.5111 61.055 50.2805 61.055 46.3089ZM48.845 46.3089C48.845 43.5481 51.0909 41.3021 53.8528 41.3021C56.6147 41.3021 58.8607 43.5481 58.8607 46.3089C58.8607 49.0697 56.6147 51.3156 53.8528 51.3156C51.0909 51.3156 48.845 49.0697 48.845 46.3089Z" fill="#0E4271"/>
<path d="M42.125 64.7037V72.0387C42.125 72.6446 42.6157 73.1364 43.2227 73.1364H64.4802C65.0873 73.1364 65.5779 72.6446 65.5779 72.0387V64.7037C65.5779 59.1821 61.086 54.6902 55.5645 54.6902H52.1385C46.6169 54.6902 42.125 59.1821 42.125 64.7037ZM52.1385 56.8856H55.5645C59.8753 56.8856 63.3825 60.3929 63.3825 64.7037V70.9409H44.3205V64.7037C44.3205 60.3929 47.8277 56.8856 52.1385 56.8856Z" fill="#0E4271"/>
<path d="M16.4977 27.0539C17.1048 27.0539 17.5955 26.5621 17.5955 25.9561C17.5955 25.3502 17.1048 24.8584 16.4977 24.8584H16.4868C15.8808 24.8584 15.3945 25.3502 15.3945 25.9561C15.3945 26.5621 15.8918 27.0539 16.4977 27.0539Z" fill="#0E4271"/>
<path d="M22.572 27.0539C23.179 27.0539 23.6697 26.5621 23.6697 25.9561C23.6697 25.3502 23.179 24.8584 22.572 24.8584H22.561C21.955 24.8584 21.4688 25.3502 21.4688 25.9561C21.4688 26.5621 21.966 27.0539 22.572 27.0539Z" fill="#0E4271"/>
<path d="M28.6462 27.0539C29.2532 27.0539 29.7439 26.5621 29.7439 25.9561C29.7439 25.3502 29.2532 24.8584 28.6462 24.8584H28.6352C28.0293 24.8584 27.543 25.3502 27.543 25.9561C27.543 26.5621 28.0402 27.0539 28.6462 27.0539Z" fill="#0E4271"/>
</svg>
