<svg width="80" height="80" viewBox="0 0 80 80" fill="none" xmlns="http://www.w3.org/2000/svg">
<path d="M20.2228 11.3109C19.9904 10.9084 20.1284 10.3938 20.5307 10.1615C20.9332 9.92921 21.4479 10.0671 21.6802 10.4694L27.2787 20.1665C27.5111 20.569 27.3731 21.0835 26.9707 21.3159C26.8382 21.3923 26.6935 21.4288 26.5509 21.4288C26.26 21.4288 25.9771 21.2779 25.8213 21.0079L20.2228 11.3109ZM36.0616 18.88C36.5263 18.88 36.9031 18.5032 36.9031 18.0385V6.84146C36.9031 6.37684 36.5263 6 36.0616 6C35.597 6 35.2202 6.37684 35.2202 6.84146V18.0385C35.2202 18.5032 35.5969 18.88 36.0616 18.88ZM9.46943 22.6803L19.1665 28.2789C19.299 28.3554 19.4437 28.3918 19.5863 28.3918C19.8772 28.3918 20.1601 28.2409 20.3159 27.9709C20.5483 27.5684 20.4103 27.0538 20.0079 26.8215L10.3109 21.2229C9.90854 20.991 9.39384 21.1284 9.16146 21.5309C8.92907 21.9332 9.06707 22.4478 9.46943 22.6803ZM5.84146 37.903H17.0385C17.5032 37.903 17.88 37.5261 17.88 37.0615C17.88 36.5969 17.5032 36.22 17.0385 36.22H5.84146C5.37684 36.22 5 36.5969 5 37.0615C5 37.5261 5.3767 37.903 5.84146 37.903ZM42.9384 62.1199C42.4737 62.1199 42.0969 62.4967 42.0969 62.9613V74.1585C42.0969 74.6232 42.4737 75 42.9384 75C43.403 75 43.7798 74.6232 43.7798 74.1585V62.9613C43.7798 62.4967 43.4031 62.1199 42.9384 62.1199ZM69.5306 58.3197L59.8335 52.7211C59.4312 52.4892 58.9165 52.6266 58.6841 53.0291C58.4517 53.4316 58.5897 53.9462 58.9921 54.1785L68.6891 59.7771C68.8216 59.8535 68.9664 59.89 69.1091 59.89C69.3999 59.89 69.6827 59.7391 69.8387 59.4691C70.0709 59.0666 69.9331 58.5521 69.5306 58.3197ZM53.1787 59.9919C52.9463 59.5896 52.4316 59.4519 52.0292 59.684C51.6267 59.9163 51.4889 60.4309 51.7213 60.8334L57.3198 70.5306C57.4756 70.8005 57.7585 70.9514 58.0494 70.9514C58.1921 70.9514 58.3369 70.915 58.4694 70.8385C58.8719 70.6062 59.0098 70.0916 58.7774 69.6891L53.1787 59.9919ZM73.1585 43.0969H61.9615C61.4968 43.0969 61.12 43.4737 61.12 43.9384C61.12 44.403 61.4968 44.7798 61.9615 44.7798H73.1585C73.6232 44.7798 74 44.403 74 43.9384C74 43.4737 73.6233 43.0969 73.1585 43.0969ZM42.3517 54.1849L32.6004 63.936C31.356 65.1807 29.5745 65.7334 27.8342 65.4155C26.8963 65.2435 26.0447 65.5096 25.3708 66.1833L23.9779 67.5763C24.913 68.8619 24.8048 70.6754 23.6461 71.8341L21.4642 74.0161C20.8442 74.6362 20.018 74.9776 19.138 74.9776C18.258 74.9776 17.4319 74.6361 16.8119 74.0161L5.98395 63.1881C4.70128 61.9054 4.70128 59.8185 5.98395 58.5359L8.16587 56.354C8.78588 55.7339 9.61206 55.3925 10.4921 55.3925C11.1978 55.3925 11.8686 55.6125 12.4265 56.0194L13.8166 54.6293C14.4906 53.9553 14.7561 53.1034 14.5845 52.1659C14.2616 50.4001 14.8371 48.6264 16.1638 47.2997L21.1627 42.3009C22.1661 41.2977 23.6614 41.0844 24.878 41.6539L29.2682 37.2636C30.5484 35.9834 32.6311 35.9834 33.9113 37.2635C34.7642 38.1164 35.0488 39.3259 34.7651 40.4167C35.4833 40.4958 36.1787 40.8104 36.7247 41.3562C37.5782 42.2099 37.8627 43.4206 37.5778 44.512C38.2959 44.5904 38.9919 44.903 39.5381 45.4492C40.1563 46.0674 40.4967 46.8919 40.4967 47.7709C40.4967 48.0563 40.4608 48.336 40.3911 48.6048C41.1092 48.6832 41.8055 48.9958 42.3516 49.5421C43.6319 50.822 43.6319 52.9047 42.3517 54.1849ZM36.0991 46.6252L33.1024 49.6219C33.3354 49.9264 33.4628 50.2952 33.4615 50.6834C33.4601 51.1508 33.275 51.5901 32.9407 51.9203C32.4605 52.3945 31.8388 52.9378 31.0566 53.2649C31.1304 53.4055 31.2239 53.5359 31.3377 53.6497C31.9616 54.2734 32.9768 54.2736 33.6009 53.6497L38.3483 48.9022C38.6487 48.6018 38.8141 48.2 38.8141 47.7707C38.8141 47.3414 38.6487 46.9393 38.3483 46.639C37.7318 46.0227 36.7229 46.0165 36.0991 46.6252ZM33.3593 42.4648C33.039 42.7916 32.7125 43.1293 32.3739 43.4792C31.4888 44.3943 30.5796 45.3329 29.6835 46.1785L31.9246 48.4196L35.5347 44.8093C36.1587 44.1853 36.1587 43.1701 35.5347 42.546C34.9433 41.9548 33.9912 41.9202 33.3593 42.4648ZM26.2084 42.7032L28.493 44.9879C29.3733 44.1595 30.2808 43.2226 31.1642 42.3093C31.7041 41.7513 32.2139 41.2239 32.7213 40.7167C33.3453 40.0929 33.3453 39.0775 32.7213 38.4534C32.0974 37.8296 31.082 37.8298 30.4582 38.4536L26.2084 42.7032ZM22.456 68.3717L11.6282 57.5438C11.315 57.2307 10.9036 57.074 10.492 57.074C10.0805 57.074 9.669 57.2305 9.35583 57.5438L7.17392 59.7258C6.54745 60.3522 6.54745 61.3715 7.17392 61.9981L18.0019 72.8261C18.3041 73.1282 18.7076 73.2948 19.138 73.2948C19.5684 73.2948 19.972 73.1282 20.2742 72.8261L22.4562 70.6442C23.0825 70.0177 23.0825 68.9983 22.456 68.3717ZM34.3895 59.7671C33.865 59.6204 33.3706 59.3422 32.961 58.9324C32.3428 58.3143 32.0024 57.4898 32.0024 56.6109C32.0024 56.3265 32.038 56.0477 32.1073 55.7799C31.391 55.701 30.6958 55.3876 30.1477 54.8395C29.784 54.4759 29.516 54.0333 29.3569 53.5507C28.3541 53.4794 27.3425 52.9932 26.3353 52.0951C26.2707 53.3386 25.7555 54.4987 24.8685 55.3858C24.5399 55.7144 24.0071 55.7142 23.6785 55.3856C23.3499 55.057 23.3499 54.5243 23.6785 54.1958C24.311 53.5632 24.6594 52.7223 24.6594 51.8276C24.6594 50.9332 24.311 50.0923 23.6785 49.4598V49.4596C23.3499 49.131 23.3499 48.5982 23.6785 48.2698C24.0071 47.9411 24.5399 47.9412 24.8685 48.2697V48.2698L27.1292 50.5305C29.3406 52.7417 30.6781 51.7895 31.758 50.7229C31.763 50.718 31.7785 50.7026 31.7785 50.6782C31.7786 50.6562 31.767 50.642 31.7583 50.6333L24.6158 43.4907C23.9918 42.8669 22.9766 42.867 22.3527 43.4908L17.3538 48.4896C16.4238 49.4197 16.0178 50.6492 16.2398 51.8631C16.5115 53.3473 16.0734 54.7524 15.0065 55.8193L13.6449 57.1809L22.8193 66.3552L24.1809 64.9936C25.2477 63.9266 26.6528 63.4891 28.1372 63.7602C29.3332 63.9789 30.5569 63.5999 31.4104 62.7463L34.3895 59.7671ZM41.1618 50.7319C40.5454 50.1155 39.5367 50.1094 38.9129 50.7175V50.7173L34.7908 54.8397C34.7842 54.8462 34.7776 54.8528 34.771 54.8593L34.151 55.4793C33.8506 55.7797 33.6852 56.1817 33.6852 56.6109C33.6852 57.0402 33.8506 57.4422 34.151 57.7423C34.7675 58.3588 35.7765 58.365 36.4002 57.7562V57.7563L41.1616 52.995C41.7857 52.3711 41.7857 51.3557 41.1618 50.7319ZM53.185 43.3517C52.5449 43.9917 51.7042 44.3118 50.8634 44.3118C50.0226 44.3118 49.182 43.9919 48.5419 43.3519C47.9958 42.8057 47.6832 42.1094 47.6048 41.3914C46.5132 41.6761 45.3027 41.3918 44.4491 40.5383C43.903 39.992 43.5904 39.2959 43.512 38.5778C42.4203 38.8625 41.21 38.5782 40.3563 37.7246C39.8102 37.1786 39.4958 36.483 39.4167 35.7648C39.1487 35.8339 38.8699 35.8697 38.5852 35.8697C37.7063 35.8697 36.8818 35.5292 36.2636 34.911C35.6454 34.2929 35.305 33.4685 35.3049 32.5895C35.3049 31.7106 35.6453 30.8861 36.2635 30.2679L40.6507 25.8807C40.4487 25.4497 40.342 24.9753 40.342 24.4839C40.342 23.605 40.6825 22.7805 41.3007 22.1623L46.2994 17.1636C47.6264 15.8366 49.4005 15.2616 51.1658 15.5841C52.1032 15.7562 52.9551 15.4902 53.6292 14.816L55.0221 13.4233C54.087 12.1376 54.1952 10.3241 55.3539 9.16545L57.5358 6.98353C58.1558 6.36337 58.982 6.02202 59.8619 6.02202C60.7418 6.02202 61.5679 6.36351 62.188 6.98353L73.0159 17.8113C74.2986 19.094 74.2986 21.181 73.0159 22.4637L70.834 24.6456C70.1927 25.2869 69.3502 25.6075 68.5079 25.6075C67.8281 25.6075 67.1503 25.395 66.5762 24.9775L65.1834 26.3704C64.5094 27.0444 64.2439 27.8963 64.4155 28.8337C64.7338 30.5737 64.1807 32.3555 62.9363 33.6L53.185 43.3517ZM56.544 12.6282L67.3719 23.4562C67.9984 24.0826 69.0178 24.0826 69.6442 23.4562L71.8261 21.2742C72.4525 20.6476 72.4525 19.6283 71.8261 19.0017L60.9981 8.17392C60.6959 7.87184 60.2924 7.70523 59.862 7.70523C59.4316 7.70523 59.0281 7.87184 58.7259 8.17392L56.544 10.3558C55.9177 10.9822 55.9177 12.0016 56.544 12.6282ZM42.0251 24.4841C42.0251 24.9136 42.1906 25.3154 42.4908 25.6158L49.6333 32.7584C49.642 32.7671 49.656 32.7786 49.6779 32.7786H49.6781C49.7026 32.7786 49.7179 32.7632 49.7228 32.7581C50.7892 31.6781 51.7417 30.3406 49.5304 28.1292L47.2697 25.8686C46.9411 25.54 46.9411 25.0071 47.2697 24.6787C47.5982 24.3499 48.131 24.3501 48.4596 24.6785C49.7654 25.9843 51.89 25.9843 53.1957 24.6785C53.5243 24.3501 54.057 24.3499 54.3856 24.6787C54.7142 25.0073 54.7142 25.54 54.3856 25.8686C53.4719 26.7822 52.2916 27.2702 51.0928 27.3329C51.9922 28.3409 52.479 29.3533 52.5505 30.3567C53.0333 30.5159 53.476 30.7839 53.8397 31.1477C54.3722 31.6802 54.6987 32.366 54.7787 33.1076C55.047 33.0383 55.326 33.0026 55.6108 33.0026C56.4897 33.0026 57.3142 33.3431 57.9324 33.9613C58.342 34.3709 58.6204 34.8651 58.767 35.3898L61.7462 32.4107C62.5997 31.5571 62.9788 30.3334 62.76 29.1372C62.4884 27.653 62.9265 26.248 63.9933 25.1812L65.3549 23.8195L56.1808 14.6452L54.8191 16.0068C53.7521 17.0738 52.3466 17.5114 50.8628 17.2404C49.6489 17.0181 48.4194 17.4244 47.4894 18.3542L42.4907 23.3529C42.1904 23.6529 42.0251 24.0547 42.0251 24.4841ZM41.3086 32.1649C42.2221 31.2812 43.1594 30.3734 43.9879 29.4928L41.7034 27.2082L37.4534 31.4581C37.153 31.7583 36.9877 32.1603 36.9877 32.5895C36.9877 33.0188 37.1532 33.4208 37.4534 33.7209C37.7538 34.0214 38.1556 34.1866 38.585 34.1866C39.0145 34.1866 39.4163 34.0212 39.7165 33.721C40.2237 33.2142 40.7507 32.7045 41.3086 32.1649ZM47.4197 32.9246L45.1786 30.6835C44.3328 31.5799 43.394 32.4893 42.4786 33.3746C42.1294 33.7123 41.7924 34.0381 41.4664 34.3577C40.9205 34.9898 40.9543 35.9428 41.5464 36.5347C42.1704 37.1584 43.1856 37.1584 43.8096 36.5347L47.4197 32.9246ZM52.6497 34.6008C52.9501 34.3004 53.1153 33.8986 53.1153 33.4693C53.1153 33.0399 52.95 32.6379 52.6497 32.3377C52.5359 32.2239 52.4057 32.1304 52.2649 32.0566C51.9377 32.8388 51.3945 33.4605 50.9203 33.9407C50.5901 34.2751 50.1507 34.4601 49.6834 34.4617C49.6816 34.4617 49.6796 34.4617 49.6776 34.4617C49.2914 34.4617 48.9249 34.3345 48.6217 34.1025L45.6249 37.0994L45.625 37.0995C45.0162 37.723 45.0225 38.7321 45.6389 39.3486C46.2628 39.9724 47.2781 39.9724 47.902 39.3486L52.6497 34.6008ZM51.9949 42.1618L56.7563 37.4005H56.7562C57.3651 36.7767 57.3589 35.7675 56.7426 35.1511C56.4422 34.8507 56.0404 34.6853 55.6109 34.6853C55.1815 34.6853 54.7797 34.8508 54.4795 35.1511L53.8593 35.7711C53.8528 35.7777 53.8462 35.7843 53.8397 35.7909L49.7175 39.9131C49.1091 40.5367 49.1155 41.5458 49.7318 42.162C50.3557 42.7856 51.3709 42.7857 51.9949 42.1618Z" fill="#0E4271"/>
</svg>
