<svg width="80" height="80" viewBox="0 0 80 80" fill="none" xmlns="http://www.w3.org/2000/svg">
<path d="M72.2665 29.8962C72.2665 24.865 70.309 20.1362 66.7553 16.5837C63.2103 13.025 58.4828 11.0662 53.4453 11.0662C48.5603 11.0662 43.9715 12.925 40.4528 16.2837L40.1415 15.9687C36.4065 12.235 31.4803 10.1775 26.2703 10.1775C21.2765 10.1775 16.609 12.0962 13.124 15.5825C5.78902 22.93 5.96277 35.0487 13.5115 42.5975L14.3378 43.4237C13.9128 44.2012 13.7878 45.1687 13.9978 46.1912C14.2465 47.3975 14.934 48.6037 15.9453 49.5987C17.1728 50.8062 18.6828 51.5012 20.1165 51.5487C20.1278 51.7912 20.139 52.0337 20.1903 52.285C20.439 53.4912 21.1265 54.6975 22.1265 55.6812C23.3528 56.8887 24.864 57.5825 26.2978 57.63C26.309 57.8725 26.3203 58.115 26.3715 58.3675C26.6203 59.5737 27.3078 60.78 28.3078 61.7637C29.5353 62.9712 31.0453 63.665 32.4778 63.7125C32.489 63.955 32.5003 64.1987 32.5515 64.45C32.8003 65.655 33.4878 66.8612 34.499 67.8575C35.7703 69.1075 37.3465 69.8237 38.824 69.8237C39.854 69.8237 40.744 69.4737 41.3953 68.8112L47.5803 62.525C47.8553 62.245 48.049 61.9175 48.2065 61.5712C49.3928 61.3912 50.484 60.86 51.3303 60.0012C52.5878 58.745 53.1003 57.0325 52.9153 55.3837C53.1278 55.4075 53.3403 55.445 53.554 55.445C54.999 55.445 56.444 54.895 57.5428 53.7962C58.804 52.535 59.3178 50.8212 59.1315 49.1725C59.3415 49.1962 59.549 49.2337 59.764 49.2337C61.2728 49.2337 62.6915 48.645 63.759 47.5787C64.5678 46.77 65.0978 45.7587 65.309 44.66L66.7553 43.215C70.309 39.6575 72.2665 34.9275 72.2665 29.8962ZM53.4453 13.5662C57.814 13.5662 61.9115 15.2637 64.9865 18.35C68.069 21.4325 69.7678 25.5337 69.7678 29.8962C69.7678 34.2575 68.0715 38.355 64.9928 41.4375C64.7128 40.7537 64.2978 40.1237 63.759 39.5862L50.749 26.5787C50.7378 26.5675 50.724 26.565 50.7128 26.555L49.5928 25.435L50.4928 24.9062C51.0878 24.555 51.2853 23.7887 50.934 23.195C50.5828 22.5987 49.8165 22.4025 49.2215 22.7525L39.2428 28.6225C37.4115 29.6837 35.1228 29.525 33.4978 28.2937C33.194 28.0637 33.1315 27.76 33.119 27.5987C33.1078 27.435 33.1303 27.1212 33.4028 26.8487L41.8903 18.3487C44.9765 15.265 49.079 13.5662 53.4453 13.5662ZM16.4453 45.6887C16.3928 45.4362 16.3078 44.8087 16.6478 44.4637L22.834 38.1775C23.049 37.9587 23.3815 37.9125 23.6228 37.9125C24.4253 37.9125 25.4115 38.3912 26.2053 39.1737C26.8465 39.805 27.299 40.5762 27.4453 41.29C27.4978 41.5437 27.5828 42.1712 27.2428 42.5162L21.0578 48.8025C20.8428 49.0212 20.5103 49.0675 20.269 49.0675C19.4665 49.0675 18.4815 48.5887 17.6865 47.8062C17.0453 47.175 16.5928 46.4037 16.4453 45.6887ZM22.6378 51.7812C22.5853 51.5287 22.5003 50.9012 22.8403 50.5562L29.0253 44.27C29.2403 44.0512 29.5728 44.005 29.814 44.005C30.6165 44.005 31.6028 44.4837 32.3853 45.2537C33.644 46.4925 33.9715 48.04 33.424 48.5987L27.239 54.8837C27.0228 55.1037 26.6903 55.1487 26.4503 55.1487C25.6478 55.1487 24.6628 54.67 23.879 53.9C23.2378 53.2675 22.7853 52.4962 22.6378 51.7812ZM29.0203 56.6362L35.2053 50.3512C35.4215 50.1312 35.754 50.0862 35.9953 50.0862C36.7978 50.0862 37.7828 50.565 38.5653 51.335C39.824 52.5725 40.1515 54.1212 39.604 54.6787L33.419 60.965C33.204 61.1837 32.8715 61.23 32.6303 61.23C31.8278 61.23 30.8415 60.7512 30.059 59.9812C28.8003 58.7412 28.4728 57.1937 29.0203 56.6362ZM45.7965 60.77L39.6115 67.0562C39.3965 67.275 39.064 67.3212 38.8228 67.3212C38.019 67.3212 37.034 66.8425 36.239 66.06C35.5978 65.4287 35.1453 64.6575 34.999 63.9437C34.9465 63.69 34.8615 63.0625 35.2015 62.7175L41.3865 56.4312C41.6015 56.2125 41.934 56.1662 42.1753 56.1662C42.9778 56.1662 43.964 56.645 44.7578 57.4275C46.0165 58.665 46.344 60.2137 45.7965 60.77ZM57.5353 45.8075L44.5265 32.8C44.0378 32.3112 43.2478 32.3112 42.759 32.8C42.2703 33.2887 42.2703 34.0787 42.759 34.5675L55.774 47.5812C56.3678 48.175 56.694 48.9637 56.694 49.8025C56.694 50.6412 56.3665 51.4312 55.774 52.0237C54.5528 53.245 52.564 53.2462 51.339 52.03C51.3353 52.0262 51.3328 52.0212 51.329 52.0175L38.3165 39.005C37.8278 38.5162 37.0378 38.5162 36.549 39.005C36.304 39.25 36.1828 39.5712 36.184 39.8925C36.184 40.2125 36.3065 40.5325 36.5503 40.7762L49.5653 53.7912L49.569 53.795C50.7815 55.0275 50.7803 57.0125 49.5553 58.2362C49.234 58.5625 48.8465 58.7975 48.4115 58.9525C48.1578 57.8137 47.524 56.64 46.5015 55.6325C45.2753 54.4262 43.7653 53.7312 42.3328 53.6825C42.264 52.3037 41.5878 50.7975 40.3215 49.55C39.0953 48.3437 37.5853 47.6487 36.1528 47.6012C36.084 46.2225 35.4078 44.715 34.1415 43.4675C32.914 42.26 31.404 41.5662 29.9703 41.5187C29.959 41.2762 29.9478 41.0337 29.8965 40.7812C29.6478 39.5762 28.9603 38.37 27.949 37.3737C26.6778 36.1237 25.1028 35.4075 23.6253 35.4075C22.594 35.4075 21.7053 35.7575 21.054 36.42L16.004 41.5525L15.2803 40.8287C8.70527 34.2537 8.53277 23.7187 14.8928 17.3475C17.9053 14.335 21.9465 12.6762 26.2715 12.6762C30.814 12.6762 35.1128 14.4737 38.3703 17.73L38.6715 18.035L31.6365 25.08C30.9265 25.79 30.5578 26.7712 30.6265 27.7687C30.6953 28.765 31.1928 29.6812 31.9903 30.285C34.4028 32.1125 37.8028 32.345 40.504 30.78L47.3678 26.7425L48.974 28.3487C48.9853 28.36 48.999 28.3625 49.0103 28.3725L61.9903 41.3525C62.5853 41.9487 62.9128 42.7387 62.9128 43.58C62.9128 44.4212 62.5853 45.2125 61.9903 45.8062C60.8003 47.0012 58.7253 47 57.5353 45.8075Z" fill="#0E4271"/>
</svg>
