<svg width="80" height="80" viewBox="0 0 80 80" fill="none" xmlns="http://www.w3.org/2000/svg">
<path d="M39.3352 26.9992H37.6642C37.1615 26.9992 36.7539 26.5917 36.7539 26.0891C36.7539 25.5864 37.1615 25.179 37.6642 25.179H39.3352C39.8379 25.179 40.2455 25.5864 40.2455 26.0891C40.2455 26.5917 39.838 26.9992 39.3352 26.9992Z" fill="#0E4271"/>
<path d="M29.9114 26.9992H28.2403C27.7377 26.9992 27.3301 26.5917 27.3301 26.0891C27.3301 25.5864 27.7377 25.179 28.2403 25.179H29.9114C30.414 25.179 30.8217 25.5864 30.8217 26.0891C30.8217 26.5917 30.414 26.9992 29.9114 26.9992Z" fill="#0E4271"/>
<path d="M59.221 62.4815L61.1069 60.5956C61.4625 60.2401 61.4625 59.6638 61.1069 59.3085C60.7516 58.9528 60.1749 58.9528 59.8198 59.3085L57.9339 61.1944L56.048 59.3085C55.6926 58.9528 55.116 58.9528 54.7608 59.3085C54.4052 59.6639 54.4052 60.2403 54.7608 60.5956L56.6467 62.4815L54.7608 64.3674C54.4052 64.7228 54.4052 65.2992 54.7608 65.6545C55.1161 66.0101 55.6926 66.0101 56.048 65.6545L57.9339 63.7686L59.8198 65.6545C60.1751 66.0101 60.7516 66.0101 61.1069 65.6545C61.4625 65.299 61.4625 64.7227 61.1069 64.3674L59.221 62.4815Z" fill="#0E4271"/>
<path d="M57.9339 52.9012C52.645 52.9012 48.342 57.1965 48.342 62.4761C48.342 64.058 48.7307 65.5502 49.414 66.8663C48.7685 66.9927 48.1123 67.0566 47.4527 67.0566C42.3138 67.0566 37.6316 63.8367 35.8016 59.0446L33.9795 54.2731C33.9662 54.238 33.9506 54.2037 33.933 54.1708L31.0623 48.7681C30.6726 47.901 31.0083 46.8722 31.8331 46.418C32.6797 45.9518 33.7517 46.2689 34.2232 47.1244C34.2324 47.1412 34.2421 47.1577 34.2525 47.174L36.5307 50.7517C36.7481 51.0931 37.1647 51.2499 37.5532 51.1368C37.9417 51.0236 38.2089 50.6675 38.2089 50.2631V34.1189C38.1895 33.1757 39.023 32.3474 39.966 32.3676C40.9339 32.3682 41.7213 33.1537 41.7213 34.1189V50.9688C41.7213 51.4714 42.1289 51.8789 42.6315 51.8789C43.1341 51.8789 43.5418 51.4714 43.5418 50.9688V43.0112C43.5418 42.0987 44.278 41.3561 45.1828 41.3561C46.0876 41.3561 46.8239 42.0987 46.8239 43.0112V51.0872C46.8239 51.5898 47.2315 51.9973 47.7341 51.9973C48.2367 51.9973 48.6444 51.5898 48.6444 51.0872V44.4995C48.6444 43.5863 49.3809 42.8436 50.2863 42.8436C51.4031 42.8436 52.3117 43.7593 52.3117 44.8848V51.4103C52.3117 51.9129 52.7193 52.3204 53.2219 52.3204C53.7245 52.3204 54.1322 51.9129 54.1322 51.4103V46.9822C54.1322 46.0691 54.8687 45.3261 55.7741 45.3261C56.8079 45.3261 57.6489 46.1739 57.6489 47.2157L57.6473 50.7997C57.647 51.3023 58.0545 51.7099 58.5571 51.7101H58.5575C59.0601 51.7101 59.4675 51.3029 59.4678 50.8004L59.4695 47.2161C59.4695 45.1703 57.8117 43.5061 55.7741 43.5061C55.1369 43.5061 54.5394 43.6796 54.0261 43.9825C53.6203 42.2873 52.0974 41.0237 50.2863 41.0237C49.571 41.0237 48.9058 41.2426 48.3534 41.617C47.8173 40.393 46.5978 39.5362 45.1828 39.5362C44.5893 39.5362 44.0303 39.6868 43.5418 39.952V34.1189C43.5418 32.1508 41.9382 30.5486 39.967 30.5474C38.0452 30.5063 36.3485 32.1971 36.3882 34.1189V47.1386L35.8026 46.219C34.839 44.5048 32.6715 43.8782 30.9546 44.8237C30.5177 45.0643 30.1498 45.3853 29.8582 45.7587C29.1517 44.878 28.7606 43.7824 28.7606 42.6268V39.835C30.2762 40.5748 31.9774 40.9911 33.7744 40.9911H33.8016C34.3043 40.9911 34.7118 40.5836 34.7118 40.0809C34.7118 39.5783 34.3043 39.1708 33.8016 39.1708H33.7744C28.4543 39.1708 24.126 34.8436 24.126 29.527L24.1485 20.4555C24.6907 19.7085 26.9055 17.1545 31.1341 18.3413C32.3139 18.6722 33.4587 19.2485 34.5368 20.0547C36.2248 21.3912 40.4641 23.8113 43.4694 22.5227V29.3067C43.445 30.0658 44.4256 30.5108 44.9814 29.9895C45.1607 29.8318 49.3776 26.0586 49.908 20.4045C49.9095 20.3897 49.9104 20.3748 49.9112 20.3599C50.2448 12.8462 46.4243 10.2898 44.7661 9.5391C44.643 9.48342 44.5164 9.42607 44.3883 9.37646C43.7417 8.27339 41.5189 5.10645 36.8641 4.15174C27.7185 2.85963 17.8345 9.97011 17.6472 19.735C17.6756 23.3756 20.1515 28.2734 22.3103 29.8413C22.4094 33.4761 24.2087 36.6937 26.9401 38.7268V41.0989C18.7813 40.8924 11.9879 47.4935 12 55.6597V74.09C12 74.5926 12.4077 75.0001 12.9103 75.0001C13.413 75.0001 13.8205 74.5926 13.8205 74.09V66.2833H20.1344V74.09C20.1344 74.5926 20.542 75.0001 21.0446 75.0001C21.5472 75.0001 21.9549 74.5926 21.9549 74.09V60.7259C21.9549 60.2233 21.5472 59.8158 21.0446 59.8158C20.542 59.8158 20.1344 60.2233 20.1344 60.7259V64.4632H13.8205V55.6597C13.8082 48.4931 19.7903 42.7104 26.9476 42.919C27.0235 44.7164 27.7946 46.3877 29.1045 47.6127C29.0327 48.2575 29.1297 48.9279 29.4201 49.554C29.427 49.5689 29.4343 49.5836 29.4421 49.598L32.299 54.9749L34.101 59.6936C35.8952 64.5348 40.5062 68.1484 45.6216 68.7578V74.0898C45.6216 74.5924 46.0292 74.9999 46.5318 74.9999C47.0344 74.9999 47.4421 74.5924 47.4421 74.0898V68.8763C47.4457 68.8763 47.4494 68.8765 47.453 68.8765C48.4748 68.8765 49.4888 68.7448 50.4766 68.4884C51.361 69.5793 52.4793 70.474 53.7559 71.0934V74.0897C53.7559 74.5923 54.1636 74.9998 54.6662 74.9998C55.1688 74.9998 55.5764 74.5923 55.5764 74.0897V71.7574C56.331 71.9484 57.1208 72.051 57.9342 72.051C63.2231 72.051 67.526 67.7556 67.526 62.4758C67.526 57.196 63.2229 52.9012 57.9339 52.9012ZM22.4563 19.7129C22.3724 19.8535 22.3282 20.0143 22.3281 20.1782L22.3257 27.2871C20.6265 25.469 19.4458 21.1649 19.4658 19.8206C19.624 11.1231 28.44 4.90013 36.5296 5.94116C41.1351 6.89981 42.8756 10.3856 42.9494 10.5376C43.0745 10.7984 43.3162 10.9843 43.6002 11.0381C43.9001 11.124 48.4265 12.5595 48.0932 20.2566C47.8197 23.1059 46.4215 25.4562 45.2898 26.9327V20.9241C45.3147 20.1704 44.3442 19.724 43.7877 20.2328C41.2743 22.384 37.2433 19.8054 35.6269 18.5972C34.3687 17.6563 33.0224 16.9806 31.6258 16.5889C26.6715 15.1994 23.4615 18.025 22.4563 19.7129ZM57.9339 70.2186C53.6607 70.2186 50.1967 66.7547 50.1967 62.4815C50.1967 58.2084 53.6607 54.7443 57.9339 54.7443C62.2071 54.7443 65.671 58.2084 65.671 62.4815C65.671 66.7547 62.2071 70.2186 57.9339 70.2186Z" fill="#0E4271"/>
</svg>
