<svg width="80" height="80" viewBox="0 0 80 80" fill="none" xmlns="http://www.w3.org/2000/svg">
<path d="M20.1166 39.3849C20.7463 39.3849 21.2567 38.8744 21.2567 38.2448C21.2567 37.6152 20.7463 37.1047 20.1166 37.1047C19.487 37.1047 18.9766 37.6152 18.9766 38.2448C18.9766 38.8744 19.487 39.3849 20.1166 39.3849Z" fill="#0E4271"/>
<path d="M27.412 55.3435H26.39C26.209 55.3459 26.0312 55.391 25.8709 55.475C25.7106 55.559 25.5724 55.6796 25.4674 55.827C25.3624 55.9744 25.2937 56.1445 25.2667 56.3235C25.2398 56.5024 25.2554 56.6852 25.3123 56.857C25.8333 58.3981 26.8209 59.7389 28.1382 60.6934C29.4554 61.648 31.0371 62.169 32.6638 62.1842C33.0919 62.1835 33.5193 62.1464 33.9411 62.0731C33.5642 61.3627 33.2241 60.6332 32.9224 59.8876C32.8356 59.8921 32.7507 59.904 32.6638 59.904C31.8017 59.8979 30.9534 59.6881 30.1879 59.2918C29.4223 58.8955 28.7613 58.3239 28.2586 57.6236H31.705L27.412 55.3435Z" fill="#0E4271"/>
<path d="M35.7739 69.8363C33.6127 70.3012 31.3747 70.2759 29.2245 69.7622C18.5202 67.3216 12.8396 58.8911 10.8051 42.4232C10.6427 41.1193 10.4505 39.7933 10.2648 38.5106C9.08795 30.3844 7.97686 22.7094 13.0952 16.1613C17.6873 10.2858 23.1348 7.10203 29.7502 6.42671C31.6446 6.23647 33.553 6.23153 35.4484 6.41194C42.1207 7.05828 47.6116 10.2474 52.2345 16.161C57.3259 22.6791 56.2482 30.3148 55.0789 38.3992C55.3254 39.0787 55.5796 39.7796 55.8489 40.5195C56.1065 41.0337 56.4632 41.492 56.8985 41.8679C57.0324 40.8545 57.1764 39.8323 57.3212 38.8339C58.5133 30.5933 59.7461 22.072 54.0321 14.757C49.0034 8.32393 42.9967 4.85196 35.6687 4.14265C33.6227 3.94729 31.5626 3.9526 29.5177 4.15851C22.2523 4.89981 16.2921 8.36659 11.2976 14.757C5.57976 22.0725 6.81364 30.5952 8.0072 38.8373C8.19101 40.1085 8.3815 41.4237 8.54079 42.7039C9.88833 53.6068 13.4456 68.5038 28.7171 71.985C31.1914 72.5574 33.7605 72.5852 36.2465 72.0665C38.0743 71.6884 39.8537 71.1057 41.5512 70.3297C40.7973 69.8569 40.0738 69.3372 39.3849 68.7739C38.2116 69.2241 37.0041 69.5793 35.7739 69.8363Z" fill="#0E4271"/>
<path d="M71.1126 33.9831C70.5125 33.3576 69.7301 32.9377 68.8771 32.7834C68.0241 32.6291 67.1442 32.7483 66.363 33.1239C60.6409 35.5606 59.3735 42.4281 59.1018 45.8475L56.1554 44.146C55.1284 43.4691 54.3004 42.5306 53.7567 41.4272C47.4893 23.7549 47.4893 23.7552 47.4709 23.7201C47.2783 23.2079 46.9824 22.7408 46.6017 22.3478C46.2209 21.9548 45.7634 21.6442 45.2576 21.4354C44.7518 21.2266 44.2085 21.124 43.6614 21.134C43.1143 21.1439 42.575 21.2663 42.0772 21.4934C41.5833 21.7027 41.1373 22.0105 40.7666 22.3981C40.3959 22.7857 40.1081 23.2449 39.9211 23.7476C39.734 24.2503 39.6515 24.7859 39.6786 25.3216C39.7057 25.8573 39.8419 26.3818 40.0789 26.863L42.2289 33.2512L35.9649 24.2099C34.3593 21.88 31.8714 21.7647 30.2448 22.8538C28.5971 23.9571 27.7686 26.3606 29.3698 28.8159C29.3745 28.8237 29.3846 28.8385 34.0281 35.7803C34.0281 35.7803 29.7772 31.7162 29.7449 31.6909C28.9273 30.9961 27.8686 30.6518 26.7987 30.7329C25.7288 30.814 24.7341 31.3138 24.0306 32.1239C23.3521 32.8434 22.9799 33.7985 22.9925 34.7873C23.0052 35.7762 23.4017 36.7214 24.0983 37.4233L32.3322 45.6497C28.6978 43.9853 24.6614 42.1357 24.4157 42.0231C23.4806 41.5222 22.389 41.3992 21.3658 41.6794C20.3427 41.9596 19.4661 42.6216 18.9167 43.5291C17.9891 45.1359 18.1715 47.5046 20.6694 49.1733C20.7012 49.1953 34.1685 56.3496 34.1685 56.3496C34.856 59.225 36.1816 61.9089 38.047 64.2026C39.9124 66.4963 42.2699 68.3409 44.9449 69.5999C44.9449 69.5999 49.5119 76.4906 49.5147 76.4944C49.6839 76.7437 49.944 76.9169 50.2393 76.9769C50.5346 77.0369 50.8416 76.979 51.0947 76.8155C51.2196 76.7329 51.327 76.6265 51.4108 76.5023C51.4946 76.3781 51.553 76.2387 51.5829 76.0919C51.6127 75.9452 51.6133 75.794 51.5847 75.647C51.5561 75.5 51.4988 75.36 51.4161 75.2352L46.6659 68.0692C46.5469 67.8888 46.3788 67.7464 46.1814 67.6587C37.7878 63.9018 36.3189 55.4977 36.3055 55.4161C36.2777 55.2417 36.2097 55.0762 36.107 54.9325C36.0043 54.7889 35.8695 54.6711 35.7135 54.5885L21.8919 47.2474C20.5784 46.3479 20.5118 45.3273 20.8922 44.6681C21.1506 44.2554 21.5617 43.9616 22.0358 43.8507C22.5099 43.7398 23.0086 43.8208 23.4233 44.0761C23.4233 44.0761 36.9053 49.9597 36.9235 49.9678C37.1066 50.0574 37.3116 50.0927 37.5142 50.0695C37.7167 50.0463 37.9084 49.9656 38.0666 49.8369C38.1782 49.7318 38.2677 49.6056 38.33 49.4656C38.3923 49.3256 38.4261 49.1746 38.4294 49.0214C38.4328 48.8682 38.4056 48.7158 38.3495 48.5732C38.2933 48.4306 38.2094 48.3007 38.1025 48.1908L25.7195 35.8196C25.5755 35.6762 25.4614 35.5055 25.3842 35.3175C25.3069 35.1295 25.268 34.9279 25.2696 34.7247C25.2712 34.5214 25.3134 34.3205 25.3937 34.1338C25.474 33.947 25.5907 33.7782 25.7371 33.6372C25.8923 33.4535 26.0829 33.303 26.2975 33.1945C26.5121 33.086 26.7463 33.0218 26.9862 33.0057C27.2261 32.9896 27.4668 33.0219 27.694 33.1007C27.9212 33.1796 28.1302 33.3033 28.3085 33.4645L39.2273 43.9115C39.4084 44.0858 39.6421 44.1953 39.892 44.2226C40.1419 44.25 40.3939 44.1938 40.6084 44.0628C40.823 43.9318 40.9881 43.7333 41.0779 43.4985C41.1677 43.2637 41.1771 43.0058 41.1047 42.765C41.1047 42.765 31.3609 27.6914 31.2835 27.5748C30.3882 26.2016 30.8482 25.1941 31.5144 24.7483C32.2133 24.2807 33.2793 24.3325 34.088 25.5057C34.088 25.5057 44.728 40.8625 44.7383 40.8778C44.8998 41.0864 45.1215 41.2403 45.3734 41.3186C45.6253 41.3969 45.8952 41.3958 46.1465 41.3156C46.2885 41.268 46.4197 41.1928 46.5326 41.0945C46.6455 40.9961 46.7379 40.8764 46.8045 40.7423C46.8711 40.6082 46.9106 40.4623 46.9208 40.3129C46.9309 40.1635 46.9115 40.0135 46.8636 39.8716C46.8636 39.8716 42.2028 26.0259 42.1886 25.9944C42.066 25.7865 41.9895 25.5548 41.9642 25.3148C41.9388 25.0748 41.9654 24.8322 42.0419 24.6033C42.1184 24.3745 42.2432 24.1647 42.4078 23.9882C42.5723 23.8117 42.7729 23.6726 42.9958 23.5803C43.2172 23.4775 43.4577 23.4226 43.7017 23.4193C43.9457 23.4159 44.1877 23.4642 44.4117 23.561C44.6358 23.6577 44.8368 23.8007 45.0017 23.9806C45.1666 24.1605 45.2916 24.3732 45.3685 24.6048C45.6899 25.5076 51.5573 42.0513 51.618 42.2225C52.2934 43.8584 53.4865 45.2277 55.0146 46.1206C55.0146 46.1206 59.598 48.767 59.6033 48.7701C59.7796 48.8681 59.9786 48.9181 60.1804 48.915C60.3821 48.9119 60.5795 48.8559 60.7527 48.7525C60.926 48.6492 61.0691 48.5021 61.1676 48.3261C61.2662 48.15 61.3167 47.9512 61.3142 47.7494C61.3109 47.6509 61.0954 37.8458 67.2572 35.2217C67.6268 35.0237 68.0524 34.9561 68.4652 35.0298C68.878 35.1035 69.2539 35.3141 69.5323 35.6277C69.7812 35.8664 69.8597 36.6906 69.422 37.491C67.9876 40.1128 66.2858 44.142 66.3226 48.4456C66.3231 48.515 66.3301 48.5841 66.3435 48.6522C66.3596 48.7366 67.8948 57.1541 62.1736 62.4974C61.9756 62.6826 61.85 62.9323 61.8194 63.2017C61.7887 63.4711 61.8551 63.7426 62.0065 63.9675C62.0065 63.9675 65.4802 69.1257 65.483 69.1299C65.6542 69.378 65.9157 69.5492 66.2116 69.607C66.5074 69.6648 66.8141 69.6045 67.0661 69.439C67.1904 69.3554 67.297 69.2482 67.3798 69.1234C67.4626 68.9986 67.52 68.8588 67.5487 68.7118C67.5774 68.5648 67.5769 68.4136 67.5471 68.2668C67.5173 68.1201 67.4589 67.9806 67.3752 67.8564L64.4245 63.4743C69.9831 57.5782 68.7957 49.4328 68.6033 48.33C68.598 44.3501 70.3646 40.5219 71.424 38.5848C72.3181 36.9496 72.1873 35.0137 71.1126 33.9831Z" fill="#0E4271"/>
<path d="M21.1418 32.5417H17.8354C17.533 32.5417 17.243 32.6619 17.0292 32.8757C16.8154 33.0895 16.6953 33.3795 16.6953 33.6818C16.6953 33.9842 16.8154 34.2742 17.0292 34.488C17.243 34.7018 17.533 34.8219 17.8354 34.8219H20.7218C20.7154 34.0421 20.858 33.2682 21.1418 32.5417Z" fill="#0E4271"/>
</svg>
