<svg width="80" height="80" viewBox="0 0 80 80" fill="none" xmlns="http://www.w3.org/2000/svg">
<path fill-rule="evenodd" clip-rule="evenodd" d="M65.9226 31.8885H61.8359C61.2415 31.8885 60.7585 31.3684 60.7585 30.774V27.1331C60.7585 26.5387 61.2415 26.0557 61.8359 26.0557H65.9226C66.517 26.0557 67 26.5387 67 27.1331V30.774C67 31.3684 66.517 31.8885 65.9226 31.8885ZM19.7802 12.8297C16.8824 16.6563 16.2879 19.4056 16.808 21.1517C17.2167 22.6006 18.4799 23.3065 19.7802 23.3065C21.0433 23.3065 22.3065 22.6006 22.7523 21.1517C23.2353 19.4056 22.6409 16.6563 19.7802 12.8297ZM14.6161 21.7833C13.9102 19.2198 14.7276 15.3932 18.8885 10.3034L19.0372 10.1548C19.5201 9.74613 20.226 9.82043 20.6347 10.3034C21.8607 11.7895 22.8266 13.2012 23.4954 14.4644C24.87 12.8297 26.5789 11.4551 28.548 10.3777C36.6099 5.99381 42.7771 8.70588 47.3096 10.6749C50.9505 12.2724 53.0681 13.0898 55.0743 11.5666C55.3715 11.3065 55.7802 11.2693 56.1146 11.418C56.4861 11.5294 56.7461 11.8638 56.8204 12.2353C56.8576 12.6068 58.1579 21.0031 51.7306 24.8297V34.8607C51.7306 39.4303 49.0929 43.4056 45.2663 45.3375L46.3808 49.5728H50.839C56.8576 49.5728 61.7616 54.4768 61.7616 60.4954V70.3034C61.7616 70.935 61.2415 71.418 60.6471 71.418H50.9876H22.9752H13.3158C12.7214 71.418 12.2384 70.935 12.2384 70.3034V60.4954C12.2384 54.4768 17.1424 49.5728 23.161 49.5728H27.6192L28.6966 45.3375C24.9071 43.4056 22.2693 39.4303 22.2693 34.8607V32.2601C21.0433 30.0681 20.3003 27.839 20.0774 25.5728C19.9659 25.5728 19.8545 25.5728 19.7802 25.5728C17.5511 25.5728 15.3591 24.3096 14.6161 21.7833ZM24.5356 16.7306C25.2415 18.774 25.2786 20.4458 24.9071 21.7833C24.4613 23.3437 23.4211 24.4211 22.195 25.0155C22.3065 26.5015 22.678 27.9505 23.2724 29.3622C25.0186 25.9071 26.839 25.6099 29.2539 25.6099C30.7028 25.5728 32.226 25.5728 34.2322 24.2353C38.5418 21.3375 43.4087 18.031 50.6904 22.935C54.257 20.7059 54.7771 16.5077 54.7771 14.2043C52.1393 15.2074 49.3529 13.9814 46.4551 12.6811C41.8854 10.6749 36.6842 8.40867 29.5882 12.3096C27.5449 13.4241 25.7988 14.9474 24.5356 16.7306ZM49.5387 24.7926C43.8545 20.9288 40.3994 22.7121 35.4582 26.0186C32.8947 27.7647 30.8885 27.7647 29.2539 27.7647C27.2105 27.8019 26.0588 27.8019 24.4613 32.1858V34.8607C24.4613 38.8359 26.8762 42.2539 30.3313 43.7028C30.3684 43.7028 30.4427 43.7399 30.4799 43.7771C31.5944 44.1858 32.7833 44.4458 34.0093 44.4458H39.9536C41.2167 44.4458 42.4056 44.1858 43.483 43.7771C43.5573 43.7399 43.5944 43.7028 43.6687 43.7028C47.1238 42.2539 49.5387 38.8359 49.5387 34.8607V24.7926ZM39.9536 46.6378H34.0093C32.8947 46.6378 31.7802 46.452 30.7399 46.1548L29.6997 50.3529L36.9814 57.6718L44.3003 50.3529L43.2229 46.1548C42.1827 46.452 41.1053 46.6378 39.9536 46.6378ZM28.0279 51.7647H23.161C18.3313 51.7647 14.4303 55.7028 14.4303 60.4954V69.226H21.8978V64.322C21.8978 63.7276 22.3808 63.2446 22.9752 63.2446C23.6068 63.2446 24.0898 63.7276 24.0898 64.322V69.226H49.9102V64.322C49.9102 63.7276 50.3932 63.2446 50.9876 63.2446C51.582 63.2446 52.1022 63.7276 52.1022 64.322V69.226H59.5697V60.4954C59.5697 55.7028 55.6316 51.7647 50.839 51.7647H45.9721L37.7616 59.9752C37.5387 60.1981 37.2786 60.3096 36.9814 60.3096C36.7214 60.3096 36.4241 60.1981 36.2384 59.9752L28.0279 51.7647ZM42.4427 42.4768H36.9814H31.5573C30.9257 42.4768 30.4427 41.9938 30.4427 41.3994V37.2384C30.4427 36.644 30.9257 36.161 31.5573 36.161H36.9814H42.4427C43.0372 36.161 43.5201 36.644 43.5201 37.2384V41.3994C43.5201 41.9938 43.0372 42.4768 42.4427 42.4768ZM32.6347 40.2848H35.904V38.3529H32.6347V40.2848ZM38.096 40.2848H41.3653V38.3529H38.096V40.2848ZM42.257 35.2322C40.4737 35.2322 39.0248 33.7833 39.0248 32C39.0248 30.2167 40.4737 28.805 42.257 28.805C44.0402 28.805 45.452 30.2167 45.452 32C45.452 33.7833 44.0402 35.2322 42.257 35.2322ZM42.257 30.9598C41.6625 30.9598 41.2167 31.4427 41.2167 32C41.2167 32.5944 41.6625 33.0402 42.257 33.0402C42.8142 33.0402 43.2972 32.5944 43.2972 32C43.2972 31.4427 42.8142 30.9598 42.257 30.9598ZM31.4458 35.2322C29.6625 35.2322 28.2136 33.7833 28.2136 32C28.2136 30.2167 29.6625 28.805 31.4458 28.805C33.2291 28.805 34.678 30.2167 34.678 32C34.678 33.7833 33.2291 35.2322 31.4458 35.2322ZM31.4458 30.9598C30.8514 30.9598 30.4056 31.4427 30.4056 32C30.4056 32.5944 30.8514 33.0402 31.4458 33.0402C32.0031 33.0402 32.4861 32.5944 32.4861 32C32.4861 31.4427 32.0031 30.9598 31.4458 30.9598ZM45.8978 28.8421C45.7121 28.8421 45.5263 28.805 45.3406 28.6935L41.9969 26.6873C41.4768 26.3901 41.291 25.7214 41.5882 25.2012C41.8854 24.6811 42.5913 24.4954 43.0743 24.7926L46.4551 26.7988C46.9752 27.096 47.161 27.7647 46.8266 28.2848C46.6409 28.6563 46.2693 28.8421 45.8978 28.8421ZM56.5975 46.4892C56.3375 46.4892 56.1146 46.4149 55.8916 46.2291C55.4458 45.8576 55.3715 45.1889 55.743 44.7059C55.8545 44.5944 56.6347 43.5542 55.8916 42.1424C54.4427 39.4303 56.1517 37.2755 56.226 37.2012C56.6347 36.7183 57.3034 36.644 57.7864 37.0526C58.2322 37.4241 58.3065 38.0929 57.935 38.5759C57.8235 38.6873 57.0805 39.7647 57.8235 41.1393C59.2724 43.8514 57.5263 46.0062 57.452 46.0805C57.2291 46.3406 56.9319 46.4892 56.5975 46.4892ZM61.2786 44.9288C61.0557 44.9288 60.7957 44.8545 60.6099 44.7059C60.1269 44.2972 60.0526 43.6285 60.4613 43.1455C60.4985 43.0712 61.0557 42.3282 60.5356 41.3994C59.5697 39.5789 60.2755 37.9071 60.8328 37.2012C61.2415 36.7183 61.9102 36.644 62.3932 37.0526C62.839 37.4241 62.9133 38.0929 62.5418 38.5759C62.4675 38.6502 61.9474 39.3932 62.4675 40.3591C63.4334 42.1796 62.7276 43.8514 62.1331 44.5573C61.9102 44.8173 61.613 44.9288 61.2786 44.9288ZM12.1641 41.1765H8.0774C7.48297 41.1765 7 40.6935 7 40.0991V25.7585C7 25.1641 7.48297 24.6811 8.0774 24.6811H12.1641C12.7585 24.6811 13.2415 25.1641 13.2415 25.7585V40.0991C13.2415 40.6935 12.7585 41.1765 12.1641 41.1765ZM9.19195 38.9845H11.0495V26.8359H9.19195V38.9845ZM12.1641 48.5325H8.0774C7.48297 48.5325 7 48.0495 7 47.4551V43.8142C7 43.1827 7.48297 42.6997 8.0774 42.6997H12.1641C12.7585 42.6997 13.2415 43.1827 13.2415 43.8142V47.4551C13.2415 48.0495 12.7585 48.5325 12.1641 48.5325ZM9.19195 46.3406H11.0495V44.8916H9.19195V46.3406ZM65.9226 24.4954H61.8359C61.2415 24.4954 60.7585 24.0124 60.7585 23.418V9.0774C60.7585 8.48297 61.2415 8 61.8359 8H65.9226C66.517 8 67 8.48297 67 9.0774V23.418C67 24.0124 66.517 24.4954 65.9226 24.4954ZM62.9133 22.3406H64.808V10.192H62.9133V22.3406ZM62.9133 29.6966H64.808V28.2477H62.9133V29.6966Z" fill="#0E4271"/>
</svg>
