<svg width="80" height="80" viewBox="0 0 80 80" fill="none" xmlns="http://www.w3.org/2000/svg">
<path d="M40 39.76C49.28 39.76 56 27.68 56 19.6C56 11.04 48.8 4 40 4C31.2 4 24 11.04 24 19.6C24 27.76 30.72 39.76 40 39.76ZM40 38.16C33.6 38.16 27.84 30.88 26.08 23.68C27.92 23.92 29.76 24 31.6 24H32.72H32.96C35.44 23.92 37.84 23.68 40.32 23.28C45.2 22.4 49.92 20.8 54.32 18.56C54.32 18.88 54.4 19.28 54.4 19.6C54.4 27.84 47.6 38.16 40 38.16ZM25.6 19.6C25.6 18.72 25.68 17.92 25.84 17.12C27.12 17.28 28.4 17.44 29.76 17.52C28.48 18.64 27.12 19.68 25.68 20.64C25.6 20.32 25.6 19.92 25.6 19.6ZM27.44 12.88C29.84 12.88 32.16 12.64 34.56 12.24C34.64 12.24 34.72 12.24 34.88 12.16C34.48 12.64 34.08 13.12 33.68 13.6C32.96 14.4 32.24 15.2 31.44 15.92C29.68 15.92 27.92 15.76 26.16 15.52C26.48 14.56 26.8 13.68 27.28 12.88H27.44ZM41.04 5.68C43.2 5.76 45.2 6.4 46.96 7.36C45.52 9.92 43.84 12.32 41.84 14.56L41.76 14.64C41.68 14.72 41.6 14.88 41.44 14.96C38.8 17.84 35.76 20.32 32.48 22.32C30.4 22.32 28.32 22.24 26.32 22C28.4 20.64 30.32 19.12 32.08 17.44L32.32 17.2C33.2 16.4 34.08 15.52 34.88 14.56C35.76 13.52 36.64 12.48 37.44 11.36C38.8 9.68 40 7.68 41.04 5.68ZM42.48 16.24C45.92 15.36 49.28 14.08 52.32 12.4C53.12 13.76 53.76 15.28 54.08 16.8C49.68 19.12 44.96 20.72 40 21.6C38.56 21.84 37.12 22 35.6 22.16C38.16 20.48 40.4 18.48 42.48 16.24ZM51.44 11.12C49.2 12.32 46.8 13.28 44.4 14.08C45.92 12.24 47.2 10.24 48.4 8.24C49.52 9.04 50.56 10 51.44 11.12ZM39.2 5.6C38.32 7.2 37.36 8.8 36.32 10.24C35.68 10.4 35.04 10.48 34.32 10.64C32.4 10.96 30.4 11.2 28.48 11.2C30.96 8 34.8 5.84 39.2 5.6Z" fill="#0E4271"/>
<path d="M66.4003 75.9999C68.1603 75.9999 69.6003 74.5599 69.6003 72.7999V69.5999V64.7999V63.9999V60.4799C69.6003 54.7199 66.8803 49.3599 62.2403 45.9199C62.1603 45.7599 62.0003 45.6799 61.8403 45.5999C58.9603 43.5999 55.6803 42.4799 52.1603 42.3999H52.0803H52.0003C51.7603 42.3999 51.4403 42.3999 51.2003 42.5599C48.1603 45.1199 44.4003 46.3999 40.0003 46.3999C35.6003 46.3999 31.8403 45.1199 28.8803 42.5599C28.6403 42.3999 28.2403 42.3999 28.0003 42.3999C28.0003 42.3999 28.0003 42.3999 27.9203 42.3999C18.0803 42.6399 10.3203 50.5599 10.3203 60.4799V70.1599C10.3203 71.5999 11.2803 72.8799 12.7203 73.1999C18.4803 74.5599 25.2803 75.4399 32.4803 75.8399L40.0003 75.9999H63.2003H66.4003ZM31.6003 64.4799L22.6403 45.1199C24.2403 44.5599 25.9203 44.1599 27.6803 44.0799L44.0003 62.3999L43.3603 63.9999H34.0003C33.1203 63.9999 32.3203 64.1599 31.6003 64.4799ZM44.6403 65.1199L52.4803 44.1599L60.8803 46.9599L65.4403 74.3999H63.2003H41.1203L44.6403 65.1199ZM68.0003 72.7999C68.0003 73.4399 67.6003 73.9999 67.0403 74.2399L65.6003 65.5999H68.0003V69.5999V72.7999ZM68.0003 60.4799V63.9999H65.3603L62.8003 48.3999C66.0803 51.5199 68.0003 55.9199 68.0003 60.4799ZM50.4003 45.1199L44.5603 60.7199L31.8403 46.3999C34.2403 47.5199 36.9603 47.9999 40.0003 47.9999C44.0003 47.9999 47.4403 47.0399 50.4003 45.1199ZM13.2003 71.6799C12.4803 71.5199 12.0003 70.8799 12.0003 70.2399V60.4799C12.0003 53.9999 15.6803 48.3999 21.1203 45.7599L30.1603 65.3599C30.0003 65.5199 29.8403 65.5999 29.6803 65.7599C28.5603 66.8799 27.9203 68.3999 27.9203 69.9999C27.9203 71.5199 28.4803 72.9599 29.4403 73.9999C23.6003 73.5999 18.0003 72.7999 13.2003 71.6799ZM29.6003 69.9999C29.6003 68.7999 30.0803 67.7599 30.8803 66.8799C31.6803 66.0799 32.8003 65.5999 34.0003 65.5999H42.7203L39.4403 74.3999L32.7203 74.2399C30.8803 73.6799 29.6003 71.9199 29.6003 69.9999Z" fill="#0E4271"/>
</svg>
