<svg width="80" height="81" viewBox="0 0 80 81" fill="none" xmlns="http://www.w3.org/2000/svg">
<path fill-rule="evenodd" clip-rule="evenodd" d="M48.0904 54.4122C47.8546 54.4122 47.6197 54.3164 47.4495 54.1268C45.5391 52.0103 45.2592 49.1338 45.3594 47.0929C45.416 45.9412 47.1403 46.0534 47.0846 47.1784C46.8143 52.6572 49.9594 53.0273 48.6699 54.1894C48.5037 54.338 48.2968 54.4122 48.0904 54.4122Z" fill="#0E4271"/>
<path fill-rule="evenodd" clip-rule="evenodd" d="M30.782 54.367C30.0414 54.367 29.6385 53.4822 30.1416 52.9242C32.9641 49.7951 30.8062 46.361 32.6394 46.2907C33.1235 46.2729 33.5182 46.6409 33.5385 47.1176C33.6218 49.1335 33.3226 51.9781 31.4242 54.082C31.2532 54.2703 31.0182 54.367 30.782 54.367Z" fill="#0E4271"/>
<path fill-rule="evenodd" clip-rule="evenodd" d="M48.5284 31.1244C48.3077 31.1244 48.0861 31.0397 47.9173 30.8713C46.8528 29.8068 45.1198 29.8068 44.0553 30.8713C43.2508 31.6758 42.0291 30.4537 42.8336 29.65C45.7179 26.7688 50.5658 29.4441 49.1394 30.8713C48.9706 31.0406 48.7495 31.1244 48.5284 31.1244Z" fill="#0E4271"/>
<path fill-rule="evenodd" clip-rule="evenodd" d="M35.4278 31.1244C35.2067 31.1244 34.9855 31.0397 34.8176 30.8713C33.7531 29.8068 32.0196 29.8068 30.9551 30.8713C30.1506 31.6758 28.9298 30.4537 29.7339 29.6501C32.619 26.7679 37.4656 29.4458 36.0393 30.8713C35.87 31.0406 35.6493 31.1244 35.4278 31.1244Z" fill="#0E4271"/>
<path fill-rule="evenodd" clip-rule="evenodd" d="M43.1399 42.7418C42.9192 42.7418 42.6977 42.6572 42.5288 42.4888C40.8239 40.7838 38.0476 40.7838 36.3418 42.4888C35.5364 43.2937 34.3169 42.0699 35.1205 41.2666C38.9821 37.4094 45.3393 40.9013 43.7501 42.4888C43.5812 42.6576 43.3601 42.7418 43.1395 42.7418H43.1399Z" fill="#0E4271"/>
<path fill-rule="evenodd" clip-rule="evenodd" d="M39.2408 50.685C35.4984 50.685 33.8393 48.9887 31.1407 47.1443C27.7999 44.8646 25.9153 43.579 25.8056 38.1011C20.5544 35.1295 20.9858 31.0922 24.4453 28.1431C24.5127 23.563 25.6972 20.4045 28.0607 18.4948C28.2844 18.3139 28.5833 18.2569 28.8583 18.3411C36.2965 20.6329 42.6174 20.6217 50.0473 18.3411C50.3224 18.2573 50.6212 18.3143 50.8449 18.4948C53.9594 21.0108 54.4171 25.4026 54.4331 28.6635C57.9945 31.4178 58.1979 35.2077 53.0654 38.1019C52.9337 44.6707 50.0896 45.3738 45.7077 48.5586C43.8222 49.9297 41.5252 50.685 39.2408 50.685ZM28.8091 20.1324C27.0347 21.792 26.1701 24.5558 26.1701 28.5599C26.1701 29.5898 23.3955 30.4846 23.5881 33.064C23.6879 34.3993 24.8577 35.6624 27.0658 36.8215C27.3499 36.9709 27.5283 37.2654 27.5283 37.5859C27.5283 43.8593 29.8153 43.918 34.595 47.4669C37.5695 49.6754 41.7381 49.3096 44.6928 47.1616C49.2091 43.8787 51.3432 43.6909 51.3432 37.5859C51.3432 37.265 51.5216 36.9705 51.8057 36.8215C53.3543 36.0088 55.2156 34.7115 55.2899 33.1461C55.4009 30.7921 52.6997 30.1633 52.7061 29.1001C52.7234 26.2892 52.463 22.3629 50.0961 20.1333C42.7413 22.3314 36.1721 22.334 28.8091 20.1328V20.1324Z" fill="#0E4271"/>
<path fill-rule="evenodd" clip-rule="evenodd" d="M66.5394 77.5536H12.2914C11.8147 77.5536 11.4277 77.1662 11.4277 76.6899V65.2167C11.4277 58.2817 17.0702 52.6392 24.0052 52.6392H30.7852C31.9222 52.6392 31.9222 54.3665 30.7852 54.3665H24.0052C18.022 54.3665 13.1551 59.2334 13.1551 65.2162V75.8254H65.6761V65.2171C65.6761 59.2589 60.8295 54.4123 54.8714 54.4123H48.0914C46.9544 54.4123 46.9548 52.6849 48.0914 52.6849H54.8722C61.7822 52.6849 67.4044 58.3071 67.4044 65.2171V76.6899C67.404 77.1667 67.0166 77.5536 66.5398 77.5536H66.5394Z" fill="#0E4271"/>
<path fill-rule="evenodd" clip-rule="evenodd" d="M39.4128 60.6844C39.2336 60.6844 39.0544 60.6287 38.9024 60.5177L30.2719 54.2007C29.3573 53.5309 30.3786 52.1386 31.292 52.8058L39.4158 58.7524L47.5816 52.8477C48.4993 52.184 49.5119 53.5836 48.5938 54.2478L39.9189 60.5199C39.7682 60.6292 39.5903 60.6844 39.4132 60.6844H39.4128Z" fill="#0E4271"/>
<path fill-rule="evenodd" clip-rule="evenodd" d="M39.4145 77.5536C38.9377 77.5536 38.5508 77.1663 38.5508 76.6899V59.8199C38.5508 58.6829 40.2782 58.6833 40.2782 59.8199V76.6899C40.2782 77.1667 39.8921 77.5536 39.4145 77.5536Z" fill="#0E4271"/>
<path fill-rule="evenodd" clip-rule="evenodd" d="M57.2868 77.5537C56.81 77.5537 56.4231 77.1663 56.4231 76.69V65.6395C56.4231 64.5024 58.1505 64.5029 58.1505 65.6395V76.69C58.1505 77.1667 57.7631 77.5537 57.2868 77.5537ZM21.5395 77.5537C21.0627 77.5537 20.6758 77.1663 20.6758 76.69V65.6395C20.6758 64.5024 22.4032 64.5029 22.4032 65.6395V76.69C22.4032 77.1667 22.0171 77.5537 21.5395 77.5537Z" fill="#0E4271"/>
<path fill-rule="evenodd" clip-rule="evenodd" d="M21.5369 72.4544H12.2864C11.1493 72.4544 11.1493 70.7271 12.2864 70.7271H21.5369C22.6736 70.7271 22.674 72.4544 21.5369 72.4544Z" fill="#0E4271"/>
<path fill-rule="evenodd" clip-rule="evenodd" d="M65.9847 72.4544H57.2882C56.1511 72.4544 56.1516 70.7271 57.2882 70.7271H65.9847C67.1217 70.7271 67.1213 72.4544 65.9847 72.4544Z" fill="#0E4271"/>
<path fill-rule="evenodd" clip-rule="evenodd" d="M53.5688 29.9695C52.7966 29.9695 52.4088 29.0212 52.972 28.4822C55.7699 25.8057 55.4322 19.5944 55.3566 18.5835C53.501 14.525 54.4679 11.6092 55.0729 10.3961C52.2244 7.60425 45.1491 8.57504 42.5464 9.22065C41.6382 9.44694 41.0729 8.25202 41.8204 7.69149L44.415 5.74559C32.1773 3.91629 18.0029 17.8325 25.9847 28.0288C26.6825 28.9206 25.3226 29.9851 24.6252 29.0933C15.1583 16.999 32.5168 0.458078 46.683 4.46949C47.3688 4.66382 47.5359 5.56335 46.9654 5.99174L45.6962 6.94353C49.2188 6.56567 54.407 6.63735 56.815 9.76262C57.7084 10.9213 54.3517 12.3874 56.986 17.991C57.2045 18.4552 57.7521 26.2993 54.166 29.7298C53.9989 29.8896 53.7843 29.9695 53.5688 29.9695Z" fill="#0E4271"/>
<path fill-rule="evenodd" clip-rule="evenodd" d="M74.1487 41.2014L63.255 41.1975C62.1171 41.1975 62.1192 39.4709 63.255 39.4709L74.1487 39.4744C75.2862 39.4748 75.2849 41.2009 74.1487 41.2009V41.2014Z" fill="#0E4271"/>
<path fill-rule="evenodd" clip-rule="evenodd" d="M62.068 33.8923C61.1909 33.8923 60.8722 32.7211 61.6353 32.2806L72.529 25.9908C73.5132 25.422 74.3778 26.9184 73.3927 27.4863C72.1045 28.2295 62.6221 33.8918 62.0676 33.8918L62.068 33.8923Z" fill="#0E4271"/>
<path fill-rule="evenodd" clip-rule="evenodd" d="M72.9607 54.7972C72.4062 54.7972 62.9238 49.1344 61.6356 48.3916C60.6505 47.8233 61.5151 46.3287 62.4993 46.8961L73.393 53.186C74.1574 53.6265 73.8369 54.7972 72.9603 54.7972H72.9607Z" fill="#0E4271"/>
<path fill-rule="evenodd" clip-rule="evenodd" d="M16.759 33.8925C16.2058 33.8925 6.72034 28.2293 5.43387 27.4869C4.451 26.9195 5.31123 25.4214 6.29757 25.9914L17.1922 32.2813C17.9552 32.7217 17.6374 33.8929 16.759 33.8929V33.8925Z" fill="#0E4271"/>
<path fill-rule="evenodd" clip-rule="evenodd" d="M5.86751 54.7973C4.99043 54.7973 4.67043 53.6261 5.43437 53.1852L16.329 46.8954C17.3144 46.3266 18.1764 47.8225 17.1926 48.3908C15.9083 49.1327 6.41897 54.7968 5.86751 54.7968V54.7973Z" fill="#0E4271"/>
<path fill-rule="evenodd" clip-rule="evenodd" d="M5.86624 41.2014C4.72963 41.2014 4.72963 39.4749 5.86538 39.4749L16.7591 39.4714C17.8962 39.4714 17.8962 41.198 16.76 41.198L5.86624 41.2018V41.2014Z" fill="#0E4271"/>
</svg>
