<svg width="80" height="81" viewBox="0 0 80 81" fill="none" xmlns="http://www.w3.org/2000/svg">
<path fill-rule="evenodd" clip-rule="evenodd" d="M62.1519 57.3363C61.7205 57.3363 61.3156 57.1689 61.0106 56.8652L55.0291 50.8829C54.3991 50.2529 54.3991 49.23 55.0291 48.5991L66.163 37.4661C66.7712 36.8575 67.8364 36.8575 68.4464 37.4653L74.4287 43.4467C75.0574 44.0763 75.0587 45.0997 74.4274 45.7305L63.2944 56.8644C62.9903 57.1681 62.5841 57.3363 62.1523 57.3363H62.1519ZM56.3037 49.7412L62.1519 55.5898L73.1524 44.5884L67.3043 38.7402L56.3037 49.7412Z" fill="#0E4271"/>
<path fill-rule="evenodd" clip-rule="evenodd" d="M57.6433 57.8677C56.5905 57.8677 55.4381 56.3326 54.3293 55.2233C52.8702 53.7639 54.9994 52.2694 56.3116 50.9568C56.6456 50.6228 57.1867 50.6228 57.5199 50.9568C61.9581 55.3989 61.9312 54.2602 58.7863 57.3961C58.4805 57.7002 58.0752 57.8677 57.6433 57.8677ZM55.6038 54.0812L57.6438 56.1212L58.9559 54.8086L56.9159 52.7691L55.6038 54.0812Z" fill="#0E4271"/>
<path fill-rule="evenodd" clip-rule="evenodd" d="M52.5469 60.0323C51.793 60.0323 51.4026 59.1132 51.9425 58.5733L55.4154 55.1012C56.212 54.3046 57.4187 55.5151 56.6242 56.3099L53.1513 59.782C52.9851 59.949 52.7664 60.0323 52.5473 60.0323H52.5469Z" fill="#0E4271"/>
<path fill-rule="evenodd" clip-rule="evenodd" d="M71.8991 42.9789C71.2712 42.9789 69.9331 41.3669 69.1664 40.6002C68.8324 40.2662 68.8328 39.7251 69.1664 39.3919C73.0617 35.4995 71.9901 35.5183 75.2473 38.7756C75.5813 39.1096 75.5809 39.6499 75.2473 39.9835C74.4067 40.8241 72.5535 42.9789 71.8991 42.9789ZM70.9791 39.9972L71.8991 40.9172L73.4355 39.3812L72.5154 38.4612L70.9791 39.9972Z" fill="#0E4271"/>
<path fill-rule="evenodd" clip-rule="evenodd" d="M76.0395 41.6352C75.8212 41.6352 75.6021 41.5515 75.4351 41.3849L70.5065 36.4564C69.7104 35.6611 70.9204 34.4527 71.7153 35.2485L76.6439 40.177C77.185 40.7178 76.7921 41.6352 76.0399 41.6352H76.0395Z" fill="#0E4271"/>
<path fill-rule="evenodd" clip-rule="evenodd" d="M70.8046 48.9997C70.5863 48.9997 70.3672 48.916 70.2002 48.7494L63.1432 41.6924C62.3471 40.8971 63.5571 39.6888 64.352 40.4845L71.4089 47.5406C71.9497 48.0814 71.5576 48.9997 70.805 48.9997H70.8046Z" fill="#0E4271"/>
<path fill-rule="evenodd" clip-rule="evenodd" d="M60.991 47.8376C60.3985 47.8376 59.4965 46.6959 58.8186 46.0181C58.0233 45.2236 59.2329 44.014 60.0274 44.811C61.0491 45.8361 62.4188 46.7625 61.5945 47.5873C61.4283 47.7539 61.2092 47.8376 60.991 47.8376Z" fill="#0E4271"/>
<path fill-rule="evenodd" clip-rule="evenodd" d="M63.4148 45.415C62.8224 45.415 61.9203 44.2733 61.2424 43.5959C60.4471 42.801 61.6568 41.5914 62.4512 42.3889C63.4729 43.414 64.8427 44.3404 64.0183 45.1652C63.8522 45.3318 63.6331 45.4155 63.4148 45.4155V45.415Z" fill="#0E4271"/>
<path fill-rule="evenodd" clip-rule="evenodd" d="M58.5691 50.2597C57.9767 50.2597 57.0746 49.118 56.3967 48.4402C55.6014 47.6457 56.8111 46.4361 57.6055 47.2331C58.6272 48.2582 59.997 49.1847 59.1726 50.0094C59.0065 50.176 58.7874 50.2597 58.5691 50.2597Z" fill="#0E4271"/>
<path fill-rule="evenodd" clip-rule="evenodd" d="M39.2742 54.5129C39.0406 54.5129 38.8078 54.4172 38.6395 54.2306C36.7982 52.1894 36.5278 49.4173 36.6244 47.4504C36.6799 46.3335 38.3867 46.4065 38.3311 47.535C38.0719 52.8087 41.1117 53.15 39.8462 54.2921C39.6826 54.4399 39.4784 54.5129 39.2742 54.5129Z" fill="#0E4271"/>
<path fill-rule="evenodd" clip-rule="evenodd" d="M22.6378 54.4693C21.9053 54.4693 21.5068 53.5937 22.0044 53.0423C24.7192 50.0328 22.6216 46.7329 24.4223 46.6564C24.8964 46.635 25.292 47.0028 25.3116 47.4748C25.3915 49.4169 25.1032 52.159 23.2721 54.187C23.1034 54.3732 22.8719 54.4693 22.6378 54.4693Z" fill="#0E4271"/>
<path fill-rule="evenodd" clip-rule="evenodd" d="M27.1 32.1215C26.8814 32.1215 26.6627 32.0378 26.4961 31.8716C25.4821 30.8572 23.8308 30.8572 22.8164 31.8716C22.0207 32.6665 20.8128 31.4586 21.6077 30.6628C24.3942 27.8742 29.1037 30.4659 27.7031 31.8716C27.5374 32.0386 27.3187 32.1215 27.0996 32.1215H27.1Z" fill="#0E4271"/>
<path fill-rule="evenodd" clip-rule="evenodd" d="M39.6977 32.1215C39.479 32.1215 39.2603 32.0378 39.0938 31.8716C38.0793 30.8572 36.4285 30.8572 35.4141 31.8716C34.6183 32.6665 33.4104 31.4586 34.2053 30.6629C36.9927 27.8733 41.7018 30.4677 40.3008 31.8716C40.1347 32.0386 39.9155 32.1215 39.6973 32.1215H39.6977Z" fill="#0E4271"/>
<path fill-rule="evenodd" clip-rule="evenodd" d="M27.3925 43.2916C26.6394 43.2916 26.2478 42.3724 26.7885 41.8325C30.5233 38.1021 36.6781 41.4853 35.1191 43.0413C34.7851 43.3749 34.2448 43.3753 33.9112 43.0413C32.2805 41.4101 29.6276 41.4106 27.996 43.0413C27.8294 43.2083 27.6111 43.2916 27.3925 43.2916Z" fill="#0E4271"/>
<path fill-rule="evenodd" clip-rule="evenodd" d="M30.7681 50.9295C27.1597 50.9295 25.5683 49.297 22.9667 47.5215C19.7508 45.3265 17.9356 44.0878 17.8275 38.821C12.7832 35.9605 13.1881 32.0707 16.5196 29.2214C16.5859 24.8169 17.728 21.7766 20.0045 19.9374C20.2254 19.758 20.5214 19.7021 20.7934 19.7854C27.9405 21.988 34.0121 21.9769 41.1519 19.7858C41.4239 19.7029 41.7195 19.7589 41.9408 19.9374C44.94 22.3601 45.3834 26.5822 45.4005 29.7211C48.8277 32.3829 49.0156 36.0366 44.0854 38.8214C43.9551 45.1356 41.2176 45.8164 37.0015 48.881C35.1832 50.2021 32.969 50.9299 30.7676 50.9299L30.7681 50.9295ZM20.7448 21.5571C19.0499 23.1494 18.2247 25.7975 18.2247 29.6331C18.2247 30.6441 15.5569 31.4885 15.7419 33.9616C15.8375 35.2357 16.9579 36.4445 19.0726 37.555C19.3536 37.7028 19.53 37.9941 19.53 38.311C19.53 44.327 21.7241 44.383 26.3149 47.7919C29.1599 49.9044 33.1544 49.5631 35.9956 47.498C40.3326 44.3462 42.3803 44.1647 42.3803 38.311C42.3803 37.9936 42.5567 37.7023 42.8377 37.555C44.3233 36.7755 46.1078 35.5321 46.1748 34.0359C46.2752 31.7935 43.6847 31.1925 43.6911 30.1516C43.7078 27.4578 43.4588 23.6974 41.1984 21.5571C34.1325 23.6675 27.8183 23.6692 20.7448 21.5571Z" fill="#0E4271"/>
<path fill-rule="evenodd" clip-rule="evenodd" d="M57.0129 76.7623H4.85425C4.3827 76.7623 4 76.3792 4 75.908V64.8771C4 58.1965 9.43515 52.7605 16.1162 52.7605H22.6354C23.76 52.7605 23.76 54.469 22.6354 54.469H16.1158C10.377 54.469 5.70807 59.1375 5.70807 64.8767V75.0529H56.1578V64.8767C56.1578 59.1614 51.5081 54.5126 45.7928 54.5126H39.2736C38.1494 54.5126 38.1494 52.8041 39.2736 52.8041H45.7928C52.4503 52.8041 57.8667 58.22 57.8667 64.8776V75.9085C57.8667 76.3796 57.484 76.7627 57.0124 76.7627L57.0129 76.7623Z" fill="#0E4271"/>
<path fill-rule="evenodd" clip-rule="evenodd" d="M30.9324 60.5426C30.7551 60.5426 30.5783 60.4875 30.4275 60.3773L22.1294 54.304C21.2247 53.642 22.2349 52.2641 23.1382 52.9248L30.9349 58.6316L38.7718 52.965C39.679 52.3077 40.681 53.6928 39.773 54.3497L31.4317 60.3799C31.283 60.4875 31.1075 60.5426 30.932 60.5426H30.9324Z" fill="#0E4271"/>
<path fill-rule="evenodd" clip-rule="evenodd" d="M30.9343 76.7622C30.4628 76.7622 30.0801 76.3791 30.0801 75.908V59.6875C30.0801 58.5629 31.7886 58.5634 31.7886 59.6875V75.9071C31.7886 76.3791 31.4063 76.7622 30.9343 76.7622Z" fill="#0E4271"/>
<path fill-rule="evenodd" clip-rule="evenodd" d="M48.119 76.7623C47.6474 76.7623 47.2647 76.3792 47.2647 75.9081V65.2842C47.2647 64.1596 48.9732 64.16 48.9732 65.2842V75.9081C48.9732 76.3792 48.5905 76.7623 48.119 76.7623ZM13.7488 76.7623C13.2772 76.7623 12.8945 76.3792 12.8945 75.9081V65.2842C12.8945 64.1596 14.603 64.16 14.603 65.2842V75.9081C14.603 76.3792 14.2212 76.7623 13.7488 76.7623Z" fill="#0E4271"/>
<path fill-rule="evenodd" clip-rule="evenodd" d="M13.7473 71.8594H4.85291C3.72872 71.8594 3.72872 70.1509 4.85291 70.1509H13.7473C14.8715 70.1509 14.8719 71.8594 13.7473 71.8594Z" fill="#0E4271"/>
<path fill-rule="evenodd" clip-rule="evenodd" d="M56.4796 71.8594H48.1187C46.9941 71.8594 46.9945 70.1509 48.1187 70.1509H56.4801C57.6047 70.1509 57.6047 71.8594 56.4796 71.8594Z" fill="#0E4271"/>
<path fill-rule="evenodd" clip-rule="evenodd" d="M44.5436 31.0109C43.779 31.0109 43.3959 30.073 43.9537 29.5399C46.6258 26.9836 46.3114 21.029 46.2393 20.0458C44.462 16.1556 45.3765 13.3528 45.9608 12.1731C43.2225 9.51208 36.4466 10.4428 33.9522 11.0608C33.0544 11.2838 32.494 10.1032 33.2342 9.54796L35.682 7.71175C23.9494 6.00582 10.3933 19.3364 18.0401 29.1064C18.7304 29.9884 17.3853 31.0413 16.6955 30.1592C7.57773 18.5009 24.2966 2.58456 37.93 6.44704C38.6083 6.63925 38.7736 7.52895 38.2093 7.95265L37.0587 8.8163C40.4479 8.46178 45.3829 8.55575 47.6846 11.5443C48.562 12.6818 45.3184 14.0721 47.8516 19.4602C48.0678 19.9202 48.5854 27.4829 45.1356 30.7743C44.9698 30.9319 44.7576 31.0109 44.5444 31.0109H44.5436Z" fill="#0E4271"/>
</svg>
