<svg width="52" height="52" viewBox="0 0 52 52" fill="none" xmlns="http://www.w3.org/2000/svg">
<path d="M21.6328 7.27041C21.6328 5.37291 23.6719 3 25.9032 3C28.1345 3 30.1736 5.37268 30.1736 7.27041C30.1736 9.16814 26.3777 23.4031 26.3777 23.4031C26.3777 23.4031 21.6328 9.1679 21.6328 7.27041Z" fill="#F3776D"/>
<path d="M21.6328 45.2296C21.6328 47.1271 23.6719 49.5 25.9032 49.5C28.1345 49.5 30.1736 47.1273 30.1736 45.2296C30.1736 43.3319 26.3777 29.0969 26.3777 29.0969C26.3777 29.0969 21.6328 43.3321 21.6328 45.2296Z" fill="#F3776D"/>
<path d="M39.9322 12.7719C41.5557 11.7897 44.6414 12.3061 45.7964 14.2152C46.9514 16.1243 45.9769 19.0971 44.3532 20.0795C42.7295 21.0618 28.5851 25.1824 28.5851 25.1824C28.5851 25.1824 38.3087 13.7541 39.9322 12.7719Z" fill="#F3776D"/>
<path d="M7.45456 32.4205C5.83105 33.4027 4.85629 36.3756 6.01128 38.2848C7.16628 40.1939 10.2519 40.7104 11.8756 39.728C13.4993 38.7457 23.7138 28.1294 23.7138 28.1294C23.7138 28.1294 9.07806 31.4383 7.45456 32.4205Z" fill="#F3776D"/>
<path d="M44.0659 33.2093C45.6456 34.2605 46.4915 37.2727 45.2554 39.1303C44.0193 40.9879 40.9143 41.3711 39.3344 40.3198C37.7545 39.2685 28.0064 28.2224 28.0064 28.2224C28.0064 28.2224 42.4861 32.1582 44.0659 33.2093Z" fill="#F3776D"/>
<path d="M12.4693 12.1801C10.8896 11.1289 7.78444 11.5119 6.54834 13.3696C5.31224 15.2272 6.15794 18.2392 7.73785 19.2905C9.31777 20.3418 23.2716 25.0675 23.2716 25.0675C23.2716 25.0675 14.049 13.2312 12.4693 12.1801Z" fill="#F3776D"/>
<circle cx="26.3784" cy="26.25" r="1.89796" fill="#F3776D"/>
</svg>
