<svg width="52" height="52" viewBox="0 0 52 52" fill="none" xmlns="http://www.w3.org/2000/svg">
<path d="M22.0859 8.54282C22.0859 6.52428 24.2551 4 26.6288 4C29.0024 4 31.1716 6.52404 31.1716 8.54282C31.1716 10.5616 27.1335 25.7046 27.1335 25.7046C27.1335 25.7046 22.0859 10.5614 22.0859 8.54282Z" fill="#F3776D"/>
<path d="M21.6992 43.5014C21.6992 45.5199 23.8684 48.0442 26.242 48.0442C28.6157 48.0442 30.7849 45.5202 30.7849 43.5014C30.7849 41.4826 26.7468 26.3396 26.7468 26.3396C26.7468 26.3396 21.6992 41.4828 21.6992 43.5014Z" fill="#F3776D"/>
<path d="M38.8944 12.7342C40.6215 11.6893 43.9041 12.2386 45.1328 14.2695C46.3614 16.3004 45.3247 19.4629 43.5974 20.5079C41.8701 21.5529 26.8235 25.9364 26.8235 25.9364C26.8235 25.9364 37.1673 13.7791 38.8944 12.7342Z" fill="#F3776D"/>
<path d="M7.88685 30.9679C6.15979 32.0128 5.12284 35.1754 6.35151 37.2063C7.58018 39.2372 10.8626 39.7866 12.5899 38.7417C14.3172 37.6967 25.1833 26.4032 25.1833 26.4032C25.1833 26.4032 9.61392 29.9231 7.88685 30.9679Z" fill="#F3776D"/>
<path d="M43.5344 31.5918C45.2149 32.71 46.1147 35.9143 44.7998 37.8904C43.4848 39.8666 40.1818 40.2742 38.5011 39.1558C36.8204 38.0375 26.4504 26.2867 26.4504 26.2867C26.4504 26.2867 41.8539 30.4735 43.5344 31.5918Z" fill="#F3776D"/>
<path d="M13.8797 12.8993C12.1992 11.7811 8.89597 12.1886 7.58102 14.1647C6.26607 16.1408 7.16572 19.345 8.84642 20.4634C10.5271 21.5818 25.3711 26.6089 25.3711 26.6089C25.3711 26.6089 15.5602 14.0176 13.8797 12.8993Z" fill="#F3776D"/>
<circle cx="26.345" cy="26.3396" r="7.44653" fill="#F3776D"/>
</svg>
