<svg width="40" height="40" viewBox="0 0 40 40" fill="none" xmlns="http://www.w3.org/2000/svg">
<circle cx="20" cy="20" r="17" fill="#0E4271"/>
<path d="M15.4513 9.1665H24.5513C28.018 9.1665 30.8346 11.9832 30.8346 15.4498V24.5498C30.8346 26.2163 30.1726 27.8145 28.9943 28.9928C27.8159 30.1712 26.2177 30.8332 24.5513 30.8332H15.4513C11.9846 30.8332 9.16797 28.0165 9.16797 24.5498V15.4498C9.16797 13.7834 9.82996 12.1852 11.0083 11.0068C12.1867 9.8285 13.7849 9.1665 15.4513 9.1665ZM15.2346 11.3332C14.2003 11.3332 13.2083 11.7441 12.4769 12.4755C11.7455 13.2068 11.3346 14.1988 11.3346 15.2332V24.7665C11.3346 26.9223 13.0788 28.6665 15.2346 28.6665H24.768C25.8023 28.6665 26.7943 28.2556 27.5257 27.5242C28.2571 26.7928 28.668 25.8008 28.668 24.7665V15.2332C28.668 13.0773 26.9238 11.3332 24.768 11.3332H15.2346ZM25.6888 12.9582C26.048 12.9582 26.3924 13.1008 26.6463 13.3548C26.9003 13.6088 27.043 13.9532 27.043 14.3123C27.043 14.6715 26.9003 15.0159 26.6463 15.2699C26.3924 15.5238 26.048 15.6665 25.6888 15.6665C25.3297 15.6665 24.9852 15.5238 24.7313 15.2699C24.4773 15.0159 24.3346 14.6715 24.3346 14.3123C24.3346 13.9532 24.4773 13.6088 24.7313 13.3548C24.9852 13.1008 25.3297 12.9582 25.6888 12.9582ZM20.0013 14.5832C21.4379 14.5832 22.8156 15.1539 23.8315 16.1697C24.8473 17.1855 25.418 18.5632 25.418 19.9998C25.418 21.4364 24.8473 22.8142 23.8315 23.83C22.8156 24.8458 21.4379 25.4165 20.0013 25.4165C18.5647 25.4165 17.187 24.8458 16.1711 23.83C15.1553 22.8142 14.5846 21.4364 14.5846 19.9998C14.5846 18.5632 15.1553 17.1855 16.1711 16.1697C17.187 15.1539 18.5647 14.5832 20.0013 14.5832ZM20.0013 16.7498C19.1393 16.7498 18.3127 17.0922 17.7032 17.7017C17.0937 18.3112 16.7513 19.1379 16.7513 19.9998C16.7513 20.8618 17.0937 21.6884 17.7032 22.2979C18.3127 22.9074 19.1393 23.2498 20.0013 23.2498C20.8633 23.2498 21.6899 22.9074 22.2994 22.2979C22.9089 21.6884 23.2513 20.8618 23.2513 19.9998C23.2513 19.1379 22.9089 18.3112 22.2994 17.7017C21.6899 17.0922 20.8633 16.7498 20.0013 16.7498Z" fill="white"/>
</svg>
