<svg width="20" height="21" viewBox="0 0 20 21" fill="none" xmlns="http://www.w3.org/2000/svg">
<path d="M16.2513 3.83317H13.7513V2.58317C13.7513 2.47266 13.7074 2.36668 13.6293 2.28854C13.5511 2.2104 13.4451 2.1665 13.3346 2.1665C13.2241 2.1665 13.1181 2.2104 13.04 2.28854C12.9619 2.36668 12.918 2.47266 12.918 2.58317V3.83317H7.08464V2.58317C7.08464 2.47266 7.04074 2.36668 6.9626 2.28854C6.88446 2.2104 6.77848 2.1665 6.66797 2.1665C6.55746 2.1665 6.45148 2.2104 6.37334 2.28854C6.2952 2.36668 6.2513 2.47266 6.2513 2.58317V3.83317H3.7513C3.19897 3.83383 2.66945 4.05354 2.27889 4.4441C1.88834 4.83465 1.66863 5.36417 1.66797 5.9165V16.7498C1.66863 17.3022 1.88834 17.8317 2.27889 18.2222C2.66945 18.6128 3.19897 18.8325 3.7513 18.8332H16.2513C16.8038 18.8332 17.3337 18.6137 17.7244 18.223C18.1151 17.8323 18.3346 17.3024 18.3346 16.7498V5.9165C18.3346 5.36397 18.1151 4.83407 17.7244 4.44336C17.3337 4.05266 16.8038 3.83317 16.2513 3.83317ZM17.5013 16.7498C17.5013 17.0814 17.3696 17.3993 17.1352 17.6337C16.9008 17.8681 16.5828 17.9998 16.2513 17.9998H3.7513C3.41978 17.9998 3.10184 17.8681 2.86742 17.6337C2.633 17.3993 2.5013 17.0814 2.5013 16.7498V9.6665H17.5013V16.7498ZM17.5013 8.83317H2.5013V5.9165C2.5013 5.2265 3.05964 4.6665 3.7513 4.6665H6.2513V5.9165C6.2513 6.02701 6.2952 6.13299 6.37334 6.21113C6.45148 6.28927 6.55746 6.33317 6.66797 6.33317C6.77848 6.33317 6.88446 6.28927 6.9626 6.21113C7.04074 6.13299 7.08464 6.02701 7.08464 5.9165V4.6665H12.918V5.9165C12.918 6.02701 12.9619 6.13299 13.04 6.21113C13.1181 6.28927 13.2241 6.33317 13.3346 6.33317C13.4451 6.33317 13.5511 6.28927 13.6293 6.21113C13.7074 6.13299 13.7513 6.02701 13.7513 5.9165V4.6665H16.2513C16.5828 4.6665 16.9008 4.7982 17.1352 5.03262C17.3696 5.26704 17.5013 5.58498 17.5013 5.9165V8.83317Z" fill="#0E4271"/>
</svg>
