<svg width="21" height="21" viewBox="0 0 21 21" fill="none" xmlns="http://www.w3.org/2000/svg">
<path fill-rule="evenodd" clip-rule="evenodd" d="M14.2609 12.9159L18.7442 17.3993C18.9018 17.557 18.9903 17.7708 18.9902 17.9937C18.9901 18.2167 18.9015 18.4304 18.7438 18.588C18.5861 18.7456 18.3723 18.8341 18.1493 18.834C17.9264 18.8339 17.7126 18.7453 17.555 18.5876L13.0717 14.1043C11.7315 15.1423 10.0461 15.6308 8.35848 15.4704C6.67085 15.31 5.10773 14.5126 3.98711 13.2406C2.86648 11.9686 2.27253 10.3175 2.32608 8.62307C2.37964 6.92868 3.07667 5.31833 4.27538 4.11962C5.47409 2.9209 7.08444 2.22387 8.77883 2.17032C10.4732 2.11677 12.1244 2.71072 13.3964 3.83135C14.6684 4.95197 15.4657 6.51509 15.6262 8.20272C15.7866 9.89034 15.2981 11.5757 14.26 12.9159M8.99004 13.8334C10.3161 13.8334 11.5879 13.3067 12.5256 12.369C13.4633 11.4313 13.99 10.1595 13.99 8.83345C13.99 7.50736 13.4633 6.23559 12.5256 5.29791C11.5879 4.36023 10.3161 3.83345 8.99004 3.83345C7.66396 3.83345 6.39219 4.36023 5.45451 5.29791C4.51683 6.23559 3.99004 7.50736 3.99004 8.83345C3.99004 10.1595 4.51683 11.4313 5.45451 12.369C6.39219 13.3067 7.66396 13.8334 8.99004 13.8334Z" fill="#8D99AF"/>
</svg>
