<svg width="40" height="40" viewBox="0 0 40 40" fill="none" xmlns="http://www.w3.org/2000/svg">
<circle cx="20" cy="20" r="17" fill="white"/>
<path d="M15.4501 9.16699H24.5501C28.0168 9.16699 30.8334 11.9837 30.8334 15.4503V24.5503C30.8334 26.2168 30.1714 27.815 28.9931 28.9933C27.8147 30.1717 26.2165 30.8337 24.5501 30.8337H15.4501C11.9834 30.8337 9.16675 28.017 9.16675 24.5503V15.4503C9.16675 13.7839 9.82874 12.1857 11.0071 11.0073C12.1854 9.82898 13.7836 9.16699 15.4501 9.16699ZM15.2334 11.3337C14.1991 11.3337 13.2071 11.7446 12.4757 12.4759C11.7443 13.2073 11.3334 14.1993 11.3334 15.2337V24.767C11.3334 26.9228 13.0776 28.667 15.2334 28.667H24.7667C25.8011 28.667 26.7931 28.2561 27.5245 27.5247C28.2559 26.7933 28.6667 25.8013 28.6667 24.767V15.2337C28.6667 13.0778 26.9226 11.3337 24.7667 11.3337H15.2334ZM25.6876 12.9587C26.0467 12.9587 26.3912 13.1013 26.6451 13.3553C26.8991 13.6092 27.0417 13.9537 27.0417 14.3128C27.0417 14.672 26.8991 15.0164 26.6451 15.2704C26.3912 15.5243 26.0467 15.667 25.6876 15.667C25.3284 15.667 24.984 15.5243 24.73 15.2704C24.4761 15.0164 24.3334 14.672 24.3334 14.3128C24.3334 13.9537 24.4761 13.6092 24.73 13.3553C24.984 13.1013 25.3284 12.9587 25.6876 12.9587ZM20.0001 14.5837C21.4367 14.5837 22.8144 15.1543 23.8302 16.1702C24.8461 17.186 25.4167 18.5637 25.4167 20.0003C25.4167 21.4369 24.8461 22.8147 23.8302 23.8305C22.8144 24.8463 21.4367 25.417 20.0001 25.417C18.5635 25.417 17.1857 24.8463 16.1699 23.8305C15.1541 22.8147 14.5834 21.4369 14.5834 20.0003C14.5834 18.5637 15.1541 17.186 16.1699 16.1702C17.1857 15.1543 18.5635 14.5837 20.0001 14.5837ZM20.0001 16.7503C19.1381 16.7503 18.3115 17.0927 17.702 17.7022C17.0925 18.3117 16.7501 19.1384 16.7501 20.0003C16.7501 20.8623 17.0925 21.6889 17.702 22.2984C18.3115 22.9079 19.1381 23.2503 20.0001 23.2503C20.862 23.2503 21.6887 22.9079 22.2982 22.2984C22.9077 21.6889 23.2501 20.8623 23.2501 20.0003C23.2501 19.1384 22.9077 18.3117 22.2982 17.7022C21.6887 17.0927 20.862 16.7503 20.0001 16.7503Z" fill="#0E4271"/>
</svg>
