<svg width="271" height="116" viewBox="0 0 271 116" fill="none" xmlns="http://www.w3.org/2000/svg">
<g clip-path="url(#clip0_3001_49)">
<path d="M144.754 28.9336C149.876 29.993 150.207 33.0387 150.207 33.0387C156.585 25.2921 145.745 23.3058 145.811 23.3058L134.773 20.6905C128.461 19.1345 128.295 17.4131 128.295 17.4131C126.279 24.8617 133.286 25.9873 133.286 25.9873L144.754 28.9336Z" fill="white"/>
<path d="M168.384 10.0639C166.764 6.95205 163.096 7.77968 163.096 7.77968C159.196 8.5411 158.304 5.56164 158.304 5.56164C158.171 8.27626 160.518 9.10388 160.518 9.10388C160.353 9.03767 159.262 10.4281 159.13 10.5936C158.733 11.1233 158.403 11.6861 158.138 12.282C157.312 14.169 156.982 16.2546 157.048 18.3071C157.081 18.9692 157.081 19.6313 157.18 20.2603C156.618 19.3333 155.99 18.3071 155.197 17.5788C154.206 16.6518 152.19 15.7911 150.735 15.46L150.207 15.3276L133.253 10.2957C126.775 7.68037 124.164 0 124.164 0C119.67 11.9509 128.527 14.9966 128.527 14.9966L148.587 20.9555L148.918 21.0879C148.918 21.0879 157.411 23.0742 158.171 34.8596C158.171 34.7272 158.899 34.1975 159.229 33.8995C166.301 28.5034 163.79 17.645 163.79 17.645C163.492 13.3744 166.235 12.7454 166.235 12.7454C170.796 11.5205 172.052 13.4075 172.052 13.4075C171.887 10.9578 168.384 10.0639 168.384 10.0639Z" fill="white"/>
<path d="M151.529 35.3231C151.297 35.621 151.066 35.9189 150.868 36.2169C150.603 36.581 150.306 36.9452 150.041 37.3094C149.744 37.7066 149.48 38.0708 149.182 38.468C148.885 38.8653 148.62 39.2294 148.323 39.6267C148.025 40.024 147.728 40.4212 147.431 40.8185C147.133 41.2158 146.869 41.5799 146.571 41.9772C146.307 42.3413 146.01 42.7055 145.745 43.1027C145.481 43.4669 145.216 43.831 144.919 44.1952C144.688 44.5263 144.423 44.8573 144.192 45.1884C143.96 45.4863 143.762 45.7842 143.531 46.0822C143.333 46.347 143.134 46.645 142.903 46.9429C141.284 48.9954 141.184 50.7831 141.184 50.7831C141.019 51.9087 140.953 53.1005 141.151 54.226C141.284 54.9212 141.515 55.5833 141.812 56.2123C142.11 56.8082 142.473 57.371 142.87 57.9007C143.266 58.3973 143.663 58.8938 144.126 59.3242C144.555 59.7546 144.985 60.1518 145.415 60.516C145.811 60.847 146.241 61.1781 146.67 61.476C147.001 61.7078 147.331 61.9064 147.662 62.105C147.86 62.2374 148.092 62.3368 148.29 62.4692C148.356 62.5023 148.587 62.5685 148.653 62.6347C142.705 54.3253 150.273 46.7112 150.273 46.7112L154.668 40.8847L154.701 40.8185C154.999 40.3881 155.263 39.9578 155.461 39.5605L155.495 39.4943C155.495 39.4943 155.495 39.4943 155.495 39.4612C158.337 33.8333 154.007 28.6689 154.007 28.6689C153.908 31.1187 152.652 33.6016 151.529 35.3231Z" fill="white"/>
<path d="M30.1074 65.4487C25.1832 64.0914 22.7045 63.7603 18.97 63.7603V99.1165C18.97 100.209 19.3005 101.037 19.8293 101.831H12.4924C12.9882 101.037 13.3848 100.143 13.3848 98.9841V63.7603C9.65024 63.7603 7.17159 64.0914 2.24732 65.4487L0 61.6416H32.3548L30.1074 65.4487Z" fill="white"/>
<path d="M43.327 80.5779C45.0786 76.208 48.4826 73.7913 51.6553 73.7913C58.1659 73.7913 61.3716 78.5585 61.3716 84.6829V99.0836C61.3716 100.342 61.8343 101.136 62.3961 101.864H55.0923C55.5881 101.07 56.0508 100.11 56.0508 98.9181V85.4774C56.0508 81.6704 55.8855 76.2411 51.2587 76.2411C47.0615 76.2411 43.327 80.7765 43.327 84.7822V98.8187C43.327 100.011 43.7897 101.037 44.3515 101.831H37.0477C37.6095 100.971 38.0722 99.9112 38.0722 98.6532V66.6407C38.0722 64.8861 37.2129 63.1315 36.0232 62.2046H38.8984C41.5423 62.2046 43.2939 63.9592 43.2939 66.6407V80.5779H43.327Z" fill="white"/>
<path d="M73.4344 90.6083C73.4344 95.4747 75.6817 100.937 82.8863 100.937C88.3724 100.937 92.4044 97.8252 94.3212 93.9188L95.4118 95.5078C92.801 100.209 88.2733 102.692 82.7541 102.692C74.6572 102.692 67.7169 97.3617 67.7169 88.4233C67.7169 79.5843 74.558 73.7578 82.027 73.7578C86.6208 73.7578 93.8585 75.9096 93.8585 81.6368C93.8585 85.6094 90.4214 88.8868 85.365 89.4165L73.4344 90.6083ZM81.6305 75.2475C75.7478 75.2475 73.4344 81.5375 73.4344 89.3503L83.1507 88.3902C86.9513 87.993 89.5291 85.4439 89.5291 82.2658C89.5291 78.4918 85.8607 75.2475 81.6305 75.2475Z" fill="white"/>
<path d="M116.794 79.9486C115.902 78.2602 114.183 77.1677 112.564 77.1677C109.92 77.1677 107.012 79.9486 107.012 85.0467V98.5205C107.012 99.8116 107.508 100.904 108.103 101.798H100.799C101.294 100.937 101.691 99.9109 101.691 98.686V77.7967C101.691 76.2739 100.799 75.2476 100.204 74.6849H103.046C106.714 74.6849 106.714 77.7967 106.714 80.9748C108.532 75.6449 112.201 74.1221 115.043 74.1221C115.77 74.1221 116.53 74.2214 116.794 74.2876V79.9486Z" fill="white"/>
<path d="M138.871 96.6334C138.012 98.5535 135.136 102.692 128.395 102.692C123.933 102.692 119.868 100.871 119.868 95.6071C119.868 86.3046 132.526 85.1128 138.871 83.921C138.871 76.9359 136.657 74.6185 133.848 74.6185C129.716 74.6185 124.296 79.3857 122.181 81.4713L120.826 77.2338C123.536 75.082 129.188 73.2612 134.244 73.2612C139.565 73.2612 144.192 75.3137 144.192 81.1402V96.9644C144.192 99.4473 144.754 100.374 145.877 101.831H142.936C140.49 101.831 138.871 100.242 138.871 97.792V96.6334ZM124.891 94.0843C124.891 96.0706 125.453 100.871 130.377 100.871C134.806 100.871 138.871 97.0637 138.871 91.7007V85.1128C128.13 87.3309 124.891 89.3503 124.891 94.0843Z" fill="white"/>
<path d="M157.411 114.477L152.157 116V81.4383C152.157 79.452 152.091 76.4063 151.033 74.5855H157.312V78.823C158.766 76.1084 162.005 73.9565 166.632 73.9565C174.564 73.9565 178.893 80.2465 178.893 88.1255C178.893 96.2693 174.2 102.559 166.401 102.559C162.038 102.559 158.866 100.573 157.411 98.1563V114.477ZM165.343 75.4794C161.774 75.4794 157.312 77.6312 157.312 84.0867V94.4486C158.403 99.646 161.741 100.507 165.442 100.507C170.366 100.507 173.473 96.2693 173.473 88.1586C173.473 80.71 170.829 75.4794 165.343 75.4794Z" fill="white"/>
<path d="M189.766 90.6083C189.766 95.4747 192.013 100.937 199.218 100.937C204.704 100.937 208.736 97.8252 210.653 93.9188L211.744 95.5078C209.133 100.209 204.605 102.692 199.086 102.692C190.989 102.692 184.049 97.3617 184.049 88.4233C184.049 79.5843 190.89 73.7578 198.359 73.7578C202.953 73.7578 210.19 75.9096 210.19 81.6368C210.19 85.6094 206.753 88.8868 201.697 89.4165L189.766 90.6083ZM197.962 75.2475C192.08 75.2475 189.766 81.5375 189.766 89.3503L199.482 88.3902C203.283 87.993 205.861 85.4439 205.861 82.2658C205.894 78.4918 202.226 75.2475 197.962 75.2475Z" fill="white"/>
<path d="M241.289 74.5854L230.416 101.831H225.062L214.024 74.5854H221.79C221.493 75.2144 221.394 75.9428 221.394 76.7373C221.394 77.6311 221.559 78.5912 222.022 79.5843L229.59 99.1494L231.804 93.7533L235.605 84.1859L237.819 78.7898C237.984 77.9953 238.116 77.3332 238.116 76.7373C238.116 75.9428 237.951 75.2475 237.555 74.5854H241.289Z" fill="white"/>
<path d="M271 88.1917C271 96.5342 265.216 102.692 257.086 102.692C248.956 102.692 243.173 96.5011 243.173 88.1917C243.173 79.9155 248.956 73.7579 257.086 73.7579C265.216 73.7248 271 79.9155 271 88.1917ZM266.704 92.8927C266.704 86.3048 261.614 75.1484 254.211 75.1484C249.75 75.1484 247.469 79.1872 247.469 83.5239C247.469 90.1118 252.559 101.268 259.962 101.268C264.423 101.268 266.704 97.2294 266.704 92.8927Z" fill="white"/>
</g>
<defs>
<clipPath id="clip0_3001_49">
<rect width="271" height="116" fill="white"/>
</clipPath>
</defs>
</svg>
