<svg width="40" height="40" viewBox="0 0 40 40" fill="none" xmlns="http://www.w3.org/2000/svg">
<path d="M27.8217 20.3663L13.8892 7.09133C13.6568 6.86972 13.3479 6.74609 13.0267 6.74609C12.7055 6.74609 12.3967 6.86972 12.1642 7.09133L12.1492 7.10633C12.0361 7.21377 11.9461 7.34308 11.8846 7.48641C11.823 7.62975 11.7913 7.7841 11.7913 7.94008C11.7913 8.09607 11.823 8.25042 11.8846 8.39375C11.9461 8.53708 12.0361 8.6664 12.1492 8.77383L25.2692 21.2738L12.1492 33.7688C12.0361 33.8763 11.9461 34.0056 11.8846 34.1489C11.823 34.2922 11.7913 34.4466 11.7913 34.6026C11.7913 34.7586 11.823 34.9129 11.8846 35.0562C11.9461 35.1996 12.0361 35.3289 12.1492 35.4363L12.1642 35.4513C12.3967 35.6729 12.7055 35.7966 13.0267 35.7966C13.3479 35.7966 13.6568 35.6729 13.8892 35.4513L27.8217 22.1763C27.9443 22.0596 28.0418 21.9192 28.1085 21.7636C28.1751 21.6081 28.2095 21.4406 28.2095 21.2713C28.2095 21.1021 28.1751 20.9346 28.1085 20.779C28.0418 20.6235 27.9443 20.4831 27.8217 20.3663Z" fill="#0E4271"/>
</svg>
