<svg width="40" height="40" viewBox="0 0 40 40" fill="none" xmlns="http://www.w3.org/2000/svg">
<path d="M12.1788 22.1766L26.1113 35.4516C26.3437 35.6732 26.6526 35.7969 26.9738 35.7969C27.2949 35.7969 27.6038 35.6732 27.8363 35.4516L27.8513 35.4366C27.9644 35.3292 28.0544 35.1999 28.1159 35.0566C28.1775 34.9132 28.2092 34.7589 28.2092 34.6029C28.2092 34.4469 28.1775 34.2926 28.1159 34.1492C28.0544 34.0059 27.9644 33.8766 27.8513 33.7691L14.7313 21.2691L27.8513 8.77414C27.9644 8.6667 28.0544 8.53739 28.1159 8.39405C28.1775 8.25072 28.2092 8.09637 28.2092 7.94039C28.2092 7.7844 28.1775 7.63005 28.1159 7.48672C28.0544 7.34339 27.9644 7.21407 27.8513 7.10664L27.8363 7.09164C27.6038 6.87002 27.2949 6.7464 26.9738 6.7464C26.6526 6.7464 26.3437 6.87002 26.1113 7.09164L12.1788 20.3666C12.0562 20.4834 11.9587 20.6238 11.892 20.7794C11.8254 20.9349 11.791 21.1024 11.791 21.2716C11.791 21.4409 11.8254 21.6084 11.892 21.7639C11.9587 21.9195 12.0562 22.0599 12.1788 22.1766Z" fill="#0E4271"/>
</svg>
