<svg width="90" height="90" viewBox="0 0 90 90" fill="none" xmlns="http://www.w3.org/2000/svg">
<path fill-rule="evenodd" clip-rule="evenodd" d="M54.6502 17.0921C68.7701 26.16 76.6143 36.7144 78.1829 48.7551C80.6248 67.4996 63.8619 76.6746 55.3684 68.4309C46.8748 60.1873 51.9662 49.7239 58.1164 46.8638C64.2666 44.0034 68.0276 44.9996 67.3716 41.1774C66.7155 37.3554 57.9656 26.7583 50.2785 21.8231C49.7685 21.3894 49.5744 20.5479 50.0655 19.9095C50.3886 19.4897 51.0221 18.6663 51.9662 17.4392C52.7917 16.3662 53.5826 16.4064 54.6502 17.0921Z" fill="#C7E3F8"/>
<path fill-rule="evenodd" clip-rule="evenodd" d="M17.477 17.0921C31.5967 26.16 39.4409 36.7144 41.0096 48.7551C43.4514 67.4996 26.6885 76.6746 18.1949 68.4309C9.70137 60.1873 14.7927 49.7239 20.9429 46.8638C27.0931 44.0034 30.8544 44.9996 30.1981 41.1774C29.5421 37.3554 20.7922 26.7583 13.1051 21.8231C12.5951 21.3894 12.401 20.5479 12.8922 19.9095C13.2151 19.4897 13.8487 18.6663 14.7927 17.4392C15.6183 16.3662 16.4092 16.4064 17.477 17.0921Z" fill="#C7E3F8"/>
</svg>
