<svg width="90" height="90" viewBox="0 0 90 90" fill="none" xmlns="http://www.w3.org/2000/svg">
<path fill-rule="evenodd" clip-rule="evenodd" d="M35.35 17.0921C21.2301 26.16 13.3859 36.7144 11.8174 48.7551C9.37546 67.4996 26.1383 76.6746 34.6319 68.4309C43.1254 60.1873 38.0341 49.7239 31.8839 46.8638C25.7337 44.0034 21.9726 44.9996 22.6287 41.1774C23.2848 37.3554 32.0346 26.7583 39.7218 21.8231C40.2318 21.3894 40.4258 20.5479 39.9348 19.9095C39.6117 19.4897 38.9781 18.6663 38.0341 17.4392C37.2085 16.3662 36.4176 16.4064 35.35 17.0921Z" fill="#C7E3F8"/>
<path fill-rule="evenodd" clip-rule="evenodd" d="M72.523 17.0921C58.4033 26.16 50.5591 36.7144 48.9904 48.7551C46.5486 67.4996 63.3115 76.6746 71.8051 68.4309C80.2986 60.1873 75.2073 49.7239 69.0571 46.8638C62.9069 44.0034 59.1456 44.9996 59.8019 41.1774C60.4579 37.3554 69.2078 26.7583 76.8949 21.8231C77.4049 21.3894 77.599 20.5479 77.1078 19.9095C76.7849 19.4897 76.1513 18.6663 75.2073 17.4392C74.3817 16.3662 73.5908 16.4064 72.523 17.0921Z" fill="#C7E3F8"/>
</svg>
