<svg width="24" height="24" viewBox="0 0 24 24" fill="none" xmlns="http://www.w3.org/2000/svg">
<path d="M7.2261 7.22703C7.36675 7.08638 7.55751 7.00736 7.75643 7.00736C7.95534 7.00736 8.1461 7.08638 8.28676 7.22703L11.9991 10.9393L15.7114 7.22703C15.852 7.08638 16.0428 7.00736 16.2417 7.00736C16.4406 7.00736 16.6314 7.08638 16.772 7.22703C16.9127 7.36768 16.9917 7.55845 16.9917 7.75736C16.9917 7.95627 16.9127 8.14704 16.772 8.28769L13.0597 12L16.772 15.7123C16.9127 15.853 16.9917 16.0437 16.9917 16.2426C16.9917 16.4416 16.9127 16.6323 16.772 16.773C16.6314 16.9136 16.4406 16.9926 16.2417 16.9926C16.0428 16.9926 15.852 16.9136 15.7114 16.773L11.9991 13.0607L8.28676 16.773C8.1461 16.9136 7.95534 16.9926 7.75643 16.9926C7.55751 16.9926 7.36675 16.9136 7.2261 16.773C7.08544 16.6323 7.00643 16.4416 7.00643 16.2426C7.00643 16.0437 7.08544 15.853 7.2261 15.7123L10.9384 12L7.2261 8.28769C7.08544 8.14704 7.00643 7.95627 7.00643 7.75736C7.00643 7.55845 7.08544 7.36768 7.2261 7.22703Z" fill="#0E4271"/>
</svg>
