<svg width="80" height="80" viewBox="0 0 80 80" fill="none" xmlns="http://www.w3.org/2000/svg">
<path d="M10.4134 7.11663H11.8836V8.58686C11.8836 8.82082 11.9766 9.04519 12.142 9.21062C12.3074 9.37606 12.5318 9.469 12.7657 9.469C12.9997 9.469 13.2241 9.37606 13.3895 9.21062C13.5549 9.04519 13.6479 8.82082 13.6479 8.58686V7.11663H15.1181C15.3521 7.11663 15.5764 7.02369 15.7419 6.85826C15.9073 6.69283 16.0002 6.46845 16.0002 6.2345C16.0002 6.00054 15.9073 5.77617 15.7419 5.61073C15.5764 5.4453 15.3521 5.35236 15.1181 5.35236H13.6479V3.88214C13.6479 3.64818 13.5549 3.4238 13.3895 3.25837C13.2241 3.09294 12.9997 3 12.7657 3C12.5318 3 12.3074 3.09294 12.142 3.25837C11.9766 3.4238 11.8836 3.64818 11.8836 3.88214V5.35236H10.4134C10.1794 5.35236 9.95505 5.4453 9.78962 5.61073C9.62419 5.77617 9.53125 6.00054 9.53125 6.2345C9.53125 6.46845 9.62419 6.69283 9.78962 6.85826C9.95505 7.02369 10.1794 7.11663 10.4134 7.11663Z" fill="#0E4271"/>
<path d="M65.6943 54.752H64.2241V53.2818C64.2241 53.0478 64.1311 52.8235 63.9657 52.658C63.8003 52.4926 63.5759 52.3997 63.3419 52.3997C63.108 52.3997 62.8836 52.4926 62.7182 52.658C62.5527 52.8235 62.4598 53.0478 62.4598 53.2818V54.752H60.9896C60.7556 54.752 60.5312 54.845 60.3658 55.0104C60.2004 55.1758 60.1074 55.4002 60.1074 55.6342C60.1074 55.8681 60.2004 56.0925 60.3658 56.2579C60.5312 56.4234 60.7556 56.5163 60.9896 56.5163H62.4598V57.9865C62.4598 58.2205 62.5527 58.4449 62.7182 58.6103C62.8836 58.7757 63.108 58.8687 63.3419 58.8687C63.5759 58.8687 63.8003 58.7757 63.9657 58.6103C64.1311 58.4449 64.2241 58.2205 64.2241 57.9865V56.5163H65.6943C65.9282 56.5163 66.1526 56.4234 66.318 56.2579C66.4835 56.0925 66.5764 55.8681 66.5764 55.6342C66.5764 55.4002 66.4835 55.1758 66.318 55.0104C66.1526 54.845 65.9282 54.752 65.6943 54.752Z" fill="#0E4271"/>
<path d="M23.3525 73.5709H21.8823V72.1006C21.8823 71.8667 21.7893 71.6423 21.6239 71.4769C21.4585 71.3114 21.2341 71.2185 21.0001 71.2185C20.7662 71.2185 20.5418 71.3114 20.3764 71.4769C20.2109 71.6423 20.118 71.8667 20.118 72.1006V73.5709H18.6478C18.4138 73.5709 18.1894 73.6638 18.024 73.8292C17.8586 73.9947 17.7656 74.219 17.7656 74.453C17.7656 74.687 17.8586 74.9113 18.024 75.0768C18.1894 75.2422 18.4138 75.3351 18.6478 75.3351H20.118V76.8054C20.118 77.0393 20.2109 77.2637 20.3764 77.4291C20.5418 77.5946 20.7662 77.6875 21.0001 77.6875C21.2341 77.6875 21.4585 77.5946 21.6239 77.4291C21.7893 77.2637 21.8823 77.0393 21.8823 76.8054V75.3351H23.3525C23.5864 75.3351 23.8108 75.2422 23.9763 75.0768C24.1417 74.9113 24.2346 74.687 24.2346 74.453C24.2346 74.219 24.1417 73.9947 23.9763 73.8292C23.8108 73.6638 23.5864 73.5709 23.3525 73.5709Z" fill="#0E4271"/>
<path d="M66.5167 16.5178C66.5378 16.2273 66.5755 15.938 66.5755 15.6439C66.577 12.757 65.59 9.95658 63.7787 7.70858C61.9674 5.46058 59.441 3.90053 56.6199 3.28799C53.7987 2.67545 50.8528 3.04734 48.2724 4.3418C45.6919 5.63626 43.6325 7.77523 42.4367 10.4029C40.3921 9.8511 38.2253 9.96187 36.2476 10.7192C34.5403 8.81713 32.2956 7.47826 29.8106 6.87983C27.3256 6.28139 24.7175 6.4516 22.3314 7.36792C19.9453 8.28425 17.8937 9.90349 16.448 12.0114C15.0023 14.1193 14.2308 16.6165 14.2354 19.1725C14.2367 20.1171 14.3428 21.0587 14.5518 21.98C12.0108 22.4143 9.72547 23.7871 8.14857 25.8265C6.57166 27.8658 5.81814 30.423 6.03723 32.9916C6.25632 35.5601 7.43205 37.9528 9.33156 39.6956C11.2311 41.4384 13.7158 42.4043 16.2937 42.402H27.4674C26.8627 43.9015 25.9623 45.2639 24.8199 46.4081L18.8813 52.3408C18.5261 52.696 18.2443 53.1178 18.052 53.5819C17.8597 54.0461 17.7608 54.5436 17.7608 55.046C17.7608 56.0606 18.1639 57.0337 18.8813 57.7512C19.5988 58.4687 20.5719 58.8717 21.5865 58.8717C22.6012 58.8717 23.5743 58.4687 24.2918 57.7512L28.3519 53.691V71.5125C28.3513 72.2074 28.5402 72.8894 28.8984 73.4848C29.2566 74.0803 29.7705 74.5668 30.3848 74.8918C30.999 75.2168 31.6903 75.3681 32.3841 75.3293C33.0779 75.2905 33.748 75.0632 34.3222 74.6717C34.5063 75.5251 34.9772 76.2897 35.6565 76.8381C36.3358 77.3864 37.1824 77.6855 38.0554 77.6855C38.9284 77.6855 39.7751 77.3864 40.4544 76.8381C41.1337 76.2897 41.6045 75.5251 41.7886 74.6717C42.3628 75.0625 43.0327 75.2894 43.7261 75.3278C44.4196 75.3663 45.1104 75.2149 45.7243 74.8899C46.3381 74.565 46.8517 74.0788 47.2098 73.4837C47.5679 72.8886 47.7569 72.2071 47.7566 71.5125V70.6069C48.3693 71.005 49.0842 71.2174 49.8149 71.2185C50.8283 71.2172 51.7999 70.8141 52.5165 70.0975C53.2331 69.3809 53.6362 68.4093 53.6375 67.3959V43.67C53.6342 43.2455 53.6012 42.8219 53.5387 42.402H59.8124C62.8737 42.4047 65.8491 41.39 68.2708 39.5173C70.6925 37.6447 72.4231 35.0203 73.1907 32.0568C73.9583 29.0933 73.7192 25.9587 72.5111 23.1459C71.303 20.3331 69.1943 18.0016 66.5167 16.5178ZM51.8732 67.3959C51.8732 67.9418 51.6563 68.4653 51.2703 68.8513C50.8843 69.2374 50.3608 69.4542 49.8149 69.4542C49.269 69.4542 48.7454 69.2374 48.3594 68.8513C47.9734 68.4653 47.7566 67.9418 47.7566 67.3959V55.6341C47.7566 55.4001 47.6636 55.1757 47.4982 55.0103C47.3328 54.8449 47.1084 54.7519 46.8744 54.7519C46.6405 54.7519 46.4161 54.8449 46.2507 55.0103C46.0852 55.1757 45.9923 55.4001 45.9923 55.6341V71.5125C45.9923 72.0584 45.7754 72.582 45.3894 72.968C45.0034 73.354 44.4799 73.5708 43.934 73.5708C43.3881 73.5708 42.8645 73.354 42.4785 72.968C42.0925 72.582 41.8757 72.0584 41.8757 71.5125V55.6341C41.8757 55.4001 41.7827 55.1757 41.6173 55.0103C41.4519 54.8449 41.2275 54.7519 40.9935 54.7519C40.7596 54.7519 40.5352 54.8449 40.3698 55.0103C40.2043 55.1757 40.1114 55.4001 40.1114 55.6341V73.8649C40.1114 74.4108 39.8945 74.9343 39.5085 75.3203C39.1225 75.7063 38.599 75.9232 38.0531 75.9232C37.5072 75.9232 36.9836 75.7063 36.5976 75.3203C36.2116 74.9343 35.9948 74.4108 35.9948 73.8649V55.6341C35.9948 55.4001 35.9018 55.1757 35.7364 55.0103C35.571 54.8449 35.3466 54.7519 35.1126 54.7519C34.8787 54.7519 34.6543 54.8449 34.4889 55.0103C34.3234 55.1757 34.2305 55.4001 34.2305 55.6341V71.5125C34.2305 72.0584 34.0136 72.582 33.6276 72.968C33.2416 73.354 32.7181 73.5708 32.1722 73.5708C31.6263 73.5708 31.1027 73.354 30.7167 72.968C30.3307 72.582 30.1138 72.0584 30.1138 71.5125V52.389C32.0534 52.1701 33.8445 51.2452 35.146 49.7906C36.4475 48.336 37.1682 46.4534 37.1709 44.5015V43.8723C37.1709 43.6383 37.078 43.4139 36.9126 43.2485C36.7471 43.0831 36.5228 42.9901 36.2888 42.9901C36.0548 42.9901 35.8305 43.0831 35.665 43.2485C35.4996 43.4139 35.4067 43.6383 35.4067 43.8723V44.5015C35.4048 46.1386 34.7536 47.7082 33.596 48.8658C32.4384 50.0234 30.8688 50.6746 29.2317 50.6765V50.6835C29.1162 50.6813 29.0014 50.7024 28.8943 50.7456C28.7872 50.7889 28.6899 50.8534 28.6083 50.9352L23.0415 56.5009C22.6532 56.8758 22.1332 57.0831 21.5935 57.0784C21.0539 57.0736 20.5376 56.857 20.1561 56.4753C19.7745 56.0936 19.5582 55.5773 19.5536 55.0376C19.549 54.4979 19.7566 53.978 20.1316 53.5899L26.0666 47.656C28.6578 45.0642 30.1136 41.5493 30.1138 37.8843V35.345H49.5208V37.9914C49.5207 38.1072 49.5436 38.2219 49.588 38.3289C49.6324 38.4359 49.6975 38.533 49.7796 38.6147C50.4457 39.2774 50.9738 40.0656 51.3332 40.9338C51.6925 41.8019 51.8761 42.7327 51.8732 43.6723V67.3959ZM27.7615 33.5807V23.5831H51.8732V33.5807H27.7615ZM59.8124 40.6378H53.1082C52.7071 39.5262 52.0872 38.5063 51.2851 37.6385V35.345H52.7553C52.9893 35.345 53.2137 35.252 53.3791 35.0866C53.5445 34.9211 53.6375 34.6968 53.6375 34.4628V23.5831H55.1077C55.3417 23.5831 55.566 23.4902 55.7315 23.3248C55.8969 23.1593 55.9898 22.935 55.9898 22.701C55.9898 22.467 55.8969 22.2427 55.7315 22.0772C55.566 21.9118 55.3417 21.8189 55.1077 21.8189H24.527C24.293 21.8189 24.0687 21.9118 23.9032 22.0772C23.7378 22.2427 23.6449 22.467 23.6449 22.701C23.6449 22.935 23.7378 23.1593 23.9032 23.3248C24.0687 23.4902 24.293 23.5831 24.527 23.5831H25.9972V34.4628C25.9972 34.6968 26.0902 34.9211 26.2556 35.0866C26.421 35.252 26.6454 35.345 26.8794 35.345H28.3496V37.8843C28.3455 38.8119 28.2342 39.7358 28.0179 40.6378H16.2937C14.1392 40.6403 12.0637 39.8262 10.4854 38.3595C8.90716 36.8928 7.94333 34.8826 7.78808 32.7336C7.63284 30.5847 8.29773 28.4567 9.64881 26.7784C10.9999 25.1001 12.9368 23.9962 15.0693 23.689C15.9179 25.9179 17.3827 27.8596 19.293 29.2876C19.4454 29.4028 19.6313 29.4647 19.8223 29.464C20.0075 29.4645 20.1881 29.4065 20.3385 29.2984C20.4888 29.1903 20.6013 29.0375 20.6599 28.8619C20.7185 28.6862 20.7203 28.4965 20.6649 28.3198C20.6096 28.143 20.4999 27.9882 20.3515 27.8774C19.1562 26.9809 18.1584 25.8477 17.4204 24.5485C16.6824 23.2494 16.22 21.8121 16.062 20.3263C15.904 18.8405 16.0539 17.3381 16.5023 15.9128C16.9506 14.4875 17.6879 13.1699 18.668 12.0421C19.6481 10.9143 20.8501 10.0006 22.1989 9.35787C23.5478 8.71517 25.0146 8.35729 26.5079 8.30656C28.0012 8.25584 29.489 8.51334 30.8784 9.06301C32.2677 9.61269 33.5289 10.4427 34.5833 11.5014C33.0597 12.3991 31.7927 13.6738 30.9042 15.2029C30.7873 15.4056 30.7556 15.6465 30.8163 15.8726C30.8769 16.0987 31.0249 16.2915 31.2277 16.4084C31.4305 16.5254 31.6714 16.5571 31.8975 16.4964C32.1236 16.4357 32.3163 16.2878 32.4333 16.085C33.4406 14.3749 35.0079 13.0654 36.8698 12.378C38.7317 11.6907 40.7739 11.6677 42.6508 12.313C42.8679 12.3894 43.1062 12.3779 43.315 12.281C43.5237 12.1841 43.6864 12.0094 43.7681 11.7943C44.3854 10.1644 45.3852 8.70678 46.6835 7.5441C47.9818 6.38141 49.5404 5.54774 51.2282 5.11331C52.916 4.67888 54.6835 4.6564 56.3818 5.04778C58.0801 5.43916 59.6594 6.23292 60.9869 7.36222C62.3143 8.49152 63.3509 9.92328 64.0094 11.5369C64.6678 13.1505 64.9289 14.8988 64.7705 16.6344C64.6122 18.3699 64.039 20.0421 63.0994 21.5099C62.1598 22.9777 60.8812 24.1982 59.3714 25.0687C59.1686 25.1856 59.0206 25.3784 58.9599 25.6045C58.8993 25.8306 58.9309 26.0715 59.0479 26.2742C59.1649 26.477 59.3576 26.625 59.5837 26.6857C59.8098 26.7463 60.0507 26.7147 60.2535 26.5977C61.7595 25.7199 63.0685 24.5411 64.0985 23.1349C65.1286 21.7286 65.8577 20.1251 66.2403 18.4244C68.4507 19.8146 70.1488 21.8863 71.0781 24.3266C72.0074 26.7669 72.1174 29.4434 71.3916 31.9517C70.6657 34.4601 69.1434 36.6642 67.0546 38.2311C64.9657 39.7981 62.4237 40.6428 59.8124 40.6378Z" fill="#0E4271"/>
</svg>
