<svg width="80" height="80" viewBox="0 0 80 80" fill="none" xmlns="http://www.w3.org/2000/svg">
<path fill-rule="evenodd" clip-rule="evenodd" d="M39.4975 8C45.8125 8 50.9319 13.1262 50.9319 19.4502C50.9319 25.7742 45.8128 30.9004 39.4975 30.9004C33.1826 30.9004 28.0631 25.7742 28.0631 19.4502C28.0658 13.1265 33.1849 8 39.4975 8ZM29.7868 34.7751C28.8493 34.5538 27.8451 34.6978 27.0115 35.1885C25.6665 32.3534 20.9682 32.6975 20.3503 36.042C18.161 34.9912 15.1886 36.2314 15.1886 39.1892C15.1886 39.5946 15.2126 40.7014 15.2419 42.099C15.3245 45.9343 15.4603 52.1884 15.2765 55.5921L13.6651 52.6316C12.8608 51.154 11.5264 50.6473 10.2533 50.7966C7.91746 51.0714 6.11169 53.5251 7.46472 56.0135L11.5131 63.4523C13.4761 67.5197 16.6136 70.3225 20.0415 71.7952C24.8756 73.8676 30.5861 73.3688 34.2592 69.4988H69.0383C70.6656 69.4988 71.9947 68.168 71.9947 66.5384L72 59.3453C72 57.7157 70.671 56.3848 69.0436 56.3848H37.778C37.778 55.9394 37.7754 55.4914 37.77 55.0433H69.0411C70.6684 55.0433 71.9975 53.7125 71.9975 52.0829V44.8898C71.9975 43.2602 70.6684 41.9293 69.0411 41.9293H56.5042C50.9989 32.6347 39.1119 29.4953 29.7871 34.7759L29.7868 34.7751ZM54.1761 41.9259H37.5059C37.165 39.4268 34.4962 38.3813 32.448 39.3148C32.448 38.0239 32.5466 37.0051 31.7236 35.9729C39.6124 32.1323 49.1742 34.6447 54.1761 41.9259ZM32.448 42.4966C32.448 41.7472 32.8369 41.2777 33.335 41.0778C34.2539 40.707 35.5749 41.1178 35.5749 42.4966C35.5749 48.7297 36.2221 55.4401 35.6815 61.5612C35.3645 64.2256 34.4403 66.3086 33.1219 67.8315L32.3761 68.597C29.252 71.4508 24.668 71.6455 20.8115 69.9893C17.7832 68.6904 15.0053 66.1993 13.2663 62.575C12.1051 60.1479 10.4963 57.4808 9.18857 55.0801C8.19514 53.2558 10.9517 51.7649 11.9399 53.5785L14.8697 58.9607C15.2213 59.6035 16.1162 59.6435 16.5317 59.0594C17.5571 57.6138 17.312 47.0842 17.2029 42.0644C17.1762 40.8642 17.1549 39.9147 17.1549 39.1946C17.1549 38.4451 17.5438 37.9757 18.0419 37.7757C18.9608 37.405 20.2818 37.8157 20.2818 39.1946V50.4017C20.2818 50.9458 20.724 51.3885 21.2673 51.3885C21.8106 51.3885 22.2527 50.9458 22.2527 50.4017L22.2554 36.7912C22.2554 36.0417 22.6443 35.5723 23.1423 35.3724C24.0612 35.0016 25.3823 35.4124 25.3823 36.7912V50.4523C25.3823 50.9963 25.8244 51.4391 26.3678 51.4391C26.9111 51.4391 27.3532 50.9963 27.3532 50.4523L27.3506 38.1916C27.3506 37.4421 27.7394 36.9727 28.2375 36.7727C29.1564 36.402 30.4775 36.8127 30.4775 38.1916V51.2019C30.4775 51.746 30.9196 52.1888 31.4629 52.1888C32.0063 52.1888 32.4484 51.746 32.4484 51.2019L32.448 42.4966ZM37.7429 53.0688C37.7296 52.346 37.7136 51.6205 37.6976 50.8951L41.7194 43.8993H45.5147L40.2438 53.0718L37.7429 53.0688ZM42.5051 53.0688L47.776 43.8963H51.6434L46.3724 53.0688H42.5051ZM48.6337 53.0688L53.9046 43.8963H57.7L52.429 53.0688H48.6337ZM54.6903 53.0688L59.9612 43.8963H63.8285L58.5576 53.0688H54.6903ZM60.8215 53.0688L66.0924 43.8963H69.0435C69.3072 43.8963 69.5495 44.003 69.728 44.1737L64.6169 53.0655L60.8215 53.0688ZM66.8781 53.0688L70.0289 47.5853V52.0793C70.0289 52.6207 69.5815 53.0688 69.0408 53.0688H66.8781ZM39.4553 43.8991L37.6043 47.121C37.5803 46.0541 37.5617 44.9846 37.551 43.8991H39.4553ZM36.4483 67.5266L41.7192 58.3542H45.5146L40.2437 67.5266H36.4483ZM42.5049 67.5266L47.7758 58.3542H51.6431L46.3722 67.5266H42.5049ZM48.6335 67.5266L53.9044 58.3542H57.6998L52.4288 67.5266H48.6335ZM54.6901 67.5266L59.961 58.3542H63.8283L58.5574 67.5266H54.6901ZM60.8213 67.5266L66.0922 58.3542H69.0433C69.3069 58.3542 69.5493 58.4608 69.7278 58.6315L64.6167 67.5234L60.8213 67.5266ZM66.8779 67.5266L70.0287 62.0431V66.5371C70.0287 67.0785 69.5813 67.5266 69.0406 67.5266H66.8779ZM39.4551 58.3569L37.652 61.4934C37.7079 60.4746 37.7426 59.4265 37.7612 58.3569H39.4551ZM46.1909 12.7466C42.4941 9.04468 36.5013 9.04468 32.8071 12.7466C29.1103 16.4486 29.1103 22.4496 32.8071 26.1489C36.504 29.8508 42.4967 29.8508 46.1909 26.1489C49.8878 22.4496 49.8878 16.4487 46.1909 12.7466Z" fill="#0E4271"/>
</svg>
