<svg width="80" height="80" viewBox="0 0 80 80" fill="none" xmlns="http://www.w3.org/2000/svg">
<path d="M58.0893 42.5495C58.0349 42.5495 57.9871 42.5495 57.9349 42.5495C58.6614 37.0999 56.8065 31.6231 52.9176 27.7356C49.0286 23.848 43.5498 21.9938 38.0982 22.72C38.0982 22.6678 38.0982 22.6201 38.0982 22.5657C38.1081 15.3084 33.0927 9.01028 26.0155 7.3926C18.9383 5.77492 11.6832 9.26832 8.53697 15.8087C5.39077 22.349 7.19099 30.1953 12.8739 34.7114C12.8917 34.7303 12.9173 34.7403 12.9361 34.758C14.3476 35.8761 15.9429 36.7401 17.6507 37.3115C17.6729 37.3215 17.6962 37.3282 17.7196 37.337C19.2785 37.8485 20.9089 38.109 22.5496 38.1086H22.704C21.9775 43.5582 23.8325 49.0351 27.7214 52.9226C31.6103 56.8101 37.0891 58.6644 42.5407 57.9382V58.0925C42.5431 62.8245 44.7056 67.2967 48.4136 70.2382C48.4314 70.2571 48.457 70.2671 48.4758 70.2848C49.8873 71.4029 51.4826 72.2669 53.1904 72.8383C53.2126 72.8483 53.2359 72.855 53.2593 72.8639C56.3966 73.9005 59.7843 73.9005 62.9216 72.8639C62.9449 72.855 62.9683 72.8483 62.9905 72.8383C64.698 72.2672 66.293 71.4031 67.7039 70.2848C67.7239 70.2671 67.7495 70.2571 67.7672 70.2382C72.9438 66.1286 74.9515 59.1943 72.7711 52.956C70.5907 46.7178 64.6998 42.5423 58.0893 42.5495ZM58.0893 60.3129C56.2785 60.3235 54.5774 59.4465 53.5362 57.9654C52.495 56.4844 52.2459 54.5873 52.8694 52.8878C53.729 52.0257 54.4978 51.0778 55.164 50.059C56.039 49.505 57.0535 49.2108 58.0893 49.2108C61.1562 49.2108 63.6424 51.6961 63.6424 54.7618C63.6424 57.8276 61.1562 60.3129 58.0893 60.3129ZM9.22225 22.5657C9.22225 15.2078 15.1891 9.24312 22.5496 9.24312C29.9101 9.24312 35.877 15.2078 35.877 22.5657C35.877 22.7733 35.8703 22.9653 35.8626 23.1541C33.5164 23.7631 31.3204 24.8476 29.411 26.3404C28.812 25.8881 28.1491 25.527 27.4441 25.269C30.0032 23.1972 30.979 19.7384 29.8796 16.6353C28.7803 13.5323 25.8444 11.4582 22.5513 11.4582C19.2582 11.4582 16.3223 13.5323 15.223 16.6353C14.1236 19.7384 15.0993 23.1972 17.6585 25.269C14.9804 26.2542 13.0559 28.6248 12.6429 31.4474C10.4422 29.0121 9.22335 25.8474 9.22225 22.5657ZM16.9966 19.235C16.9966 16.1693 19.4828 13.684 22.5496 13.684C25.6165 13.684 28.1027 16.1693 28.1027 19.235C28.1027 22.3008 25.6165 24.7861 22.5496 24.7861C19.4843 24.7824 17.0002 22.2993 16.9966 19.235ZM22.5496 35.8882C21.4249 35.8841 20.3053 35.7367 19.2178 35.4497V32.5576C19.2178 31.9444 18.7205 31.4474 18.1072 31.4474C17.4938 31.4474 16.9966 31.9444 16.9966 32.5576V34.667C16.2161 34.3073 15.4722 33.8731 14.7753 33.3703V32.5576C14.779 29.4933 17.263 27.0102 20.3284 27.0065H24.7709C25.805 27.0055 26.8182 27.2977 27.6929 27.8492C25.494 30.0761 23.9231 32.8444 23.1394 35.8738C22.9483 35.8816 22.7562 35.8882 22.5496 35.8882ZM24.7709 40.3291C24.7709 31.7449 31.7322 24.7861 40.3195 24.7861C48.9067 24.7861 55.8681 31.7449 55.8681 40.3291C55.8681 48.9132 48.9067 55.872 40.3195 55.872C31.736 55.8629 24.78 48.9094 24.7709 40.3291ZM44.7619 58.0925C44.7619 57.8849 44.7686 57.6928 44.7764 57.5041C46.7589 56.9959 48.638 56.1469 50.3295 54.995C50.3963 57.2543 51.4454 59.3722 53.2026 60.7947C50.5225 61.7787 48.5961 64.1501 48.1826 66.9742C45.9819 64.539 44.763 61.3742 44.7619 58.0925ZM54.7575 70.9709V68.0844C54.7575 67.4712 54.2602 66.9742 53.6469 66.9742C53.0335 66.9742 52.5362 67.4712 52.5362 68.0844V70.1938C51.7557 69.8342 51.0119 69.3999 50.315 68.8971V68.0844C50.3187 65.0201 52.8027 62.537 55.8681 62.5333H60.3106C63.3759 62.537 65.86 65.0201 65.8636 68.0844V68.8915C65.167 69.3963 64.4231 69.8324 63.6424 70.1938V68.0844C63.6424 67.4712 63.1452 66.9742 62.5318 66.9742C61.9184 66.9742 61.4212 67.4712 61.4212 68.0844V70.9709C59.2384 71.5556 56.9402 71.5556 54.7575 70.9709ZM67.996 66.9742C67.5826 64.1501 65.6562 61.7787 62.976 60.7947C65.529 58.7224 66.5013 55.2684 65.4042 52.1693C64.3071 49.0701 61.378 46.9963 58.0893 46.9903C57.6343 46.994 57.1805 47.0382 56.7333 47.1225C57.043 46.3618 57.2994 45.5806 57.5007 44.7844C57.6906 44.7766 57.8827 44.7699 58.0893 44.7699C63.3494 44.7609 68.121 47.8505 70.2636 52.6527C72.4061 57.4549 71.5174 63.0681 67.996 66.9742Z" fill="#0E4271"/>
<path d="M46.6571 8.45811C46.2234 8.0247 45.5204 8.0247 45.0867 8.45811L41.7549 11.7887C41.3213 12.2223 41.3213 12.9251 41.7549 13.3586L45.0867 16.6892C45.5225 17.11 46.2152 17.1039 46.6436 16.6757C47.072 16.2475 47.078 15.555 46.6571 15.1194L45.2755 13.7383C59.3304 14.6118 70.2875 26.2521 70.3054 40.329C70.3054 40.9421 70.8027 41.4392 71.4161 41.4392C72.0294 41.4392 72.5267 40.9421 72.5267 40.329C72.5085 24.9884 60.5036 12.3348 45.18 11.5045L46.6571 10.028C47.0907 9.59441 47.0907 8.89165 46.6571 8.45811Z" fill="#0E4271"/>
<path d="M10.3345 40.329C10.3345 39.7158 9.83727 39.2188 9.2239 39.2188C8.61052 39.2188 8.11328 39.7158 8.11328 40.329C8.13146 55.6695 20.1363 68.3231 35.46 69.1534L33.9828 70.63C33.6941 70.9087 33.5783 71.3215 33.68 71.7097C33.7816 72.0978 34.0849 72.401 34.4732 72.5026C34.8615 72.6042 35.2744 72.4884 35.5533 72.1998L38.8851 68.8692C39.3187 68.4357 39.3187 67.7329 38.8851 67.2994L35.5533 63.9687C35.1175 63.548 34.4248 63.554 33.9964 63.9822C33.568 64.4105 33.5619 65.1029 33.9828 65.5386L35.3644 66.9197C21.3095 66.0462 10.3525 54.4059 10.3345 40.329Z" fill="#0E4271"/>
<path d="M34 45.1218L45.126 33.9999" stroke="#0E4271" stroke-width="2.5" stroke-linecap="round"/>
<path d="M34 34.0193L45.126 45.1412" stroke="#0E4271" stroke-width="2.5" stroke-linecap="round"/>
</svg>
