<svg width="80" height="80" viewBox="0 0 80 80" fill="none" xmlns="http://www.w3.org/2000/svg">
<path d="M42.9356 20.625H47.7793C48.0362 20.625 48.2826 20.5229 48.4643 20.3413C48.646 20.1596 48.7481 19.9132 48.7481 19.6563V15.7813C48.7481 15.5243 48.646 15.2779 48.4643 15.0962C48.2826 14.9146 48.0362 14.8125 47.7793 14.8125H42.9356V9.96875C42.9356 9.71182 42.8335 9.46542 42.6518 9.28374C42.4701 9.10206 42.2237 9 41.9668 9H38.0918C37.8349 9 37.5885 9.10206 37.4068 9.28374C37.2251 9.46542 37.1231 9.71182 37.1231 9.96875V14.8125H32.2793C32.0224 14.8125 31.776 14.9146 31.5943 15.0962C31.4126 15.2779 31.3105 15.5243 31.3105 15.7813V19.6563C31.3105 19.9132 31.4126 20.1596 31.5943 20.3413C31.776 20.5229 32.0224 20.625 32.2793 20.625H37.1231V31.2813C37.1231 31.5382 37.2251 31.7846 37.4068 31.9663C37.5885 32.1479 37.8349 32.25 38.0918 32.25H41.9668C42.2237 32.25 42.4701 32.1479 42.6518 31.9663C42.8335 31.7846 42.9356 31.5382 42.9356 31.2813V20.625ZM41.9668 18.6875C41.7099 18.6875 41.4635 18.7896 41.2818 18.9712C41.1001 19.1529 40.9981 19.3993 40.9981 19.6563V30.3125H39.0606V19.6563C39.0606 19.3993 38.9585 19.1529 38.7768 18.9712C38.5951 18.7896 38.3487 18.6875 38.0918 18.6875H33.248V16.75H38.0918C38.3487 16.75 38.5951 16.6479 38.7768 16.4663C38.9585 16.2846 39.0606 16.0382 39.0606 15.7813V10.9375H40.9981V15.7813C40.9981 16.0382 41.1001 16.2846 41.2818 16.4663C41.4635 16.6479 41.7099 16.75 41.9668 16.75H46.8106V18.6875H41.9668Z" fill="#0E4271"/>
<path d="M68.6813 20.5644C68.2454 20.199 67.7347 19.9336 67.1852 19.787C66.6356 19.6404 66.0606 19.6161 65.5007 19.7158C65.2679 19.7572 65.0388 19.8218 64.8189 19.9087C64.5052 19.2527 64.0123 18.6989 63.397 18.3113C62.7818 17.9238 62.0694 17.7183 61.3423 17.7188C60.6152 17.7192 59.903 17.9255 59.2882 18.3137C58.6734 18.702 58.1811 19.2564 57.8683 19.9127C57.4318 19.744 56.968 19.6571 56.5 19.6562C55.4726 19.6572 54.4876 20.0658 53.7611 20.7923C53.0346 21.5188 52.626 22.5038 52.625 23.5312V26.5791C52.3096 26.4901 51.9839 26.4425 51.6563 26.4375C50.6288 26.4385 49.6438 26.8471 48.9173 27.5735C48.1908 28.3 47.7823 29.2851 47.7813 30.3125V38.5886L45.9062 41.0511C43.9858 43.5842 42.9436 46.6743 42.9375 49.853V70.0312C42.9375 70.2882 43.0396 70.5346 43.2212 70.7163C43.4029 70.8979 43.6493 71 43.9063 71H60.375C60.6319 71 60.8783 70.8979 61.06 70.7163C61.2417 70.5346 61.3438 70.2882 61.3438 70.0312V60.656L67.8715 51.589C69.3001 49.613 70.067 47.2357 70.0625 44.7973V23.5312C70.063 22.9658 69.9396 22.4072 69.701 21.8946C69.4624 21.382 69.1143 20.928 68.6813 20.5644ZM61.3438 19.6562C61.7726 19.6579 62.1888 19.8023 62.5264 20.0668C62.864 20.3312 63.104 20.7006 63.2083 21.1166C62.6288 21.8515 62.3133 22.76 62.3125 23.6959V38.8181C62.3114 39.5619 62.0968 40.2897 61.6942 40.9151C61.2915 41.5405 60.7177 42.0371 60.0411 42.3459L59.4063 42.635V21.5937C59.4069 21.0801 59.6113 20.5877 59.9745 20.2245C60.3377 19.8613 60.8301 19.6569 61.3438 19.6562ZM57.4688 43.5154L54.9958 44.6391L57.4688 40.4006V43.5154ZM56.5 21.5937C56.8415 21.5958 57.1762 21.69 57.4688 21.8662V32.414C56.6321 31.8481 55.6189 31.6044 54.6165 31.7277C54.5979 31.73 54.581 31.7374 54.5625 31.7398V23.5312C54.5632 23.0176 54.7675 22.5252 55.1307 22.162C55.494 21.7988 55.9864 21.5944 56.5 21.5937ZM49.7188 30.3125C49.7194 29.7988 49.9238 29.3064 50.287 28.9432C50.6502 28.58 51.1426 28.3757 51.6563 28.375C51.9978 28.377 52.3325 28.4712 52.625 28.6476V32.5394C52.2962 32.7742 52.0026 33.0548 51.7531 33.3726L49.7188 36.0441V30.3125ZM68.125 44.7973C68.1289 46.8295 67.4898 48.8107 66.2991 50.4575L59.5889 59.778C59.4703 59.9428 59.4064 60.1407 59.4063 60.3437V69.0625H44.875V49.853C44.8806 47.0979 45.7839 44.4197 47.4482 42.2241L53.2948 34.5459C53.482 34.3 53.7164 34.0941 53.9844 33.9402C54.2524 33.7863 54.5484 33.6876 54.8551 33.6499C55.1618 33.6121 55.473 33.6361 55.7703 33.7205C56.0675 33.8048 56.3449 33.9478 56.5861 34.141C57.0179 34.49 57.3109 34.9816 57.4123 35.5275C57.5138 36.0733 57.4171 36.6374 57.1396 37.1182L51.7877 46.293C51.684 46.4706 51.6396 46.6767 51.6608 46.8813C51.682 47.0859 51.7678 47.2784 51.9058 47.431C52.0437 47.5836 52.2267 47.6883 52.4281 47.7299C52.6295 47.7716 52.839 47.7481 53.0262 47.6628L60.8433 44.1094C61.8583 43.6463 62.7189 42.9015 63.3228 41.9635C63.9267 41.0254 64.2485 39.9337 64.25 38.8181V23.6959C64.2331 23.221 64.3816 22.7549 64.6701 22.3772C64.9585 21.9995 65.3691 21.7337 65.8318 21.625C66.1116 21.5733 66.3994 21.5837 66.6747 21.6556C66.95 21.7274 67.2062 21.859 67.425 22.0409C67.6438 22.2228 67.8199 22.4506 67.9409 22.7081C68.0619 22.9657 68.1247 23.2467 68.125 23.5312V44.7973Z" fill="#0E4271"/>
<path d="M32.2813 38.5886V30.3125C32.2803 29.2851 31.8717 28.3 31.1452 27.5735C30.4187 26.8471 29.4337 26.4385 28.4063 26.4375C28.0786 26.4425 27.7529 26.4901 27.4375 26.5791V23.5312C27.4365 22.5038 27.028 21.5188 26.3015 20.7923C25.575 20.0658 24.5899 19.6572 23.5625 19.6562C23.0946 19.6571 22.6308 19.744 22.1943 19.9127C21.8814 19.2564 21.3891 18.702 20.7743 18.3137C20.1595 17.9255 19.4474 17.7192 18.7203 17.7188C17.9931 17.7183 17.2807 17.9238 16.6655 18.3113C16.0503 18.6989 15.5573 19.2527 15.2437 19.9087C15.0237 19.8218 14.7957 19.7572 14.5628 19.7158C14.0047 19.6155 13.4303 19.6389 12.8822 19.7843C12.334 19.9298 11.8244 20.1937 11.3894 20.5576C10.9544 20.9214 10.6045 21.3763 10.3644 21.8901C10.1244 22.4039 9.99998 22.9641 10 23.5312V44.7973C9.99554 47.2357 10.7625 49.613 12.191 51.589L18.7188 60.656V70.0312C18.7188 70.2882 18.8208 70.5346 19.0025 70.7163C19.1842 70.8979 19.4306 71 19.6875 71H36.1563C36.4132 71 36.6596 70.8979 36.8413 70.7163C37.023 70.5346 37.125 70.2882 37.125 70.0312V49.853C37.119 46.6743 36.0767 43.5842 34.1563 41.0511L32.2813 38.5886ZM28.4063 28.375C28.9199 28.3757 29.4123 28.58 29.7755 28.9432C30.1387 29.3064 30.3431 29.7988 30.3438 30.3125V36.0441L28.3094 33.373C28.0599 33.0552 27.7663 32.7746 27.4375 32.5398V28.6477C27.73 28.4712 28.0647 28.377 28.4063 28.375ZM25.5 23.5312V31.7398C25.4815 31.7373 25.4647 31.7301 25.4461 31.7277C24.4436 31.6043 23.4304 31.8482 22.5938 32.4141V21.8662C22.8863 21.69 23.221 21.5958 23.5625 21.5937C24.0762 21.5944 24.5686 21.7988 24.9318 22.162C25.295 22.5252 25.4993 23.0176 25.5 23.5312ZM22.5938 40.4006L25.0667 44.6394L22.5938 43.5154V40.4006ZM18.7188 19.6562C19.2324 19.6569 19.7248 19.8613 20.088 20.2245C20.4512 20.5877 20.6556 21.0801 20.6563 21.5937V42.635L20.0215 42.3465C19.3447 42.0376 18.7709 41.5409 18.3682 40.9154C17.9656 40.29 17.751 39.562 17.75 38.8181V23.6959C17.7492 22.76 17.4337 21.8516 16.8542 21.1167C16.9585 20.7007 17.1985 20.3313 17.5361 20.0668C17.8738 19.8023 18.2899 19.6579 18.7188 19.6562ZM35.1875 69.0625H20.6563V60.3437C20.6561 60.1407 20.5923 59.9428 20.4737 59.778L13.7634 50.4575C12.5728 48.8107 11.9337 46.8295 11.9375 44.7973V23.5312C11.9378 23.2467 12.0006 22.9656 12.1216 22.7081C12.2426 22.4505 12.4187 22.2227 12.6375 22.0408C12.8563 21.8589 13.1125 21.7274 13.3878 21.6555C13.6632 21.5836 13.9509 21.5732 14.2307 21.6249C14.6934 21.7336 15.104 21.9995 15.3925 22.3772C15.681 22.7549 15.8294 23.221 15.8125 23.6959V38.8181C15.814 39.9337 16.1358 41.0254 16.7398 41.9634C17.3437 42.9014 18.2043 43.6462 19.2192 44.1093L27.0364 47.6627C27.2235 47.748 27.433 47.7716 27.6345 47.7299C27.8359 47.6882 28.0189 47.5835 28.1568 47.4309C28.2948 47.2783 28.3806 47.0857 28.4018 46.8811C28.423 46.6765 28.3785 46.4704 28.2748 46.2928L22.9232 37.1183C22.6456 36.6375 22.5489 36.0734 22.6504 35.5276C22.7518 34.9817 23.0448 34.4901 23.4766 34.1411C23.7178 33.9479 23.9952 33.8049 24.2925 33.7206C24.5897 33.6362 24.9009 33.6122 25.2076 33.65C25.5143 33.6877 25.8103 33.7864 26.0783 33.9403C26.3463 34.0942 26.5808 34.3001 26.7679 34.546L32.6145 42.2241C34.2788 44.4198 35.182 47.098 35.1875 49.853V69.0625Z" fill="#0E4271"/>
</svg>
