<svg width="80" height="80" viewBox="0 0 80 80" fill="none" xmlns="http://www.w3.org/2000/svg">
<path d="M70.2264 15.2383C68.0059 13.0179 65.3915 11.361 62.4559 10.3134C61.888 10.1109 57.083 10.471 56.8803 11.039C56.6775 11.607 61.1538 12.1678 61.7218 12.3705C64.3504 13.3084 66.6921 14.7928 68.6818 16.7827C74.4675 22.5683 75.6861 31.2164 72.3407 38.2096H65.0128C65.2586 37.4412 65.3855 36.6349 65.3855 35.8186C65.3855 31.4981 61.8711 27.983 57.5514 27.983C53.2308 27.983 49.7157 31.4981 49.7157 35.8186C49.7157 36.6348 49.8425 37.4412 50.0884 38.2096H40.1882V32.9558C40.1882 32.5616 39.9758 32.1982 39.6326 32.0045C39.2894 31.8108 38.8684 31.8172 38.5312 32.0213C37.6539 32.5517 36.6447 32.832 35.613 32.832C32.4969 32.832 29.9616 30.2969 29.9616 27.1807C29.9616 24.0645 32.4967 21.5293 35.613 21.5293C36.6447 21.5293 37.6539 21.8098 38.5312 22.3401C38.8684 22.5441 39.2894 22.5504 39.6326 22.3569C39.9758 22.1632 40.1882 21.7997 40.1882 21.4056V17.8798C40.9007 17.6909 41.554 17.3177 42.089 16.7828C45.6406 13.2311 50.3625 11.2752 55.3848 11.2752C55.9322 11.2752 56.48 11.2992 57.0136 11.3466C57.6165 11.4006 62.8848 11.093 62.9381 10.4921C62.9914 9.89125 57.8078 9.2242 57.207 9.17091C56.6094 9.11776 55.9965 9.09082 55.3848 9.09082C49.7791 9.09082 44.5087 11.274 40.5445 15.2383C40.1579 15.625 39.6434 15.8379 39.0962 15.8379C38.549 15.8379 38.0345 15.6249 37.6479 15.2383C33.6835 11.2742 28.4131 9.09097 22.8074 9.09097C17.2009 9.09097 11.9301 11.2742 7.96568 15.2384C4.00158 19.2025 1.81836 24.473 1.81836 30.0786C1.81836 35.6851 4.00158 40.956 7.96568 44.9202L32.6651 69.621C34.3827 71.3387 36.6664 72.2846 39.0959 72.2846C41.5253 72.2846 43.8086 71.3387 45.5253 69.621L48.1247 67.0218C48.5513 66.5953 52.2028 63.1391 51.7763 62.7126C51.3496 62.286 47.0068 65.0509 46.5803 65.4774L43.9807 68.0769C42.9375 69.1206 41.6185 69.7879 40.1882 70.0138V60.1368C40.9564 60.3826 41.7628 60.5094 42.5792 60.5094C46.8997 60.5094 50.4148 56.9944 50.4148 52.6738C50.4148 48.3532 46.8997 44.8382 42.5792 44.8382C41.7627 44.8382 40.9561 44.9652 40.1882 45.2111V40.3939H51.7763C52.1705 40.3939 52.5339 40.1816 52.7274 39.8384C52.9211 39.4951 52.9147 39.074 52.7108 38.7369C52.1804 37.8594 51.9 36.8503 51.9 35.8188C51.9 32.7026 54.4352 30.1674 57.5515 30.1674C60.667 30.1674 63.2014 32.7026 63.2014 35.8188C63.2014 36.8505 62.921 37.8596 62.3907 38.7368C62.1868 39.074 62.1804 39.495 62.3739 39.8384C62.5676 40.1816 62.931 40.394 63.3252 40.394H71.11C70.4176 41.4489 69.6085 42.4491 68.682 43.3758L46.5803 65.4774C46.1538 65.9039 49.7417 63.0074 50.1682 63.4338C50.3816 63.647 50.6611 63.7537 50.9406 63.7537C51.22 63.7537 51.4996 63.6471 51.7129 63.4338L70.2267 44.9202C78.4096 36.7369 78.4096 23.4216 70.2264 15.2383ZM38.56 47.8517C38.9035 48.0453 39.3248 48.0386 39.662 47.8341C40.5382 47.3032 41.5468 47.0225 42.579 47.0225C45.6951 47.0225 48.2304 49.5576 48.2304 52.6738C48.2304 55.79 45.6952 58.3252 42.579 58.3252C41.5473 58.3252 40.5382 58.0449 39.6609 57.5144C39.3236 57.3104 38.9027 57.3041 38.5594 57.4976C38.2162 57.6913 38.0039 58.0548 38.0039 58.4489V70.0138C36.5731 69.7879 35.2535 69.1204 34.2096 68.0766L9.51023 43.3758C8.59008 42.4557 7.77798 41.4563 7.0783 40.394H16.0916C15.8458 41.1624 15.7189 41.9687 15.7189 42.785C15.7189 43.4721 15.8077 44.1532 15.9829 44.8097C16.1117 45.2927 16.549 45.6202 17.0371 45.6202C17.0499 45.6202 17.0627 45.62 17.0756 45.6196C17.3515 45.6106 20.2493 48.5271 20.4547 48.3117C20.7412 48.0116 18.1978 44.5616 18.0791 44.1927C17.9622 43.7365 17.9031 43.2632 17.9031 42.785C17.9031 41.7533 18.1836 40.7442 18.7139 39.867C18.9177 39.5298 18.9242 39.1088 18.7306 38.7655C18.537 38.4222 18.1735 38.2098 17.7793 38.2098H5.84158C4.63836 35.704 4.0026 32.9404 4.0026 30.0786C4.0026 25.0563 5.95866 20.3346 9.51023 16.7828C13.0619 13.2311 17.7843 11.2752 22.8073 11.2752C27.8296 11.2752 32.5515 13.2313 36.103 16.7828C36.638 17.3178 37.2914 17.6909 38.0039 17.8798V19.7179C37.2355 19.4721 36.4292 19.3452 35.6129 19.3452C31.2923 19.3452 27.7772 22.8603 27.7772 27.1808C27.7772 31.5014 31.2923 35.0164 35.6129 35.0164C36.4291 35.0164 37.2356 34.8896 38.0039 34.6438V38.2098H29.3281C28.9339 38.2098 28.5705 38.4221 28.377 38.7653C28.1833 39.1085 28.1897 39.5296 28.3936 39.8668C28.924 40.7442 29.2044 41.7533 29.2044 42.7849C29.2044 45.9011 26.6692 48.4362 23.5528 48.4362C22.4913 48.4362 21.4583 48.1412 20.5657 47.5831C20.0541 47.2636 16.2414 44.0522 15.9215 44.5636C15.6017 45.075 18.8962 49.1154 19.4076 49.4352C20.648 50.2107 22.0813 50.6206 23.5528 50.6206C27.8734 50.6206 31.3886 47.1056 31.3886 42.785C31.3886 41.9689 31.2618 41.1624 31.0158 40.394H38.0039V46.9003C38.0039 47.2945 38.2165 47.6582 38.56 47.8517Z" fill="#0E4271"/>
</svg>
