<svg width="44" height="44" viewBox="0 0 44 44" fill="none" xmlns="http://www.w3.org/2000/svg">
<path d="M41.7533 37.2344H2.75006C2.65156 37.2345 2.55401 37.2151 2.46299 37.1774C2.37198 37.1397 2.28928 37.0845 2.21963 37.0148C2.14997 36.9452 2.09473 36.8625 2.05704 36.7715C2.01936 36.6804 1.99997 36.5829 2 36.4844V31.2339C1.99997 31.1354 2.01936 31.0379 2.05704 30.9469C2.09473 30.8559 2.14998 30.7732 2.21963 30.7035C2.28929 30.6339 2.37198 30.5786 2.463 30.5409C2.55401 30.5032 2.65156 30.4839 2.75006 30.4839H41.7533C41.8518 30.4839 41.9494 30.5032 42.0404 30.5409C42.1314 30.5786 42.2141 30.6339 42.2837 30.7035C42.3534 30.7732 42.4086 30.8559 42.4463 30.9469C42.484 31.0379 42.5034 31.1354 42.5034 31.2339V36.4844C42.5034 36.5829 42.484 36.6804 42.4463 36.7715C42.4086 36.8625 42.3534 36.9452 42.2837 37.0148C42.2141 37.0845 42.1314 37.1397 42.0404 37.1774C41.9494 37.2151 41.8518 37.2345 41.7533 37.2344ZM3.50012 35.7343H41.0032V31.984H3.50012V35.7343Z" fill="#0E4271"/>
<path d="M41.7533 31.9841H2.75006C2.59836 31.9841 2.45021 31.9381 2.32519 31.8522C2.20017 31.7663 2.10414 31.6444 2.04979 31.5028C1.99544 31.3612 1.98531 31.2064 2.02076 31.0589C2.0562 30.9114 2.13554 30.7781 2.24831 30.6766L9.74893 23.926C9.88668 23.8021 10.0654 23.7335 10.2507 23.7334H34.2527C34.438 23.7335 34.6167 23.8021 34.7545 23.926L42.2551 30.6766C42.3679 30.7781 42.4472 30.9114 42.4826 31.0589C42.5181 31.2064 42.508 31.3612 42.4536 31.5028C42.3992 31.6445 42.3032 31.7663 42.1782 31.8522C42.0532 31.9381 41.905 31.9841 41.7533 31.9841ZM4.70472 30.484H39.7986L33.9648 25.2335H10.5385L4.70472 30.484Z" fill="#0E4271"/>
<path d="M34.2521 25.2333H10.2501C10.1516 25.2333 10.054 25.2139 9.96299 25.1763C9.87198 25.1386 9.78928 25.0833 9.71963 25.0137C9.64997 24.944 9.59473 24.8613 9.55704 24.7703C9.51936 24.6793 9.49997 24.5817 9.5 24.4832V15.4825C9.49997 15.384 9.51936 15.2864 9.55704 15.1954C9.59473 15.1044 9.64998 15.0217 9.71963 14.9521C9.78929 14.8824 9.87198 14.8271 9.963 14.7895C10.054 14.7518 10.1516 14.7324 10.2501 14.7324H34.2521C34.3506 14.7324 34.4481 14.7518 34.5391 14.7895C34.6301 14.8271 34.7128 14.8824 34.7825 14.9521C34.8521 15.0217 34.9074 15.1044 34.9451 15.1954C34.9828 15.2864 35.0021 15.384 35.0021 15.4825V24.4832C35.0021 24.5817 34.9828 24.6793 34.9451 24.7703C34.9074 24.8613 34.8521 24.944 34.7825 25.0137C34.7128 25.0833 34.6301 25.1386 34.5391 25.1763C34.4481 25.2139 34.3506 25.2333 34.2521 25.2333ZM11.0001 23.7332H33.502V16.2325H11.0001V23.7332Z" fill="#0E4271"/>
<path d="M17.7505 25.2334H14.7502C13.9545 25.2334 13.1914 24.9173 12.6288 24.3547C12.0661 23.792 11.75 23.0289 11.75 22.2332C11.75 21.4374 12.0661 20.6743 12.6288 20.1117C13.1914 19.549 13.9545 19.2329 14.7502 19.2329H17.7505C18.5462 19.2329 19.3093 19.549 19.872 20.1117C20.4347 20.6743 20.7507 21.4374 20.7507 22.2332C20.7507 23.0289 20.4347 23.792 19.872 24.3547C19.3093 24.9173 18.5462 25.2334 17.7505 25.2334ZM14.7502 20.733C14.3524 20.733 13.9708 20.8911 13.6895 21.1724C13.4082 21.4537 13.2501 21.8353 13.2501 22.2332C13.2501 22.631 13.4082 23.0126 13.6895 23.2939C13.9708 23.5752 14.3524 23.7333 14.7502 23.7333H17.7505C18.1484 23.7333 18.5299 23.5752 18.8112 23.2939C19.0926 23.0126 19.2506 22.631 19.2506 22.2332C19.2506 21.8353 19.0926 21.4537 18.8112 21.1724C18.5299 20.8911 18.1484 20.733 17.7505 20.733H14.7502Z" fill="#0E4271"/>
<path d="M29.7505 25.2334H26.7502C25.9545 25.2334 25.1914 24.9173 24.6288 24.3547C24.0661 23.792 23.75 23.0289 23.75 22.2332C23.75 21.4374 24.0661 20.6743 24.6288 20.1117C25.1914 19.549 25.9545 19.2329 26.7502 19.2329H29.7505C30.5462 19.2329 31.3093 19.549 31.872 20.1117C32.4347 20.6743 32.7507 21.4374 32.7507 22.2332C32.7507 23.0289 32.4347 23.792 31.872 24.3547C31.3093 24.9173 30.5462 25.2334 29.7505 25.2334ZM26.7502 20.733C26.3524 20.733 25.9708 20.8911 25.6895 21.1724C25.4082 21.4537 25.2501 21.8353 25.2501 22.2332C25.2501 22.631 25.4082 23.0126 25.6895 23.2939C25.9708 23.5752 26.3524 23.7333 26.7502 23.7333H29.7505C30.1484 23.7333 30.5299 23.5752 30.8112 23.2939C31.0926 23.0126 31.2506 22.631 31.2506 22.2332C31.2506 21.8353 31.0926 21.4537 30.8112 21.1724C30.5299 20.8911 30.1484 20.733 29.7505 20.733H26.7502Z" fill="#0E4271"/>
<path d="M22.0692 13.6609L17.1316 7.15275C16.4995 6.50072 16.1492 5.62629 16.1564 4.71823C16.1635 3.81017 16.5274 2.94134 17.1696 2.29932L17.456 2.01291C18.0591 1.41021 18.8634 1.05133 19.7147 1.00509C20.566 0.958863 21.4045 1.22853 22.0692 1.76239C22.734 1.22856 23.5725 0.958908 24.4239 1.00514C25.2753 1.05137 26.0796 1.41023 26.6828 2.01291L26.9692 2.29932C27.6112 2.94145 27.975 3.81028 27.9821 4.71831C27.9891 5.62633 27.6389 6.50071 27.0069 7.15275L22.0692 13.6609ZM19.9014 2.50002C19.3821 2.50011 18.884 2.7064 18.5167 3.07355L18.2303 3.35995C18.0483 3.54189 17.904 3.75789 17.8055 3.99562C17.7071 4.23334 17.6564 4.48813 17.6564 4.74544C17.6564 5.00275 17.7071 5.25755 17.8055 5.49527C17.904 5.73299 18.0483 5.94899 18.2303 6.13094L18.2977 6.20785L22.0692 11.1792L25.9081 6.13094C26.0901 5.94899 26.2344 5.73299 26.3329 5.49527C26.4314 5.25755 26.4821 5.00275 26.4821 4.74544C26.4821 4.48813 26.4314 4.23334 26.3329 3.99562C26.2344 3.75789 26.0901 3.54189 25.9081 3.35995L25.6218 3.07355C25.4232 2.8752 25.1844 2.7218 24.9214 2.62375C24.6584 2.52569 24.3774 2.48526 24.0975 2.50519C23.8175 2.52512 23.5451 2.60495 23.2987 2.73928C23.0523 2.8736 22.8376 3.05929 22.6691 3.28377L22.0692 4.08291L21.4693 3.28377C21.301 3.05917 21.0863 2.8734 20.8399 2.73905C20.5934 2.60471 20.321 2.52493 20.041 2.50514C19.9945 2.50148 19.9479 2.50002 19.9014 2.50002Z" fill="#0E4271"/>
<path d="M8.00037 42.4849H4.25006C4.15156 42.485 4.05401 42.4656 3.96299 42.4279C3.87198 42.3902 3.78928 42.335 3.71963 42.2653C3.64997 42.1957 3.59473 42.113 3.55704 42.0219C3.51936 41.9309 3.49997 41.8334 3.5 41.7349V36.4844C3.49997 36.3859 3.51936 36.2884 3.55704 36.1974C3.59473 36.1064 3.64998 36.0237 3.71963 35.954C3.78929 35.8844 3.87198 35.8291 3.963 35.7914C4.05401 35.7537 4.15156 35.7343 4.25006 35.7344H8.00037C8.09888 35.7343 8.19643 35.7537 8.28744 35.7914C8.37845 35.8291 8.46115 35.8844 8.53081 35.954C8.60046 36.0237 8.65571 36.1064 8.69339 36.1974C8.73108 36.2884 8.75046 36.3859 8.75044 36.4844V41.7349C8.75046 41.8334 8.73108 41.9309 8.6934 42.0219C8.65571 42.113 8.60046 42.1957 8.53081 42.2653C8.46115 42.335 8.37846 42.3902 8.28744 42.4279C8.19643 42.4656 8.09888 42.485 8.00037 42.4849ZM5.00012 40.9848H7.25031V37.2345H5.00012V40.9848Z" fill="#0E4271"/>
<path d="M40.2504 42.4849H36.5001C36.4016 42.485 36.304 42.4656 36.213 42.4279C36.122 42.3902 36.0393 42.335 35.9696 42.2653C35.9 42.1957 35.8447 42.113 35.807 42.0219C35.7694 41.9309 35.75 41.8334 35.75 41.7349V36.4844C35.75 36.3859 35.7694 36.2884 35.807 36.1974C35.8447 36.1064 35.9 36.0237 35.9696 35.954C36.0393 35.8844 36.122 35.8291 36.213 35.7914C36.304 35.7537 36.4016 35.7343 36.5001 35.7344H40.2504C40.3489 35.7343 40.4464 35.7537 40.5374 35.7914C40.6285 35.8291 40.7112 35.8844 40.7808 35.954C40.8505 36.0237 40.9057 36.1064 40.9434 36.1974C40.9811 36.2884 41.0005 36.3859 41.0004 36.4844V41.7349C41.0005 41.8334 40.9811 41.9309 40.9434 42.0219C40.9057 42.113 40.8505 42.1957 40.7808 42.2653C40.7112 42.335 40.6285 42.3902 40.5374 42.4279C40.4464 42.4656 40.3489 42.485 40.2504 42.4849ZM37.2501 40.9848H39.5003V37.2345H37.2501V40.9848Z" fill="#0E4271"/>
</svg>
