<svg width="44" height="44" viewBox="0 0 44 44" fill="none" xmlns="http://www.w3.org/2000/svg">
<path fill-rule="evenodd" clip-rule="evenodd" d="M26.4492 29.4555C26.3195 29.4555 26.1903 29.4028 26.0968 29.2985C25.046 28.1344 24.8921 26.5523 24.9472 25.4298C24.9783 24.7964 25.9267 24.8581 25.8961 25.4769C25.7474 28.4902 27.4772 28.6938 26.768 29.3329C26.6765 29.4146 26.5628 29.4555 26.4492 29.4555Z" fill="#0E4271"/>
<path fill-rule="evenodd" clip-rule="evenodd" d="M16.9284 29.4306C16.521 29.4306 16.2994 28.944 16.5761 28.6371C18.1285 26.9161 16.9417 25.0273 17.9499 24.9886C18.2162 24.9789 18.4332 25.1812 18.4444 25.4435C18.4903 26.5522 18.3257 28.1167 17.2815 29.2739C17.1875 29.3774 17.0583 29.4306 16.9284 29.4306Z" fill="#0E4271"/>
<path fill-rule="evenodd" clip-rule="evenodd" d="M26.691 16.6474C26.5696 16.6474 26.4478 16.6008 26.3549 16.5082C25.7694 15.9227 24.8163 15.9227 24.2308 16.5082C23.7883 16.9507 23.1164 16.2785 23.5589 15.8365C25.1452 14.2518 27.8116 15.7232 27.0271 16.5082C26.9342 16.6013 26.8126 16.6474 26.691 16.6474Z" fill="#0E4271"/>
<path fill-rule="evenodd" clip-rule="evenodd" d="M19.4873 16.6474C19.3657 16.6474 19.2441 16.6008 19.1517 16.5082C18.5662 15.9227 17.6129 15.9227 17.0274 16.5082C16.5849 16.9507 15.9134 16.2785 16.3557 15.8365C17.9425 14.2514 20.6082 15.7242 19.8236 16.5082C19.7305 16.6013 19.6092 16.6474 19.4873 16.6474Z" fill="#0E4271"/>
<path fill-rule="evenodd" clip-rule="evenodd" d="M23.7272 23.0367C23.6059 23.0367 23.484 22.9902 23.3912 22.8975C22.4534 21.9598 20.9265 21.9598 19.9883 22.8975C19.5453 23.3402 18.8746 22.6671 19.3166 22.2254C21.4404 20.1039 24.9369 22.0244 24.0628 22.8975C23.97 22.9904 23.8484 23.0367 23.727 23.0367H23.7272Z" fill="#0E4271"/>
<path fill-rule="evenodd" clip-rule="evenodd" d="M21.5808 27.4058C19.5225 27.4058 18.6099 26.4729 17.1257 25.4584C15.2883 24.2046 14.2518 23.4975 14.1914 20.4846C11.3033 18.8503 11.5405 16.6298 13.4433 15.0078C13.4803 12.4887 14.1318 10.7515 15.4317 9.70123C15.5548 9.60171 15.7191 9.57036 15.8704 9.61668C19.9614 10.8772 23.4379 10.871 27.5243 9.61668C27.6756 9.5706 27.84 9.60195 27.963 9.70123C29.676 11.085 29.9278 13.5005 29.9365 15.294C31.8953 16.8089 32.0072 18.8933 29.1843 20.4851C29.1119 24.098 27.5476 24.4846 25.1376 26.2363C24.1006 26.9904 22.8372 27.4058 21.5808 27.4058ZM15.8434 10.6019C14.8674 11.5147 14.3919 13.0348 14.3919 15.237C14.3919 15.8035 12.8659 16.2956 12.9718 17.7143C13.0267 18.4487 13.6701 19.1434 14.8845 19.7809C15.0408 19.8631 15.1389 20.0251 15.1389 20.2013C15.1389 23.6517 16.3968 23.684 19.0256 25.6359C20.6616 26.8505 22.9543 26.6493 24.5794 25.4679C27.0633 23.6624 28.2371 23.559 28.2371 20.2013C28.2371 20.0248 28.3352 19.8628 28.4915 19.7809C29.3432 19.3339 30.3669 18.6204 30.4078 17.7594C30.4688 16.4647 28.9832 16.1189 28.9867 15.5341C28.9962 13.9881 28.853 11.8287 27.5512 10.6024C23.5061 11.8113 19.893 11.8127 15.8434 10.6021V10.6019Z" fill="#0E4271"/>
<path fill-rule="evenodd" clip-rule="evenodd" d="M36.5927 42.1834H6.75628C6.49406 42.1834 6.28125 41.9704 6.28125 41.7084V35.3981C6.28125 31.5838 9.38462 28.4805 13.1989 28.4805H16.9279C17.5532 28.4805 17.5532 29.4305 16.9279 29.4305H13.1989C9.9081 29.4305 7.23131 32.1073 7.23131 35.3979V41.2329H36.1179V35.3983C36.1179 32.1213 33.4522 29.4557 30.1753 29.4557H26.4463C25.8209 29.4557 25.8211 28.5056 26.4463 28.5056H30.1757C33.9762 28.5056 37.0684 31.5979 37.0684 35.3983V41.7084C37.0682 41.9706 36.8551 42.1834 36.5929 42.1834H36.5927Z" fill="#0E4271"/>
<path fill-rule="evenodd" clip-rule="evenodd" d="M21.6774 32.9054C21.5789 32.9054 21.4803 32.8747 21.3967 32.8137L16.65 29.3393C16.1469 28.9709 16.7086 28.2052 17.211 28.5721L21.6791 31.8427L26.1703 28.5952C26.675 28.2301 27.232 28.9999 26.727 29.3652L21.9558 32.8149C21.8729 32.875 21.7751 32.9054 21.6777 32.9054H21.6774Z" fill="#0E4271"/>
<path fill-rule="evenodd" clip-rule="evenodd" d="M21.6782 42.1834C21.4159 42.1834 21.2031 41.9704 21.2031 41.7084V32.4299C21.2031 31.8045 22.1532 31.8047 22.1532 32.4299V41.7084C22.1532 41.9706 21.9408 42.1834 21.6782 42.1834Z" fill="#0E4271"/>
<path fill-rule="evenodd" clip-rule="evenodd" d="M31.511 42.1834C31.2488 42.1834 31.036 41.9703 31.036 41.7083V35.6306C31.036 35.0052 31.9861 35.0054 31.9861 35.6306V41.7083C31.9861 41.9706 31.773 42.1834 31.511 42.1834ZM11.85 42.1834C11.5878 42.1834 11.375 41.9703 11.375 41.7083V35.6306C11.375 35.0052 12.3251 35.0054 12.3251 35.6306V41.7083C12.3251 41.9706 12.1127 42.1834 11.85 42.1834Z" fill="#0E4271"/>
<path fill-rule="evenodd" clip-rule="evenodd" d="M11.8459 39.3788H6.7581C6.13272 39.3788 6.13272 38.4287 6.7581 38.4287H11.8459C12.471 38.4287 12.4713 39.3788 11.8459 39.3788Z" fill="#0E4271"/>
<path fill-rule="evenodd" clip-rule="evenodd" d="M36.2911 39.3788H31.508C30.8826 39.3788 30.8829 38.4287 31.508 38.4287H36.2911C36.9165 38.4287 36.9162 39.3788 36.2911 39.3788Z" fill="#0E4271"/>
<path fill-rule="evenodd" clip-rule="evenodd" d="M29.4594 16.012C29.0347 16.012 28.8214 15.4904 29.1312 15.194C30.67 13.7218 30.4843 10.3057 30.4427 9.74964C29.4221 7.51748 29.9539 5.91378 30.2867 5.2466C28.72 3.71106 24.8286 4.245 23.3971 4.60008C22.8976 4.72454 22.5867 4.06733 22.9978 3.75904L24.4248 2.6888C17.6941 1.68269 9.89816 9.3366 14.2881 14.9446C14.672 15.435 13.924 16.0205 13.5404 15.53C8.33365 8.8782 17.8808 -0.219334 25.6722 1.98694C26.0494 2.09382 26.1413 2.58857 25.8276 2.82418L25.1295 3.34766C27.0669 3.13984 29.9204 3.17927 31.2448 4.89816C31.7362 5.53541 29.89 6.34178 31.3389 9.42377C31.459 9.6791 31.7602 13.9933 29.7879 15.8801C29.696 15.968 29.5779 16.012 29.4594 16.012Z" fill="#0E4271"/>
<path fill-rule="evenodd" clip-rule="evenodd" d="M40.7808 22.1895L34.7893 22.1874C34.1634 22.1874 34.1646 21.2378 34.7893 21.2378L40.7808 21.2397C41.4064 21.2399 41.4057 22.1893 40.7808 22.1893V22.1895Z" fill="#0E4271"/>
<path fill-rule="evenodd" clip-rule="evenodd" d="M34.1387 18.1694C33.6563 18.1694 33.481 17.5253 33.9007 17.283L39.8922 13.8236C40.4335 13.5108 40.909 14.3338 40.3673 14.6461C39.6588 15.0549 34.4434 18.1692 34.1384 18.1692L34.1387 18.1694Z" fill="#0E4271"/>
<path fill-rule="evenodd" clip-rule="evenodd" d="M40.1318 29.6675C39.8268 29.6675 34.6115 26.553 33.903 26.1445C33.3612 25.8319 33.8367 25.0098 34.378 25.3219L40.3696 28.7813C40.79 29.0236 40.6137 29.6675 40.1316 29.6675H40.1318Z" fill="#0E4271"/>
<path fill-rule="evenodd" clip-rule="evenodd" d="M9.21746 18.1699C8.9132 18.1699 3.69619 15.0551 2.98863 14.6469C2.44805 14.3348 2.92118 13.5108 3.46366 13.8243L9.45569 17.2837C9.87538 17.526 9.70056 18.1702 9.21746 18.1702V18.1699Z" fill="#0E4271"/>
<path fill-rule="evenodd" clip-rule="evenodd" d="M3.22498 29.6673C2.74259 29.6673 2.56659 29.0231 2.98675 28.7806L8.97878 25.3212C9.52079 25.0084 9.99487 25.8311 9.45381 26.1437C8.74744 26.5518 3.52829 29.667 3.22498 29.667V29.6673Z" fill="#0E4271"/>
<path fill-rule="evenodd" clip-rule="evenodd" d="M3.22673 22.1898C2.60159 22.1898 2.60159 21.2402 3.22625 21.2402L9.2178 21.2383C9.84318 21.2383 9.84318 22.1879 9.21828 22.1879L3.22673 22.19V22.1898Z" fill="#0E4271"/>
</svg>
