<svg width="44" height="44" viewBox="0 0 44 44" fill="none" xmlns="http://www.w3.org/2000/svg">
<path fill-rule="evenodd" clip-rule="evenodd" d="M17.4616 25.527C17.2458 25.527 17.0532 25.3836 16.9918 25.176L14.9304 18.2165L11.6471 23.3612C11.557 23.5023 11.4017 23.5877 11.2343 23.5877H5.6005C4.95608 23.5877 4.95608 22.6085 5.6005 22.6085H10.9662L14.6829 16.7852C14.9091 16.4296 15.4471 16.5106 15.5651 16.9096L17.6265 23.8696L21.403 17.9516C21.6292 17.5972 22.1665 17.6762 22.2847 18.0761L23.3057 21.5228L25.4918 14.1426C25.6204 13.709 26.2157 13.6728 26.4043 14.0736L30.0011 21.7302H39.0555C39.7 21.7302 39.5042 22.7094 38.8602 22.7094H29.6906C29.5008 22.7094 29.3283 22.5995 29.2473 22.4279L26.0651 15.6547L23.7754 23.3861C23.6373 23.8512 22.9744 23.8512 22.8363 23.3861L21.6509 19.3836L17.8749 25.3009C17.784 25.4432 17.6276 25.5274 17.4621 25.5274L17.4616 25.527Z" fill="#0E4271"/>
<path fill-rule="evenodd" clip-rule="evenodd" d="M21.9196 39.976C21.7896 39.976 21.6654 39.9243 21.5738 39.8324L5.64892 23.908C-1.71744 16.5416 3.50532 3.86268 13.9571 3.86268C16.9428 3.86268 19.7518 4.95849 21.9194 6.95824C29.346 0.107918 41.6184 5.2882 41.6184 15.5996C41.6184 18.7466 40.4009 21.6977 38.1906 23.9085L22.2664 39.8328C22.1748 39.9247 22.0498 39.9762 21.9201 39.9762L21.9196 39.976ZM13.9576 4.84143C4.29359 4.84143 -0.352644 16.5206 6.34137 23.2149L21.9196 38.7945L37.4979 23.2153C44.1931 16.5206 39.545 4.84189 29.8822 4.84189C26.9965 4.84189 24.2916 5.95733 22.266 7.98294C22.0746 8.17435 21.7649 8.17435 21.5733 7.98294C19.5479 5.9571 16.843 4.84143 13.9573 4.84143H13.9576Z" fill="#0E4271"/>
</svg>
