<svg width="32" height="32" viewBox="0 0 32 32" fill="none" xmlns="http://www.w3.org/2000/svg">
<path d="M18.875 17.4C19.3319 16.8526 19.6234 16.1863 19.7151 15.4792C19.8068 14.7721 19.6951 14.0535 19.3929 13.4077C19.0907 12.7619 18.6107 12.2156 18.0091 11.8328C17.4075 11.4501 16.7093 11.2468 15.9963 11.2468C15.2832 11.2468 14.585 11.4501 13.9834 11.8328C13.3818 12.2156 12.9018 12.7619 12.5996 13.4077C12.2975 14.0535 12.1857 14.7721 12.2774 15.4792C12.3691 16.1863 12.6606 16.8526 13.1175 17.4C12.6052 17.5748 12.1554 17.8959 11.8238 18.3237C11.5672 18.6509 11.3893 19.0326 11.3039 19.4395C11.2185 19.8463 11.2279 20.2673 11.3313 20.67L12.8538 26.67C13.0078 27.2682 13.3573 27.7977 13.8467 28.1745C14.3361 28.5514 14.9373 28.7539 15.555 28.75H16.445C17.062 28.7531 17.6624 28.5502 18.1511 28.1734C18.6397 27.7966 18.9886 27.2675 19.1425 26.67L20.665 20.67C20.7684 20.2673 20.7777 19.8463 20.6923 19.4395C20.6069 19.0326 20.4291 18.6509 20.1725 18.3237C19.8399 17.8953 19.3887 17.5741 18.875 17.4ZM16 12.75C16.445 12.75 16.88 12.882 17.25 13.1292C17.62 13.3764 17.9084 13.7278 18.0787 14.139C18.249 14.5501 18.2936 15.0025 18.2068 15.439C18.12 15.8754 17.9057 16.2763 17.591 16.591C17.2763 16.9057 16.8754 17.1199 16.439 17.2068C16.0025 17.2936 15.5501 17.249 15.139 17.0787C14.7278 16.9084 14.3764 16.62 14.1292 16.25C13.882 15.88 13.75 15.445 13.75 15C13.75 14.4033 13.9871 13.831 14.409 13.409C14.831 12.9871 15.4033 12.75 16 12.75ZM19.2113 20.3L17.6888 26.3C17.6167 26.5742 17.4553 26.8165 17.23 26.9886C17.0047 27.1606 16.7285 27.2526 16.445 27.25H15.555C15.2705 27.254 14.9928 27.1627 14.7662 26.9905C14.5397 26.8183 14.3773 26.5752 14.305 26.3L12.7825 20.3C12.7362 20.1189 12.7322 19.9295 12.7707 19.7466C12.8093 19.5636 12.8895 19.392 13.005 19.245C13.1251 19.0888 13.2797 18.9625 13.4566 18.8758C13.6335 18.7891 13.828 18.7443 14.025 18.745H17.9625C18.1595 18.7443 18.354 18.7891 18.5309 18.8758C18.7078 18.9625 18.8624 19.0888 18.9825 19.245C19.0991 19.3915 19.1804 19.5628 19.2201 19.7458C19.2597 19.9288 19.2567 20.1184 19.2113 20.3ZM23.25 16C23.2486 14.9657 23.0259 13.9437 22.5969 13.0026C22.168 12.0615 21.5426 11.2231 20.7628 10.5437C19.983 9.86422 19.0669 9.35948 18.0759 9.06334C17.0849 8.7672 16.0421 8.68651 15.0174 8.82669C13.9926 8.96687 13.0098 9.32468 12.1348 9.87608C11.2597 10.4275 10.5128 11.1597 9.94418 12.0236C9.37552 12.8875 8.99829 13.8631 8.83781 14.8849C8.67734 15.9066 8.73732 16.9509 9.01375 17.9475C9.06231 18.1376 9.03443 18.3392 8.93609 18.509C8.83776 18.6788 8.6768 18.8033 8.48775 18.8558C8.29869 18.9082 8.09659 18.8846 7.92479 18.7898C7.75299 18.695 7.62517 18.5367 7.56875 18.3487C7.20803 17.0491 7.15262 15.6837 7.40687 14.3591C7.66112 13.0346 8.21813 11.7867 9.0344 10.713C9.85067 9.6393 10.9041 8.76884 12.1124 8.16959C13.3208 7.57035 14.6513 7.25855 16 7.25855C17.3488 7.25855 18.6793 7.57035 19.8876 8.16959C21.0959 8.76884 22.1493 9.6393 22.9656 10.713C23.7819 11.7867 24.3389 13.0346 24.5931 14.3591C24.8474 15.6837 24.792 17.0491 24.4313 18.3487C24.3748 18.5367 24.247 18.695 24.0752 18.7898C23.9034 18.8846 23.7013 18.9082 23.5123 18.8558C23.3232 18.8033 23.1622 18.6788 23.0639 18.509C22.9656 18.3392 22.9377 18.1376 22.9863 17.9475C23.1617 17.3132 23.2504 16.6581 23.25 16ZM28.75 16C28.7512 18.096 28.2351 20.16 27.2475 22.0088C26.26 23.8576 24.8315 25.4342 23.0888 26.5987C22.923 26.7095 22.72 26.7498 22.5245 26.7109C22.329 26.672 22.157 26.557 22.0463 26.3913C21.9355 26.2255 21.8952 26.0225 21.9341 25.827C21.973 25.6315 22.088 25.4595 22.2538 25.3487C24.2597 24.0073 25.7812 22.0564 26.5935 19.7841C27.4058 17.5118 27.4659 15.0385 26.765 12.7293C26.064 10.4202 24.6392 8.39771 22.7008 6.96039C20.7624 5.52306 18.4132 4.74711 16 4.74711C13.5869 4.74711 11.2377 5.52306 9.29925 6.96039C7.36085 8.39771 5.93599 10.4202 5.23505 12.7293C4.53411 15.0385 4.59423 17.5118 5.40654 19.7841C6.21886 22.0564 7.7403 24.0073 9.74625 25.3487C9.91201 25.4595 10.027 25.6315 10.0659 25.827C10.1048 26.0225 10.0645 26.2255 9.95375 26.3913C9.84302 26.557 9.67098 26.672 9.47548 26.7109C9.27997 26.7498 9.07701 26.7095 8.91125 26.5987C7.08061 25.3742 5.59838 23.6964 4.60898 21.7287C3.61957 19.7611 3.15674 17.5707 3.26558 15.3709C3.37442 13.1712 4.05121 11.0372 5.23002 9.17679C6.40883 7.31639 8.04945 5.79308 9.99202 4.75527C11.9346 3.71746 14.1129 3.20054 16.3146 3.25489C18.5164 3.30924 20.6665 3.933 22.5555 5.06539C24.4445 6.19778 26.008 7.80018 27.0936 9.71647C28.1791 11.6328 28.7498 13.7976 28.75 16Z" fill="white"/>
</svg>
