<svg width="32" height="32" viewBox="0 0 32 32" fill="none" xmlns="http://www.w3.org/2000/svg">
<path d="M15.9974 30.3333C23.9135 30.3333 30.3307 23.9161 30.3307 16C30.3307 8.08391 23.9135 1.66666 15.9974 1.66666C8.08131 1.66666 1.66406 8.08391 1.66406 16C1.66406 23.9161 8.08131 30.3333 15.9974 30.3333Z" stroke="white" stroke-width="1.5" stroke-linecap="round" stroke-linejoin="round"/>
<path d="M21.5234 19.8C22.2654 19.5 23.5848 19.1013 23.9821 19.5827C24.4114 20.1033 23.8688 21.234 23.3688 22.112" stroke="white" stroke-width="1.2" stroke-linecap="round" stroke-linejoin="round"/>
<path d="M7.86169 20.1487C9.03435 21.08 12.4977 22.5053 16.187 22.5053C18.6077 22.5625 20.983 21.8429 22.965 20.452M13.599 13.4167V15.6167C13.599 15.9703 13.7395 16.3094 13.9895 16.5595C14.2396 16.8095 14.5787 16.95 14.9324 16.95C15.286 16.95 15.6251 16.8095 15.8752 16.5595C16.1252 16.3094 16.2657 15.9703 16.2657 15.6167M16.2657 15.6167V13.4167M16.2657 15.6167V16.95M6.92969 14.8167C6.92969 14.463 7.07016 14.1239 7.32021 13.8738C7.57026 13.6238 7.9094 13.4833 8.26302 13.4833C8.61664 13.4833 8.95578 13.6238 9.20583 13.8738C9.45588 14.1239 9.59635 14.463 9.59635 14.8167M9.59635 14.8167V16.95M9.59635 14.8167C9.59635 14.463 9.73683 14.1239 9.98688 13.8738C10.2369 13.6238 10.5761 13.4833 10.9297 13.4833C11.2833 13.4833 11.6224 13.6238 11.8725 13.8738C12.1225 14.1239 12.263 14.463 12.263 14.8167V16.95M6.92969 13.4833V16.95" stroke="white" stroke-width="1.2" stroke-linecap="round" stroke-linejoin="round"/>
<path d="M21.2557 12.25C21.5135 12.25 21.7224 12.0411 21.7224 11.7833C21.7224 11.5256 21.5135 11.3167 21.2557 11.3167C20.998 11.3167 20.7891 11.5256 20.7891 11.7833C20.7891 12.0411 20.998 12.25 21.2557 12.25Z" fill="white"/>
<path d="M21.2527 13.4167V16.95M17.6927 16.6487C18.0052 16.8882 18.3993 16.9952 18.79 16.9467H19.0887C19.3227 16.9463 19.547 16.8531 19.7122 16.6874C19.8775 16.5218 19.9702 16.2973 19.97 16.0633C19.9702 15.8294 19.8775 15.6049 19.7122 15.4392C19.547 15.2736 19.3227 15.1804 19.0887 15.18H18.4907C18.2567 15.1797 18.0325 15.0864 17.8672 14.9208C17.7019 14.7551 17.6092 14.5307 17.6094 14.2967C17.6092 14.0627 17.7019 13.8382 17.8672 13.6726C18.0325 13.5069 18.2567 13.4137 18.4907 13.4133H18.79C19.1804 13.3654 19.574 13.4726 19.886 13.712M25.066 16.2787C24.9493 16.4827 24.7808 16.6523 24.5774 16.7702C24.374 16.8881 24.1431 16.9501 23.908 16.95C23.5544 16.95 23.2153 16.8095 22.9652 16.5595C22.7152 16.3094 22.5747 15.9703 22.5747 15.6167V14.75C22.5747 14.3964 22.7152 14.0572 22.9652 13.8072C23.2153 13.5571 23.5544 13.4167 23.908 13.4167C24.1427 13.4166 24.3732 13.4784 24.5763 13.596C24.7794 13.7135 24.9479 13.8825 25.0647 14.086" stroke="white" stroke-width="1.2" stroke-linecap="round" stroke-linejoin="round"/>
</svg>
