<svg width="20" height="20" viewBox="0 0 20 20" fill="none" xmlns="http://www.w3.org/2000/svg">
<path fill-rule="evenodd" clip-rule="evenodd" d="M13.6022 12.4159L18.0855 16.8993C18.2431 17.057 18.3316 17.2708 18.3315 17.4937C18.3314 17.7167 18.2428 17.9304 18.0851 18.088C17.9274 18.2456 17.7136 18.3341 17.4906 18.334C17.2677 18.3339 17.0539 18.2453 16.8963 18.0876L12.413 13.6043C11.0728 14.6423 9.38741 15.1308 7.69979 14.9704C6.01216 14.81 4.44904 14.0126 3.32842 12.7406C2.20779 11.4686 1.61384 9.81746 1.66739 8.12307C1.72094 6.42868 2.41798 4.81833 3.61669 3.61962C4.8154 2.4209 6.42575 1.72387 8.12014 1.67032C9.81453 1.61677 11.4657 2.21072 12.7377 3.33135C14.0097 4.45197 14.807 6.01509 14.9675 7.70272C15.1279 9.39034 14.6394 11.0757 13.6013 12.4159M8.33135 13.3334C9.65743 13.3334 10.9292 12.8067 11.8669 11.869C12.8046 10.9313 13.3313 9.65953 13.3313 8.33345C13.3313 7.00736 12.8046 5.73559 11.8669 4.79791C10.9292 3.86023 9.65743 3.33345 8.33135 3.33345C7.00527 3.33345 5.7335 3.86023 4.79582 4.79791C3.85813 5.73559 3.33135 7.00736 3.33135 8.33345C3.33135 9.65953 3.85813 10.9313 4.79582 11.869C5.7335 12.8067 7.00527 13.3334 8.33135 13.3334Z" fill="#8D99AF"/>
</svg>
