<svg width="56" height="56" viewBox="0 0 56 56" fill="none" xmlns="http://www.w3.org/2000/svg">
<path d="M14.6257 39.7442C14.7522 39.8022 14.8907 39.8293 15.0298 39.8231C15.1688 39.8168 15.3044 39.7775 15.4252 39.7084C15.546 39.6392 15.6486 39.5423 15.7244 39.4255C15.8003 39.3088 15.8471 39.1757 15.8612 39.0372L15.9487 38.1683C16.9223 40.5882 18.5554 42.6864 20.6623 44.2242C18.8572 45.3031 17.8352 46.7214 17.8352 48.2553C17.8352 51.6171 22.7168 54.2499 28.9477 54.2499C35.1785 54.2499 40.0602 51.6171 40.0602 48.2553C40.0602 46.6864 38.99 45.2409 37.1009 44.1489C39.4898 42.3757 41.2473 39.8834 42.1155 37.0378C42.1348 38.1753 42.1068 38.8753 42.105 38.9077C42.0946 39.1193 42.1612 39.3275 42.2926 39.4937C42.4241 39.6599 42.6113 39.7727 42.8196 39.8113C43.0279 39.8499 43.2432 39.8116 43.4254 39.7035C43.6076 39.5954 43.7444 39.4249 43.8104 39.2236L46.0854 32.3207C47.8546 27.1299 48.1307 21.5467 46.8825 16.2067C44.9637 8.33168 40.1503 3.4938 32.9622 2.21455C15.862 -0.831323 8.68967 12.2438 8.61967 12.3768C8.54506 12.5178 8.5104 12.6765 8.51945 12.8357C8.52849 12.995 8.58089 13.1487 8.67098 13.2803C8.76107 13.4119 8.88543 13.5164 9.0306 13.5825C9.17578 13.6486 9.33625 13.6737 9.49467 13.6552L15.1542 12.9674C11.6005 16.5429 9.27883 21.1578 8.52605 26.1423C7.07792 36.1567 14.5495 39.7101 14.6257 39.7442ZM38.3119 48.2553C38.3119 50.2678 34.4672 52.4999 28.9494 52.4999C23.4317 52.4999 19.5869 50.2634 19.5869 48.2553C19.5869 47.1922 20.6238 46.1054 22.3659 45.2996C24.3775 46.3649 26.621 46.9173 28.8973 46.9077C31.1736 46.8981 33.4123 46.3268 35.4148 45.2444C37.2304 46.0626 38.3119 47.1694 38.3119 48.2553ZM40.9632 27.4111V33.0268C40.936 36.2264 39.6459 39.2857 37.3738 41.5387C35.1016 43.7916 32.0315 45.0556 28.8317 45.0556C25.632 45.0556 22.5618 43.7916 20.2897 41.5387C18.0176 39.2857 16.7275 36.2264 16.7003 33.0268V30.7124L16.9374 28.3604C16.9957 27.8086 17.2473 27.2951 17.6476 26.9108C18.0479 26.5265 18.5712 26.2962 19.1249 26.2604C27.7157 25.6331 32.7189 18.4563 34.1749 16.0229C37.9322 18.3111 39.9219 22.8891 40.9719 27.3524C40.9679 27.3718 40.965 27.3914 40.9632 27.4111ZM10.2585 26.3934C11.1287 20.9063 14.0156 15.9416 18.354 12.4713C18.5123 12.3584 18.6285 12.1961 18.6842 12.0098C18.74 11.8236 18.7321 11.6241 18.6619 11.4429C18.5917 11.2616 18.4631 11.1089 18.2964 11.0088C18.1298 10.9087 17.9345 10.867 17.7415 10.8902L11.1484 11.6917C13.4847 8.52505 20.1084 1.70268 32.6594 3.93743C39.2053 5.10293 43.4219 9.3703 45.1868 16.6249C46.3574 21.6466 46.0945 26.896 44.4282 31.7756L43.7404 33.8598C43.2767 27.6596 41.3946 17.6452 34.2327 14.0638C34.0262 13.9606 33.7873 13.9431 33.568 14.0152C33.3487 14.0873 33.1668 14.2432 33.0619 14.4488C33.0138 14.5424 28.1418 23.8568 18.9989 24.5227C18.0344 24.5877 17.1238 24.9914 16.428 25.6625C15.7322 26.3337 15.2959 27.2291 15.1962 28.1907L14.2625 37.4762C12.4907 36.1786 9.3188 32.8868 10.2585 26.3934Z" fill="#F3776D"/>
<path d="M26.4695 29.2566C26.4695 29.0245 26.3773 28.802 26.2132 28.6379C26.0491 28.4738 25.8265 28.3816 25.5945 28.3816H19.2148C18.9828 28.3816 18.7602 28.4738 18.5961 28.6379C18.432 28.802 18.3398 29.0245 18.3398 29.2566C18.3398 29.4887 18.432 29.7112 18.5961 29.8753C18.7602 30.0394 18.9828 30.1316 19.2148 30.1316H20.9342C20.8803 30.3407 20.8716 30.5589 20.9085 30.7716C20.9455 30.9844 21.0273 31.1868 21.1485 31.3655C21.2698 31.5442 21.4276 31.6951 21.6117 31.808C21.7957 31.921 22.0017 31.9935 22.2159 32.0207C22.4301 32.048 22.6477 32.0293 22.8541 31.9659C23.0605 31.9026 23.2511 31.796 23.4132 31.6533C23.5753 31.5106 23.7051 31.3351 23.7941 31.1383C23.8831 30.9416 23.9292 30.7282 23.9293 30.5122C23.9279 30.3835 23.9096 30.2556 23.8751 30.1316H25.5945C25.8265 30.1316 26.0491 30.0394 26.2132 29.8753C26.3773 29.7112 26.4695 29.4887 26.4695 29.2566ZM22.182 30.5122C22.1801 30.4814 22.1845 30.4506 22.1949 30.4216C22.2054 30.3926 22.2216 30.3661 22.2428 30.3436C22.2639 30.3211 22.2894 30.3032 22.3177 30.291C22.3459 30.2787 22.3765 30.2724 22.4073 30.2724C22.4381 30.2724 22.4686 30.2787 22.4969 30.291C22.5252 30.3032 22.5507 30.3211 22.5718 30.3436C22.5929 30.3661 22.6092 30.3926 22.6197 30.4216C22.6301 30.4506 22.6345 30.4814 22.6326 30.5122C22.63 30.7607 22.1793 30.7607 22.1793 30.5122H22.182Z" fill="#F3776D"/>
<path d="M31.4336 29.2566C31.4336 29.4887 31.5258 29.7112 31.6899 29.8753C31.854 30.0394 32.0765 30.1316 32.3086 30.1316H34.028C33.9741 30.3407 33.9653 30.5589 34.0023 30.7716C34.0392 30.9844 34.1211 31.1868 34.2423 31.3655C34.3635 31.5442 34.5214 31.6951 34.7054 31.808C34.8895 31.921 35.0954 31.9935 35.3096 32.0207C35.5239 32.048 35.7414 32.0293 35.9478 31.9659C36.1543 31.9026 36.3449 31.796 36.507 31.6533C36.669 31.5106 36.7989 31.3351 36.8879 31.1383C36.9769 30.9416 37.023 30.7282 37.0231 30.5122C37.0216 30.3835 37.0034 30.2556 36.9688 30.1316H38.6882C38.9203 30.1316 39.1428 30.0394 39.3069 29.8753C39.471 29.7112 39.5632 29.4887 39.5632 29.2566C39.5632 29.0245 39.471 28.802 39.3069 28.6379C39.1428 28.4738 38.9203 28.3816 38.6882 28.3816H32.3086C32.0765 28.3816 31.854 28.4738 31.6899 28.6379C31.5258 28.802 31.4336 29.0245 31.4336 29.2566ZM35.2731 30.5122C35.2712 30.4814 35.2756 30.4506 35.286 30.4216C35.2965 30.3926 35.3128 30.3661 35.3339 30.3436C35.355 30.3211 35.3805 30.3032 35.4088 30.291C35.4371 30.2787 35.4676 30.2724 35.4984 30.2724C35.5292 30.2724 35.5597 30.2787 35.588 30.291C35.6163 30.3032 35.6418 30.3211 35.6629 30.3436C35.684 30.3661 35.7003 30.3926 35.7108 30.4216C35.7212 30.4506 35.7256 30.4814 35.7237 30.5122C35.7237 30.7607 35.2731 30.7607 35.2731 30.5122Z" fill="#F3776D"/>
<path d="M32.3098 38.0747H27.0195C26.7875 38.0747 26.5649 38.1669 26.4008 38.331C26.2367 38.4951 26.1445 38.7176 26.1445 38.9497C26.1445 39.1818 26.2367 39.4043 26.4008 39.5684C26.5649 39.7325 26.7875 39.8247 27.0195 39.8247H32.3098C32.5418 39.8247 32.7644 39.7325 32.9285 39.5684C33.0926 39.4043 33.1848 39.1818 33.1848 38.9497C33.1848 38.7176 33.0926 38.4951 32.9285 38.331C32.7644 38.1669 32.5418 38.0747 32.3098 38.0747Z" fill="#F3776D"/>
<path d="M20.3982 8.19087C20.5261 8.19104 20.6525 8.16295 20.7683 8.10862C22.8586 7.12929 25.1247 6.58113 27.4314 6.49687C29.8557 6.40934 32.2715 6.8302 34.5233 7.73237C34.6305 7.77793 34.7456 7.80165 34.8621 7.80213C34.9785 7.80262 35.0939 7.77985 35.2014 7.73518C35.3089 7.69051 35.4065 7.62482 35.4883 7.54198C35.5701 7.45913 35.6346 7.36079 35.6779 7.25271C35.7212 7.14463 35.7425 7.029 35.7406 6.91258C35.7386 6.79615 35.7135 6.68129 35.6666 6.57472C35.6197 6.46814 35.552 6.372 35.4675 6.29192C35.3829 6.21184 35.2833 6.14944 35.1743 6.10837C32.6934 5.11713 30.0332 4.65374 27.3632 4.74775C24.8238 4.84118 22.3292 5.44497 20.0281 6.52312C19.8477 6.60739 19.7015 6.75065 19.6135 6.92924C19.5255 7.10784 19.5011 7.3111 19.5442 7.50545C19.5874 7.69981 19.6955 7.87364 19.8507 7.99826C20.006 8.12287 20.1991 8.19082 20.3982 8.19087Z" fill="#F3776D"/>
</svg>
