<svg width="56" height="57" viewBox="0 0 56 57" fill="none" xmlns="http://www.w3.org/2000/svg">
<path d="M31.4178 31.3483C31.3889 31.3483 31.3599 31.347 31.331 31.3443C31.2088 31.333 31.0867 31.3271 30.9628 31.3271H24.3637C23.8518 31.3271 23.4375 30.9123 23.4375 30.4008C23.4375 29.8894 23.8517 29.4746 24.3637 29.4746H30.9628C31.1446 29.4746 31.3246 29.4832 31.5027 29.4999C32.0119 29.5474 32.3865 29.9988 32.3394 30.508C32.2943 30.9883 31.8908 31.3483 31.4178 31.3483Z" fill="#F3776D"/>
<path d="M20.8342 33.6252C19.3537 33.6252 17.8974 32.7343 16.5045 30.9756C16.3753 30.8123 16.3047 30.6098 16.3047 30.4007V26.4116C16.3047 25.9001 16.7189 25.4854 17.2309 25.4854C17.7428 25.4854 18.1571 25.9001 18.1571 26.4116V30.0712C19.1068 31.2008 20.0068 31.7734 20.8353 31.7734C20.8407 31.7734 20.847 31.773 20.8525 31.773C21.6692 31.7652 22.5384 31.1963 23.4401 30.0811V26.442C23.4401 25.9306 23.8544 25.5158 24.3663 25.5158C24.8783 25.5158 25.2926 25.9306 25.2926 26.442V30.4009C25.2926 30.6035 25.2266 30.8002 25.1036 30.9617C23.7704 32.7146 22.3458 33.611 20.8706 33.6254C20.8586 33.6252 20.8469 33.6252 20.8342 33.6252Z" fill="#F3776D"/>
<path d="M20.836 27.9599C14.8439 27.9599 9.96875 23.4375 9.96875 17.8786V15.9648C9.96875 15.4533 10.383 15.0386 10.895 15.0386C11.4068 15.0386 11.8212 15.4533 11.8212 15.9648V17.8786C11.8212 22.4159 15.865 26.1076 20.8361 26.1076C25.8062 26.1076 29.8502 22.416 29.8502 17.8786V14.4279C29.8502 13.9165 30.2644 13.5017 30.7764 13.5017C31.2884 13.5017 31.7026 13.9165 31.7026 14.4279V17.8785C31.7024 23.4375 26.8282 27.9599 20.836 27.9599Z" fill="#F3776D"/>
<path d="M16.27 20.0237C15.7581 20.0237 15.3438 19.6089 15.3438 19.0974V17.5603C15.3438 17.0488 15.758 16.634 16.27 16.634C16.782 16.634 17.1962 17.0488 17.1962 17.5603V19.0974C17.1962 19.609 16.7818 20.0237 16.27 20.0237Z" fill="#F3776D"/>
<path d="M25.4106 20.0237C24.8987 20.0237 24.4844 19.6089 24.4844 19.0974V17.5603C24.4844 17.0488 24.8986 16.634 25.4106 16.634C25.9226 16.634 26.3368 17.0488 26.3368 17.5603V19.0974C26.3368 19.609 25.9225 20.0237 25.4106 20.0237Z" fill="#F3776D"/>
<path d="M10.2503 16.9416C10.0133 16.9416 9.78453 16.8508 9.61175 16.686C9.42823 16.5115 9.32422 16.2691 9.32422 16.0154C9.32422 12.9392 10.5218 10.0471 12.6971 7.87228C14.8803 5.69709 17.7718 4.5 20.8398 4.5C23.9069 4.5 26.7985 5.69709 28.981 7.87094C28.981 7.87139 28.9819 7.87184 28.9819 7.87228C30.7673 9.65774 31.9305 12.0157 32.2561 14.5112C32.2977 14.8291 32.172 15.1457 31.9241 15.3487C31.6745 15.5509 31.3398 15.6105 31.0368 15.5065C28.5902 14.6648 26.6981 13.486 25.3974 11.9958C18.9847 16.4657 10.6599 16.9225 10.2953 16.9406C10.2801 16.9411 10.2656 16.9416 10.2503 16.9416ZM20.8398 6.35233C18.2657 6.35233 15.8381 7.35762 14.0055 9.18333C12.4236 10.7652 11.4577 12.8009 11.2289 14.9973C13.7144 14.7183 20.2095 13.6632 25.0105 9.98519C25.2112 9.83242 25.4673 9.76767 25.7159 9.80525C25.9655 9.84417 26.1889 9.9834 26.3337 10.1905C27.1504 11.3618 28.3995 12.3431 30.0584 13.1197C29.5935 11.6449 28.775 10.2847 27.6733 9.18344C25.8407 7.35762 23.4139 6.35233 20.8398 6.35233Z" fill="#F3776D"/>
<path d="M23.8439 24.0165C23.7923 24.0165 23.739 24.0125 23.6856 24.003C22.3117 23.7669 21.3747 23.2536 20.7968 22.8223C20.2188 23.2537 19.2819 23.7669 17.907 24.003C17.4049 24.0957 16.9247 23.7506 16.8378 23.2473C16.7509 22.7431 17.0892 22.2642 17.5939 22.1777C19.3296 21.8793 20.0406 21.03 20.0704 20.9939C20.2459 20.7781 20.5145 20.6479 20.7922 20.6479H20.8066C21.0898 20.6525 21.3593 20.78 21.532 21.0048C21.5528 21.0298 22.2646 21.8794 24.0003 22.178C24.504 22.2644 24.8424 22.7433 24.7556 23.2476C24.6778 23.6981 24.2871 24.0165 23.8439 24.0165Z" fill="#F3776D"/>
<path d="M29.6606 48.0508C29.1487 48.0508 28.7344 47.636 28.7344 47.1246V41.8186C28.7344 41.3071 29.1486 40.8923 29.6606 40.8923C30.1726 40.8923 30.5868 41.3071 30.5868 41.8186V47.1247C30.5868 47.6361 30.1726 48.0508 29.6606 48.0508Z" fill="#F3776D"/>
<path d="M12.02 52.6619C11.5081 52.6619 11.0938 52.2471 11.0938 51.7357V41.8186C11.0938 41.3071 11.508 40.8923 12.02 40.8923C12.5318 40.8923 12.9462 41.3071 12.9462 41.8186V51.7357C12.9462 52.2471 12.532 52.6619 12.02 52.6619Z" fill="#F3776D"/>
<path d="M49.464 52.6616H27.4536C26.9417 52.6616 26.5273 52.2468 26.5273 51.7354C26.5273 47.9619 29.598 44.8916 33.3714 44.8916H35.6787C36.1906 44.8916 36.6049 45.3064 36.6049 45.8178C36.6049 46.3292 36.1907 46.744 35.6787 46.744H33.3714C30.9357 46.744 28.9015 48.4978 28.4656 50.8093H48.4518C48.0158 48.4978 45.9817 46.744 43.5459 46.744H41.2404C40.7285 46.744 40.3142 46.3292 40.3142 45.8178C40.3142 45.3064 40.7284 44.8916 41.2404 44.8916H43.546C47.3194 44.8916 50.3901 47.9618 50.3901 51.7354C50.3901 52.2468 49.9759 52.6616 49.464 52.6616Z" fill="#F3776D"/>
<path d="M38.4666 44.298C33.9641 44.298 30.3164 40.6461 30.3164 36.1571V34.9899C30.3164 33.915 30.5561 32.8816 31.0282 31.9197C31.2535 31.4621 31.8069 31.2712 32.2674 31.496C32.7269 31.7216 32.9159 32.2766 32.6907 32.7355C32.3443 33.4414 32.1687 34.2003 32.1687 34.9899V36.1571C32.1687 39.6245 34.9862 42.4455 38.4485 42.4455C41.9289 42.4455 44.7464 39.6245 44.7464 36.1571V34.9899C44.7464 34.3558 44.6333 33.739 44.409 33.1556C44.2255 32.6781 44.4643 32.1421 44.9418 31.959C45.4193 31.7758 45.9549 32.0136 46.1384 32.4917C46.4442 33.2877 46.5989 34.1279 46.5989 34.9899V36.1571C46.5989 40.6461 42.951 44.298 38.4666 44.298Z" fill="#F3776D"/>
<path d="M35.6754 52.6617H5.92622C5.41435 52.6617 5 52.2469 5 51.7355V35.1103C5 32.0002 7.52614 29.47 10.6312 29.47H17.2349C17.7468 29.47 18.1611 29.8848 18.1611 30.3962C18.1611 30.9076 17.7469 31.3224 17.2349 31.3224H10.6314C8.54742 31.3224 6.85244 33.0215 6.85244 35.1103V50.8093H35.6754C36.1873 50.8093 36.6017 51.2241 36.6017 51.7355C36.6016 52.2469 36.1874 52.6617 35.6754 52.6617Z" fill="#F3776D"/>
<path d="M38.4825 48.5365C37.2624 48.5369 36.0729 47.8156 34.9459 46.3928C34.8167 46.2295 34.7461 46.027 34.7461 45.818V42.8178C34.7461 42.3475 35.0989 41.9522 35.5656 41.8979C36.0414 41.8432 36.4666 42.1484 36.5742 42.6057C36.5905 42.6754 36.6003 42.7541 36.6003 42.8255V45.4878C37.1105 46.0807 37.7988 46.684 38.4834 46.684H38.4943C39.0551 46.6786 39.6647 46.2793 40.3096 45.4965V42.8183C40.3096 42.3069 40.7238 41.8921 41.2358 41.8921C41.7477 41.8921 42.162 42.3069 42.162 42.8183V45.8181C42.162 46.0207 42.096 46.2175 41.973 46.3784C40.894 47.7985 39.7299 48.5247 38.5125 48.5365C38.5024 48.5365 38.4926 48.5365 38.4825 48.5365Z" fill="#F3776D"/>
<path d="M46.0625 34.4097C45.8192 34.4097 45.585 34.3139 45.4104 34.1411C44.5412 33.2791 42.8317 32.3629 41.3764 32.3629L31.1558 33.3235C30.7044 33.3686 30.2703 33.0612 30.1672 32.6079C29.8957 31.4241 30.4313 29.8628 31.5645 28.5338C33.2106 26.6023 35.6329 25.5937 38.2097 25.7603C40.3271 25.9045 40.9223 25.5106 41.0823 25.337C41.2704 25.1321 41.2307 24.755 41.1546 24.2443C41.1184 24.0047 41.0841 23.7785 41.0922 23.552C41.1022 23.2191 41.2912 22.9174 41.5861 22.7624C41.881 22.6074 42.2355 22.6214 42.5168 22.8018C43.4312 23.3869 46.9867 26.2831 47.6867 29.7654C47.9961 31.3062 47.7057 32.7344 46.8239 34.0101C46.6684 34.2358 46.4205 34.3805 46.1473 34.4058C46.1196 34.4083 46.0906 34.4097 46.0625 34.4097ZM41.3014 30.5145C42.9439 30.5145 44.5855 31.2164 45.7695 32.0449C45.9758 31.4479 46.0083 30.8148 45.8709 30.13C45.5126 28.3499 44.1198 26.678 42.9864 25.5873C42.9005 25.93 42.7359 26.2752 42.4456 26.5908C41.6731 27.4302 40.2839 27.754 38.0887 27.6087C35.2703 27.4201 33.5725 29.0337 32.9738 29.7351C32.4744 30.3212 32.1768 30.9023 32.0394 31.3799L41.2904 30.5143C41.2933 30.5145 41.2978 30.5145 41.3014 30.5145Z" fill="#F3776D"/>
<path d="M35.5395 37.518C35.0276 37.518 34.6133 37.1032 34.6133 36.5918V35.373C34.6133 34.8616 35.0275 34.4468 35.5395 34.4468C36.0514 34.4468 36.4657 34.8616 36.4657 35.373V36.5918C36.4657 37.1033 36.0515 37.518 35.5395 37.518Z" fill="#F3776D"/>
<path d="M41.3754 37.518C40.8636 37.518 40.4492 37.1032 40.4492 36.5918V35.373C40.4492 34.8616 40.8635 34.4468 41.3754 34.4468C41.8873 34.4468 42.3017 34.8616 42.3017 35.373V36.5918C42.3017 37.1033 41.8874 37.518 41.3754 37.518Z" fill="#F3776D"/>
</svg>
