<svg width="56" height="57" viewBox="0 0 56 57" fill="none" xmlns="http://www.w3.org/2000/svg">
<path d="M0.244704 27.4209C0.101837 27.6985 0.0215256 28.004 0.00941982 28.316C-0.00268599 28.6279 0.053708 28.9387 0.174634 29.2265C0.301255 29.4773 0.477276 29.6998 0.692114 29.8808C0.906952 30.0618 1.15617 30.1974 1.42478 30.2796L1.08897 31.2891C1.07086 31.3435 1.05813 31.3995 1.05094 31.4564C1.03906 31.6323 1.06786 31.8087 1.13509 31.9717C1.20233 32.1347 1.30621 32.2801 1.43867 32.3965C1.50243 32.4618 1.57593 32.5168 1.65654 32.5595C1.62857 32.5895 1.60286 32.6216 1.57964 32.6554C1.48214 32.7969 1.41966 32.9595 1.39734 33.1299C1.37502 33.3002 1.39349 33.4735 1.45125 33.6353L1.67897 34.2718C1.77442 34.6516 1.78652 35.0475 1.71443 35.4323L1.59822 36.0021C1.5073 36.4611 1.55726 36.9368 1.74156 37.3669C1.92585 37.797 2.23587 38.1613 2.63093 38.412C3.41559 38.9146 4.56339 39.1572 6.03164 39.1208C7.62637 39.0934 9.58492 39.6641 10.3574 41.3913C10.7821 42.3414 10.881 43.7769 10.6357 45.4332C10.6173 45.5576 10.6258 45.6846 10.6608 45.8054C10.6958 45.9263 10.7565 46.0382 10.8386 46.1335C10.9208 46.2288 11.0225 46.3053 11.1368 46.3578C11.2512 46.4102 11.3755 46.4374 11.5014 46.4375H25.0162C25.1573 46.4374 25.2962 46.4032 25.4212 46.3378C25.5462 46.2725 25.6536 46.1779 25.7342 46.0622C25.8148 45.9464 25.8662 45.8129 25.8842 45.673C25.9021 45.5331 25.886 45.391 25.8372 45.2586C25.222 43.6334 24.8875 41.9155 24.8479 40.1782C24.8452 39.9822 24.8467 39.7867 24.8524 39.5917C24.3775 40.0374 23.7541 40.2909 23.103 40.3031C23.1393 41.7886 23.3749 43.2626 23.8035 44.6854H12.4806C12.6313 43.3259 12.4508 41.95 11.9547 40.6752C11.0156 38.5754 8.71929 37.311 5.99341 37.3692C4.59906 37.4012 3.90885 37.1506 3.57346 36.9359C3.47608 36.8746 3.39933 36.7855 3.35317 36.6801C3.307 36.5747 3.29354 36.4578 3.31452 36.3447L3.43076 35.7749C3.56569 35.0787 3.52991 34.3601 3.32648 33.6807L3.24936 33.4651L3.67492 33.0677C3.72062 33.0252 3.76159 32.9779 3.79712 32.9265C3.9402 32.7193 4.00677 32.4688 3.98541 32.2179C3.96405 31.967 3.8561 31.7314 3.68005 31.5513C3.59193 31.4614 3.48547 31.3915 3.36792 31.3464L2.96567 31.192L3.26218 30.3005C3.27877 30.2487 3.29113 30.1957 3.29913 30.1418C3.33165 29.9797 3.33066 29.8126 3.29622 29.6509C3.26179 29.4891 3.19463 29.3362 3.0989 29.2013C3.00316 29.0665 2.88085 28.9527 2.7395 28.8668C2.59815 28.781 2.44074 28.725 2.27694 28.7023C1.90607 28.6263 1.77448 28.513 1.7576 28.4792C1.74528 28.4078 1.75312 28.3344 1.78025 28.2672L4.34527 24.5312C4.47145 24.3393 4.55163 24.1207 4.57956 23.8927C4.6075 23.6647 4.58244 23.4333 4.50634 23.2165C3.366 20.002 6.55483 15.5307 9.16448 13.9839C12.6117 11.9411 17.916 11.6798 22.1657 13.4512L22.7472 11.8397C17.9773 9.90716 12.1019 10.2069 8.27282 12.4761C5.05218 14.3852 1.45939 19.5377 2.81229 23.6713L0.296614 27.3354C0.277645 27.3629 0.260312 27.3914 0.244704 27.4209Z" fill="#F3776D"/>
<path d="M33.4537 13.6159C37.7632 11.6642 43.2859 11.8792 46.8369 13.9839C49.4465 15.5307 52.6354 20.002 51.495 23.2168C51.4186 23.4362 51.3942 23.6703 51.4237 23.9008C51.4533 24.1312 51.536 24.3517 51.6653 24.5447L54.2179 28.2625C54.2471 28.3308 54.2561 28.406 54.2437 28.4792C54.2269 28.513 54.0953 28.6263 53.7244 28.7023C53.5601 28.7254 53.4022 28.782 53.2606 28.8684C53.1189 28.9549 52.9965 29.0695 52.9008 29.2051C52.8051 29.3407 52.7382 29.4944 52.7043 29.6569C52.6703 29.8193 52.67 29.987 52.7033 30.1496C52.7107 30.2009 52.7227 30.2514 52.7392 30.3006L53.0357 31.192L52.6334 31.3464C52.5159 31.3915 52.4094 31.4614 52.3213 31.5513C52.1452 31.7314 52.0373 31.967 52.0159 32.2179C51.9946 32.4688 52.0611 32.7194 52.2042 32.9266C52.2397 32.9779 52.2807 33.0252 52.3264 33.0677L52.752 33.4651L52.6749 33.6807C52.4709 34.3628 52.4357 35.0843 52.5723 35.7831L52.6851 36.3366C52.7076 36.4509 52.6951 36.5693 52.6491 36.6763C52.6031 36.7834 52.5259 36.874 52.4274 36.9363C52.0927 37.1506 51.4055 37.4013 50.0081 37.3692C47.2754 37.3102 44.9855 38.5755 44.0469 40.6753C43.5506 41.95 43.37 43.3259 43.5207 44.6855H32.1979C32.6375 43.2305 32.8749 41.7219 32.9035 40.2022C32.9227 37.2189 32.1151 34.2887 30.5704 31.7364L29.4375 33.3107C30.5808 35.418 31.1712 37.7808 31.1534 40.1782C31.1139 41.9155 30.7794 43.6334 30.1641 45.2586C30.1153 45.391 30.0992 45.5331 30.1172 45.673C30.1351 45.8129 30.1866 45.9464 30.2672 46.0622C30.3478 46.1779 30.4552 46.2725 30.5801 46.3378C30.7051 46.4032 30.8441 46.4374 30.9851 46.4375H44.5C44.6258 46.4374 44.7501 46.4102 44.8645 46.3578C44.9789 46.3053 45.0806 46.2288 45.1627 46.1335C45.2449 46.0382 45.3055 45.9263 45.3405 45.8055C45.3755 45.6846 45.3841 45.5576 45.3656 45.4332C45.1204 43.7769 45.2193 42.3413 45.644 41.3913C46.4164 39.6645 48.3782 39.0806 49.9699 39.1212C51.4403 39.1512 52.5858 38.9146 53.37 38.4125C53.7661 38.1607 54.0766 37.7948 54.2607 37.3631C54.4448 36.9314 54.4939 36.4541 54.4014 35.994L54.2886 35.4404C54.215 35.0531 54.2265 34.6543 54.3224 34.2718L54.5497 33.6362C54.6076 33.4743 54.6262 33.3009 54.604 33.1303C54.5817 32.9598 54.5193 32.797 54.4217 32.6554C54.3983 32.6215 54.3726 32.5894 54.3448 32.5591C54.4263 32.5157 54.5006 32.46 54.5652 32.394C54.697 32.2777 54.8003 32.1326 54.8671 31.9701C54.9339 31.8075 54.9624 31.6317 54.9504 31.4564C54.9432 31.3995 54.9305 31.3435 54.9124 31.2891L54.5766 30.2796C54.8452 30.1975 55.0945 30.0618 55.3093 29.8809C55.5242 29.6999 55.7002 29.4773 55.8267 29.2265C55.9476 28.9387 56.004 28.6279 55.9919 28.3159C55.9798 28.004 55.8995 27.6985 55.7567 27.4209C55.741 27.3914 55.7237 27.3628 55.7047 27.3354L53.1891 23.6715C54.542 19.5376 50.9492 14.3852 47.7285 12.4761C44.0221 10.2792 38.3963 9.92792 33.713 11.6613C33.8376 12.183 33.7998 12.7304 33.6046 13.23L33.4537 13.6159ZM54.0734 30.4191L53.9784 29.9502L54.0743 30.4191H54.0734Z" fill="#F3776D"/>
<path d="M31.8829 11.7787C31.8026 11.6609 31.6949 11.5646 31.5689 11.498C31.4429 11.4313 31.3026 11.3965 31.1601 11.3965H25.3818C25.2018 11.3965 25.0261 11.4521 24.8789 11.5556C24.7316 11.6591 24.6199 11.8055 24.5589 11.9748L20.2404 23.9414C20.1349 24.2332 20.1011 24.5461 20.1417 24.8537C20.1823 25.1613 20.2961 25.4547 20.4737 25.7091C20.6409 25.9497 20.8635 26.1466 21.1229 26.283C21.3822 26.4194 21.6705 26.4914 21.9635 26.493H26.2888L22.2402 37.3718C22.1658 37.5703 22.1661 37.7891 22.2409 37.9875C22.3158 38.1859 22.4601 38.3503 22.6471 38.4503C22.834 38.5502 23.051 38.5789 23.2575 38.531C23.464 38.483 23.6461 38.3617 23.7699 38.1896L35.5119 21.8726C35.72 21.5841 35.844 21.2437 35.8703 20.889C35.8967 20.5343 35.8242 20.1792 35.6611 19.8632C35.51 19.561 35.278 19.3066 34.9909 19.1284C34.7039 18.9502 34.373 18.8551 34.0351 18.8537H29.5272L31.9749 12.5918C32.0269 12.459 32.0456 12.3156 32.0296 12.1739C32.0136 12.0322 31.9632 11.8965 31.8829 11.7787ZM27.4302 19.4104C27.3782 19.5432 27.3594 19.6866 27.3754 19.8282C27.3914 19.9698 27.4418 20.1054 27.522 20.2232C27.6023 20.341 27.7101 20.4374 27.8361 20.5041C27.9621 20.5707 28.1024 20.6057 28.245 20.6058H34.0351C34.046 20.6058 34.0747 20.6058 34.1033 20.6618C34.1191 20.6908 34.1265 20.7237 34.1245 20.7568C34.1225 20.7898 34.1113 20.8216 34.0922 20.8485L26.1491 31.8863L28.3685 25.9227C28.4178 25.7903 28.4345 25.6479 28.4169 25.5077C28.3993 25.3675 28.348 25.2336 28.2675 25.1175C28.1869 25.0014 28.0795 24.9065 27.9543 24.8409C27.8291 24.7753 27.6899 24.741 27.5486 24.7409H21.9635C21.956 24.7409 21.933 24.7409 21.9058 24.7022C21.8894 24.6782 21.8791 24.6506 21.8757 24.6218C21.8723 24.5929 21.876 24.5637 21.8864 24.5366L25.9959 13.1486H29.8779L27.4302 19.4104Z" fill="#F3776D"/>
<path d="M41.0475 24.0107C41.195 24.0826 41.3598 24.1115 41.523 24.0941C41.6862 24.0768 41.8412 24.0138 41.9703 23.9125L46.916 20.0311C47.0264 19.9445 47.1144 19.8326 47.1725 19.7049C47.2306 19.5771 47.2573 19.4373 47.2502 19.2972C47.243 19.1571 47.2024 19.0207 47.1316 18.8995C47.0608 18.7783 46.962 18.6759 46.8434 18.6009L41.8977 15.474C41.7653 15.3904 41.6129 15.3439 41.4563 15.3392C41.2998 15.3346 41.1449 15.3721 41.0077 15.4478C40.8706 15.5234 40.7563 15.6345 40.6768 15.7694C40.5972 15.9043 40.5553 16.0581 40.5555 16.2147V17.3333H37.626C37.3937 17.3333 37.1709 17.4256 37.0066 17.5899C36.8423 17.7542 36.75 17.977 36.75 18.2093C36.75 18.4417 36.8423 18.6645 37.0066 18.8288C37.1709 18.9931 37.3937 19.0854 37.626 19.0854H41.4305C41.6627 19.0852 41.8854 18.9928 42.0495 18.8286C42.2136 18.6643 42.3057 18.4415 42.3056 18.2093V17.804L44.8594 19.4188L42.3056 21.4233V21.2284C42.3057 20.9962 42.2136 20.7734 42.0495 20.6091C41.8854 20.4449 41.6627 20.3525 41.4305 20.3523H38.9304C38.6981 20.3523 38.4753 20.4446 38.311 20.6089C38.1467 20.7732 38.0544 20.996 38.0544 21.2284C38.0544 21.4607 38.1467 21.6835 38.311 21.8478C38.4753 22.0121 38.6981 22.1044 38.9304 22.1044H40.5555V23.223C40.5555 23.3872 40.6016 23.5481 40.6885 23.6874C40.7755 23.8267 40.8999 23.9387 41.0475 24.0107Z" fill="#F3776D"/>
<path d="M14.5708 19.0853H18.3753C18.6076 19.0853 18.8304 18.993 18.9947 18.8288C19.159 18.6645 19.2513 18.4417 19.2513 18.2093C19.2513 17.977 19.159 17.7542 18.9947 17.5899C18.8304 17.4256 18.6076 17.3333 18.3753 17.3333H15.4458V16.2147C15.4459 16.0581 15.4041 15.9043 15.3245 15.7694C15.245 15.6345 15.1307 15.5234 14.9935 15.4478C14.8564 15.3721 14.7015 15.3346 14.545 15.3392C14.3884 15.3439 14.236 15.3904 14.1036 15.474L9.15787 18.6009C9.03929 18.676 8.94046 18.7784 8.86968 18.8995C8.7989 19.0207 8.75824 19.1571 8.75113 19.2972C8.74401 19.4374 8.77064 19.5772 8.82879 19.7049C8.88693 19.8326 8.97488 19.9445 9.08525 20.0311L14.0309 23.9125C14.1601 24.0138 14.3152 24.0768 14.4785 24.0941C14.6417 24.1114 14.8066 24.0825 14.9541 24.0106C15.1017 23.9386 15.2261 23.8266 15.313 23.6874C15.4 23.5481 15.446 23.3872 15.4458 23.223V22.1044H17.0709C17.3032 22.1044 17.526 22.0121 17.6903 21.8478C17.8546 21.6836 17.9469 21.4607 17.9469 21.2284C17.9469 20.996 17.8546 20.7732 17.6903 20.6089C17.526 20.4446 17.3032 20.3523 17.0709 20.3523H14.5708C14.3386 20.3525 14.1159 20.4449 13.9518 20.6092C13.7877 20.7734 13.6956 20.9962 13.6957 21.2284V21.4232L11.1418 19.4188L13.6957 17.804V18.2093C13.6956 18.4415 13.7877 18.6642 13.9518 18.8285C14.1159 18.9928 14.3386 19.0852 14.5708 19.0853Z" fill="#F3776D"/>
</svg>
