<svg width="44" height="44" viewBox="0 0 44 44" fill="none" xmlns="http://www.w3.org/2000/svg">
<path d="M41.7494 37.2344H2.74616C2.64765 37.2345 2.5501 37.2151 2.45909 37.1774C2.36807 37.1397 2.28538 37.0845 2.21572 37.0148C2.14607 36.9452 2.09082 36.8625 2.05313 36.7715C2.01545 36.6804 1.99607 36.5829 1.99609 36.4844V31.2339C1.99607 31.1354 2.01545 31.0379 2.05314 30.9469C2.09082 30.8559 2.14607 30.7732 2.21572 30.7035C2.28538 30.6339 2.36808 30.5786 2.45909 30.5409C2.5501 30.5032 2.64765 30.4839 2.74616 30.4839H41.7494C41.8479 30.4839 41.9454 30.5032 42.0365 30.5409C42.1275 30.5786 42.2102 30.6339 42.2798 30.7035C42.3495 30.7732 42.4047 30.8559 42.4424 30.9469C42.4801 31.0379 42.4995 31.1354 42.4995 31.2339V36.4844C42.4995 36.5829 42.4801 36.6804 42.4424 36.7715C42.4047 36.8625 42.3495 36.9452 42.2798 37.0148C42.2102 37.0845 42.1275 37.1397 42.0365 37.1774C41.9454 37.2151 41.8479 37.2345 41.7494 37.2344ZM3.49622 35.7343H40.9993V31.984H3.49622V35.7343Z" fill="#F3776D"/>
<path d="M41.7494 31.9838H2.74615C2.59445 31.9839 2.44631 31.9379 2.32128 31.8519C2.19626 31.766 2.10024 31.6442 2.04588 31.5026C1.99153 31.3609 1.98141 31.2061 2.01685 31.0586C2.05229 30.9111 2.13163 30.7778 2.2444 30.6764L9.74502 23.9258C9.88278 23.8019 10.0615 23.7333 10.2468 23.7332H34.2488C34.4341 23.7333 34.6128 23.8019 34.7506 23.9258L42.2512 30.6764C42.364 30.7778 42.4433 30.9111 42.4787 31.0586C42.5142 31.2062 42.5041 31.3609 42.4497 31.5026C42.3953 31.6442 42.2993 31.766 42.1743 31.852C42.0492 31.9379 41.9011 31.9839 41.7494 31.9838ZM4.70082 30.4837H39.7947L33.9609 25.2333H10.5346L4.70082 30.4837Z" fill="#F3776D"/>
<path d="M34.2481 25.2333H10.2462C10.1476 25.2333 10.0501 25.2139 9.95909 25.1763C9.86807 25.1386 9.78538 25.0833 9.71572 25.0137C9.64607 24.944 9.59082 24.8613 9.55313 24.7703C9.51545 24.6793 9.49607 24.5817 9.49609 24.4832V15.4825C9.49607 15.384 9.51545 15.2864 9.55314 15.1954C9.59082 15.1044 9.64607 15.0217 9.71572 14.9521C9.78538 14.8824 9.86808 14.8271 9.95909 14.7895C10.0501 14.7518 10.1476 14.7324 10.2462 14.7324H34.2481C34.3467 14.7324 34.4442 14.7518 34.5352 14.7895C34.6262 14.8271 34.7089 14.8824 34.7786 14.9521C34.8482 15.0217 34.9035 15.1044 34.9412 15.1954C34.9789 15.2864 34.9982 15.384 34.9982 15.4825V24.4832C34.9982 24.5817 34.9789 24.6793 34.9412 24.7703C34.9035 24.8613 34.8482 24.944 34.7786 25.0137C34.7089 25.0833 34.6262 25.1386 34.5352 25.1763C34.4442 25.2139 34.3467 25.2333 34.2481 25.2333ZM10.9962 23.7332H33.4981V16.2325H10.9962V23.7332Z" fill="#F3776D"/>
<path d="M17.7466 25.2334H14.7463C13.9506 25.2334 13.1875 24.9173 12.6248 24.3547C12.0622 23.792 11.7461 23.0289 11.7461 22.2332C11.7461 21.4374 12.0622 20.6743 12.6248 20.1117C13.1875 19.549 13.9506 19.2329 14.7463 19.2329H17.7466C18.5423 19.2329 19.3054 19.549 19.8681 20.1117C20.4307 20.6743 20.7468 21.4374 20.7468 22.2332C20.7468 23.0289 20.4307 23.792 19.8681 24.3547C19.3054 24.9173 18.5423 25.2334 17.7466 25.2334ZM14.7463 20.733C14.3485 20.733 13.9669 20.8911 13.6856 21.1724C13.4043 21.4537 13.2462 21.8353 13.2462 22.2332C13.2462 22.631 13.4043 23.0126 13.6856 23.2939C13.9669 23.5752 14.3485 23.7333 14.7463 23.7333H17.7466C18.1444 23.7333 18.526 23.5752 18.8073 23.2939C19.0887 23.0126 19.2467 22.631 19.2467 22.2332C19.2467 21.8353 19.0887 21.4537 18.8073 21.1724C18.526 20.8911 18.1444 20.733 17.7466 20.733H14.7463Z" fill="#F3776D"/>
<path d="M29.7505 25.2334H26.7502C25.9545 25.2334 25.1914 24.9173 24.6288 24.3547C24.0661 23.792 23.75 23.0289 23.75 22.2332C23.75 21.4374 24.0661 20.6743 24.6288 20.1117C25.1914 19.549 25.9545 19.2329 26.7502 19.2329H29.7505C30.5462 19.2329 31.3093 19.549 31.872 20.1117C32.4347 20.6743 32.7507 21.4374 32.7507 22.2332C32.7507 23.0289 32.4347 23.792 31.872 24.3547C31.3093 24.9173 30.5462 25.2334 29.7505 25.2334ZM26.7502 20.733C26.3524 20.733 25.9708 20.8911 25.6895 21.1724C25.4082 21.4537 25.2501 21.8353 25.2501 22.2332C25.2501 22.631 25.4082 23.0126 25.6895 23.2939C25.9708 23.5752 26.3524 23.7333 26.7502 23.7333H29.7505C30.1484 23.7333 30.5299 23.5752 30.8112 23.2939C31.0926 23.0126 31.2506 22.631 31.2506 22.2332C31.2506 21.8353 31.0926 21.4537 30.8112 21.1724C30.5299 20.8911 30.1484 20.733 29.7505 20.733H26.7502Z" fill="#F3776D"/>
<path d="M22.0692 13.6609L17.1316 7.15275C16.4995 6.50072 16.1492 5.62629 16.1564 4.71823C16.1635 3.81017 16.5274 2.94134 17.1696 2.29932L17.456 2.01291C18.0591 1.41021 18.8634 1.05133 19.7147 1.00509C20.566 0.958863 21.4045 1.22853 22.0692 1.76239C22.734 1.22856 23.5725 0.958908 24.4239 1.00514C25.2753 1.05137 26.0796 1.41023 26.6828 2.01291L26.9692 2.29932C27.6112 2.94145 27.975 3.81028 27.9821 4.71831C27.9891 5.62633 27.6389 6.50071 27.0069 7.15275L22.0692 13.6609ZM19.9014 2.50002C19.3821 2.50011 18.884 2.7064 18.5167 3.07355L18.2303 3.35995C18.0483 3.54189 17.904 3.75789 17.8055 3.99562C17.7071 4.23334 17.6564 4.48813 17.6564 4.74544C17.6564 5.00275 17.7071 5.25755 17.8055 5.49527C17.904 5.73299 18.0483 5.94899 18.2303 6.13094L18.2977 6.20785L22.0692 11.1792L25.9081 6.13094C26.0901 5.94899 26.2344 5.73299 26.3329 5.49527C26.4314 5.25755 26.4821 5.00275 26.4821 4.74544C26.4821 4.48813 26.4314 4.23334 26.3329 3.99562C26.2344 3.75789 26.0901 3.54189 25.9081 3.35995L25.6218 3.07355C25.4232 2.8752 25.1844 2.7218 24.9214 2.62375C24.6584 2.52569 24.3774 2.48526 24.0975 2.50519C23.8175 2.52512 23.5451 2.60495 23.2987 2.73928C23.0523 2.8736 22.8376 3.05929 22.6691 3.28377L22.0692 4.08291L21.4693 3.28377C21.301 3.05917 21.0863 2.8734 20.8399 2.73905C20.5934 2.60471 20.321 2.52493 20.041 2.50514C19.9945 2.50148 19.9479 2.50002 19.9014 2.50002Z" fill="#F3776D"/>
<path d="M7.99647 42.4847H4.24616C4.14765 42.4847 4.0501 42.4653 3.95909 42.4277C3.86807 42.39 3.78538 42.3347 3.71572 42.2651C3.64607 42.1954 3.59082 42.1127 3.55313 42.0217C3.51545 41.9307 3.49607 41.8331 3.49609 41.7346V36.4842C3.49607 36.3857 3.51545 36.2881 3.55314 36.1971C3.59082 36.1061 3.64607 36.0234 3.71572 35.9538C3.78538 35.8841 3.86808 35.8289 3.95909 35.7912C4.0501 35.7535 4.14765 35.7341 4.24616 35.7341H7.99647C8.09497 35.7341 8.19252 35.7535 8.28353 35.7912C8.37455 35.8289 8.45724 35.8841 8.5269 35.9538C8.59655 36.0234 8.6518 36.1061 8.68949 36.1971C8.72717 36.2881 8.74656 36.3857 8.74653 36.4842V41.7346C8.74656 41.8331 8.72717 41.9307 8.68949 42.0217C8.6518 42.1127 8.59656 42.1954 8.5269 42.2651C8.45725 42.3347 8.37455 42.39 8.28354 42.4277C8.19252 42.4653 8.09497 42.4847 7.99647 42.4847ZM4.99622 40.9846H7.24641V37.2343H4.99622V40.9846Z" fill="#F3776D"/>
<path d="M40.2504 42.4847H36.5001C36.4016 42.4847 36.304 42.4653 36.213 42.4277C36.122 42.39 36.0393 42.3347 35.9696 42.2651C35.9 42.1954 35.8447 42.1127 35.807 42.0217C35.7694 41.9307 35.75 41.8331 35.75 41.7346V36.4842C35.75 36.3857 35.7694 36.2881 35.807 36.1971C35.8447 36.1061 35.9 36.0234 35.9696 35.9538C36.0393 35.8841 36.122 35.8289 36.213 35.7912C36.304 35.7535 36.4016 35.7341 36.5001 35.7341H40.2504C40.3489 35.7341 40.4464 35.7535 40.5374 35.7912C40.6285 35.8289 40.7112 35.8841 40.7808 35.9538C40.8505 36.0234 40.9057 36.1061 40.9434 36.1971C40.9811 36.2881 41.0005 36.3857 41.0004 36.4842V41.7346C41.0005 41.8331 40.9811 41.9307 40.9434 42.0217C40.9057 42.1127 40.8505 42.1954 40.7808 42.2651C40.7112 42.3347 40.6285 42.39 40.5374 42.4277C40.4464 42.4653 40.3489 42.4847 40.2504 42.4847ZM37.2501 40.9846H39.5003V37.2343H37.2501V40.9846Z" fill="#F3776D"/>
</svg>
