<svg width="56" height="57" viewBox="0 0 56 57" fill="none" xmlns="http://www.w3.org/2000/svg">
<path d="M27.9969 28.332C34.4929 28.332 39.1969 19.876 39.1969 14.22C39.1969 8.22805 34.1569 3.30005 27.9969 3.30005C21.8369 3.30005 16.7969 8.22805 16.7969 14.22C16.7969 19.932 21.5009 28.332 27.9969 28.332ZM27.9969 27.212C23.5169 27.212 19.4849 22.116 18.2529 17.076C19.5409 17.244 20.8289 17.3 22.1169 17.3H22.9009H23.0689C24.8049 17.244 26.4849 17.076 28.2209 16.796C31.6369 16.18 34.9409 15.06 38.0209 13.492C38.0209 13.716 38.0769 13.996 38.0769 14.22C38.0769 19.988 33.3169 27.212 27.9969 27.212ZM17.9169 14.22C17.9169 13.604 17.9729 13.044 18.0849 12.484C18.9809 12.596 19.8769 12.708 20.8289 12.764C19.9329 13.548 18.9809 14.276 17.9729 14.948C17.9169 14.724 17.9169 14.444 17.9169 14.22ZM19.2049 9.51605C20.8849 9.51605 22.5089 9.34805 24.1889 9.06805C24.2449 9.06805 24.3009 9.06805 24.4129 9.01205C24.1329 9.34805 23.8529 9.68405 23.5729 10.02C23.0689 10.58 22.5649 11.14 22.0049 11.644C20.7729 11.644 19.5409 11.532 18.3089 11.364C18.5329 10.692 18.7569 10.076 19.0929 9.51605H19.2049ZM28.7249 4.47605C30.2369 4.53205 31.6369 4.98005 32.8689 5.65205C31.8609 7.44405 30.6849 9.12405 29.2849 10.692L29.2289 10.748C29.1729 10.804 29.1169 10.916 29.0049 10.972C27.1569 12.988 25.0289 14.724 22.7329 16.124C21.2769 16.124 19.8209 16.068 18.4209 15.9C19.8769 14.948 21.2209 13.884 22.4529 12.708L22.6209 12.54C23.2369 11.98 23.8529 11.364 24.4129 10.692C25.0289 9.96405 25.6449 9.23605 26.2049 8.45205C27.1569 7.27605 27.9969 5.87605 28.7249 4.47605ZM29.7329 11.868C32.1409 11.252 34.4929 10.356 36.6209 9.18005C37.1809 10.132 37.6289 11.196 37.8529 12.26C34.7729 13.884 31.4689 15.004 27.9969 15.62C26.9889 15.788 25.9809 15.9 24.9169 16.012C26.7089 14.836 28.2769 13.436 29.7329 11.868ZM36.0049 8.28405C34.4369 9.12405 32.7569 9.79605 31.0769 10.356C32.1409 9.06805 33.0369 7.66805 33.8769 6.26805C34.6609 6.82805 35.3889 7.50005 36.0049 8.28405ZM27.4369 4.42005C26.8209 5.54005 26.1489 6.66005 25.4209 7.66805C24.9729 7.78005 24.5249 7.83605 24.0209 7.94805C22.6769 8.17205 21.2769 8.34005 19.9329 8.34005C21.6689 6.10005 24.3569 4.58805 27.4369 4.42005Z" fill="#F3776D"/>
<path d="M46.4748 53.6999C47.7067 53.6999 48.7147 52.6919 48.7147 51.4599V49.2199V45.8599V45.2999V42.8359C48.7147 38.8039 46.8108 35.0519 43.5628 32.6439C43.5068 32.5319 43.3948 32.4759 43.2827 32.4199C41.2668 31.0199 38.9707 30.2359 36.5067 30.1799H36.4507H36.3947C36.2267 30.1799 36.0027 30.1799 35.8347 30.2919C33.7067 32.0839 31.0747 32.9799 27.9947 32.9799C24.9147 32.9799 22.2827 32.0839 20.2107 30.2919C20.0427 30.1799 19.7628 30.1799 19.5948 30.1799C19.5948 30.1799 19.5948 30.1799 19.5388 30.1799C12.6508 30.3479 7.21875 35.8919 7.21875 42.8359V49.6119C7.21875 50.6199 7.89075 51.5159 8.89875 51.7399C12.9307 52.6919 17.6907 53.3079 22.7307 53.5879L27.9947 53.6999H44.2347H46.4748ZM22.1147 45.6359L15.8427 32.0839C16.9627 31.6919 18.1387 31.4119 19.3707 31.3559L30.7947 44.1799L30.3468 45.2999H23.7948C23.1788 45.2999 22.6188 45.4119 22.1147 45.6359ZM31.2428 46.0839L36.7307 31.4119L42.6107 33.3719L45.8027 52.5799H44.2347H28.7787L31.2428 46.0839ZM47.5947 51.4599C47.5947 51.9079 47.3148 52.2999 46.9228 52.4679L45.9147 46.4199H47.5947V49.2199V51.4599ZM47.5947 42.8359V45.2999H45.7467L43.9548 34.3799C46.2507 36.5639 47.5947 39.6439 47.5947 42.8359ZM35.2747 32.0839L31.1868 43.0039L22.2828 32.9799C23.9627 33.7639 25.8667 34.0999 27.9947 34.0999C30.7947 34.0999 33.2027 33.4279 35.2747 32.0839ZM9.23475 50.6759C8.73075 50.5639 8.39475 50.1159 8.39475 49.6679V42.8359C8.39475 38.2999 10.9707 34.3799 14.7787 32.5319L21.1068 46.2519C20.9948 46.3639 20.8827 46.4199 20.7707 46.5319C19.9867 47.3159 19.5388 48.3799 19.5388 49.4999C19.5388 50.5639 19.9307 51.5719 20.6027 52.2999C16.5147 52.0199 12.5948 51.4599 9.23475 50.6759ZM20.7148 49.4999C20.7148 48.6599 21.0507 47.9319 21.6107 47.3159C22.1707 46.7559 22.9548 46.4199 23.7948 46.4199H29.8988L27.6028 52.5799L22.8988 52.4679C21.6108 52.0759 20.7148 50.8439 20.7148 49.4999Z" fill="#F3776D"/>
</svg>
