<svg width="56" height="56" viewBox="0 0 56 56" fill="none" xmlns="http://www.w3.org/2000/svg">
<path d="M8.70674 25.4206H9.11938L12.6756 28.9768C12.8223 29.1236 13.0191 29.202 13.2188 29.202C13.318 29.202 13.4179 29.1827 13.5131 29.1436C13.8005 29.0245 13.9873 28.744 13.9873 28.4335V25.4206H22.8608C24.8556 25.4206 26.4777 23.7985 26.4777 21.8037V19.1565H41.3641V22.2071C41.3641 22.5176 41.5516 22.798 41.8382 22.9171C41.9335 22.9563 42.0334 22.9755 42.1325 22.9755C42.3323 22.9755 42.529 22.8972 42.6758 22.7504L46.2697 19.1565H46.8721C49.2557 19.1565 51.1944 17.2179 51.1944 14.8342V9.41312C51.1944 7.02952 49.2557 5.09082 46.8721 5.09082H22.9999C20.6163 5.09082 18.6776 7.02952 18.6776 9.41312V11.3549H8.70674C6.71196 11.3549 5.08984 12.977 5.08984 14.9718V21.8029C5.08984 23.7977 6.71196 25.4198 8.70674 25.4198V25.4206ZM20.2144 9.41312C20.2144 7.87707 21.4639 6.62764 22.9999 6.62764H46.8721C48.4081 6.62764 49.6576 7.87707 49.6576 9.41312V14.8327C49.6576 16.3688 48.4081 17.6182 46.8721 17.6182H45.9515C45.7471 17.6182 45.552 17.6989 45.4083 17.8433L42.9009 20.3507V18.3866C42.9009 17.9624 42.5575 17.6182 42.1325 17.6182H26.4777V14.971C26.4777 12.9762 24.8556 11.3541 22.8608 11.3541H20.2144V9.41312ZM6.62666 14.9718C6.62666 13.8246 7.56028 12.8917 8.70674 12.8917H22.8608C24.0073 12.8917 24.9409 13.8246 24.9409 14.9718V21.8029C24.9409 22.9502 24.0073 23.883 22.8608 23.883H13.2188C12.7939 23.883 12.4504 24.2273 12.4504 24.6514V26.5778L9.98077 24.1082C9.83631 23.9637 9.6419 23.883 9.4375 23.883H8.70674C7.56028 23.883 6.62666 22.9502 6.62666 21.8029V14.9718Z" fill="#F3776D"/>
<path d="M24.1151 32.4163C24.1151 29.6362 21.8537 27.3748 19.0728 27.3748C16.2919 27.3748 14.0312 29.6362 14.0312 32.4163C14.0312 35.1964 16.2927 37.4578 19.0728 37.4578C21.8529 37.4578 24.1151 35.1964 24.1151 32.4163ZM15.5688 32.4163C15.5688 30.4837 17.141 28.9116 19.0736 28.9116C21.0061 28.9116 22.579 30.4837 22.579 32.4163C22.579 34.3488 21.0069 35.921 19.0736 35.921C17.1402 35.921 15.5688 34.3488 15.5688 32.4163Z" fill="#F3776D"/>
<path d="M10.8633 45.2924V50.4269C10.8633 50.8511 11.2068 51.1953 11.6317 51.1953H26.5119C26.9369 51.1953 27.2803 50.8511 27.2803 50.4269V45.2924C27.2803 41.4273 24.136 38.283 20.2709 38.283H17.8727C14.0076 38.283 10.8633 41.4273 10.8633 45.2924ZM17.8727 39.8198H20.2709C23.2885 39.8198 25.7435 42.2748 25.7435 45.2924V49.6585H12.4001V45.2924C12.4001 42.2748 14.8552 39.8198 17.8727 39.8198Z" fill="#F3776D"/>
<path d="M42.7369 32.4163C42.7369 29.6362 40.4755 27.3748 37.6946 27.3748C34.9138 27.3748 32.6523 29.6362 32.6523 32.4163C32.6523 35.1964 34.9138 37.4578 37.6946 37.4578C40.4755 37.4578 42.7369 35.1964 42.7369 32.4163ZM34.1899 32.4163C34.1899 30.4837 35.7621 28.9116 37.6954 28.9116C39.6287 28.9116 41.2009 30.4837 41.2009 32.4163C41.2009 34.3488 39.6287 35.921 37.6954 35.921C35.7621 35.921 34.1899 34.3488 34.1899 32.4163Z" fill="#F3776D"/>
<path d="M29.4844 45.2924V50.4269C29.4844 50.8511 29.8279 51.1953 30.2528 51.1953H45.133C45.558 51.1953 45.9014 50.8511 45.9014 50.4269V45.2924C45.9014 41.4273 42.7571 38.283 38.892 38.283H36.4938C32.6287 38.283 29.4844 41.4273 29.4844 45.2924ZM36.4938 39.8198H38.892C41.9096 39.8198 44.3646 42.2748 44.3646 45.2924V49.6585H31.0212V45.2924C31.0212 42.2748 33.4763 39.8198 36.4938 39.8198Z" fill="#F3776D"/>
<path d="M11.5457 18.9375C11.9706 18.9375 12.3141 18.5932 12.3141 18.169C12.3141 17.7449 11.9706 17.4006 11.5457 17.4006H11.538C11.1138 17.4006 10.7734 17.7449 10.7734 18.169C10.7734 18.5932 11.1215 18.9375 11.5457 18.9375Z" fill="#F3776D"/>
<path d="M15.7996 18.9375C16.2245 18.9375 16.568 18.5932 16.568 18.169C16.568 17.7449 16.2245 17.4006 15.7996 17.4006H15.7919C15.3677 17.4006 15.0273 17.7449 15.0273 18.169C15.0273 18.5932 15.3754 18.9375 15.7996 18.9375Z" fill="#F3776D"/>
<path d="M20.0535 18.9375C20.4784 18.9375 20.8219 18.5932 20.8219 18.169C20.8219 17.7449 20.4784 17.4006 20.0535 17.4006H20.0458C19.6217 17.4006 19.2812 17.7449 19.2812 18.169C19.2812 18.5932 19.6293 18.9375 20.0535 18.9375Z" fill="#F3776D"/>
</svg>
