<svg width="56" height="57" viewBox="0 0 56 57" fill="none" xmlns="http://www.w3.org/2000/svg">
<path d="M23.0563 45.7969L18.8955 44.2842L18.6994 43.0631C20.2576 42.081 21.3497 40.4251 21.5629 38.5068H22.2906C23.4296 38.5068 24.3561 37.5802 24.3561 36.4414V35.7529C24.3561 34.8554 23.7804 34.0901 22.9791 33.8059V32.0811C22.9791 27.9052 19.5818 24.5078 15.4059 24.5078C11.2299 24.5078 7.83261 27.9052 7.83261 32.0811V33.8059C7.03132 34.0901 6.45566 34.8554 6.45566 35.7529V36.4414C6.45566 37.5802 7.38217 38.5068 8.52109 38.5068H9.24877C9.46192 40.425 10.554 42.081 12.1123 43.0631L11.9161 44.2842L7.75532 45.7969C5.94665 46.4544 4 48.1861 4 50.4344V52.4998H26.8115V50.4344C26.8116 48.1862 24.865 46.4545 23.0563 45.7969ZM22.9791 35.753V36.4415C22.9791 36.8212 22.6702 37.13 22.2906 37.13H21.6021V35.0646H22.2906C22.6702 35.0646 22.9791 35.3734 22.9791 35.753ZM9.20957 37.13H8.52109C8.14151 37.13 7.83261 36.8212 7.83261 36.4415V35.753C7.83261 35.3734 8.14142 35.0646 8.52109 35.0646H9.20957V37.13ZM9.20957 33.6876V32.0812C9.20957 28.6645 11.9892 25.8849 15.4059 25.8849C18.8225 25.8849 21.6022 28.6645 21.6022 32.0812V33.6876H18.1597C17.0208 33.6876 16.0942 32.761 16.0942 31.6222H14.7173C14.7173 32.761 13.7908 33.6876 12.6519 33.6876H9.20957ZM10.5865 37.8185V35.0646H12.652C13.7767 35.0646 14.7773 34.5223 15.4059 33.6855C16.0344 34.5223 17.0349 35.0646 18.1598 35.0646H20.2252V37.8185C20.2252 40.4758 18.0633 42.6378 15.406 42.6378C12.7486 42.6378 10.5865 40.4758 10.5865 37.8185ZM17.5903 44.8404C17.5648 46.0236 16.5951 46.9785 15.4058 46.9785C14.2165 46.9785 13.2468 46.0236 13.2213 44.8405L13.4074 43.6822C14.0348 43.8966 14.7066 44.0148 15.4058 44.0148C16.1049 44.0148 16.7767 43.8966 17.4041 43.6822L17.5903 44.8404ZM25.4346 51.1229H5.37695V50.4344C5.37695 48.9193 6.81 47.6057 8.22578 47.091L11.9692 45.73C12.3817 47.2411 13.7657 48.3556 15.4059 48.3556C17.046 48.3556 18.43 47.2411 18.8426 45.73L22.5859 47.091C24.0016 47.6056 25.4348 48.9194 25.4348 50.4344L25.4346 51.1229Z" fill="#F3776D"/>
<path d="M48.1671 46.2231C49.9135 44.1559 49.4551 42.4415 49.0087 40.7781C48.7799 39.9259 48.5435 39.0447 48.5435 38.0209V33.4583C48.5435 28.5231 44.5285 24.5081 39.5934 24.5081C34.6583 24.5081 30.6433 28.5231 30.6433 33.4583V38.0209C30.6433 39.0447 30.4068 39.9259 30.178 40.7781C29.7316 42.4415 29.2732 44.1558 31.0196 46.223C29.5291 47.0584 28.1875 48.5681 28.1875 50.4345V52.5H45.4914V51.123H29.5645V50.4345C29.5645 48.9194 30.9976 47.6058 32.4133 47.0911L36.1566 45.7301C36.5691 47.2413 37.9531 48.3556 39.5933 48.3556C41.2334 48.3556 42.6174 47.2412 43.03 45.73L46.7734 47.0911C48.1891 47.6057 49.6222 48.9195 49.6221 50.4345V51.123H46.8684V52.5H50.9991V50.4345C50.9991 48.5682 49.6575 47.0585 48.1671 46.2231ZM39.5934 46.9787C38.4041 46.9787 37.4343 46.0239 37.4089 44.8406L37.595 43.6822C38.2225 43.8967 38.8942 44.0148 39.5935 44.0148C40.2927 44.0148 40.9644 43.8967 41.5919 43.6822L41.778 44.8399C41.7527 46.0234 40.7828 46.9787 39.5934 46.9787ZM39.5934 42.6379C36.936 42.6379 34.7741 40.4759 34.7741 37.8185V35.0646H36.8395C37.9642 35.0646 38.9647 34.5224 39.5934 33.6855C40.222 34.5224 41.2225 35.0646 42.3473 35.0646H44.4126V37.8185C44.4126 40.4759 42.2507 42.6379 39.5934 42.6379ZM46.8341 45.648L43.083 44.2842L42.8869 43.0632C44.6289 41.9653 45.7896 40.0254 45.7896 37.8184V33.6876H42.3473C41.2084 33.6876 40.2818 32.761 40.2818 31.6221H38.9049C38.9049 32.761 37.9783 33.6876 36.8395 33.6876H33.3972V37.8184C33.3972 40.0253 34.5578 41.9652 36.2998 43.0631L36.1036 44.2841L32.3527 45.6479C30.746 43.9791 31.0535 42.8284 31.5081 41.135C31.7482 40.2402 32.0204 39.226 32.0204 38.0208V33.4581C32.0204 29.2822 35.4177 25.8848 39.5935 25.8848C43.7694 25.8848 47.1667 29.2822 47.1667 33.4581V38.0208C47.1667 39.226 47.4389 40.2402 47.679 41.1349C48.1334 42.8285 48.4409 43.9792 46.8341 45.648Z" fill="#F3776D"/>
<path d="M19.4588 21.4676L26.7382 26.8348L28.5467 18.0879L24.1227 16.3169L27.1987 7.56969L26.7957 7.26667C24.2809 5.37537 22.0125 5.33893 20.5522 5.64131C18.5719 6.05155 16.8288 7.35378 15.77 9.21414L16.9667 9.89527C17.8298 8.3787 19.2386 7.31963 20.8316 6.98972C22.3891 6.66705 24.0151 7.04296 25.5605 8.07751L22.386 17.1049L26.9648 18.9379L25.825 24.4509L20.2758 20.3595C18.4072 18.9816 17.1431 17.387 16.5187 15.6198C15.9826 14.1027 15.9563 12.5297 16.4428 11.0706L15.1365 10.6352C14.5523 12.3876 14.5813 14.2699 15.2205 16.0786C15.9383 18.1101 17.3643 19.9233 19.4588 21.4676Z" fill="#F3776D"/>
<path d="M38.9651 8.77372C37.9563 7.24503 36.4735 6.16072 34.79 5.72056C32.942 5.23734 30.9951 5.55156 29.1611 6.62953L28.944 6.75713L25.8594 15.529L30.1283 17.238L28.1224 26.9399L35.5445 21.4675C40.9972 17.4473 41.1401 12.0692 38.9651 8.77372ZM30.1987 23.6983L31.7101 16.3879L27.5961 14.741L30.0739 7.69474C31.5202 6.90492 33.0257 6.68259 34.4417 7.05281C35.7961 7.40677 36.9945 8.28738 37.816 9.53224C38.8009 11.0247 39.135 12.8435 38.7566 14.6536C38.3145 16.7688 36.9212 18.7418 34.7273 20.3593L30.1987 23.6983Z" fill="#F3776D"/>
<path d="M32.4102 8.46191H33.7871V9.83896H32.4102V8.46191Z" fill="#F3776D"/>
<path d="M35.1641 9.83911H36.541V11.2161H35.1641V9.83911Z" fill="#F3776D"/>
</svg>
