<svg width="56" height="56" viewBox="0 0 56 56" fill="none" xmlns="http://www.w3.org/2000/svg">
<path d="M16.4001 28.4636C16.7987 29.3887 17.6675 30.0598 18.7209 30.28C19.1864 32.2422 20.1076 35.1514 21.8527 36.1588C21.8694 36.1693 23.5604 37.2013 24.6414 38.1649C25.7022 39.1026 26.9489 39.6667 28.3652 39.6667C30.7563 39.6667 31.9126 38.1787 33.1789 37.299C34.0354 36.6722 34.8558 36.1679 34.8551 36.1679C36.5186 35.2271 37.4775 32.5241 38.0036 30.28C40.2369 29.814 41.2673 27.5264 40.0475 25.532C40.033 25.5082 40.0104 25.494 39.993 25.4733C40.3387 25.0402 40.545 24.6219 40.545 24.0415C40.545 22.7039 40.7671 18.1735 41.1997 16.0875C41.7299 13.5337 41.6284 11.471 39.1511 10.3701C39.4836 9.29818 39.9977 6.96359 38.6544 5.74852C38.4992 5.6079 38.278 5.56539 38.0832 5.64024L36.4103 6.27067C33.0289 2.4434 28.444 3.59416 26.596 4.28418C25.4274 4.72457 24.3627 4.93714 23.2883 4.91861H23.2807C22.974 4.91861 22.7473 5.16642 22.7454 5.47309C22.7436 5.78013 23.0125 6.03085 23.3192 6.03485C24.4852 6.04211 25.6876 5.81865 26.9877 5.3292C29.0617 4.55561 32.9656 3.78057 35.8053 7.28299C35.9568 7.47048 36.2104 7.53952 36.4357 7.45377L38.113 6.82188C38.7474 7.80186 38.2151 9.75892 37.9284 10.4907C37.8125 10.7869 37.9675 11.1211 38.2689 11.2236C40.5373 11.9913 40.593 13.516 40.1067 15.8605C39.6513 18.0479 39.4287 22.8084 39.4287 24.0415C39.4287 24.4705 39.1709 24.6997 39.1093 24.7871C38.7707 25.1152 38.1035 25.096 37.7972 24.7664C37.3205 24.2338 37.593 24.077 37.2914 18.7008C37.2442 17.5886 36.5566 16.641 35.5941 16.2114C36.5295 15.1637 36.8753 14.2678 36.9484 14.0466C37.0632 13.7777 36.9466 13.4685 36.681 13.3355C36.3739 13.1813 35.9895 13.3482 35.8914 13.6879C35.5727 14.821 34.0704 16.1861 34.1257 16.1105C31.8762 18.1042 29.1891 18.7298 26.2638 19.1136C23.2729 19.2475 21.5017 18.2666 21.4268 18.2532C21.3937 18.2332 21.3585 18.2168 21.3218 18.2041C21.3229 18.2041 21.3189 18.2016 21.3058 18.1947C21.1361 18.1104 20.9363 18.1169 20.7724 18.2132C20.4378 18.4111 20.1137 18.7445 20.0177 18.9025C19.2213 19.9036 19.4493 20.713 18.8651 24.0651C18.8593 24.1076 18.8426 24.1421 18.7874 24.1956C18.2379 24.7445 17.3027 24.3719 17.3027 24.0415V20.3926C17.3027 20.0845 17.0527 19.8345 16.7446 19.8345C16.4364 19.8345 16.1864 20.0845 16.1864 20.3926V24.0415C16.1864 24.5313 16.4266 24.9053 16.8391 25.1943L16.5138 25.8292C16.0912 26.6835 16.0494 27.6431 16.4001 28.4636ZM19.9705 24.221C20.5683 20.5937 20.3574 20.0292 21.1187 19.3385C23.7487 20.4787 26.2707 20.236 26.3896 20.2226C29.4206 19.8275 32.2769 19.1617 34.6912 17.0981C35.5041 17.2165 36.1403 17.9058 36.1759 18.7473L36.3968 24.1243C36.4511 25.4933 37.7058 26.4694 39.0729 26.0526C39.0822 26.0731 39.0835 26.0952 39.0955 26.1148C39.9879 27.5732 39.1082 29.077 37.4906 29.2303C37.2489 29.2532 37.0498 29.4294 36.9978 29.6667C36.3529 32.6153 35.3969 34.5793 34.289 35.2061C33.4596 35.7105 32.1175 36.6448 31.3349 37.3285C30.3236 38.223 28.9362 38.8072 27.5465 38.4774C25.7014 38.0608 25.5026 37.066 22.4217 35.1988C20.9413 34.3436 20.0969 31.3369 19.7248 29.6648C19.6725 29.4283 19.4737 29.2528 19.2325 29.2303C18.4051 29.1521 17.7125 28.6889 17.4259 28.0232C16.9446 26.8963 17.7521 25.9811 17.9031 25.5653C18.8333 25.6375 19.8493 25.1066 19.9705 24.221Z" fill="#F3776D"/>
<path d="M35.1381 23.1459C35.4462 23.1459 35.6962 22.8959 35.6962 22.5877C35.6962 22.2796 35.4462 22.0296 35.1381 22.0296C34.0179 22.0296 32.9467 21.6812 32.0394 21.0213L31.9987 20.9919C31.7491 20.8113 31.4213 20.8829 31.2404 21.1314C31.0594 21.3807 31.135 21.744 31.3839 21.925C32.482 22.7236 33.7802 23.1459 35.1381 23.1459Z" fill="#F3776D"/>
<path d="M21.73 23.1459C23.0882 23.1459 24.3865 22.7237 25.4828 21.9261L25.5235 21.8967L25.1964 21.4443L24.8273 21.0225C23.9218 21.6812 22.8506 22.0297 21.73 22.0297C21.4219 22.0297 21.1719 22.2797 21.1719 22.5878C21.1719 22.8959 21.4219 23.1459 21.73 23.1459Z" fill="#F3776D"/>
<path d="M33.9553 24.1885C33.6471 24.1885 33.3972 24.4385 33.3972 24.7466C33.3972 24.9799 33.2071 25.1699 32.9738 25.1699C32.7406 25.1699 32.5505 24.9799 32.5505 24.7466C32.5505 24.4385 32.3005 24.1885 31.9924 24.1885C30.9521 24.1885 31.4278 26.2862 32.9738 26.2862C34.5155 26.2862 35.0032 24.1885 33.9553 24.1885Z" fill="#F3776D"/>
<path d="M25.1186 24.1885C24.8105 24.1885 24.5605 24.4385 24.5605 24.7466C24.5605 24.9799 24.3705 25.1699 24.1372 25.1699C23.9039 25.1699 23.7139 24.9799 23.7139 24.7466C23.7139 24.4385 23.4639 24.1885 23.1558 24.1885C22.8476 24.1885 22.5977 24.4385 22.5977 24.7466C22.5977 25.5954 23.2884 26.2861 24.1372 26.2861C24.986 26.2861 25.6768 25.5954 25.6768 24.7466C25.6768 24.4385 25.4268 24.1885 25.1186 24.1885Z" fill="#F3776D"/>
<path d="M28.4341 32.0637C29.9758 32.0637 30.4634 29.9661 29.4155 29.9661C29.1074 29.9661 28.8574 30.2161 28.8574 30.5242C28.8574 30.7575 28.6674 30.9475 28.4341 30.9475C28.2008 30.9475 28.0108 30.7575 28.0108 30.5242C28.0108 30.2161 27.7608 29.9661 27.4527 29.9661C27.1445 29.9661 26.8945 30.2161 26.8945 30.5242C26.8945 31.373 27.5853 32.0637 28.4341 32.0637Z" fill="#F3776D"/>
<path d="M16.5694 51.681V50.0259C16.5694 49.7178 16.3194 49.4678 16.0112 49.4678C15.7031 49.4678 15.4531 49.7178 15.4531 50.0259V51.681C15.4531 51.9891 15.7031 52.2391 16.0112 52.2391C16.3194 52.2391 16.5694 51.9891 16.5694 51.681Z" fill="#F3776D"/>
<path d="M49.8044 51.6808V50.1573C49.8044 47.5832 48.251 45.3108 45.8024 44.3519C45.7278 44.3269 39.0189 42.326 37.1104 41.2114C36.0298 40.5802 35.2933 39.4687 35.1392 38.238C35.1011 37.932 34.8205 37.718 34.5161 37.7536C34.2105 37.7918 33.9935 38.0708 34.0317 38.3768C34.2283 39.9498 35.1686 41.3698 36.5472 42.175C38.6174 43.3843 45.3467 45.3766 45.4412 45.4074C47.4139 46.1817 48.6882 48.0461 48.6882 50.1573V51.6808C48.6882 51.989 48.9381 52.2389 49.2463 52.2389C49.5544 52.2389 49.8044 51.989 49.8044 51.6808Z" fill="#F3776D"/>
<path d="M33.1212 43.4994C33.4083 43.3871 33.55 43.0634 33.4374 42.7763C33.3251 42.4889 33.0003 42.3479 32.7143 42.4602C30.0163 43.5166 26.3759 43.3597 24.0493 42.2458C23.7702 42.1125 23.4381 42.2305 23.3047 42.5085C23.1717 42.7865 23.2895 43.1197 23.5674 43.253C26.181 44.5037 30.1465 44.6648 33.1212 43.4994Z" fill="#F3776D"/>
<path d="M40.8355 52.239C41.1436 52.239 41.3936 51.989 41.3936 51.6809V50.0298C41.3936 49.7217 41.1436 49.4717 40.8355 49.4717C40.5273 49.4717 40.2773 49.7217 40.2773 50.0298V51.6809C40.2773 51.989 40.5273 52.239 40.8355 52.239Z" fill="#F3776D"/>
<path d="M11.1637 44.3675C8.76003 45.3104 7.20703 47.5832 7.20703 50.1573V51.6808C7.20703 51.989 7.45702 52.2389 7.76515 52.2389C8.07328 52.2389 8.32327 51.989 8.32327 51.6808V50.1573C8.32327 48.0454 9.5983 46.1807 11.5263 45.4223C12.1572 45.2166 18.3803 43.3928 20.4638 42.175C21.8421 41.3701 22.7828 39.9501 22.9794 38.3768C23.0175 38.0708 22.8006 37.7918 22.495 37.7536C22.1898 37.718 21.9104 37.932 21.8719 38.238C21.7178 39.469 20.9813 40.5806 19.9006 41.2114C17.9689 42.34 11.2386 44.342 11.1637 44.3675Z" fill="#F3776D"/>
<path d="M11.8628 10.714C12.1709 10.714 12.4209 10.464 12.4209 10.1559C12.4209 9.28553 13.1731 8.56202 14.0949 8.66505C15.4683 8.81625 15.9346 10.658 14.7228 11.4248C13.8718 11.9647 13.3635 12.8589 13.3635 13.8175C13.3635 14.1256 13.6135 14.3756 13.9216 14.3756C14.2297 14.3756 14.4797 14.1256 14.4797 13.8175C14.4797 13.2434 14.794 12.7012 15.3205 12.3677C16.173 11.8277 16.6334 10.867 16.5222 9.8605C16.2931 7.78808 13.7764 6.77122 12.176 8.20649C11.6223 8.70247 11.3047 9.41321 11.3047 10.1559C11.3047 10.464 11.5547 10.714 11.8628 10.714Z" fill="#F3776D"/>
<path d="M13.9204 15.0498C13.5592 15.0498 13.2656 15.3434 13.2656 15.7042C13.2656 16.0654 13.5592 16.359 13.9204 16.359C14.2812 16.359 14.5748 16.0654 14.5748 15.7042C14.5748 15.3434 14.2812 15.0498 13.9204 15.0498ZM13.9204 16.166C13.6657 16.166 13.4586 15.9589 13.4586 15.7042C13.4586 15.4499 13.6657 15.2427 13.9204 15.2427C14.1748 15.2427 14.3819 15.4499 14.3819 15.7042C14.3819 15.9589 14.1748 16.166 13.9204 16.166Z" fill="#F3776D"/>
<path d="M27.0933 35.3686C28.4512 35.3686 29.7494 34.9464 30.8461 34.1488L30.8867 34.1194L30.5597 33.667L30.1906 33.2451C29.2847 33.9039 28.2135 34.2524 27.0933 34.2524C26.7851 34.2524 26.5352 34.5023 26.5352 34.8105C26.5352 35.1186 26.7851 35.3686 27.0933 35.3686Z" fill="#F3776D"/>
<path d="M7.86386 17.7922C8.9679 21.5682 14.1899 22.0292 15.9174 18.4927C18.138 18.9531 20.3305 17.7684 21.2217 15.8413C22.7064 15.6767 23.9509 15.8674 25.0133 16.419C25.4611 16.6517 25.962 16.2164 25.7982 15.7417C25.2085 14.0336 24.1158 12.9057 22.5458 12.381C22.7339 11.5838 22.4846 10.7289 21.851 10.1678C22.5029 8.59771 22.2751 6.77292 21.2224 5.39361C19.4149 3.02485 15.9083 2.85867 13.8876 5.00663C11.4486 3.80888 8.61242 5.56783 8.59238 8.28086C4.81823 8.63336 2.88639 13.011 5.18917 16.0288C5.86647 16.9165 6.80612 17.5331 7.86386 17.7922ZM9.17304 9.37784C9.5084 9.39718 9.80086 9.08664 9.74279 8.73034C9.38045 6.50237 11.828 4.92864 13.7009 6.18464C13.9454 6.34815 14.2746 6.29474 14.4541 6.0611C15.9472 4.11957 18.8659 4.14471 20.3351 6.07091C21.2249 7.23657 21.3492 8.81427 20.6523 10.0904C20.4999 10.3694 20.611 10.7198 20.8968 10.8593C21.4367 11.1228 21.6832 11.8732 21.3205 12.4602C21.1175 12.7887 21.3024 13.2174 21.6766 13.2989C22.7554 13.5336 23.573 14.0615 24.1496 14.9013C23.1369 14.6386 22.0142 14.5982 20.7544 14.7748C20.0964 14.867 20.4381 15.7099 19.1171 16.7173C18.156 17.4513 16.9024 17.669 15.7626 17.2984C15.473 17.2039 15.1634 17.3587 15.0635 17.6454C13.9937 20.707 9.51081 20.3971 8.86818 17.2057C8.82203 16.9779 8.63999 16.8027 8.41071 16.7653C7.48633 16.6149 6.6575 16.1131 6.07649 15.3515C4.17198 12.8555 6.04324 9.27084 9.17304 9.37784Z" fill="#F3776D"/>
<path d="M44.9318 6.91319V5.01863C44.9318 4.44925 44.4689 3.98633 43.8995 3.98633H42.005C41.4356 3.98633 40.9727 4.44925 40.9727 5.01863V6.91319C40.9727 7.48257 41.4356 7.94549 42.005 7.94549H43.8995C44.4689 7.94549 44.9318 7.48257 44.9318 6.91319ZM43.8156 6.82925H42.0889V5.10257H43.8156V6.82925Z" fill="#F3776D"/>
<path d="M46.7817 10.0171H44.4776C43.9082 10.0171 43.4453 10.48 43.4453 11.0494V13.3535C43.4453 13.9228 43.9082 14.3858 44.4776 14.3858H46.7817C47.3511 14.3858 47.814 13.9228 47.814 13.3535V11.0494C47.814 10.48 47.3511 10.0171 46.7817 10.0171ZM46.6977 13.2695H44.5616V11.1333H46.6977V13.2695Z" fill="#F3776D"/>
<path d="M47.8633 6.42268V8.99091C47.8633 9.56029 48.3262 10.0232 48.8956 10.0232H51.4638C52.0332 10.0232 52.4961 9.56029 52.4961 8.99091V6.42268C52.4961 5.8533 52.0332 5.39038 51.4638 5.39038H48.8956C48.3262 5.39038 47.8633 5.8533 47.8633 6.42268ZM48.9795 6.50662H51.3799V8.90697H48.9795V6.50662Z" fill="#F3776D"/>
</svg>
