<svg width="80" height="80" viewBox="0 0 80 80" fill="none" xmlns="http://www.w3.org/2000/svg">
<path d="M61.8173 54.4392L59.0389 52.7746C58.1919 52.268 57.223 52.0006 56.2359 52.0001H52.0545C51.1985 51.9985 50.3462 52.1088 49.5184 52.3271L36.9197 55.7091C35.5422 56.0894 34.4359 57.1153 33.9533 58.4603L22.8716 52.4651C21.973 51.9537 20.9209 51.7801 19.9057 51.9751C19.5227 52.0427 19.1514 52.1647 18.8025 52.3373C18.0147 52.7144 17.3611 53.3238 16.9286 54.0828C16.5504 54.7439 16.3517 55.4923 16.3517 56.2535C16.34 57.8078 17.1635 59.2481 18.5079 60.0269L38.3691 71.9103C39.232 72.4445 40.226 72.7274 41.2407 72.7274H56.6115C57.2981 72.7279 57.9783 72.5979 58.6165 72.3454L61.8173 71.0814V72.7274H72.7264V50.9092H61.8173V54.4392ZM57.8148 70.3165C57.4329 70.4673 57.0254 70.545 56.6147 70.5456H41.2407C40.626 70.545 40.0236 70.3719 39.5026 70.0459L19.6143 58.1487C18.9383 57.7583 18.5245 57.0349 18.5298 56.2545C18.5314 55.8721 18.632 55.496 18.8222 55.1636C19.0395 54.787 19.3666 54.485 19.7592 54.2986C19.9323 54.2144 20.1155 54.1547 20.3046 54.1217C20.4426 54.0961 20.5827 54.0828 20.7228 54.0828C21.0978 54.0818 21.4664 54.1798 21.7919 54.3662L33.8084 60.8595C33.8222 60.9261 33.8222 60.9916 33.8398 61.0582C34.3565 62.9625 36.0839 64.2851 38.0575 64.2872C38.6647 64.2318 39.2661 64.1242 39.8553 63.9665L51.1894 60.9335L50.6269 58.8257L39.3295 61.8454C38.832 61.96 38.1901 62.091 38.0575 62.1022C37.072 62.1038 36.2081 61.4454 35.9486 60.4951C35.9135 60.363 35.8927 60.2277 35.8853 60.0914C35.8853 60.0914 35.8767 59.8272 35.8853 59.7345C35.9684 58.822 36.6076 58.056 37.4902 57.8105L50.0836 54.4413C50.7265 54.2693 51.3892 54.1819 52.0545 54.1819H56.2359C56.8283 54.1819 57.4094 54.3428 57.9171 54.6469L61.8173 56.9822V68.7345L57.8148 70.3165ZM63.9991 53.091H70.5446V70.5456H63.9991V53.091Z" fill="#0E4271"/>
<path d="M52.2671 16L46.4152 10.1486C44.578 8.3008 42.0781 7.26529 39.4729 7.27275H25.7576C24.9112 7.27381 24.0765 7.47143 23.3185 7.84856L20.8736 9.07157C20.3835 9.3182 19.8391 9.43592 19.291 9.41408L18.1825 9.3752V7.27275H7.27344V31.2728H18.1825V28H20.0373L20.6973 28.4363C22.544 29.6625 24.6944 30.355 26.9098 30.4359V44.3637H72.728V16H52.2671ZM16.0007 29.0909H9.45526V9.45456H16.0007V29.0909ZM21.9048 26.6209L20.6914 25.8182H18.1825V11.5581L19.2111 11.5948C20.1247 11.6273 21.0313 11.4308 21.8489 11.0233L24.2917 9.80027C24.7466 9.57282 25.2489 9.45456 25.7576 9.45456H39.4729C41.4991 9.44871 43.4439 10.2541 44.8725 11.6907L49.1818 16H40.1797L37.5318 13.3526L35.9897 14.8947L43.6959 22.6014C44.5519 23.4537 44.5545 24.8386 43.7023 25.6952C42.8495 26.5512 41.4645 26.5538 40.6085 25.7016L34.1722 19.2653L33.4084 19.9199C31.2996 21.7108 28.217 21.7566 26.0554 20.0286L25.4231 19.5162L24.0483 21.2111L24.6875 21.7294C25.356 22.2637 26.1065 22.6866 26.9098 22.9817V28.2531C25.1243 28.1737 23.3937 27.6096 21.9048 26.6209ZM37.4231 25.5998L39.0691 27.2463C40.7779 28.9295 43.5212 28.9322 45.2326 27.2516C43.6314 29.7312 44.2632 33.0311 46.6671 34.7436C49.0711 36.4562 52.3965 35.9752 54.2167 33.6522C56.0368 31.3287 55.7081 27.9846 53.4698 26.0606C51.2321 24.1366 47.8763 24.3129 45.8527 26.4606C46.5979 25.2903 46.731 23.8319 46.2101 22.5455H60.8186C61.2879 25.2903 63.4377 27.4402 66.1826 27.9095V32.4542C63.4377 32.9235 61.2879 35.0734 60.8186 37.8182H38.8193C38.35 35.0734 36.2001 32.9235 33.4553 32.4542V27.9095C35.0144 27.6469 36.4244 26.826 37.4231 25.5998ZM46.5462 30.1819C46.5462 28.3745 48.0116 26.9091 49.8189 26.9091C51.6263 26.9091 53.0917 28.3745 53.0917 30.1819C53.0917 31.9892 51.6263 33.4546 49.8189 33.4546C48.0116 33.4546 46.5462 31.9892 46.5462 30.1819ZM70.5462 42.1819H29.0916V23.4388C30.8212 23.5687 32.5455 23.1277 34.0007 22.1843L35.8619 24.0455C35.0432 25.1577 33.7456 25.8155 32.3644 25.8182H31.2735V34.5455H32.3644C34.7742 34.5455 36.728 36.4993 36.728 38.9091V40H62.9098V38.9091C62.9098 36.4993 64.8637 34.5455 67.2735 34.5455H68.3644V25.8182H67.2735C64.8637 25.8182 62.9098 23.8644 62.9098 21.4546V20.3637H44.5433L42.3615 18.1818H70.5462V42.1819Z" fill="#0E4271"/>
</svg>
