<svg width="80" height="80" viewBox="0 0 80 80" fill="none" xmlns="http://www.w3.org/2000/svg">
<path d="M69.8532 41.9004L51.0017 44.929C52.0642 43.9274 52.8566 42.6738 53.3054 41.2844C53.7543 39.8949 53.845 38.4146 53.5691 36.9808C53.2933 35.547 52.6599 34.206 51.7276 33.0822C50.7954 31.9584 49.5944 31.0883 48.2362 30.5524L69.9488 32.1063L70.1031 29.933L59.9537 29.2082C61.2218 28.5603 62.243 27.515 62.8611 26.232C63.4792 24.949 63.6603 23.499 63.3766 22.1034C63.0929 20.7078 62.3601 19.4435 61.2902 18.5037C60.2203 17.5638 58.8721 17.0001 57.4516 16.8987C56.0311 16.7973 54.6165 17.1637 53.4239 17.942C52.2313 18.7204 51.3263 19.8678 50.8472 21.2089C50.3682 22.55 50.3414 24.0111 50.771 25.3688C51.2006 26.7266 52.0629 27.9064 53.2261 28.7279L28.4567 26.961C30.7372 26.0424 32.639 24.3782 33.8521 22.2399C35.0652 20.1015 35.5178 17.6152 35.1363 15.1865C34.7547 12.7578 33.5614 10.5301 31.751 8.86674C29.9407 7.2034 27.6201 6.2026 25.1679 6.0276C22.7156 5.85259 20.2764 6.51373 18.2482 7.90314C16.22 9.29255 14.7224 11.3282 13.9999 13.6781C13.2773 16.028 13.3723 18.5534 14.2694 20.8424C15.1665 23.1313 16.8128 25.0487 18.9397 26.2818L9.24993 25.5863L9.09563 27.7597L43.0137 30.1829C41.2621 30.5994 39.6835 31.5503 38.4965 32.9039C37.3095 34.2575 36.5728 35.9468 36.3886 37.7377C36.2043 39.5285 36.5817 41.3324 37.4683 42.8993C38.3549 44.4662 39.7069 45.7186 41.3369 46.4829L22.1204 49.5712C22.879 48.6234 23.2945 47.4469 23.2994 46.233C23.3 45.2946 23.0575 44.3721 22.5956 43.5553C22.1337 42.7385 21.4681 42.0552 20.6637 41.5721C19.8593 41.0889 18.9434 40.8223 18.0054 40.7983C17.0673 40.7742 16.139 40.9935 15.3109 41.4348C14.4828 41.8761 13.7831 42.5243 13.2799 43.3164C12.7768 44.1084 12.4873 45.0173 12.4398 45.9544C12.3922 46.8916 12.5882 47.8251 13.0086 48.664C13.429 49.5029 14.0595 50.2187 14.8386 50.7415L9 51.6804L9.34556 53.8255L70.1987 44.0455L69.8532 41.9004ZM56.986 19.0664C57.8457 19.0664 58.6861 19.3213 59.4009 19.7989C60.1157 20.2765 60.6728 20.9554 61.0018 21.7496C61.3308 22.5439 61.4168 23.4178 61.2491 24.261C61.0814 25.1042 60.6674 25.8787 60.0595 26.4866C59.4516 27.0945 58.6771 27.5084 57.834 27.6762C56.9908 27.8439 56.1168 27.7578 55.3226 27.4288C54.5283 27.0998 53.8495 26.5427 53.3719 25.8279C52.8943 25.1131 52.6393 24.2727 52.6393 23.413C52.6393 22.2602 53.0973 21.1546 53.9124 20.3395C54.7276 19.5243 55.8332 19.0664 56.986 19.0664ZM15.6928 16.893C15.6928 15.1737 16.2026 13.4929 17.1578 12.0633C18.1131 10.6337 19.4708 9.51944 21.0593 8.86146C22.6478 8.20349 24.3957 8.03133 26.0821 8.36677C27.7684 8.7022 29.3174 9.53016 30.5332 10.7459C31.749 11.9617 32.5769 13.5107 32.9123 15.1971C33.2478 16.8834 33.0756 18.6313 32.4176 20.2198C31.7597 21.8083 30.6454 23.166 29.2158 24.1213C27.7862 25.0765 26.1054 25.5863 24.3861 25.5863C22.0813 25.5838 19.8716 24.667 18.2418 23.0373C16.6121 21.4075 15.6954 19.1979 15.6928 16.893ZM38.5127 38.6263C38.5127 37.3368 38.8951 36.0762 39.6115 35.004C40.3279 33.9318 41.3462 33.0961 42.5376 32.6026C43.729 32.1092 45.0399 31.98 46.3047 32.2316C47.5694 32.4832 48.7312 33.1042 49.643 34.016C50.5548 34.9278 51.1758 36.0896 51.4274 37.3543C51.679 38.6191 51.5498 39.93 51.0564 41.1214C50.5629 42.3128 49.7272 43.3311 48.655 44.0475C47.5828 44.7639 46.3222 45.1463 45.0327 45.1463C43.304 45.1446 41.6466 44.4571 40.4243 43.2347C39.2019 42.0124 38.5144 40.355 38.5127 38.6263ZM17.8661 42.973C18.5109 42.973 19.1411 43.1642 19.6772 43.5224C20.2133 43.8806 20.6312 44.3897 20.8779 44.9854C21.1247 45.5811 21.1892 46.2366 21.0634 46.8689C20.9377 47.5013 20.6272 48.0822 20.1713 48.5381C19.7153 48.994 19.1345 49.3045 18.5021 49.4303C17.8697 49.5561 17.2142 49.4915 16.6185 49.2448C16.0229 48.9981 15.5137 48.5802 15.1555 48.0441C14.7973 47.508 14.6061 46.8777 14.6061 46.233C14.6061 45.3684 14.9496 44.5392 15.5609 43.9278C16.1723 43.3164 17.0015 42.973 17.8661 42.973Z" fill="#0E4271"/>
<path d="M29.7108 52.2673C29.6104 52.0989 29.468 51.9594 29.2975 51.8626C29.127 51.7658 28.9343 51.7148 28.7382 51.7148C28.5422 51.7148 28.3495 51.7658 28.179 51.8626C28.0085 51.9594 27.8661 52.0989 27.7657 52.2673L17.9857 71.8272C17.9031 71.9925 17.864 72.1762 17.8721 72.3608C17.8803 72.5454 17.9353 72.7249 18.0322 72.8823C18.129 73.0397 18.2643 73.1698 18.4254 73.2603C18.5865 73.3509 18.768 73.3988 18.9528 73.3996H38.5128C38.698 73.3997 38.8802 73.3525 39.0421 73.2623C39.2039 73.1722 39.34 73.0422 39.4375 72.8846C39.5349 72.7271 39.5905 72.5472 39.5988 72.3621C39.6072 72.1771 39.5682 71.993 39.4854 71.8272L29.7108 52.2673ZM20.7111 71.2263L28.7328 55.1828L36.7546 71.2263H20.7111Z" fill="#0E4271"/>
</svg>
