<svg width="56" height="56" viewBox="0 0 56 56" fill="none" xmlns="http://www.w3.org/2000/svg">
<path d="M17.9792 3.11914C16.9939 3.11871 16.0306 3.41052 15.2111 3.95767C14.3917 4.50481 13.7529 5.28271 13.3757 6.19295C12.9984 7.10318 12.8996 8.10486 13.0917 9.07127C13.2838 10.0377 13.7583 10.9254 14.455 11.6221C15.1517 12.3189 16.0394 12.7933 17.0058 12.9854C17.9722 13.1775 18.9739 13.0787 19.8842 12.7014C20.7944 12.3242 21.5723 11.6854 22.1194 10.866C22.6666 10.0465 22.9584 9.08321 22.958 8.09789C22.9557 6.77816 22.4304 5.51313 21.4972 4.57994C20.564 3.64674 19.299 3.12145 17.9792 3.11914ZM17.9792 11.5498C17.2969 11.5502 16.6298 11.3483 16.0623 10.9696C15.4948 10.5909 15.0523 10.0524 14.7908 9.42224C14.5293 8.79206 14.4605 8.09848 14.5932 7.42922C14.7259 6.75997 15.054 6.14508 15.5362 5.66233C16.0183 5.17958 16.6328 4.85064 17.3019 4.7171C17.971 4.58357 18.6646 4.65145 19.2952 4.91215C19.9257 5.17285 20.4647 5.61466 20.8441 6.18172C21.2235 6.74877 21.4263 7.41561 21.4267 8.09789C21.4256 9.01227 21.0621 9.88894 20.416 10.5359C19.7698 11.1829 18.8936 11.5475 17.9792 11.5498Z" fill="#F3776D"/>
<path d="M37.2366 3.11914C36.2514 3.11957 35.2885 3.41212 34.4697 3.9598C33.6508 4.50747 33.0127 5.28566 32.6361 6.19598C32.2595 7.10629 32.1613 8.10783 32.3539 9.07396C32.5466 10.0401 33.0213 10.9274 33.7182 11.6237C34.4151 12.32 35.3029 12.794 36.2692 12.9857C37.2355 13.1775 38.2369 13.0784 39.1469 12.701C40.0569 12.3236 40.8345 11.6849 41.3815 10.8655C41.9284 10.0462 42.2201 9.08303 42.2197 8.09789C42.2174 6.7774 41.6915 5.51172 40.7573 4.5784C39.8232 3.64507 38.5571 3.1203 37.2366 3.11914ZM37.2366 11.5498C36.5545 11.5493 35.8878 11.3467 35.3208 10.9675C34.7539 10.5883 34.3121 10.0495 34.0512 9.41921C33.7904 8.78895 33.7223 8.09551 33.8555 7.42654C33.9886 6.75757 34.3171 6.1431 34.7995 5.66078C35.2818 5.17847 35.8962 4.84996 36.5652 4.71678C37.2342 4.58361 37.9276 4.65174 38.5579 4.91256C39.1881 5.17339 39.7269 5.61521 40.1061 6.18217C40.4854 6.74913 40.688 7.41579 40.6884 8.09789C40.6873 9.01303 40.3232 9.89036 39.6761 10.5375C39.029 11.1846 38.1517 11.5486 37.2366 11.5498Z" fill="#F3776D"/>
<path d="M47.7733 29.1027L46.172 20.4708C45.8305 18.635 44.8575 16.9765 43.4216 15.7827C41.9857 14.589 40.1775 13.9351 38.3102 13.9346H36.1708C34.901 13.9398 33.6504 14.2454 32.5213 14.8263C31.3922 15.4072 30.4165 16.247 29.6739 17.2771C28.7626 16.9809 27.7842 16.9596 26.8608 17.2158C25.9508 15.4002 24.5377 14.3327 22.9714 14.3327H12.9658C10.4895 14.3327 8.14453 17.7977 8.14453 21.4639V32.4408C8.14534 33.1078 8.41064 33.7471 8.88224 34.2187C9.35383 34.6903 9.99322 34.9556 10.6602 34.9564C10.9603 34.9562 11.258 34.9028 11.5395 34.7989L10.9183 48.7902C10.8803 49.6288 11.113 50.4575 11.5819 51.1537C12.0509 51.85 12.7314 52.3771 13.5228 52.6571C14.3142 52.9371 15.1747 52.9552 15.9772 52.7087C16.7797 52.4622 17.4817 51.9643 17.9795 51.2883C18.3097 51.7393 18.7332 52.1138 19.2211 52.3865C19.709 52.6591 20.2499 52.8235 20.807 52.8683C21.3641 52.9131 21.9244 52.8374 22.4496 52.6463C22.9748 52.4552 23.4527 52.1532 23.8508 51.7608C24.0917 52.0691 24.3919 52.3259 24.7339 52.5161C25.0758 52.7062 25.4524 52.8258 25.8414 52.8677C26.3003 52.9121 26.7632 52.8485 27.1931 52.6822C27.6231 52.5158 28.0082 52.2512 28.3177 51.9096C28.6345 52.264 29.0331 52.5356 29.4788 52.7009C29.9244 52.8662 30.4038 52.9201 30.875 52.858C31.3463 52.7959 31.7953 52.6197 32.183 52.3446C32.5707 52.0695 32.8853 51.7039 33.0995 51.2796C33.2542 51.6687 33.5028 52.0136 33.8231 52.2833C34.1434 52.5531 34.5255 52.7393 34.9353 52.8255C35.3451 52.9117 35.7698 52.8952 36.1717 52.7774C36.5735 52.6595 36.9399 52.4441 37.2383 52.1502C37.5821 52.4881 38.0148 52.7215 38.486 52.8233C38.9573 52.9251 39.4477 52.8911 39.9004 52.7252C40.353 52.5594 40.7493 52.2685 41.0433 51.8863C41.3372 51.5042 41.5166 51.0465 41.5608 50.5664L42.6589 38.5352H45.1264C45.2355 38.535 45.3433 38.5116 45.4426 38.4666C45.542 38.4215 45.6306 38.3559 45.7026 38.2739C45.7746 38.192 45.8283 38.0957 45.8602 37.9914C45.8922 37.887 45.9015 37.7771 45.8877 37.6689L45.4151 34.0596C46.2811 33.588 46.9756 32.8545 47.3992 31.9641C47.8228 31.0737 47.9537 30.0721 47.7733 29.1027ZM28.1602 18.5721C28.8424 18.5725 29.5093 18.7752 30.0763 19.1547C30.6434 19.5341 31.0852 20.0731 31.3459 20.7036C31.6066 21.3342 31.6745 22.0278 31.5409 22.6969C31.4074 23.366 31.0785 23.9805 30.5957 24.4626C30.113 24.9447 29.4981 25.2729 28.8288 25.4056C28.1596 25.5383 27.466 25.4695 26.8358 25.208C26.2056 24.9465 25.6671 24.504 25.2884 23.9365C24.9097 23.3689 24.7078 22.7019 24.7083 22.0196C24.7085 21.5665 24.7979 21.1179 24.9715 20.6995C25.1451 20.281 25.3994 19.9008 25.72 19.5807C26.0405 19.2605 26.421 19.0066 26.8397 18.8336C27.2584 18.6605 27.7071 18.5717 28.1602 18.5721ZM33.2789 39.9352C33.2789 40.0122 33.2637 40.0884 33.2343 40.1595C33.2048 40.2307 33.1616 40.2953 33.1072 40.3497C33.0528 40.4042 32.9881 40.4474 32.917 40.4768C32.8459 40.5063 32.7696 40.5214 32.6927 40.5214C32.4897 40.5217 32.2951 40.6024 32.1515 40.7459C32.008 40.8895 31.9273 41.0841 31.927 41.2871V49.8358C31.9367 50.1999 31.8117 50.5548 31.576 50.8325C31.3402 51.1102 31.0104 51.2912 30.6495 51.3408C30.4517 51.3614 30.2517 51.3402 30.0626 51.2786C29.8735 51.2169 29.6995 51.1162 29.5518 50.983C29.4041 50.8497 29.2861 50.6869 29.2054 50.5051C29.1247 50.3233 29.0831 50.1266 29.0833 49.9277V41.9477C29.0833 41.7446 29.0026 41.5499 28.859 41.4063C28.7155 41.2627 28.5207 41.1821 28.3177 41.1821C28.1146 41.1821 27.9199 41.2627 27.7763 41.4063C27.6327 41.5499 27.552 41.7446 27.552 41.9477V49.9277C27.5528 50.1264 27.5117 50.323 27.4315 50.5047C27.3512 50.6865 27.2336 50.8493 27.0863 50.9826C26.9389 51.1159 26.7652 51.2167 26.5764 51.2784C26.3875 51.3401 26.1878 51.3614 25.9902 51.3408C25.6288 51.2914 25.2984 51.1107 25.0619 50.833C24.8254 50.5554 24.6995 50.2004 24.7083 49.8358V41.2871C24.7085 41.1865 24.6889 41.0868 24.6505 40.9938C24.6121 40.9008 24.5557 40.8163 24.4845 40.7452C24.4134 40.674 24.3289 40.6177 24.2359 40.5793C24.1429 40.5409 24.0433 40.5212 23.9427 40.5214H23.6233C23.468 40.5206 23.3194 40.4586 23.2096 40.3489C23.0999 40.2391 23.0378 40.0904 23.037 39.9352V34.4314C23.0355 33.9898 23.0929 33.5498 23.2077 33.1233C23.5226 31.9179 24.2663 30.8688 25.2994 30.1725C26.3325 29.4762 27.584 29.1806 28.8195 29.3411C30.055 29.5016 31.1895 30.1071 32.0104 31.0442C32.8314 31.9813 33.2824 33.1856 33.2789 34.4314V39.9352ZM36.4727 50.3346C36.4724 50.6037 36.3654 50.8617 36.1751 51.052C35.9848 51.2423 35.7268 51.3493 35.4577 51.3496C35.2045 51.3478 34.9609 51.2525 34.7736 51.0822C34.5862 50.9118 34.4684 50.6783 34.4427 50.4264L33.6552 41.8164C34.0015 41.6388 34.2924 41.3693 34.4961 41.0376C34.6998 40.7058 34.8084 40.3245 34.8102 39.9352V38.5352H36.4727V50.3346ZM40.0339 50.4264C40.0097 50.6867 39.8862 50.9277 39.6891 51.0994C39.4919 51.271 39.2362 51.3602 38.9751 51.3484C38.714 51.3366 38.4674 51.2247 38.2866 51.0359C38.1057 50.8471 38.0045 50.596 38.0039 50.3346V38.5352H41.1233L40.0339 50.4264ZM45.1264 32.4189L42.7114 20.3964C42.6714 20.1974 42.5539 20.0225 42.3849 19.9101C42.2159 19.7977 42.0091 19.757 41.8102 19.7971C41.6112 19.8371 41.4362 19.9545 41.3238 20.1236C41.2114 20.2926 41.1707 20.4993 41.2108 20.6983C41.2327 20.8164 41.2545 20.9171 41.272 21.0002C41.2717 21.0077 41.2732 21.0152 41.2764 21.0221C41.2764 21.0308 41.2808 21.0439 41.2808 21.0527C41.2811 21.0561 41.2827 21.0592 41.2852 21.0614C41.2845 21.069 41.286 21.0766 41.2895 21.0833C41.2895 21.0964 41.2939 21.1096 41.2939 21.1227C41.2983 21.1271 41.2983 21.1314 41.2983 21.1402C41.2983 21.1489 41.3027 21.1621 41.307 21.1752C41.3114 21.2058 41.3202 21.2321 41.3245 21.2671C41.3245 21.2758 41.3289 21.2846 41.3289 21.2933C41.3321 21.3002 41.3336 21.3077 41.3333 21.3152C41.3379 21.3294 41.3408 21.3441 41.342 21.3589C41.3437 21.3607 41.3449 21.3627 41.3457 21.365C41.3464 21.3673 41.3467 21.3697 41.3464 21.3721C41.5389 22.3346 42.147 25.3664 43.8314 33.7533L44.2558 37.0039H34.8102V34.4314C34.8102 32.6672 34.1093 30.9752 32.8618 29.7276C31.6142 28.4801 29.9222 27.7793 28.158 27.7793C26.3937 27.7793 24.7017 28.4801 23.4542 29.7276C22.2066 30.9752 21.5058 32.6672 21.5058 34.4314V39.9352C21.5065 40.419 21.6726 40.8881 21.9766 41.2645C22.2806 41.6409 22.7042 41.9021 23.177 42.0046C23.1858 50.2383 23.1639 49.8358 23.1945 50.1421C22.9357 50.6 22.5323 50.9592 22.0476 51.1634C21.5629 51.3677 21.0241 51.4056 20.5156 51.271C20.0071 51.1365 19.5575 50.8373 19.2371 50.4201C18.9168 50.0028 18.7438 49.4912 18.7452 48.9652V33.6089C18.7452 33.4059 18.6645 33.2112 18.5209 33.0676C18.3773 32.924 18.1826 32.8433 17.9795 32.8433C17.7765 32.8433 17.5817 32.924 17.4382 33.0676C17.2946 33.2112 17.2139 33.4059 17.2139 33.6089V48.9783C17.213 49.2957 17.1488 49.6098 17.0249 49.9021C16.901 50.1943 16.72 50.4589 16.4925 50.6803C16.2649 50.9016 15.9955 51.0753 15.6999 51.1911C15.4044 51.3069 15.0887 51.3625 14.7713 51.3546C14.454 51.3467 14.1414 51.2756 13.852 51.1453C13.5625 51.015 13.302 50.8281 13.0857 50.5958C12.8695 50.3634 12.7018 50.0902 12.5925 49.7922C12.4833 49.4941 12.4347 49.1773 12.4495 48.8602L13.167 32.6552C13.167 32.6071 13.1714 23.7521 13.1758 21.0658C13.1758 20.8628 13.0951 20.668 12.9515 20.5244C12.808 20.3809 12.6132 20.3002 12.4102 20.3002C12.2071 20.3002 12.0124 20.3809 11.8688 20.5244C11.7252 20.668 11.6445 20.8628 11.6445 21.0658L11.6358 32.5677C11.6042 32.8161 11.479 33.0431 11.2859 33.2025C11.0927 33.3618 10.846 33.4415 10.5962 33.4254C10.3463 33.4092 10.1119 33.2983 9.94093 33.1154C9.76993 32.9325 9.6751 32.6912 9.67578 32.4408V21.4639C9.67578 18.5021 11.5177 15.8639 12.9658 15.8639H22.9714C23.9033 15.8639 24.822 16.6077 25.4608 17.8414C24.5523 18.4287 23.8586 19.2944 23.4833 20.3089C23.1629 21.1801 23.0924 22.1235 23.2796 23.0327C23.4668 23.9418 23.9044 24.7805 24.5429 25.4543C25.1814 26.128 25.9954 26.6099 26.8932 26.8456C27.791 27.0814 28.7368 27.0615 29.624 26.7884C30.5111 26.5152 31.3042 25.9996 31.9139 25.2997C32.5236 24.5998 32.9256 23.7434 33.0746 22.8272C33.2235 21.911 33.1135 20.9715 32.7569 20.1145C32.4003 19.2575 31.8113 18.5172 31.0564 17.9771C31.6629 17.1984 32.4385 16.5677 33.3245 16.1327C34.2105 15.6976 35.1837 15.4696 36.1708 15.4658H38.3102C39.8196 15.4676 41.281 15.9968 42.4418 16.9618C43.6025 17.9268 44.3896 19.267 44.667 20.7508L46.2683 29.3827C46.3719 29.9448 46.3204 30.5245 46.1192 31.0595C45.918 31.5944 45.5748 32.0645 45.1264 32.4189Z" fill="#F3776D"/>
<path d="M24.3125 21.0659V31.054C23.7891 31.6487 23.4116 32.3573 23.21 33.1234C23.0811 33.0621 22.9723 32.9654 22.8964 32.8445C22.8204 32.7236 22.7805 32.5836 22.7813 32.4409V21.0659C22.7807 20.8739 22.8532 20.6889 22.984 20.5483C23.1148 20.4078 23.2941 20.3222 23.4856 20.309C23.5051 20.3015 23.5261 20.2986 23.5469 20.3003C23.6475 20.3 23.7472 20.3197 23.8402 20.3581C23.9331 20.3965 24.0176 20.4529 24.0888 20.524C24.1599 20.5951 24.2163 20.6796 24.2547 20.7726C24.2931 20.8656 24.3127 20.9653 24.3125 21.0659Z" fill="#F3776D"/>
</svg>
