<svg width="57" height="56" viewBox="0 0 57 56" fill="none" xmlns="http://www.w3.org/2000/svg">
<path fill-rule="evenodd" clip-rule="evenodd" d="M7.15466 30.5183C6.77586 30.5183 6.46875 30.2112 6.46875 29.8324C6.46875 29.4536 6.77586 29.1465 7.15466 29.1465H8.52649C8.9053 29.1465 9.21241 29.4536 9.21241 29.8324C9.21241 30.2112 8.9053 30.5183 8.52649 30.5183H7.15466ZM41.4499 29.1466C41.8287 29.1466 42.1358 29.4537 42.1358 29.8325C42.1358 30.2113 41.8287 30.5184 41.4499 30.5184H40.0781C39.6993 30.5184 39.3922 30.2113 39.3922 29.8325C39.3922 29.4537 39.6993 29.1466 40.0781 29.1466H41.4499ZM35.9627 29.1466C36.3415 29.1466 36.6486 29.4537 36.6486 29.8325C36.6486 30.2113 36.3415 30.5184 35.9627 30.5184H34.5909C34.212 30.5184 33.9049 30.2113 33.9049 29.8325C33.9049 29.4537 34.212 29.1466 34.5909 29.1466H35.9627ZM30.4755 29.1466C30.8543 29.1466 31.1614 29.4537 31.1614 29.8325C31.1614 30.2113 30.8543 30.5184 30.4755 30.5184H29.1036C28.7248 30.5184 28.4177 30.2113 28.4177 29.8325C28.4177 29.4537 28.7248 29.1466 29.1036 29.1466H30.4755ZM24.9882 29.1466C25.367 29.1466 25.6742 29.4537 25.6742 29.8325C25.6742 30.2113 25.367 30.5184 24.9882 30.5184H23.6164C23.2376 30.5184 22.9305 30.2113 22.9305 29.8325C22.9305 29.4537 23.2376 29.1466 23.6164 29.1466H24.9882ZM19.501 29.1466C19.8798 29.1466 20.1869 29.4537 20.1869 29.8325C20.1869 30.2113 19.8798 30.5184 19.501 30.5184H18.1292C17.7504 30.5184 17.4433 30.2113 17.4433 29.8325C17.4433 29.4537 17.7504 29.1466 18.1292 29.1466H19.501ZM14.0138 29.1466C14.3926 29.1466 14.6997 29.4537 14.6997 29.8325C14.6997 30.2113 14.3926 30.5184 14.0138 30.5184H12.642C12.2632 30.5184 11.9561 30.2113 11.9561 29.8325C11.9561 29.4537 12.2632 29.1466 12.642 29.1466H14.0138Z" fill="#F3776D"/>
<path fill-rule="evenodd" clip-rule="evenodd" d="M13.6129 5.59961C15.8865 5.59961 17.7298 7.44289 17.7298 9.71646C17.7298 11.99 15.8865 13.8333 13.6129 13.8333C11.3394 13.8333 9.49609 11.99 9.49609 9.71646C9.496 7.44289 11.3394 5.59961 13.6129 5.59961ZM15.554 7.77542C14.482 6.70347 12.7438 6.70347 11.6718 7.77542C10.5999 8.84737 10.5999 10.5857 11.6718 11.6576C12.7438 12.7295 14.482 12.7295 15.554 11.6576C16.6259 10.5857 16.6259 8.84737 15.554 7.77542Z" fill="#F3776D"/>
<path fill-rule="evenodd" clip-rule="evenodd" d="M13.613 21.5557H7.15466C6.77586 21.5557 6.46875 21.2486 6.46875 20.8698C6.46875 16.9242 9.66749 13.7256 13.613 13.7256C17.5584 13.7256 20.7572 16.9242 20.7572 20.8698C20.7572 21.2486 20.4501 21.5557 20.0712 21.5557H13.613ZM7.881 20.184H19.345C19.0041 17.3035 16.5533 15.0975 13.613 15.0975C10.6728 15.0974 8.22204 17.3034 7.881 20.184Z" fill="#F3776D"/>
<path fill-rule="evenodd" clip-rule="evenodd" d="M27.5075 5.59961C29.7811 5.59961 31.6243 7.44298 31.6243 9.71646C31.6243 11.9899 29.781 13.8333 27.5075 13.8333C25.234 13.8333 23.3906 11.9901 23.3906 9.71656C23.3906 7.44289 25.2339 5.59961 27.5075 5.59961ZM29.4485 7.77542C28.3766 6.70347 26.6383 6.70347 25.5663 7.77542C24.4944 8.84737 24.4944 10.5857 25.5663 11.6576C26.6383 12.7295 28.3766 12.7295 29.4485 11.6576C30.5206 10.5856 30.5206 8.84737 29.4485 7.77542Z" fill="#F3776D"/>
<path fill-rule="evenodd" clip-rule="evenodd" d="M27.5075 21.5557H21.0492C20.6704 21.5557 20.3633 21.2486 20.3633 20.8698C20.3633 16.9243 23.562 13.7256 27.5075 13.7256C31.453 13.7256 34.6517 16.9242 34.6517 20.8698C34.6517 21.2486 34.3446 21.5557 33.9658 21.5557H27.5075ZM21.7755 20.184H33.2394C32.8984 17.3035 30.4477 15.0975 27.5075 15.0975C24.5673 15.0975 22.1165 17.3035 21.7755 20.184Z" fill="#F3776D"/>
<path fill-rule="evenodd" clip-rule="evenodd" d="M41.402 5.59961C43.6756 5.59961 45.5189 7.44298 45.5189 9.71646C45.5189 11.9899 43.6755 13.8333 41.402 13.8333C39.1285 13.8333 37.2852 11.99 37.2852 9.71646C37.2852 7.44289 39.1284 5.59961 41.402 5.59961ZM43.3431 7.77542C42.2711 6.70347 40.5328 6.70347 39.4609 7.77542C38.3889 8.84737 38.3889 10.5857 39.4609 11.6576C40.5328 12.7295 42.2711 12.7295 43.3431 11.6576C44.4151 10.5856 44.4151 8.84737 43.3431 7.77542Z" fill="#F3776D"/>
<path fill-rule="evenodd" clip-rule="evenodd" d="M41.402 21.5557H34.9437C34.5649 21.5557 34.2578 21.2486 34.2578 20.8698C34.2578 16.9243 37.4565 13.7256 41.402 13.7256C45.3475 13.7256 48.5462 16.9243 48.5462 20.8698C48.5462 21.2486 48.2391 21.5557 47.8603 21.5557H41.402ZM35.6701 20.184H47.134C46.793 17.3035 44.3423 15.0975 41.402 15.0975C38.4617 15.0975 36.011 17.3035 35.6701 20.184Z" fill="#F3776D"/>
<path fill-rule="evenodd" clip-rule="evenodd" d="M42.5038 23.7299V31.8141C42.5038 32.1929 42.1967 32.5 41.8179 32.5C41.4391 32.5 41.132 32.1929 41.132 31.8141V25.1565C41.132 24.6114 40.7569 24.3383 40.3021 24.3383V24.3357C39.8565 24.3357 39.4723 24.6087 39.4723 25.1565C39.4723 25.6001 39.4844 26.1564 39.4996 26.8594C39.5617 29.7194 39.7178 36.1187 39.082 37.0141L39.0816 37.0138C38.793 37.4201 38.1683 37.3919 37.9245 36.9444L36.1821 33.7472C35.6583 32.7861 34.1929 33.5761 34.7205 34.5442C35.4997 35.9741 36.4548 37.556 37.1482 39.0015C38.171 41.1306 39.8047 42.5941 41.5855 43.3569C43.8437 44.3241 46.5297 44.2152 48.3583 42.5476C49.3571 41.6367 50.0722 40.2716 50.2907 38.4319C50.4237 36.1656 50.3603 33.6379 50.2983 31.1652C50.2623 29.733 50.2269 28.3183 50.2269 27.1182C50.2269 26.5731 49.8517 26.3001 49.397 26.3001V26.2975C48.9513 26.2975 48.5671 26.5705 48.5671 27.1183V32.2899C48.5671 32.6687 48.26 32.9758 47.8812 32.9758C47.5024 32.9758 47.1953 32.6687 47.1953 32.2899V24.5622C47.1953 24.0171 46.8202 23.7441 46.3654 23.7441V23.7415C45.9198 23.7415 45.5356 24.0145 45.5356 24.5623V31.8441C45.5356 32.2229 45.2285 32.53 44.8497 32.53C44.4709 32.53 44.1637 32.2229 44.1637 31.8441V23.73C44.1637 23.185 43.7886 22.9119 43.3339 22.9119V22.9092C42.8881 22.909 42.5038 23.1821 42.5038 23.7299ZM41.199 23.1446C41.6661 21.2115 44.3934 21.0097 45.2763 22.6403C46.6833 21.8997 48.5671 22.7239 48.5671 24.5621V25.0797C49.9756 24.5487 51.5987 25.4242 51.5987 27.1182C51.5987 30.8677 51.8689 34.9582 51.6555 38.5418C51.6548 38.5544 51.6542 38.5669 51.6528 38.5792C51.2372 42.106 49.0483 44.866 45.3991 45.2896C43.9799 45.4543 42.4723 45.2254 41.0498 44.6161C38.9913 43.7345 37.1064 42.0536 35.928 39.6159L33.5203 35.198C32.677 33.6505 33.8015 32.1218 35.2548 31.9514C36.0491 31.8582 36.881 32.1731 37.3826 33.0935L38.1745 34.5466C38.255 32.489 38.1802 29.0419 38.1333 26.8862C38.1151 26.046 38.1006 25.3818 38.1006 25.1565C38.1005 23.3863 39.8232 22.5786 41.199 23.1446Z" fill="#F3776D"/>
<path fill-rule="evenodd" clip-rule="evenodd" d="M19.4139 31.2764C22.16 31.2764 24.3865 33.5028 24.3865 36.249C24.3865 38.9951 22.1601 41.2215 19.4139 41.2215C16.6678 41.2215 14.4414 38.995 14.4414 36.249C14.4413 33.5028 16.6677 31.2764 19.4139 31.2764ZM21.96 33.7028C20.5539 32.2966 18.2738 32.2966 16.8677 33.7028C15.4616 35.1089 15.4616 37.3889 16.8677 38.7951C18.2738 40.2012 20.5538 40.2012 21.96 38.7951C23.3662 37.389 23.3662 35.1089 21.96 33.7028Z" fill="#F3776D"/>
<path fill-rule="evenodd" clip-rule="evenodd" d="M19.4151 50.8705H11.3461C10.9673 50.8705 10.6602 50.5634 10.6602 50.1846C10.6602 45.3495 14.5799 41.4297 19.415 41.4297C24.25 41.4297 28.1699 45.3495 28.1699 50.1846C28.1699 50.5634 27.8628 50.8705 27.484 50.8705H19.4151ZM12.0635 49.4987H26.7666C26.4192 45.7264 23.2453 42.8015 19.4151 42.8015C15.5848 42.8015 12.411 45.7263 12.0635 49.4987Z" fill="#F3776D"/>
<path fill-rule="evenodd" clip-rule="evenodd" d="M18.5203 38.1306C18.5203 38.5094 18.2132 38.8165 17.8344 38.8165C17.4555 38.8165 17.1484 38.5094 17.1484 38.1306C17.1484 36.1172 19.5944 35.1019 21.0196 36.5271C21.43 36.9375 21.6839 37.5045 21.6839 38.1306C21.6839 38.5094 21.3768 38.8165 20.998 38.8165C20.6192 38.8165 20.3121 38.5094 20.3121 38.1306C20.3121 37.3346 19.3453 36.9344 18.7826 37.4971C18.6205 37.6592 18.5203 37.8832 18.5203 38.1306Z" fill="#F3776D"/>
</svg>
