<svg width="57" height="56" viewBox="0 0 57 56" fill="none" xmlns="http://www.w3.org/2000/svg">
<g clip-path="url(#clip0_1941_20642)">
<path d="M5.77188 27.1031C8.41875 29.3344 11.8422 30.6906 15.5719 30.6906C19.3016 30.6906 22.7141 29.3344 25.3719 27.1031H25.4375C25.4375 27.0812 25.4375 27.0703 25.4375 27.0484C28.7188 24.2484 30.8188 20.0922 30.8188 15.4547C30.8078 7.05469 23.9719 0.21875 15.5719 0.21875C7.17188 0.21875 0.335938 7.05469 0.335938 15.4547C0.335938 20.1031 2.425 24.2594 5.71719 27.0484V27.1031H5.77188ZM7.55469 26.2172C7.99219 22.1812 11.4156 19.0312 15.5719 19.0312C19.7172 19.0312 23.1406 22.1812 23.5891 26.2172C21.3469 27.8906 18.5797 28.8969 15.5719 28.8969C12.5641 28.8969 9.79688 27.8906 7.55469 26.2172ZM11.9844 13.6609C11.9844 11.6812 13.5922 10.0734 15.5719 10.0734C17.5516 10.0734 19.1594 11.6812 19.1594 13.6609C19.1594 15.6406 17.5516 17.2484 15.5719 17.2484C13.5922 17.2484 11.9844 15.6406 11.9844 13.6609ZM2.12969 15.4547C2.12969 8.03906 8.15625 2.0125 15.5719 2.0125C22.9875 2.0125 29.0141 8.03906 29.0141 15.4547C29.0141 19.1187 27.5375 22.4328 25.1641 24.8609C24.3984 21.6125 22.0359 18.9766 18.9406 17.85C20.1656 16.8656 20.9531 15.3562 20.9531 13.6609C20.9531 10.6969 18.5359 8.27969 15.5719 8.27969C12.6078 8.27969 10.1906 10.6969 10.1906 13.6609C10.1906 15.3562 10.9781 16.8656 12.2031 17.85C9.10781 18.9766 6.73437 21.6125 5.97969 24.8609C3.60625 22.4328 2.12969 19.1078 2.12969 15.4547Z" fill="#F3776D"/>
<path d="M55.8977 40.5455C55.8977 32.1455 49.0617 25.3096 40.6617 25.3096C32.2617 25.3096 25.4258 32.1455 25.4258 40.5455C25.4258 45.1939 27.5148 49.3502 30.807 52.1393V52.1939H30.8727C33.5195 54.4252 36.943 55.7814 40.6727 55.7814C44.4023 55.7814 47.8148 54.4252 50.4727 52.1939H50.5383C50.5383 52.1721 50.5383 52.1611 50.5383 52.1393C53.8086 49.3502 55.8977 45.1939 55.8977 40.5455ZM32.6445 51.3189C33.082 47.283 36.5055 44.133 40.6617 44.133C44.807 44.133 48.2305 47.283 48.6789 51.3189C46.4367 52.9924 43.6695 53.9986 40.6617 53.9986C37.6539 53.9877 34.8867 52.9814 32.6445 51.3189ZM37.0742 38.7518C37.0742 36.7721 38.682 35.1643 40.6617 35.1643C42.6414 35.1643 44.2492 36.7721 44.2492 38.7518C44.2492 40.7314 42.6414 42.3393 40.6617 42.3393C38.682 42.3393 37.0742 40.7314 37.0742 38.7518ZM44.0305 42.9408C45.2555 41.9564 46.043 40.4471 46.043 38.7518C46.043 35.7877 43.6258 33.3705 40.6617 33.3705C37.6977 33.3705 35.2805 35.7877 35.2805 38.7518C35.2805 40.4471 36.068 41.9564 37.293 42.9408C34.1977 44.0674 31.8242 46.7033 31.0695 49.9518C28.6852 47.5236 27.2195 44.2096 27.2195 40.5455C27.2195 33.1299 33.2461 27.1033 40.6617 27.1033C48.0773 27.1033 54.1039 33.1299 54.1039 40.5455C54.1039 44.2096 52.6273 47.5236 50.2539 49.9518C49.4883 46.7033 47.1148 44.0674 44.0305 42.9408Z" fill="#F3776D"/>
<path d="M47.8375 23.516H49.6313C49.6313 14.1316 41.9969 6.48633 32.6016 6.48633V8.28008C41.0016 8.28008 47.8375 15.116 47.8375 23.516Z" fill="#F3776D"/>
<path d="M8.39609 32.4844H6.61328C6.61328 41.8688 14.2477 49.5141 23.643 49.5141V47.7203C15.232 47.7203 8.39609 40.8844 8.39609 32.4844Z" fill="#F3776D"/>
</g>
<defs>
<clipPath id="clip0_1941_20642">
<rect width="56" height="56" fill="white" transform="translate(0.117188)"/>
</clipPath>
</defs>
</svg>
