<svg width="57" height="56" viewBox="0 0 57 56" fill="none" xmlns="http://www.w3.org/2000/svg">
<path d="M46.731 9.02816H45.2716V8.29847C45.2716 7.71788 45.041 7.16108 44.6304 6.75054C44.2199 6.34001 43.6631 6.10938 43.0825 6.10938C42.5019 6.10938 41.9451 6.34001 41.5346 6.75054C41.124 7.16108 40.8934 7.71788 40.8934 8.29847V9.02816H37.9746V8.29847C37.9746 7.71788 37.744 7.16108 37.3335 6.75054C36.9229 6.34001 36.3661 6.10938 35.7855 6.10938C35.205 6.10938 34.6481 6.34001 34.2376 6.75054C33.8271 7.16108 33.5964 7.71788 33.5964 8.29847V9.02816H30.6777V8.29847C30.6777 7.71788 30.447 7.16108 30.0365 6.75054C29.6259 6.34001 29.0691 6.10938 28.4886 6.10938C27.908 6.10938 27.3512 6.34001 26.9406 6.75054C26.5301 7.16108 26.2995 7.71788 26.2995 8.29847V9.02816H23.3807V8.29847C23.3807 7.71788 23.1501 7.16108 22.7395 6.75054C22.329 6.34001 21.7722 6.10938 21.1916 6.10938C20.611 6.10938 20.0542 6.34001 19.6437 6.75054C19.2331 7.16108 19.0025 7.71788 19.0025 8.29847V9.02816H16.0837V8.29847C16.0837 7.71788 15.8531 7.16108 15.4425 6.75054C15.032 6.34001 14.4752 6.10938 13.8946 6.10938C13.314 6.10938 12.7572 6.34001 12.3467 6.75054C11.9362 7.16108 11.7055 7.71788 11.7055 8.29847V9.02816H10.2461C9.27886 9.02932 8.35153 9.41409 7.66755 10.0981C6.98358 10.782 6.59881 11.7094 6.59766 12.6766L6.59766 46.2427C6.59881 47.21 6.98358 48.1373 7.66755 48.8213C8.35153 49.5053 9.27886 49.89 10.2461 49.8912H46.731C47.6983 49.89 48.6256 49.5053 49.3096 48.8213C49.9935 48.1373 50.3783 47.21 50.3795 46.2427V12.6766C50.3783 11.7094 49.9935 10.782 49.3096 10.0981C48.6256 9.41409 47.6983 9.02932 46.731 9.02816ZM42.3528 8.29847C42.3528 8.10494 42.4297 7.91934 42.5665 7.78249C42.7034 7.64565 42.889 7.56877 43.0825 7.56877C43.276 7.56877 43.4616 7.64565 43.5985 7.78249C43.7353 7.91934 43.8122 8.10494 43.8122 8.29847V11.2173C43.8122 11.4108 43.7353 11.5964 43.5985 11.7332C43.4616 11.8701 43.276 11.947 43.0825 11.947C42.889 11.947 42.7034 11.8701 42.5665 11.7332C42.4297 11.5964 42.3528 11.4108 42.3528 11.2173V8.29847ZM35.0558 8.29847C35.0558 8.10494 35.1327 7.91934 35.2696 7.78249C35.4064 7.64565 35.592 7.56877 35.7855 7.56877C35.9791 7.56877 36.1647 7.64565 36.3015 7.78249C36.4384 7.91934 36.5152 8.10494 36.5152 8.29847V11.2173C36.5152 11.4108 36.4384 11.5964 36.3015 11.7332C36.1647 11.8701 35.9791 11.947 35.7855 11.947C35.592 11.947 35.4064 11.8701 35.2696 11.7332C35.1327 11.5964 35.0558 11.4108 35.0558 11.2173V8.29847ZM27.7589 8.29847C27.7589 8.10494 27.8357 7.91934 27.9726 7.78249C28.1094 7.64565 28.295 7.56877 28.4886 7.56877C28.6821 7.56877 28.8677 7.64565 29.0045 7.78249C29.1414 7.91934 29.2183 8.10494 29.2183 8.29847V11.2173C29.2183 11.4108 29.1414 11.5964 29.0045 11.7332C28.8677 11.8701 28.6821 11.947 28.4886 11.947C28.295 11.947 28.1094 11.8701 27.9726 11.7332C27.8357 11.5964 27.7589 11.4108 27.7589 11.2173V8.29847ZM20.4619 8.29847C20.4619 8.10494 20.5388 7.91934 20.6756 7.78249C20.8125 7.64565 20.9981 7.56877 21.1916 7.56877C21.3851 7.56877 21.5707 7.64565 21.7076 7.78249C21.8444 7.91934 21.9213 8.10494 21.9213 8.29847V11.2173C21.9213 11.4108 21.8444 11.5964 21.7076 11.7332C21.5707 11.8701 21.3851 11.947 21.1916 11.947C20.9981 11.947 20.8125 11.8701 20.6756 11.7332C20.5388 11.5964 20.4619 11.4108 20.4619 11.2173V8.29847ZM13.1649 8.29847C13.1649 8.10494 13.2418 7.91934 13.3787 7.78249C13.5155 7.64565 13.7011 7.56877 13.8946 7.56877C14.0882 7.56877 14.2738 7.64565 14.4106 7.78249C14.5474 7.91934 14.6243 8.10494 14.6243 8.29847V11.2173C14.6243 11.4108 14.5474 11.5964 14.4106 11.7332C14.2738 11.8701 14.0882 11.947 13.8946 11.947C13.7011 11.947 13.5155 11.8701 13.3787 11.7332C13.2418 11.5964 13.1649 11.4108 13.1649 11.2173V8.29847ZM48.9201 46.2427C48.9201 46.8233 48.6894 47.3801 48.2789 47.7906C47.8684 48.2012 47.3116 48.4318 46.731 48.4318H10.2461C9.66556 48.4318 9.10875 48.2012 8.69822 47.7906C8.28769 47.3801 8.05705 46.8233 8.05705 46.2427V16.3251H48.9201V46.2427ZM48.9201 14.8657H8.05705V12.6766C8.05705 12.0961 8.28769 11.5393 8.69822 11.1287C9.10875 10.7182 9.66556 10.4876 10.2461 10.4876H11.7055V11.2173C11.7055 11.7978 11.9362 12.3546 12.3467 12.7652C12.7572 13.1757 13.314 13.4063 13.8946 13.4063C14.4752 13.4063 15.032 13.1757 15.4425 12.7652C15.8531 12.3546 16.0837 11.7978 16.0837 11.2173V10.4876H19.0025V11.2173C19.0025 11.7978 19.2331 12.3546 19.6437 12.7652C20.0542 13.1757 20.611 13.4063 21.1916 13.4063C21.7722 13.4063 22.329 13.1757 22.7395 12.7652C23.1501 12.3546 23.3807 11.7978 23.3807 11.2173V10.4876H26.2995V11.2173C26.2995 11.7978 26.5301 12.3546 26.9406 12.7652C27.3512 13.1757 27.908 13.4063 28.4886 13.4063C29.0691 13.4063 29.6259 13.1757 30.0365 12.7652C30.447 12.3546 30.6777 11.7978 30.6777 11.2173V10.4876H33.5964V11.2173C33.5964 11.7978 33.8271 12.3546 34.2376 12.7652C34.6481 13.1757 35.205 13.4063 35.7855 13.4063C36.3661 13.4063 36.9229 13.1757 37.3335 12.7652C37.744 12.3546 37.9746 11.7978 37.9746 11.2173V10.4876H40.8934V11.2173C40.8934 11.7978 41.124 12.3546 41.5346 12.7652C41.9451 13.1757 42.5019 13.4063 43.0825 13.4063C43.6631 13.4063 44.2199 13.1757 44.6304 12.7652C45.041 12.3546 45.2716 11.7978 45.2716 11.2173V10.4876H46.731C47.3116 10.4876 47.8684 10.7182 48.2789 11.1287C48.6894 11.5393 48.9201 12.0961 48.9201 12.6766V14.8657Z" fill="#F3776D"/>
<path d="M19.6888 41.5943C22.2165 41.5914 24.6399 40.5874 26.4273 38.8025C28.2148 37.0176 29.2202 34.5976 29.2231 32.0733C29.2212 30.4932 29.6847 28.9473 30.5559 27.6282C31.4271 26.3091 32.6675 25.2749 34.1228 24.6544C35.5781 24.0339 37.1841 23.8546 38.7407 24.1386C40.2973 24.4226 41.7359 25.1575 42.8775 26.2518C44.019 27.3461 44.8131 28.7515 45.1609 30.293C45.5087 31.8346 45.3948 33.4442 44.8334 34.9216C44.272 36.399 43.288 37.6789 42.0037 38.6021C40.7194 39.5252 39.1916 40.0508 37.6104 40.1134L38.5426 39.1826C38.6762 39.0444 38.7501 38.8594 38.7484 38.6674C38.7467 38.4754 38.6696 38.2917 38.5336 38.1559C38.3976 38.0201 38.2137 37.9431 38.0214 37.9414C37.8291 37.9398 37.6438 38.0136 37.5055 38.147L35.3053 40.3441C35.1678 40.4815 35.0906 40.6677 35.0906 40.8619C35.0906 41.0561 35.1678 41.2424 35.3053 41.3797L37.5055 43.5769C37.6438 43.7103 37.8291 43.7841 38.0214 43.7824C38.2137 43.7807 38.3976 43.7037 38.5336 43.5679C38.6696 43.4321 38.7467 43.2485 38.7484 43.0564C38.7501 42.8644 38.6762 42.6794 38.5426 42.5413L37.5796 41.5796C39.4511 41.5219 41.2641 40.9149 42.7922 39.8345C44.3203 38.754 45.4958 37.2479 46.1718 35.5043C46.8479 33.7606 46.9946 31.8568 46.5936 30.0304C46.1926 28.204 45.2617 26.5361 43.9171 25.2349C42.5725 23.9337 40.8738 23.0569 39.0332 22.7139C37.1925 22.371 35.2915 22.5772 33.5675 23.3067C31.8436 24.0362 30.373 25.2567 29.3395 26.8159C28.306 28.375 27.7553 30.2036 27.7563 32.0733C27.7582 33.6535 27.2947 35.1994 26.4235 36.5185C25.5523 37.8376 24.3119 38.8718 22.8566 39.4923C21.4013 40.1127 19.7953 40.2921 18.2387 40.0081C16.6821 39.7241 15.2435 38.9892 14.1019 37.8949C12.9604 36.8006 12.1663 35.3952 11.8185 33.8537C11.4707 32.3121 11.5846 30.7025 12.146 29.2251C12.7074 27.7477 13.6914 26.4678 14.9757 25.5446C16.26 24.6215 17.7878 24.0959 19.369 24.0333L18.4368 24.9641C18.3668 25.0317 18.3109 25.1125 18.2725 25.2019C18.234 25.2912 18.2138 25.3873 18.213 25.4846C18.2121 25.5818 18.2307 25.6782 18.2675 25.7682C18.3044 25.8583 18.3589 25.94 18.4277 26.0088C18.4966 26.0776 18.5785 26.1319 18.6686 26.1688C18.7588 26.2056 18.8553 26.2241 18.9527 26.2233C19.0501 26.2224 19.1463 26.2022 19.2358 26.1638C19.3253 26.1255 19.4062 26.0697 19.4739 25.9997L21.6741 23.8026C21.8116 23.6652 21.8888 23.479 21.8888 23.2848C21.8888 23.0906 21.8116 22.9043 21.6741 22.767L19.4739 20.5698C19.3356 20.4364 19.1503 20.3626 18.958 20.3643C18.7657 20.366 18.5817 20.443 18.4458 20.5788C18.3098 20.7146 18.2327 20.8982 18.231 21.0903C18.2293 21.2823 18.3032 21.4673 18.4368 21.6054L19.3998 22.567C16.8988 22.643 14.528 23.6982 12.7995 25.5048C11.0709 27.3114 10.1233 29.7244 10.1613 32.2228C10.1992 34.7211 11.2197 37.1044 13.0023 38.8578C14.7849 40.6112 17.1866 41.5941 19.6888 41.5943Z" fill="#F3776D"/>
</svg>
