<svg width="56" height="56" viewBox="0 0 56 56" fill="none" xmlns="http://www.w3.org/2000/svg">
<path d="M10.7081 30.4257C10.4106 28.9545 10.2598 27.443 10.2598 25.9333C10.2598 16.113 16.6592 7.51955 25.8108 4.5766L23.9661 4.18504C23.493 4.08463 23.1908 3.61957 23.2912 3.14641C23.3916 2.67326 23.8565 2.37062 24.3298 2.47157L29.4423 3.55679C29.7484 3.62176 29.9965 3.84499 30.0933 4.14249C30.1901 4.43999 30.1209 4.76659 29.9117 4.99923L26.4176 8.88401C26.2446 9.07629 26.0059 9.17407 25.7661 9.17407C25.5574 9.17407 25.3481 9.09991 25.1806 8.94941C24.8209 8.62588 24.7916 8.07212 25.1151 7.71238L26.4726 6.20323C17.9691 8.87745 12.0115 16.8344 12.0115 25.9332C12.0115 27.3266 12.1506 28.7212 12.425 30.0785C12.5208 30.5526 12.2142 31.0147 11.7401 31.1105C11.6815 31.1224 11.6232 31.1281 11.5656 31.1281C11.1575 31.1281 10.792 30.8413 10.708 30.4256L10.7081 30.4257ZM38.2611 41.9764C38.3613 41.9764 38.4633 41.9591 38.5628 41.9226C41.8021 40.7339 44.5751 38.612 46.5819 35.7865C48.6339 32.8975 49.7186 29.4903 49.7186 25.9332C49.7186 22.8513 48.8954 19.9581 47.4576 17.4617C47.4508 17.4484 47.4447 17.4348 47.4371 17.4218C47.4255 17.4017 47.4128 17.3829 47.3998 17.3642C45.9218 14.8372 43.8115 12.7235 41.2872 11.2413C41.2621 11.2229 41.2358 11.2054 41.2082 11.1894C41.1833 11.175 41.1579 11.1621 41.1322 11.1504C38.6432 9.7239 35.7617 8.90752 32.693 8.90752C29.6242 8.90752 26.7287 9.7274 24.2354 11.1598C24.2163 11.1691 24.197 11.1781 24.1783 11.1891C24.1524 11.2041 24.1275 11.2203 24.1036 11.2373C21.5785 12.7184 19.467 14.8308 17.9876 17.3567C17.9728 17.3779 17.9584 17.3995 17.9453 17.4223C17.9367 17.437 17.9298 17.4522 17.9222 17.4673C16.486 19.9624 15.6639 22.8537 15.6639 25.9333C15.6639 27.5623 15.8948 29.1793 16.3501 30.7393C16.4857 31.2037 16.9719 31.4697 17.4363 31.3348C17.9008 31.1992 18.1673 30.7129 18.0317 30.2486C17.7046 29.128 17.509 27.9745 17.4428 26.809H19.7735C20.2572 26.809 20.6493 26.4169 20.6493 25.9332C20.6493 25.4494 20.2572 25.0573 19.7735 25.0573H17.4413C17.5631 22.9142 18.1287 20.8881 19.0477 19.0694L21.0657 20.2339C21.2037 20.3134 21.3542 20.3511 21.5027 20.3511C21.8054 20.3511 22.0999 20.1939 22.2621 19.9128C22.5038 19.4938 22.3601 18.9582 21.9412 18.7165L19.9263 17.5539C21.074 15.8118 22.5684 14.3176 24.3109 13.1699L25.4731 15.1819C25.6353 15.4628 25.9296 15.6199 26.2323 15.6199C26.3809 15.6199 26.5316 15.582 26.6696 15.5024C27.0885 15.2605 27.2319 14.7247 26.9899 14.3059L25.8264 12.2916C27.6458 11.3724 29.6728 10.8067 31.8169 10.685V13.014C31.8169 13.4978 32.209 13.8899 32.6927 13.8899C33.1765 13.8899 33.5686 13.4978 33.5686 13.014V10.685C35.7124 10.8068 37.739 11.3726 39.5581 12.2918L38.3928 14.3054C38.1505 14.724 38.2935 15.2599 38.7121 15.5021C38.8502 15.582 39.0012 15.62 39.15 15.62C39.4523 15.62 39.7465 15.4632 39.9089 15.1827L41.0734 13.1704C42.8153 14.3181 44.3091 15.8121 45.4566 17.5543L43.4439 18.7168C43.025 18.9588 42.8816 19.4945 43.1235 19.9133C43.2857 20.1941 43.58 20.3512 43.8827 20.3512C44.0313 20.3512 44.182 20.3134 44.32 20.2337L46.335 19.0698C47.2537 20.8885 47.8191 22.9144 47.9409 25.0574H45.6119C45.1281 25.0574 44.736 25.4495 44.736 25.9333C44.736 26.417 45.1281 26.8091 45.6119 26.8091H47.9385C47.8161 28.9264 47.2544 30.9587 46.3279 32.7958L44.3201 31.636C43.9012 31.394 43.3655 31.5375 43.1236 31.9564C42.8817 32.3752 43.0251 32.9111 43.444 33.1529L45.4513 34.3124C44.3139 36.0454 42.83 37.5477 41.0767 38.704L39.9091 36.6842C39.6669 36.2655 39.1313 36.1221 38.7125 36.3643C38.2937 36.6063 38.1504 37.142 38.3926 37.5608L39.561 39.5822C39.0447 39.8427 38.5105 40.0757 37.9593 40.278C37.5051 40.4446 37.272 40.9478 37.4387 41.402C37.5688 41.7566 37.9041 41.9763 38.2611 41.9763V41.9764ZM33.5686 17.153V22.4786C35.1117 22.8699 36.2567 24.2702 36.2567 25.9332C36.2567 26.5998 36.0726 27.2239 35.7534 27.7583L39.2525 31.2574C39.5945 31.5994 39.5945 32.154 39.2525 32.496C39.0814 32.6669 38.8573 32.7526 38.6331 32.7526C38.4089 32.7526 38.1848 32.6671 38.0137 32.496L34.5149 28.9972C33.9814 29.3162 33.3582 29.5003 32.6927 29.5003C30.726 29.5003 29.1258 27.9002 29.1258 25.9333C29.1258 24.27 30.2723 22.8696 31.8169 22.4784V17.1531C31.8169 16.6693 32.209 16.2772 32.6927 16.2772C33.1765 16.2772 33.5686 16.6693 33.5686 17.1531V17.153ZM32.6927 24.121C31.6918 24.121 30.8774 24.934 30.8774 25.9332C30.8774 26.9323 31.6917 27.7486 32.6927 27.7486C33.6937 27.7486 34.505 26.9343 34.505 25.9332C34.505 24.9321 33.692 24.121 32.6927 24.121ZM53.0988 45.9322C53.2051 46.3776 52.9503 46.8298 52.514 46.9695L36.8044 52.0014C36.1492 52.2111 35.5713 52.4024 35.0614 52.5711C33.1625 53.1995 32.0446 53.5479 30.9825 53.5479C29.6198 53.5479 28.3492 52.9744 25.6385 51.6826L23.7833 50.7997C21.4108 49.6708 18.4173 48.2463 14.2684 46.2687C14.017 46.1491 13.7872 46.0386 13.5746 45.9362C11.7556 45.0609 11.3234 44.853 9.04717 44.5968L8.28166 44.5108V47.2112C8.28166 47.695 7.88955 48.0871 7.40578 48.0871H1.75087C1.26711 48.0871 0.875 47.695 0.875 47.2112V31.7992C0.875 31.3154 1.26711 30.9233 1.75087 30.9233H7.406C7.88977 30.9233 8.28188 31.3154 8.28188 31.7992V33.6334C11.1056 32.9308 14.8739 32.1961 18.4448 32.4439C22.8165 32.7474 26.0171 34.4779 27.9628 37.5878L33.751 40.34C34.7467 40.683 35.4408 41.2692 35.8147 42.0829C36.098 42.6995 36.1476 43.3414 36.0906 43.9184L37.1119 43.6744L45.313 41.776C47.1715 41.279 48.9986 41.4836 50.4595 42.3525C51.7817 43.1391 52.7438 44.4439 53.0988 45.9323V45.9322ZM6.53013 32.675H2.62664V46.3354H6.53002L6.53013 32.675ZM51.1256 45.5748C50.7904 44.8681 50.2463 44.264 49.5639 43.858C48.4941 43.2215 47.1763 43.0878 45.7532 43.4716C45.7431 43.4742 45.733 43.4768 45.7228 43.4791L37.5129 45.3796L35.3676 45.892C34.6834 46.7595 33.6057 47.2569 32.5017 47.2569C31.9802 47.2569 31.453 47.146 30.9586 46.9109L22.0977 42.6974C21.6608 42.4898 21.4751 41.9672 21.6828 41.5304C21.8906 41.0934 22.4131 40.908 22.85 41.1155L31.7109 45.329C32.6215 45.7619 33.7405 45.3926 34.1709 44.5239C34.3968 43.8667 34.4186 43.2398 34.223 42.8144C34.0507 42.4395 33.6981 42.168 33.1451 41.9843C33.111 41.9729 33.0776 41.9594 33.0451 41.9441L26.9745 39.0576C26.8173 38.9828 26.686 38.8629 26.5972 38.7132C22.988 32.6245 14.5767 33.8311 8.28166 35.4403V42.748L9.24295 42.856C11.815 43.1454 12.4498 43.4509 14.3343 44.3577C14.5447 44.459 14.7722 44.5685 15.0217 44.6873C19.1706 46.6648 22.1638 48.0891 24.536 49.2179L26.3908 50.1006C28.6188 51.1623 29.7364 51.6949 30.6794 51.786C31.592 51.8747 32.5673 51.5513 34.511 50.9081C35.0247 50.738 35.607 50.5454 36.2702 50.3331L51.1255 45.5748H51.1256ZM53.5019 36.9526L51.7927 37.7004C53.9566 34.1823 55.1257 30.1006 55.1257 25.9332C55.1257 14.5442 46.606 4.96521 35.3083 3.65184C34.8275 3.59584 34.3931 3.94026 34.3372 4.42063C34.2813 4.90123 34.6255 5.33588 35.106 5.39177C45.5205 6.60245 53.3739 15.4334 53.3739 25.9332C53.3739 29.7871 52.2897 33.5615 50.2832 36.8114L50.513 34.7517C50.5666 34.2709 50.2204 33.8379 49.7397 33.7842C49.2579 33.7301 48.8258 34.0769 48.7721 34.5575L48.1923 39.7538C48.1576 40.0647 48.2914 40.3707 48.5434 40.5562C48.6964 40.6688 48.8789 40.7268 49.0629 40.7268C49.1818 40.7268 49.3013 40.7025 49.4139 40.6533L54.204 38.5573C54.6471 38.3635 54.8492 37.8471 54.6552 37.4039C54.4613 36.9609 53.9452 36.7589 53.5018 36.9526H53.5019Z" fill="#F3776D"/>
</svg>
