<svg width="56" height="56" viewBox="0 0 56 56" fill="none" xmlns="http://www.w3.org/2000/svg">
<path d="M46.2427 9.02767H44.7833V8.29798C44.7833 7.71739 44.5527 7.16059 44.1421 6.75006C43.7316 6.33952 43.1748 6.10889 42.5942 6.10889C42.0136 6.10889 41.4568 6.33952 41.0463 6.75006C40.6358 7.16059 40.4051 7.71739 40.4051 8.29798V9.02767H37.4863V8.29798C37.4863 7.71739 37.2557 7.16059 36.8452 6.75006C36.4346 6.33952 35.8778 6.10889 35.2973 6.10889C34.7167 6.10889 34.1599 6.33952 33.7493 6.75006C33.3388 7.16059 33.1082 7.71739 33.1082 8.29798V9.02767H30.1894V8.29798C30.1894 7.71739 29.9587 7.16059 29.5482 6.75006C29.1377 6.33952 28.5809 6.10889 28.0003 6.10889C27.4197 6.10889 26.8629 6.33952 26.4524 6.75006C26.0418 7.16059 25.8112 7.71739 25.8112 8.29798V9.02767H22.8924V8.29798C22.8924 7.71739 22.6618 7.16059 22.2512 6.75006C21.8407 6.33952 21.2839 6.10889 20.7033 6.10889C20.1227 6.10889 19.5659 6.33952 19.1554 6.75006C18.7449 7.16059 18.5142 7.71739 18.5142 8.29798V9.02767H15.5954V8.29798C15.5954 7.71739 15.3648 7.16059 14.9543 6.75006C14.5437 6.33952 13.9869 6.10889 13.4063 6.10889C12.8258 6.10889 12.269 6.33952 11.8584 6.75006C11.4479 7.16059 11.2173 7.71739 11.2173 8.29798V9.02767H9.75786C8.79058 9.02883 7.86324 9.4136 7.17927 10.0976C6.4953 10.7815 6.11053 11.7089 6.10938 12.6762L6.10938 46.2422C6.11053 47.2095 6.4953 48.1368 7.17927 48.8208C7.86324 49.5048 8.79058 49.8895 9.75786 49.8907H46.2427C47.21 49.8895 48.1373 49.5048 48.8213 48.8208C49.5053 48.1368 49.89 47.2095 49.8912 46.2422V12.6762C49.89 11.7089 49.5053 10.7815 48.8213 10.0976C48.1373 9.4136 47.21 9.02883 46.2427 9.02767ZM41.8645 8.29798C41.8645 8.10445 41.9414 7.91885 42.0782 7.782C42.2151 7.64516 42.4007 7.56828 42.5942 7.56828C42.7877 7.56828 42.9734 7.64516 43.1102 7.782C43.247 7.91885 43.3239 8.10445 43.3239 8.29798V11.2168C43.3239 11.4103 43.247 11.5959 43.1102 11.7327C42.9734 11.8696 42.7877 11.9465 42.5942 11.9465C42.4007 11.9465 42.2151 11.8696 42.0782 11.7327C41.9414 11.5959 41.8645 11.4103 41.8645 11.2168V8.29798ZM34.5676 8.29798C34.5676 8.10445 34.6444 7.91885 34.7813 7.782C34.9181 7.64516 35.1037 7.56828 35.2973 7.56828C35.4908 7.56828 35.6764 7.64516 35.8132 7.782C35.9501 7.91885 36.0269 8.10445 36.0269 8.29798V11.2168C36.0269 11.4103 35.9501 11.5959 35.8132 11.7327C35.6764 11.8696 35.4908 11.9465 35.2973 11.9465C35.1037 11.9465 34.9181 11.8696 34.7813 11.7327C34.6444 11.5959 34.5676 11.4103 34.5676 11.2168V8.29798ZM27.2706 8.29798C27.2706 8.10445 27.3475 7.91885 27.4843 7.782C27.6212 7.64516 27.8068 7.56828 28.0003 7.56828C28.1938 7.56828 28.3794 7.64516 28.5163 7.782C28.6531 7.91885 28.73 8.10445 28.73 8.29798V11.2168C28.73 11.4103 28.6531 11.5959 28.5163 11.7327C28.3794 11.8696 28.1938 11.9465 28.0003 11.9465C27.8068 11.9465 27.6212 11.8696 27.4843 11.7327C27.3475 11.5959 27.2706 11.4103 27.2706 11.2168V8.29798ZM19.9736 8.29798C19.9736 8.10445 20.0505 7.91885 20.1873 7.782C20.3242 7.64516 20.5098 7.56828 20.7033 7.56828C20.8968 7.56828 21.0824 7.64516 21.2193 7.782C21.3561 7.91885 21.433 8.10445 21.433 8.29798V11.2168C21.433 11.4103 21.3561 11.5959 21.2193 11.7327C21.0824 11.8696 20.8968 11.9465 20.7033 11.9465C20.5098 11.9465 20.3242 11.8696 20.1873 11.7327C20.0505 11.5959 19.9736 11.4103 19.9736 11.2168V8.29798ZM12.6766 8.29798C12.6766 8.10445 12.7535 7.91885 12.8904 7.782C13.0272 7.64516 13.2128 7.56828 13.4063 7.56828C13.5999 7.56828 13.7855 7.64516 13.9223 7.782C14.0592 7.91885 14.136 8.10445 14.136 8.29798V11.2168C14.136 11.4103 14.0592 11.5959 13.9223 11.7327C13.7855 11.8696 13.5999 11.9465 13.4063 11.9465C13.2128 11.9465 13.0272 11.8696 12.8904 11.7327C12.7535 11.5959 12.6766 11.4103 12.6766 11.2168V8.29798ZM48.4318 46.2422C48.4318 46.8228 48.2012 47.3796 47.7906 47.7901C47.3801 48.2007 46.8233 48.4313 46.2427 48.4313H9.75786C9.17728 48.4313 8.62047 48.2007 8.20994 47.7901C7.7994 47.3796 7.56877 46.8228 7.56877 46.2422V16.3246H48.4318V46.2422ZM48.4318 14.8652H7.56877V12.6762C7.56877 12.0956 7.7994 11.5388 8.20994 11.1282C8.62047 10.7177 9.17728 10.4871 9.75786 10.4871H11.2173V11.2168C11.2173 11.7973 11.4479 12.3542 11.8584 12.7647C12.269 13.1752 12.8258 13.4059 13.4063 13.4059C13.9869 13.4059 14.5437 13.1752 14.9543 12.7647C15.3648 12.3542 15.5954 11.7973 15.5954 11.2168V10.4871H18.5142V11.2168C18.5142 11.7973 18.7449 12.3542 19.1554 12.7647C19.5659 13.1752 20.1227 13.4059 20.7033 13.4059C21.2839 13.4059 21.8407 13.1752 22.2512 12.7647C22.6618 12.3542 22.8924 11.7973 22.8924 11.2168V10.4871H25.8112V11.2168C25.8112 11.7973 26.0418 12.3542 26.4524 12.7647C26.8629 13.1752 27.4197 13.4059 28.0003 13.4059C28.5809 13.4059 29.1377 13.1752 29.5482 12.7647C29.9587 12.3542 30.1894 11.7973 30.1894 11.2168V10.4871H33.1082V11.2168C33.1082 11.7973 33.3388 12.3542 33.7493 12.7647C34.1599 13.1752 34.7167 13.4059 35.2973 13.4059C35.8778 13.4059 36.4346 13.1752 36.8452 12.7647C37.2557 12.3542 37.4863 11.7973 37.4863 11.2168V10.4871H40.4051V11.2168C40.4051 11.7973 40.6358 12.3542 41.0463 12.7647C41.4568 13.1752 42.0136 13.4059 42.5942 13.4059C43.1748 13.4059 43.7316 13.1752 44.1421 12.7647C44.5527 12.3542 44.7833 11.7973 44.7833 11.2168V10.4871H46.2427C46.8233 10.4871 47.3801 10.7177 47.7906 11.1282C48.2012 11.5388 48.4318 12.0956 48.4318 12.6762V14.8652Z" fill="#F3776D"/>
<path d="M19.2005 41.5933C21.7283 41.5904 24.1517 40.5864 25.9391 38.8015C27.7265 37.0166 28.7319 34.5966 28.7348 32.0724C28.7329 30.4922 29.1964 28.9463 30.0676 27.6272C30.9388 26.3081 32.1792 25.2739 33.6346 24.6534C35.0899 24.033 36.6958 23.8536 38.2524 24.1376C39.809 24.4216 41.2477 25.1565 42.3892 26.2508C43.5308 27.3451 44.3248 28.7505 44.6726 30.292C45.0204 31.8336 44.9065 33.4432 44.3451 34.9206C43.7837 36.398 42.7997 37.6779 41.5154 38.6011C40.2311 39.5242 38.7033 40.0498 37.1221 40.1124L38.0543 39.1816C38.1879 39.0435 38.2618 38.8585 38.2601 38.6664C38.2585 38.4744 38.1813 38.2907 38.0453 38.1549C37.9094 38.0191 37.7254 37.9421 37.5331 37.9404C37.3408 37.9388 37.1556 38.0126 37.0172 38.146L34.817 40.3431C34.6795 40.4805 34.6023 40.6667 34.6023 40.8609C34.6023 41.0551 34.6795 41.2414 34.817 41.3787L37.0172 43.5759C37.1556 43.7093 37.3408 43.7831 37.5331 43.7814C37.7254 43.7798 37.9094 43.7027 38.0453 43.567C38.1813 43.4312 38.2585 43.2475 38.2601 43.0554C38.2618 42.8634 38.1879 42.6784 38.0543 42.5403L37.0913 41.5787C38.9628 41.521 40.7758 40.914 42.3039 39.8335C43.832 38.753 45.0075 37.2469 45.6836 35.5033C46.3596 33.7597 46.5063 31.8558 46.1053 30.0294C45.7043 28.203 44.7734 26.5351 43.4288 25.2339C42.0842 23.9327 40.3855 23.0559 38.5449 22.713C36.7043 22.3701 34.8033 22.5762 33.0793 23.3057C31.3553 24.0352 29.8847 25.2558 28.8512 26.8149C27.8177 28.374 27.267 30.2026 27.268 32.0724C27.2699 33.6526 26.8064 35.1984 25.9352 36.5175C25.064 37.8367 23.8236 38.8708 22.3683 39.4913C20.913 40.1118 19.3071 40.2912 17.7504 40.0071C16.1938 39.7231 14.7552 38.9882 13.6136 37.8939C12.4721 36.7996 11.678 35.3943 11.3302 33.8527C10.9824 32.3112 11.0963 30.7015 11.6577 29.2241C12.2191 27.7467 13.2032 26.4668 14.4875 25.5437C15.7718 24.6205 17.2996 24.0949 18.8807 24.0323L17.9486 24.9632C17.8785 25.0307 17.8226 25.1115 17.7842 25.2009C17.7458 25.2902 17.7255 25.3863 17.7247 25.4836C17.7238 25.5808 17.7424 25.6773 17.7793 25.7673C17.8161 25.8573 17.8706 25.9391 17.9395 26.0078C18.0083 26.0766 18.0902 26.131 18.1803 26.1678C18.2705 26.2046 18.3671 26.2231 18.4644 26.2223C18.5618 26.2215 18.6581 26.2012 18.7475 26.1629C18.837 26.1245 18.9179 26.0687 18.9856 25.9987L21.1858 23.8016C21.3233 23.6643 21.4006 23.478 21.4006 23.2838C21.4006 23.0896 21.3233 22.9034 21.1858 22.766L18.9856 20.5689C18.8473 20.4355 18.662 20.3616 18.4697 20.3633C18.2774 20.365 18.0935 20.442 17.9575 20.5778C17.8215 20.7136 17.7444 20.8973 17.7427 21.0893C17.741 21.2813 17.815 21.4663 17.9486 21.6045L18.9115 22.5661C16.4105 22.642 14.0397 23.6972 12.3112 25.5038C10.5827 27.3104 9.63503 29.7234 9.67297 32.2218C9.71091 34.7202 10.7314 37.1034 12.514 38.8568C14.2966 40.6102 16.6983 41.5932 19.2005 41.5933Z" fill="#F3776D"/>
</svg>
