<svg width="56" height="56" viewBox="0 0 56 56" fill="none" xmlns="http://www.w3.org/2000/svg">
<g clip-path="url(#clip0_1753_16657)">
<path d="M49.175 2.37354H6.825C3.0625 2.38447 0 5.43603 0 9.19853V37.636C0 41.3985 3.0625 44.461 6.825 44.461H18.8781L24.7734 52.0298C26.1625 53.8126 28.7438 54.1407 30.5266 52.7407C30.7891 52.5329 31.0297 52.2923 31.2375 52.0298L37.1328 44.461H49.1859C52.9484 44.461 56.0109 41.3985 56.0109 37.636V9.19853C56 5.43603 52.9375 2.38447 49.175 2.37354ZM54.3703 37.647C54.3703 40.5235 52.0406 42.8423 49.175 42.8532H36.3344L29.9578 51.0563C29.1156 52.1392 27.5734 52.3251 26.4906 51.4938C26.3266 51.3626 26.1844 51.2204 26.0531 51.0563L19.6766 42.8532H6.825C3.94844 42.8532 1.62969 40.5235 1.62969 37.6579V9.19853C1.62969 6.32197 3.95938 4.00322 6.825 4.00322H49.175C52.0516 4.00322 54.3703 6.33291 54.3703 9.19853V37.647Z" fill="#F3776D"/>
<path d="M36.5305 20.2017V17.7954C36.5305 13.0813 32.7133 9.26416 27.9992 9.26416C23.2852 9.26416 19.468 13.0813 19.468 17.7954V20.2017C17.4773 20.661 16.0664 22.4329 16.0664 24.4782V32.2438C16.0664 34.661 18.0352 36.6298 20.4523 36.6298H35.5352C37.9523 36.6298 39.9211 34.661 39.9211 32.2438V24.4782C39.9211 22.4329 38.5211 20.672 36.5305 20.2017ZM27.9992 10.8938C31.8055 10.8938 34.9008 13.9782 34.9008 17.7954V20.0923H31.4008V17.7954C31.4008 15.9142 29.8805 14.3938 27.9992 14.3938C26.118 14.3938 24.5977 15.9142 24.5977 17.7954V20.0923H21.0977V17.7954C21.1086 13.9892 24.193 10.9048 27.9992 10.8938ZM29.7711 20.0813H26.2273V17.7954C26.2273 16.811 27.0258 16.0235 27.9992 16.0235C28.9836 16.0235 29.7711 16.822 29.7711 17.7954V20.0813ZM38.3023 32.2438C38.3023 33.7642 37.0664 35.011 35.5461 35.011H20.4633C18.943 35.011 17.707 33.7751 17.707 32.2548V24.4892C17.707 22.9688 18.943 21.7329 20.4633 21.7329H20.4742H35.557C37.0773 21.7329 38.3133 22.9688 38.3133 24.4892V24.5001L38.3023 32.2438Z" fill="#F3776D"/>
<path d="M28.0016 23.647C26.0766 23.647 24.5234 25.2001 24.5234 27.1251C24.5234 27.9235 24.7969 28.7001 25.3 29.3126V30.3735C25.3 31.872 26.5141 33.086 28.0125 33.086C29.5109 33.086 30.725 31.872 30.725 30.3735V29.3126C31.9281 27.8142 31.6984 25.6267 30.2109 24.4235C29.5766 23.9204 28.8 23.647 28.0016 23.647ZM29.0844 28.6235V30.3626C29.0844 30.9642 28.6031 31.4454 28.0016 31.4454C27.4 31.4454 26.9188 30.9642 26.9188 30.3626V28.6235C26.0875 28.022 25.8906 26.8626 26.4922 26.0313C27.0938 25.2001 28.2531 25.0032 29.0844 25.6048C29.9156 26.2063 30.1125 27.3657 29.5109 28.197C29.3906 28.361 29.2484 28.5032 29.0844 28.6235Z" fill="#F3776D"/>
</g>
<defs>
<clipPath id="clip0_1753_16657">
<rect width="56" height="56" fill="white"/>
</clipPath>
</defs>
</svg>
