<svg width="56" height="56" viewBox="0 0 56 56" fill="none" xmlns="http://www.w3.org/2000/svg">
<path d="M43.75 19.2501H43.6494C43.2127 15.4054 41.376 11.8561 38.4897 9.27901C35.6033 6.70196 31.8694 5.27759 28 5.27759C24.1306 5.27759 20.3967 6.70196 17.5103 9.27901C14.624 11.8561 12.7873 15.4054 12.3506 19.2501H12.25C10.8576 19.2501 9.52226 19.8032 8.53769 20.7878C7.55312 21.7723 7 23.1077 7 24.5001V31.5001C7 32.8925 7.55312 34.2278 8.53769 35.2124C9.52226 36.1969 10.8576 36.7501 12.25 36.7501H13.125C13.3571 36.7501 13.5796 36.6579 13.7437 36.4938C13.9078 36.3297 14 36.1071 14 35.8751V21.0001C14 17.287 15.475 13.7261 18.1005 11.1006C20.726 8.47507 24.287 7.00007 28 7.00007C31.713 7.00007 35.274 8.47507 37.8995 11.1006C40.525 13.7261 42 17.287 42 21.0001V35.8751C42 39.1301 38.7275 43.3563 33.1931 45.2113C33.046 44.3156 32.5857 43.5013 31.8943 42.9132C31.2029 42.3251 30.3252 42.0015 29.4175 42.0001H26.5825C25.5664 42.0012 24.5923 42.4054 23.8738 43.1239C23.1553 43.8423 22.7512 44.8165 22.75 45.8326V46.9176C22.7512 47.9337 23.1553 48.9078 23.8738 49.6263C24.5923 50.3448 25.5664 50.7489 26.5825 50.7501H29.4175C30.4157 50.7493 31.3743 50.3596 32.0898 49.6637C32.8054 48.9677 33.2215 48.0203 33.25 47.0226C39.5719 45.1063 43.1944 40.5432 43.6888 36.7501H43.75C45.1424 36.7501 46.4777 36.1969 47.4623 35.2124C48.4469 34.2278 49 32.8925 49 31.5001V24.5001C49 23.1077 48.4469 21.7723 47.4623 20.7878C46.4777 19.8032 45.1424 19.2501 43.75 19.2501ZM8.75 31.5001V24.5001C8.75 23.5718 9.11875 22.6816 9.77513 22.0252C10.4315 21.3688 11.3217 21.0001 12.25 21.0001V35.0001C11.3217 35.0001 10.4315 34.6313 9.77513 33.9749C9.11875 33.3186 8.75 32.4283 8.75 31.5001ZM31.5 46.9176C31.4988 47.4695 31.2791 47.9986 30.8888 48.3888C30.4985 48.7791 29.9695 48.9989 29.4175 49.0001H26.5825C26.0305 48.9989 25.5015 48.7791 25.1112 48.3888C24.7209 47.9986 24.5012 47.4695 24.5 46.9176V45.8326C24.5012 45.2806 24.7209 44.7516 25.1112 44.3613C25.5015 43.971 26.0305 43.7512 26.5825 43.7501H29.4175C29.9695 43.7512 30.4985 43.971 30.8888 44.3613C31.2791 44.7516 31.4988 45.2806 31.5 45.8326V46.9176ZM47.25 31.5001C47.25 32.4283 46.8812 33.3186 46.2249 33.9749C45.5685 34.6313 44.6783 35.0001 43.75 35.0001V21.0001C44.6783 21.0001 45.5685 21.3688 46.2249 22.0252C46.8812 22.6816 47.25 23.5718 47.25 24.5001V31.5001Z" fill="#F3776D"/>
<path d="M16.625 19.6875C16.3929 19.6875 16.1704 19.7797 16.0063 19.9438C15.8422 20.1079 15.75 20.3304 15.75 20.5625V35.875C15.75 36.1071 15.8422 36.3296 16.0063 36.4937C16.1704 36.6578 16.3929 36.75 16.625 36.75C16.8571 36.75 17.0796 36.6578 17.2437 36.4937C17.4078 36.3296 17.5 36.1071 17.5 35.875V20.5625C17.5 20.3304 17.4078 20.1079 17.2437 19.9438C17.0796 19.7797 16.8571 19.6875 16.625 19.6875Z" fill="#F3776D"/>
<path d="M40.25 35.875V20.5625C40.25 20.3304 40.1578 20.1079 39.9937 19.9438C39.8296 19.7797 39.6071 19.6875 39.375 19.6875C39.1429 19.6875 38.9204 19.7797 38.7563 19.9438C38.5922 20.1079 38.5 20.3304 38.5 20.5625V35.875C38.5 36.1071 38.5922 36.3296 38.7563 36.4937C38.9204 36.6578 39.1429 36.75 39.375 36.75C39.6071 36.75 39.8296 36.6578 39.9937 36.4937C40.1578 36.3296 40.25 36.1071 40.25 35.875Z" fill="#F3776D"/>
</svg>
