<svg width="56" height="53" viewBox="0 0 56 53" fill="none" xmlns="http://www.w3.org/2000/svg">
<path d="M22.3124 22.4583C22.3141 23.202 22.4832 23.9371 22.8088 24.6159C23.1344 25.2948 23.6092 25.9021 24.2024 26.3987C22.7495 26.7838 21.4748 27.6082 20.5785 28.7427C19.6821 29.8772 19.2148 31.2574 19.2499 32.6666V33.075C19.2499 33.833 19.5725 34.5601 20.1469 35.0961C20.7212 35.6322 21.5002 35.9333 22.3124 35.9333H33.6874C34.4996 35.9333 35.2786 35.6322 35.8529 35.0961C36.4272 34.5601 36.7499 33.833 36.7499 33.075V32.6666C36.785 31.2574 36.3177 29.8772 35.4213 28.7427C34.5249 27.6082 33.2502 26.7838 31.7974 26.3987C32.5038 25.8074 33.0404 25.0605 33.3584 24.2261C33.6765 23.3917 33.7657 22.4963 33.6182 21.6214C33.4706 20.7465 33.0908 19.9201 32.5135 19.2172C31.9362 18.5144 31.1796 17.9575 30.3127 17.5974C29.4458 17.2373 28.4961 17.0853 27.5502 17.1553C26.6043 17.2253 25.6922 17.5151 24.8969 17.9983C24.1017 18.4815 23.4486 19.1427 22.9972 19.9217C22.5458 20.7006 22.3104 21.5727 22.3124 22.4583ZM29.7499 27.7666C30.4436 27.7521 31.1332 27.869 31.7772 28.1101C32.4212 28.3512 33.0062 28.7116 33.4968 29.1695C33.9874 29.6274 34.3736 30.1734 34.6319 30.7745C34.8903 31.3755 35.0154 32.0192 34.9999 32.6666V33.075C34.9999 33.3999 34.8616 33.7114 34.6155 33.9412C34.3693 34.1709 34.0355 34.3 33.6874 34.3H22.3124C21.9643 34.3 21.6305 34.1709 21.3843 33.9412C21.1382 33.7114 20.9999 33.3999 20.9999 33.075V32.6666C20.9844 32.0192 21.1095 31.3755 21.3679 30.7745C21.6262 30.1734 22.0123 29.6274 22.503 29.1695C22.9936 28.7116 23.5786 28.3512 24.2226 28.1101C24.8665 27.869 25.5562 27.7521 26.2499 27.7666H29.7499ZM27.9999 18.7833C28.7787 18.7833 29.5399 18.9988 30.1874 19.4027C30.835 19.8065 31.3396 20.3804 31.6377 21.0519C31.9357 21.7235 32.0137 22.4624 31.8617 23.1753C31.7098 23.8881 31.3348 24.543 30.7841 25.0569C30.2335 25.5709 29.5319 25.9209 28.7681 26.0627C28.0043 26.2045 27.2126 26.1317 26.4931 25.8536C25.7736 25.5754 25.1586 25.1044 24.726 24.5C24.2933 23.8957 24.0624 23.1851 24.0624 22.4583C24.0624 21.4836 24.4772 20.5489 25.2157 19.8597C25.9541 19.1705 26.9556 18.7833 27.9999 18.7833Z" fill="#F3776D"/>
<path d="M45.5 15.3534C45.4903 15.3188 45.4786 15.2847 45.465 15.2513V15.2023C45.465 15.1655 45.4256 15.1329 45.4037 15.0961C45.4046 15.0852 45.4046 15.0743 45.4037 15.0634C45.3724 15.0176 45.3358 14.9751 45.2944 14.9369L34.7944 5.13687C34.7534 5.09824 34.7079 5.064 34.6587 5.03478L34.5625 5.01845L34.4487 4.96128H34.3962L34.3 4.90003C34.2418 4.894 34.1832 4.894 34.125 4.90003H11.375C11.1429 4.90003 10.9204 4.98608 10.7563 5.13923C10.5922 5.29238 10.5 5.50011 10.5 5.7167V46.55C10.5 46.7666 10.5922 46.9743 10.7563 47.1275C10.9204 47.2807 11.1429 47.3667 11.375 47.3667H44.625C44.8571 47.3667 45.0796 47.2807 45.2437 47.1275C45.4078 46.9743 45.5 46.7666 45.5 46.55V15.5167C45.5065 15.4624 45.5065 15.4076 45.5 15.3534ZM35 7.68895L42.5119 14.7H35V7.68895ZM12.25 45.7334V6.53337H33.25V15.5167C33.25 15.7333 33.3422 15.941 33.5063 16.0942C33.6704 16.2473 33.8929 16.3334 34.125 16.3334H43.75V45.7334H12.25Z" fill="#F3776D"/>
<path d="M18.375 14.7H25.375C25.6071 14.7 25.8296 14.6139 25.9937 14.4608C26.1578 14.3076 26.25 14.0999 26.25 13.8833C26.25 13.6667 26.1578 13.459 25.9937 13.3058C25.8296 13.1527 25.6071 13.0667 25.375 13.0667H18.375C18.1429 13.0667 17.9204 13.1527 17.7563 13.3058C17.5922 13.459 17.5 13.6667 17.5 13.8833C17.5 14.0999 17.5922 14.3076 17.7563 14.4608C17.9204 14.6139 18.1429 14.7 18.375 14.7Z" fill="#F3776D"/>
<path d="M23.625 39.2H18.375C18.1429 39.2 17.9204 39.286 17.7563 39.4391C17.5922 39.5923 17.5 39.8 17.5 40.0166C17.5 40.2332 17.5922 40.4409 17.7563 40.5941C17.9204 40.7472 18.1429 40.8333 18.375 40.8333H23.625C23.8571 40.8333 24.0796 40.7472 24.2437 40.5941C24.4078 40.4409 24.5 40.2332 24.5 40.0166C24.5 39.8 24.4078 39.5923 24.2437 39.4391C24.0796 39.286 23.8571 39.2 23.625 39.2Z" fill="#F3776D"/>
<path d="M37.625 39.2H27.125C26.8929 39.2 26.6704 39.286 26.5063 39.4391C26.3422 39.5923 26.25 39.8 26.25 40.0166C26.25 40.2332 26.3422 40.4409 26.5063 40.5941C26.6704 40.7472 26.8929 40.8333 27.125 40.8333H37.625C37.8571 40.8333 38.0796 40.7472 38.2437 40.5941C38.4078 40.4409 38.5 40.2332 38.5 40.0166C38.5 39.8 38.4078 39.5923 38.2437 39.4391C38.0796 39.286 37.8571 39.2 37.625 39.2Z" fill="#F3776D"/>
</svg>
