<svg width="56" height="56" viewBox="0 0 56 56" fill="none" xmlns="http://www.w3.org/2000/svg">
<path d="M45.5 28C45.5 25.2832 44.8675 22.6037 43.6525 20.1738C42.4375 17.7438 40.6734 15.6301 38.5 14V4.375C38.5 4.14294 38.4078 3.92038 38.2437 3.75628C38.0796 3.59219 37.8571 3.5 37.625 3.5H18.375C18.1429 3.5 17.9204 3.59219 17.7563 3.75628C17.5922 3.92038 17.5 4.14294 17.5 4.375V14C15.3266 15.6301 13.5625 17.7438 12.3475 20.1738C11.1325 22.6037 10.5 25.2832 10.5 28C10.5 30.7168 11.1325 33.3963 12.3475 35.8262C13.5625 38.2562 15.3266 40.3699 17.5 42V51.625C17.5 51.8571 17.5922 52.0796 17.7563 52.2437C17.9204 52.4078 18.1429 52.5 18.375 52.5H37.625C37.8571 52.5 38.0796 52.4078 38.2437 52.2437C38.4078 52.0796 38.5 51.8571 38.5 51.625V42C40.6734 40.3699 42.4375 38.2562 43.6525 35.8262C44.8675 33.3963 45.5 30.7168 45.5 28ZM19.25 5.25H36.75V12.8537C34.0917 11.3118 31.0731 10.4997 28 10.4997C24.9269 10.4997 21.9083 11.3118 19.25 12.8537V5.25ZM36.75 50.75H19.25V43.1463C21.9083 44.6882 24.9269 45.5003 28 45.5003C31.0731 45.5003 34.0917 44.6882 36.75 43.1463V50.75ZM28 43.75C24.8849 43.75 21.8398 42.8263 19.2498 41.0956C16.6597 39.365 14.641 36.9052 13.4489 34.0273C12.2568 31.1493 11.9449 27.9825 12.5526 24.9273C13.1603 21.8721 14.6604 19.0657 16.8631 16.8631C19.0657 14.6604 21.8721 13.1603 24.9273 12.5526C27.9825 11.9449 31.1493 12.2568 34.0273 13.4489C36.9052 14.641 39.365 16.6597 41.0956 19.2498C42.8263 21.8398 43.75 24.8849 43.75 28C43.75 32.1772 42.0906 36.1832 39.1369 39.1369C36.1832 42.0906 32.1772 43.75 28 43.75Z" fill="#F3776D"/>
<path d="M34.6325 31.6619L28.875 27.5625V18.375C28.875 18.1429 28.7828 17.9204 28.6187 17.7563C28.4546 17.5922 28.2321 17.5 28 17.5C27.7679 17.5 27.5454 17.5922 27.3813 17.7563C27.2172 17.9204 27.125 18.1429 27.125 18.375V28C27.1249 28.1396 27.1583 28.2771 27.2222 28.4012C27.2861 28.5252 27.3788 28.6322 27.4925 28.7131L33.6175 33.0881C33.7111 33.1548 33.817 33.2023 33.929 33.2281C34.0411 33.2538 34.1571 33.2572 34.2704 33.2381C34.3837 33.219 34.4922 33.1778 34.5896 33.1168C34.687 33.0558 34.7715 32.9762 34.8381 32.8825C34.9048 32.7889 34.9523 32.683 34.9781 32.571C35.0038 32.4589 35.0072 32.3429 34.9881 32.2296C34.969 32.1163 34.9278 32.0078 34.8668 31.9104C34.8058 31.813 34.7262 31.7285 34.6325 31.6619Z" fill="#F3776D"/>
</svg>
