<svg width="48" height="48" viewBox="0 0 48 48" fill="none" xmlns="http://www.w3.org/2000/svg">
<path d="M44.6399 20.1599C44.6393 19.5966 44.4402 19.0514 44.0777 18.6203C43.7151 18.1891 43.2123 17.8994 42.6574 17.8021C42.3073 13.6036 40.3923 9.68992 37.2922 6.83708C34.192 3.98423 30.133 2.4005 25.9199 2.3999H22.0799C17.8668 2.4005 13.8078 3.98422 10.7076 6.83707C7.60744 9.68991 5.69246 13.6036 5.34237 17.8021C4.79242 17.8985 4.29341 18.184 3.9315 18.6092C3.56958 19.0344 3.36748 19.5726 3.36007 20.1309C3.35267 20.6892 3.54043 21.2325 3.89094 21.6672C4.24145 22.1018 4.73271 22.4004 5.27991 22.5114V27.3599C4.77101 27.3609 4.28325 27.5636 3.9234 27.9234C3.56356 28.2832 3.36094 28.771 3.35991 29.2799V41.7599C3.36095 42.2688 3.56357 42.7565 3.92341 43.1164C4.28326 43.4762 4.77101 43.6789 5.27991 43.6799H7.19991V44.1599C7.20054 44.5416 7.35246 44.9075 7.62237 45.1774C7.89229 45.4473 8.25819 45.5993 8.63991 45.5999H11.5199C11.9016 45.5993 12.2675 45.4473 12.5374 45.1774C12.8074 44.9075 12.9593 44.5416 12.9599 44.1599V26.8799C12.9593 26.4982 12.8074 26.1323 12.5374 25.8624C12.2675 25.5925 11.9016 25.4405 11.5199 25.4399H8.63991C8.25819 25.4405 7.89229 25.5925 7.62237 25.8624C7.35246 26.1323 7.20054 26.4982 7.19991 26.8799V27.3599H6.23991V22.5114C6.77634 22.4025 7.25933 22.1133 7.60859 21.6918C7.95784 21.2703 8.15232 20.742 8.15968 20.1947C8.16704 19.6474 7.98685 19.114 7.64906 18.6833C7.31127 18.2526 6.83623 17.9505 6.30293 17.8272C6.52634 15.2024 7.40506 12.6756 8.85852 10.4786C8.86371 10.482 8.86643 10.4875 8.87179 10.4908L9.75276 11.0228C10.1282 11.2498 10.5585 11.3699 10.9972 11.3699C11.3133 11.3706 11.6262 11.3079 11.9177 11.1856C12.2091 11.0633 12.473 10.8839 12.6939 10.6578C14.1158 9.2376 15.8067 8.11534 17.6677 7.35673C19.5287 6.59813 21.5223 6.21845 23.5319 6.2399H24.468C26.4809 6.21831 28.4779 6.59931 30.3415 7.36049C32.2051 8.12168 33.8977 9.24769 35.32 10.6724C35.5417 10.9003 35.807 11.0813 36.1001 11.2047C36.3931 11.3282 36.708 11.3916 37.0259 11.3911C37.4879 11.3911 37.9399 11.2577 38.328 11.0071L39.1401 10.4833L39.1426 10.4807C40.5953 12.6773 41.4735 15.2032 41.6969 17.8272C41.1636 17.9505 40.6885 18.2526 40.3507 18.6833C40.013 19.114 39.8328 19.6474 39.8401 20.1947C39.8475 20.742 40.042 21.2703 40.3912 21.6918C40.7405 22.1133 41.2235 22.4025 41.7599 22.5114V27.3599H40.7999V26.8799C40.7992 26.4982 40.6473 26.1323 40.3774 25.8624C40.1075 25.5925 39.7416 25.4405 39.3599 25.4399H36.4799C36.0982 25.4405 35.7323 25.5925 35.4624 25.8624C35.1925 26.1323 35.0405 26.4982 35.0399 26.8799V44.1599C35.0405 44.5416 35.1925 44.9075 35.4624 45.1774C35.7323 45.4473 36.0982 45.5993 36.4799 45.5999H39.3599C39.7416 45.5993 40.1075 45.4473 40.3774 45.1774C40.6473 44.9075 40.7992 44.5416 40.7999 44.1599V43.6799H42.7199C43.2288 43.6789 43.7165 43.4762 44.0764 43.1164C44.4362 42.7565 44.6388 42.2688 44.6399 41.7599V29.2799C44.6388 28.771 44.4362 28.2832 44.0764 27.9234C43.7166 27.5636 43.2288 27.3609 42.7199 27.3599L42.7199 22.5114C43.2618 22.4007 43.7489 22.1062 44.0988 21.6777C44.4486 21.2492 44.6398 20.7131 44.6399 20.1599ZM8.30129 26.5413C8.34559 26.4965 8.39832 26.461 8.45644 26.4367C8.51457 26.4124 8.57692 26.3999 8.63991 26.3999H11.5199C11.647 26.4006 11.7687 26.4514 11.8585 26.5413C11.9484 26.6311 11.9992 26.7528 11.9999 26.8799V44.1599C11.9992 44.287 11.9484 44.4086 11.8585 44.4985C11.7687 44.5884 11.647 44.6392 11.5199 44.6399H8.63991C8.51283 44.6392 8.39116 44.5884 8.3013 44.4985C8.21143 44.4086 8.16063 44.287 8.15991 44.1599V26.8799C8.15993 26.8169 8.17244 26.7546 8.19671 26.6964C8.22098 26.6383 8.25652 26.5856 8.30129 26.5413ZM7.19991 42.7199H5.27991C5.02565 42.7188 4.78212 42.6173 4.60233 42.4375C4.42254 42.2577 4.32103 42.0142 4.31991 41.7599V29.2799C4.32103 29.0256 4.42254 28.7821 4.60233 28.6023C4.78212 28.4225 5.02565 28.321 5.27991 28.3199H7.19991V42.7199ZM43.6799 29.2799V41.7599C43.6788 42.0142 43.5773 42.2577 43.3975 42.4375C43.2177 42.6173 42.9742 42.7188 42.7199 42.7199H40.7999V28.3199H42.7199C42.9742 28.321 43.2177 28.4225 43.3975 28.6023C43.5773 28.7821 43.6788 29.0256 43.6799 29.2799ZM39.6985 44.4985C39.6542 44.5433 39.6015 44.5788 39.5434 44.6031C39.4852 44.6274 39.4229 44.6399 39.3599 44.6399H36.4799C36.3528 44.6392 36.2312 44.5884 36.1413 44.4985C36.0514 44.4086 36.0006 44.287 35.9999 44.1599V26.8799C36.0006 26.7528 36.0514 26.6312 36.1413 26.5413C36.2312 26.4514 36.3528 26.4006 36.4799 26.3999H39.3599C39.487 26.4006 39.6086 26.4514 39.6985 26.5413C39.7884 26.6312 39.8392 26.7528 39.8399 26.8799V44.1599C39.8399 44.2229 39.8274 44.2852 39.8031 44.3434C39.7788 44.4015 39.7433 44.4542 39.6985 44.4985ZM43.6799 20.1599C43.6799 20.4447 43.5955 20.7231 43.4372 20.9599C43.279 21.1967 43.0541 21.3813 42.791 21.4903C42.5278 21.5993 42.2383 21.6278 41.959 21.5722C41.6796 21.5167 41.4231 21.3795 41.2217 21.1781C41.0203 20.9767 40.8831 20.7202 40.8276 20.4408C40.772 20.1615 40.8005 19.872 40.9095 19.6088C41.0185 19.3457 41.2031 19.1208 41.4399 18.9626C41.6767 18.8044 41.9551 18.7199 42.2399 18.7199C42.6216 18.7205 42.9876 18.8724 43.2575 19.1423C43.5274 19.4122 43.6793 19.7782 43.6799 20.1599ZM4.31991 20.1599C4.31991 19.8751 4.40436 19.5967 4.56259 19.3599C4.72082 19.1231 4.94572 18.9385 5.20884 18.8295C5.47197 18.7205 5.7615 18.692 6.04084 18.7476C6.32017 18.8031 6.57675 18.9403 6.77814 19.1417C6.97953 19.3431 7.11667 19.5996 7.17224 19.879C7.2278 20.1583 7.19928 20.4478 7.09029 20.711C6.9813 20.9741 6.79673 21.199 6.55993 21.3572C6.32312 21.5154 6.04471 21.5999 5.75991 21.5999C5.37817 21.5993 5.01224 21.4474 4.74232 21.1775C4.47239 20.9076 4.32049 20.5416 4.31991 20.1599ZM37.8076 10.2003C37.5747 10.351 37.3033 10.4311 37.0259 10.4311C36.8363 10.4316 36.6484 10.394 36.4735 10.3204C36.2987 10.2469 36.1404 10.139 36.0081 10.003C34.4965 8.48631 32.6968 7.28714 30.715 6.47602C28.7332 5.66491 26.6092 5.25823 24.468 5.2799H23.5319C21.3942 5.25838 19.2738 5.66366 17.2948 6.47202C15.3158 7.28038 13.518 8.47556 12.0067 9.98753C11.8753 10.1219 11.7182 10.2285 11.5448 10.3011C11.3714 10.3736 11.1852 10.4106 10.9972 10.4099C10.7335 10.4099 10.4748 10.3377 10.2491 10.2011L9.4093 9.69391C9.85892 9.09524 10.3501 8.52896 10.8793 7.9993C12.3485 6.52612 14.0944 5.35786 16.0165 4.56167C17.9387 3.76548 19.9993 3.35707 22.0799 3.3599H25.9199C28.0005 3.35707 30.0611 3.76549 31.9832 4.56168C33.9054 5.35787 35.6513 6.52613 37.1205 7.9993C37.65 8.52926 38.1414 9.09586 38.5913 9.69491L37.8076 10.2003Z" fill="black"/>
<path d="M27.3599 25.9199C27.3599 25.7926 27.3093 25.6705 27.2193 25.5805C27.1293 25.4905 27.0072 25.4399 26.8799 25.4399C26.7526 25.4399 26.6305 25.4905 26.5405 25.5805C26.4505 25.6705 26.3999 25.7926 26.3999 25.9199V45.1199C26.3999 45.2472 26.4505 45.3693 26.5405 45.4594C26.6305 45.5494 26.7526 45.5999 26.8799 45.5999C27.0072 45.5999 27.1293 45.5494 27.2193 45.4594C27.3093 45.3693 27.3599 45.2472 27.3599 45.1199V25.9199Z" fill="black"/>
<path d="M24.48 41.2798V29.7598C24.48 29.6325 24.4294 29.5104 24.3394 29.4204C24.2494 29.3304 24.1273 29.2798 24 29.2798C23.8727 29.2798 23.7506 29.3304 23.6606 29.4204C23.5706 29.5104 23.52 29.6325 23.52 29.7598V41.2798C23.52 41.4071 23.5706 41.5292 23.6606 41.6192C23.7506 41.7092 23.8727 41.7598 24 41.7598C24.1273 41.7598 24.2494 41.7092 24.3394 41.6192C24.4294 41.5292 24.48 41.4071 24.48 41.2798Z" fill="black"/>
<path d="M17.7598 30.7202V40.3202C17.7598 40.4475 17.8103 40.5696 17.9004 40.6596C17.9904 40.7497 18.1125 40.8002 18.2398 40.8002C18.3671 40.8002 18.4892 40.7497 18.5792 40.6596C18.6692 40.5696 18.7198 40.4475 18.7198 40.3202V30.7202C18.7198 30.5929 18.6692 30.4708 18.5792 30.3808C18.4892 30.2908 18.3671 30.2402 18.2398 30.2402C18.1125 30.2402 17.9904 30.2908 17.9004 30.3808C17.8103 30.4708 17.7598 30.5929 17.7598 30.7202Z" fill="black"/>
<path d="M29.2798 30.7202V40.3202C29.2798 40.4475 29.3304 40.5696 29.4204 40.6596C29.5104 40.7497 29.6325 40.8002 29.7598 40.8002C29.8871 40.8002 30.0092 40.7497 30.0992 40.6596C30.1892 40.5696 30.2398 40.4475 30.2398 40.3202V30.7202C30.2398 30.5929 30.1892 30.4708 30.0992 30.3808C30.0092 30.2908 29.8871 30.2402 29.7598 30.2402C29.6325 30.2402 29.5104 30.2908 29.4204 30.3808C29.3304 30.4708 29.2798 30.5929 29.2798 30.7202Z" fill="black"/>
<path d="M21.1201 38.8802C21.2474 38.8802 21.3695 38.8296 21.4595 38.7396C21.5496 38.6496 21.6001 38.5275 21.6001 38.4002V32.6402C21.6001 32.5129 21.5496 32.3908 21.4595 32.3007C21.3695 32.2107 21.2474 32.1602 21.1201 32.1602C20.9928 32.1602 20.8707 32.2107 20.7807 32.3007C20.6907 32.3908 20.6401 32.5129 20.6401 32.6402V38.4002C20.6401 38.5275 20.6907 38.6496 20.7807 38.7396C20.8707 38.8296 20.9928 38.8802 21.1201 38.8802Z" fill="black"/>
<path d="M32.1602 32.6402V38.4002C32.1602 38.5275 32.2107 38.6496 32.3007 38.7396C32.3908 38.8296 32.5129 38.8802 32.6402 38.8802C32.7675 38.8802 32.8896 38.8296 32.9796 38.7396C33.0696 38.6496 33.1202 38.5275 33.1202 38.4002V32.6402C33.1202 32.5129 33.0696 32.3908 32.9796 32.3007C32.8896 32.2107 32.7675 32.1602 32.6402 32.1602C32.5129 32.1602 32.3908 32.2107 32.3007 32.3007C32.2107 32.3908 32.1602 32.5129 32.1602 32.6402Z" fill="black"/>
<path d="M14.8799 33.6001V37.4401C14.8799 37.5674 14.9305 37.6895 15.0205 37.7795C15.1105 37.8695 15.2326 37.9201 15.3599 37.9201C15.4872 37.9201 15.6093 37.8695 15.6993 37.7795C15.7893 37.6895 15.8399 37.5674 15.8399 37.4401V33.6001C15.8399 33.4728 15.7893 33.3507 15.6993 33.2607C15.6093 33.1707 15.4872 33.1201 15.3599 33.1201C15.2326 33.1201 15.1105 33.1707 15.0205 33.2607C14.9305 33.3507 14.8799 33.4728 14.8799 33.6001Z" fill="black"/>
</svg>
