<svg width="128" height="77" viewBox="0 0 128 77" fill="none" xmlns="http://www.w3.org/2000/svg">
<path d="M0 69.5255H0.0193303C0.00966515 69.5161 0 69.5161 0 69.5161V69.5255Z" fill="white"/>
<path d="M87.8652 14.6535L83.8477 14.6345V14.9669L87.8652 14.9479V14.6535Z" fill="white"/>
<path d="M74.4137 0.00976562C74.3737 2.37445 74.3437 4.74864 74.3237 7.11332H74.5036C74.4736 4.73914 74.4536 2.37445 74.4137 0.00976562Z" fill="white"/>
<path d="M42.2935 14.9668L51.148 15.0048C51.148 15.2328 51.138 15.4702 51.138 15.6981L51.088 29.5158H51.6077L51.5577 15.6981C51.5577 15.4702 51.5478 15.2328 51.5478 15.0048L62.8907 15.0523L69.4466 15.0238V14.5775L62.8907 14.549L51.5478 14.5965C51.5078 9.73415 51.4478 4.87182 51.3579 0C51.2679 4.86233 51.208 9.73415 51.168 14.5965L42.3035 14.6345L32.0099 14.6819L21.7163 14.8054L32.0099 14.9289L42.2935 14.9668Z" fill="white"/>
<path d="M32.0008 50.1239L28.1532 50.1714V47.8922C30.8915 46.7336 32.8603 43.5996 34.5193 39.725C32.0108 42.403 28.0533 41.9377 28.3131 44.2169C28.2532 44.2169 28.2032 44.2264 28.1532 44.2264V36.2777H33.0302L32.0508 32.6499L38.5168 32.6784V32.3745L32.0008 32.403H31.9808L30.6317 27.4077H24.6854L23.3062 32.5075L21.7172 32.5265L23.2962 32.5454L22.2869 36.2777H27.1638V44.3404C25.1851 44.7487 25.8746 46.1068 25.4049 48.0916C24.9352 48.7944 24.4755 49.5066 24.0358 50.2284L22.2069 50.2474C22.2769 49.5066 22.2269 48.6614 22.017 47.7782C21.6673 46.2682 22.117 44.6728 23.1263 43.4572C23.1363 43.4477 23.1363 43.4382 23.1463 43.4287C22.2069 44.1884 21.1176 44.6918 20.7178 46.3347C20.5579 46.9805 20.3081 47.6168 19.9383 48.1771C19.0789 49.4971 17.8396 51.8808 19.4686 52.669C19.4187 53.8656 19.4486 54.9197 19.4986 55.8694C19.5586 57.0565 19.5985 58.1011 19.4386 59.1743C19.1988 59.7536 18.9589 60.3329 18.7391 60.9217C18.5892 60.9122 18.4592 60.9122 18.3493 60.9027C18.0795 57.6928 17.9296 54.4544 17.8996 51.235L17.8796 50.2663C17.8696 48.4525 17.8396 46.6101 17.6697 44.7962C19.6985 41.3204 17.4099 37.3603 13.7222 33.2482C15.0614 36.5911 12.8128 39.725 15.0614 40.5512C13.6223 43.4287 15.4012 43.2767 17.26 44.7392C17.4399 46.5721 17.4699 48.4335 17.4799 50.2758L17.4998 51.2635C17.5298 54.4734 17.6797 57.7023 17.9496 60.9027C17.8496 60.9027 17.5998 60.9027 17.27 60.9217C16.6304 58.9559 15.711 57.1135 14.7416 55.4136C14.4318 54.1695 14.082 52.9349 13.7422 51.7098C13.2425 49.953 12.7228 48.1391 12.3431 46.3157C13.7722 42.7069 11.0539 39.0887 6.98638 35.4609C8.71531 38.6423 6.83648 41.9947 9.17502 42.574C8.05572 45.6699 9.92456 45.2331 12.0133 46.6006C12.393 48.3575 12.8827 50.1049 13.3624 51.8143C13.5823 52.5835 13.8021 53.3528 14.002 54.1315C13.9321 54.0081 13.8621 53.8846 13.7922 53.7706C13.0526 52.5361 12.2231 51.4914 11.4236 50.4753C10.9439 49.877 10.4842 49.2882 10.0445 48.6804C10.2244 45.9073 7.56602 43.875 3.96826 42.0707C5.85709 44.0175 5.21749 46.7431 6.99638 46.7241C6.83648 49.1267 8.07571 48.481 9.83461 49.0603C10.2344 49.6111 10.6641 50.1524 11.1038 50.7032C11.8833 51.7099 12.7228 52.7545 13.4424 53.9701C13.7522 54.4829 14.062 55.0147 14.3718 55.556C14.8215 57.3984 15.1713 59.2692 15.2912 61.1401C14.3918 61.3205 13.6123 61.6339 13.6123 62.1847C13.6123 62.2417 13.6323 62.2987 13.6422 62.3462L15.1313 70.4184C15.1313 71.3016 16.5904 71.6055 17.9596 71.6055C18.6391 71.6055 19.2787 71.5295 19.7584 71.3776C20.6079 71.1212 20.7878 70.7128 20.7778 70.4754L22.2869 62.2417C22.2869 62.2322 22.2869 62.2322 22.2869 62.2227C22.2869 62.2037 22.2969 62.1942 22.2969 62.1752C22.2969 62.1468 22.2869 62.1183 22.2769 62.0898C22.2769 62.0898 22.2769 62.0898 22.2769 62.0803C22.2069 61.6339 21.6073 61.349 20.8777 61.1781C21.5873 59.6966 22.3568 58.2341 23.1663 56.7906C24.7653 56.7336 26.0545 55.8979 27.1339 54.5684V69.6587H24.9252C24.1657 69.6587 23.5361 70.257 23.5361 70.9787V71.7479H31.721V70.9787C31.721 70.257 31.1114 69.6587 30.3419 69.6587H28.1232V53.1249C28.6129 52.3081 29.0527 51.3965 29.4724 50.4183C29.0627 50.8551 28.5929 51.178 28.1232 51.4344V50.3233L31.9708 50.3708L42.2644 50.4183L45.2926 50.4278V50.0669L42.2644 50.0764L32.0008 50.1239ZM25.6848 48.3765C26.1944 48.3765 26.6841 48.329 27.1538 48.2151V50.1904L24.5055 50.2189C24.8853 49.6016 25.285 48.9843 25.6848 48.3765ZM19.8984 55.8599C19.8584 54.9482 19.8184 53.9511 19.8684 52.821C19.8784 52.821 19.8784 52.821 19.8884 52.8305C21.1776 53.1628 22.037 51.9948 22.2069 50.2663L24.0058 50.2853C22.4867 52.764 21.1376 55.3281 19.9583 57.9682C19.9683 57.2844 19.9383 56.6007 19.8984 55.8599ZM15.0813 56.8286C15.7609 58.1296 16.3905 59.5067 16.8602 60.9312C16.5005 60.9502 16.1007 60.9882 15.701 61.0546C15.601 59.6396 15.3712 58.2246 15.0813 56.8286ZM20.0483 70.4089C20.0483 70.4469 19.9183 70.5798 19.5386 70.6938C19.1388 70.8173 18.5592 70.8838 17.9696 70.8838C17.3699 70.8838 16.8003 70.8173 16.4005 70.6938C16.0208 70.5798 15.8908 70.4469 15.8908 70.3424L14.5417 63.0205C15.721 63.4383 17.6597 63.4573 17.9596 63.4573C18.2694 63.4573 20.2182 63.4383 21.4074 63.011L20.0483 70.4089ZM27.1538 51.8998C25.8746 52.4221 24.8053 52.688 24.9252 53.7232C22.3169 53.8086 23.2463 54.9767 22.7166 56.7906H22.7266C21.9271 58.2056 21.1876 59.6396 20.488 61.0926C20.1482 61.0356 19.7984 60.9882 19.4686 60.9597L19.6785 60.086C19.7484 59.8011 19.7884 59.5352 19.8284 59.2597C21.1276 56.1543 22.6766 53.1533 24.4455 50.2758L27.1339 50.3043V51.8998H27.1538Z" fill="white"/>
<path d="M72.0854 50.0385L62.8811 50.0005L58.9336 50.0195V50.4848L62.8811 50.5038L72.0854 50.4658V50.0385Z" fill="white"/>
<path d="M74.144 31.1589H74.6737L74.6537 24.4922H74.174L74.144 31.1589Z" fill="white"/>
<path d="M86.9761 32.3745V32.6784L93.7519 32.6499L104.045 32.5265L93.7519 32.403L86.9761 32.3745Z" fill="white"/>
<path d="M128 54.8153C128 50.1808 127.46 45.5559 126.381 41.0735C126.341 40.912 126.191 40.7981 126.011 40.7981H92.9218C90.5833 40.7981 88.6745 42.612 88.6745 44.8342V52.0707C88.0648 51.3489 87.1454 50.8836 86.0961 50.8836C85.7863 50.8836 85.4864 50.9406 85.1966 51.0166C85.0667 50.6842 84.9368 50.3423 84.8069 50.0194C84.0673 48.1675 83.4377 46.5626 83.4077 44.9577C83.3877 44.1029 83.5376 43.1533 83.6876 42.2416C84.0174 40.1618 84.3671 38.0155 82.4783 37.1418C81.8887 36.8759 81.2491 36.705 80.5795 36.6005L80.5695 36.5056C81.9786 36.2017 83.8575 35.4894 83.6076 33.856C83.2179 31.2824 82.7581 30.1333 80.4696 29.9053C78.7806 29.7439 77.8212 31.1019 76.7519 31.6052C76.1722 31.8807 76.2222 33.0867 76.502 34.1504C76.3621 34.7961 76.3121 35.4229 76.502 35.8883C76.6419 36.2396 76.9018 36.4866 77.2516 36.61C77.4414 36.6765 77.6513 36.724 77.8412 36.743V36.7525C77.4814 36.8569 77.1716 36.9804 76.9218 37.1323C76.9218 37.1323 76.9218 37.1323 76.9118 37.1323C76.9118 37.1323 76.9118 37.1323 76.9018 37.1323C76.1522 37.5597 75.3328 38.0535 74.4733 38.5853C74.1035 38.8133 73.7238 39.0412 73.344 39.2691C72.9842 38.6518 72.4945 37.8731 71.755 38.196C71.665 38.234 71.5751 38.3099 71.4851 38.3954L70.6956 35.5464C70.6657 35.4514 70.6057 35.3849 70.5257 35.347C70.5457 35.2615 70.5557 35.1855 70.5757 35.1C70.7356 34.3973 70.9455 33.4476 70.136 33.2197C69.6163 33.0867 68.5969 33.4856 68.1572 33.9035C67.8474 34.1884 67.8374 34.4448 67.8874 34.5967C67.9573 34.8911 68.1972 35.5464 68.3671 35.9927C68.3371 36.0117 68.3071 36.0307 68.2871 36.0592C68.2172 36.1257 68.1872 36.2207 68.1872 36.3061C68.2072 37.3983 68.3671 42.9064 69.6763 43.7231C70.0061 43.9225 70.4558 44.027 71.0354 44.027C71.675 44.027 72.4945 43.894 73.4639 43.6566C74.1435 44.6158 74.973 45.6509 75.7725 46.3822C75.6925 47.5503 75.1029 48.9938 74.2234 50.7981C74.0236 51.2065 74.0136 51.6718 74.2135 52.0897C74.3034 52.2701 74.4233 52.4316 74.5732 52.5645C73.8737 53.9795 73.304 55.518 72.7743 57.0185C72.1347 58.7944 71.4752 60.6367 70.5857 62.1847C70.5357 62.2702 70.5257 62.3747 70.5557 62.4696C70.5857 62.5646 70.6657 62.6406 70.7556 62.6786C71.665 63.0584 72.6044 63.3053 73.5838 63.4573C73.5738 63.6282 73.5739 63.7897 73.5739 63.9226C73.6138 65.2617 73.7637 66.6957 73.9136 68.2246C74.1135 70.162 74.3134 72.1563 74.3434 74.2835C74.2434 74.3975 74.0635 74.6159 73.8737 74.8059C73.8137 74.8534 73.5439 74.9483 73.344 75.0148C72.7244 75.2237 71.8649 75.5276 71.8149 76.2114C71.795 76.4203 71.8749 76.6102 72.0348 76.7337C72.2047 76.8762 72.4545 76.9331 72.7544 76.9331C73.1541 76.9331 73.6938 76.8287 74.3134 76.6957C74.4933 76.6482 74.6632 76.6197 74.7931 76.5913C75.2428 76.5248 75.8424 76.4773 76.1622 76.4583C76.532 76.4298 76.8318 76.1734 76.8718 75.822C76.9318 75.3662 76.9517 74.9103 76.9218 74.445C77.3915 71.1021 77.8612 67.3035 77.7313 64.407L77.9511 63.6282C78.8805 63.5902 79.82 63.5427 80.7894 63.4763C81.1491 66.2208 82.8781 72.878 83.1979 74.0746C83.0979 74.1981 82.928 74.388 82.7581 74.5685C82.6982 74.6159 82.4383 74.7109 82.2285 74.7774C81.6088 74.9863 80.7494 75.2902 80.6994 75.974C80.6894 76.1829 80.7594 76.3728 80.9193 76.4963C81.0892 76.6387 81.339 76.6957 81.6388 76.6957C82.0586 76.6957 82.5782 76.5913 83.1979 76.4583C83.3778 76.4203 83.5476 76.3823 83.6776 76.3633C84.1273 76.2874 84.7269 76.2399 85.0567 76.2209C85.4165 76.1924 85.7163 75.936 85.7563 75.5846C85.8262 75.1098 85.8362 74.6349 85.8162 74.1506C85.8162 74.1316 85.8062 74.1221 85.8062 74.1126L85.5264 69.6871H88.0848C88.6145 69.6871 89.0642 69.3832 89.2841 68.9654C89.7038 69.4212 90.3134 69.7061 91.003 69.7061H94.1111V70.8362C94.1111 71.3491 94.5408 71.7574 95.0805 71.7574H99.038C99.5777 71.7574 100.007 71.3491 100.007 70.8362V69.7061H125.811C127.73 65.9739 128 55.9833 128 54.8153ZM92.9218 41.5103H109.581C110.901 42.0991 111.81 43.3717 111.81 44.8342V57.7782H90.993C90.3834 57.7782 89.8337 58.0062 89.424 58.367V44.8342C89.424 43.0013 90.993 41.5103 92.9218 41.5103ZM77.5314 35.9547C77.3815 35.8978 77.2815 35.8028 77.2216 35.6414C76.9118 34.8626 77.5514 33.1912 78.0411 32.1371C78.4308 32.5549 79.0205 32.8778 79.5002 33.1152L79.5501 33.1342C79.6301 33.2197 79.75 33.5901 79.74 33.761C79.72 34.0174 79.8699 34.2168 79.9999 34.3973C80.0998 34.5302 80.1897 34.6537 80.1997 34.7772C80.2197 34.9576 79.9999 35.2615 79.8499 35.4134C79.78 35.4894 79.74 35.5939 79.75 35.6888L79.9399 37.5692C79.6701 37.8161 79.1404 37.9301 78.6907 37.8636C79.0604 37.1039 79.4402 35.8313 79.4402 35.8313C79.1804 36.0117 78.4008 36.0782 78.3009 36.0687C78.151 36.0782 77.7612 36.0402 77.5314 35.9547ZM72.0848 38.8608C72.2447 38.8702 72.5845 39.459 72.7344 39.7155C72.7843 39.8009 72.8343 39.8864 72.8843 39.9719C72.8843 39.9814 72.8843 39.9814 72.8943 39.9909C72.8943 39.9909 72.9043 39.9909 72.9043 40.0004C72.9143 40.0099 72.9243 40.0288 72.9342 40.0478C72.7144 40.2188 72.5145 40.4087 72.3346 40.6081C71.9948 40.4182 71.6351 40.2188 71.4951 40.1428C71.3952 39.8959 71.8249 38.9842 72.0848 38.8608ZM68.5969 34.5112C68.6969 34.2833 69.6463 33.856 69.9361 33.9319C70.046 34.0459 69.9061 34.6727 69.8362 34.9671C69.8062 35.1095 69.7862 35.233 69.7562 35.366C69.4764 35.4134 69.2166 35.4989 68.9867 35.6034C68.8368 35.195 68.6469 34.6917 68.5969 34.5112ZM70.056 43.1533C69.4164 42.7544 68.9767 39.478 68.9167 36.4771C69.1966 36.2397 69.5763 36.0972 70.046 36.0402L70.9455 39.2311C70.8355 39.4875 70.7556 39.7439 70.7356 39.9624C70.6956 40.3707 70.8655 40.5702 71.0054 40.6651C71.1853 40.7886 71.5551 40.9975 71.9149 41.1969C71.9049 41.2729 71.9149 41.3394 71.9549 41.4059C72.1247 41.6908 72.5045 42.3176 73.0042 43.0488C71.0754 43.5046 70.3259 43.3147 70.056 43.1533ZM73.9136 43.0678C73.9036 43.0583 73.9036 43.0488 73.8937 43.0393C73.4639 42.4315 73.0642 41.8142 72.7144 41.2444C72.9542 40.9405 73.2341 40.6841 73.5838 40.4372L77.1216 43.7326C77.2016 43.8085 77.3215 43.8465 77.4315 43.8275C77.5514 43.8085 77.6513 43.7516 77.7013 43.6566L80.0698 39.7534C80.1697 39.5825 80.1098 39.3641 79.9299 39.2691C79.75 39.1741 79.5202 39.2311 79.4202 39.4021L77.2915 42.9064L73.9236 39.7724C74.2434 39.5825 74.5632 39.3926 74.863 39.2026C75.7325 38.6803 76.542 38.177 77.2915 37.7496C77.2915 37.7496 77.2915 37.7496 77.3015 37.7401H77.3115C77.4314 37.6642 77.5814 37.5977 77.7513 37.5312L77.7013 38.025C77.6813 38.1675 77.7612 38.3004 77.8812 38.3669C78.181 38.5379 78.5508 38.6138 78.9205 38.6138C79.5901 38.6138 80.2697 38.3574 80.6195 37.8921C80.6694 37.8256 80.6994 37.7401 80.6894 37.6547L80.6594 37.3413C81.1891 37.4362 81.6888 37.5787 82.1485 37.7876C82.8681 38.12 83.1379 38.7468 83.1879 39.554C83.028 40.0858 82.8081 40.8171 82.5882 41.6148C82.4483 41.5863 82.2884 41.6338 82.1985 41.7572C80.4696 44.1029 78.181 46.6291 77.4914 46.6291C76.7119 46.6291 75.2128 44.9007 73.9136 43.0678ZM77.4914 47.3413C78.6707 47.3413 80.9992 44.5398 82.2385 42.9254C81.9686 44.008 81.7488 45.0431 81.7288 45.6699C81.7088 46.3537 81.9386 47.6832 82.1885 48.8798C82.4683 50.2188 81.409 51.5104 79.9699 51.5294C78.211 51.5484 76.582 51.273 75.0829 50.6937C75.7725 49.2407 76.2522 48.0061 76.4321 46.9425C76.8018 47.1894 77.1616 47.3413 77.4914 47.3413ZM73.4639 57.2749C73.8637 56.1543 74.2734 55.0147 74.7531 53.9321C76.0023 54.1885 78.5308 54.6348 80.8993 54.5683C82.2984 54.5304 83.5576 55.3851 83.9074 56.6671C84.4671 58.6804 84.7469 60.6937 85.6863 62.5551C85.3965 62.5551 85.1167 62.5646 84.8268 62.5741C84.7869 62.5646 84.7469 62.5551 84.6969 62.5646C84.6769 62.5646 84.657 62.5741 84.647 62.5741C83.4077 62.6121 82.1785 62.688 80.9792 62.7735C77.5114 63.0109 74.2234 63.2389 71.4152 62.2037C72.2447 60.6842 72.8643 58.9463 73.4639 57.2749ZM81.6089 63.9321L81.7588 63.9226C82.7381 63.8466 83.5976 64.5304 83.6976 65.4516L84.577 73.8277H83.8974C83.5476 72.5077 82.0686 66.7811 81.6089 63.9321ZM74.3234 63.8846C74.5632 63.9701 74.8031 64.0366 75.0529 64.0841C75.7525 64.2075 76.2322 64.8248 76.2622 65.5086C76.3821 68.0347 76.2622 70.9407 75.9923 74.0841H75.0929C75.0529 72.0138 74.8531 70.067 74.6632 68.1866C74.5133 66.6767 74.3634 65.2427 74.3234 63.9321C74.3234 63.9131 74.3234 63.8941 74.3234 63.8846ZM88.6745 68.4146C88.6745 68.728 88.4046 68.9844 88.0748 68.9844H85.4764L85.1267 63.2768C86.0761 63.2578 87.0455 63.2578 88.0249 63.3148C88.1548 63.3338 88.2947 63.2579 88.3646 63.1534C88.4346 63.0394 88.4446 62.9065 88.3746 62.7925C87.6851 61.5864 87.1554 59.4971 86.5958 57.2844C86.196 55.6985 85.7763 54.0745 85.2666 52.612C85.2766 52.593 85.3066 52.5835 85.3165 52.555C85.4764 52.2891 85.5164 51.9852 85.4465 51.6908C85.6563 51.6339 85.8762 51.5959 86.1061 51.5959C87.5252 51.5959 88.6844 52.6975 88.6844 54.046V68.4146H88.6745ZM113.219 57.7782V44.8342C113.219 43.3717 114.139 42.0991 115.448 41.5103H125.711C126.731 45.8503 127.25 50.3328 127.25 54.8153C127.25 55.8694 127.22 56.8381 127.171 57.7782H113.219Z" fill="white"/>
<path d="M55.6656 74.0556C55.6357 74.1126 55.5957 74.1505 55.5557 74.198L55.3658 73.9891C55.2859 73.9036 55.2459 73.7897 55.2159 73.6757C55.3558 73.6567 55.4957 73.6472 55.6357 73.6187C55.7956 73.5902 55.9155 73.4668 55.9355 73.3148C56.4651 69.7156 56.4452 66.4107 56.3452 63.3717C56.2753 61.3869 56.5051 59.4591 56.705 57.7687C56.8249 56.743 56.9348 55.7839 56.9748 54.8912C57.0448 54.8437 57.1247 54.7962 57.1747 54.7297C57.3646 54.5018 57.4545 54.2169 57.4046 53.9225C57.1947 52.5075 56.735 49.0697 56.8249 47.7401C56.8949 46.8474 57.5145 44.5682 57.7044 43.894C57.8243 43.4571 58.0841 43.0487 58.4439 42.7164C59.2634 41.9756 61.2322 40.1427 61.6919 39.1456C62.3615 37.7306 62.4114 32.4979 62.4114 32.2795C62.4114 32.1845 62.3715 32.099 62.3015 32.0325C62.4015 31.8141 62.5214 31.5862 62.6613 31.3393C63.201 30.3706 63.8605 29.155 62.9111 28.6042C62.2715 28.2338 60.6325 28.4143 59.833 28.8226C59.3234 29.0886 59.2134 29.3925 59.2034 29.6109C59.1934 30.0762 59.2534 31.1493 59.3034 31.8901C59.1834 31.9281 59.0935 32.0135 59.0635 32.1275L57.7443 37.3602C57.1647 37.5217 55.4858 38.006 53.9967 38.3764C54.7062 37.1608 54.2765 34.8246 53.9767 33.5995C54.1466 33.4571 54.3365 33.2291 54.3465 32.9062C54.3565 32.4979 54.0766 32.118 53.497 31.7761C52.3477 31.0829 49.7193 31.3203 48.5701 32.232C48.1303 32.5739 47.9404 33.0012 48.0104 33.4476C47.5907 33.7515 47.3608 34.1218 47.3208 34.5302C47.2009 35.4894 48.0903 36.477 49.2097 37.5501L49.0098 38.9082L48.8899 38.8987C47.7506 38.7752 44.7125 37.9015 43.803 37.6356V31.8806C43.803 31.7286 43.7031 31.5957 43.5532 31.5482C43.6631 31.2918 43.823 31.0069 43.9829 30.7125C44.5226 29.7343 45.1922 28.5282 44.2427 27.9774C43.6031 27.6071 41.9642 27.7875 41.1547 28.2054C40.645 28.4713 40.535 28.7752 40.5251 28.9936C40.5151 29.4209 40.575 30.3231 40.625 31.1588C40.555 31.2063 40.4951 31.2728 40.4751 31.3583C40.2952 32.023 38.7861 37.873 39.5057 39.6489C39.9854 40.779 42.294 42.384 44.1528 43.5331C44.5825 43.799 44.9223 44.1884 45.1322 44.6442C46.2415 47.1323 46.5613 48.1675 46.6213 48.5948C46.7512 49.44 46.6512 51.5008 46.3115 54.4163C46.2715 54.7677 46.4214 55.1001 46.6812 55.328C46.6213 56.6576 46.6612 58.1106 46.7112 59.6585C46.7512 60.8551 46.7912 62.0992 46.7812 63.3812C46.7612 66.4107 46.8011 69.7156 47.2209 73.3433C47.2409 73.4953 47.3608 73.6187 47.5207 73.6567C47.6706 73.6852 47.8205 73.7042 47.9704 73.7232C47.9804 73.8656 47.9804 73.9986 47.9704 74.0936C47.9604 74.312 47.7805 74.9578 47.7805 74.9578C47.6806 75.3946 47.5607 76.0974 47.7705 76.4298C47.9804 76.7716 51.0185 76.6292 52.8874 76.3538C52.8974 76.3728 52.8974 76.4108 52.9074 76.4298C53.2072 76.9236 59.5432 76.4108 59.4533 75.9169C59.3134 74.9862 56.3152 74.9293 55.6656 74.0556ZM50.5288 74.0556C50.4989 74.1126 50.4589 74.1505 50.4189 74.198L50.229 73.9891C50.1491 73.9036 50.1091 73.7897 50.0791 73.6757C50.219 73.6567 50.3589 73.6472 50.4989 73.6187C50.6687 73.5902 50.7887 73.4573 50.8087 73.2958C50.8087 73.2199 51.3283 66.0783 51.4083 63.7041C51.4383 62.8779 51.4782 61.9757 51.5682 61.0451C51.5782 61.102 51.5882 61.1495 51.5982 61.2065C51.7581 62.0042 51.918 62.7545 51.9679 63.4192C52.0379 64.3689 52.0579 65.4895 52.0779 66.6766C52.1178 68.6804 52.1578 70.9596 52.4177 73.3148C52.4376 73.4668 52.5576 73.5997 52.7175 73.6282C52.8474 73.6567 52.9873 73.6662 53.1172 73.6852C53.1272 73.8371 53.1272 73.9701 53.1172 74.0651C53.1072 74.2835 52.9273 74.9293 52.9273 74.9293C52.9173 74.9673 52.9074 75.0147 52.9074 75.0527C51.9879 74.7773 50.8886 74.5399 50.5288 74.0556ZM55.6057 63.4097C55.6956 66.2113 55.7056 69.2407 55.2959 72.5076L55.2359 72.4886C54.2765 72.1467 53.6569 71.2635 53.6969 70.2949C53.7668 68.2531 53.8468 64.8342 53.6269 63.4002C53.517 62.65 52.9373 61.0261 52.5776 60.0479C52.3677 59.4876 52.3177 58.8798 52.4776 58.3005C52.6375 57.6832 52.8674 57.0944 53.1372 56.5056C52.5676 56.9235 52.0879 57.5313 51.6981 58.3385C51.6581 58.3195 51.6182 58.291 51.5682 58.2815C51.3783 58.3005 51.2184 58.3955 51.1884 58.5664C50.8286 60.3518 50.7287 62.1562 50.6787 63.6756C50.6088 65.7744 50.199 71.6149 50.0991 72.9634C49.4595 73.0489 48.8199 73.0489 48.2103 72.9824C48.0304 68.8419 48.8899 64.4354 48.7499 59.3071C48.72 58.196 49.3096 57.1324 50.329 56.5816C50.7987 56.3347 51.2484 56.0498 51.6881 55.7459C52.4277 55.6699 53.1772 55.5654 53.9067 55.4515C54.7262 55.328 55.4957 55.2236 56.2453 55.1571C56.1953 55.9453 56.0954 56.7905 55.9954 57.6832C55.7756 59.4211 55.5457 61.3679 55.6057 63.4097ZM60.4527 29.364C61.1222 29.1265 62.0417 29.0791 62.4214 29.1835C62.2016 30.0477 61.7718 31.1588 61.3621 31.4437C61.1922 31.5672 60.5626 31.6052 60.0529 31.6527C60.0029 30.9214 59.963 30.0287 59.963 29.6489C59.973 29.6204 60.0929 29.4874 60.4527 29.364ZM52.1278 40.3137C52.0279 40.4751 51.838 40.5796 51.5682 40.6176C50.6588 40.741 49.9392 40.2377 49.6894 39.326L49.9892 37.5027L50.209 36.8854C50.269 36.7144 50.189 36.534 50.0191 36.439C49.6394 36.2776 49.5095 36.0686 49.5195 35.9262C49.5195 35.8787 49.5494 35.8312 49.5894 35.8217C49.6494 35.8027 49.7593 35.8502 49.8792 35.9927C49.9792 36.1161 50.1491 36.1541 50.309 36.1066L50.5988 36.0117C50.7687 35.9452 50.8686 35.7838 50.8386 35.6033C50.6987 34.8626 50.6887 34.0458 50.7987 33.8939C50.8886 33.8464 51.2184 33.9224 51.4083 33.9604C51.828 34.0458 52.2977 34.1503 52.6775 33.9319C52.8074 33.8559 52.9173 33.7704 53.0173 33.685C53.0772 33.647 53.1472 33.59 53.1272 33.571C53.1372 33.5805 53.1772 33.609 53.2172 33.647C53.407 34.4257 53.6169 35.5178 53.6369 36.4865C53.3571 36.5435 53.0073 36.7904 52.7674 36.8949C52.3877 37.0563 51.6182 36.382 51.1684 36.8949C50.7787 37.3412 51.3283 38.2244 52.0379 38.6423C52.0079 38.7087 52.2478 40.1238 52.1278 40.3137ZM41.7643 28.7087C42.4239 28.4713 43.3433 28.4238 43.7331 28.5282C43.5132 29.3925 43.0835 30.5036 42.6737 30.7885C42.5038 30.9119 41.8742 30.9499 41.3745 30.9974C41.3346 30.3611 41.2746 29.3924 41.2846 28.9936C41.2746 28.9651 41.3945 28.8416 41.7643 28.7087ZM41.1247 31.7856C41.7543 31.8141 42.3539 31.9281 42.9735 32.1085C42.9835 32.1085 42.9835 32.118 42.9835 32.118C42.9935 32.118 42.9935 32.118 43.0035 32.118C43.0135 32.118 43.0335 32.1275 43.0435 32.1275V37.892C43.0435 38.044 43.1534 38.1864 43.3033 38.2339C43.4732 38.2814 47.3808 39.4495 48.8099 39.6014L48.9598 39.6109C48.9698 39.6109 48.9798 39.6109 48.9998 39.6109C49.3396 40.6841 50.209 41.3488 51.2784 41.3488C51.4083 41.3488 51.5382 41.3393 51.6681 41.3203C52.2977 41.2349 52.6075 40.9215 52.7574 40.6746C52.9873 40.3042 53.0073 39.8199 52.8474 39.3925C54.7562 38.9841 58.0242 38.0345 58.1741 37.9965C58.304 37.9585 58.3939 37.8635 58.4239 37.7401L59.7231 32.5644C59.7331 32.5644 59.7331 32.5549 59.7431 32.5549C60.4127 32.5074 61.0523 32.5169 61.6519 32.5834C61.6219 34.2453 61.472 37.854 61.0023 38.8512C60.9024 39.0696 60.6825 39.364 60.4027 39.6964L58.224 41.3298C57.6444 41.7667 56.8249 41.7477 56.2753 41.2919L55.6257 40.7695C55.6257 40.7695 56.3452 42.7638 56.4452 43.4571C56.5051 43.8845 56.5251 44.6727 56.5151 45.4514C56.3052 46.2871 56.1154 47.1703 56.0754 47.6832C55.9854 48.9652 56.3752 51.9472 56.6051 53.5616C55.106 53.3717 53.5969 53.5616 52.0979 53.6851C50.1491 53.8465 48.4601 52.422 48.4201 50.5607C48.3902 49.3166 48.3302 48.0155 48.2203 47.3223C48.0304 46.1352 47.1609 43.723 46.2315 42.9063C45.0922 41.9091 43.5532 41.8996 40.8049 40.1048C40.5051 39.8009 40.2852 39.535 40.2053 39.326C39.6956 38.1104 40.635 33.7135 41.1247 31.7856Z" fill="white"/>
<path d="M101.207 14.397H89.9941V28.8415H101.207V14.397ZM100.248 27.9203H90.9535V15.3087H100.248V27.9203Z" fill="white"/>
<path d="M97.3801 18.0342H93.8223V25.1947H97.3801V18.0342Z" fill="white"/>
<path d="M82.2086 8.44287H70.9956V22.8874H82.2086V8.44287ZM81.2392 21.9757H71.945V9.35456H81.2392V21.9757Z" fill="white"/>
<path d="M78.3713 12.0894H74.8135V19.2499H78.3713V12.0894Z" fill="white"/>
</svg>
