<svg width="44" height="44" viewBox="0 0 44 44" fill="none" xmlns="http://www.w3.org/2000/svg">
<path d="M20.5251 20.972C24.9344 20.972 28.0078 15.9773 28.0078 11.4933C28.0078 8.46797 26.6331 6.05864 24.4118 4.78663C24.4851 4.53464 24.5238 4.2773 24.5238 4.0173C24.5238 2.17064 22.7318 0.667969 20.5278 0.667969C18.3278 0.667969 16.5358 2.17064 16.5358 4.0173C16.5358 4.2773 16.5744 4.5333 16.6504 4.7853C14.4264 6.05597 13.0518 8.46663 13.0518 11.492C13.0518 15.968 16.2491 20.972 20.5251 20.972ZM20.5278 1.95997C22.0171 1.95997 23.2291 2.88264 23.2291 4.01597C23.2291 4.0893 23.2078 4.16264 23.1958 4.2373C22.3798 3.9533 21.4864 3.79597 20.5264 3.79597C19.5678 3.79597 18.6798 3.9533 17.8651 4.23464C17.8544 4.1613 17.8318 4.0893 17.8318 4.01597C17.8304 2.88264 19.0411 1.95997 20.5278 1.95997ZM14.3451 11.492C14.3451 7.7213 16.8864 5.08797 20.5251 5.08797C24.0464 5.08797 26.5184 7.5573 26.6824 11.1226C26.5944 11.1053 26.5158 11.096 26.3878 11.056C24.8171 10.5506 23.7758 8.55197 23.7678 8.53197L23.3771 7.77197L22.7491 8.3533C21.2224 9.7733 18.6891 11.6933 14.3718 12.1066C14.3584 11.904 14.3451 11.6986 14.3451 11.492ZM23.0438 9.8293C23.5798 10.6173 24.5958 11.8386 25.9918 12.2866C26.2291 12.3653 26.4531 12.412 26.6638 12.4373C26.2704 16.3333 23.5251 19.68 20.5251 19.68C17.7771 19.68 15.2464 16.8613 14.5438 13.3866C18.9624 12.9466 21.7211 10.972 23.0438 9.8293Z" fill="#0E4271"/>
<path d="M34.4734 30.3946C35.5801 29.424 36.2054 28.2213 36.2801 26.9133C36.3507 25.6746 35.9081 24.4426 35.0294 23.4426C33.9534 22.2133 32.4534 21.6666 30.9614 21.8093C28.8027 19.888 25.9481 19.5813 25.5921 19.7306L25.4281 19.8013L25.3241 19.9413C25.3054 19.968 23.4601 22.424 20.5267 22.424C17.5974 22.424 15.7507 19.9666 15.7321 19.9413L15.5321 19.668L15.1934 19.6786C15.1174 19.6813 7.78672 19.996 7.71205 28.2653C7.66805 33.3146 8.92539 37.1693 11.4574 39.72C13.8267 42.112 17.2694 43.324 21.6734 43.324H21.6761C21.7641 43.3266 21.9601 43.332 22.2334 43.332C22.8441 43.332 23.8361 43.3013 24.9001 43.176C25.0427 43.1773 25.1841 43.1786 25.3241 43.1786C33.3001 43.1786 34.4627 39.0453 34.9081 37.4706C35.2481 36.256 35.0721 33.952 34.3814 30.46C34.4121 30.436 34.4454 30.4186 34.4734 30.3946ZM32.2107 23.1333C32.8987 23.3066 33.5387 23.7 34.0574 24.2946C34.5734 24.88 34.8774 25.5666 34.9641 26.2693C34.4721 26.3013 33.6801 25.94 33.0294 25.196C32.4801 24.5693 32.1521 23.8066 32.1881 23.252C32.1907 23.2053 32.2027 23.172 32.2107 23.1333ZM32.0547 26.0493C32.9014 27.0133 33.9561 27.5453 34.8614 27.568C34.6614 28.2453 34.2441 28.8773 33.6214 29.4226C31.8481 30.972 28.8321 31.2506 27.6521 29.904C27.0641 29.2333 26.8761 28.2373 27.1214 27.0973C27.3694 25.9466 28.0227 24.8373 28.9161 24.0533C29.5361 23.5106 30.2187 23.1866 30.9187 23.0773C30.9161 23.1106 30.8974 23.1346 30.8947 23.168C30.8361 24.0733 31.2681 25.1506 32.0547 26.0493ZM26.6827 30.7546C27.4454 31.6266 28.6227 32.1093 29.9894 32.1093C30.5174 32.1093 31.0521 32.0146 31.5801 31.88C30.7681 33.1586 29.3254 35.1426 27.3401 36.944C26.2961 36.6426 25.0894 36.6533 24.0401 36.6666L23.0614 36.6773C21.4641 36.7013 18.6387 36.728 16.5587 35.0053C16.9414 33.612 17.9227 31.6453 20.3707 29.5C22.4774 27.6533 24.7441 26.436 26.1787 25.7693C26.0427 26.1146 25.9334 26.4666 25.8561 26.8253C25.5267 28.3746 25.8174 29.7706 26.6827 30.7546ZM14.9267 20.9973C15.5801 21.756 17.5627 23.7186 20.5281 23.7186C23.5601 23.7186 25.5627 21.672 26.1307 21C26.7267 21.076 28.1041 21.3493 29.4174 22.2333C28.9454 22.4453 28.4881 22.7106 28.0654 23.08C27.7654 23.3426 27.4921 23.6413 27.2401 23.956L27.2321 23.928C27.0654 23.9853 23.1281 25.3666 19.5227 28.5266C17.2307 30.5333 16.1014 32.436 15.5467 33.9346C14.6507 32.712 14.0361 30.9586 13.9787 28.416C13.9027 25.0773 12.6401 23.0213 11.8974 22.096C13.1067 21.2946 14.3561 21.0626 14.9267 20.9973ZM28.1907 40.7866C27.0001 41.9373 23.1121 42.0746 21.6947 42.0346C17.6294 42.0346 14.4921 40.9506 12.3747 38.812C10.0961 36.5146 8.96272 32.9706 9.00539 28.28C9.02805 25.676 9.85872 24 10.9054 22.9213C11.5121 23.68 12.6187 25.4626 12.6867 28.4453C12.9027 38.12 20.5641 38.0106 23.0801 37.9693L24.0561 37.96C25.4441 37.9426 27.1734 37.9226 27.9747 38.7146C28.3134 39.0493 28.4774 39.524 28.4774 40.1706C28.4787 40.3986 28.3854 40.5946 28.1907 40.7866ZM33.6641 37.1226C33.3547 38.216 32.7321 40.388 29.3827 41.3746C29.6374 41.0146 29.7707 40.604 29.7707 40.1706C29.7707 39.1746 29.4734 38.3746 28.8854 37.7946C28.7974 37.708 28.6921 37.6386 28.5934 37.5626C31.1521 35.1413 32.7147 32.5733 33.2761 31.5653C33.9001 34.9786 33.8441 36.4786 33.6641 37.1226Z" fill="#0E4271"/>
</svg>
