<svg width="44" height="44" viewBox="0 0 44 44" fill="none" xmlns="http://www.w3.org/2000/svg">
<path d="M38.6244 8.38111C37.4031 7.15991 35.9652 6.24858 34.3506 5.67243C34.0383 5.56102 31.3956 5.75907 31.2841 6.0715C31.1725 6.38393 33.6345 6.69236 33.9469 6.80384C35.3926 7.31969 36.6806 8.13612 37.7749 9.23053C40.957 12.4126 41.6273 17.1691 39.7873 21.0153H35.7569C35.8921 20.5927 35.962 20.1493 35.962 19.7003C35.962 17.324 34.029 15.3907 31.6532 15.3907C29.2769 15.3907 27.3435 17.324 27.3435 19.7003C27.3435 20.1492 27.4133 20.5927 27.5485 21.0153H22.1034V18.1257C22.1034 17.9089 21.9866 17.709 21.7978 17.6025C21.6091 17.496 21.3775 17.4995 21.1921 17.6117C20.7095 17.9035 20.1545 18.0577 19.5871 18.0577C17.8732 18.0577 16.4788 16.6633 16.4788 14.9494C16.4788 13.2355 17.8731 11.8412 19.5871 11.8412C20.1545 11.8412 20.7095 11.9954 21.1921 12.2871C21.3775 12.3993 21.6091 12.4028 21.7978 12.2963C21.9866 12.1898 22.1034 11.9899 22.1034 11.7731V9.83392C22.4953 9.73004 22.8546 9.52477 23.1489 9.23061C25.1022 7.27716 27.6993 6.20141 30.4615 6.20141C30.7626 6.20141 31.0639 6.21463 31.3574 6.24066C31.689 6.27037 34.5865 6.10121 34.6158 5.77068C34.6452 5.44024 31.7942 5.07336 31.4638 5.04405C31.1351 5.01482 30.798 5 30.4615 5C27.3784 5 24.4797 6.20077 22.2994 8.38111C22.0867 8.59382 21.8038 8.71091 21.5028 8.71091C21.2018 8.71091 20.9189 8.59374 20.7062 8.38111C18.5258 6.20085 15.6271 5.00008 12.544 5.00008C9.46042 5.00008 6.56144 6.20085 4.38103 8.38119C2.20077 10.5614 1 13.4602 1 16.5433C1 19.6268 2.20077 22.5258 4.38103 24.7062L17.9657 38.2916C18.9104 39.2363 20.1664 39.7566 21.5026 39.7566C22.8388 39.7566 24.0946 39.2363 25.0388 38.2916L26.4685 36.862C26.7031 36.6275 28.7114 34.7265 28.4769 34.492C28.2422 34.2574 25.8536 35.778 25.619 36.0126L24.1893 37.4424C23.6155 38.0164 22.8901 38.3834 22.1034 38.5076V33.0753C22.5259 33.2105 22.9695 33.2802 23.4184 33.2802C25.7948 33.2802 27.728 31.347 27.728 28.9706C27.728 26.5943 25.7948 24.6611 23.4184 24.6611C22.9694 24.6611 22.5258 24.7309 22.1034 24.8662V22.2167H28.4769C28.6937 22.2167 28.8936 22.0999 29 21.9111C29.1065 21.7224 29.103 21.4908 28.9909 21.3054C28.6991 20.8227 28.5449 20.2677 28.5449 19.7004C28.5449 17.9865 29.9393 16.5921 31.6533 16.5921C33.3667 16.5921 34.7607 17.9865 34.7607 19.7004C34.7607 20.2678 34.6064 20.8228 34.3148 21.3053C34.2026 21.4908 34.1991 21.7223 34.3055 21.9111C34.4121 22.0999 34.612 22.2168 34.8288 22.2168H39.1104C38.7296 22.7969 38.2846 23.3471 37.775 23.8567L25.619 36.0126C25.3845 36.2472 27.3579 34.6541 27.5924 34.8886C27.7098 35.0059 27.8635 35.0646 28.0172 35.0646C28.1709 35.0646 28.3247 35.006 28.442 34.8886L38.6246 24.7062C43.1252 20.2053 43.1252 12.8819 38.6244 8.38111ZM21.2079 26.3185C21.3968 26.4249 21.6285 26.4213 21.814 26.3088C22.2959 26.0168 22.8506 25.8624 23.4184 25.8624C25.1322 25.8624 26.5266 27.2567 26.5266 28.9706C26.5266 30.6845 25.1323 32.0789 23.4184 32.0789C22.8509 32.0789 22.2959 31.9247 21.8134 31.633C21.6279 31.5208 21.3964 31.5173 21.2076 31.6237C21.0188 31.7303 20.9021 31.9302 20.9021 32.147V38.5076C20.1151 38.3834 19.3893 38.0163 18.8152 37.4422L5.23053 23.8567C4.72445 23.3507 4.27779 22.801 3.89297 22.2168H8.8503C8.71511 22.6394 8.64527 23.0828 8.64527 23.5318C8.64527 23.9097 8.69413 24.2843 8.79047 24.6454C8.86135 24.911 9.10186 25.0911 9.37032 25.0911C9.37736 25.0911 9.38441 25.0911 9.39146 25.0908C9.54323 25.0859 11.137 26.6899 11.25 26.5715C11.4075 26.4064 10.0087 24.5089 9.94343 24.306C9.87912 24.0551 9.84661 23.7948 9.84661 23.5318C9.84661 22.9644 10.0009 22.4094 10.2925 21.9269C10.4047 21.7414 10.4082 21.5099 10.3017 21.321C10.1952 21.1323 9.99533 21.0154 9.77853 21.0154H3.21277C2.551 19.6373 2.20133 18.1173 2.20133 16.5433C2.20133 13.781 3.27716 11.1841 5.23053 9.23061C7.18397 7.27716 9.78125 6.20141 12.5439 6.20141C15.3062 6.20141 17.9032 7.27724 19.8566 9.23061C20.1508 9.52485 20.5102 9.73004 20.9021 9.83392V10.8449C20.4794 10.7097 20.036 10.6399 19.587 10.6399C17.2107 10.6399 15.2773 12.5732 15.2773 14.9495C15.2773 17.3258 17.2107 19.2591 19.587 19.2591C20.0359 19.2591 20.4795 19.1893 20.9021 19.0541V21.0154H16.1304C15.9136 21.0154 15.7137 21.1322 15.6072 21.321C15.5007 21.5097 15.5042 21.7414 15.6164 21.9268C15.9081 22.4094 16.0623 22.9644 16.0623 23.5317C16.0623 25.2456 14.6679 26.64 12.954 26.64C12.3701 26.64 11.802 26.4777 11.311 26.1707C11.0297 25.995 8.93269 24.2288 8.75673 24.51C8.58086 24.7913 10.3928 27.0135 10.6741 27.1894C11.3563 27.6159 12.1446 27.8414 12.954 27.8414C15.3303 27.8414 17.2636 25.9081 17.2636 23.5318C17.2636 23.0829 17.1939 22.6394 17.0586 22.2168H20.9021V25.7952C20.9021 26.012 21.019 26.2121 21.2079 26.3185Z" fill="#0E4271"/>
</svg>
