<svg width="44" height="44" viewBox="0 0 44 44" fill="none" xmlns="http://www.w3.org/2000/svg">
<path d="M9.20308 16.1389C9.08572 16.1389 8.96894 16.1031 8.86835 16.032C8.66947 15.8909 4 12.5332 4 8.69739C4 7.06304 5.33025 5.73279 6.96518 5.73279C7.83698 5.73279 8.64982 6.12128 9.20308 6.75779C9.75634 6.12128 10.5692 5.73279 11.441 5.73279C13.0759 5.73279 14.4062 7.06304 14.4062 8.69796C14.4062 12.5332 9.7361 15.8909 9.53781 16.0326C9.43779 16.1037 9.32044 16.1389 9.20308 16.1389ZM6.96518 6.88903C5.96792 6.88903 5.15624 7.70071 5.15624 8.69796C5.15624 11.4001 8.17865 14.0224 9.20308 14.8341C10.2275 14.0224 13.2499 11.4001 13.2499 8.69796C13.2499 7.70071 12.4382 6.88903 11.441 6.88903C10.6877 6.88903 10.0067 7.36482 9.74535 8.07359C9.66153 8.3008 9.44473 8.45168 9.20308 8.45168C8.96142 8.45168 8.74463 8.3008 8.6608 8.07359C8.39949 7.36482 7.71847 6.88903 6.96518 6.88903Z" fill="#0E4271"/>
<path d="M35.7968 40.998C35.6795 40.998 35.5627 40.9622 35.4621 40.8911C35.2632 40.75 30.5938 37.3917 30.5938 33.5565C30.5938 31.9216 31.924 30.5913 33.5589 30.5913C34.4307 30.5913 35.2436 30.9798 35.7968 31.6163C36.3507 30.9792 37.1629 30.5913 38.0347 30.5913C39.6696 30.5913 40.9999 31.9216 40.9999 33.5565C40.9999 37.3917 36.3304 40.7494 36.1316 40.8911C36.0315 40.9622 35.9142 40.998 35.7968 40.998ZM33.5589 31.7481C32.5617 31.7481 31.75 32.5592 31.75 33.5571C31.75 36.2586 34.7724 38.8815 35.7968 39.6932C36.8213 38.8815 39.8437 36.2586 39.8437 33.5571C39.8437 32.5592 39.032 31.7481 38.0347 31.7481C37.282 31.7481 36.6004 32.2239 36.3391 32.9327C36.2553 33.1605 36.0385 33.3108 35.7968 33.3108C35.5552 33.3108 35.3384 33.1599 35.2546 32.9327C34.9932 32.2239 34.3122 31.7481 33.5589 31.7481Z" fill="#0E4271"/>
<path d="M28.8481 27.6476C28.6475 27.6476 28.4521 27.543 28.3457 27.3562C28.1873 27.0793 28.2839 26.7255 28.5608 26.5677C29.2343 26.1827 29.8546 25.7103 30.4039 25.1617L31.7445 23.8251C31.9711 23.5996 32.3365 23.5996 32.562 23.8262C32.7874 24.0523 32.7869 24.4182 32.5608 24.6437L31.2202 25.9803C30.5981 26.6006 29.8963 27.136 29.1343 27.5713C29.0435 27.6233 28.9453 27.6476 28.8481 27.6476Z" fill="#0E4271"/>
<path d="M12.0908 40.9981C11.9451 40.9981 11.7994 40.9432 11.6873 40.8339C11.4583 40.6107 11.4543 40.2448 11.6769 40.0164L17.8772 33.6612C18.1003 33.4322 18.4669 33.4288 18.6946 33.6508C18.9236 33.8739 18.9276 34.2399 18.7051 34.4682L12.5047 40.8235C12.3914 40.9397 12.2411 40.9981 12.0908 40.9981Z" fill="#0E4271"/>
<path d="M4.57798 30.0502C4.42593 30.0502 4.27389 29.9901 4.16 29.871C3.93973 29.6409 3.94783 29.2744 4.1785 29.0541L10.3285 23.177C12.7642 20.7477 14.4673 17.6837 15.2449 14.3242C15.3171 14.0132 15.6258 13.8201 15.9386 13.8912C16.2496 13.9635 16.4433 14.2739 16.3716 14.5849C15.5449 18.156 13.7348 21.4131 11.1362 24.0042L4.97746 29.8901C4.8653 29.9976 4.72193 30.0502 4.57798 30.0502Z" fill="#0E4271"/>
<path d="M32.1533 24.8113C32.0054 24.8113 31.8568 24.7546 31.744 24.6413C31.5186 24.4152 31.5192 24.0493 31.7452 23.8238L37.4657 18.1201C37.6836 17.9027 37.8033 17.6142 37.8033 17.3067C37.8033 16.9997 37.6831 16.7112 37.4657 16.4939C37.0153 16.0447 36.2817 16.0447 35.8302 16.4939L30.5184 21.7906C30.2918 22.0166 29.9264 22.0155 29.701 21.7894C29.4755 21.5634 29.4761 21.1974 29.7021 20.972L35.0139 15.6752C35.9152 14.7763 37.3813 14.7768 38.282 15.6752C38.7191 16.1106 38.9596 16.6898 38.9596 17.3067C38.9596 17.923 38.7191 18.5028 38.282 18.9387L32.5615 24.6424C32.4488 24.7546 32.3008 24.8113 32.1533 24.8113Z" fill="#0E4271"/>
<path d="M30.1089 21.9594C29.9609 21.9594 29.8124 21.9027 29.6996 21.7894C29.4742 21.5634 29.4747 21.1974 29.7008 20.9719L39.5063 11.1936C39.7231 10.9768 39.8433 10.6883 39.8433 10.3808C39.8433 10.0732 39.7236 9.78417 39.5068 9.56795C39.0559 9.11817 38.3223 9.11817 37.8713 9.56795L29.2909 18.1241C29.0643 18.3496 28.6989 18.349 28.4734 18.123C28.248 17.8969 28.2485 17.531 28.4746 17.3055L37.055 8.74933C37.9552 7.85093 39.4213 7.85036 40.3226 8.74933C40.7585 9.1835 40.999 9.76335 40.999 10.3808C40.999 10.9982 40.7585 11.5775 40.3226 12.0128L30.5165 21.7911C30.4038 21.9039 30.2558 21.9599 30.1083 21.9599L30.1089 21.9594Z" fill="#0E4271"/>
<path d="M28.8839 18.2924C28.7359 18.2924 28.5873 18.2357 28.4746 18.1224C28.2491 17.8964 28.2497 17.5304 28.4757 17.305L37.8725 7.93422C38.0893 7.71742 38.2095 7.42894 38.2095 7.12138C38.2095 6.81382 38.0899 6.52476 37.8725 6.30855C37.4221 5.85877 36.6885 5.85877 36.2376 6.30855L26.4315 16.0869C26.2055 16.3129 25.8395 16.3123 25.6141 16.0857C25.3886 15.8597 25.3892 15.4937 25.6152 15.2682L35.4213 5.48935C36.3231 4.59095 37.7892 4.59095 38.6888 5.48935C39.1253 5.9241 39.3652 6.50337 39.3652 7.1208C39.3652 7.73824 39.1247 8.31751 38.6888 8.75284L29.2915 18.1236C29.1787 18.2363 29.0313 18.2924 28.8839 18.2924Z" fill="#0E4271"/>
<path d="M26.0236 16.2551C25.8756 16.2551 25.727 16.1985 25.6143 16.0852C25.3888 15.8591 25.3894 15.4932 25.6154 15.2677L33.7871 7.1191C34.0039 6.90231 34.1242 6.61382 34.1242 6.30626C34.1242 5.9987 34.0045 5.70964 33.7871 5.49343C33.3362 5.04365 32.6032 5.04365 32.1522 5.49343L22.3456 15.2717C22.119 15.4978 21.7536 15.4966 21.5281 15.2706C21.3026 15.0445 21.3032 14.6786 21.5293 14.4531L31.3359 4.67423C32.236 3.77526 33.7022 3.77526 34.6034 4.67423C35.0399 5.10898 35.2798 5.68825 35.2798 6.30569C35.2798 6.92312 35.0393 7.50239 34.6034 7.93772L26.4317 16.0863C26.319 16.199 26.171 16.2551 26.0236 16.2551Z" fill="#0E4271"/>
<path d="M21.8667 15.4406C21.5476 15.4406 21.2886 15.1816 21.2886 14.8625V9.22986C21.2886 8.77199 21.1082 8.33725 20.7798 8.00541C20.4312 7.66258 19.9653 7.48163 19.4773 7.50475C18.8859 7.53077 18.2997 7.84931 17.7759 8.42743L16.3723 14.5833C16.3012 14.8949 15.9913 15.0891 15.6803 15.0186C15.3686 14.9475 15.1744 14.6376 15.2449 14.3266L16.681 8.02795C16.7018 7.93719 16.744 7.85278 16.8041 7.78225C17.7644 6.65203 18.7599 6.37973 19.4259 6.35025C20.2283 6.31441 21.0198 6.61965 21.5967 7.18737C22.1459 7.74236 22.4454 8.46559 22.4454 9.23044V14.8625C22.4454 15.1816 22.1858 15.4406 21.8667 15.4406Z" fill="#0E4271"/>
<path d="M27.125 40.9982C26.8059 40.9982 26.5469 40.7398 26.5469 40.4201V36.3732C26.5469 35.036 26.8527 33.8682 27.4563 32.9022C27.9962 32.0391 28.2812 31.0441 28.2812 30.0255V28.827C28.2812 28.5073 28.5402 28.2489 28.8594 28.2489C29.1785 28.2489 29.4375 28.5073 29.4375 28.827V30.0255C29.4375 31.2609 29.0912 32.4674 28.4367 33.515C27.943 34.3047 27.7031 35.2395 27.7031 36.3726V40.4195C27.7031 40.7392 27.4441 40.9982 27.125 40.9982Z" fill="#0E4271"/>
<path d="M19.032 40.998C18.7128 40.998 18.4538 40.7396 18.4538 40.4199V38.1074C18.4538 35.9984 17.8422 33.905 16.6854 32.0545C16.5166 31.7833 16.5987 31.4266 16.8692 31.2578C17.1404 31.0879 17.4965 31.1705 17.6659 31.4411C18.9377 33.4767 19.6095 35.781 19.6095 38.1068V40.4193C19.6095 40.739 19.3505 40.9974 19.0314 40.9974L19.032 40.998Z" fill="#0E4271"/>
<path d="M28.8593 29.405C28.5402 29.405 28.2812 29.1466 28.2812 28.8269V23.6146C28.2812 23.3174 28.0217 23.0758 27.7031 23.0758C27.3846 23.0758 27.125 23.3174 27.125 23.6146V28.2789C27.125 28.5986 26.866 28.857 26.5469 28.857C26.2277 28.857 25.9688 28.5986 25.9688 28.2789V23.6146C25.9688 22.6798 26.7469 21.9196 27.7031 21.9196C28.6593 21.9196 29.4375 22.6798 29.4375 23.6146V28.8269C29.4375 29.1466 29.1785 29.405 28.8593 29.405Z" fill="#0E4271"/>
<path d="M26.5468 28.8576C26.2277 28.8576 25.9687 28.5991 25.9687 28.2794V19.5637C25.9687 19.4261 25.9115 19.2949 25.8069 19.1943C25.6964 19.0879 25.5484 19.0295 25.3906 19.0295C25.0721 19.0295 24.8125 19.2694 24.8125 19.5637V27.6846C24.8125 28.0043 24.5535 28.2627 24.2344 28.2627C23.9152 28.2627 23.6562 28.0043 23.6562 27.6846V19.5637C23.6562 18.6318 24.4344 17.8733 25.3906 17.8733C25.8485 17.8733 26.2815 18.0461 26.6081 18.3606C26.9411 18.6815 27.125 19.1082 27.125 19.5637V28.2794C27.125 28.5991 26.866 28.8576 26.5468 28.8576Z" fill="#0E4271"/>
<path d="M24.2343 28.2795C23.9152 28.2795 23.6562 28.0211 23.6562 27.7014V18.9689C23.6562 18.837 23.5996 18.7116 23.4978 18.6145C23.3874 18.5098 23.2377 18.452 23.0781 18.452C22.7596 18.452 22.5 18.6838 22.5 18.9694V27.7019C22.5 28.0216 22.241 28.28 21.9219 28.28C21.6027 28.28 21.3438 28.0216 21.3438 27.7019V18.9694C21.3438 18.0468 22.1219 17.2958 23.0781 17.2958C23.5348 17.2958 23.9655 17.4657 24.2927 17.775C24.6286 18.093 24.8125 18.5173 24.8125 18.9689V27.7014C24.8125 28.0211 24.5535 28.2795 24.2343 28.2795Z" fill="#0E4271"/>
<path d="M19.6094 30.0138C19.2902 30.0138 19.0312 29.7554 19.0312 29.4357V20.6726C19.0312 19.7666 19.8094 19.0295 20.7656 19.0295C21.2189 19.0295 21.6484 19.1949 21.9745 19.4949C22.3132 19.8077 22.5 20.2257 22.5 20.6731V27.773C22.5 28.0927 22.241 28.3511 21.9218 28.3511C21.6027 28.3511 21.3437 28.0927 21.3437 27.773V20.6731C21.3437 20.5107 21.2478 20.398 21.1911 20.3459C21.0795 20.243 20.9281 20.1864 20.7656 20.1864C20.4471 20.1864 20.1875 20.4049 20.1875 20.6731V29.4363C20.1875 29.756 19.9285 30.0138 19.6094 30.0138Z" fill="#0E4271"/>
<path d="M17.1757 32.3264C16.9832 32.3264 16.7959 32.231 16.6861 32.0564L14.5054 28.5923C14.4563 28.5131 14.4262 28.4241 14.4187 28.3316C14.3349 27.3199 14.691 26.7001 15.0037 26.3579C15.3865 25.9393 15.9334 25.6971 16.5051 25.6936C17.0578 25.6971 17.5683 25.9092 17.9504 26.2914C17.9695 26.3099 17.9868 26.3301 18.003 26.3515L20.0715 29.0872C20.2641 29.3421 20.2138 29.7046 19.9588 29.8971C19.7039 30.0896 19.3414 30.0388 19.1489 29.785L17.1075 27.0846C16.9451 26.9342 16.7323 26.851 16.5057 26.8498C16.2588 26.8516 16.0259 26.9545 15.857 27.1383C15.653 27.3615 15.5524 27.6927 15.5639 28.1026L17.6648 31.4401C17.8348 31.7107 17.7539 32.0674 17.4839 32.2379C17.3879 32.298 17.281 32.3264 17.1757 32.3264Z" fill="#0E4271"/>
</svg>
