<svg width="44" height="44" viewBox="0 0 44 44" fill="none" xmlns="http://www.w3.org/2000/svg">
<path d="M38.1325 25.4414C38.2682 24.3849 37.3025 23.058 35.095 21.2652L34.97 21.1633C34.8591 21.0691 34.6913 20.9273 34.9688 19.8503C35.2541 18.7457 33.5255 15.471 32.6487 13.9118C33.3179 10.7567 31.4853 7.95767 27.7786 6.44077C27.855 6.36554 27.9233 6.28168 27.9763 6.17768C28.2279 5.68849 28.0552 5.11709 27.6955 4.35371C27.5504 4.04581 27.1837 3.91385 26.875 4.05896C26.5671 4.20407 26.4352 4.57158 26.5803 4.87989C26.7694 5.28152 26.8318 5.48829 26.8524 5.58901C26.6917 5.64697 26.3583 5.70781 26.0808 5.75879C26.0035 5.77276 25.9135 5.79044 25.8288 5.80606C23.9263 5.33044 21.8742 5.20177 19.8693 5.42375C19.3715 5.05542 18.7578 4.83426 18.0922 4.83426C16.8837 4.83426 15.842 5.55448 15.3676 6.58753C15.285 6.62288 15.2011 6.65618 15.1189 6.69318C14.9606 5.64368 14.0616 4.83426 12.9689 4.83426C11.7649 4.83426 10.7852 5.81346 10.7852 7.01752C10.7852 7.79447 11.1959 8.47317 11.8084 8.85999C11.2954 9.33438 10.8288 9.85687 10.4173 10.4283C10.1411 10.4357 9.871 10.4583 9.62928 10.4805C9.35797 10.5056 9.15571 10.5154 8.98347 10.5134C8.96867 10.3687 8.95716 10.1594 8.94565 9.95471C8.91359 9.38166 8.62418 9.06882 8.3874 8.90727C7.68157 8.42589 6.62797 8.73667 6.42407 8.80368C6.10055 8.91015 5.9246 9.25833 6.03107 9.58227C6.13713 9.90579 6.48409 10.0821 6.80967 9.97526C7.13648 9.86756 7.6084 9.84248 7.69555 9.92799C7.69925 9.93374 7.71117 9.96293 7.71446 10.0234C7.7827 11.25 7.86163 11.7478 9.15489 11.7478C9.2815 11.7478 9.44717 11.7347 9.62722 11.7187C9.54172 11.8864 9.45868 12.0557 9.3814 12.2305C5.68947 20.5919 10.5748 27.4882 13.4943 31.6089C14.24 32.6621 14.8846 33.5714 15.1205 34.1609C16.1663 36.777 15.2307 38.2577 15.1826 38.3309C14.9927 38.6104 15.0634 38.9915 15.3421 39.1843C15.4494 39.2583 15.5715 39.2941 15.6927 39.2941C15.8884 39.2941 16.0804 39.2012 16.2 39.0285C16.2572 38.9463 17.5759 36.9809 16.2654 33.7038C15.9752 32.9782 15.3244 32.0594 14.5006 30.8965C11.7328 26.9896 7.09989 20.4505 10.5094 12.7295C10.6701 12.3661 10.8514 12.0225 11.0492 11.6948C11.1877 11.7199 11.3032 11.7589 11.3751 11.8218C11.3978 11.8412 11.45 11.8868 11.4574 12.0488C11.5034 13.0604 11.9054 13.9447 12.5595 14.4741C13.0043 14.8343 13.5416 15.0188 14.1339 15.0188C14.2971 15.0188 14.4648 15.0049 14.6359 14.9765C14.9717 14.921 15.1994 14.6036 15.1435 14.2674C15.088 13.9315 14.7678 13.7038 14.4348 13.7597C13.9942 13.832 13.6246 13.7502 13.3356 13.5155C12.9545 13.2072 12.7194 12.6522 12.689 11.9924C12.6688 11.5415 12.4945 11.1612 12.1854 10.8916C12.0649 10.7867 11.9276 10.7103 11.7842 10.6453C12.2376 10.0895 12.7506 9.60035 13.3056 9.16748C13.9333 9.06882 14.4722 8.70748 14.8028 8.19322C14.9022 8.13937 15.0021 8.08675 15.1037 8.03577C15.1226 8.32106 15.1814 8.59526 15.2755 8.85342C14.7226 9.3759 14.3752 10.1134 14.3752 10.9327C14.3752 12.5121 15.6603 13.7967 17.2397 13.7967C18.2797 13.7967 19.1894 13.2376 19.6913 12.4056C19.9158 12.4323 20.1571 12.4504 20.4075 12.4504C21.4911 12.4504 22.7305 12.1252 23.3767 10.8336C23.9559 9.67517 23.5847 8.81149 23.3627 8.29517C23.3064 8.16444 23.2295 7.98562 23.2188 7.96096C23.2238 7.95315 23.3463 7.77021 24.1952 7.48739C24.8048 7.28431 25.3281 7.16305 25.7815 7.0722C26.0894 7.15359 26.3895 7.24279 26.6769 7.34187C30.0938 8.52003 31.8598 10.7119 31.5157 13.2795C30.1382 13.0197 26.9034 12.6469 25.1086 14.3969C23.9123 15.5635 23.6024 17.3949 24.1878 19.8408C24.1923 19.8589 24.1972 19.8766 24.2034 19.8943L25.1974 22.8421L24.9754 22.9433C23.5374 21.1982 20.5776 18.9434 17.8098 20.8632C17.6997 20.9409 15.1209 22.8056 15.8214 26.495C16.2716 28.862 17.2187 29.9646 17.846 30.6938C18.4248 31.368 18.514 31.4716 18.1629 32.0903C17.9948 32.3867 18.0992 32.7628 18.3952 32.9305C18.6912 33.0991 19.0681 32.9947 19.2355 32.6983C20.014 31.3252 19.3871 30.5956 18.7812 29.8897C18.2073 29.2217 17.4213 28.3075 17.0329 26.2644C16.4845 23.3757 18.4392 21.9295 18.5165 21.8736C21.2563 19.9736 24.166 23.9011 24.2885 24.0688C24.4607 24.3056 24.7764 24.3886 25.0432 24.267L26.2152 23.7321C26.5026 23.601 26.6444 23.2734 26.5433 22.9741L25.3807 19.5259C24.9117 17.547 25.1094 16.1185 25.9682 15.2803C27.4863 13.7983 30.687 14.3578 31.5951 14.5543C32.7338 16.5916 33.8527 19.0191 33.775 19.5424C33.5469 20.4262 33.3713 21.4264 34.1738 22.1051L34.3181 22.2231C36.8261 24.2591 36.9354 25.0813 36.9095 25.2848C36.9042 25.3243 36.891 25.4291 36.5885 25.5676L35.5858 26.1024C35.3219 26.243 35.1974 26.553 35.2895 26.8375C35.4099 27.207 35.5575 28.1151 35.2467 28.5632C35.1929 28.6413 35.028 28.8789 34.4455 28.9044C34.1997 28.9151 33.9839 29.0709 33.8963 29.3007C33.8083 29.5305 33.8659 29.7903 34.0418 29.9621L35.3606 31.2471C35.5049 31.4161 37.0065 33.2327 36.4088 34.5453C35.8428 35.7875 33.4199 36.4399 29.603 36.3885C29.5997 36.3885 29.5968 36.3885 29.5943 36.3885C29.2918 36.3885 29.0336 36.6085 28.9855 36.9077L28.7183 38.5784C28.6645 38.9146 28.8938 39.2308 29.2297 39.2846C29.263 39.29 29.2955 39.2924 29.3279 39.2924C29.6256 39.2924 29.8874 39.0766 29.9359 38.7732L30.1193 37.6251C34.3214 37.6169 36.748 36.775 37.5307 35.0562C38.4959 32.9379 36.3599 30.5142 36.2691 30.4118C36.2596 30.4011 36.2498 30.3913 36.2399 30.3814L35.6627 29.8186C35.9418 29.6542 36.1326 29.4499 36.2604 29.2653C36.7698 28.5307 36.6995 27.556 36.5885 26.9645L37.134 26.673C37.8715 26.3372 38.084 25.818 38.1325 25.4414ZM12.0189 7.0167C12.0189 6.49298 12.4452 6.06669 12.9693 6.06669C13.4935 6.06669 13.9193 6.49298 13.9193 7.0167C13.9193 7.13345 13.8951 7.24403 13.8569 7.34762C13.5309 7.53877 13.2135 7.74185 12.9085 7.96055C12.4131 7.92848 12.0189 7.51986 12.0189 7.0167ZM16.3275 7.83188C16.3275 7.71472 16.3402 7.60044 16.362 7.48944C17.356 7.12111 18.4005 6.86789 19.4546 6.72195C19.7029 7.02615 19.8578 7.40928 19.8578 7.83188C19.8578 8.29681 19.6737 8.71735 19.3789 9.03265C18.854 8.44151 18.091 8.0666 17.2401 8.0666C16.9363 8.0666 16.6436 8.11511 16.3682 8.20349C16.3427 8.08346 16.3275 7.95972 16.3275 7.83188ZM18.1646 9.59008C18.1399 9.5909 18.1173 9.59748 18.0926 9.59748C17.7391 9.59748 17.4111 9.49059 17.1344 9.31095C17.1702 9.3089 17.2039 9.30026 17.2401 9.30026C17.5837 9.30026 17.9019 9.40797 18.1646 9.59008ZM15.6093 10.9306C15.6093 10.5537 15.7429 10.2112 15.9587 9.93456C16.5026 10.4871 17.2581 10.8307 18.0931 10.8307C18.3553 10.8307 18.6081 10.7933 18.8507 10.73C18.8593 10.7966 18.8712 10.862 18.8712 10.931C18.8712 10.9475 18.8667 10.9623 18.8663 10.9783C18.8215 10.9647 18.789 10.9545 18.7845 10.9528C18.4634 10.8414 18.1116 11.0124 18.0006 11.3335C17.8912 11.6484 18.0532 11.9904 18.3623 12.1092C18.0696 12.3879 17.6758 12.5618 17.2405 12.5618C16.341 12.5618 15.6093 11.8301 15.6093 10.9306ZM22.097 7.44957C21.8726 7.94945 22.0711 8.41027 22.2302 8.78065C22.4271 9.2386 22.5973 9.63447 22.2738 10.2803C21.8532 11.1218 20.8962 11.257 20.0901 11.2007C20.0987 11.1115 20.1037 11.0215 20.1037 10.9306C20.1037 10.6593 20.063 10.3983 19.9923 10.1491C20.6623 9.59871 21.0907 8.76462 21.0907 7.83188C21.0907 7.38955 20.992 6.97107 20.8194 6.59246C21.5716 6.55135 22.3186 6.55999 23.045 6.61631C22.5389 6.85802 22.2454 7.11824 22.097 7.44957Z" fill="#0E4271"/>
<path d="M30.8891 21.7088H32.325C32.6654 21.7088 32.9416 21.433 32.9416 21.0922C32.9416 20.7514 32.6654 20.4756 32.325 20.4756H30.8891C30.5487 20.4756 30.2725 20.7514 30.2725 21.0922C30.2725 21.433 30.5487 21.7088 30.8891 21.7088Z" fill="#0E4271"/>
</svg>
