<svg width="44" height="44" viewBox="0 0 44 44" fill="none" xmlns="http://www.w3.org/2000/svg">
<path d="M41.7533 37.2344H2.75006C2.65156 37.2345 2.55401 37.2151 2.46299 37.1774C2.37198 37.1397 2.28928 37.0845 2.21963 37.0148C2.14997 36.9452 2.09473 36.8625 2.05704 36.7715C2.01936 36.6804 1.99997 36.5829 2 36.4844V31.2339C1.99997 31.1354 2.01936 31.0379 2.05704 30.9469C2.09473 30.8559 2.14998 30.7732 2.21963 30.7035C2.28929 30.6339 2.37198 30.5786 2.463 30.5409C2.55401 30.5032 2.65156 30.4839 2.75006 30.4839H41.7533C41.8518 30.4839 41.9494 30.5032 42.0404 30.5409C42.1314 30.5786 42.2141 30.6339 42.2837 30.7035C42.3534 30.7732 42.4086 30.8559 42.4463 30.9469C42.484 31.0379 42.5034 31.1354 42.5034 31.2339V36.4844C42.5034 36.5829 42.484 36.6804 42.4463 36.7715C42.4086 36.8625 42.3534 36.9452 42.2837 37.0148C42.2141 37.0845 42.1314 37.1397 42.0404 37.1774C41.9494 37.2151 41.8518 37.2345 41.7533 37.2344ZM3.50012 35.7343H41.0032V31.984H3.50012V35.7343Z" fill="#0E4271"/>
<path d="M41.7533 31.9838H2.75006C2.59836 31.9839 2.45021 31.9379 2.32519 31.8519C2.20017 31.766 2.10414 31.6442 2.04979 31.5026C1.99544 31.3609 1.98531 31.2061 2.02076 31.0586C2.0562 30.9111 2.13554 30.7778 2.24831 30.6764L9.74893 23.9258C9.88668 23.8019 10.0654 23.7333 10.2507 23.7332H34.2527C34.438 23.7333 34.6167 23.8019 34.7545 23.9258L42.2551 30.6764C42.3679 30.7778 42.4472 30.9111 42.4826 31.0586C42.5181 31.2062 42.508 31.3609 42.4536 31.5026C42.3992 31.6442 42.3032 31.766 42.1782 31.852C42.0532 31.9379 41.905 31.9839 41.7533 31.9838ZM4.70472 30.4837H39.7986L33.9648 25.2333H10.5385L4.70472 30.4837Z" fill="#0E4271"/>
<path d="M34.253 25.2334H10.251C10.1525 25.2334 10.055 25.2141 9.96397 25.1764C9.87296 25.1387 9.79026 25.0834 9.72061 25.0138C9.65095 24.9441 9.5957 24.8614 9.55802 24.7704C9.52033 24.6794 9.50095 24.5819 9.50098 24.4834V15.4826C9.50095 15.3841 9.52033 15.2866 9.55802 15.1955C9.5957 15.1045 9.65095 15.0218 9.72061 14.9522C9.79026 14.8825 9.87296 14.8273 9.96397 14.7896C10.055 14.7519 10.1525 14.7325 10.251 14.7325H34.253C34.3515 14.7325 34.4491 14.7519 34.5401 14.7896C34.6311 14.8273 34.7138 14.8825 34.7835 14.9522C34.8531 15.0218 34.9084 15.1045 34.9461 15.1955C34.9837 15.2866 35.0031 15.3841 35.0031 15.4826V24.4834C35.0031 24.5819 34.9837 24.6794 34.9461 24.7704C34.9084 24.8614 34.8531 24.9441 34.7835 25.0138C34.7138 25.0834 34.6311 25.1387 34.5401 25.1764C34.4491 25.2141 34.3515 25.2334 34.253 25.2334ZM11.0011 23.7333H33.503V16.2327H11.0011V23.7333Z" fill="#0E4271"/>
<path d="M17.7505 25.2333H14.7502C13.9545 25.2333 13.1914 24.9172 12.6288 24.3545C12.0661 23.7919 11.75 23.0288 11.75 22.233C11.75 21.4373 12.0661 20.6742 12.6288 20.1115C13.1914 19.5489 13.9545 19.2328 14.7502 19.2328H17.7505C18.5462 19.2328 19.3093 19.5489 19.872 20.1115C20.4347 20.6742 20.7507 21.4373 20.7507 22.233C20.7507 23.0288 20.4347 23.7919 19.872 24.3545C19.3093 24.9172 18.5462 25.2333 17.7505 25.2333ZM14.7502 20.7329C14.3524 20.7329 13.9708 20.891 13.6895 21.1723C13.4082 21.4536 13.2501 21.8352 13.2501 22.233C13.2501 22.6309 13.4082 23.0125 13.6895 23.2938C13.9708 23.5751 14.3524 23.7332 14.7502 23.7332H17.7505C18.1484 23.7332 18.5299 23.5751 18.8112 23.2938C19.0926 23.0125 19.2506 22.6309 19.2506 22.233C19.2506 21.8352 19.0926 21.4536 18.8112 21.1723C18.5299 20.891 18.1484 20.7329 17.7505 20.7329H14.7502Z" fill="#0E4271"/>
<path d="M29.7534 25.2333H26.7532C25.9575 25.2333 25.1943 24.9172 24.6317 24.3545C24.069 23.7919 23.7529 23.0288 23.7529 22.233C23.7529 21.4373 24.069 20.6742 24.6317 20.1115C25.1943 19.5489 25.9575 19.2328 26.7532 19.2328H29.7534C30.5491 19.2328 31.3123 19.5489 31.8749 20.1115C32.4376 20.6742 32.7537 21.4373 32.7537 22.233C32.7537 23.0288 32.4376 23.7919 31.8749 24.3545C31.3123 24.9172 30.5491 25.2333 29.7534 25.2333ZM26.7532 20.7329C26.3553 20.7329 25.9738 20.891 25.6924 21.1723C25.4111 21.4536 25.2531 21.8352 25.2531 22.233C25.2531 22.6309 25.4111 23.0125 25.6924 23.2938C25.9738 23.5751 26.3553 23.7332 26.7532 23.7332H29.7534C30.1513 23.7332 30.5328 23.5751 30.8142 23.2938C31.0955 23.0125 31.2536 22.6309 31.2536 22.233C31.2536 21.8352 31.0955 21.4536 30.8142 21.1723C30.5328 20.891 30.1513 20.7329 29.7534 20.7329H26.7532Z" fill="#0E4271"/>
<path d="M22.0721 13.6609L17.1345 7.15275C16.5024 6.50072 16.1522 5.62629 16.1593 4.71823C16.1664 3.81017 16.5304 2.94134 17.1726 2.29932L17.459 2.01291C18.062 1.41021 18.8663 1.05133 19.7176 1.00509C20.569 0.958863 21.4074 1.22853 22.0721 1.76239C22.737 1.22856 23.5755 0.958908 24.4268 1.00514C25.2782 1.05137 26.0826 1.41023 26.6857 2.01291L26.9721 2.29932C27.6141 2.94145 27.978 3.81028 27.985 4.71831C27.9921 5.62633 27.6418 6.50071 27.0098 7.15275L22.0721 13.6609ZM19.9044 2.50002C19.385 2.50011 18.8869 2.7064 18.5196 3.07355L18.2332 3.35995C18.0513 3.54189 17.9069 3.75789 17.8085 3.99562C17.71 4.23334 17.6593 4.48813 17.6593 4.74544C17.6593 5.00275 17.71 5.25755 17.8085 5.49527C17.9069 5.73299 18.0513 5.94899 18.2332 6.13094L18.3006 6.20785L22.0721 11.1792L25.9111 6.13094C26.093 5.94899 26.2374 5.73299 26.3358 5.49527C26.4343 5.25755 26.485 5.00275 26.485 4.74544C26.485 4.48813 26.4343 4.23334 26.3358 3.99562C26.2374 3.75789 26.093 3.54189 25.9111 3.35995L25.6247 3.07355C25.4261 2.8752 25.1873 2.7218 24.9243 2.62375C24.6613 2.52569 24.3804 2.48526 24.1004 2.50519C23.8205 2.52512 23.5481 2.60495 23.3016 2.73928C23.0552 2.8736 22.8405 3.05929 22.672 3.28377L22.0721 4.08291L21.4722 3.28377C21.3039 3.05917 21.0892 2.8734 20.8428 2.73905C20.5963 2.60471 20.3239 2.52493 20.0439 2.50514C19.9974 2.50148 19.9509 2.50002 19.9044 2.50002Z" fill="#0E4271"/>
<path d="M8.00135 42.4848H4.25104C4.15253 42.4848 4.05498 42.4655 3.96397 42.4278C3.87296 42.3901 3.79026 42.3348 3.72061 42.2652C3.65095 42.1955 3.5957 42.1128 3.55802 42.0218C3.52033 41.9308 3.50095 41.8333 3.50098 41.7348V36.4843C3.50095 36.3858 3.52033 36.2883 3.55802 36.1973C3.5957 36.1062 3.65095 36.0235 3.72061 35.9539C3.79026 35.8842 3.87296 35.829 3.96397 35.7913C4.05499 35.7536 4.15253 35.7342 4.25104 35.7343H8.00135C8.09986 35.7342 8.1974 35.7536 8.28842 35.7913C8.37943 35.829 8.46213 35.8842 8.53178 35.9539C8.60144 36.0235 8.65668 36.1062 8.69437 36.1973C8.73205 36.2883 8.75144 36.3858 8.75141 36.4843V41.7348C8.75144 41.8333 8.73206 41.9308 8.69437 42.0218C8.65669 42.1128 8.60144 42.1955 8.53178 42.2652C8.46213 42.3348 8.37943 42.3901 8.28842 42.4278C8.1974 42.4655 8.09986 42.4848 8.00135 42.4848ZM5.0011 40.9847H7.25129V37.2344H5.0011V40.9847Z" fill="#0E4271"/>
<path d="M40.2533 42.4848H36.503C36.4045 42.4848 36.3069 42.4655 36.2159 42.4278C36.1249 42.3901 36.0422 42.3348 35.9726 42.2652C35.9029 42.1955 35.8477 42.1128 35.81 42.0218C35.7723 41.9308 35.7529 41.8333 35.7529 41.7348V36.4843C35.7529 36.3858 35.7723 36.2883 35.81 36.1973C35.8477 36.1062 35.9029 36.0235 35.9726 35.9539C36.0422 35.8842 36.1249 35.829 36.2159 35.7913C36.3069 35.7536 36.4045 35.7342 36.503 35.7343H40.2533C40.3518 35.7342 40.4494 35.7536 40.5404 35.7913C40.6314 35.829 40.7141 35.8842 40.7837 35.9539C40.8534 36.0235 40.9086 36.1062 40.9463 36.1973C40.984 36.2883 41.0034 36.3858 41.0034 36.4843V41.7348C41.0034 41.8333 40.984 41.9308 40.9463 42.0218C40.9086 42.1128 40.8534 42.1955 40.7837 42.2652C40.7141 42.3348 40.6314 42.3901 40.5404 42.4278C40.4494 42.4655 40.3518 42.4848 40.2533 42.4848ZM37.2531 40.9847H39.5032V37.2344H37.2531V40.9847Z" fill="#0E4271"/>
</svg>
