<svg width="128" height="128" viewBox="0 0 128 128" fill="none" xmlns="http://www.w3.org/2000/svg">
<path d="M64.8408 88.2249H62.4504C59.0274 84.3046 56.9047 80.021 56.1589 75.4888C63.4066 72.4865 68.9141 65.2579 70.463 56.3657C73.5419 55.8876 75.9131 53.2486 75.9131 50.0359C75.9131 48.0088 74.957 46.2112 73.4845 45.0256C74.2877 42.5205 75.2056 38.256 75.6837 31.2187C76.1044 24.8124 72.8343 18.2532 66.9635 13.6636C60.1748 8.36648 51.2825 6.76013 43.1934 9.38001C28.6024 14.1034 23.9937 10.9864 23.9746 10.9672C23.5348 10.623 22.9611 10.5656 22.4639 10.7951C21.9667 11.0437 21.6416 11.5409 21.6416 12.0955C21.6224 17.0102 24.0128 20.089 25.4662 21.5041C19.9778 30.6067 22.3491 40.0918 24.1658 44.7961C22.5403 45.9626 21.4503 47.875 21.4503 50.0168C21.4503 53.2295 23.8216 55.8685 26.9004 56.3465C28.4494 65.2579 33.976 72.4865 41.2428 75.4888C40.4779 80.0401 38.4126 84.209 34.9322 88.2057H32.5418C15.8855 88.2057 2.32715 101.764 2.32715 118.42C2.32715 119.204 2.97734 119.855 3.76139 119.855C4.54544 119.855 5.19563 119.204 5.19563 118.42C5.19563 105.417 14.3365 94.5164 26.5371 91.7627C27.2255 92.9674 28.8128 95.6829 29.5586 96.7347C32.6948 101.152 39.3305 108.572 48.7009 108.572C58.0521 108.572 64.707 101.152 67.8432 96.7347C68.589 95.6829 70.1762 92.9483 70.8646 91.7627C83.0461 94.5164 92.187 105.417 92.187 118.42C92.187 119.204 92.8372 119.855 93.6212 119.855C94.4053 119.855 95.0554 119.204 95.0554 118.42C95.0554 101.783 81.4971 88.2249 64.8408 88.2249ZM70.8073 53.3251C70.8455 52.6558 70.9029 51.9673 70.9029 51.298C70.9029 49.7682 70.7308 48.2192 70.4822 46.6511C70.6543 46.7084 70.8455 46.7276 71.0176 46.8232C72.2224 47.3969 73.0638 48.6208 73.0638 50.0359C73.0447 51.5084 72.1268 52.7896 70.8073 53.3251ZM26.8048 43.6679C25.122 39.2313 22.9611 30.2816 28.545 22.0204C28.9849 21.3702 28.8128 20.4714 28.1626 20.0316C28.0287 19.936 25.4853 18.1384 24.7204 14.3329C27.7036 15.117 33.5744 15.4994 44.073 12.1146C51.2634 9.80071 59.1612 11.2158 65.2042 15.9393C70.3483 19.936 73.1976 25.5773 72.8343 31.0466C72.3945 37.6058 71.5531 41.5452 70.9029 43.7444C70.8837 43.7444 69.2583 43.5914 69.1435 43.5914C67.671 41.5452 66.0838 38.0839 65.9691 32.5764C65.95 31.6585 65.4719 30.8553 64.6687 30.4155C63.8655 29.9757 62.9285 29.9757 62.1444 30.4537C57.9565 32.9398 47.0945 37.95 36.8254 30.5111C36.1369 30.0139 35.2573 29.8992 34.4541 30.2051C33.6509 30.5111 33.0581 31.1996 32.886 32.041C32.3314 34.527 30.9928 39.2313 28.0478 43.6105C28.0096 43.5722 27.0343 43.6296 26.8048 43.6679ZM24.3188 50.0168C24.3188 48.5443 25.2176 47.263 26.4988 46.7276H26.518C26.5562 46.7084 26.5753 46.7084 26.5945 46.6893C26.6901 46.6511 26.7857 46.632 26.8813 46.5937C26.6327 48.1618 26.4415 49.7299 26.4415 51.2789C26.4415 51.9673 26.4797 52.6366 26.5371 53.3059C25.2558 52.7896 24.3188 51.5084 24.3188 50.0168ZM29.3291 51.2789C29.3291 49.5004 29.5394 47.6646 29.941 45.8479C33.2876 41.1818 34.8748 36.0568 35.5632 33.131C46.6929 40.8568 58.1668 36.0186 63.1006 33.2075C63.3492 39.7285 65.5101 43.7252 67.3268 45.9626C67.3651 46.02 67.4224 46.0391 67.4798 46.0774C67.824 47.8367 68.0344 49.5769 68.0344 51.298C68.0344 63.9002 59.3525 74.1693 48.7009 74.1693C38.0301 74.1502 29.3291 63.9002 29.3291 51.2789ZM44.0157 76.4259C45.5264 76.8083 47.0945 77.0187 48.7009 77.0187C50.3263 77.0187 51.8944 76.8083 53.4052 76.4259C54.2657 81.1493 56.4457 85.605 59.907 89.6782C59.8114 89.8121 59.6967 89.9268 59.5819 90.0798C57.3063 92.8336 53.0609 97.9586 48.7009 97.9586C44.3408 97.9586 40.1145 92.8336 37.8389 90.0798C37.7242 89.946 37.6094 89.8121 37.5138 89.6782C40.956 85.5667 43.136 81.1302 44.0157 76.4259ZM65.5101 95.0901C62.699 99.0677 56.7517 105.723 48.7009 105.723C40.6118 105.723 34.7027 99.0677 31.8916 95.0901C31.3561 94.3443 30.3044 92.5658 29.5586 91.2655C30.553 91.1507 31.5474 91.0933 32.5609 91.0933H34.9513C35.1616 91.3419 35.372 91.5906 35.6206 91.8965C38.2022 95.0136 42.983 100.827 48.7009 100.827C54.3996 100.827 59.2186 95.0136 61.8002 91.8965C62.0488 91.5906 62.2783 91.3228 62.4887 91.0933H64.8599C65.8735 91.0933 66.887 91.1507 67.8814 91.2655C67.0974 92.5658 66.0265 94.3443 65.5101 95.0901Z" fill="#C7E3F8"/>
<path d="M51.1881 65.5642C51.475 65.9467 51.9148 66.157 52.3546 66.157C52.6415 66.157 52.9475 66.0614 53.1961 65.8893C53.8271 65.4303 53.9801 64.5316 53.502 63.8814C52.4311 62.4089 50.6336 61.5483 48.7021 61.5483C46.7707 61.5483 44.9731 62.428 43.9022 63.8814C43.4432 64.5124 43.5771 65.4112 44.2082 65.8893C44.8392 66.3483 45.738 66.2144 46.2161 65.5833C47.2679 64.1108 50.1172 64.1109 51.1881 65.5642Z" fill="#C7E3F8"/>
<path d="M99.1882 87.6319L97.6966 88.0718C97.0081 88.263 96.2623 88.0144 95.8416 87.479C95.3827 86.9053 95.3253 86.1403 95.6695 85.5093L100.355 76.923C100.642 76.3875 100.565 75.7373 100.183 75.2975C99.781 74.8385 99.1499 74.6856 98.5954 74.915L95.44 76.1389C94.7707 76.4066 94.044 76.2345 93.5468 75.7373C93.0496 75.2401 92.9158 74.4943 93.1835 73.825L98.7292 60.5535C98.9587 60.0181 98.8248 59.4061 98.4232 59.0045C95.746 56.2699 92.17 54.7783 88.3453 54.7783C80.5622 54.7783 74.2324 61.1272 74.2324 68.9486C74.2324 81.0918 89.4545 94.0191 95.9946 99.0294C96.2432 99.2206 96.5492 99.3162 96.8743 99.3162C97.0273 99.3162 97.1611 99.2971 97.3141 99.2397C97.7539 99.1059 98.1173 98.7425 98.2511 98.3027L101.005 89.4486C101.158 88.9514 101.024 88.3969 100.661 88.0144C100.24 87.6128 99.7045 87.479 99.1882 87.6319ZM96.0902 95.4533C90.0664 90.6343 77.0818 79.0456 77.0818 68.9295C77.0818 62.6953 82.1303 57.6277 88.3262 57.6277C91.0608 57.6277 93.6425 58.5838 95.6695 60.3623L90.5254 72.7159C89.7987 74.437 90.1812 76.4066 91.4815 77.7453C92.6672 78.9691 94.3883 79.409 95.9755 78.9883L93.1644 84.1515C92.2656 85.7961 92.4377 87.7849 93.6233 89.2957C94.5795 90.4622 96.0137 91.0741 97.4862 91.0167L96.0902 95.4533Z" fill="#C7E3F8"/>
<path d="M110.544 54.7593C108.594 54.7593 106.682 55.1609 104.884 55.9449C104.54 56.0979 104.272 56.3656 104.138 56.7098L99.3191 68.222C99.0896 68.7574 99.2044 69.3694 99.606 69.771C100.008 70.1726 100.619 70.3064 101.155 70.1152L105.439 68.4515C106.127 68.1838 106.911 68.375 107.389 68.9296C107.886 69.4841 107.963 70.2873 107.599 70.9375L102.379 80.5373C102.111 81.0345 102.149 81.6465 102.494 82.0863C102.838 82.5261 103.411 82.7365 103.966 82.6026C104.578 82.4496 105.19 82.6409 105.63 83.0807C106.089 83.5397 106.242 84.2281 106.05 84.8592L102.589 95.9315C102.398 96.5243 102.627 97.1936 103.144 97.5378C103.392 97.7099 103.679 97.7864 103.947 97.7864C104.272 97.7864 104.578 97.6717 104.846 97.4613C112.304 91.5332 124.715 79.9063 124.715 68.9296C124.715 61.1082 118.366 54.7593 110.544 54.7593ZM106.835 92.0686L108.823 85.7197C109.34 84.0942 108.919 82.3158 107.733 81.0728C107.236 80.5756 106.643 80.1931 105.993 79.9636L110.162 72.3144C111.118 70.6124 110.87 68.4897 109.588 67.0364C108.307 65.583 106.223 65.0667 104.425 65.7934L103.297 66.2332L106.586 58.3736C107.867 57.8955 109.206 57.6469 110.564 57.6469C116.798 57.6469 121.865 62.7145 121.865 68.9487C121.846 77.2099 113.107 86.4846 106.835 92.0686Z" fill="#C7E3F8"/>
</svg>
