<svg width="128" height="128" viewBox="0 0 128 128" fill="none" xmlns="http://www.w3.org/2000/svg">
<path d="M64.0004 63.6159C78.8484 63.6159 89.6004 44.2879 89.6004 31.3599C89.6004 17.6639 78.0804 6.3999 64.0004 6.3999C49.9204 6.3999 38.4004 17.6639 38.4004 31.3599C38.4004 44.4159 49.1524 63.6159 64.0004 63.6159ZM64.0004 61.0559C53.7604 61.0559 44.5444 49.4079 41.7284 37.8879C44.6724 38.2719 47.6164 38.3999 50.5604 38.3999H52.3524H52.7364C56.7044 38.2719 60.5444 37.8879 64.5124 37.2479C72.3204 35.8399 79.8724 33.2799 86.9124 29.6959C86.9124 30.2079 87.0404 30.8479 87.0404 31.3599C87.0404 44.5439 76.1604 61.0559 64.0004 61.0559ZM40.9604 31.3599C40.9604 29.9519 41.0884 28.6719 41.3444 27.3919C43.3924 27.6479 45.4404 27.9039 47.6164 28.0319C45.5684 29.8239 43.3924 31.4879 41.0884 33.0239C40.9604 32.5119 40.9604 31.8719 40.9604 31.3599ZM43.9044 20.6079C47.7444 20.6079 51.4564 20.2239 55.2964 19.5839C55.4244 19.5839 55.5524 19.5839 55.8084 19.4559C55.1684 20.2239 54.5284 20.9919 53.8884 21.7599C52.7364 23.0399 51.5844 24.3199 50.3044 25.4719C47.4884 25.4719 44.6724 25.2159 41.8564 24.8319C42.3684 23.2959 42.8804 21.8879 43.6484 20.6079H43.9044ZM65.6644 9.0879C69.1204 9.2159 72.3204 10.2399 75.1364 11.7759C72.8324 15.8719 70.1444 19.7119 66.9444 23.2959L66.8164 23.4239C66.6884 23.5519 66.5604 23.8079 66.3044 23.9359C62.0804 28.5439 57.2164 32.5119 51.9684 35.7119C48.6404 35.7119 45.3124 35.5839 42.1124 35.1999C45.4404 33.0239 48.5124 30.5919 51.3284 27.9039L51.7124 27.5199C53.1204 26.2399 54.5284 24.8319 55.8084 23.2959C57.2164 21.6319 58.6244 19.9679 59.9044 18.1759C62.0804 15.4879 64.0004 12.2879 65.6644 9.0879ZM67.9684 25.9839C73.4724 24.5759 78.8484 22.5279 83.7124 19.8399C84.9924 22.0159 86.0164 24.4479 86.5284 26.8799C79.4884 30.5919 71.9364 33.1519 64.0004 34.5599C61.6964 34.9439 59.3924 35.1999 56.9604 35.4559C61.0564 32.7679 64.6404 29.5679 67.9684 25.9839ZM82.3044 17.7919C78.7204 19.7119 74.8804 21.2479 71.0404 22.5279C73.4724 19.5839 75.5204 16.3839 77.4404 13.1839C79.2324 14.4639 80.8964 15.9999 82.3044 17.7919ZM62.7204 8.9599C61.3124 11.5199 59.7764 14.0799 58.1124 16.3839C57.0884 16.6399 56.0644 16.7679 54.9124 17.0239C51.8404 17.5359 48.6404 17.9199 45.5684 17.9199C49.5364 12.7999 55.6804 9.3439 62.7204 8.9599Z" fill="#C7E3F8"/>
<path d="M106.24 121.6C109.056 121.6 111.36 119.296 111.36 116.48V111.36V103.68V102.4V96.7678C111.36 87.5518 107.008 78.9758 99.5837 73.4718C99.4557 73.2158 99.1997 73.0878 98.9437 72.9598C94.3357 69.7598 89.0877 67.9678 83.4557 67.8398H83.3277H83.1997C82.8157 67.8398 82.3037 67.8398 81.9197 68.0958C77.0557 72.1918 71.0397 74.2398 63.9997 74.2398C56.9597 74.2398 50.9437 72.1918 46.2077 68.0958C45.8237 67.8398 45.1837 67.8398 44.7997 67.8398C44.7997 67.8398 44.7997 67.8398 44.6717 67.8398C28.9277 68.2238 16.5117 80.8958 16.5117 96.7678V112.256C16.5117 114.56 18.0477 116.608 20.3517 117.12C29.5677 119.296 40.4477 120.704 51.9677 121.344L63.9997 121.6H101.12H106.24ZM50.5597 103.168L36.2237 72.1918C38.7837 71.2958 41.4717 70.6558 44.2877 70.5278L70.3997 99.8398L69.3757 102.4H54.3997C52.9917 102.4 51.7117 102.656 50.5597 103.168ZM71.4237 104.192L83.9677 70.6558L97.4077 75.1358L104.704 119.04H101.12H65.7917L71.4237 104.192ZM108.8 116.48C108.8 117.504 108.16 118.4 107.264 118.784L104.96 104.96H108.8V111.36V116.48ZM108.8 96.7678V102.4H104.576L100.48 77.4398C105.728 82.4318 108.8 89.4718 108.8 96.7678ZM80.6397 72.1918L71.2957 97.1518L50.9437 74.2398C54.7837 76.0318 59.1357 76.7998 63.9997 76.7998C70.3997 76.7998 75.9037 75.2638 80.6397 72.1918ZM21.1197 114.688C19.9677 114.432 19.1997 113.408 19.1997 112.384V96.7678C19.1997 86.3998 25.0877 77.4398 33.7917 73.2158L48.2557 104.576C47.9997 104.832 47.7437 104.96 47.4877 105.216C45.6957 107.008 44.6717 109.44 44.6717 112C44.6717 114.432 45.5677 116.736 47.1037 118.4C37.7597 117.76 28.7997 116.48 21.1197 114.688ZM47.3597 112C47.3597 110.08 48.1277 108.416 49.4077 107.008C50.6877 105.728 52.4797 104.96 54.3997 104.96H68.3517L63.1037 119.04L52.3517 118.784C49.4077 117.888 47.3597 115.072 47.3597 112Z" fill="#C7E3F8"/>
</svg>
