<svg width="128" height="128" viewBox="0 0 128 128" fill="none" xmlns="http://www.w3.org/2000/svg">
<path d="M67.4507 15.127H60.9398C51.4458 15.1377 42.3437 18.914 35.6304 25.6273C28.9171 32.3406 25.1408 41.4427 25.13 50.9368V58.0174C23.2277 58.6899 21.5804 59.9352 20.4145 61.582C19.2486 63.2288 18.6214 65.1963 18.6191 67.214V86.7466C18.6217 89.336 19.6515 91.8186 21.4825 93.6496C23.3135 95.4805 25.7961 96.5103 28.3855 96.5129H35.1958C35.5781 97.5981 36.332 98.513 37.3241 99.0955C38.3163 99.6781 39.4825 99.8907 40.6164 99.6957C41.7503 99.5008 42.7786 98.9108 43.5192 98.0303C44.2598 97.1499 44.6648 96.0357 44.6626 94.8852V59.0754C44.6648 57.9249 44.2598 56.8107 43.5192 55.9302C42.7786 55.0497 41.7503 54.4598 40.6164 54.2648C39.4825 54.0699 38.3163 54.2825 37.3241 54.865C36.332 55.4476 35.5781 56.3625 35.1958 57.4477H34.8963V50.9368C34.9045 44.0321 37.651 37.4126 42.5333 32.5303C47.4157 27.6479 54.0352 24.9015 60.9398 24.8933H67.4507C74.3554 24.9015 80.9749 27.6479 85.8572 32.5303C90.7395 37.4126 93.486 44.0321 93.4942 50.9368V57.4477H93.1947C92.8125 56.3625 92.0586 55.4476 91.0664 54.865C90.0743 54.2825 88.908 54.0699 87.7741 54.2648C86.6402 54.4598 85.612 55.0497 84.8714 55.9302C84.1308 56.8107 83.7257 57.9249 83.7279 59.0754V94.8852C83.7257 96.0357 84.1308 97.1499 84.8714 98.0303C85.612 98.9108 86.6402 99.5008 87.7741 99.6957C88.908 99.8907 90.0743 99.6781 91.0664 99.0955C92.0586 98.513 92.8125 97.5981 93.1947 96.5129H95.1219V101.396C95.1219 101.828 94.9505 102.242 94.6452 102.547C94.3399 102.852 93.9259 103.024 93.4942 103.024H67.4507C66.1556 103.024 64.9136 103.538 63.9978 104.454C63.082 105.37 62.5676 106.612 62.5676 107.907C62.5676 109.202 63.082 110.444 63.9978 111.36C64.9136 112.276 66.1556 112.79 67.4507 112.79H96.7497C98.9074 112.788 100.976 111.929 102.502 110.404C104.027 108.878 104.886 106.809 104.888 104.652V95.1912C106.371 94.3352 107.603 93.1044 108.46 91.6222C109.317 90.1401 109.769 88.4587 109.771 86.7466V67.214C109.769 65.1963 109.142 63.2288 107.976 61.582C106.81 59.9352 105.163 58.6899 103.261 58.0174V50.9368C103.25 41.4427 99.4735 32.3406 92.7602 25.6273C86.0469 18.914 76.9448 15.1377 67.4507 15.127ZM21.8746 86.7466V67.214C21.8746 65.4872 22.5605 63.8311 23.7816 62.6101C25.0026 61.3891 26.6587 60.7031 28.3855 60.7031H34.8963V93.2575H28.3855C26.6587 93.2575 25.0026 92.5715 23.7816 91.3505C22.5605 90.1295 21.8746 88.4734 21.8746 86.7466ZM39.7795 57.4477C40.2112 57.4477 40.6252 57.6191 40.9305 57.9244C41.2357 58.2297 41.4072 58.6437 41.4072 59.0754V94.8852C41.4072 95.3169 41.2357 95.7309 40.9305 96.0362C40.6252 96.3414 40.2112 96.5129 39.7795 96.5129C39.3478 96.5129 38.9338 96.3414 38.6285 96.0362C38.3233 95.7309 38.1518 95.3169 38.1518 94.8852V59.0754C38.1518 58.6437 38.3233 58.2297 38.6285 57.9244C38.9338 57.6191 39.3478 57.4477 39.7795 57.4477ZM67.4507 21.6378H60.9398C53.1721 21.6469 45.725 24.7366 40.2323 30.2293C34.7397 35.7219 31.6499 43.169 31.6409 50.9368V57.4477H28.3855V50.9368C28.3954 42.3059 31.8284 34.0313 37.9314 27.9283C44.0343 21.8253 52.3089 18.3923 60.9398 18.3824H67.4507C76.0816 18.3923 84.3562 21.8253 90.4592 27.9283C96.5622 34.0313 99.9952 42.3059 100.005 50.9368V57.4477H96.7497V50.9368C96.7406 43.169 93.6509 35.7219 88.1582 30.2293C82.6655 24.7366 75.2185 21.6469 67.4507 21.6378ZM88.6111 96.5129C88.1794 96.5129 87.7653 96.3414 87.4601 96.0362C87.1548 95.7309 86.9833 95.3169 86.9833 94.8852V59.0754C86.9833 58.6437 87.1548 58.2297 87.4601 57.9244C87.7653 57.6191 88.1794 57.4477 88.6111 57.4477C89.0428 57.4477 89.4568 57.6191 89.762 57.9244C90.0673 58.2297 90.2388 58.6437 90.2388 59.0754V94.8852C90.2388 95.3169 90.0673 95.7309 89.762 96.0362C89.4568 96.3414 89.0428 96.5129 88.6111 96.5129ZM66.3113 109.046C66.0882 108.819 65.9369 108.531 65.8759 108.218C65.815 107.905 65.8471 107.582 65.9685 107.287C66.0898 106.992 66.2949 106.74 66.5584 106.561C66.8219 106.382 67.1321 106.284 67.4507 106.279H72.3339V109.535C67.1447 109.535 66.9477 109.697 66.3113 109.046ZM101.633 104.652C101.633 105.947 101.118 107.189 100.203 108.104C99.2868 109.02 98.0448 109.535 96.7497 109.535H75.5893V106.279H93.4942C94.7893 106.279 96.0314 105.765 96.9471 104.849C97.8629 103.933 98.3774 102.691 98.3774 101.396V96.5129C99.4647 96.5688 100.555 96.5197 101.633 96.3664V104.652ZM106.516 67.214V86.7466C106.516 88.4734 105.83 90.1295 104.609 91.3505C103.388 92.5715 101.732 93.2575 100.005 93.2575H93.4942V60.7031H100.005C101.732 60.7031 103.388 61.3891 104.609 62.6101C105.83 63.8311 106.516 65.4872 106.516 67.214Z" fill="#C7E3F8"/>
<path d="M65.2958 70.0413C76.7371 59.5474 85.3559 53.5525 85.3559 44.2452C85.3559 31.5327 71.543 26.9735 64.1955 36.4598C56.8496 26.9735 43.0352 31.5327 43.0352 44.2452C43.0352 53.6014 51.6881 59.58 63.0952 70.0413C63.3954 70.3168 63.7881 70.4696 64.1955 70.4696C64.603 70.4696 64.9956 70.3168 65.2958 70.0413ZM46.2906 44.2452C46.2906 38.781 49.7886 34.6596 54.4292 34.6596C60.0367 34.6596 62.6101 39.9334 62.7224 40.1694C62.8539 40.4491 63.0622 40.6855 63.3231 40.8511C63.5839 41.0167 63.8865 41.1047 64.1955 41.1047C64.5045 41.1047 64.8071 41.0167 65.068 40.8511C65.3288 40.6855 65.5371 40.4491 65.6686 40.1694C65.776 39.9448 68.3478 34.6596 73.9618 34.6596C78.6024 34.6596 82.1004 38.781 82.1004 44.2452C82.1004 51.9508 73.9488 57.7797 64.1955 66.6378C53.8627 57.254 46.2906 51.723 46.2906 44.2452Z" fill="#C7E3F8"/>
<path d="M69.0803 55.8196C69.9437 55.8196 70.7718 55.4766 71.3823 54.8661C71.9928 54.2556 72.3358 53.4276 72.3358 52.5642V49.3087C72.3358 48.4453 71.9928 47.6173 71.3823 47.0068C70.7718 46.3963 69.9437 46.0533 69.0803 46.0533C69.0803 45.1899 68.7374 44.3619 68.1269 43.7513C67.5163 43.1408 66.6883 42.7979 65.8249 42.7979H62.5695C61.7061 42.7979 60.878 43.1408 60.2675 43.7513C59.657 44.3619 59.314 45.1899 59.314 46.0533C58.4506 46.0533 57.6226 46.3963 57.0121 47.0068C56.4016 47.6173 56.0586 48.4453 56.0586 49.3087V52.5642C56.0586 53.4276 56.4016 54.2556 57.0121 54.8661C57.6226 55.4766 58.4506 55.8196 59.314 55.8196C59.314 56.683 59.657 57.511 60.2675 58.1215C60.878 58.7321 61.7061 59.075 62.5695 59.075H65.8249C66.6883 59.075 67.5163 58.7321 68.1269 58.1215C68.7374 57.511 69.0803 56.683 69.0803 55.8196ZM60.9418 52.5642H59.314V49.3087H60.9418C61.3734 49.3087 61.7875 49.1372 62.0927 48.832C62.398 48.5267 62.5695 48.1127 62.5695 47.681V46.0533H65.8249V47.681C65.8249 48.1127 65.9964 48.5267 66.3017 48.832C66.6069 49.1372 67.0209 49.3087 67.4526 49.3087H69.0803V52.5642H67.4526C67.0209 52.5642 66.6069 52.7357 66.3017 53.0409C65.9964 53.3462 65.8249 53.7602 65.8249 54.1919V55.8196H62.5695V54.1919C62.5695 53.7602 62.398 53.3462 62.0927 53.0409C61.7875 52.7357 61.3734 52.5642 60.9418 52.5642Z" fill="#C7E3F8"/>
</svg>
