<svg width="80" height="80" viewBox="0 0 80 80" fill="none" xmlns="http://www.w3.org/2000/svg">
<path d="M73.339 61.5368L61.7507 32.4272L63.8694 25.5065C64.1759 24.5049 64.095 23.4342 63.642 22.4888L58.7107 12.2022V12.1965C58.2069 11.1707 57.0187 10.6821 55.9377 11.0471C55.9264 11.0509 55.9151 11.0527 55.9039 11.0584C54.742 11.4721 54.1254 12.7413 54.5127 13.9019C54.5127 13.9057 54.5127 13.9094 54.5145 13.9132L55.8174 18.1158C54.6593 18.1289 53.7193 19.0686 53.7193 20.2255V25.089L51.6081 29.7596C36.3049 29.2991 32.9641 23.2544 32.934 23.1983C32.8024 22.9362 32.5336 22.7771 32.2365 22.7846C31.9433 22.7939 31.6819 22.9736 31.5691 23.2451C30.7382 25.2238 29.1966 26.8562 27.279 27.8165L26.0457 25.089V20.2255C26.0457 19.0686 25.1076 18.127 23.9476 18.1158L25.2467 13.9263C25.649 12.7581 25.0305 11.4758 23.8611 11.0602C22.7689 10.6727 21.5638 11.1613 21.0524 12.204L16.1212 22.4907C15.6681 23.436 15.5873 24.5068 15.8937 25.5083L18.0125 32.4291L6.42415 61.5387C5.83571 63.0157 5.86015 64.6331 6.49371 66.0914C7.12727 67.5497 8.29287 68.6766 9.77619 69.2626C10.4793 69.5396 11.22 69.6819 11.9777 69.6819H21.7461V72.3738C21.7461 72.7876 22.0827 73.1226 22.4981 73.1226C22.9136 73.1226 23.2501 72.7876 23.2501 72.3738V68.9331C23.2501 68.5194 22.9136 68.1843 22.4981 68.1843H11.9777C11.4118 68.1843 10.8572 68.0795 10.3308 67.8717C9.21971 67.4336 8.34739 66.5912 7.87363 65.4999C7.39987 64.4085 7.38107 63.1992 7.82099 62.0928L17.9786 36.5793C18.9844 37.4199 20.8964 38.5206 24.0153 38.5206C24.2898 38.5206 24.5755 38.5094 24.8688 38.4925L24.5812 39.3293L18.3734 57.2556C18.2832 57.5177 18.3452 57.8059 18.5332 58.01C18.678 58.1654 18.8773 58.2496 19.0841 58.2496C19.148 58.2496 19.2119 58.2421 19.2758 58.2253L30.8359 55.1851C31.7835 56.533 34.8309 60.2077 39.8806 60.2077C44.9303 60.2077 47.6563 56.503 48.5267 55.0803L60.4854 58.2253C60.5494 58.2421 60.6133 58.2496 60.6772 58.2496C60.884 58.2496 61.0833 58.1654 61.228 58.01C61.416 57.8078 61.4781 57.5177 61.3878 57.2556L55.1801 39.3312L54.8924 38.4925C55.1782 38.5094 55.4564 38.5187 55.7234 38.5187C58.8592 38.5187 60.7749 37.4068 61.7751 36.5644L71.9384 62.091C72.8464 64.3729 71.7222 66.9656 69.4305 67.8698C68.9041 68.0776 68.3495 68.1824 67.7836 68.1824H57.2631C56.8476 68.1824 56.5111 68.5175 56.5111 68.9312V69.914C56.5111 70.3278 56.8476 70.6628 57.2631 70.6628C57.6786 70.6628 58.0151 70.3278 58.0151 69.914V69.68H67.7836C68.5412 69.68 69.2819 69.5396 69.9851 69.2607C73.0476 68.0514 74.5516 64.5863 73.3371 61.5368H73.339ZM32.3832 24.9711C34.0996 26.9254 39.0196 30.808 51.2152 31.2423C51.1644 31.845 51.2339 32.4572 51.4351 33.0431L51.8506 34.2506C51.8356 34.8608 51.6889 37.8373 50.3297 40.9617C48.946 44.146 46.8084 46.4373 43.9546 47.8132C43.9302 47.8226 43.9076 47.8338 43.885 47.845C42.6762 48.4179 41.3414 48.8297 39.8806 49.0749C38.4199 48.8297 37.0851 48.4197 35.8762 47.845C35.8537 47.8338 35.8311 47.8207 35.8067 47.8113C32.9528 46.4354 30.8153 44.1441 29.4316 40.9598C28.0742 37.8354 27.9276 34.859 27.9107 34.2487L28.3243 33.0413C28.6909 31.9761 28.6363 30.8229 28.172 29.7952L27.8937 29.1793C29.77 28.2527 31.3435 26.7757 32.3832 24.9692V24.9711ZM18.5708 35.0836L19.5071 32.7342C19.5691 32.577 19.5766 32.4029 19.5277 32.24L17.3319 25.0684C17.1345 24.4263 17.1871 23.7393 17.4767 23.1328L22.4041 12.8517C22.5752 12.5017 22.9851 12.3351 23.3535 12.4661C23.7502 12.6065 23.9608 13.0446 23.8217 13.4414C23.8179 13.4508 23.816 13.4601 23.8123 13.4676L21.9755 19.3888C21.8965 19.5722 21.8401 19.7706 21.8157 19.9784L21.2329 24.9542C21.184 25.3642 21.4811 25.7367 21.8928 25.7854C22.3045 25.8322 22.6786 25.5383 22.7275 25.1283L23.3103 20.1525C23.346 19.8437 23.6092 19.6097 23.9232 19.6097C24.2635 19.6097 24.5398 19.8848 24.5398 20.2237V25.2481C24.5398 25.3548 24.5624 25.4597 24.6056 25.5551L26.8015 30.4148C27.1079 31.0944 27.1436 31.8563 26.903 32.5602L25.399 36.9406C21.2348 37.388 19.2213 35.7669 18.5708 35.0855V35.0836ZM20.2534 56.4113L26.0025 39.8104L26.7921 37.5116C27.0289 38.691 27.4125 40.0781 28.0291 41.5083C29.1251 44.0505 31.1349 47.0663 34.7821 48.9664V52.5905L20.2534 56.4113ZM39.8806 58.7026C36.0567 58.7026 33.4961 56.1286 32.4095 54.7639L35.7258 53.8916C35.739 53.8878 35.7503 53.8822 35.7634 53.8766C35.7935 53.8673 35.8236 53.856 35.8518 53.8429C35.8687 53.8354 35.8838 53.8261 35.9007 53.8167C35.927 53.8017 35.9533 53.7868 35.9796 53.768C35.9947 53.7568 36.0078 53.7456 36.021 53.7343C36.0454 53.7137 36.068 53.6932 36.0887 53.6707C36.1 53.6595 36.1094 53.6464 36.1188 53.6333C36.1394 53.607 36.1582 53.5808 36.177 53.5528C36.1846 53.5415 36.1902 53.5284 36.1977 53.5153C36.2146 53.4854 36.2297 53.4554 36.2409 53.4217C36.2466 53.4086 36.2485 53.3955 36.2541 53.3824C36.2635 53.3506 36.2729 53.3169 36.2785 53.2832C36.2804 53.2682 36.2823 53.2514 36.2842 53.2345C36.2861 53.2102 36.2917 53.1877 36.2917 53.1634V49.6422C37.3276 50.0446 38.4744 50.361 39.7453 50.5669H39.7547L39.7641 50.5707C39.7979 50.5763 39.8318 50.5782 39.8637 50.5782C39.8694 50.5782 39.8769 50.5782 39.8825 50.5782C39.8825 50.5782 39.8957 50.5782 39.9013 50.5782C39.9352 50.5782 39.9671 50.5763 40.0009 50.5707H40.0103L40.0198 50.5669C41.2906 50.361 42.4374 50.0428 43.4733 49.6422V53.1634C43.4733 53.1877 43.479 53.2102 43.4808 53.2326C43.4808 53.2495 43.4827 53.2663 43.4865 53.2832C43.4921 53.3169 43.4996 53.3487 43.5109 53.3805C43.5147 53.3955 43.5184 53.4086 43.5241 53.4236C43.5354 53.4554 43.5504 53.4854 43.5654 53.5153C43.573 53.5284 43.5786 53.5415 43.5861 53.5546C43.603 53.5827 43.6218 53.607 43.6425 53.6333C43.6519 53.6464 43.6632 53.6595 43.6745 53.6707C43.6951 53.6932 43.7177 53.7138 43.7422 53.7325C43.7553 53.7437 43.7685 53.7568 43.7835 53.7662C43.808 53.7849 43.8343 53.7999 43.8606 53.8148C43.8775 53.8242 43.8925 53.8336 43.9095 53.841C43.9377 53.8541 43.9678 53.8635 43.9978 53.8747C44.011 53.8785 44.0223 53.886 44.0354 53.8897L46.9945 54.6685C46.0527 56.0406 43.7327 58.7026 39.8806 58.7026ZM59.5078 56.4113L44.9792 52.5905V48.9664C48.6283 47.0644 50.6361 44.0486 51.7322 41.5083C52.3488 40.0762 52.7323 38.6891 52.9692 37.5116L53.0369 37.7082C53.0482 37.8186 53.0858 37.9216 53.1422 38.0133L53.7607 39.8142L59.5097 56.4132L59.5078 56.4113ZM54.3642 36.9425L52.8602 32.5602C52.6176 31.8544 52.6533 31.0925 52.9617 30.4148L55.1575 25.5551C55.2007 25.4578 55.2233 25.353 55.2233 25.2481V20.2237C55.2233 19.8848 55.4997 19.6097 55.84 19.6097C56.152 19.6097 56.4152 19.8437 56.4528 20.1525L57.0356 25.1283C57.0845 25.5383 57.4567 25.8322 57.8703 25.7854C58.2821 25.7367 58.5791 25.3661 58.5302 24.9542L57.9474 19.9784C57.923 19.7706 57.8685 19.5722 57.7895 19.3888L55.9527 13.4676C55.9527 13.4676 55.949 13.4583 55.9471 13.4545C55.9471 13.4508 55.9471 13.4452 55.9433 13.4414C55.8042 13.0446 56.0129 12.6084 56.4096 12.4661C56.7799 12.3351 57.1879 12.4998 57.359 12.8517L62.2865 23.1309C62.576 23.7374 62.6286 24.4263 62.4312 25.0684L60.2354 32.24C60.2316 32.2494 60.2316 32.2588 60.2297 32.2681C60.2222 32.2943 60.2185 32.3187 60.2147 32.3449C60.2109 32.3673 60.2072 32.3917 60.2072 32.4141C60.2072 32.4385 60.2072 32.4628 60.2072 32.4871C60.2072 32.5115 60.2091 32.5377 60.2128 32.562C60.2166 32.5845 60.2222 32.607 60.226 32.6294C60.2316 32.6556 60.2391 32.6818 60.2485 32.7062C60.2523 32.7155 60.2523 32.7249 60.2561 32.7342L61.1848 35.0686C60.5531 35.7407 58.5471 37.3862 54.3642 36.9425Z" fill="#0E4271"/>
<path d="M28.9732 17.2733C29.1217 17.4643 29.3436 17.5654 29.5692 17.5654C29.729 17.5654 29.8906 17.5148 30.0279 17.41C30.3569 17.1573 30.417 16.6874 30.1632 16.3598L28.3002 13.9561C28.0464 13.6285 27.5745 13.5686 27.2455 13.8214C26.9165 14.0741 26.8563 14.544 27.1101 14.8716L28.9732 17.2752V17.2733Z" fill="#0E4271"/>
<path d="M33.7982 14.7256C33.8658 15.07 34.1704 15.3321 34.537 15.3321C34.9525 15.3321 35.289 14.997 35.289 14.5833C35.289 14.4335 35.289 14.3643 33.1157 7.52397C32.9898 7.12898 32.5686 6.91182 32.172 7.03538C31.7753 7.1608 31.5572 7.58013 31.6813 7.97512C32.4803 10.4911 33.691 14.3249 33.7982 14.7256Z" fill="#0E4271"/>
<path d="M39.5079 14.3361C39.9233 14.3361 40.2599 14.001 40.2599 13.5873V9.80959C40.2599 9.39588 39.9233 9.06079 39.5079 9.06079C39.0924 9.06079 38.7559 9.39588 38.7559 9.80959V13.5873C38.7559 14.001 39.0924 14.3361 39.5079 14.3361Z" fill="#0E4271"/>
<path d="M48.9916 17.4082C49.1288 17.513 49.2905 17.5636 49.4503 17.5636C49.6759 17.5636 49.8977 17.4625 50.0463 17.2715L51.9093 14.8679C52.1631 14.5403 52.103 14.0704 51.774 13.8177C51.445 13.565 50.9731 13.6249 50.7193 13.9525L48.8562 16.3561C48.6024 16.6837 48.6626 17.1536 48.9916 17.4063V17.4082Z" fill="#0E4271"/>
<path d="M44.4825 15.332C44.8491 15.332 45.1536 15.0718 45.2213 14.7255C45.3285 14.3249 46.5392 10.4892 47.3382 7.97509C47.4641 7.5801 47.2442 7.16077 46.8475 7.03534C46.4508 6.90992 46.0297 7.12894 45.9037 7.52394C43.7305 14.3642 43.7305 14.4335 43.7305 14.5832C43.7305 14.997 44.067 15.332 44.4825 15.332Z" fill="#0E4271"/>
<path d="M35.1296 43.4924C35.3816 43.82 35.8535 43.8818 36.1825 43.631C36.3366 43.5149 39.9894 40.7968 43.3452 43.6104C43.4862 43.7283 43.6573 43.7863 43.8284 43.7863C44.0427 43.7863 44.2552 43.6965 44.4037 43.5205C44.6706 43.2041 44.6312 42.7324 44.3134 42.4647C40.8806 39.5856 36.8931 41.1936 35.265 42.4441C34.936 42.6968 34.8758 43.1648 35.1296 43.4924Z" fill="#0E4271"/>
<path d="M31.3902 36.1449C31.4898 36.2123 33.0878 37.2513 35.1408 37.2513C36.2067 37.2513 37.3949 36.9705 38.5586 36.1281C38.8951 35.8847 38.9685 35.4167 38.7241 35.0816C38.4797 34.7465 38.0097 34.6735 37.6731 34.9169C35.1276 36.7589 32.3433 34.9787 32.223 34.8982C31.8771 34.6698 31.4127 34.7634 31.1815 35.106C30.9503 35.4504 31.0443 35.9147 31.3902 36.1449Z" fill="#0E4271"/>
<path d="M41.2017 36.1281C42.3654 36.9705 43.5536 37.2513 44.6195 37.2513C46.6706 37.2513 48.2705 36.2123 48.3701 36.1449C48.716 35.9147 48.8082 35.4504 48.5769 35.106C48.3457 34.7615 47.8794 34.6698 47.5335 34.9001C47.5053 34.9188 44.6515 36.7758 42.0853 34.9169C41.7488 34.6735 41.2788 34.7484 41.0344 35.0816C40.79 35.4167 40.8652 35.8847 41.1998 36.1281H41.2017Z" fill="#0E4271"/>
<path d="M57.2639 71.6306C56.8503 71.6306 56.5156 71.9638 56.5156 72.3757C56.5156 72.7875 56.8503 73.1207 57.2639 73.1207C57.6775 73.1207 58.0121 72.7875 58.0121 72.3757C58.0121 71.9638 57.6775 71.6306 57.2639 71.6306Z" fill="#0E4271"/>
</svg>
