<svg width="80" height="80" viewBox="0 0 80 80" fill="none" xmlns="http://www.w3.org/2000/svg">
<path d="M56.6264 71.8979C56.2242 71.8979 55.8984 72.227 55.8984 72.6266C55.8984 73.0261 56.2242 73.3498 56.6264 73.3498C57.0287 73.3498 57.3544 73.0261 57.3544 72.6266V72.6157C57.3544 72.2162 57.0287 71.8979 56.6264 71.8979Z" fill="#0E4271"/>
<path d="M72.1899 62.1638L60.9714 34.0494L63.0225 27.3652C63.3192 26.3979 63.2409 25.3637 62.8023 24.4507L58.0285 14.5157V14.5103C57.5407 13.5195 56.3904 13.0476 55.3439 13.4002C55.333 13.4038 55.3221 13.4056 55.3112 13.411C54.1864 13.8106 53.5895 15.0364 53.9644 16.1574C53.9644 16.161 53.9644 16.1646 53.9662 16.1682L55.2275 20.2272C54.1063 20.2399 53.1964 21.1475 53.1964 22.2648V26.962L51.1525 31.473C36.3377 31.0282 33.1036 25.1902 33.0744 25.1359C32.947 24.8828 32.6868 24.7291 32.3992 24.7364C32.1153 24.7454 31.8623 24.919 31.7531 25.1811C30.9487 27.0922 29.4563 28.6688 27.5999 29.5963L26.406 26.962V22.2648C26.406 21.1475 25.4978 20.238 24.3748 20.2272L25.6325 16.1809C26.0219 15.0527 25.4231 13.8142 24.2911 13.4128C23.2337 13.0386 22.0671 13.5105 21.572 14.5175L16.7982 24.4525C16.3596 25.3655 16.2813 26.3997 16.578 27.367L18.6291 34.0512L7.41061 62.1656C6.84095 63.5921 6.86461 65.1542 7.47795 66.5626C8.09129 67.9711 9.21969 69.0595 10.6557 69.6254C11.3364 69.893 12.0534 70.0304 12.7869 70.0304H22.2436V72.6303C22.2436 73.0298 22.5694 73.3535 22.9716 73.3535C23.3738 73.3535 23.6996 73.0298 23.6996 72.6303V69.3072C23.6996 68.9076 23.3738 68.584 22.9716 68.584H12.7869C12.2391 68.584 11.7022 68.4827 11.1926 68.282C10.117 67.859 9.27247 67.0454 8.81383 65.9913C8.35519 64.9372 8.33699 63.7693 8.76287 62.7007L18.5963 38.0595C19.57 38.8713 21.421 39.9344 24.4403 39.9344C24.7061 39.9344 24.9827 39.9236 25.2666 39.9073L24.9882 40.7155L18.9785 58.0289C18.8912 58.282 18.9512 58.5604 19.1332 58.7575C19.2734 58.9076 19.4663 58.9889 19.6665 58.9889C19.7284 58.9889 19.7902 58.9817 19.8521 58.9654L31.0433 56.0292C31.9606 57.331 34.9108 60.8801 39.7993 60.8801C44.6879 60.8801 47.3269 57.302 48.1695 55.928L59.7465 58.9654C59.8084 58.9817 59.8703 58.9889 59.9322 58.9889C60.1324 58.9889 60.3253 58.9076 60.4654 58.7575C60.6474 58.5622 60.7075 58.282 60.6201 58.0289L54.6105 40.7173L54.332 39.9073C54.6087 39.9236 54.878 39.9326 55.1365 39.9326C58.1722 39.9326 60.0268 38.8586 60.995 38.045L70.834 62.6989C71.713 64.9029 70.6247 67.407 68.4061 68.2802C67.8965 68.4809 67.3596 68.5822 66.8118 68.5822H56.658C56.6471 68.5822 56.638 68.5785 56.627 68.5785C56.2248 68.5785 55.899 68.9022 55.899 69.3017V70.0249C55.899 70.4245 56.2248 70.7481 56.627 70.7481C57.0293 70.7481 57.3532 70.4263 57.355 70.0286H66.8118C67.5452 70.0286 68.2623 69.893 68.943 69.6236C71.9078 68.4556 73.3638 65.109 72.188 62.1638H72.1899ZM32.5412 26.8481C34.2028 28.7356 38.9658 32.4854 50.7721 32.9049C50.723 33.4871 50.7903 34.0783 50.9851 34.6442L51.3873 35.8104C51.3727 36.3998 51.2307 39.2745 49.9149 42.292C48.5754 45.3674 46.506 47.5804 43.7433 48.9093C43.7196 48.9184 43.6978 48.9292 43.6759 48.94C42.5057 49.4933 41.2135 49.8911 39.7993 50.1279C38.3852 49.8911 37.093 49.4951 35.9227 48.94C35.9009 48.9292 35.8791 48.9165 35.8554 48.9075C33.0926 47.5786 31.0233 45.3656 29.6838 42.2902C28.3697 39.2727 28.2278 36.398 28.2114 35.8085L28.6118 34.6424C28.9667 33.6136 28.9139 32.4999 28.4644 31.5073L28.195 30.9125C30.0114 30.0175 31.5347 28.591 32.5412 26.8463V26.8481ZM19.1696 36.6149L20.076 34.3459C20.1361 34.194 20.1433 34.0259 20.096 33.8686L17.9703 26.9421C17.7792 26.322 17.8301 25.6584 18.1104 25.0726L22.8806 15.1431C23.0462 14.805 23.443 14.6441 23.7997 14.7707C24.1837 14.9063 24.3876 15.3293 24.2529 15.7126C24.2493 15.7217 24.2474 15.7307 24.2438 15.7379L22.4656 21.4566C22.3892 21.6338 22.3346 21.8255 22.311 22.0262L21.7467 26.8318C21.6994 27.2278 21.987 27.5876 22.3856 27.6346C22.7842 27.6798 23.1463 27.3959 23.1936 27L23.7579 22.1943C23.7924 21.896 24.0472 21.67 24.3512 21.67C24.6806 21.67 24.9481 21.9358 24.9481 22.263V27.1157C24.9481 27.2187 24.97 27.32 25.0118 27.4122L27.1376 32.1058C27.4342 32.7621 27.4688 33.4979 27.2359 34.1777L25.7799 38.4084C21.7486 38.8406 19.7993 37.2748 19.1696 36.6167V36.6149ZM26.3641 41.1801L27.1285 38.9599C27.3578 40.0989 27.7291 41.4387 28.3261 42.82C29.3871 45.2752 31.3327 48.1879 34.8635 50.023V53.5233L20.7985 57.2135L26.3641 41.1801ZM39.7975 59.4264C36.0956 59.4264 33.6168 56.9404 32.5648 55.6224L35.7753 54.7799C35.7881 54.7763 35.799 54.7708 35.8117 54.7654C35.8408 54.7564 35.87 54.7455 35.8973 54.7329C35.9136 54.7256 35.9282 54.7166 35.9446 54.7076C35.9701 54.6931 35.9955 54.6786 36.021 54.6606C36.0356 54.6497 36.0483 54.6389 36.0611 54.628C36.0847 54.6081 36.1066 54.5882 36.1266 54.5665C36.1375 54.5557 36.1466 54.543 36.1557 54.5304C36.1757 54.5051 36.1939 54.4798 36.2121 54.4526C36.2194 54.4418 36.2248 54.4291 36.2321 54.4165C36.2485 54.3876 36.2631 54.3586 36.274 54.3261C36.2795 54.3134 36.2813 54.3008 36.2867 54.2881C36.2958 54.2574 36.3049 54.2248 36.3104 54.1923C36.3122 54.1778 36.314 54.1616 36.3159 54.1453C36.3177 54.1218 36.3231 54.1001 36.3231 54.0766V50.6757C37.326 51.0644 38.4362 51.37 39.6665 51.5689H39.6756L39.6847 51.5725C39.7174 51.5779 39.7502 51.5797 39.7811 51.5797C39.7866 51.5797 39.7939 51.5797 39.7993 51.5797C39.7993 51.5797 39.8121 51.5797 39.8175 51.5797C39.8503 51.5797 39.8812 51.5779 39.914 51.5725H39.9231L39.9322 51.5689C41.1625 51.37 42.2727 51.0626 43.2755 50.6757V54.0766C43.2755 54.1001 43.281 54.1218 43.2828 54.1435C43.2828 54.1597 43.2846 54.176 43.2883 54.1923C43.2937 54.2248 43.301 54.2556 43.3119 54.2863C43.3156 54.3008 43.3192 54.3134 43.3247 54.3279C43.3356 54.3586 43.3502 54.3876 43.3647 54.4165C43.372 54.4291 43.3775 54.4418 43.3847 54.4544C43.4011 54.4816 43.4193 54.5051 43.4393 54.5304C43.4484 54.543 43.4594 54.5557 43.4703 54.5665C43.4903 54.5882 43.5121 54.6081 43.5358 54.6262C43.5485 54.6371 43.5613 54.6497 43.5758 54.6588C43.5995 54.6768 43.625 54.6913 43.6505 54.7058C43.6668 54.7148 43.6814 54.7238 43.6978 54.7311C43.7251 54.7437 43.7542 54.7528 43.7833 54.7636C43.7961 54.7672 43.807 54.7745 43.8197 54.7781L46.6844 55.5302C45.7726 56.8555 43.5267 59.4264 39.7975 59.4264ZM58.7983 57.2135L44.7333 53.5233V50.023C48.266 48.1861 50.2097 45.2734 51.2708 42.82C51.8678 41.4368 52.239 40.0971 52.4683 38.9599L52.5339 39.1497C52.5448 39.2564 52.5812 39.3558 52.6358 39.4444L53.2346 41.1837L58.8001 57.2153L58.7983 57.2135ZM53.8188 38.4103L52.3628 34.1777C52.128 33.4961 52.1626 32.7603 52.4611 32.1058L54.5868 27.4122C54.6287 27.3182 54.6505 27.2169 54.6505 27.1157V22.263C54.6505 21.9358 54.9181 21.67 55.2475 21.67C55.5496 21.67 55.8044 21.896 55.8408 22.1943L56.405 27C56.4523 27.3959 56.8127 27.6798 57.2131 27.6346C57.6117 27.5876 57.8992 27.2296 57.8519 26.8318L57.2877 22.0262C57.264 21.8255 57.2113 21.6338 57.1348 21.4566L55.3567 15.7379C55.3567 15.7379 55.3531 15.7289 55.3512 15.7253C55.3512 15.7217 55.3512 15.7162 55.3476 15.7126C55.2129 15.3293 55.4149 14.9081 55.799 14.7707C56.1575 14.6441 56.5524 14.8032 56.718 15.1431L61.4883 25.0708C61.7686 25.6566 61.8195 26.322 61.6284 26.9421L59.5027 33.8686C59.499 33.8776 59.499 33.8866 59.4972 33.8957C59.4899 33.921 59.4863 33.9445 59.4826 33.9698C59.479 33.9915 59.4753 34.015 59.4753 34.0367C59.4753 34.0602 59.4753 34.0837 59.4753 34.1072C59.4753 34.1307 59.4772 34.156 59.4808 34.1795C59.4845 34.2012 59.4899 34.2229 59.4935 34.2446C59.499 34.2699 59.5063 34.2952 59.5154 34.3188C59.519 34.3278 59.519 34.3368 59.5227 34.3459L60.4217 36.6004C59.8102 37.2495 57.8683 38.8388 53.8188 38.4103Z" fill="#0E4271"/>
<path d="M35.1989 44.7364C35.4427 45.0528 35.8996 45.1125 36.2181 44.8702C36.3673 44.7581 39.9036 42.1329 43.1523 44.8503C43.2888 44.9642 43.4544 45.0203 43.62 45.0203C43.8275 45.0203 44.0331 44.9335 44.1769 44.7635C44.4354 44.458 44.3971 44.0024 44.0896 43.7438C40.7662 40.9631 36.906 42.5162 35.3299 43.7239C35.0114 43.968 34.9532 44.42 35.1989 44.7364Z" fill="#0E4271"/>
<path d="M31.6809 34.8899L36.2946 37.2729L32.9149 38.5258C32.5381 38.665 32.347 39.0827 32.4872 39.4569C32.5964 39.748 32.8748 39.927 33.1697 39.927C33.2534 39.927 33.3408 39.9125 33.4245 39.8818L38.3385 38.0593C38.6078 37.9599 38.7935 37.7104 38.8099 37.4265C38.8281 37.1409 38.6734 36.8733 38.4186 36.7413L32.3525 33.608C31.9958 33.4236 31.5553 33.561 31.3715 33.9154C31.1859 34.2698 31.3242 34.7073 31.6809 34.8899Z" fill="#0E4271"/>
<path d="M41.2577 38.0593L46.1717 39.8818C46.2555 39.9125 46.341 39.927 46.4265 39.927C46.7214 39.927 46.9998 39.748 47.109 39.4569C47.2492 39.0827 47.0581 38.6668 46.6813 38.5258L43.3016 37.2729L47.9153 34.8899C48.272 34.7055 48.4103 34.2698 48.2247 33.9154C48.0391 33.561 47.5986 33.4236 47.2437 33.608L41.1777 36.7413C40.9229 36.8733 40.77 37.1427 40.7864 37.4265C40.8046 37.7122 40.9884 37.9599 41.2577 38.0593Z" fill="#0E4271"/>
<path d="M39.7979 12.921C41.718 12.921 43.2814 11.368 43.2814 9.46051C43.2814 7.55307 41.718 6 39.7979 6C37.8778 6 36.3145 7.55307 36.3145 9.46051C36.3145 11.368 37.8778 12.921 39.7979 12.921ZM39.7979 7.4464C40.9154 7.4464 41.8254 8.3504 41.8254 9.46051C41.8254 10.5706 40.9154 11.4746 39.7979 11.4746C38.6805 11.4746 37.7705 10.5706 37.7705 9.46051C37.7705 8.3504 38.6805 7.4464 39.7979 7.4464Z" fill="#0E4271"/>
<path d="M47.6964 15.7089C49.6183 15.7089 51.1799 14.1558 51.1799 12.2484C51.1799 10.3409 49.6165 8.78784 47.6964 8.78784C45.7763 8.78784 44.2129 10.3409 44.2129 12.2484C44.2129 14.1558 45.7763 15.7089 47.6964 15.7089ZM47.6964 10.2342C48.8139 10.2342 49.7239 11.1382 49.7239 12.2484C49.7239 13.3585 48.8139 14.2625 47.6964 14.2625C46.5789 14.2625 45.6689 13.3585 45.6689 12.2484C45.6689 11.1382 46.5789 10.2342 47.6964 10.2342Z" fill="#0E4271"/>
<path d="M31.9014 15.7089C33.8234 15.7089 35.3849 14.1558 35.3849 12.2484C35.3849 10.3409 33.8215 8.78784 31.9014 8.78784C29.9813 8.78784 28.418 10.3409 28.418 12.2484C28.418 14.1558 29.9813 15.7089 31.9014 15.7089ZM31.9014 10.2342C33.0189 10.2342 33.9289 11.1382 33.9289 12.2484C33.9289 13.3585 33.0189 14.2625 31.9014 14.2625C30.784 14.2625 29.874 13.3585 29.874 12.2484C29.874 11.1382 30.784 10.2342 31.9014 10.2342Z" fill="#0E4271"/>
<path d="M27.9546 21.6699C28.3568 21.6699 28.6826 21.3463 28.6826 20.9467V19.278C28.6826 18.298 29.4852 17.5007 30.4716 17.5007H33.3345C34.3209 17.5007 35.1235 18.298 35.1235 19.278V20.9467C35.1235 21.3463 35.4493 21.6699 35.8515 21.6699C36.2538 21.6699 36.5795 21.3463 36.5795 20.9467V16.49C36.5795 15.5101 37.3822 14.7128 38.3686 14.7128H41.2315C42.2179 14.7128 43.0205 15.5101 43.0205 16.49V20.9467C43.0205 21.3463 43.3463 21.6699 43.7485 21.6699C44.1507 21.6699 44.4765 21.3463 44.4765 20.9467V19.278C44.4765 18.298 45.2791 17.5007 46.2656 17.5007H49.1284C50.1149 17.5007 50.9175 18.298 50.9175 19.278V20.9467C50.9175 21.3463 51.2433 21.6699 51.6455 21.6699C52.0477 21.6699 52.3735 21.3463 52.3735 20.9467V19.278C52.3735 17.5007 50.9175 16.0543 49.1284 16.0543H46.2656C45.6049 16.0543 44.9898 16.2532 44.4765 16.5913V16.49C44.4765 14.7128 43.0205 13.2664 41.2315 13.2664H38.3686C36.5795 13.2664 35.1235 14.7128 35.1235 16.49V16.5913C34.6103 16.2532 33.9951 16.0543 33.3345 16.0543H30.4716C28.6826 16.0543 27.2266 17.5007 27.2266 19.278V20.9467C27.2266 21.3463 27.5523 21.6699 27.9546 21.6699Z" fill="#0E4271"/>
<path d="M9.6655 34.9713H14.7615C15.1637 34.9713 15.4895 34.6477 15.4895 34.2481C15.4895 33.8485 15.1637 33.5249 14.7615 33.5249H9.6655C9.26328 33.5249 8.9375 33.8485 8.9375 34.2481C8.9375 34.6477 9.26328 34.9713 9.6655 34.9713Z" fill="#0E4271"/>
<path d="M10.8902 29.7533L14.401 31.7421C14.5156 31.8072 14.6394 31.838 14.7613 31.838C15.0143 31.838 15.26 31.706 15.3947 31.4728C15.5931 31.1256 15.4729 30.6845 15.1235 30.4856L11.6127 28.4968C11.2633 28.2997 10.8192 28.419 10.619 28.7662C10.4206 29.1133 10.5407 29.5545 10.8902 29.7533Z" fill="#0E4271"/>
<path d="M14.3415 36.8806L10.8307 39.3377C10.5013 39.5673 10.4231 40.0193 10.6542 40.3447C10.7962 40.5454 11.0218 40.6521 11.2493 40.6521C11.3949 40.6521 11.5405 40.6087 11.6679 40.5201L15.1787 38.063C15.5081 37.8334 15.5864 37.3814 15.3553 37.056C15.1241 36.7287 14.6691 36.651 14.3415 36.8806Z" fill="#0E4271"/>
<path d="M64.8374 34.9713H69.9334C70.3356 34.9713 70.6614 34.6477 70.6614 34.2481C70.6614 33.8485 70.3356 33.5249 69.9334 33.5249H64.8374C64.4352 33.5249 64.1094 33.8485 64.1094 34.2481C64.1094 34.6477 64.4352 34.9713 64.8374 34.9713Z" fill="#0E4271"/>
<path d="M64.8391 31.838C64.961 31.838 65.0848 31.8073 65.1995 31.7422L68.7102 29.7534C69.0597 29.5563 69.1816 29.1134 68.9814 28.7662C68.783 28.4191 68.3371 28.298 67.9877 28.4969L64.4769 30.4857C64.1275 30.6827 64.0055 31.1257 64.2057 31.4728C64.3404 31.7061 64.5861 31.838 64.8391 31.838Z" fill="#0E4271"/>
<path d="M65.2578 36.8806C64.9284 36.651 64.4752 36.7287 64.244 37.056C64.0129 37.3832 64.0912 37.8334 64.4206 38.063L67.9314 40.5201C68.0588 40.6087 68.2044 40.6521 68.35 40.6521C68.5793 40.6521 68.805 40.5454 68.9451 40.3447C69.1762 40.0175 69.098 39.5673 68.7686 39.3377L65.2578 36.8806Z" fill="#0E4271"/>
</svg>
